  0
SECTION
  2
HEADER
  9
$ACADVER
  1
AC1009
  9
$INSBASE
 10
0.0
 20
0.0
 30
0.0
  9
$EXTMIN
 10
-9.9393739938236614
 20
5.7408213968459467
 30
0.0
  9
$EXTMAX
 10
16.624576307820892
 20
19.233123532388131
 30
0.0
  9
$LIMMIN
 10
0.0
 20
0.0
  9
$LIMMAX
 10
12.0
 20
9.0
  9
$ORTHOMODE
 70
     1
  9
$REGENMODE
 70
     1
  9
$FILLMODE
 70
     1
  9
$QTEXTMODE
 70
     0
  9
$MIRRTEXT
 70
     1
  9
$DRAGMODE
 70
     2
  9
$LTSCALE
 40
1.0
  9
$OSMODE
 70
     7
  9
$ATTMODE
 70
     1
  9
$TEXTSIZE
 40
0.2
  9
$TRACEWID
 40
0.05
  9
$TEXTSTYLE
  7
ARIAL
  9
$CLAYER
  8
0
  9
$CELTYPE
  6
BYLAYER
  9
$CECOLOR
 62
   256
  9
$DIMSCALE
 40
1.0
  9
$DIMASZ
 40
0.18
  9
$DIMEXO
 40
0.0625
  9
$DIMDLI
 40
0.38
  9
$DIMRND
 40
0.0
  9
$DIMDLE
 40
0.0
  9
$DIMEXE
 40
0.18
  9
$DIMTP
 40
0.0
  9
$DIMTM
 40
0.0
  9
$DIMTXT
 40
0.18
  9
$DIMCEN
 40
0.09
  9
$DIMTSZ
 40
0.0
  9
$DIMTOL
 70
     0
  9
$DIMLIM
 70
     0
  9
$DIMTIH
 70
     1
  9
$DIMTOH
 70
     1
  9
$DIMSE1
 70
     0
  9
$DIMSE2
 70
     0
  9
$DIMTAD
 70
     0
  9
$DIMZIN
 70
     0
  9
$DIMBLK
  1

  9
$DIMASO
 70
     1
  9
$DIMSHO
 70
     1
  9
$DIMPOST
  1

  9
$DIMAPOST
  1

  9
$DIMALT
 70
     0
  9
$DIMALTD
 70
     2
  9
$DIMALTF
 40
25.399999999999999
  9
$DIMLFAC
 40
1.0
  9
$DIMTOFL
 70
     0
  9
$DIMTVP
 40
0.0
  9
$DIMTIX
 70
     0
  9
$DIMSOXD
 70
     0
  9
$DIMSAH
 70
     0
  9
$DIMBLK1
  1

  9
$DIMBLK2
  1

  9
$DIMSTYLE
  2
STANDARD
  9
$DIMCLRD
 70
     0
  9
$DIMCLRE
 70
     0
  9
$DIMCLRT
 70
     0
  9
$DIMTFAC
 40
1.0
  9
$DIMGAP
 40
0.09
  9
$LUNITS
 70
     2
  9
$LUPREC
 70
     4
  9
$SKETCHINC
 40
0.1
  9
$FILLETRAD
 40
0.0
  9
$AUNITS
 70
     0
  9
$AUPREC
 70
     0
  9
$MENU
  1
.
  9
$ELEVATION
 40
0.0
  9
$PELEVATION
 40
0.0
  9
$THICKNESS
 40
0.0
  9
$LIMCHECK
 70
     0
  9
$BLIPMODE
 70
     0
  9
$CHAMFERA
 40
0.5
  9
$CHAMFERB
 40
0.5
  9
$SKPOLY
 70
     0
  9
$TDCREATE
 40
2454336.5961634382
  9
$TDUPDATE
 40
2456573.4349449072
  9
$TDINDWG
 40
0.2758845602
  9
$TDUSRTIMER
 40
0.2758819444
  9
$USRTIMER
 70
     1
  9
$ANGBASE
 50
0.0
  9
$ANGDIR
 70
     0
  9
$PDMODE
 70
     0
  9
$PDSIZE
 40
0.0
  9
$PLINEWID
 40
0.0
  9
$COORDS
 70
     1
  9
$SPLFRAME
 70
     0
  9
$SPLINETYPE
 70
     6
  9
$SPLINESEGS
 70
     8
  9
$ATTDIA
 70
     1
  9
$ATTREQ
 70
     1
  9
$HANDLING
 70
     1
  9
$HANDSEED
  5
3013
  9
$SURFTAB1
 70
     6
  9
$SURFTAB2
 70
     6
  9
$SURFTYPE
 70
     6
  9
$SURFU
 70
     6
  9
$SURFV
 70
     6
  9
$UCSNAME
  2

  9
$UCSORG
 10
0.0
 20
0.0
 30
0.0
  9
$UCSXDIR
 10
1.0
 20
0.0
 30
0.0
  9
$UCSYDIR
 10
0.0
 20
1.0
 30
0.0
  9
$PUCSNAME
  2

  9
$PUCSORG
 10
0.0
 20
0.0
 30
0.0
  9
$PUCSXDIR
 10
1.0
 20
0.0
 30
0.0
  9
$PUCSYDIR
 10
0.0
 20
1.0
 30
0.0
  9
$USERI1
 70
     0
  9
$USERI2
 70
     0
  9
$USERI3
 70
     0
  9
$USERI4
 70
     0
  9
$USERI5
 70
     0
  9
$USERR1
 40
0.0
  9
$USERR2
 40
0.0
  9
$USERR3
 40
0.0
  9
$USERR4
 40
0.0
  9
$USERR5
 40
0.0
  9
$WORLDVIEW
 70
     1
  9
$SHADEDGE
 70
     3
  9
$SHADEDIF
 70
    70
  9
$TILEMODE
 70
     1
  9
$MAXACTVP
 70
    64
  9
$PLIMCHECK
 70
     0
  9
$PEXTMIN
 10
1.0499999523162831
 20
0.7999999523162842
 30
0.0
  9
$PEXTMAX
 10
9.4499995708465594
 20
7.1999995708465541
 30
0.0
  9
$PLIMMIN
 10
-0.2500002402958907
 20
-0.2499999962453767
  9
$PLIMMAX
 10
10.74999951940822
 20
8.2499997634587334
  9
$UNITMODE
 70
     0
  9
$VISRETAIN
 70
     1
  9
$PLINEGEN
 70
     0
  9
$PSLTSCALE
 70
     1
  0
ENDSEC
  0
SECTION
  2
TABLES
  0
TABLE
  2
VPORT
 70
     1
  0
VPORT
  2
*ACTIVE
 70
     0
 10
0.0
 20
0.0
 11
1.0
 21
1.0
 12
6.9523140803433954
 22
14.09870142216981
 13
0.0
 23
0.0
 14
0.5
 24
0.5
 15
0.5
 25
0.5
 16
0.0
 26
0.0
 36
1.0
 17
0.0
 27
0.0
 37
0.0
 40
24.423582195495008
 41
1.8804573804573801
 42
50.0
 43
0.0
 44
0.0
 50
0.0
 51
0.0
 71
     0
 72
   100
 73
     1
 74
     3
 75
     0
 76
     1
 77
     0
 78
     0
  0
ENDTAB
  0
TABLE
  2
LTYPE
 70
    18
  0
LTYPE
  2
CONTINUOUS
 70
     0
  3
Solid line
 72
    65
 73
     0
 40
0.0
  0
LTYPE
  2
HIDDEN
 70
     0
  3
Hidden __ __ __ __ __ __ __ __ __ __ __ __ __ _
 72
    65
 73
     2
 40
0.375
 49
0.25
 49
-0.125
  0
LTYPE
  2
PHANTOM2
 70
     0
  3
Phantom (.5x) ___ _ _ ___ _ _ ___ _ _ ___ _ _
 72
    65
 73
     6
 40
1.25
 49
0.625
 49
-0.125
 49
0.125
 49
-0.125
 49
0.125
 49
-0.125
  0
LTYPE
  2
CENTER
 70
     0
  3
Center ____ _ ____ _ ____ _ ____ _ ____ _ ____
 72
    65
 73
     4
 40
2.0
 49
1.25
 49
-0.25
 49
0.25
 49
-0.25
  0
LTYPE
  2
DASHED
 70
     0
  3
Dashed __ __ __ __ __ __ __ __ __ __ __ __ __ _
 72
    65
 73
     2
 40
0.75
 49
0.5
 49
-0.25
  0
LTYPE
  2
DOT
 70
     0
  3
Dot . . . . . . . . . . . . . . . . . . . . . .
 72
    65
 73
     2
 40
0.25
 49
0.0
 49
-0.25
  0
LTYPE
  2
AM_ISO02W050
 70
     0
  3
__ __ __ __ __ __ __ __ __ __ __ __ __ __ __
 72
    65
 73
     2
 40
7.5
 49
6.0
 49
-1.5
  0
LTYPE
  2
AM_ISO08W050
 70
     0
  3
____ . ____ . ____ . ____ . ____ . ____ . ____
 72
    65
 73
     4
 40
18.0
 49
12.0
 49
-1.5
 49
3.0
 49
-1.5
  0
LTYPE
  2
AM_ISO09W050
 70
     0
  3
_____ . . _____ . . _____ . . ____ .. ____
 72
    65
 73
     6
 40
22.5
 49
12.0
 49
-1.5
 49
3.0
 49
-1.5
 49
3.0
 49
-1.5
  0
LTYPE
  2
AMCONSTR
 70
     0
  3
_______________________
 72
    65
 73
     2
 40
9999.0
 49
9999.0
 49
0.0
  0
LTYPE
  2
AM_ISO08W050X2
 70
     0
  3
__ . __ . __ . __ . __ . __
 72
    65
 73
     4
 40
9.0
 49
6.0
 49
-0.75
 49
1.5
 49
-0.75
  0
LTYPE
  2
AM_ISO02W050X2
 70
     0
  3
 _ _ _ _ _ _ _ _ _ _ _ _
 72
    65
 73
     2
 40
3.75
 49
3.0
 49
-0.75
  0
LTYPE
  2
AMZIGZAG
 70
     0
  3
/\/-/\/-/\/-/\/-/\/-/\/
 72
    65
 73
     2
 40
11.0001
 49
0.0001
 49
-11.0
  0
LTYPE
  2
CENTER2
 70
     0
  3
Center (.5x) ___ _ ___ _ ___ _ ___ _ ___ _ ___
 72
    65
 73
     4
 40
1.125
 49
0.75
 49
-0.125
 49
0.125
 49
-0.125
  0
LTYPE
  2
HIDDEN2
 70
     0
  3
Hidden (.5x) _ _ _ _ _ _ _ _ _ _ _ _ _ _ _ _ _
 72
    65
 73
     2
 40
0.1875
 49
0.125
 49
-0.0625
  0
LTYPE
  2
AMZIGZAG2
 70
     0
  3
/\/-/\/-/\/-/\/-/\/-/\/
 72
    65
 73
     2
 40
0.4401
 49
0.0001
 49
-0.4400000000000001
  0
LTYPE
  2
ACANSTGB
 70
     0
  3
__ . . __ . .
 72
    65
 73
     6
 40
0.35433070866
 49
0.15748031496
 49
-0.03937007874
 49
0.03937007874
 49
-0.03937007874
 49
0.03937007874
 49
-0.03937007874
  0
LTYPE
  2
ACANSTGL
 70
     0
  3
_ _ _ _ _
 72
    65
 73
     2
 40
0.11811023622
 49
0.07874015748
 49
-0.03937007874
  0
ENDTAB
  0
TABLE
  2
LAYER
 70
     5
  0
LAYER
  2
0
 70
     0
 62
     6
  6
CONTINUOUS
  0
LAYER
  2
STATE_1
 70
     0
 62
     3
  6
CONTINUOUS
  0
LAYER
  2
STATE_2
 70
     0
 62
     1
  6
CONTINUOUS
  0
LAYER
  2
DISPLAY
 70
     0
 62
     7
  6
CONTINUOUS
  0
LAYER
  2
SYMBOL
 70
     0
 62
     7
  6
CONTINUOUS
  0
ENDTAB
  0
TABLE
  2
STYLE
 70
     6
  0
STYLE
  2
STANDARD
 70
     0
 40
0.0
 41
1.0
 50
0.0
 71
     0
 42
0.2
  3
txt
  4

  0
STYLE
  2
ANNOTATIVE
 70
     0
 40
0.0
 41
1.0
 50
0.0
 71
     0
 42
0.2
  3
txt
  4

  0
STYLE
  2
ARIAL
 70
     0
 40
0.0
 41
1.0
 50
0.0
 71
     0
 42
0.2
  3
txt
  4

  0
STYLE
  2

 70
     1
 40
0.0
 41
1.0
 50
0.0
 71
     0
 42
0.2
  3
genltshp.shx
  4

  0
STYLE
  2
ACANSTS
 70
     0
 40
1.0
 41
1.0
 50
0.0
 71
     0
 42
0.2
  3
romans.shx
  4

  0
STYLE
  2
ACANSGDT
 70
     0
 40
0.0
 41
1.0
 50
0.0
 71
     0
 42
0.2
  3
amgdt.shx
  4

  0
ENDTAB
  0
TABLE
  2
VIEW
 70
     0
  0
ENDTAB
  0
TABLE
  2
UCS
 70
     0
  0
ENDTAB
  0
TABLE
  2
APPID
 70
    23
  0
APPID
  2
ACAD
 70
     0
  0
APPID
  2
ACADANNOTATIVE
 70
     0
  0
APPID
  2
ACAD_MLEADERVER
 70
     0
  0
APPID
  2
CONTENTTABDATA
 70
     0
  0
APPID
  2
CONTENTCURRENTTAB
 70
     0
  0
APPID
  2
ACAD_EXEMPT_FROM_CAD_STANDARDS
 70
     0
  0
APPID
  2
CONTENTBLOCKDESCRIPTION
 70
     0
  0
APPID
  2
CONTENTBLOCKICON
 70
     0
  0
APPID
  2
ACAD_PSEXT
 70
     0
  0
APPID
  2
ACAUTHENVIRON
 70
     0
  0
APPID
  2
ACDBDYNAMICBLOCKTRUENAME
 70
     0
  0
APPID
  2
ACDBDYNAMICBLOCKGUID
 70
     0
  0
APPID
  2
ACDBBLOCKREPETAG
 70
     0
  0
APPID
  2
MCAD_NO_VIS
 70
     0
  0
APPID
  2
ACAD_TEMP_GRAPHIC
 70
     0
  0
APPID
  2
ACATTRIBSERVICES
 70
     0
  0
APPID
  2
DESIGNERASSEMBLIES
 70
     0
  0
APPID
  2
ACAD_DSTYLE_DIMJAG
 70
     0
  0
APPID
  2
ACAD_DSTYLE_DIMBREAK
 70
     0
  0
APPID
  2
GENIUS_GENSCREG_15
 70
     0
  0
APPID
  2
GENIUS_GENOBJ-N-SDF_13
 70
     0
  0
APPID
  2
GENIUS_GENODEF_13
 70
     0
  0
APPID
  2
ACAD_NAV_VCDISPLAY
 70
     0
  0
ENDTAB
  0
TABLE
  2
DIMSTYLE
 70
     8
  0
DIMSTYLE
  2
STANDARD
 70
     0
  3

  4

  5

  6

  7

 40
1.0
 41
0.18
 42
0.0625
 43
0.38
 44
0.18
 45
0.0
 46
0.0
 47
0.0
 48
0.0
140
0.18
141
0.09
142
0.0
143
25.399999999999999
144
1.0
145
0.0
146
1.0
147
0.09
 71
     0
 72
     0
 73
     1
 74
     1
 75
     0
 76
     0
 77
     0
 78
     0
170
     0
171
     2
172
     0
173
     0
174
     0
175
     0
176
     0
177
     0
178
     0
  0
DIMSTYLE
  2
ANNOTATIVE
 70
     0
  3

  4

  5

  6

  7

 40
1.0
 41
0.18
 42
0.0625
 43
0.38
 44
0.18
 45
0.0
 46
0.0
 47
0.0
 48
0.0
140
0.18
141
0.09
142
0.0
143
25.399999999999999
144
1.0
145
0.0
146
1.0
147
0.09
 71
     0
 72
     0
 73
     1
 74
     1
 75
     0
 76
     0
 77
     0
 78
     0
170
     0
171
     2
172
     0
173
     0
174
     0
175
     0
176
     0
177
     0
178
     0
  0
DIMSTYLE
  2
AM_ANSI
 70
     0
  3

  4
mm
  5

  6

  7

 40
1.0
 41
0.12
 42
0.05
 43
0.5
 44
0.1
 45
0.0
 46
0.0
 47
0.1
 48
0.1
140
0.12
141
0.0
142
0.0
143
25.399999999999999
144
1.0
145
0.0
146
0.71
147
0.06
 71
     0
 72
     0
 73
     1
 74
     1
 75
     0
 76
     0
 77
     0
 78
     7
170
     0
171
     2
172
     0
173
     0
174
     0
175
     0
176
   256
177
   256
178
     2
  0
DIMSTYLE
  2
AM_ANSI$3
 70
     0
  3

  4
mm
  5

  6

  7

 40
1.0
 41
0.12
 42
0.05
 43
0.5
 44
0.1
 45
0.0
 46
0.0
 47
0.1
 48
0.1
140
0.12
141
0.0
142
0.0
143
25.399999999999999
144
1.0
145
0.0
146
0.71
147
0.06
 71
     0
 72
     0
 73
     1
 74
     1
 75
     0
 76
     0
 77
     0
 78
     7
170
     0
171
     2
172
     0
173
     0
174
     0
175
     0
176
   256
177
   256
178
     2
  0
DIMSTYLE
  2
AM_ANSI$4
 70
     0
  3

  4
mm
  5

  6

  7

 40
1.0
 41
0.12
 42
0.05
 43
0.5
 44
0.1
 45
0.0
 46
0.0
 47
0.1
 48
0.1
140
0.12
141
0.0
142
0.0
143
25.399999999999999
144
1.0
145
0.0
146
0.71
147
0.06
 71
     0
 72
     0
 73
     1
 74
     1
 75
     0
 76
     0
 77
     0
 78
     7
170
     0
171
     2
172
     0
173
     0
174
     0
175
     0
176
   256
177
   256
178
     2
  0
DIMSTYLE
  2
AM_ANSI$7
 70
     0
  3

  4
mm
  5

  6

  7

 40
1.0
 41
0.12
 42
0.05
 43
0.5
 44
0.1
 45
0.0
 46
0.0
 47
0.1
 48
0.1
140
0.12
141
0.0
142
0.0
143
25.399999999999999
144
1.0
145
0.0
146
0.71
147
0.06
 71
     0
 72
     0
 73
     1
 74
     1
 75
     0
 76
     0
 77
     0
 78
     7
170
     0
171
     2
172
     0
173
     0
174
     0
175
     0
176
   256
177
   256
178
     2
  0
DIMSTYLE
  2
AM_ANSI$SF
 70
     0
  3

  4
mm
  5

  6

  7

 40
1.0
 41
0.12
 42
0.05
 43
0.5
 44
0.1
 45
0.0
 46
0.0
 47
0.1
 48
0.1
140
0.12
141
0.0
142
0.0
143
25.399999999999999
144
1.0
145
0.0
146
0.71
147
0.06
 71
     0
 72
     0
 73
     1
 74
     1
 75
     1
 76
     1
 77
     0
 78
     7
170
     0
171
     2
172
     0
173
     0
174
     0
175
     0
176
   256
177
   256
178
     2
  0
DIMSTYLE
  2
AM_ANSI$SH
 70
     0
  3

  4
mm
  5

  6
GENAXEH
  7

 40
1.0
 41
0.12
 42
0.05
 43
0.5
 44
0.1
 45
0.0
 46
0.0
 47
0.1
 48
0.1
140
0.12
141
0.0
142
0.0
143
25.399999999999999
144
1.0
145
0.0
146
0.71
147
0.06
 71
     0
 72
     0
 73
     1
 74
     1
 75
     1
 76
     1
 77
     0
 78
     7
170
     0
171
     2
172
     0
173
     1
174
     0
175
     0
176
   256
177
   256
178
     2
  0
ENDTAB
  0
ENDSEC
  0
SECTION
  2
BLOCKS
  0
BLOCK
  8
0
  2
$MODEL_SPACE
 70
     0
 10
0.0
 20
0.0
 30
0.0
  3
$MODEL_SPACE
  1

  0
ENDBLK
  5
2E3C
  8
0
  0
BLOCK
 67
     1
  8
0
  2
$PAPER_SPACE
 70
     0
 10
0.0
 20
0.0
 30
0.0
  3
$PAPER_SPACE
  1

  0
ENDBLK
  5
2E38
 67
     1
  8
0
  0
BLOCK
  8
0
  2
2_STATE_BRKR_SYMBOL_ST1-GR
 70
     2
 10
0.0
 20
0.0
 30
0.0
  3
2_STATE_BRKR_SYMBOL_ST1-GR
  1

  0
POLYLINE
  5
F9
  8
0
 62
     6
 66
     1
 10
0.0
 20
0.0
 30
0.0
 70
     1
  0
VERTEX
  5
2F8F
  8
0
 62
     6
 10
6.0471933526922141
 20
4.105208527085046
 30
0.0
  0
VERTEX
  5
2F90
  8
0
 62
     6
 10
6.467243371457374
 20
4.105208527085046
 30
0.0
  0
VERTEX
  5
2F91
  8
0
 62
     6
 10
6.467243371457374
 20
4.525258545850205
 30
0.0
  0
VERTEX
  5
2F92
  8
0
 62
     6
 10
6.0471933526922141
 20
4.525258545850205
 30
0.0
  0
SEQEND
  5
2F93
  8
0
 62
     6
  0
SOLID
  5
FA
  8
STATE_2
 62
     1
 10
6.0471933526922141
 20
4.105208527085046
 30
0.0
 11
6.0471933526922141
 21
4.525258545850205
 31
0.0
 12
6.467243371457374
 22
4.105208527085046
 32
0.0
 13
6.467243371457374
 23
4.525258545850205
 33
0.0
  0
ATTDEF
  5
FB
  8
0
  6
CONTINUOUS
 62
     6
 10
5.9910018963363374
 20
3.958735244172896
 30
0.0
 40
0.084010003753032
  1
NULL
  3

  2
LINKAGE
 70
     9
  0
POLYLINE
  5
FC
  8
STATE_1
  6
CONTINUOUS
 62
     3
 66
     1
 10
0.0
 20
0.0
 30
0.0
 40
0.0588070026271224
 41
0.0588070026271224
  0
VERTEX
  5
2F94
  8
STATE_1
  6
CONTINUOUS
 62
     3
 10
6.0471933526922141
 20
4.4958457512403101
 30
0.0
  0
VERTEX
  5
2F95
  8
STATE_1
  6
CONTINUOUS
 62
     3
 10
6.467243371457374
 20
4.4958457512403101
 30
0.0
  0
SEQEND
  5
2F96
  8
STATE_1
  6
CONTINUOUS
 62
     3
  0
POLYLINE
  5
FD
  8
STATE_1
  6
CONTINUOUS
 62
     3
 66
     1
 10
0.0
 20
0.0
 30
0.0
 40
0.0588070026271224
 41
0.0588070026271224
  0
VERTEX
  5
2F97
  8
STATE_1
  6
CONTINUOUS
 62
     3
 10
6.0471933526922141
 20
4.1343690227753243
 30
0.0
  0
VERTEX
  5
2F98
  8
STATE_1
  6
CONTINUOUS
 62
     3
 10
6.467243371457374
 20
4.1343690227753243
 30
0.0
  0
SEQEND
  5
2F99
  8
STATE_1
  6
CONTINUOUS
 62
     3
  0
POLYLINE
  5
FE
  8
STATE_1
  6
CONTINUOUS
 62
     3
 66
     1
 10
0.0
 20
0.0
 30
0.0
 40
0.0588070026271224
 41
0.0588070026271224
  0
VERTEX
  5
2F9A
  8
STATE_1
  6
CONTINUOUS
 62
     3
 10
6.0765064444788379
 20
4.525210898859747
 30
0.0
  0
VERTEX
  5
2F9B
  8
STATE_1
  6
CONTINUOUS
 62
     3
 10
6.0765064444788379
 20
4.105160880094588
 30
0.0
  0
SEQEND
  5
2F9C
  8
STATE_1
  6
CONTINUOUS
 62
     3
  0
LINE
  5
FF
  8
STATE_1
  6
CONTINUOUS
 62
     3
 10
6.4082158525585982
 20
4.1047766273305024
 30
0.0
 11
6.4082158525585982
 21
4.5248266460956623
 31
0.0
  0
POLYLINE
  5
100
  8
STATE_1
  6
CONTINUOUS
 62
     3
 66
     1
 10
0.0
 20
0.0
 30
0.0
 40
0.0588070026271224
 41
0.0588070026271224
  0
VERTEX
  5
2F9D
  8
STATE_1
  6
CONTINUOUS
 62
     3
 10
6.437528944345221
 20
4.525210898859747
 30
0.0
  0
VERTEX
  5
2F9E
  8
STATE_1
  6
CONTINUOUS
 62
     3
 10
6.437528944345221
 20
4.105160880094588
 30
0.0
  0
SEQEND
  5
2F9F
  8
STATE_1
  6
CONTINUOUS
 62
     3
  0
ENDBLK
  5
102
  8
0
  0
BLOCK
  8
0
  2
ARROW_HEAD_DISPLAY_REF
 70
     2
 10
0.0
 20
0.0
 30
0.0
  3
ARROW_HEAD_DISPLAY_REF
  1

  0
ATTDEF
  5
245
  8
0
 10
-0.25
 20
-0.25
 30
0.0
 40
0.075
  1
NULL
  3

  2
DISPLAY
 70
     9
  0
SOLID
  5
246
  8
0
 62
     5
 10
0.1249999999999996
 20
-0.0937500000000002
 30
0.0
 11
-0.1249999999999996
 21
0.0000000000000011
 31
0.0
 12
0.1249999999999996
 22
0.0937500000000002
 32
0.0
 13
0.1249999999999996
 23
0.0937500000000002
 33
0.0
  0
ENDBLK
  5
248
  8
0
  0
BLOCK
  8
0
  2
1_LINE_TEXT_DISPLAY_REF_CE
 70
     2
 10
0.0
 20
0.0
 30
0.0
  3
1_LINE_TEXT_DISPLAY_REF_CE
  1

  0
ATTDEF
  5
24D
  8
0
 62
     5
 10
0.0240473984278853
 20
0.1455691966350546
 30
0.0
 40
0.2
  1

  7
ARIAL
 72
     1
 11
0.0240473984278853
 21
0.1455691966350546
 31
0.0
  3
ENTER TEXT HERE
  2
LINE1
 70
     0
  0
ATTDEF
  5
24E
  8
0
 10
-0.1833920903288963
 20
0.0395691603674864
 30
0.0
 40
0.075
  1
NULL
  7
ARIAL
  3

  2
DISPLAY
 70
     9
  0
ENDBLK
  5
250
  8
0
  0
BLOCK
  8
0
  2
1_LINE_TEXT_DISPLAY_REF_LE
 70
     2
 10
0.0
 20
0.0
 30
0.0
  3
1_LINE_TEXT_DISPLAY_REF_LE
  1

  0
ATTDEF
  5
25A
  8
0
 62
     5
 10
0.2240976624509303
 20
0.1475994037153464
 30
0.0
 40
0.2
  1

  7
ARIAL
  3
ENTER TEXT HERE
  2
LINE1
 70
     0
  0
ATTDEF
  5
25B
  8
0
 10
0.240051627683002
 20
0.0415993674477782
 30
0.0
 40
0.075
  1
NULL
  7
ARIAL
  3

  2
DISPLAY
 70
     9
  0
ENDBLK
  5
25D
  8
0
  0
BLOCK
  8
0
  2
LIVETEXT_C
 70
     2
 10
0.0
 20
0.0
 30
0.0
  3
LIVETEXT_C
  1

  0
ATTDEF
  5
291
  8
0
 10
-0.1375
 20
0.091
 30
0.0
 40
0.075
  1
NULL
  7
ARIAL
 72
     1
 11
0.0
 21
0.091
 31
0.0
  3

  2
LINKAGE
 70
     9
  0
ATTDEF
  5
292
  8
0
 10
-0.35
 20
0.0
 30
0.0
 40
0.075
  1
UNLINKED C
  7
ARIAL
 72
     1
 11
0.0
 21
0.0
 31
0.0
  3

  2
TEXT
 70
     8
  0
ENDBLK
  5
294
  8
0
  0
BLOCK
  8
0
  2
LIVETEXT_L
 70
     2
 10
0.0
 20
0.0
 30
0.0
  3
LIVETEXT_L
  1

  0
ATTDEF
  5
34E
  8
0
 10
0.0
 20
0.096244
 30
0.0
 40
0.075
  1
NULL
  7
ARIAL
  3

  2
LINKAGE
 70
     9
  0
ATTDEF
  5
34F
  8
0
 10
0.0
 20
0.0
 30
0.0
 40
0.075
  1
UNLINKED L
  7
ARIAL
  3

  2
TEXT
 70
     8
  0
ENDBLK
  5
351
  8
0
  0
BLOCK
  8
0
  2
LIVETEXT_R
 70
     2
 10
0.0
 20
0.0
 30
0.0
  3
LIVETEXT_R
  1

  0
ATTDEF
  5
357
  8
0
 10
-0.275
 20
0.088923
 30
0.0
 40
0.075
  1
NULL
  7
ARIAL
 72
     2
 11
0.0
 21
0.088923
 31
0.0
  3

  2
LINKAGE
 70
     9
  0
ATTDEF
  5
358
  8
0
 10
-0.6999999999999998
 20
0.0
 30
0.0
 40
0.075
  1
UNLINKED R
  7
ARIAL
 72
     2
 11
0.0
 21
0.0
 31
0.0
  3

  2
TEXT
 70
     8
  0
ENDBLK
  5
35A
  8
0
  0
BLOCK
  8
0
  2
*U9
 70
     1
 10
0.0
 20
0.0
 30
0.0
  3
*U9
  1

  0
TEXT
  5
81E
  8
DISPLAY
 62
     2
 10
11.07998682300696
 20
12.78174885202719
 30
0.0
 40
0.215
  1
Freedom L1 Breaker
  7
ARIAL
  0
ENDBLK
  5
820
  8
0
  0
BLOCK
  8
0
  2
SWITCH-1_ST1-GREEN_ST2-RE0
 70
     2
 10
0.0
 20
0.0
 30
0.0
  3
SWITCH-1_ST1-GREEN_ST2-RE0
  1

  0
ATTDEF
  5
1896
  8
0
  6
CONTINUOUS
 10
-0.0631753889154396
 20
-0.3695049273373092
 30
0.0
 40
0.1
  1
NULL
  7
ARIAL
  3

  2
LINKAGE
 70
     9
  0
POLYLINE
  5
1897
  8
0
 66
     1
 10
0.0
 20
0.0
 30
0.0
 40
0.01
 41
0.01
  0
VERTEX
  5
2FA5
  8
0
 10
0.5
 20
0.0
 30
0.0
  0
VERTEX
  5
2FA6
  8
0
 10
0.0000000000000001
 20
0.0
 30
0.0
  0
SEQEND
  5
2FA7
  8
0
  0
POLYLINE
  5
1898
  8
0
 66
     1
 10
0.0
 20
0.0
 30
0.0
 40
0.01
 41
0.01
  0
VERTEX
  5
2FA8
  8
0
 10
0.0000000000000001
 20
0.0000000000000001
 30
0.0
  0
VERTEX
  5
2FA9
  8
0
 10
0.5
 20
0.2357758278042004
 30
0.0
  0
SEQEND
  5
2FAA
  8
0
  0
POLYLINE
  5
1899
  8
0
 66
     1
 10
0.0
 20
0.0
 30
0.0
 70
     1
 40
0.025
 41
0.025
  0
VERTEX
  5
2FAB
  8
0
 10
-0.0125
 20
0.0
 30
0.0
 42
1.0
  0
VERTEX
  5
2FAC
  8
0
 10
0.0125000000000001
 20
0.0
 30
0.0
 42
1.0
  0
SEQEND
  5
2FAD
  8
0
  0
POLYLINE
  5
189A
  8
0
 66
     1
 10
0.0
 20
0.0
 30
0.0
 70
     1
 40
0.025
 41
0.025
  0
VERTEX
  5
2FAE
  8
0
 10
0.4875
 20
0.0
 30
0.0
 42
1.0
  0
VERTEX
  5
2FAF
  8
0
 10
0.5125
 20
0.0
 30
0.0
 42
1.0
  0
SEQEND
  5
2FB0
  8
0
  0
POLYLINE
  5
189B
  8
0
 66
     1
 10
0.0
 20
0.0
 30
0.0
 40
0.01
 41
0.01
  0
VERTEX
  5
2FB1
  8
0
 10
0.2496148761583474
 20
0.1226972818849456
 30
0.0
  0
VERTEX
  5
2FB2
  8
0
 10
0.2496148761583474
 20
0.0
 30
0.0
  0
SEQEND
  5
2FB3
  8
0
  0
POLYLINE
  5
189C
  8
0
 66
     1
 10
0.0
 20
0.0
 30
0.0
 40
0.01
 41
0.01
  0
VERTEX
  5
2FB4
  8
0
 10
0.293945299840761
 20
0.000458430069401
 30
0.0
  0
VERTEX
  5
2FB5
  8
0
 10
0.2047139749452524
 20
0.000458430069401
 30
0.0
  0
SEQEND
  5
2FB6
  8
0
  0
POLYLINE
  5
189D
  8
STATE_1
 66
     1
 10
0.0
 20
0.0
 30
0.0
 40
0.01
 41
0.01
  0
VERTEX
  5
2FB7
  8
STATE_1
 10
0.0
 20
0.0000000000000001
 30
0.0
  0
VERTEX
  5
2FB8
  8
STATE_1
 10
0.5
 20
0.2357758278042004
 30
0.0
  0
SEQEND
  5
2FB9
  8
STATE_1
  0
POLYLINE
  5
189E
  8
STATE_1
 66
     1
 10
0.0
 20
0.0
 30
0.0
 70
     1
 40
0.025
 41
0.025
  0
VERTEX
  5
2FBA
  8
STATE_1
 10
-0.0125
 20
0.0000000000000001
 30
0.0
 42
1.0
  0
VERTEX
  5
2FBB
  8
STATE_1
 10
0.0125000000000002
 20
0.0000000000000001
 30
0.0
 42
1.0
  0
SEQEND
  5
2FBC
  8
STATE_1
  0
POLYLINE
  5
189F
  8
STATE_1
 66
     1
 10
0.0
 20
0.0
 30
0.0
 70
     1
 40
0.025
 41
0.025
  0
VERTEX
  5
2FBD
  8
STATE_1
 10
0.4875
 20
0.0000000000000001
 30
0.0
 42
1.0
  0
VERTEX
  5
2FBE
  8
STATE_1
 10
0.5125
 20
0.0000000000000001
 30
0.0
 42
1.0
  0
SEQEND
  5
2FBF
  8
STATE_1
  0
POLYLINE
  5
18A0
  8
STATE_1
 66
     1
 10
0.0
 20
0.0
 30
0.0
 40
0.01
 41
0.01
  0
VERTEX
  5
2FC0
  8
STATE_1
 10
0.2496148761583474
 20
0.1226972818849457
 30
0.0
  0
VERTEX
  5
2FC1
  8
STATE_1
 10
0.2496148761583474
 20
0.0000000000000001
 30
0.0
  0
SEQEND
  5
2FC2
  8
STATE_1
  0
POLYLINE
  5
18A1
  8
STATE_1
 66
     1
 10
0.0
 20
0.0
 30
0.0
 40
0.01
 41
0.01
  0
VERTEX
  5
2FC3
  8
STATE_1
 10
0.293945299840761
 20
0.0004584300694011
 30
0.0
  0
VERTEX
  5
2FC4
  8
STATE_1
 10
0.2047139749452524
 20
0.0004584300694011
 30
0.0
  0
SEQEND
  5
2FC5
  8
STATE_1
  0
POLYLINE
  5
18A2
  8
STATE_2
 66
     1
 10
0.0
 20
0.0
 30
0.0
 40
0.01
 41
0.01
  0
VERTEX
  5
2FC6
  8
STATE_2
 10
0.5
 20
-0.0000000000000001
 30
0.0
  0
VERTEX
  5
2FC7
  8
STATE_2
 10
0.0
 20
-0.0000000000000001
 30
0.0
  0
SEQEND
  5
2FC8
  8
STATE_2
  0
POLYLINE
  5
18A3
  8
STATE_2
 66
     1
 10
0.0
 20
0.0
 30
0.0
 70
     1
 40
0.025
 41
0.025
  0
VERTEX
  5
2FC9
  8
STATE_2
 10
-0.0125
 20
-0.0000000000000001
 30
0.0
 42
1.0
  0
VERTEX
  5
2FCA
  8
STATE_2
 10
0.0125000000000002
 20
-0.0000000000000001
 30
0.0
 42
1.0
  0
SEQEND
  5
2FCB
  8
STATE_2
  0
POLYLINE
  5
18A4
  8
STATE_2
 66
     1
 10
0.0
 20
0.0
 30
0.0
 70
     1
 40
0.025
 41
0.025
  0
VERTEX
  5
2FCC
  8
STATE_2
 10
0.4875
 20
-0.0000000000000001
 30
0.0
 42
1.0
  0
VERTEX
  5
2FCD
  8
STATE_2
 10
0.5125
 20
-0.0000000000000001
 30
0.0
 42
1.0
  0
SEQEND
  5
2FCE
  8
STATE_2
  0
ENDBLK
  5
18A8
  8
0
  0
BLOCK
  8
0
  2
LIVETEXT_R0
 70
     2
 10
0.0
 20
0.0
 30
0.0
  3
LIVETEXT_R0
  1

  0
ATTDEF
  5
1C78
  8
0
 10
-0.275
 20
0.088923
 30
0.0
 40
0.075
  1
NULL
  7
ARIAL
 72
     2
 11
0.0
 21
0.088923
 31
0.0
  3

  2
LINKAGE
 70
     9
  0
ATTDEF
  5
1C79
  8
0
 10
-0.6999999999999998
 20
0.0
 30
0.0
 40
0.075
  1
UNLINKED R
  7
ARIAL
 72
     2
 11
0.0
 21
0.0
 31
0.0
  3

  2
TEXT
 70
     8
  0
ENDBLK
  5
1C7C
  8
0
  0
BLOCK
  8
0
  2
*U12
 70
     1
 10
0.0
 20
0.0
 30
0.0
  3
*U12
  1

  0
TEXT
  5
207D
  8
0
 62
     2
 10
11.511648831794259
 20
10.015214393140941
 30
0.0
 40
0.2
  1
SW605
  7
ARIAL
  0
ENDBLK
  5
207F
  8
0
  0
BLOCK
  8
0
  2
*U13
 70
     1
 10
0.0
 20
0.0
 30
0.0
  3
*U13
  1

  0
TEXT
  5
2081
  8
0
 62
     2
 10
9.2769867681233791
 20
10.521187339789989
 30
0.0
 40
0.2
  1
SW604
  7
ARIAL
  0
ENDBLK
  5
2083
  8
0
  0
BLOCK
  8
0
  2
*U14
 70
     1
 10
0.0
 20
0.0
 30
0.0
  3
*U14
  1

  0
TEXT
  5
2085
  8
0
 62
     2
 10
8.6115540476975667
 20
11.61547656655652
 30
0.0
 40
0.2
  1
SW606
  7
ARIAL
  0
ENDBLK
  5
2087
  8
0
  0
BLOCK
  8
0
  2
*U15
 70
     1
 10
0.0
 20
0.0
 30
0.0
  3
*U15
  1

  0
TEXT
  5
208D
  8
0
 62
     2
 10
11.15410287375343
 20
11.865081762767611
 30
0.0
 40
0.2
  1
SW603
  7
ARIAL
  0
ENDBLK
  5
208F
  8
0
  0
BLOCK
  8
0
  2
*U16
 70
     1
 10
0.0
 20
0.0
 30
0.0
  3
*U16
  1

  0
TEXT
  5
2095
  8
0
 62
     2
 10
11.14417100676873
 20
13.79918742776611
 30
0.0
 40
0.2
  1
SW602
  7
ARIAL
  0
ENDBLK
  5
2097
  8
0
  0
BLOCK
  8
0
  2
*U17
 70
     1
 10
0.0
 20
0.0
 30
0.0
  3
*U17
  1

  0
TEXT
  5
209D
  8
0
 62
     2
 10
11.54144429348079
 20
14.678686806322499
 30
0.0
 40
0.2
  1
SW601
  7
ARIAL
  0
ENDBLK
  5
209F
  8
0
  0
BLOCK
  8
0
  2
*U18
 70
     1
 10
0.0
 20
0.0
 30
0.0
  3
*U18
  1

  0
TEXT
  5
23F0
  8
0
 62
     2
 10
0.7242908223516693
 20
15.493742703299789
 30
0.0
 40
0.3
  1
Arcade System Load (KW)
  7
ARIAL
  0
ENDBLK
  5
23F2
  8
0
  0
BLOCK
  8
0
  2
*U19
 70
     1
 10
0.0
 20
0.0
 30
0.0
  3
*U19
  1

  0
TEXT
  5
2803
  8
0
 62
     2
 10
9.2769867681233791
 20
10.521187339789989
 30
0.0
 40
0.2
  1
SW604
  7
ARIAL
  0
ENDBLK
  5
2804
  8
0
  0
BLOCK
  8
0
  2
*U20
 70
     1
 10
0.0
 20
0.0
 30
0.0
  3
*U20
  1

  0
TEXT
  5
2827
  8
0
 62
     2
 10
9.2769867681233791
 20
10.521187339789989
 30
0.0
 40
0.2
  1
SW604
  7
ARIAL
  0
ENDBLK
  5
2828
  8
0
  0
BLOCK
  8
0
  2
CKTSW2030
 70
     2
 10
0.0
 20
0.0
 30
0.0
  3
CKTSW2030
  1

  0
ATTDEF
  5
29F1
  8
0
  6
CONTINUOUS
 10
-0.0631753889154396
 20
-0.3695049273373092
 30
0.0
 40
0.1
  1
NULL
  7
ARIAL
  3

  2
LINKAGE
 70
     9
1001
ACDBBLOCKREPETAG
1070
     1
1071
        0
1005
0
  0
LINE
  5
29F2
  8
0
 62
     6
 10
-0.0000000000000004
 20
0.4160971619594384
 30
0.0
 11
-0.0000000000000004
 21
-0.0000000000000001
 31
0.0
1001
ACDBBLOCKREPETAG
1070
     1
1071
        1
1005
29F2
  0
LINE
  5
29F3
  8
0
 62
     6
 10
-0.0000000000000004
 20
-0.0000000000000001
 30
0.0
 11
0.2835952413135465
 21
-0.0000000000000001
 31
0.0
1001
ACDBBLOCKREPETAG
1070
     1
1071
        2
1005
29F3
  0
LINE
  5
29F4
  8
0
 62
     6
 10
0.1864400717320716
 20
0.0602420159684058
 30
0.0
 11
0.1864400717320716
 21
0.323919359233816
 31
0.0
1001
ACDBBLOCKREPETAG
1070
     1
1071
        3
1005
29F4
  0
ARC
  5
29F5
  8
0
 62
     6
 10
0.2057599344961125
 20
-0.0000000000000001
 30
0.0
 40
0.077835306817434
 50
270.0
 51
90.0
1001
ACDBBLOCKREPETAG
1070
     1
1071
        4
1005
29F5
  0
LINE
  5
29F7
  8
0
 62
     6
 10
0.1864400717320716
 20
0.323919359233816
 30
0.0
 11
0.1864400717320716
 21
0.4160971619594384
 31
0.0
1001
ACDBBLOCKREPETAG
1070
     1
1071
        6
1005
29F7
  0
LINE
  5
29F8
  8
0
 62
     6
 10
0.1864400717320716
 20
0.4160971619594384
 30
0.0
 11
0.1864400717320716
 21
0.6254093943824586
 31
0.0
1001
ACDBBLOCKREPETAG
1070
     1
1071
        7
1005
29F8
  0
LINE
  5
29F9
  8
0
 62
     6
 10
0.1864400717320716
 20
0.4160971619594384
 30
0.0
 11
-0.0000000000000004
 21
0.4160971619594384
 31
0.0
1001
ACDBBLOCKREPETAG
1070
     1
1071
        8
1005
29F9
  0
LINE
  5
29FA
  8
STATE_1
 62
     3
 10
-0.0000000000000004
 20
0.4160971619594384
 30
0.0
 11
-0.0000000000000004
 21
-0.0000000000000001
 31
0.0
1001
ACDBBLOCKREPETAG
1070
     1
1071
        9
1005
29FA
  0
LINE
  5
29FB
  8
STATE_1
 62
     3
 10
-0.0000000000000004
 20
-0.0000000000000001
 30
0.0
 11
0.2835952413135465
 21
-0.0000000000000001
 31
0.0
1001
ACDBBLOCKREPETAG
1070
     1
1071
       10
1005
29FB
  0
LINE
  5
29FC
  8
STATE_1
 62
     3
 10
0.1864400717320716
 20
0.0602420159684057
 30
0.0
 11
0.1864400717320716
 21
0.323919359233816
 31
0.0
1001
ACDBBLOCKREPETAG
1070
     1
1071
       11
1005
29FC
  0
ARC
  5
29FD
  8
STATE_1
 62
     3
 10
0.2057599344961125
 20
-0.0000000000000001
 30
0.0
 40
0.077835306817434
 50
270.0
 51
90.0
1001
ACDBBLOCKREPETAG
1070
     1
1071
       12
1005
29FD
  0
LINE
  5
29FF
  8
STATE_1
 62
     3
 10
0.1864400717320716
 20
0.323919359233816
 30
0.0
 11
0.1864400717320716
 21
0.4160971619594384
 31
0.0
1001
ACDBBLOCKREPETAG
1070
     1
1071
       14
1005
29FF
  0
LINE
  5
2A00
  8
STATE_1
 62
     3
 10
0.1864400717320716
 20
0.4160971619594384
 30
0.0
 11
0.1864400717320716
 21
0.6254093943824585
 31
0.0
1001
ACDBBLOCKREPETAG
1070
     1
1071
       15
1005
2A00
  0
LINE
  5
2A01
  8
STATE_1
 62
     3
 10
0.1864400717320716
 20
0.4160971619594384
 30
0.0
 11
-0.0000000000000004
 21
0.4160971619594384
 31
0.0
1001
ACDBBLOCKREPETAG
1070
     1
1071
       16
1005
2A01
  0
LINE
  5
2A02
  8
STATE_2
 62
     1
 10
-0.0000000000000004
 20
0.4160971619594384
 30
0.0
 11
-0.0000000000000004
 21
-0.0000000000000001
 31
0.0
1001
ACDBBLOCKREPETAG
1070
     1
1071
       17
1005
2A02
  0
LINE
  5
2A03
  8
STATE_2
 62
     1
 10
-0.0000000000000004
 20
-0.0000000000000001
 30
0.0
 11
0.2835952413135465
 21
-0.0000000000000001
 31
0.0
1001
ACDBBLOCKREPETAG
1070
     1
1071
       18
1005
2A03
  0
LINE
  5
2A04
  8
STATE_2
 62
     1
 10
0.1864400717320716
 20
0.0602420159684058
 30
0.0
 11
0.1864400717320716
 21
0.323919359233816
 31
0.0
1001
ACDBBLOCKREPETAG
1070
     1
1071
       19
1005
2A04
  0
ARC
  5
2A05
  8
STATE_2
 62
     1
 10
0.2057599344961125
 20
-0.0000000000000001
 30
0.0
 40
0.077835306817434
 50
270.0
 51
90.0
1001
ACDBBLOCKREPETAG
1070
     1
1071
       20
1005
2A05
  0
LINE
  5
2A07
  8
STATE_2
 62
     1
 10
0.1864400717320716
 20
0.323919359233816
 30
0.0
 11
0.1864400717320716
 21
0.4160971619594384
 31
0.0
1001
ACDBBLOCKREPETAG
1070
     1
1071
       22
1005
2A07
  0
LINE
  5
2A08
  8
STATE_2
 62
     1
 10
0.1864400717320716
 20
0.4160971619594384
 30
0.0
 11
0.1864400717320716
 21
0.6254093943824586
 31
0.0
1001
ACDBBLOCKREPETAG
1070
     1
1071
       23
1005
2A08
  0
LINE
  5
2A09
  8
STATE_2
 62
     1
 10
0.1864400717320716
 20
0.4160971619594384
 30
0.0
 11
-0.0000000000000004
 21
0.4160971619594384
 31
0.0
1001
ACDBBLOCKREPETAG
1070
     1
1071
       24
1005
2A09
  0
ENDBLK
  5
29E9
  8
0
  0
BLOCK
  8
0
  2
ARROW_HEAD_DISPLAY_REF0
 70
     2
 10
0.0
 20
0.0
 30
0.0
  3
ARROW_HEAD_DISPLAY_REF0
  1

  0
ATTDEF
  5
2EE6
  8
0
 10
-0.25
 20
-0.25
 30
0.0
 40
0.075
  1
NULL
  3

  2
DISPLAY
 70
     9
  0
SOLID
  5
2EE7
  8
0
 62
     5
 10
0.1249999999999996
 20
-0.0937500000000002
 30
0.0
 11
-0.1249999999999996
 21
0.0000000000000011
 31
0.0
 12
0.1249999999999996
 22
0.0937500000000002
 32
0.0
 13
0.1249999999999996
 23
0.0937500000000002
 33
0.0
  0
ENDBLK
  5
2EE8
  8
0
  0
BLOCK
  8
0
  2
GENAXEH
 70
     0
 10
0.0
 20
0.0
 30
0.0
  3
GENAXEH
  1

  0
LINE
  5
2F72
  8
0
 10
-1.0
 20
0.0
 30
0.0
 11
1.0
 21
0.0
 31
0.0
  0
ENDBLK
  5
2F74
  8
0
  0
ENDSEC
  0
SECTION
  2
ENTITIES
  0
INSERT
  5
103
  8
0
 66
     1
  2
2_STATE_BRKR_SYMBOL_ST1-GR
 10
4.4398986412687442
 20
8.5726684247559284
 30
0.0
  0
ATTRIB
  5
104
  8
0
  6
CONTINUOUS
 62
     6
 10
10.43090053760508
 20
12.531403668928821
 30
0.0
 40
0.084010003753032
  1
010100010000001101
  2
LINKAGE
 70
     9
  0
SEQEND
  5
105
  8
0
  0
INSERT
  5
249
  8
0
 66
     1
  2
ARROW_HEAD_DISPLAY_REF
 10
12.12514438250251
 20
18.000684979105468
 30
0.0
 41
1.8634611981471281
 42
1.8634611981471281
 43
1.8634611981471281
  0
ATTRIB
  5
24A
  8
0
 10
11.65927908296573
 20
17.534819679568692
 30
0.0
 40
0.1397595898610346
  1
C:\C3ILEX\EOSCADA\DISPLAYS\ONELINES\BLISS SUBSTATION.DXF
  2
DISPLAY
 70
     9
  0
SEQEND
  5
24B
  8
0
  0
INSERT
  5
251
  8
0
 66
     1
  2
1_LINE_TEXT_DISPLAY_REF_CE
 10
2.9139176157222191
 20
19.293446985449261
 30
0.0
  0
ATTRIB
  5
252
  8
0
 62
     5
 10
2.9379650141501021
 20
19.43901618208432
 30
0.0
 40
0.2
  1

  7
ARIAL
 72
     1
 11
2.9379650141501021
 21
19.43901618208432
 31
0.0
  2
LINE1
 70
     0
  0
ATTRIB
  5
253
  8
0
 10
2.7305255253933232
 20
19.33301614581675
 30
0.0
 40
0.075
  1
NULL
  7
ARIAL
  2
DISPLAY
 70
     9
  0
SEQEND
  5
254
  8
0
  0
INSERT
  5
255
  8
0
 66
     1
  2
1_LINE_TEXT_DISPLAY_REF_CE
 10
1.964121063016063
 20
19.531003282532438
 30
0.0
  0
ATTRIB
  5
256
  8
0
 62
     5
 10
1.9881684614439501
 20
19.676572479167501
 30
0.0
 40
0.2
  1

  7
ARIAL
 72
     1
 11
1.9881684614439501
 21
19.676572479167501
 31
0.0
  2
LINE1
 70
     0
  0
ATTRIB
  5
257
  8
0
 10
1.780728972687168
 20
19.57057244289993
 30
0.0
 40
0.075
  1
NULL
  7
ARIAL
  2
DISPLAY
 70
     9
  0
SEQEND
  5
258
  8
0
  0
INSERT
  5
25E
  8
0
 66
     1
  2
1_LINE_TEXT_DISPLAY_REF_LE
 10
3.490579801370846
 20
18.34322174599394
 30
0.0
  0
ATTRIB
  5
25F
  8
0
 62
     5
 10
3.7146774638217792
 20
18.49082114970928
 30
0.0
 40
0.2
  1

  7
ARIAL
  2
LINE1
 70
     0
  0
ATTRIB
  5
260
  8
0
 10
3.73063142905385
 20
18.38482111344171
 30
0.0
 40
0.075
  1
NULL
  7
ARIAL
  2
DISPLAY
 70
     9
  0
SEQEND
  5
261
  8
0
  0
LINE
  5
2A3
  8
DISPLAY
 62
     4
 10
-4.963178147161166
 20
15.11580356243795
 30
0.0
 11
-4.963178147161166
 21
14.829905530553919
 31
0.0
  0
LINE
  5
2A4
  8
DISPLAY
 62
     4
 10
-4.963178147161166
 20
14.829905530553919
 30
0.0
 11
-1.7715625809422151
 21
14.829905530553919
 31
0.0
  0
LINE
  5
2A5
  8
DISPLAY
 62
     4
 10
10.697117003343539
 20
14.829905530553919
 30
0.0
 11
10.697117003343539
 21
13.963916250580031
 31
0.0
  0
LINE
  5
2A6
  8
DISPLAY
 62
     4
 10
10.697117003343539
 20
9.0669236854772315
 30
0.0
 11
6.8555497433372921
 21
9.0669236854772315
 31
0.0
  0
LINE
  5
2A7
  8
DISPLAY
 62
     4
 10
6.8555497433372921
 20
8.0677318249484671
 30
0.0
 11
6.8555497433372921
 21
7.593539964419695
 31
0.0
  0
LINE
  5
2A8
  8
DISPLAY
 62
     4
 10
-1.643937413416739
 20
14.81049809595506
 30
0.0
 11
-1.643937413416739
 21
13.48631781209326
 31
0.0
  0
LINE
  5
2A9
  8
DISPLAY
 62
     4
 10
1.1349081383024771
 20
14.829905530553919
 30
0.0
 11
1.1349081383024771
 21
13.505725246692119
 31
0.0
  0
LINE
  5
2AB
  8
DISPLAY
 62
     4
 10
6.8315558053824974
 20
14.81777585108167
 30
0.0
 11
6.8315558053824974
 21
13.44681747394991
 31
0.0
  0
LINE
  5
302
  8
DISPLAY
 62
     4
 10
3.899187170084601
 20
14.81777585108167
 30
0.0
 11
3.899187170084601
 21
13.49359556721987
 31
0.0
  0
LINE
  5
362
  8
DISPLAY
 62
     4
 10
-1.7715625809422151
 20
14.829905530553919
 30
0.0
 11
10.697117003343539
 21
14.829905530553919
 31
0.0
  0
INSERT
  5
382
  8
0
 66
     1
  2
2_STATE_BRKR_SYMBOL_ST1-GR
 10
0.5983313812624937
 20
3.0976942131793912
 30
0.0
  0
ATTRIB
  5
383
  8
0
  6
CONTINUOUS
 62
     6
 10
6.58933327759883
 20
7.0564294573522881
 30
0.0
 40
0.084010003753032
  1
010100010000007301
  2
LINKAGE
 70
     9
  0
SEQEND
  5
384
  8
0
  0
LINE
  5
385
  8
DISPLAY
 62
     4
 10
6.8555497433372921
 20
7.2029027402644381
 30
0.0
 11
6.8555497433372921
 21
6.4662108797356721
 31
0.0
  0
LINE
  5
388
  8
DISPLAY
 62
     4
 10
11.67037967308274
 20
14.316539000769501
 30
0.0
 11
10.697117003343539
 21
14.316539000769501
 31
0.0
  0
LINE
  5
389
  8
DISPLAY
 62
     4
 10
11.53045618599563
 20
9.7316447948130005
 30
0.0
 11
10.697117003343539
 21
9.7316447948130005
 31
0.0
  0
LINE
  5
38A
  8
DISPLAY
 62
     4
 10
9.6578069254749952
 20
11.289446679265581
 30
0.0
 11
10.697117003343539
 21
11.289446679265581
 31
0.0
  0
POLYLINE
  5
3DA
  8
0
 62
     2
 66
     1
 10
0.0
 20
0.0
 30
0.0
 70
     8
  0
VERTEX
  5
107B
  8
0
 62
     2
 10
6.6438199999999981
 20
6.0600199999999971
 30
0.0
 70
    32
  0
VERTEX
  5
107C
  8
0
 62
     2
 10
6.6437799999999987
 20
6.0629799999999987
 30
0.0
 70
    32
  0
VERTEX
  5
107D
  8
0
 62
     2
 10
6.6436900000000003
 20
6.0659400000000003
 30
0.0
 70
    32
  0
VERTEX
  5
107E
  8
0
 62
     2
 10
6.6435300000000002
 20
6.0689000000000002
 30
0.0
 70
    32
  0
VERTEX
  5
107F
  8
0
 62
     2
 10
6.6433099999999987
 20
6.0718500000000004
 30
0.0
 70
    32
  0
VERTEX
  5
1080
  8
0
 62
     2
 10
6.643019999999999
 20
6.0747999999999971
 30
0.0
 70
    32
  0
VERTEX
  5
1081
  8
0
 62
     2
 10
6.6426699999999981
 20
6.0777400000000004
 30
0.0
 70
    32
  0
VERTEX
  5
1082
  8
0
 62
     2
 10
6.6422600000000003
 20
6.0806599999999991
 30
0.0
 70
    32
  0
VERTEX
  5
1083
  8
0
 62
     2
 10
6.641779999999998
 20
6.0835800000000004
 30
0.0
 70
    32
  0
VERTEX
  5
1084
  8
0
 62
     2
 10
6.641239999999998
 20
6.086479999999999
 30
0.0
 70
    32
  0
VERTEX
  5
1085
  8
0
 62
     2
 10
6.6406400000000003
 20
6.0893600000000001
 30
0.0
 70
    32
  0
VERTEX
  5
1086
  8
0
 62
     2
 10
6.6399800000000004
 20
6.092229999999998
 30
0.0
 70
    32
  0
VERTEX
  5
1087
  8
0
 62
     2
 10
6.6392600000000002
 20
6.0950699999999971
 30
0.0
 70
    32
  0
VERTEX
  5
1088
  8
0
 62
     2
 10
6.6384699999999981
 20
6.0979000000000001
 30
0.0
 70
    32
  0
VERTEX
  5
1089
  8
0
 62
     2
 10
6.637629999999997
 20
6.100699999999998
 30
0.0
 70
    32
  0
VERTEX
  5
108A
  8
0
 62
     2
 10
6.6367199999999986
 20
6.1034800000000002
 30
0.0
 70
    32
  0
VERTEX
  5
108B
  8
0
 62
     2
 10
6.6357600000000003
 20
6.10623
 30
0.0
 70
    32
  0
VERTEX
  5
108C
  8
0
 62
     2
 10
6.6347300000000002
 20
6.1089599999999971
 30
0.0
 70
    32
  0
VERTEX
  5
108D
  8
0
 62
     2
 10
6.6336500000000003
 20
6.11165
 30
0.0
 70
    32
  0
VERTEX
  5
108E
  8
0
 62
     2
 10
6.632509999999999
 20
6.114309999999997
 30
0.0
 70
    32
  0
VERTEX
  5
108F
  8
0
 62
     2
 10
6.631319999999997
 20
6.1169399999999987
 30
0.0
 70
    32
  0
VERTEX
  5
1090
  8
0
 62
     2
 10
6.6300600000000003
 20
6.1195399999999971
 30
0.0
 70
    32
  0
VERTEX
  5
1091
  8
0
 62
     2
 10
6.6287500000000001
 20
6.122099999999997
 30
0.0
 70
    32
  0
VERTEX
  5
1092
  8
0
 62
     2
 10
6.6273899999999992
 20
6.124629999999998
 30
0.0
 70
    32
  0
VERTEX
  5
1093
  8
0
 62
     2
 10
6.625969999999997
 20
6.1271100000000001
 30
0.0
 70
    32
  0
VERTEX
  5
1094
  8
0
 62
     2
 10
6.6245000000000003
 20
6.1295500000000001
 30
0.0
 70
    32
  0
VERTEX
  5
1095
  8
0
 62
     2
 10
6.6229800000000001
 20
6.1319600000000003
 30
0.0
 70
    32
  0
VERTEX
  5
1096
  8
0
 62
     2
 10
6.62141
 20
6.1343100000000002
 30
0.0
 70
    32
  0
VERTEX
  5
1097
  8
0
 62
     2
 10
6.6197899999999992
 20
6.1366300000000003
 30
0.0
 70
    32
  0
VERTEX
  5
1098
  8
0
 62
     2
 10
6.6181099999999971
 20
6.1388999999999987
 30
0.0
 70
    32
  0
VERTEX
  5
1099
  8
0
 62
     2
 10
6.6163899999999991
 20
6.141119999999999
 30
0.0
 70
    32
  0
VERTEX
  5
109A
  8
0
 62
     2
 10
6.6146199999999986
 20
6.1432900000000004
 30
0.0
 70
    32
  0
VERTEX
  5
109B
  8
0
 62
     2
 10
6.6128099999999987
 20
6.14541
 30
0.0
 70
    32
  0
VERTEX
  5
109C
  8
0
 62
     2
 10
6.6109499999999981
 20
6.1474799999999981
 30
0.0
 70
    32
  0
VERTEX
  5
109D
  8
0
 62
     2
 10
6.6090400000000002
 20
6.1494999999999971
 30
0.0
 70
    32
  0
VERTEX
  5
109E
  8
0
 62
     2
 10
6.6070999999999991
 20
6.1514600000000002
 30
0.0
 70
    32
  0
VERTEX
  5
109F
  8
0
 62
     2
 10
6.605109999999998
 20
6.153369999999998
 30
0.0
 70
    32
  0
VERTEX
  5
10A0
  8
0
 62
     2
 10
6.6030800000000003
 20
6.155219999999999
 30
0.0
 70
    32
  0
VERTEX
  5
10A1
  8
0
 62
     2
 10
6.6010099999999987
 20
6.157009999999997
 30
0.0
 70
    32
  0
VERTEX
  5
10A2
  8
0
 62
     2
 10
6.5989100000000001
 20
6.1587500000000004
 30
0.0
 70
    32
  0
VERTEX
  5
10A3
  8
0
 62
     2
 10
6.5967700000000002
 20
6.1604299999999981
 30
0.0
 70
    32
  0
VERTEX
  5
10A4
  8
0
 62
     2
 10
6.5945899999999993
 20
6.1620400000000002
 30
0.0
 70
    32
  0
VERTEX
  5
10A5
  8
0
 62
     2
 10
6.5923800000000004
 20
6.1635999999999971
 30
0.0
 70
    32
  0
VERTEX
  5
10A6
  8
0
 62
     2
 10
6.5901300000000003
 20
6.1650900000000002
 30
0.0
 70
    32
  0
VERTEX
  5
10A7
  8
0
 62
     2
 10
6.5878500000000004
 20
6.1665199999999993
 30
0.0
 70
    32
  0
VERTEX
  5
10A8
  8
0
 62
     2
 10
6.5855499999999987
 20
6.1678899999999981
 30
0.0
 70
    32
  0
VERTEX
  5
10A9
  8
0
 62
     2
 10
6.5832100000000002
 20
6.1691900000000004
 30
0.0
 70
    32
  0
VERTEX
  5
10AA
  8
0
 62
     2
 10
6.5808499999999981
 20
6.17042
 30
0.0
 70
    32
  0
VERTEX
  5
10AB
  8
0
 62
     2
 10
6.5784599999999971
 20
6.1715900000000001
 30
0.0
 70
    32
  0
VERTEX
  5
10AC
  8
0
 62
     2
 10
6.5760500000000004
 20
6.1726900000000002
 30
0.0
 70
    32
  0
VERTEX
  5
10AD
  8
0
 62
     2
 10
6.5736100000000004
 20
6.1737200000000003
 30
0.0
 70
    32
  0
VERTEX
  5
10AE
  8
0
 62
     2
 10
6.571159999999999
 20
6.1746800000000004
 30
0.0
 70
    32
  0
VERTEX
  5
10AF
  8
0
 62
     2
 10
6.5686799999999987
 20
6.1755800000000001
 30
0.0
 70
    32
  0
VERTEX
  5
10B0
  8
0
 62
     2
 10
6.5661800000000001
 20
6.1764099999999971
 30
0.0
 70
    32
  0
VERTEX
  5
10B1
  8
0
 62
     2
 10
6.5636700000000001
 20
6.1771599999999971
 30
0.0
 70
    32
  0
VERTEX
  5
10B2
  8
0
 62
     2
 10
6.5611399999999991
 20
6.1778500000000003
 30
0.0
 70
    32
  0
VERTEX
  5
10B3
  8
0
 62
     2
 10
6.5586000000000002
 20
6.1784600000000003
 30
0.0
 70
    32
  0
VERTEX
  5
10B4
  8
0
 62
     2
 10
6.556049999999999
 20
6.1790000000000003
 30
0.0
 70
    32
  0
VERTEX
  5
10B5
  8
0
 62
     2
 10
6.5534800000000004
 20
6.1794700000000002
 30
0.0
 70
    32
  0
VERTEX
  5
10B6
  8
0
 62
     2
 10
6.55091
 20
6.1798699999999993
 30
0.0
 70
    32
  0
VERTEX
  5
10B7
  8
0
 62
     2
 10
6.5483299999999991
 20
6.1802000000000001
 30
0.0
 70
    32
  0
VERTEX
  5
10B8
  8
0
 62
     2
 10
6.5457400000000003
 20
6.1804500000000004
 30
0.0
 70
    32
  0
VERTEX
  5
10B9
  8
0
 62
     2
 10
6.5431400000000002
 20
6.1806299999999981
 30
0.0
 70
    32
  0
VERTEX
  5
10BA
  8
0
 62
     2
 10
6.5405499999999988
 20
6.1807400000000001
 30
0.0
 70
    32
  0
VERTEX
  5
10BB
  8
0
 62
     2
 10
6.5379500000000004
 20
6.1807800000000004
 30
0.0
 70
    32
  0
VERTEX
  5
10BC
  8
0
 62
     2
 10
6.5353500000000002
 20
6.1807400000000001
 30
0.0
 70
    32
  0
VERTEX
  5
10BD
  8
0
 62
     2
 10
6.5327500000000001
 20
6.1806299999999981
 30
0.0
 70
    32
  0
VERTEX
  5
10BE
  8
0
 62
     2
 10
6.5301599999999986
 20
6.1804500000000004
 30
0.0
 70
    32
  0
VERTEX
  5
10BF
  8
0
 62
     2
 10
6.5275699999999981
 20
6.1802000000000001
 30
0.0
 70
    32
  0
VERTEX
  5
10C0
  8
0
 62
     2
 10
6.5249899999999981
 20
6.1798699999999993
 30
0.0
 70
    32
  0
VERTEX
  5
10C1
  8
0
 62
     2
 10
6.5224200000000003
 20
6.1794700000000002
 30
0.0
 70
    32
  0
VERTEX
  5
10C2
  8
0
 62
     2
 10
6.519849999999999
 20
6.1790000000000003
 30
0.0
 70
    32
  0
VERTEX
  5
10C3
  8
0
 62
     2
 10
6.517299999999997
 20
6.1784600000000003
 30
0.0
 70
    32
  0
VERTEX
  5
10C4
  8
0
 62
     2
 10
6.5147500000000003
 20
6.1778500000000003
 30
0.0
 70
    32
  0
VERTEX
  5
10C5
  8
0
 62
     2
 10
6.5122299999999971
 20
6.1771599999999971
 30
0.0
 70
    32
  0
VERTEX
  5
10C6
  8
0
 62
     2
 10
6.5097100000000001
 20
6.1764099999999971
 30
0.0
 70
    32
  0
VERTEX
  5
10C7
  8
0
 62
     2
 10
6.5072199999999993
 20
6.1755800000000001
 30
0.0
 70
    32
  0
VERTEX
  5
10C8
  8
0
 62
     2
 10
6.5047399999999991
 20
6.1746800000000004
 30
0.0
 70
    32
  0
VERTEX
  5
10C9
  8
0
 62
     2
 10
6.5022799999999981
 20
6.1737200000000003
 30
0.0
 70
    32
  0
VERTEX
  5
10CA
  8
0
 62
     2
 10
6.4998500000000003
 20
6.1726900000000002
 30
0.0
 70
    32
  0
VERTEX
  5
10CB
  8
0
 62
     2
 10
6.4974400000000001
 20
6.1715900000000001
 30
0.0
 70
    32
  0
VERTEX
  5
10CC
  8
0
 62
     2
 10
6.4950499999999991
 20
6.17042
 30
0.0
 70
    32
  0
VERTEX
  5
10CD
  8
0
 62
     2
 10
6.49268
 20
6.1691900000000004
 30
0.0
 70
    32
  0
VERTEX
  5
10CE
  8
0
 62
     2
 10
6.4903500000000003
 20
6.1678899999999981
 30
0.0
 70
    32
  0
VERTEX
  5
10CF
  8
0
 62
     2
 10
6.488039999999998
 20
6.1665199999999993
 30
0.0
 70
    32
  0
VERTEX
  5
10D0
  8
0
 62
     2
 10
6.4857699999999987
 20
6.1650900000000002
 30
0.0
 70
    32
  0
VERTEX
  5
10D1
  8
0
 62
     2
 10
6.4835199999999986
 20
6.1635999999999971
 30
0.0
 70
    32
  0
VERTEX
  5
10D2
  8
0
 62
     2
 10
6.481309999999997
 20
6.1620400000000002
 30
0.0
 70
    32
  0
VERTEX
  5
10D3
  8
0
 62
     2
 10
6.4791299999999987
 20
6.1604299999999981
 30
0.0
 70
    32
  0
VERTEX
  5
10D4
  8
0
 62
     2
 10
6.476989999999998
 20
6.1587500000000004
 30
0.0
 70
    32
  0
VERTEX
  5
10D5
  8
0
 62
     2
 10
6.4748799999999971
 20
6.157009999999997
 30
0.0
 70
    32
  0
VERTEX
  5
10D6
  8
0
 62
     2
 10
6.4728199999999987
 20
6.155219999999999
 30
0.0
 70
    32
  0
VERTEX
  5
10D7
  8
0
 62
     2
 10
6.47079
 20
6.153369999999998
 30
0.0
 70
    32
  0
VERTEX
  5
10D8
  8
0
 62
     2
 10
6.4687999999999981
 20
6.1514600000000002
 30
0.0
 70
    32
  0
VERTEX
  5
10D9
  8
0
 62
     2
 10
6.4668499999999991
 20
6.1494999999999971
 30
0.0
 70
    32
  0
VERTEX
  5
10DA
  8
0
 62
     2
 10
6.4649499999999991
 20
6.1474799999999981
 30
0.0
 70
    32
  0
VERTEX
  5
10DB
  8
0
 62
     2
 10
6.4630900000000002
 20
6.14541
 30
0.0
 70
    32
  0
VERTEX
  5
10DC
  8
0
 62
     2
 10
6.4612800000000004
 20
6.1432900000000004
 30
0.0
 70
    32
  0
VERTEX
  5
10DD
  8
0
 62
     2
 10
6.4595099999999981
 20
6.141119999999999
 30
0.0
 70
    32
  0
VERTEX
  5
10DE
  8
0
 62
     2
 10
6.4577900000000001
 20
6.1388999999999987
 30
0.0
 70
    32
  0
VERTEX
  5
10DF
  8
0
 62
     2
 10
6.456109999999998
 20
6.1366300000000003
 30
0.0
 70
    32
  0
VERTEX
  5
10E0
  8
0
 62
     2
 10
6.4544899999999981
 20
6.1343100000000002
 30
0.0
 70
    32
  0
VERTEX
  5
10E1
  8
0
 62
     2
 10
6.4529199999999971
 20
6.1319600000000003
 30
0.0
 70
    32
  0
VERTEX
  5
10E2
  8
0
 62
     2
 10
6.4513899999999991
 20
6.1295500000000001
 30
0.0
 70
    32
  0
VERTEX
  5
10E3
  8
0
 62
     2
 10
6.449919999999997
 20
6.1271100000000001
 30
0.0
 70
    32
  0
VERTEX
  5
10E4
  8
0
 62
     2
 10
6.4485099999999971
 20
6.124629999999998
 30
0.0
 70
    32
  0
VERTEX
  5
10E5
  8
0
 62
     2
 10
6.4471400000000001
 20
6.122099999999997
 30
0.0
 70
    32
  0
VERTEX
  5
10E6
  8
0
 62
     2
 10
6.4458399999999987
 20
6.1195399999999971
 30
0.0
 70
    32
  0
VERTEX
  5
10E7
  8
0
 62
     2
 10
6.4445800000000002
 20
6.1169399999999987
 30
0.0
 70
    32
  0
VERTEX
  5
10E8
  8
0
 62
     2
 10
6.4433899999999991
 20
6.114309999999997
 30
0.0
 70
    32
  0
VERTEX
  5
10E9
  8
0
 62
     2
 10
6.4422499999999987
 20
6.11165
 30
0.0
 70
    32
  0
VERTEX
  5
10EA
  8
0
 62
     2
 10
6.4411599999999991
 20
6.1089599999999971
 30
0.0
 70
    32
  0
VERTEX
  5
10EB
  8
0
 62
     2
 10
6.4401400000000004
 20
6.10623
 30
0.0
 70
    32
  0
VERTEX
  5
10EC
  8
0
 62
     2
 10
6.4391800000000003
 20
6.1034800000000002
 30
0.0
 70
    32
  0
VERTEX
  5
10ED
  8
0
 62
     2
 10
6.4382699999999993
 20
6.100699999999998
 30
0.0
 70
    32
  0
VERTEX
  5
10EE
  8
0
 62
     2
 10
6.4374299999999991
 20
6.0979000000000001
 30
0.0
 70
    32
  0
VERTEX
  5
10EF
  8
0
 62
     2
 10
6.436639999999997
 20
6.0950699999999971
 30
0.0
 70
    32
  0
VERTEX
  5
10F0
  8
0
 62
     2
 10
6.4359200000000003
 20
6.092229999999998
 30
0.0
 70
    32
  0
VERTEX
  5
10F1
  8
0
 62
     2
 10
6.435249999999999
 20
6.0893600000000001
 30
0.0
 70
    32
  0
VERTEX
  5
10F2
  8
0
 62
     2
 10
6.4346500000000004
 20
6.086479999999999
 30
0.0
 70
    32
  0
VERTEX
  5
10F3
  8
0
 62
     2
 10
6.4341200000000001
 20
6.0835800000000004
 30
0.0
 70
    32
  0
VERTEX
  5
10F4
  8
0
 62
     2
 10
6.4336399999999987
 20
6.0806599999999991
 30
0.0
 70
    32
  0
VERTEX
  5
10F5
  8
0
 62
     2
 10
6.43323
 20
6.0777400000000004
 30
0.0
 70
    32
  0
VERTEX
  5
10F6
  8
0
 62
     2
 10
6.432879999999999
 20
6.0747999999999971
 30
0.0
 70
    32
  0
VERTEX
  5
10F7
  8
0
 62
     2
 10
6.4325900000000003
 20
6.0718500000000004
 30
0.0
 70
    32
  0
VERTEX
  5
10F8
  8
0
 62
     2
 10
6.432369999999997
 20
6.0689000000000002
 30
0.0
 70
    32
  0
VERTEX
  5
10F9
  8
0
 62
     2
 10
6.4322099999999987
 20
6.0659400000000003
 30
0.0
 70
    32
  0
VERTEX
  5
10FA
  8
0
 62
     2
 10
6.4321099999999971
 20
6.0629799999999987
 30
0.0
 70
    32
  0
VERTEX
  5
10FB
  8
0
 62
     2
 10
6.43208
 20
6.0600199999999971
 30
0.0
 70
    32
  0
SEQEND
  5
10FC
  8
0
 62
     2
  0
LINE
  5
3DB
  8
DISPLAY
 62
     2
 10
6.4320819653992771
 20
6.060017399944277
 30
0.0
 11
6.4320819653992771
 21
6.0187306252168202
 31
0.0
  0
POLYLINE
  5
3DC
  8
0
 62
     2
 66
     1
 10
0.0
 20
0.0
 30
0.0
 70
     8
  0
VERTEX
  5
10FD
  8
0
 62
     2
 10
7.0672800000000002
 20
6.0600199999999971
 30
0.0
 70
    32
  0
VERTEX
  5
10FE
  8
0
 62
     2
 10
7.0672499999999987
 20
6.0629799999999987
 30
0.0
 70
    32
  0
VERTEX
  5
10FF
  8
0
 62
     2
 10
7.0671600000000003
 20
6.0659400000000003
 30
0.0
 70
    32
  0
VERTEX
  5
1100
  8
0
 62
     2
 10
7.0670000000000002
 20
6.0689000000000002
 30
0.0
 70
    32
  0
VERTEX
  5
1101
  8
0
 62
     2
 10
7.0667699999999991
 20
6.0718500000000004
 30
0.0
 70
    32
  0
VERTEX
  5
1102
  8
0
 62
     2
 10
7.066489999999999
 20
6.0747999999999971
 30
0.0
 70
    32
  0
VERTEX
  5
1103
  8
0
 62
     2
 10
7.0661399999999981
 20
6.0777400000000004
 30
0.0
 70
    32
  0
VERTEX
  5
1104
  8
0
 62
     2
 10
7.0657300000000003
 20
6.0806599999999991
 30
0.0
 70
    32
  0
VERTEX
  5
1105
  8
0
 62
     2
 10
7.065249999999998
 20
6.0835800000000004
 30
0.0
 70
    32
  0
VERTEX
  5
1106
  8
0
 62
     2
 10
7.064709999999998
 20
6.086479999999999
 30
0.0
 70
    32
  0
VERTEX
  5
1107
  8
0
 62
     2
 10
7.0641100000000003
 20
6.0893600000000001
 30
0.0
 70
    32
  0
VERTEX
  5
1108
  8
0
 62
     2
 10
7.0634499999999987
 20
6.092229999999998
 30
0.0
 70
    32
  0
VERTEX
  5
1109
  8
0
 62
     2
 10
7.0627300000000002
 20
6.0950699999999971
 30
0.0
 70
    32
  0
VERTEX
  5
110A
  8
0
 62
     2
 10
7.0619399999999981
 20
6.0979000000000001
 30
0.0
 70
    32
  0
VERTEX
  5
110B
  8
0
 62
     2
 10
7.061099999999997
 20
6.100699999999998
 30
0.0
 70
    32
  0
VERTEX
  5
110C
  8
0
 62
     2
 10
7.0601899999999986
 20
6.1034800000000002
 30
0.0
 70
    32
  0
VERTEX
  5
110D
  8
0
 62
     2
 10
7.0592199999999981
 20
6.10623
 30
0.0
 70
    32
  0
VERTEX
  5
110E
  8
0
 62
     2
 10
7.0582000000000003
 20
6.1089599999999971
 30
0.0
 70
    32
  0
VERTEX
  5
110F
  8
0
 62
     2
 10
7.0571200000000003
 20
6.11165
 30
0.0
 70
    32
  0
VERTEX
  5
1110
  8
0
 62
     2
 10
7.055979999999999
 20
6.114309999999997
 30
0.0
 70
    32
  0
VERTEX
  5
1111
  8
0
 62
     2
 10
7.0547800000000001
 20
6.1169399999999987
 30
0.0
 70
    32
  0
VERTEX
  5
1112
  8
0
 62
     2
 10
7.0535300000000003
 20
6.1195399999999971
 30
0.0
 70
    32
  0
VERTEX
  5
1113
  8
0
 62
     2
 10
7.0522199999999993
 20
6.122099999999997
 30
0.0
 70
    32
  0
VERTEX
  5
1114
  8
0
 62
     2
 10
7.050860000000001
 20
6.124629999999998
 30
0.0
 70
    32
  0
VERTEX
  5
1115
  8
0
 62
     2
 10
7.049439999999997
 20
6.1271100000000001
 30
0.0
 70
    32
  0
VERTEX
  5
1116
  8
0
 62
     2
 10
7.0479700000000003
 20
6.1295500000000001
 30
0.0
 70
    32
  0
VERTEX
  5
1117
  8
0
 62
     2
 10
7.0464500000000001
 20
6.1319600000000003
 30
0.0
 70
    32
  0
VERTEX
  5
1118
  8
0
 62
     2
 10
7.04488
 20
6.1343100000000002
 30
0.0
 70
    32
  0
VERTEX
  5
1119
  8
0
 62
     2
 10
7.0432499999999987
 20
6.1366300000000003
 30
0.0
 70
    32
  0
VERTEX
  5
111A
  8
0
 62
     2
 10
7.0415799999999971
 20
6.1388999999999987
 30
0.0
 70
    32
  0
VERTEX
  5
111B
  8
0
 62
     2
 10
7.03986
 20
6.141119999999999
 30
0.0
 70
    32
  0
VERTEX
  5
111C
  8
0
 62
     2
 10
7.0380899999999986
 20
6.1432900000000004
 30
0.0
 70
    32
  0
VERTEX
  5
111D
  8
0
 62
     2
 10
7.036279999999997
 20
6.14541
 30
0.0
 70
    32
  0
VERTEX
  5
111E
  8
0
 62
     2
 10
7.034419999999999
 20
6.1474799999999981
 30
0.0
 70
    32
  0
VERTEX
  5
111F
  8
0
 62
     2
 10
7.0325100000000003
 20
6.1494999999999971
 30
0.0
 70
    32
  0
VERTEX
  5
1120
  8
0
 62
     2
 10
7.0305699999999991
 20
6.1514600000000002
 30
0.0
 70
    32
  0
VERTEX
  5
1121
  8
0
 62
     2
 10
7.0285799999999981
 20
6.153369999999998
 30
0.0
 70
    32
  0
VERTEX
  5
1122
  8
0
 62
     2
 10
7.0265500000000003
 20
6.155219999999999
 30
0.0
 70
    32
  0
VERTEX
  5
1123
  8
0
 62
     2
 10
7.0244799999999987
 20
6.157009999999997
 30
0.0
 70
    32
  0
VERTEX
  5
1124
  8
0
 62
     2
 10
7.0223800000000001
 20
6.1587500000000004
 30
0.0
 70
    32
  0
VERTEX
  5
1125
  8
0
 62
     2
 10
7.0202299999999971
 20
6.1604299999999981
 30
0.0
 70
    32
  0
VERTEX
  5
1126
  8
0
 62
     2
 10
7.0180600000000002
 20
6.1620400000000002
 30
0.0
 70
    32
  0
VERTEX
  5
1127
  8
0
 62
     2
 10
7.0158399999999981
 20
6.1635999999999971
 30
0.0
 70
    32
  0
VERTEX
  5
1128
  8
0
 62
     2
 10
7.0136000000000003
 20
6.1650900000000002
 30
0.0
 70
    32
  0
VERTEX
  5
1129
  8
0
 62
     2
 10
7.0113199999999987
 20
6.1665199999999993
 30
0.0
 70
    32
  0
VERTEX
  5
112A
  8
0
 62
     2
 10
7.0090199999999987
 20
6.1678899999999981
 30
0.0
 70
    32
  0
VERTEX
  5
112B
  8
0
 62
     2
 10
7.0066800000000002
 20
6.1691900000000004
 30
0.0
 70
    32
  0
VERTEX
  5
112C
  8
0
 62
     2
 10
7.0043199999999981
 20
6.17042
 30
0.0
 70
    32
  0
VERTEX
  5
112D
  8
0
 62
     2
 10
7.0019299999999971
 20
6.1715900000000001
 30
0.0
 70
    32
  0
VERTEX
  5
112E
  8
0
 62
     2
 10
6.9995199999999986
 20
6.1726900000000002
 30
0.0
 70
    32
  0
VERTEX
  5
112F
  8
0
 62
     2
 10
6.9970800000000004
 20
6.1737200000000003
 30
0.0
 70
    32
  0
VERTEX
  5
1130
  8
0
 62
     2
 10
6.994629999999999
 20
6.1746800000000004
 30
0.0
 70
    32
  0
VERTEX
  5
1131
  8
0
 62
     2
 10
6.9921499999999988
 20
6.1755800000000001
 30
0.0
 70
    32
  0
VERTEX
  5
1132
  8
0
 62
     2
 10
6.9896500000000001
 20
6.1764099999999971
 30
0.0
 70
    32
  0
VERTEX
  5
1133
  8
0
 62
     2
 10
6.9871399999999992
 20
6.1771599999999971
 30
0.0
 70
    32
  0
VERTEX
  5
1134
  8
0
 62
     2
 10
6.98461
 20
6.1778500000000003
 30
0.0
 70
    32
  0
VERTEX
  5
1135
  8
0
 62
     2
 10
6.9820699999999993
 20
6.1784600000000003
 30
0.0
 70
    32
  0
VERTEX
  5
1136
  8
0
 62
     2
 10
6.9795199999999991
 20
6.1790000000000003
 30
0.0
 70
    32
  0
VERTEX
  5
1137
  8
0
 62
     2
 10
6.9769500000000004
 20
6.1794700000000002
 30
0.0
 70
    32
  0
VERTEX
  5
1138
  8
0
 62
     2
 10
6.97438
 20
6.1798699999999993
 30
0.0
 70
    32
  0
VERTEX
  5
1139
  8
0
 62
     2
 10
6.9717899999999986
 20
6.1802000000000001
 30
0.0
 70
    32
  0
VERTEX
  5
113A
  8
0
 62
     2
 10
6.9691999999999981
 20
6.1804500000000004
 30
0.0
 70
    32
  0
VERTEX
  5
113B
  8
0
 62
     2
 10
6.9666100000000002
 20
6.1806299999999981
 30
0.0
 70
    32
  0
VERTEX
  5
113C
  8
0
 62
     2
 10
6.96401
 20
6.1807400000000001
 30
0.0
 70
    32
  0
VERTEX
  5
113D
  8
0
 62
     2
 10
6.9614199999999986
 20
6.1807800000000004
 30
0.0
 70
    32
  0
VERTEX
  5
113E
  8
0
 62
     2
 10
6.9588199999999993
 20
6.1807400000000001
 30
0.0
 70
    32
  0
VERTEX
  5
113F
  8
0
 62
     2
 10
6.9562200000000001
 20
6.1806299999999981
 30
0.0
 70
    32
  0
VERTEX
  5
1140
  8
0
 62
     2
 10
6.9536300000000004
 20
6.1804500000000004
 30
0.0
 70
    32
  0
VERTEX
  5
1141
  8
0
 62
     2
 10
6.9510399999999981
 20
6.1802000000000001
 30
0.0
 70
    32
  0
VERTEX
  5
1142
  8
0
 62
     2
 10
6.9484599999999981
 20
6.1798699999999993
 30
0.0
 70
    32
  0
VERTEX
  5
1143
  8
0
 62
     2
 10
6.9458799999999981
 20
6.1794700000000002
 30
0.0
 70
    32
  0
VERTEX
  5
1144
  8
0
 62
     2
 10
6.943319999999999
 20
6.1790000000000003
 30
0.0
 70
    32
  0
VERTEX
  5
1145
  8
0
 62
     2
 10
6.94076
 20
6.1784600000000003
 30
0.0
 70
    32
  0
VERTEX
  5
1146
  8
0
 62
     2
 10
6.9382200000000003
 20
6.1778500000000003
 30
0.0
 70
    32
  0
VERTEX
  5
1147
  8
0
 62
     2
 10
6.9356899999999992
 20
6.1771599999999971
 30
0.0
 70
    32
  0
VERTEX
  5
1148
  8
0
 62
     2
 10
6.9331800000000001
 20
6.1764099999999971
 30
0.0
 70
    32
  0
VERTEX
  5
1149
  8
0
 62
     2
 10
6.9306900000000002
 20
6.1755800000000001
 30
0.0
 70
    32
  0
VERTEX
  5
114A
  8
0
 62
     2
 10
6.92821
 20
6.1746800000000004
 30
0.0
 70
    32
  0
VERTEX
  5
114B
  8
0
 62
     2
 10
6.9257499999999981
 20
6.1737200000000003
 30
0.0
 70
    32
  0
VERTEX
  5
114C
  8
0
 62
     2
 10
6.9233199999999986
 20
6.1726900000000002
 30
0.0
 70
    32
  0
VERTEX
  5
114D
  8
0
 62
     2
 10
6.9208999999999987
 20
6.1715900000000001
 30
0.0
 70
    32
  0
VERTEX
  5
114E
  8
0
 62
     2
 10
6.91852
 20
6.17042
 30
0.0
 70
    32
  0
VERTEX
  5
114F
  8
0
 62
     2
 10
6.91615
 20
6.1691900000000004
 30
0.0
 70
    32
  0
VERTEX
  5
1150
  8
0
 62
     2
 10
6.9138200000000003
 20
6.1678899999999981
 30
0.0
 70
    32
  0
VERTEX
  5
1151
  8
0
 62
     2
 10
6.911509999999998
 20
6.1665199999999993
 30
0.0
 70
    32
  0
VERTEX
  5
1152
  8
0
 62
     2
 10
6.9092399999999987
 20
6.1650900000000002
 30
0.0
 70
    32
  0
VERTEX
  5
1153
  8
0
 62
     2
 10
6.9069899999999986
 20
6.1635999999999971
 30
0.0
 70
    32
  0
VERTEX
  5
1154
  8
0
 62
     2
 10
6.904779999999997
 20
6.1620400000000002
 30
0.0
 70
    32
  0
VERTEX
  5
1155
  8
0
 62
     2
 10
6.9025999999999987
 20
6.1604299999999981
 30
0.0
 70
    32
  0
VERTEX
  5
1156
  8
0
 62
     2
 10
6.900459999999998
 20
6.1587500000000004
 30
0.0
 70
    32
  0
VERTEX
  5
1157
  8
0
 62
     2
 10
6.8983499999999971
 20
6.157009999999997
 30
0.0
 70
    32
  0
VERTEX
  5
1158
  8
0
 62
     2
 10
6.8962799999999991
 20
6.155219999999999
 30
0.0
 70
    32
  0
VERTEX
  5
1159
  8
0
 62
     2
 10
6.8942600000000001
 20
6.153369999999998
 30
0.0
 70
    32
  0
VERTEX
  5
115A
  8
0
 62
     2
 10
6.892269999999999
 20
6.1514600000000002
 30
0.0
 70
    32
  0
VERTEX
  5
115B
  8
0
 62
     2
 10
6.89032
 20
6.1494999999999971
 30
0.0
 70
    32
  0
VERTEX
  5
115C
  8
0
 62
     2
 10
6.8884199999999991
 20
6.1474799999999981
 30
0.0
 70
    32
  0
VERTEX
  5
115D
  8
0
 62
     2
 10
6.8865600000000002
 20
6.14541
 30
0.0
 70
    32
  0
VERTEX
  5
115E
  8
0
 62
     2
 10
6.8847399999999981
 20
6.1432900000000004
 30
0.0
 70
    32
  0
VERTEX
  5
115F
  8
0
 62
     2
 10
6.8829700000000003
 20
6.141119999999999
 30
0.0
 70
    32
  0
VERTEX
  5
1160
  8
0
 62
     2
 10
6.881249999999997
 20
6.1388999999999987
 30
0.0
 70
    32
  0
VERTEX
  5
1161
  8
0
 62
     2
 10
6.879579999999998
 20
6.1366300000000003
 30
0.0
 70
    32
  0
VERTEX
  5
1162
  8
0
 62
     2
 10
6.8779599999999981
 20
6.1343100000000002
 30
0.0
 70
    32
  0
VERTEX
  5
1163
  8
0
 62
     2
 10
6.8763800000000002
 20
6.1319600000000003
 30
0.0
 70
    32
  0
VERTEX
  5
1164
  8
0
 62
     2
 10
6.87486
 20
6.1295500000000001
 30
0.0
 70
    32
  0
VERTEX
  5
1165
  8
0
 62
     2
 10
6.873389999999997
 20
6.1271100000000001
 30
0.0
 70
    32
  0
VERTEX
  5
1166
  8
0
 62
     2
 10
6.8719700000000001
 20
6.124629999999998
 30
0.0
 70
    32
  0
VERTEX
  5
1167
  8
0
 62
     2
 10
6.8706100000000001
 20
6.122099999999997
 30
0.0
 70
    32
  0
VERTEX
  5
1168
  8
0
 62
     2
 10
6.8692999999999991
 20
6.1195399999999971
 30
0.0
 70
    32
  0
VERTEX
  5
1169
  8
0
 62
     2
 10
6.8680500000000002
 20
6.1169399999999987
 30
0.0
 70
    32
  0
VERTEX
  5
116A
  8
0
 62
     2
 10
6.8668500000000003
 20
6.114309999999997
 30
0.0
 70
    32
  0
VERTEX
  5
116B
  8
0
 62
     2
 10
6.86571
 20
6.11165
 30
0.0
 70
    32
  0
VERTEX
  5
116C
  8
0
 62
     2
 10
6.86463
 20
6.1089599999999971
 30
0.0
 70
    32
  0
VERTEX
  5
116D
  8
0
 62
     2
 10
6.8636100000000004
 20
6.10623
 30
0.0
 70
    32
  0
VERTEX
  5
116E
  8
0
 62
     2
 10
6.8626399999999981
 20
6.1034800000000002
 30
0.0
 70
    32
  0
VERTEX
  5
116F
  8
0
 62
     2
 10
6.8617399999999993
 20
6.100699999999998
 30
0.0
 70
    32
  0
VERTEX
  5
1170
  8
0
 62
     2
 10
6.8608899999999986
 20
6.0979000000000001
 30
0.0
 70
    32
  0
VERTEX
  5
1171
  8
0
 62
     2
 10
6.860109999999997
 20
6.0950699999999971
 30
0.0
 70
    32
  0
VERTEX
  5
1172
  8
0
 62
     2
 10
6.859379999999998
 20
6.092229999999998
 30
0.0
 70
    32
  0
VERTEX
  5
1173
  8
0
 62
     2
 10
6.858719999999999
 20
6.0893600000000001
 30
0.0
 70
    32
  0
VERTEX
  5
1174
  8
0
 62
     2
 10
6.8581199999999987
 20
6.086479999999999
 30
0.0
 70
    32
  0
VERTEX
  5
1175
  8
0
 62
     2
 10
6.8575799999999987
 20
6.0835800000000004
 30
0.0
 70
    32
  0
VERTEX
  5
1176
  8
0
 62
     2
 10
6.8571099999999987
 20
6.0806599999999991
 30
0.0
 70
    32
  0
VERTEX
  5
1177
  8
0
 62
     2
 10
6.8567
 20
6.0777400000000004
 30
0.0
 70
    32
  0
VERTEX
  5
1178
  8
0
 62
     2
 10
6.8563499999999991
 20
6.0747999999999971
 30
0.0
 70
    32
  0
VERTEX
  5
1179
  8
0
 62
     2
 10
6.8560600000000003
 20
6.0718500000000004
 30
0.0
 70
    32
  0
VERTEX
  5
117A
  8
0
 62
     2
 10
6.855839999999997
 20
6.0689000000000002
 30
0.0
 70
    32
  0
VERTEX
  5
117B
  8
0
 62
     2
 10
6.8556800000000004
 20
6.0659400000000003
 30
0.0
 70
    32
  0
VERTEX
  5
117C
  8
0
 62
     2
 10
6.855579999999998
 20
6.0629799999999987
 30
0.0
 70
    32
  0
VERTEX
  5
117D
  8
0
 62
     2
 10
6.85555
 20
6.0600199999999971
 30
0.0
 70
    32
  0
SEQEND
  5
117E
  8
0
 62
     2
  0
POLYLINE
  5
3DD
  8
0
 62
     2
 66
     1
 10
0.0
 20
0.0
 30
0.0
 70
     8
  0
VERTEX
  5
117F
  8
0
 62
     2
 10
6.85555
 20
6.0600199999999971
 30
0.0
 70
    32
  0
VERTEX
  5
1180
  8
0
 62
     2
 10
6.8555200000000003
 20
6.0629799999999987
 30
0.0
 70
    32
  0
VERTEX
  5
1181
  8
0
 62
     2
 10
6.8554199999999987
 20
6.0659400000000003
 30
0.0
 70
    32
  0
VERTEX
  5
1182
  8
0
 62
     2
 10
6.8552600000000004
 20
6.0689000000000002
 30
0.0
 70
    32
  0
VERTEX
  5
1183
  8
0
 62
     2
 10
6.855039999999998
 20
6.0718500000000004
 30
0.0
 70
    32
  0
VERTEX
  5
1184
  8
0
 62
     2
 10
6.8547500000000001
 20
6.0747999999999971
 30
0.0
 70
    32
  0
VERTEX
  5
1185
  8
0
 62
     2
 10
6.8544
 20
6.0777400000000004
 30
0.0
 70
    32
  0
VERTEX
  5
1186
  8
0
 62
     2
 10
6.8539899999999987
 20
6.0806599999999991
 30
0.0
 70
    32
  0
VERTEX
  5
1187
  8
0
 62
     2
 10
6.8535199999999987
 20
6.0835800000000004
 30
0.0
 70
    32
  0
VERTEX
  5
1188
  8
0
 62
     2
 10
6.8529799999999987
 20
6.086479999999999
 30
0.0
 70
    32
  0
VERTEX
  5
1189
  8
0
 62
     2
 10
6.8523800000000001
 20
6.0893600000000001
 30
0.0
 70
    32
  0
VERTEX
  5
118A
  8
0
 62
     2
 10
6.8517099999999971
 20
6.092229999999998
 30
0.0
 70
    32
  0
VERTEX
  5
118B
  8
0
 62
     2
 10
6.8509899999999986
 20
6.0950699999999971
 30
0.0
 70
    32
  0
VERTEX
  5
118C
  8
0
 62
     2
 10
6.850209999999997
 20
6.0979000000000001
 30
0.0
 70
    32
  0
VERTEX
  5
118D
  8
0
 62
     2
 10
6.849359999999999
 20
6.100699999999998
 30
0.0
 70
    32
  0
VERTEX
  5
118E
  8
0
 62
     2
 10
6.8484600000000002
 20
6.1034800000000002
 30
0.0
 70
    32
  0
VERTEX
  5
118F
  8
0
 62
     2
 10
6.8474899999999987
 20
6.10623
 30
0.0
 70
    32
  0
VERTEX
  5
1190
  8
0
 62
     2
 10
6.8464700000000001
 20
6.1089599999999971
 30
0.0
 70
    32
  0
VERTEX
  5
1191
  8
0
 62
     2
 10
6.8453899999999992
 20
6.11165
 30
0.0
 70
    32
  0
VERTEX
  5
1192
  8
0
 62
     2
 10
6.8442499999999971
 20
6.114309999999997
 30
0.0
 70
    32
  0
VERTEX
  5
1193
  8
0
 62
     2
 10
6.8430499999999981
 20
6.1169399999999987
 30
0.0
 70
    32
  0
VERTEX
  5
1194
  8
0
 62
     2
 10
6.8418000000000001
 20
6.1195399999999971
 30
0.0
 70
    32
  0
VERTEX
  5
1195
  8
0
 62
     2
 10
6.8404899999999991
 20
6.122099999999997
 30
0.0
 70
    32
  0
VERTEX
  5
1196
  8
0
 62
     2
 10
6.8391200000000003
 20
6.124629999999998
 30
0.0
 70
    32
  0
VERTEX
  5
1197
  8
0
 62
     2
 10
6.8377100000000004
 20
6.1271100000000001
 30
0.0
 70
    32
  0
VERTEX
  5
1198
  8
0
 62
     2
 10
6.8362399999999992
 20
6.1295500000000001
 30
0.0
 70
    32
  0
VERTEX
  5
1199
  8
0
 62
     2
 10
6.834719999999999
 20
6.1319600000000003
 30
0.0
 70
    32
  0
VERTEX
  5
119A
  8
0
 62
     2
 10
6.8331399999999993
 20
6.1343100000000002
 30
0.0
 70
    32
  0
VERTEX
  5
119B
  8
0
 62
     2
 10
6.8315200000000003
 20
6.1366300000000003
 30
0.0
 70
    32
  0
VERTEX
  5
119C
  8
0
 62
     2
 10
6.8298500000000004
 20
6.1388999999999987
 30
0.0
 70
    32
  0
VERTEX
  5
119D
  8
0
 62
     2
 10
6.828129999999998
 20
6.141119999999999
 30
0.0
 70
    32
  0
VERTEX
  5
119E
  8
0
 62
     2
 10
6.8263600000000002
 20
6.1432900000000004
 30
0.0
 70
    32
  0
VERTEX
  5
119F
  8
0
 62
     2
 10
6.8245399999999981
 20
6.14541
 30
0.0
 70
    32
  0
VERTEX
  5
11A0
  8
0
 62
     2
 10
6.8226800000000001
 20
6.1474799999999981
 30
0.0
 70
    32
  0
VERTEX
  5
11A1
  8
0
 62
     2
 10
6.8207800000000001
 20
6.1494999999999971
 30
0.0
 70
    32
  0
VERTEX
  5
11A2
  8
0
 62
     2
 10
6.8188300000000002
 20
6.1514600000000002
 30
0.0
 70
    32
  0
VERTEX
  5
11A3
  8
0
 62
     2
 10
6.8168399999999991
 20
6.153369999999998
 30
0.0
 70
    32
  0
VERTEX
  5
11A4
  8
0
 62
     2
 10
6.8148200000000001
 20
6.155219999999999
 30
0.0
 70
    32
  0
VERTEX
  5
11A5
  8
0
 62
     2
 10
6.8127500000000003
 20
6.157009999999997
 30
0.0
 70
    32
  0
VERTEX
  5
11A6
  8
0
 62
     2
 10
6.8106400000000002
 20
6.1587500000000004
 30
0.0
 70
    32
  0
VERTEX
  5
11A7
  8
0
 62
     2
 10
6.8085000000000004
 20
6.1604299999999981
 30
0.0
 70
    32
  0
VERTEX
  5
11A8
  8
0
 62
     2
 10
6.8063199999999986
 20
6.1620400000000002
 30
0.0
 70
    32
  0
VERTEX
  5
11A9
  8
0
 62
     2
 10
6.804109999999997
 20
6.1635999999999971
 30
0.0
 70
    32
  0
VERTEX
  5
11AA
  8
0
 62
     2
 10
6.8018599999999987
 20
6.1650900000000002
 30
0.0
 70
    32
  0
VERTEX
  5
11AB
  8
0
 62
     2
 10
6.7995900000000002
 20
6.1665199999999993
 30
0.0
 70
    32
  0
VERTEX
  5
11AC
  8
0
 62
     2
 10
6.7972799999999971
 20
6.1678899999999981
 30
0.0
 70
    32
  0
VERTEX
  5
11AD
  8
0
 62
     2
 10
6.79495
 20
6.1691900000000004
 30
0.0
 70
    32
  0
VERTEX
  5
11AE
  8
0
 62
     2
 10
6.7925800000000001
 20
6.17042
 30
0.0
 70
    32
  0
VERTEX
  5
11AF
  8
0
 62
     2
 10
6.7901999999999987
 20
6.1715900000000001
 30
0.0
 70
    32
  0
VERTEX
  5
11B0
  8
0
 62
     2
 10
6.787779999999997
 20
6.1726900000000002
 30
0.0
 70
    32
  0
VERTEX
  5
11B1
  8
0
 62
     2
 10
6.7853500000000002
 20
6.1737200000000003
 30
0.0
 70
    32
  0
VERTEX
  5
11B2
  8
0
 62
     2
 10
6.7828899999999992
 20
6.1746800000000004
 30
0.0
 70
    32
  0
VERTEX
  5
11B3
  8
0
 62
     2
 10
6.780409999999998
 20
6.1755800000000001
 30
0.0
 70
    32
  0
VERTEX
  5
11B4
  8
0
 62
     2
 10
6.7779199999999991
 20
6.1764099999999971
 30
0.0
 70
    32
  0
VERTEX
  5
11B5
  8
0
 62
     2
 10
6.775409999999999
 20
6.1771599999999971
 30
0.0
 70
    32
  0
VERTEX
  5
11B6
  8
0
 62
     2
 10
6.772879999999998
 20
6.1778500000000003
 30
0.0
 70
    32
  0
VERTEX
  5
11B7
  8
0
 62
     2
 10
6.7703399999999991
 20
6.1784600000000003
 30
0.0
 70
    32
  0
VERTEX
  5
11B8
  8
0
 62
     2
 10
6.7677800000000001
 20
6.1790000000000003
 30
0.0
 70
    32
  0
VERTEX
  5
11B9
  8
0
 62
     2
 10
6.7652199999999993
 20
6.1794700000000002
 30
0.0
 70
    32
  0
VERTEX
  5
11BA
  8
0
 62
     2
 10
6.7626399999999993
 20
6.1798699999999993
 30
0.0
 70
    32
  0
VERTEX
  5
11BB
  8
0
 62
     2
 10
6.7600600000000002
 20
6.1802000000000001
 30
0.0
 70
    32
  0
VERTEX
  5
11BC
  8
0
 62
     2
 10
6.7574699999999988
 20
6.1804500000000004
 30
0.0
 70
    32
  0
VERTEX
  5
11BD
  8
0
 62
     2
 10
6.7548799999999991
 20
6.1806299999999981
 30
0.0
 70
    32
  0
VERTEX
  5
11BE
  8
0
 62
     2
 10
6.7522799999999981
 20
6.1807400000000001
 30
0.0
 70
    32
  0
VERTEX
  5
11BF
  8
0
 62
     2
 10
6.749679999999997
 20
6.1807800000000004
 30
0.0
 70
    32
  0
VERTEX
  5
11C0
  8
0
 62
     2
 10
6.7470800000000004
 20
6.1807400000000001
 30
0.0
 70
    32
  0
VERTEX
  5
11C1
  8
0
 62
     2
 10
6.7444899999999981
 20
6.1806299999999981
 30
0.0
 70
    32
  0
VERTEX
  5
11C2
  8
0
 62
     2
 10
6.7418899999999971
 20
6.1804500000000004
 30
0.0
 70
    32
  0
VERTEX
  5
11C3
  8
0
 62
     2
 10
6.739309999999997
 20
6.1802000000000001
 30
0.0
 70
    32
  0
VERTEX
  5
11C4
  8
0
 62
     2
 10
6.73672
 20
6.1798699999999993
 30
0.0
 70
    32
  0
VERTEX
  5
11C5
  8
0
 62
     2
 10
6.7341499999999987
 20
6.1794700000000002
 30
0.0
 70
    32
  0
VERTEX
  5
11C6
  8
0
 62
     2
 10
6.7315800000000001
 20
6.1790000000000003
 30
0.0
 70
    32
  0
VERTEX
  5
11C7
  8
0
 62
     2
 10
6.7290299999999981
 20
6.1784600000000003
 30
0.0
 70
    32
  0
VERTEX
  5
11C8
  8
0
 62
     2
 10
6.7264899999999992
 20
6.1778500000000003
 30
0.0
 70
    32
  0
VERTEX
  5
11C9
  8
0
 62
     2
 10
6.723959999999999
 20
6.1771599999999971
 30
0.0
 70
    32
  0
VERTEX
  5
11CA
  8
0
 62
     2
 10
6.721449999999999
 20
6.1764099999999971
 30
0.0
 70
    32
  0
VERTEX
  5
11CB
  8
0
 62
     2
 10
6.7189500000000004
 20
6.1755800000000001
 30
0.0
 70
    32
  0
VERTEX
  5
11CC
  8
0
 62
     2
 10
6.7164699999999993
 20
6.1746800000000004
 30
0.0
 70
    32
  0
VERTEX
  5
11CD
  8
0
 62
     2
 10
6.714019999999997
 20
6.1737200000000003
 30
0.0
 70
    32
  0
VERTEX
  5
11CE
  8
0
 62
     2
 10
6.711579999999997
 20
6.1726900000000002
 30
0.0
 70
    32
  0
VERTEX
  5
11CF
  8
0
 62
     2
 10
6.7091700000000003
 20
6.1715900000000001
 30
0.0
 70
    32
  0
VERTEX
  5
11D0
  8
0
 62
     2
 10
6.7067800000000002
 20
6.17042
 30
0.0
 70
    32
  0
VERTEX
  5
11D1
  8
0
 62
     2
 10
6.704419999999998
 20
6.1691900000000004
 30
0.0
 70
    32
  0
VERTEX
  5
11D2
  8
0
 62
     2
 10
6.7020799999999987
 20
6.1678899999999981
 30
0.0
 70
    32
  0
VERTEX
  5
11D3
  8
0
 62
     2
 10
6.6997799999999987
 20
6.1665199999999993
 30
0.0
 70
    32
  0
VERTEX
  5
11D4
  8
0
 62
     2
 10
6.697499999999998
 20
6.1650900000000002
 30
0.0
 70
    32
  0
VERTEX
  5
11D5
  8
0
 62
     2
 10
6.6952600000000002
 20
6.1635999999999971
 30
0.0
 70
    32
  0
VERTEX
  5
11D6
  8
0
 62
     2
 10
6.6930399999999981
 20
6.1620400000000002
 30
0.0
 70
    32
  0
VERTEX
  5
11D7
  8
0
 62
     2
 10
6.6908700000000003
 20
6.1604299999999981
 30
0.0
 70
    32
  0
VERTEX
  5
11D8
  8
0
 62
     2
 10
6.6887199999999991
 20
6.1587500000000004
 30
0.0
 70
    32
  0
VERTEX
  5
11D9
  8
0
 62
     2
 10
6.6866199999999987
 20
6.157009999999997
 30
0.0
 70
    32
  0
VERTEX
  5
11DA
  8
0
 62
     2
 10
6.6845499999999971
 20
6.155219999999999
 30
0.0
 70
    32
  0
VERTEX
  5
11DB
  8
0
 62
     2
 10
6.6825199999999993
 20
6.153369999999998
 30
0.0
 70
    32
  0
VERTEX
  5
11DC
  8
0
 62
     2
 10
6.6805300000000001
 20
6.1514600000000002
 30
0.0
 70
    32
  0
VERTEX
  5
11DD
  8
0
 62
     2
 10
6.678589999999998
 20
6.1494999999999971
 30
0.0
 70
    32
  0
VERTEX
  5
11DE
  8
0
 62
     2
 10
6.6766800000000002
 20
6.1474799999999981
 30
0.0
 70
    32
  0
VERTEX
  5
11DF
  8
0
 62
     2
 10
6.6748199999999986
 20
6.14541
 30
0.0
 70
    32
  0
VERTEX
  5
11E0
  8
0
 62
     2
 10
6.673009999999997
 20
6.1432900000000004
 30
0.0
 70
    32
  0
VERTEX
  5
11E1
  8
0
 62
     2
 10
6.6712399999999992
 20
6.141119999999999
 30
0.0
 70
    32
  0
VERTEX
  5
11E2
  8
0
 62
     2
 10
6.6695199999999986
 20
6.1388999999999987
 30
0.0
 70
    32
  0
VERTEX
  5
11E3
  8
0
 62
     2
 10
6.6678499999999987
 20
6.1366300000000003
 30
0.0
 70
    32
  0
VERTEX
  5
11E4
  8
0
 62
     2
 10
6.66622
 20
6.1343100000000002
 30
0.0
 70
    32
  0
VERTEX
  5
11E5
  8
0
 62
     2
 10
6.6646499999999991
 20
6.1319600000000003
 30
0.0
 70
    32
  0
VERTEX
  5
11E6
  8
0
 62
     2
 10
6.6631299999999971
 20
6.1295500000000001
 30
0.0
 70
    32
  0
VERTEX
  5
11E7
  8
0
 62
     2
 10
6.6616600000000004
 20
6.1271100000000001
 30
0.0
 70
    32
  0
VERTEX
  5
11E8
  8
0
 62
     2
 10
6.660239999999999
 20
6.124629999999998
 30
0.0
 70
    32
  0
VERTEX
  5
11E9
  8
0
 62
     2
 10
6.658879999999999
 20
6.122099999999997
 30
0.0
 70
    32
  0
VERTEX
  5
11EA
  8
0
 62
     2
 10
6.6575699999999971
 20
6.1195399999999971
 30
0.0
 70
    32
  0
VERTEX
  5
11EB
  8
0
 62
     2
 10
6.65632
 20
6.1169399999999987
 30
0.0
 70
    32
  0
VERTEX
  5
11EC
  8
0
 62
     2
 10
6.6551200000000001
 20
6.114309999999997
 30
0.0
 70
    32
  0
VERTEX
  5
11ED
  8
0
 62
     2
 10
6.653979999999998
 20
6.11165
 30
0.0
 70
    32
  0
VERTEX
  5
11EE
  8
0
 62
     2
 10
6.652899999999998
 20
6.1089599999999971
 30
0.0
 70
    32
  0
VERTEX
  5
11EF
  8
0
 62
     2
 10
6.6518699999999971
 20
6.10623
 30
0.0
 70
    32
  0
VERTEX
  5
11F0
  8
0
 62
     2
 10
6.650909999999997
 20
6.1034800000000002
 30
0.0
 70
    32
  0
VERTEX
  5
11F1
  8
0
 62
     2
 10
6.6500000000000004
 20
6.100699999999998
 30
0.0
 70
    32
  0
VERTEX
  5
11F2
  8
0
 62
     2
 10
6.6491600000000002
 20
6.0979000000000001
 30
0.0
 70
    32
  0
VERTEX
  5
11F3
  8
0
 62
     2
 10
6.648369999999999
 20
6.0950699999999971
 30
0.0
 70
    32
  0
VERTEX
  5
11F4
  8
0
 62
     2
 10
6.6476499999999987
 20
6.092229999999998
 30
0.0
 70
    32
  0
VERTEX
  5
11F5
  8
0
 62
     2
 10
6.6469899999999971
 20
6.0893600000000001
 30
0.0
 70
    32
  0
VERTEX
  5
11F6
  8
0
 62
     2
 10
6.6463900000000002
 20
6.086479999999999
 30
0.0
 70
    32
  0
VERTEX
  5
11F7
  8
0
 62
     2
 10
6.6458500000000003
 20
6.0835800000000004
 30
0.0
 70
    32
  0
VERTEX
  5
11F8
  8
0
 62
     2
 10
6.645369999999998
 20
6.0806599999999991
 30
0.0
 70
    32
  0
VERTEX
  5
11F9
  8
0
 62
     2
 10
6.6449600000000002
 20
6.0777400000000004
 30
0.0
 70
    32
  0
VERTEX
  5
11FA
  8
0
 62
     2
 10
6.644610000000001
 20
6.0747999999999971
 30
0.0
 70
    32
  0
VERTEX
  5
11FB
  8
0
 62
     2
 10
6.6443300000000001
 20
6.0718500000000004
 30
0.0
 70
    32
  0
VERTEX
  5
11FC
  8
0
 62
     2
 10
6.644099999999999
 20
6.0689000000000002
 30
0.0
 70
    32
  0
VERTEX
  5
11FD
  8
0
 62
     2
 10
6.6439399999999971
 20
6.0659400000000003
 30
0.0
 70
    32
  0
VERTEX
  5
11FE
  8
0
 62
     2
 10
6.6438499999999987
 20
6.0629799999999987
 30
0.0
 70
    32
  0
VERTEX
  5
11FF
  8
0
 62
     2
 10
6.6438199999999981
 20
6.0600199999999971
 30
0.0
 70
    32
  0
SEQEND
  5
1200
  8
0
 62
     2
  0
LINE
  5
3DE
  8
DISPLAY
 62
     2
 10
6.6438158543682864
 20
6.060017399944277
 30
0.0
 11
6.6438158543682864
 21
6.018730625216822
 31
0.0
  0
LINE
  5
3DF
  8
DISPLAY
 62
     2
 10
6.8555497433372921
 20
6.0600173999442841
 30
0.0
 11
6.8555497433372921
 21
6.018730625216822
 31
0.0
  0
POLYLINE
  5
3E0
  8
0
 62
     2
 66
     1
 10
0.0
 20
0.0
 30
0.0
 70
     8
  0
VERTEX
  5
1201
  8
0
 62
     2
 10
7.27902
 20
6.0600199999999971
 30
0.0
 70
    32
  0
VERTEX
  5
1202
  8
0
 62
     2
 10
7.2789899999999959
 20
6.0629799999999987
 30
0.0
 70
    32
  0
VERTEX
  5
1203
  8
0
 62
     2
 10
7.2788899999999988
 20
6.0659400000000003
 30
0.0
 70
    32
  0
VERTEX
  5
1204
  8
0
 62
     2
 10
7.2787300000000004
 20
6.0689000000000002
 30
0.0
 70
    32
  0
VERTEX
  5
1205
  8
0
 62
     2
 10
7.2785099999999989
 20
6.0718500000000004
 30
0.0
 70
    32
  0
VERTEX
  5
1206
  8
0
 62
     2
 10
7.2782200000000001
 20
6.0747999999999971
 30
0.0
 70
    32
  0
VERTEX
  5
1207
  8
0
 62
     2
 10
7.2778700000000001
 20
6.0777400000000004
 30
0.0
 70
    32
  0
VERTEX
  5
1208
  8
0
 62
     2
 10
7.277459999999996
 20
6.0806599999999991
 30
0.0
 70
    32
  0
VERTEX
  5
1209
  8
0
 62
     2
 10
7.27698
 20
6.0835800000000004
 30
0.0
 70
    32
  0
VERTEX
  5
120A
  8
0
 62
     2
 10
7.2764499999999988
 20
6.086479999999999
 30
0.0
 70
    32
  0
VERTEX
  5
120B
  8
0
 62
     2
 10
7.2758399999999988
 20
6.0893600000000001
 30
0.0
 70
    32
  0
VERTEX
  5
120C
  8
0
 62
     2
 10
7.2751799999999989
 20
6.092229999999998
 30
0.0
 70
    32
  0
VERTEX
  5
120D
  8
0
 62
     2
 10
7.2744600000000004
 20
6.0950699999999971
 30
0.0
 70
    32
  0
VERTEX
  5
120E
  8
0
 62
     2
 10
7.2736700000000001
 20
6.0979000000000001
 30
0.0
 70
    32
  0
VERTEX
  5
120F
  8
0
 62
     2
 10
7.272829999999999
 20
6.100699999999998
 30
0.0
 70
    32
  0
VERTEX
  5
1210
  8
0
 62
     2
 10
7.2719199999999988
 20
6.1034800000000002
 30
0.0
 70
    32
  0
VERTEX
  5
1211
  8
0
 62
     2
 10
7.2709599999999979
 20
6.10623
 30
0.0
 70
    32
  0
VERTEX
  5
1212
  8
0
 62
     2
 10
7.2699399999999983
 20
6.1089599999999971
 30
0.0
 70
    32
  0
VERTEX
  5
1213
  8
0
 62
     2
 10
7.268849999999996
 20
6.11165
 30
0.0
 70
    32
  0
VERTEX
  5
1214
  8
0
 62
     2
 10
7.267710000000001
 20
6.114309999999997
 30
0.0
 70
    32
  0
VERTEX
  5
1215
  8
0
 62
     2
 10
7.2665199999999981
 20
6.1169399999999987
 30
0.0
 70
    32
  0
VERTEX
  5
1216
  8
0
 62
     2
 10
7.2652599999999961
 20
6.1195399999999971
 30
0.0
 70
    32
  0
VERTEX
  5
1217
  8
0
 62
     2
 10
7.26396
 20
6.122099999999997
 30
0.0
 70
    32
  0
VERTEX
  5
1218
  8
0
 62
     2
 10
7.2625899999999959
 20
6.124629999999998
 30
0.0
 70
    32
  0
VERTEX
  5
1219
  8
0
 62
     2
 10
7.2611800000000004
 20
6.1271100000000001
 30
0.0
 70
    32
  0
VERTEX
  5
121A
  8
0
 62
     2
 10
7.2597100000000001
 20
6.1295500000000001
 30
0.0
 70
    32
  0
VERTEX
  5
121B
  8
0
 62
     2
 10
7.2581800000000003
 20
6.1319600000000003
 30
0.0
 70
    32
  0
VERTEX
  5
121C
  8
0
 62
     2
 10
7.2566100000000002
 20
6.1343100000000002
 30
0.0
 70
    32
  0
VERTEX
  5
121D
  8
0
 62
     2
 10
7.2549899999999958
 20
6.1366300000000003
 30
0.0
 70
    32
  0
VERTEX
  5
121E
  8
0
 62
     2
 10
7.253309999999999
 20
6.1388999999999987
 30
0.0
 70
    32
  0
VERTEX
  5
121F
  8
0
 62
     2
 10
7.2515899999999984
 20
6.141119999999999
 30
0.0
 70
    32
  0
VERTEX
  5
1220
  8
0
 62
     2
 10
7.2498199999999988
 20
6.1432900000000004
 30
0.0
 70
    32
  0
VERTEX
  5
1221
  8
0
 62
     2
 10
7.2480099999999981
 20
6.14541
 30
0.0
 70
    32
  0
VERTEX
  5
1222
  8
0
 62
     2
 10
7.2461500000000001
 20
6.1474799999999981
 30
0.0
 70
    32
  0
VERTEX
  5
1223
  8
0
 62
     2
 10
7.2442500000000001
 20
6.1494999999999971
 30
0.0
 70
    32
  0
VERTEX
  5
1224
  8
0
 62
     2
 10
7.2423000000000002
 20
6.1514600000000002
 30
0.0
 70
    32
  0
VERTEX
  5
1225
  8
0
 62
     2
 10
7.24031
 20
6.153369999999998
 30
0.0
 70
    32
  0
VERTEX
  5
1226
  8
0
 62
     2
 10
7.2382799999999961
 20
6.155219999999999
 30
0.0
 70
    32
  0
VERTEX
  5
1227
  8
0
 62
     2
 10
7.2362199999999959
 20
6.157009999999997
 30
0.0
 70
    32
  0
VERTEX
  5
1228
  8
0
 62
     2
 10
7.2341100000000003
 20
6.1587500000000004
 30
0.0
 70
    32
  0
VERTEX
  5
1229
  8
0
 62
     2
 10
7.231969999999996
 20
6.1604299999999981
 30
0.0
 70
    32
  0
VERTEX
  5
122A
  8
0
 62
     2
 10
7.2297899999999959
 20
6.1620400000000002
 30
0.0
 70
    32
  0
VERTEX
  5
122B
  8
0
 62
     2
 10
7.2275799999999979
 20
6.1635999999999971
 30
0.0
 70
    32
  0
VERTEX
  5
122C
  8
0
 62
     2
 10
7.225329999999996
 20
6.1650900000000002
 30
0.0
 70
    32
  0
VERTEX
  5
122D
  8
0
 62
     2
 10
7.2230600000000003
 20
6.1665199999999993
 30
0.0
 70
    32
  0
VERTEX
  5
122E
  8
0
 62
     2
 10
7.2207499999999989
 20
6.1678899999999981
 30
0.0
 70
    32
  0
VERTEX
  5
122F
  8
0
 62
     2
 10
7.2184100000000004
 20
6.1691900000000004
 30
0.0
 70
    32
  0
VERTEX
  5
1230
  8
0
 62
     2
 10
7.2160500000000001
 20
6.17042
 30
0.0
 70
    32
  0
VERTEX
  5
1231
  8
0
 62
     2
 10
7.21366
 20
6.1715900000000001
 30
0.0
 70
    32
  0
VERTEX
  5
1232
  8
0
 62
     2
 10
7.2112499999999988
 20
6.1726900000000002
 30
0.0
 70
    32
  0
VERTEX
  5
1233
  8
0
 62
     2
 10
7.2088199999999958
 20
6.1737200000000003
 30
0.0
 70
    32
  0
VERTEX
  5
1234
  8
0
 62
     2
 10
7.2063600000000001
 20
6.1746800000000004
 30
0.0
 70
    32
  0
VERTEX
  5
1235
  8
0
 62
     2
 10
7.2038799999999981
 20
6.1755800000000001
 30
0.0
 70
    32
  0
VERTEX
  5
1236
  8
0
 62
     2
 10
7.2013899999999991
 20
6.1764099999999971
 30
0.0
 70
    32
  0
VERTEX
  5
1237
  8
0
 62
     2
 10
7.1988700000000003
 20
6.1771599999999971
 30
0.0
 70
    32
  0
VERTEX
  5
1238
  8
0
 62
     2
 10
7.196349999999998
 20
6.1778500000000003
 30
0.0
 70
    32
  0
VERTEX
  5
1239
  8
0
 62
     2
 10
7.1938000000000004
 20
6.1784600000000003
 30
0.0
 70
    32
  0
VERTEX
  5
123A
  8
0
 62
     2
 10
7.1912500000000001
 20
6.1790000000000003
 30
0.0
 70
    32
  0
VERTEX
  5
123B
  8
0
 62
     2
 10
7.1886799999999971
 20
6.1794700000000002
 30
0.0
 70
    32
  0
VERTEX
  5
123C
  8
0
 62
     2
 10
7.1861100000000002
 20
6.1798699999999993
 30
0.0
 70
    32
  0
VERTEX
  5
123D
  8
0
 62
     2
 10
7.1835300000000002
 20
6.1802000000000001
 30
0.0
 70
    32
  0
VERTEX
  5
123E
  8
0
 62
     2
 10
7.180939999999997
 20
6.1804500000000004
 30
0.0
 70
    32
  0
VERTEX
  5
123F
  8
0
 62
     2
 10
7.17835
 20
6.1806299999999981
 30
0.0
 70
    32
  0
VERTEX
  5
1240
  8
0
 62
     2
 10
7.1757499999999981
 20
6.1807400000000001
 30
0.0
 70
    32
  0
VERTEX
  5
1241
  8
0
 62
     2
 10
7.173149999999997
 20
6.1807800000000004
 30
0.0
 70
    32
  0
VERTEX
  5
1242
  8
0
 62
     2
 10
7.1705500000000004
 20
6.1807400000000001
 30
0.0
 70
    32
  0
VERTEX
  5
1243
  8
0
 62
     2
 10
7.1679599999999981
 20
6.1806299999999981
 30
0.0
 70
    32
  0
VERTEX
  5
1244
  8
0
 62
     2
 10
7.1653599999999971
 20
6.1804500000000004
 30
0.0
 70
    32
  0
VERTEX
  5
1245
  8
0
 62
     2
 10
7.1627700000000001
 20
6.1802000000000001
 30
0.0
 70
    32
  0
VERTEX
  5
1246
  8
0
 62
     2
 10
7.1601899999999992
 20
6.1798699999999993
 30
0.0
 70
    32
  0
VERTEX
  5
1247
  8
0
 62
     2
 10
7.157619999999997
 20
6.1794700000000002
 30
0.0
 70
    32
  0
VERTEX
  5
1248
  8
0
 62
     2
 10
7.1550500000000001
 20
6.1790000000000003
 30
0.0
 70
    32
  0
VERTEX
  5
1249
  8
0
 62
     2
 10
7.1524999999999981
 20
6.1784600000000003
 30
0.0
 70
    32
  0
VERTEX
  5
124A
  8
0
 62
     2
 10
7.1499499999999987
 20
6.1778500000000003
 30
0.0
 70
    32
  0
VERTEX
  5
124B
  8
0
 62
     2
 10
7.1474299999999991
 20
6.1771599999999971
 30
0.0
 70
    32
  0
VERTEX
  5
124C
  8
0
 62
     2
 10
7.1449100000000003
 20
6.1764099999999971
 30
0.0
 70
    32
  0
VERTEX
  5
124D
  8
0
 62
     2
 10
7.1424199999999987
 20
6.1755800000000001
 30
0.0
 70
    32
  0
VERTEX
  5
124E
  8
0
 62
     2
 10
7.1399399999999993
 20
6.1746800000000004
 30
0.0
 70
    32
  0
VERTEX
  5
124F
  8
0
 62
     2
 10
7.137489999999997
 20
6.1737200000000003
 30
0.0
 70
    32
  0
VERTEX
  5
1250
  8
0
 62
     2
 10
7.135049999999997
 20
6.1726900000000002
 30
0.0
 70
    32
  0
VERTEX
  5
1251
  8
0
 62
     2
 10
7.1326400000000003
 20
6.1715900000000001
 30
0.0
 70
    32
  0
VERTEX
  5
1252
  8
0
 62
     2
 10
7.1302500000000002
 20
6.17042
 30
0.0
 70
    32
  0
VERTEX
  5
1253
  8
0
 62
     2
 10
7.1278899999999981
 20
6.1691900000000004
 30
0.0
 70
    32
  0
VERTEX
  5
1254
  8
0
 62
     2
 10
7.1255499999999987
 20
6.1678899999999981
 30
0.0
 70
    32
  0
VERTEX
  5
1255
  8
0
 62
     2
 10
7.1232499999999987
 20
6.1665199999999993
 30
0.0
 70
    32
  0
VERTEX
  5
1256
  8
0
 62
     2
 10
7.120969999999998
 20
6.1650900000000002
 30
0.0
 70
    32
  0
VERTEX
  5
1257
  8
0
 62
     2
 10
7.1187199999999971
 20
6.1635999999999971
 30
0.0
 70
    32
  0
VERTEX
  5
1258
  8
0
 62
     2
 10
7.116509999999999
 20
6.1620400000000002
 30
0.0
 70
    32
  0
VERTEX
  5
1259
  8
0
 62
     2
 10
7.114329999999998
 20
6.1604299999999981
 30
0.0
 70
    32
  0
VERTEX
  5
125A
  8
0
 62
     2
 10
7.1121899999999991
 20
6.1587500000000004
 30
0.0
 70
    32
  0
VERTEX
  5
125B
  8
0
 62
     2
 10
7.1100899999999987
 20
6.157009999999997
 30
0.0
 70
    32
  0
VERTEX
  5
125C
  8
0
 62
     2
 10
7.108019999999998
 20
6.155219999999999
 30
0.0
 70
    32
  0
VERTEX
  5
125D
  8
0
 62
     2
 10
7.1059900000000003
 20
6.153369999999998
 30
0.0
 70
    32
  0
VERTEX
  5
125E
  8
0
 62
     2
 10
7.1040000000000001
 20
6.1514600000000002
 30
0.0
 70
    32
  0
VERTEX
  5
125F
  8
0
 62
     2
 10
7.1020500000000002
 20
6.1494999999999971
 30
0.0
 70
    32
  0
VERTEX
  5
1260
  8
0
 62
     2
 10
7.1001500000000002
 20
6.1474799999999981
 30
0.0
 70
    32
  0
VERTEX
  5
1261
  8
0
 62
     2
 10
7.0982899999999987
 20
6.14541
 30
0.0
 70
    32
  0
VERTEX
  5
1262
  8
0
 62
     2
 10
7.096479999999997
 20
6.1432900000000004
 30
0.0
 70
    32
  0
VERTEX
  5
1263
  8
0
 62
     2
 10
7.0947100000000001
 20
6.141119999999999
 30
0.0
 70
    32
  0
VERTEX
  5
1264
  8
0
 62
     2
 10
7.0929899999999986
 20
6.1388999999999987
 30
0.0
 70
    32
  0
VERTEX
  5
1265
  8
0
 62
     2
 10
7.09131
 20
6.1366300000000003
 30
0.0
 70
    32
  0
VERTEX
  5
1266
  8
0
 62
     2
 10
7.0896899999999992
 20
6.1343100000000002
 30
0.0
 70
    32
  0
VERTEX
  5
1267
  8
0
 62
     2
 10
7.0881199999999991
 20
6.1319600000000003
 30
0.0
 70
    32
  0
VERTEX
  5
1268
  8
0
 62
     2
 10
7.086599999999998
 20
6.1295500000000001
 30
0.0
 70
    32
  0
VERTEX
  5
1269
  8
0
 62
     2
 10
7.0851300000000004
 20
6.1271100000000001
 30
0.0
 70
    32
  0
VERTEX
  5
126A
  8
0
 62
     2
 10
7.08371
 20
6.124629999999998
 30
0.0
 70
    32
  0
VERTEX
  5
126B
  8
0
 62
     2
 10
7.082349999999999
 20
6.122099999999997
 30
0.0
 70
    32
  0
VERTEX
  5
126C
  8
0
 62
     2
 10
7.081039999999998
 20
6.1195399999999971
 30
0.0
 70
    32
  0
VERTEX
  5
126D
  8
0
 62
     2
 10
7.0797800000000004
 20
6.1169399999999987
 30
0.0
 70
    32
  0
VERTEX
  5
126E
  8
0
 62
     2
 10
7.0785899999999993
 20
6.114309999999997
 30
0.0
 70
    32
  0
VERTEX
  5
126F
  8
0
 62
     2
 10
7.077449999999998
 20
6.11165
 30
0.0
 70
    32
  0
VERTEX
  5
1270
  8
0
 62
     2
 10
7.0763699999999981
 20
6.1089599999999971
 30
0.0
 70
    32
  0
VERTEX
  5
1271
  8
0
 62
     2
 10
7.0753399999999971
 20
6.10623
 30
0.0
 70
    32
  0
VERTEX
  5
1272
  8
0
 62
     2
 10
7.074379999999997
 20
6.1034800000000002
 30
0.0
 70
    32
  0
VERTEX
  5
1273
  8
0
 62
     2
 10
7.0734699999999986
 20
6.100699999999998
 30
0.0
 70
    32
  0
VERTEX
  5
1274
  8
0
 62
     2
 10
7.0726300000000002
 20
6.0979000000000001
 30
0.0
 70
    32
  0
VERTEX
  5
1275
  8
0
 62
     2
 10
7.071839999999999
 20
6.0950699999999971
 30
0.0
 70
    32
  0
VERTEX
  5
1276
  8
0
 62
     2
 10
7.0711199999999987
 20
6.092229999999998
 30
0.0
 70
    32
  0
VERTEX
  5
1277
  8
0
 62
     2
 10
7.0704599999999971
 20
6.0893600000000001
 30
0.0
 70
    32
  0
VERTEX
  5
1278
  8
0
 62
     2
 10
7.0698600000000003
 20
6.086479999999999
 30
0.0
 70
    32
  0
VERTEX
  5
1279
  8
0
 62
     2
 10
7.0693200000000003
 20
6.0835800000000004
 30
0.0
 70
    32
  0
VERTEX
  5
127A
  8
0
 62
     2
 10
7.068839999999998
 20
6.0806599999999991
 30
0.0
 70
    32
  0
VERTEX
  5
127B
  8
0
 62
     2
 10
7.0684300000000002
 20
6.0777400000000004
 30
0.0
 70
    32
  0
VERTEX
  5
127C
  8
0
 62
     2
 10
7.0680800000000001
 20
6.0747999999999971
 30
0.0
 70
    32
  0
VERTEX
  5
127D
  8
0
 62
     2
 10
7.0677899999999987
 20
6.0718500000000004
 30
0.0
 70
    32
  0
VERTEX
  5
127E
  8
0
 62
     2
 10
7.067569999999999
 20
6.0689000000000002
 30
0.0
 70
    32
  0
VERTEX
  5
127F
  8
0
 62
     2
 10
7.0674099999999971
 20
6.0659400000000003
 30
0.0
 70
    32
  0
VERTEX
  5
1280
  8
0
 62
     2
 10
7.0673199999999987
 20
6.0629799999999987
 30
0.0
 70
    32
  0
VERTEX
  5
1281
  8
0
 62
     2
 10
7.0672800000000002
 20
6.0600199999999971
 30
0.0
 70
    32
  0
SEQEND
  5
1282
  8
0
 62
     2
  0
LINE
  5
3E1
  8
DISPLAY
 62
     2
 10
7.0672836323062951
 20
6.060017399944277
 30
0.0
 11
7.0672836323062951
 21
6.018730625216822
 31
0.0
  0
LINE
  5
3E2
  8
DISPLAY
 62
     2
 10
7.2790175212752999
 20
6.060017399944285
 30
0.0
 11
7.2790175212752999
 21
6.018730625216822
 31
0.0
  0
POLYLINE
  5
3E3
  8
0
 62
     2
 66
     1
 10
0.0
 20
0.0
 30
0.0
 70
     8
  0
VERTEX
  5
1283
  8
0
 62
     2
 10
6.85555
 20
6.4249199999999993
 30
0.0
 70
    32
  0
VERTEX
  5
1284
  8
0
 62
     2
 10
6.8555200000000003
 20
6.4219599999999986
 30
0.0
 70
    32
  0
VERTEX
  5
1285
  8
0
 62
     2
 10
6.8554199999999987
 20
6.4189999999999987
 30
0.0
 70
    32
  0
VERTEX
  5
1286
  8
0
 62
     2
 10
6.8552600000000004
 20
6.4160399999999971
 30
0.0
 70
    32
  0
VERTEX
  5
1287
  8
0
 62
     2
 10
6.855039999999998
 20
6.4130900000000004
 30
0.0
 70
    32
  0
VERTEX
  5
1288
  8
0
 62
     2
 10
6.8547500000000001
 20
6.4101400000000002
 30
0.0
 70
    32
  0
VERTEX
  5
1289
  8
0
 62
     2
 10
6.8544
 20
6.4071999999999987
 30
0.0
 70
    32
  0
VERTEX
  5
128A
  8
0
 62
     2
 10
6.8539899999999987
 20
6.4042799999999991
 30
0.0
 70
    32
  0
VERTEX
  5
128B
  8
0
 62
     2
 10
6.8535199999999987
 20
6.4013599999999986
 30
0.0
 70
    32
  0
VERTEX
  5
128C
  8
0
 62
     2
 10
6.8529799999999987
 20
6.39846
 30
0.0
 70
    32
  0
VERTEX
  5
128D
  8
0
 62
     2
 10
6.8523800000000001
 20
6.395579999999998
 30
0.0
 70
    32
  0
VERTEX
  5
128E
  8
0
 62
     2
 10
6.8517099999999971
 20
6.3927199999999971
 30
0.0
 70
    32
  0
VERTEX
  5
128F
  8
0
 62
     2
 10
6.8509899999999986
 20
6.3898699999999993
 30
0.0
 70
    32
  0
VERTEX
  5
1290
  8
0
 62
     2
 10
6.850209999999997
 20
6.3870399999999981
 30
0.0
 70
    32
  0
VERTEX
  5
1291
  8
0
 62
     2
 10
6.849359999999999
 20
6.3842400000000001
 30
0.0
 70
    32
  0
VERTEX
  5
1292
  8
0
 62
     2
 10
6.8484600000000002
 20
6.381459999999997
 30
0.0
 70
    32
  0
VERTEX
  5
1293
  8
0
 62
     2
 10
6.8474899999999987
 20
6.3787099999999981
 30
0.0
 70
    32
  0
VERTEX
  5
1294
  8
0
 62
     2
 10
6.8464700000000001
 20
6.375989999999998
 30
0.0
 70
    32
  0
VERTEX
  5
1295
  8
0
 62
     2
 10
6.8453899999999992
 20
6.373289999999999
 30
0.0
 70
    32
  0
VERTEX
  5
1296
  8
0
 62
     2
 10
6.8442499999999971
 20
6.3706300000000002
 30
0.0
 70
    32
  0
VERTEX
  5
1297
  8
0
 62
     2
 10
6.8430499999999981
 20
6.3680000000000003
 30
0.0
 70
    32
  0
VERTEX
  5
1298
  8
0
 62
     2
 10
6.8418000000000001
 20
6.3654000000000002
 30
0.0
 70
    32
  0
VERTEX
  5
1299
  8
0
 62
     2
 10
6.8404899999999991
 20
6.3628400000000003
 30
0.0
 70
    32
  0
VERTEX
  5
129A
  8
0
 62
     2
 10
6.8391200000000003
 20
6.3603199999999971
 30
0.0
 70
    32
  0
VERTEX
  5
129B
  8
0
 62
     2
 10
6.8377100000000004
 20
6.3578299999999981
 30
0.0
 70
    32
  0
VERTEX
  5
129C
  8
0
 62
     2
 10
6.8362399999999992
 20
6.3553899999999981
 30
0.0
 70
    32
  0
VERTEX
  5
129D
  8
0
 62
     2
 10
6.834719999999999
 20
6.3529900000000001
 30
0.0
 70
    32
  0
VERTEX
  5
129E
  8
0
 62
     2
 10
6.8331399999999993
 20
6.3506299999999971
 30
0.0
 70
    32
  0
VERTEX
  5
129F
  8
0
 62
     2
 10
6.8315200000000003
 20
6.348309999999997
 30
0.0
 70
    32
  0
VERTEX
  5
12A0
  8
0
 62
     2
 10
6.8298500000000004
 20
6.3460499999999991
 30
0.0
 70
    32
  0
VERTEX
  5
12A1
  8
0
 62
     2
 10
6.828129999999998
 20
6.34382
 30
0.0
 70
    32
  0
VERTEX
  5
12A2
  8
0
 62
     2
 10
6.8263600000000002
 20
6.3416499999999987
 30
0.0
 70
    32
  0
VERTEX
  5
12A3
  8
0
 62
     2
 10
6.8245399999999981
 20
6.3395299999999981
 30
0.0
 70
    32
  0
VERTEX
  5
12A4
  8
0
 62
     2
 10
6.8226800000000001
 20
6.3374600000000001
 30
0.0
 70
    32
  0
VERTEX
  5
12A5
  8
0
 62
     2
 10
6.8207800000000001
 20
6.3354400000000002
 30
0.0
 70
    32
  0
VERTEX
  5
12A6
  8
0
 62
     2
 10
6.8188300000000002
 20
6.333479999999998
 30
0.0
 70
    32
  0
VERTEX
  5
12A7
  8
0
 62
     2
 10
6.8168399999999991
 20
6.3315700000000001
 30
0.0
 70
    32
  0
VERTEX
  5
12A8
  8
0
 62
     2
 10
6.8148200000000001
 20
6.32972
 30
0.0
 70
    32
  0
VERTEX
  5
12A9
  8
0
 62
     2
 10
6.8127500000000003
 20
6.3279300000000003
 30
0.0
 70
    32
  0
VERTEX
  5
12AA
  8
0
 62
     2
 10
6.8106400000000002
 20
6.3261900000000004
 30
0.0
 70
    32
  0
VERTEX
  5
12AB
  8
0
 62
     2
 10
6.8085000000000004
 20
6.3245100000000001
 30
0.0
 70
    32
  0
VERTEX
  5
12AC
  8
0
 62
     2
 10
6.8063199999999986
 20
6.3228999999999971
 30
0.0
 70
    32
  0
VERTEX
  5
12AD
  8
0
 62
     2
 10
6.804109999999997
 20
6.3213400000000002
 30
0.0
 70
    32
  0
VERTEX
  5
12AE
  8
0
 62
     2
 10
6.8018599999999987
 20
6.3198499999999971
 30
0.0
 70
    32
  0
VERTEX
  5
12AF
  8
0
 62
     2
 10
6.7995900000000002
 20
6.318419999999997
 30
0.0
 70
    32
  0
VERTEX
  5
12B0
  8
0
 62
     2
 10
6.7972799999999971
 20
6.317059999999997
 30
0.0
 70
    32
  0
VERTEX
  5
12B1
  8
0
 62
     2
 10
6.79495
 20
6.31576
 30
0.0
 70
    32
  0
VERTEX
  5
12B2
  8
0
 62
     2
 10
6.7925800000000001
 20
6.314519999999999
 30
0.0
 70
    32
  0
VERTEX
  5
12B3
  8
0
 62
     2
 10
6.7901999999999987
 20
6.313349999999998
 30
0.0
 70
    32
  0
VERTEX
  5
12B4
  8
0
 62
     2
 10
6.787779999999997
 20
6.312249999999997
 30
0.0
 70
    32
  0
VERTEX
  5
12B5
  8
0
 62
     2
 10
6.7853500000000002
 20
6.3112199999999987
 30
0.0
 70
    32
  0
VERTEX
  5
12B6
  8
0
 62
     2
 10
6.7828899999999992
 20
6.3102599999999986
 30
0.0
 70
    32
  0
VERTEX
  5
12B7
  8
0
 62
     2
 10
6.780409999999998
 20
6.3093599999999981
 30
0.0
 70
    32
  0
VERTEX
  5
12B8
  8
0
 62
     2
 10
6.7779199999999991
 20
6.308539999999998
 30
0.0
 70
    32
  0
VERTEX
  5
12B9
  8
0
 62
     2
 10
6.775409999999999
 20
6.3077800000000002
 30
0.0
 70
    32
  0
VERTEX
  5
12BA
  8
0
 62
     2
 10
6.772879999999998
 20
6.3071000000000002
 30
0.0
 70
    32
  0
VERTEX
  5
12BB
  8
0
 62
     2
 10
6.7703399999999991
 20
6.3064799999999988
 30
0.0
 70
    32
  0
VERTEX
  5
12BC
  8
0
 62
     2
 10
6.7677800000000001
 20
6.305939999999997
 30
0.0
 70
    32
  0
VERTEX
  5
12BD
  8
0
 62
     2
 10
6.7652199999999993
 20
6.305469999999997
 30
0.0
 70
    32
  0
VERTEX
  5
12BE
  8
0
 62
     2
 10
6.7626399999999993
 20
6.3050699999999971
 30
0.0
 70
    32
  0
VERTEX
  5
12BF
  8
0
 62
     2
 10
6.7600600000000002
 20
6.304739999999998
 30
0.0
 70
    32
  0
VERTEX
  5
12C0
  8
0
 62
     2
 10
6.7574699999999988
 20
6.3044900000000004
 30
0.0
 70
    32
  0
VERTEX
  5
12C1
  8
0
 62
     2
 10
6.7548799999999991
 20
6.3043100000000001
 30
0.0
 70
    32
  0
VERTEX
  5
12C2
  8
0
 62
     2
 10
6.7522799999999981
 20
6.304199999999998
 30
0.0
 70
    32
  0
VERTEX
  5
12C3
  8
0
 62
     2
 10
6.749679999999997
 20
6.3041599999999987
 30
0.0
 70
    32
  0
VERTEX
  5
12C4
  8
0
 62
     2
 10
6.7470800000000004
 20
6.304199999999998
 30
0.0
 70
    32
  0
VERTEX
  5
12C5
  8
0
 62
     2
 10
6.7444899999999981
 20
6.3043100000000001
 30
0.0
 70
    32
  0
VERTEX
  5
12C6
  8
0
 62
     2
 10
6.7418899999999971
 20
6.3044900000000004
 30
0.0
 70
    32
  0
VERTEX
  5
12C7
  8
0
 62
     2
 10
6.739309999999997
 20
6.304739999999998
 30
0.0
 70
    32
  0
VERTEX
  5
12C8
  8
0
 62
     2
 10
6.73672
 20
6.3050699999999971
 30
0.0
 70
    32
  0
VERTEX
  5
12C9
  8
0
 62
     2
 10
6.7341499999999987
 20
6.305469999999997
 30
0.0
 70
    32
  0
VERTEX
  5
12CA
  8
0
 62
     2
 10
6.7315800000000001
 20
6.305939999999997
 30
0.0
 70
    32
  0
VERTEX
  5
12CB
  8
0
 62
     2
 10
6.7290299999999981
 20
6.3064799999999988
 30
0.0
 70
    32
  0
VERTEX
  5
12CC
  8
0
 62
     2
 10
6.7264899999999992
 20
6.3071000000000002
 30
0.0
 70
    32
  0
VERTEX
  5
12CD
  8
0
 62
     2
 10
6.723959999999999
 20
6.3077800000000002
 30
0.0
 70
    32
  0
VERTEX
  5
12CE
  8
0
 62
     2
 10
6.721449999999999
 20
6.308539999999998
 30
0.0
 70
    32
  0
VERTEX
  5
12CF
  8
0
 62
     2
 10
6.7189500000000004
 20
6.3093599999999981
 30
0.0
 70
    32
  0
VERTEX
  5
12D0
  8
0
 62
     2
 10
6.7164699999999993
 20
6.3102599999999986
 30
0.0
 70
    32
  0
VERTEX
  5
12D1
  8
0
 62
     2
 10
6.714019999999997
 20
6.3112199999999987
 30
0.0
 70
    32
  0
VERTEX
  5
12D2
  8
0
 62
     2
 10
6.711579999999997
 20
6.312249999999997
 30
0.0
 70
    32
  0
VERTEX
  5
12D3
  8
0
 62
     2
 10
6.7091700000000003
 20
6.313349999999998
 30
0.0
 70
    32
  0
VERTEX
  5
12D4
  8
0
 62
     2
 10
6.7067800000000002
 20
6.314519999999999
 30
0.0
 70
    32
  0
VERTEX
  5
12D5
  8
0
 62
     2
 10
6.704419999999998
 20
6.31576
 30
0.0
 70
    32
  0
VERTEX
  5
12D6
  8
0
 62
     2
 10
6.7020799999999987
 20
6.317059999999997
 30
0.0
 70
    32
  0
VERTEX
  5
12D7
  8
0
 62
     2
 10
6.6997799999999987
 20
6.318419999999997
 30
0.0
 70
    32
  0
VERTEX
  5
12D8
  8
0
 62
     2
 10
6.697499999999998
 20
6.3198499999999971
 30
0.0
 70
    32
  0
VERTEX
  5
12D9
  8
0
 62
     2
 10
6.6952600000000002
 20
6.3213400000000002
 30
0.0
 70
    32
  0
VERTEX
  5
12DA
  8
0
 62
     2
 10
6.6930399999999981
 20
6.3228999999999971
 30
0.0
 70
    32
  0
VERTEX
  5
12DB
  8
0
 62
     2
 10
6.6908700000000003
 20
6.3245100000000001
 30
0.0
 70
    32
  0
VERTEX
  5
12DC
  8
0
 62
     2
 10
6.6887199999999991
 20
6.3261900000000004
 30
0.0
 70
    32
  0
VERTEX
  5
12DD
  8
0
 62
     2
 10
6.6866199999999987
 20
6.3279300000000003
 30
0.0
 70
    32
  0
VERTEX
  5
12DE
  8
0
 62
     2
 10
6.6845499999999971
 20
6.32972
 30
0.0
 70
    32
  0
VERTEX
  5
12DF
  8
0
 62
     2
 10
6.6825199999999993
 20
6.3315700000000001
 30
0.0
 70
    32
  0
VERTEX
  5
12E0
  8
0
 62
     2
 10
6.6805300000000001
 20
6.333479999999998
 30
0.0
 70
    32
  0
VERTEX
  5
12E1
  8
0
 62
     2
 10
6.678589999999998
 20
6.3354400000000002
 30
0.0
 70
    32
  0
VERTEX
  5
12E2
  8
0
 62
     2
 10
6.6766800000000002
 20
6.3374600000000001
 30
0.0
 70
    32
  0
VERTEX
  5
12E3
  8
0
 62
     2
 10
6.6748199999999986
 20
6.3395299999999981
 30
0.0
 70
    32
  0
VERTEX
  5
12E4
  8
0
 62
     2
 10
6.673009999999997
 20
6.3416499999999987
 30
0.0
 70
    32
  0
VERTEX
  5
12E5
  8
0
 62
     2
 10
6.6712399999999992
 20
6.34382
 30
0.0
 70
    32
  0
VERTEX
  5
12E6
  8
0
 62
     2
 10
6.6695199999999986
 20
6.3460499999999991
 30
0.0
 70
    32
  0
VERTEX
  5
12E7
  8
0
 62
     2
 10
6.6678499999999987
 20
6.348309999999997
 30
0.0
 70
    32
  0
VERTEX
  5
12E8
  8
0
 62
     2
 10
6.66622
 20
6.3506299999999971
 30
0.0
 70
    32
  0
VERTEX
  5
12E9
  8
0
 62
     2
 10
6.6646499999999991
 20
6.3529900000000001
 30
0.0
 70
    32
  0
VERTEX
  5
12EA
  8
0
 62
     2
 10
6.6631299999999971
 20
6.3553899999999981
 30
0.0
 70
    32
  0
VERTEX
  5
12EB
  8
0
 62
     2
 10
6.6616600000000004
 20
6.3578299999999981
 30
0.0
 70
    32
  0
VERTEX
  5
12EC
  8
0
 62
     2
 10
6.660239999999999
 20
6.3603199999999971
 30
0.0
 70
    32
  0
VERTEX
  5
12ED
  8
0
 62
     2
 10
6.658879999999999
 20
6.3628400000000003
 30
0.0
 70
    32
  0
VERTEX
  5
12EE
  8
0
 62
     2
 10
6.6575699999999971
 20
6.3654000000000002
 30
0.0
 70
    32
  0
VERTEX
  5
12EF
  8
0
 62
     2
 10
6.65632
 20
6.3680000000000003
 30
0.0
 70
    32
  0
VERTEX
  5
12F0
  8
0
 62
     2
 10
6.6551200000000001
 20
6.3706300000000002
 30
0.0
 70
    32
  0
VERTEX
  5
12F1
  8
0
 62
     2
 10
6.653979999999998
 20
6.373289999999999
 30
0.0
 70
    32
  0
VERTEX
  5
12F2
  8
0
 62
     2
 10
6.652899999999998
 20
6.375989999999998
 30
0.0
 70
    32
  0
VERTEX
  5
12F3
  8
0
 62
     2
 10
6.6518699999999971
 20
6.3787099999999981
 30
0.0
 70
    32
  0
VERTEX
  5
12F4
  8
0
 62
     2
 10
6.650909999999997
 20
6.381459999999997
 30
0.0
 70
    32
  0
VERTEX
  5
12F5
  8
0
 62
     2
 10
6.6500000000000004
 20
6.3842400000000001
 30
0.0
 70
    32
  0
VERTEX
  5
12F6
  8
0
 62
     2
 10
6.6491600000000002
 20
6.3870399999999981
 30
0.0
 70
    32
  0
VERTEX
  5
12F7
  8
0
 62
     2
 10
6.648369999999999
 20
6.3898699999999993
 30
0.0
 70
    32
  0
VERTEX
  5
12F8
  8
0
 62
     2
 10
6.6476499999999987
 20
6.3927199999999971
 30
0.0
 70
    32
  0
VERTEX
  5
12F9
  8
0
 62
     2
 10
6.6469899999999971
 20
6.395579999999998
 30
0.0
 70
    32
  0
VERTEX
  5
12FA
  8
0
 62
     2
 10
6.6463900000000002
 20
6.39846
 30
0.0
 70
    32
  0
VERTEX
  5
12FB
  8
0
 62
     2
 10
6.6458500000000003
 20
6.4013599999999986
 30
0.0
 70
    32
  0
VERTEX
  5
12FC
  8
0
 62
     2
 10
6.645369999999998
 20
6.4042799999999991
 30
0.0
 70
    32
  0
VERTEX
  5
12FD
  8
0
 62
     2
 10
6.6449600000000002
 20
6.4071999999999987
 30
0.0
 70
    32
  0
VERTEX
  5
12FE
  8
0
 62
     2
 10
6.644610000000001
 20
6.4101400000000002
 30
0.0
 70
    32
  0
VERTEX
  5
12FF
  8
0
 62
     2
 10
6.6443300000000001
 20
6.4130900000000004
 30
0.0
 70
    32
  0
VERTEX
  5
1300
  8
0
 62
     2
 10
6.644099999999999
 20
6.4160399999999971
 30
0.0
 70
    32
  0
VERTEX
  5
1301
  8
0
 62
     2
 10
6.6439399999999971
 20
6.4189999999999987
 30
0.0
 70
    32
  0
VERTEX
  5
1302
  8
0
 62
     2
 10
6.6438499999999987
 20
6.4219599999999986
 30
0.0
 70
    32
  0
VERTEX
  5
1303
  8
0
 62
     2
 10
6.6438199999999981
 20
6.4249199999999993
 30
0.0
 70
    32
  0
SEQEND
  5
1304
  8
0
 62
     2
  0
POLYLINE
  5
3E4
  8
0
 62
     2
 66
     1
 10
0.0
 20
0.0
 30
0.0
 70
     8
  0
VERTEX
  5
1305
  8
0
 62
     2
 10
6.6438199999999981
 20
6.4249199999999993
 30
0.0
 70
    32
  0
VERTEX
  5
1306
  8
0
 62
     2
 10
6.6437799999999987
 20
6.4219599999999986
 30
0.0
 70
    32
  0
VERTEX
  5
1307
  8
0
 62
     2
 10
6.6436900000000003
 20
6.4189999999999987
 30
0.0
 70
    32
  0
VERTEX
  5
1308
  8
0
 62
     2
 10
6.6435300000000002
 20
6.4160399999999971
 30
0.0
 70
    32
  0
VERTEX
  5
1309
  8
0
 62
     2
 10
6.6433099999999987
 20
6.4130900000000004
 30
0.0
 70
    32
  0
VERTEX
  5
130A
  8
0
 62
     2
 10
6.643019999999999
 20
6.4101400000000002
 30
0.0
 70
    32
  0
VERTEX
  5
130B
  8
0
 62
     2
 10
6.6426699999999981
 20
6.4071999999999987
 30
0.0
 70
    32
  0
VERTEX
  5
130C
  8
0
 62
     2
 10
6.6422600000000003
 20
6.4042799999999991
 30
0.0
 70
    32
  0
VERTEX
  5
130D
  8
0
 62
     2
 10
6.641779999999998
 20
6.4013599999999986
 30
0.0
 70
    32
  0
VERTEX
  5
130E
  8
0
 62
     2
 10
6.641239999999998
 20
6.39846
 30
0.0
 70
    32
  0
VERTEX
  5
130F
  8
0
 62
     2
 10
6.6406400000000003
 20
6.395579999999998
 30
0.0
 70
    32
  0
VERTEX
  5
1310
  8
0
 62
     2
 10
6.6399800000000004
 20
6.3927199999999971
 30
0.0
 70
    32
  0
VERTEX
  5
1311
  8
0
 62
     2
 10
6.6392600000000002
 20
6.3898699999999993
 30
0.0
 70
    32
  0
VERTEX
  5
1312
  8
0
 62
     2
 10
6.6384699999999981
 20
6.3870399999999981
 30
0.0
 70
    32
  0
VERTEX
  5
1313
  8
0
 62
     2
 10
6.637629999999997
 20
6.3842400000000001
 30
0.0
 70
    32
  0
VERTEX
  5
1314
  8
0
 62
     2
 10
6.6367199999999986
 20
6.381459999999997
 30
0.0
 70
    32
  0
VERTEX
  5
1315
  8
0
 62
     2
 10
6.6357600000000003
 20
6.3787099999999981
 30
0.0
 70
    32
  0
VERTEX
  5
1316
  8
0
 62
     2
 10
6.6347300000000002
 20
6.375989999999998
 30
0.0
 70
    32
  0
VERTEX
  5
1317
  8
0
 62
     2
 10
6.6336500000000003
 20
6.373289999999999
 30
0.0
 70
    32
  0
VERTEX
  5
1318
  8
0
 62
     2
 10
6.632509999999999
 20
6.3706300000000002
 30
0.0
 70
    32
  0
VERTEX
  5
1319
  8
0
 62
     2
 10
6.631319999999997
 20
6.3680000000000003
 30
0.0
 70
    32
  0
VERTEX
  5
131A
  8
0
 62
     2
 10
6.6300600000000003
 20
6.3654000000000002
 30
0.0
 70
    32
  0
VERTEX
  5
131B
  8
0
 62
     2
 10
6.6287500000000001
 20
6.3628400000000003
 30
0.0
 70
    32
  0
VERTEX
  5
131C
  8
0
 62
     2
 10
6.6273899999999992
 20
6.3603199999999971
 30
0.0
 70
    32
  0
VERTEX
  5
131D
  8
0
 62
     2
 10
6.625969999999997
 20
6.3578299999999981
 30
0.0
 70
    32
  0
VERTEX
  5
131E
  8
0
 62
     2
 10
6.6245000000000003
 20
6.3553899999999981
 30
0.0
 70
    32
  0
VERTEX
  5
131F
  8
0
 62
     2
 10
6.6229800000000001
 20
6.3529900000000001
 30
0.0
 70
    32
  0
VERTEX
  5
1320
  8
0
 62
     2
 10
6.62141
 20
6.3506299999999971
 30
0.0
 70
    32
  0
VERTEX
  5
1321
  8
0
 62
     2
 10
6.6197899999999992
 20
6.348309999999997
 30
0.0
 70
    32
  0
VERTEX
  5
1322
  8
0
 62
     2
 10
6.6181099999999971
 20
6.3460499999999991
 30
0.0
 70
    32
  0
VERTEX
  5
1323
  8
0
 62
     2
 10
6.6163899999999991
 20
6.34382
 30
0.0
 70
    32
  0
VERTEX
  5
1324
  8
0
 62
     2
 10
6.6146199999999986
 20
6.3416499999999987
 30
0.0
 70
    32
  0
VERTEX
  5
1325
  8
0
 62
     2
 10
6.6128099999999987
 20
6.3395299999999981
 30
0.0
 70
    32
  0
VERTEX
  5
1326
  8
0
 62
     2
 10
6.6109499999999981
 20
6.3374600000000001
 30
0.0
 70
    32
  0
VERTEX
  5
1327
  8
0
 62
     2
 10
6.6090400000000002
 20
6.3354400000000002
 30
0.0
 70
    32
  0
VERTEX
  5
1328
  8
0
 62
     2
 10
6.6070999999999991
 20
6.333479999999998
 30
0.0
 70
    32
  0
VERTEX
  5
1329
  8
0
 62
     2
 10
6.605109999999998
 20
6.3315700000000001
 30
0.0
 70
    32
  0
VERTEX
  5
132A
  8
0
 62
     2
 10
6.6030800000000003
 20
6.32972
 30
0.0
 70
    32
  0
VERTEX
  5
132B
  8
0
 62
     2
 10
6.6010099999999987
 20
6.3279300000000003
 30
0.0
 70
    32
  0
VERTEX
  5
132C
  8
0
 62
     2
 10
6.5989100000000001
 20
6.3261900000000004
 30
0.0
 70
    32
  0
VERTEX
  5
132D
  8
0
 62
     2
 10
6.5967700000000002
 20
6.3245100000000001
 30
0.0
 70
    32
  0
VERTEX
  5
132E
  8
0
 62
     2
 10
6.5945899999999993
 20
6.3228999999999971
 30
0.0
 70
    32
  0
VERTEX
  5
132F
  8
0
 62
     2
 10
6.5923800000000004
 20
6.3213400000000002
 30
0.0
 70
    32
  0
VERTEX
  5
1330
  8
0
 62
     2
 10
6.5901300000000003
 20
6.3198499999999971
 30
0.0
 70
    32
  0
VERTEX
  5
1331
  8
0
 62
     2
 10
6.5878500000000004
 20
6.318419999999997
 30
0.0
 70
    32
  0
VERTEX
  5
1332
  8
0
 62
     2
 10
6.5855499999999987
 20
6.317059999999997
 30
0.0
 70
    32
  0
VERTEX
  5
1333
  8
0
 62
     2
 10
6.5832100000000002
 20
6.31576
 30
0.0
 70
    32
  0
VERTEX
  5
1334
  8
0
 62
     2
 10
6.5808499999999981
 20
6.314519999999999
 30
0.0
 70
    32
  0
VERTEX
  5
1335
  8
0
 62
     2
 10
6.5784599999999971
 20
6.313349999999998
 30
0.0
 70
    32
  0
VERTEX
  5
1336
  8
0
 62
     2
 10
6.5760500000000004
 20
6.312249999999997
 30
0.0
 70
    32
  0
VERTEX
  5
1337
  8
0
 62
     2
 10
6.5736100000000004
 20
6.3112199999999987
 30
0.0
 70
    32
  0
VERTEX
  5
1338
  8
0
 62
     2
 10
6.571159999999999
 20
6.3102599999999986
 30
0.0
 70
    32
  0
VERTEX
  5
1339
  8
0
 62
     2
 10
6.5686799999999987
 20
6.3093599999999981
 30
0.0
 70
    32
  0
VERTEX
  5
133A
  8
0
 62
     2
 10
6.5661800000000001
 20
6.308539999999998
 30
0.0
 70
    32
  0
VERTEX
  5
133B
  8
0
 62
     2
 10
6.5636700000000001
 20
6.3077800000000002
 30
0.0
 70
    32
  0
VERTEX
  5
133C
  8
0
 62
     2
 10
6.5611399999999991
 20
6.3071000000000002
 30
0.0
 70
    32
  0
VERTEX
  5
133D
  8
0
 62
     2
 10
6.5586000000000002
 20
6.3064799999999988
 30
0.0
 70
    32
  0
VERTEX
  5
133E
  8
0
 62
     2
 10
6.556049999999999
 20
6.305939999999997
 30
0.0
 70
    32
  0
VERTEX
  5
133F
  8
0
 62
     2
 10
6.5534800000000004
 20
6.305469999999997
 30
0.0
 70
    32
  0
VERTEX
  5
1340
  8
0
 62
     2
 10
6.55091
 20
6.3050699999999971
 30
0.0
 70
    32
  0
VERTEX
  5
1341
  8
0
 62
     2
 10
6.5483299999999991
 20
6.304739999999998
 30
0.0
 70
    32
  0
VERTEX
  5
1342
  8
0
 62
     2
 10
6.5457400000000003
 20
6.3044900000000004
 30
0.0
 70
    32
  0
VERTEX
  5
1343
  8
0
 62
     2
 10
6.5431400000000002
 20
6.3043100000000001
 30
0.0
 70
    32
  0
VERTEX
  5
1344
  8
0
 62
     2
 10
6.5405499999999988
 20
6.304199999999998
 30
0.0
 70
    32
  0
VERTEX
  5
1345
  8
0
 62
     2
 10
6.5379500000000004
 20
6.3041599999999987
 30
0.0
 70
    32
  0
VERTEX
  5
1346
  8
0
 62
     2
 10
6.5353500000000002
 20
6.304199999999998
 30
0.0
 70
    32
  0
VERTEX
  5
1347
  8
0
 62
     2
 10
6.5327500000000001
 20
6.3043100000000001
 30
0.0
 70
    32
  0
VERTEX
  5
1348
  8
0
 62
     2
 10
6.5301599999999986
 20
6.3044900000000004
 30
0.0
 70
    32
  0
VERTEX
  5
1349
  8
0
 62
     2
 10
6.5275699999999981
 20
6.304739999999998
 30
0.0
 70
    32
  0
VERTEX
  5
134A
  8
0
 62
     2
 10
6.5249899999999981
 20
6.3050699999999971
 30
0.0
 70
    32
  0
VERTEX
  5
134B
  8
0
 62
     2
 10
6.5224200000000003
 20
6.305469999999997
 30
0.0
 70
    32
  0
VERTEX
  5
134C
  8
0
 62
     2
 10
6.519849999999999
 20
6.305939999999997
 30
0.0
 70
    32
  0
VERTEX
  5
134D
  8
0
 62
     2
 10
6.517299999999997
 20
6.3064799999999988
 30
0.0
 70
    32
  0
VERTEX
  5
134E
  8
0
 62
     2
 10
6.5147500000000003
 20
6.3071000000000002
 30
0.0
 70
    32
  0
VERTEX
  5
134F
  8
0
 62
     2
 10
6.5122299999999971
 20
6.3077800000000002
 30
0.0
 70
    32
  0
VERTEX
  5
1350
  8
0
 62
     2
 10
6.5097100000000001
 20
6.308539999999998
 30
0.0
 70
    32
  0
VERTEX
  5
1351
  8
0
 62
     2
 10
6.5072199999999993
 20
6.3093599999999981
 30
0.0
 70
    32
  0
VERTEX
  5
1352
  8
0
 62
     2
 10
6.5047399999999991
 20
6.3102599999999986
 30
0.0
 70
    32
  0
VERTEX
  5
1353
  8
0
 62
     2
 10
6.5022799999999981
 20
6.3112199999999987
 30
0.0
 70
    32
  0
VERTEX
  5
1354
  8
0
 62
     2
 10
6.4998500000000003
 20
6.312249999999997
 30
0.0
 70
    32
  0
VERTEX
  5
1355
  8
0
 62
     2
 10
6.4974400000000001
 20
6.313349999999998
 30
0.0
 70
    32
  0
VERTEX
  5
1356
  8
0
 62
     2
 10
6.4950499999999991
 20
6.314519999999999
 30
0.0
 70
    32
  0
VERTEX
  5
1357
  8
0
 62
     2
 10
6.49268
 20
6.31576
 30
0.0
 70
    32
  0
VERTEX
  5
1358
  8
0
 62
     2
 10
6.4903500000000003
 20
6.317059999999997
 30
0.0
 70
    32
  0
VERTEX
  5
1359
  8
0
 62
     2
 10
6.488039999999998
 20
6.318419999999997
 30
0.0
 70
    32
  0
VERTEX
  5
135A
  8
0
 62
     2
 10
6.4857699999999987
 20
6.3198499999999971
 30
0.0
 70
    32
  0
VERTEX
  5
135B
  8
0
 62
     2
 10
6.4835199999999986
 20
6.3213400000000002
 30
0.0
 70
    32
  0
VERTEX
  5
135C
  8
0
 62
     2
 10
6.481309999999997
 20
6.3228999999999971
 30
0.0
 70
    32
  0
VERTEX
  5
135D
  8
0
 62
     2
 10
6.4791299999999987
 20
6.3245100000000001
 30
0.0
 70
    32
  0
VERTEX
  5
135E
  8
0
 62
     2
 10
6.476989999999998
 20
6.3261900000000004
 30
0.0
 70
    32
  0
VERTEX
  5
135F
  8
0
 62
     2
 10
6.4748799999999971
 20
6.3279300000000003
 30
0.0
 70
    32
  0
VERTEX
  5
1360
  8
0
 62
     2
 10
6.4728199999999987
 20
6.32972
 30
0.0
 70
    32
  0
VERTEX
  5
1361
  8
0
 62
     2
 10
6.47079
 20
6.3315700000000001
 30
0.0
 70
    32
  0
VERTEX
  5
1362
  8
0
 62
     2
 10
6.4687999999999981
 20
6.333479999999998
 30
0.0
 70
    32
  0
VERTEX
  5
1363
  8
0
 62
     2
 10
6.4668499999999991
 20
6.3354400000000002
 30
0.0
 70
    32
  0
VERTEX
  5
1364
  8
0
 62
     2
 10
6.4649499999999991
 20
6.3374600000000001
 30
0.0
 70
    32
  0
VERTEX
  5
1365
  8
0
 62
     2
 10
6.4630900000000002
 20
6.3395299999999981
 30
0.0
 70
    32
  0
VERTEX
  5
1366
  8
0
 62
     2
 10
6.4612800000000004
 20
6.3416499999999987
 30
0.0
 70
    32
  0
VERTEX
  5
1367
  8
0
 62
     2
 10
6.4595099999999981
 20
6.34382
 30
0.0
 70
    32
  0
VERTEX
  5
1368
  8
0
 62
     2
 10
6.4577900000000001
 20
6.3460499999999991
 30
0.0
 70
    32
  0
VERTEX
  5
1369
  8
0
 62
     2
 10
6.456109999999998
 20
6.348309999999997
 30
0.0
 70
    32
  0
VERTEX
  5
136A
  8
0
 62
     2
 10
6.4544899999999981
 20
6.3506299999999971
 30
0.0
 70
    32
  0
VERTEX
  5
136B
  8
0
 62
     2
 10
6.4529199999999971
 20
6.3529900000000001
 30
0.0
 70
    32
  0
VERTEX
  5
136C
  8
0
 62
     2
 10
6.4513899999999991
 20
6.3553899999999981
 30
0.0
 70
    32
  0
VERTEX
  5
136D
  8
0
 62
     2
 10
6.449919999999997
 20
6.3578299999999981
 30
0.0
 70
    32
  0
VERTEX
  5
136E
  8
0
 62
     2
 10
6.4485099999999971
 20
6.3603199999999971
 30
0.0
 70
    32
  0
VERTEX
  5
136F
  8
0
 62
     2
 10
6.4471400000000001
 20
6.3628400000000003
 30
0.0
 70
    32
  0
VERTEX
  5
1370
  8
0
 62
     2
 10
6.4458399999999987
 20
6.3654000000000002
 30
0.0
 70
    32
  0
VERTEX
  5
1371
  8
0
 62
     2
 10
6.4445800000000002
 20
6.3680000000000003
 30
0.0
 70
    32
  0
VERTEX
  5
1372
  8
0
 62
     2
 10
6.4433899999999991
 20
6.3706300000000002
 30
0.0
 70
    32
  0
VERTEX
  5
1373
  8
0
 62
     2
 10
6.4422499999999987
 20
6.373289999999999
 30
0.0
 70
    32
  0
VERTEX
  5
1374
  8
0
 62
     2
 10
6.4411599999999991
 20
6.375989999999998
 30
0.0
 70
    32
  0
VERTEX
  5
1375
  8
0
 62
     2
 10
6.4401400000000004
 20
6.3787099999999981
 30
0.0
 70
    32
  0
VERTEX
  5
1376
  8
0
 62
     2
 10
6.4391800000000003
 20
6.381459999999997
 30
0.0
 70
    32
  0
VERTEX
  5
1377
  8
0
 62
     2
 10
6.4382699999999993
 20
6.3842400000000001
 30
0.0
 70
    32
  0
VERTEX
  5
1378
  8
0
 62
     2
 10
6.4374299999999991
 20
6.3870399999999981
 30
0.0
 70
    32
  0
VERTEX
  5
1379
  8
0
 62
     2
 10
6.436639999999997
 20
6.3898699999999993
 30
0.0
 70
    32
  0
VERTEX
  5
137A
  8
0
 62
     2
 10
6.4359200000000003
 20
6.3927199999999971
 30
0.0
 70
    32
  0
VERTEX
  5
137B
  8
0
 62
     2
 10
6.435249999999999
 20
6.395579999999998
 30
0.0
 70
    32
  0
VERTEX
  5
137C
  8
0
 62
     2
 10
6.4346500000000004
 20
6.39846
 30
0.0
 70
    32
  0
VERTEX
  5
137D
  8
0
 62
     2
 10
6.4341200000000001
 20
6.4013599999999986
 30
0.0
 70
    32
  0
VERTEX
  5
137E
  8
0
 62
     2
 10
6.4336399999999987
 20
6.4042799999999991
 30
0.0
 70
    32
  0
VERTEX
  5
137F
  8
0
 62
     2
 10
6.43323
 20
6.4071999999999987
 30
0.0
 70
    32
  0
VERTEX
  5
1380
  8
0
 62
     2
 10
6.432879999999999
 20
6.4101400000000002
 30
0.0
 70
    32
  0
VERTEX
  5
1381
  8
0
 62
     2
 10
6.4325900000000003
 20
6.4130900000000004
 30
0.0
 70
    32
  0
VERTEX
  5
1382
  8
0
 62
     2
 10
6.432369999999997
 20
6.4160399999999971
 30
0.0
 70
    32
  0
VERTEX
  5
1383
  8
0
 62
     2
 10
6.4322099999999987
 20
6.4189999999999987
 30
0.0
 70
    32
  0
VERTEX
  5
1384
  8
0
 62
     2
 10
6.4321099999999971
 20
6.4219599999999986
 30
0.0
 70
    32
  0
VERTEX
  5
1385
  8
0
 62
     2
 10
6.43208
 20
6.4249199999999993
 30
0.0
 70
    32
  0
SEQEND
  5
1386
  8
0
 62
     2
  0
LINE
  5
3E5
  8
DISPLAY
 62
     2
 10
6.4320819653992771
 20
6.4249241050082171
 30
0.0
 11
6.4320819653992771
 21
6.4662108797356783
 31
0.0
  0
LINE
  5
3E6
  8
DISPLAY
 62
     2
 10
6.6438158543682864
 20
6.4249241050082162
 30
0.0
 11
6.6438158543682864
 21
6.4662108797356721
 31
0.0
  0
POLYLINE
  5
3E7
  8
0
 62
     2
 66
     1
 10
0.0
 20
0.0
 30
0.0
 70
     8
  0
VERTEX
  5
1387
  8
0
 62
     2
 10
7.0672800000000002
 20
6.4249199999999993
 30
0.0
 70
    32
  0
VERTEX
  5
1388
  8
0
 62
     2
 10
7.0672499999999987
 20
6.4219599999999986
 30
0.0
 70
    32
  0
VERTEX
  5
1389
  8
0
 62
     2
 10
7.0671600000000003
 20
6.4189999999999987
 30
0.0
 70
    32
  0
VERTEX
  5
138A
  8
0
 62
     2
 10
7.0670000000000002
 20
6.4160399999999971
 30
0.0
 70
    32
  0
VERTEX
  5
138B
  8
0
 62
     2
 10
7.0667699999999991
 20
6.4130900000000004
 30
0.0
 70
    32
  0
VERTEX
  5
138C
  8
0
 62
     2
 10
7.066489999999999
 20
6.4101400000000002
 30
0.0
 70
    32
  0
VERTEX
  5
138D
  8
0
 62
     2
 10
7.0661399999999981
 20
6.4071999999999987
 30
0.0
 70
    32
  0
VERTEX
  5
138E
  8
0
 62
     2
 10
7.0657300000000003
 20
6.4042799999999991
 30
0.0
 70
    32
  0
VERTEX
  5
138F
  8
0
 62
     2
 10
7.065249999999998
 20
6.4013599999999986
 30
0.0
 70
    32
  0
VERTEX
  5
1390
  8
0
 62
     2
 10
7.064709999999998
 20
6.39846
 30
0.0
 70
    32
  0
VERTEX
  5
1391
  8
0
 62
     2
 10
7.0641100000000003
 20
6.395579999999998
 30
0.0
 70
    32
  0
VERTEX
  5
1392
  8
0
 62
     2
 10
7.0634499999999987
 20
6.3927199999999971
 30
0.0
 70
    32
  0
VERTEX
  5
1393
  8
0
 62
     2
 10
7.0627300000000002
 20
6.3898699999999993
 30
0.0
 70
    32
  0
VERTEX
  5
1394
  8
0
 62
     2
 10
7.0619399999999981
 20
6.3870399999999981
 30
0.0
 70
    32
  0
VERTEX
  5
1395
  8
0
 62
     2
 10
7.061099999999997
 20
6.3842400000000001
 30
0.0
 70
    32
  0
VERTEX
  5
1396
  8
0
 62
     2
 10
7.0601899999999986
 20
6.381459999999997
 30
0.0
 70
    32
  0
VERTEX
  5
1397
  8
0
 62
     2
 10
7.0592199999999981
 20
6.3787099999999981
 30
0.0
 70
    32
  0
VERTEX
  5
1398
  8
0
 62
     2
 10
7.0582000000000003
 20
6.375989999999998
 30
0.0
 70
    32
  0
VERTEX
  5
1399
  8
0
 62
     2
 10
7.0571200000000003
 20
6.373289999999999
 30
0.0
 70
    32
  0
VERTEX
  5
139A
  8
0
 62
     2
 10
7.055979999999999
 20
6.3706300000000002
 30
0.0
 70
    32
  0
VERTEX
  5
139B
  8
0
 62
     2
 10
7.0547800000000001
 20
6.3680000000000003
 30
0.0
 70
    32
  0
VERTEX
  5
139C
  8
0
 62
     2
 10
7.0535300000000003
 20
6.3654000000000002
 30
0.0
 70
    32
  0
VERTEX
  5
139D
  8
0
 62
     2
 10
7.0522199999999993
 20
6.3628400000000003
 30
0.0
 70
    32
  0
VERTEX
  5
139E
  8
0
 62
     2
 10
7.050860000000001
 20
6.3603199999999971
 30
0.0
 70
    32
  0
VERTEX
  5
139F
  8
0
 62
     2
 10
7.049439999999997
 20
6.3578299999999981
 30
0.0
 70
    32
  0
VERTEX
  5
13A0
  8
0
 62
     2
 10
7.0479700000000003
 20
6.3553899999999981
 30
0.0
 70
    32
  0
VERTEX
  5
13A1
  8
0
 62
     2
 10
7.0464500000000001
 20
6.3529900000000001
 30
0.0
 70
    32
  0
VERTEX
  5
13A2
  8
0
 62
     2
 10
7.04488
 20
6.3506299999999971
 30
0.0
 70
    32
  0
VERTEX
  5
13A3
  8
0
 62
     2
 10
7.0432499999999987
 20
6.348309999999997
 30
0.0
 70
    32
  0
VERTEX
  5
13A4
  8
0
 62
     2
 10
7.0415799999999971
 20
6.3460499999999991
 30
0.0
 70
    32
  0
VERTEX
  5
13A5
  8
0
 62
     2
 10
7.03986
 20
6.34382
 30
0.0
 70
    32
  0
VERTEX
  5
13A6
  8
0
 62
     2
 10
7.0380899999999986
 20
6.3416499999999987
 30
0.0
 70
    32
  0
VERTEX
  5
13A7
  8
0
 62
     2
 10
7.036279999999997
 20
6.3395299999999981
 30
0.0
 70
    32
  0
VERTEX
  5
13A8
  8
0
 62
     2
 10
7.034419999999999
 20
6.3374600000000001
 30
0.0
 70
    32
  0
VERTEX
  5
13A9
  8
0
 62
     2
 10
7.0325100000000003
 20
6.3354400000000002
 30
0.0
 70
    32
  0
VERTEX
  5
13AA
  8
0
 62
     2
 10
7.0305699999999991
 20
6.333479999999998
 30
0.0
 70
    32
  0
VERTEX
  5
13AB
  8
0
 62
     2
 10
7.0285799999999981
 20
6.3315700000000001
 30
0.0
 70
    32
  0
VERTEX
  5
13AC
  8
0
 62
     2
 10
7.0265500000000003
 20
6.32972
 30
0.0
 70
    32
  0
VERTEX
  5
13AD
  8
0
 62
     2
 10
7.0244799999999987
 20
6.3279300000000003
 30
0.0
 70
    32
  0
VERTEX
  5
13AE
  8
0
 62
     2
 10
7.0223800000000001
 20
6.3261900000000004
 30
0.0
 70
    32
  0
VERTEX
  5
13AF
  8
0
 62
     2
 10
7.0202299999999971
 20
6.3245100000000001
 30
0.0
 70
    32
  0
VERTEX
  5
13B0
  8
0
 62
     2
 10
7.0180600000000002
 20
6.3228999999999971
 30
0.0
 70
    32
  0
VERTEX
  5
13B1
  8
0
 62
     2
 10
7.0158399999999981
 20
6.3213400000000002
 30
0.0
 70
    32
  0
VERTEX
  5
13B2
  8
0
 62
     2
 10
7.0136000000000003
 20
6.3198499999999971
 30
0.0
 70
    32
  0
VERTEX
  5
13B3
  8
0
 62
     2
 10
7.0113199999999987
 20
6.318419999999997
 30
0.0
 70
    32
  0
VERTEX
  5
13B4
  8
0
 62
     2
 10
7.0090199999999987
 20
6.317059999999997
 30
0.0
 70
    32
  0
VERTEX
  5
13B5
  8
0
 62
     2
 10
7.0066800000000002
 20
6.31576
 30
0.0
 70
    32
  0
VERTEX
  5
13B6
  8
0
 62
     2
 10
7.0043199999999981
 20
6.314519999999999
 30
0.0
 70
    32
  0
VERTEX
  5
13B7
  8
0
 62
     2
 10
7.0019299999999971
 20
6.313349999999998
 30
0.0
 70
    32
  0
VERTEX
  5
13B8
  8
0
 62
     2
 10
6.9995199999999986
 20
6.312249999999997
 30
0.0
 70
    32
  0
VERTEX
  5
13B9
  8
0
 62
     2
 10
6.9970800000000004
 20
6.3112199999999987
 30
0.0
 70
    32
  0
VERTEX
  5
13BA
  8
0
 62
     2
 10
6.994629999999999
 20
6.3102599999999986
 30
0.0
 70
    32
  0
VERTEX
  5
13BB
  8
0
 62
     2
 10
6.9921499999999988
 20
6.3093599999999981
 30
0.0
 70
    32
  0
VERTEX
  5
13BC
  8
0
 62
     2
 10
6.9896500000000001
 20
6.308539999999998
 30
0.0
 70
    32
  0
VERTEX
  5
13BD
  8
0
 62
     2
 10
6.9871399999999992
 20
6.3077800000000002
 30
0.0
 70
    32
  0
VERTEX
  5
13BE
  8
0
 62
     2
 10
6.98461
 20
6.3071000000000002
 30
0.0
 70
    32
  0
VERTEX
  5
13BF
  8
0
 62
     2
 10
6.9820699999999993
 20
6.3064799999999988
 30
0.0
 70
    32
  0
VERTEX
  5
13C0
  8
0
 62
     2
 10
6.9795199999999991
 20
6.305939999999997
 30
0.0
 70
    32
  0
VERTEX
  5
13C1
  8
0
 62
     2
 10
6.9769500000000004
 20
6.305469999999997
 30
0.0
 70
    32
  0
VERTEX
  5
13C2
  8
0
 62
     2
 10
6.97438
 20
6.3050699999999971
 30
0.0
 70
    32
  0
VERTEX
  5
13C3
  8
0
 62
     2
 10
6.9717899999999986
 20
6.304739999999998
 30
0.0
 70
    32
  0
VERTEX
  5
13C4
  8
0
 62
     2
 10
6.9691999999999981
 20
6.3044900000000004
 30
0.0
 70
    32
  0
VERTEX
  5
13C5
  8
0
 62
     2
 10
6.9666100000000002
 20
6.3043100000000001
 30
0.0
 70
    32
  0
VERTEX
  5
13C6
  8
0
 62
     2
 10
6.96401
 20
6.304199999999998
 30
0.0
 70
    32
  0
VERTEX
  5
13C7
  8
0
 62
     2
 10
6.9614199999999986
 20
6.3041599999999987
 30
0.0
 70
    32
  0
VERTEX
  5
13C8
  8
0
 62
     2
 10
6.9588199999999993
 20
6.304199999999998
 30
0.0
 70
    32
  0
VERTEX
  5
13C9
  8
0
 62
     2
 10
6.9562200000000001
 20
6.3043100000000001
 30
0.0
 70
    32
  0
VERTEX
  5
13CA
  8
0
 62
     2
 10
6.9536300000000004
 20
6.3044900000000004
 30
0.0
 70
    32
  0
VERTEX
  5
13CB
  8
0
 62
     2
 10
6.9510399999999981
 20
6.304739999999998
 30
0.0
 70
    32
  0
VERTEX
  5
13CC
  8
0
 62
     2
 10
6.9484599999999981
 20
6.3050699999999971
 30
0.0
 70
    32
  0
VERTEX
  5
13CD
  8
0
 62
     2
 10
6.9458799999999981
 20
6.305469999999997
 30
0.0
 70
    32
  0
VERTEX
  5
13CE
  8
0
 62
     2
 10
6.943319999999999
 20
6.305939999999997
 30
0.0
 70
    32
  0
VERTEX
  5
13CF
  8
0
 62
     2
 10
6.94076
 20
6.3064799999999988
 30
0.0
 70
    32
  0
VERTEX
  5
13D0
  8
0
 62
     2
 10
6.9382200000000003
 20
6.3071000000000002
 30
0.0
 70
    32
  0
VERTEX
  5
13D1
  8
0
 62
     2
 10
6.9356899999999992
 20
6.3077800000000002
 30
0.0
 70
    32
  0
VERTEX
  5
13D2
  8
0
 62
     2
 10
6.9331800000000001
 20
6.308539999999998
 30
0.0
 70
    32
  0
VERTEX
  5
13D3
  8
0
 62
     2
 10
6.9306900000000002
 20
6.3093599999999981
 30
0.0
 70
    32
  0
VERTEX
  5
13D4
  8
0
 62
     2
 10
6.92821
 20
6.3102599999999986
 30
0.0
 70
    32
  0
VERTEX
  5
13D5
  8
0
 62
     2
 10
6.9257499999999981
 20
6.3112199999999987
 30
0.0
 70
    32
  0
VERTEX
  5
13D6
  8
0
 62
     2
 10
6.9233199999999986
 20
6.312249999999997
 30
0.0
 70
    32
  0
VERTEX
  5
13D7
  8
0
 62
     2
 10
6.9208999999999987
 20
6.313349999999998
 30
0.0
 70
    32
  0
VERTEX
  5
13D8
  8
0
 62
     2
 10
6.91852
 20
6.314519999999999
 30
0.0
 70
    32
  0
VERTEX
  5
13D9
  8
0
 62
     2
 10
6.91615
 20
6.31576
 30
0.0
 70
    32
  0
VERTEX
  5
13DA
  8
0
 62
     2
 10
6.9138200000000003
 20
6.317059999999997
 30
0.0
 70
    32
  0
VERTEX
  5
13DB
  8
0
 62
     2
 10
6.911509999999998
 20
6.318419999999997
 30
0.0
 70
    32
  0
VERTEX
  5
13DC
  8
0
 62
     2
 10
6.9092399999999987
 20
6.3198499999999971
 30
0.0
 70
    32
  0
VERTEX
  5
13DD
  8
0
 62
     2
 10
6.9069899999999986
 20
6.3213400000000002
 30
0.0
 70
    32
  0
VERTEX
  5
13DE
  8
0
 62
     2
 10
6.904779999999997
 20
6.3228999999999971
 30
0.0
 70
    32
  0
VERTEX
  5
13DF
  8
0
 62
     2
 10
6.9025999999999987
 20
6.3245100000000001
 30
0.0
 70
    32
  0
VERTEX
  5
13E0
  8
0
 62
     2
 10
6.900459999999998
 20
6.3261900000000004
 30
0.0
 70
    32
  0
VERTEX
  5
13E1
  8
0
 62
     2
 10
6.8983499999999971
 20
6.3279300000000003
 30
0.0
 70
    32
  0
VERTEX
  5
13E2
  8
0
 62
     2
 10
6.8962799999999991
 20
6.32972
 30
0.0
 70
    32
  0
VERTEX
  5
13E3
  8
0
 62
     2
 10
6.8942600000000001
 20
6.3315700000000001
 30
0.0
 70
    32
  0
VERTEX
  5
13E4
  8
0
 62
     2
 10
6.892269999999999
 20
6.333479999999998
 30
0.0
 70
    32
  0
VERTEX
  5
13E5
  8
0
 62
     2
 10
6.89032
 20
6.3354400000000002
 30
0.0
 70
    32
  0
VERTEX
  5
13E6
  8
0
 62
     2
 10
6.8884199999999991
 20
6.3374600000000001
 30
0.0
 70
    32
  0
VERTEX
  5
13E7
  8
0
 62
     2
 10
6.8865600000000002
 20
6.3395299999999981
 30
0.0
 70
    32
  0
VERTEX
  5
13E8
  8
0
 62
     2
 10
6.8847399999999981
 20
6.3416499999999987
 30
0.0
 70
    32
  0
VERTEX
  5
13E9
  8
0
 62
     2
 10
6.8829700000000003
 20
6.34382
 30
0.0
 70
    32
  0
VERTEX
  5
13EA
  8
0
 62
     2
 10
6.881249999999997
 20
6.3460499999999991
 30
0.0
 70
    32
  0
VERTEX
  5
13EB
  8
0
 62
     2
 10
6.879579999999998
 20
6.348309999999997
 30
0.0
 70
    32
  0
VERTEX
  5
13EC
  8
0
 62
     2
 10
6.8779599999999981
 20
6.3506299999999971
 30
0.0
 70
    32
  0
VERTEX
  5
13ED
  8
0
 62
     2
 10
6.8763800000000002
 20
6.3529900000000001
 30
0.0
 70
    32
  0
VERTEX
  5
13EE
  8
0
 62
     2
 10
6.87486
 20
6.3553899999999981
 30
0.0
 70
    32
  0
VERTEX
  5
13EF
  8
0
 62
     2
 10
6.873389999999997
 20
6.3578299999999981
 30
0.0
 70
    32
  0
VERTEX
  5
13F0
  8
0
 62
     2
 10
6.8719700000000001
 20
6.3603199999999971
 30
0.0
 70
    32
  0
VERTEX
  5
13F1
  8
0
 62
     2
 10
6.8706100000000001
 20
6.3628400000000003
 30
0.0
 70
    32
  0
VERTEX
  5
13F2
  8
0
 62
     2
 10
6.8692999999999991
 20
6.3654000000000002
 30
0.0
 70
    32
  0
VERTEX
  5
13F3
  8
0
 62
     2
 10
6.8680500000000002
 20
6.3680000000000003
 30
0.0
 70
    32
  0
VERTEX
  5
13F4
  8
0
 62
     2
 10
6.8668500000000003
 20
6.3706300000000002
 30
0.0
 70
    32
  0
VERTEX
  5
13F5
  8
0
 62
     2
 10
6.86571
 20
6.373289999999999
 30
0.0
 70
    32
  0
VERTEX
  5
13F6
  8
0
 62
     2
 10
6.86463
 20
6.375989999999998
 30
0.0
 70
    32
  0
VERTEX
  5
13F7
  8
0
 62
     2
 10
6.8636100000000004
 20
6.3787099999999981
 30
0.0
 70
    32
  0
VERTEX
  5
13F8
  8
0
 62
     2
 10
6.8626399999999981
 20
6.381459999999997
 30
0.0
 70
    32
  0
VERTEX
  5
13F9
  8
0
 62
     2
 10
6.8617399999999993
 20
6.3842400000000001
 30
0.0
 70
    32
  0
VERTEX
  5
13FA
  8
0
 62
     2
 10
6.8608899999999986
 20
6.3870399999999981
 30
0.0
 70
    32
  0
VERTEX
  5
13FB
  8
0
 62
     2
 10
6.860109999999997
 20
6.3898699999999993
 30
0.0
 70
    32
  0
VERTEX
  5
13FC
  8
0
 62
     2
 10
6.859379999999998
 20
6.3927199999999971
 30
0.0
 70
    32
  0
VERTEX
  5
13FD
  8
0
 62
     2
 10
6.858719999999999
 20
6.395579999999998
 30
0.0
 70
    32
  0
VERTEX
  5
13FE
  8
0
 62
     2
 10
6.8581199999999987
 20
6.39846
 30
0.0
 70
    32
  0
VERTEX
  5
13FF
  8
0
 62
     2
 10
6.8575799999999987
 20
6.4013599999999986
 30
0.0
 70
    32
  0
VERTEX
  5
1400
  8
0
 62
     2
 10
6.8571099999999987
 20
6.4042799999999991
 30
0.0
 70
    32
  0
VERTEX
  5
1401
  8
0
 62
     2
 10
6.8567
 20
6.4071999999999987
 30
0.0
 70
    32
  0
VERTEX
  5
1402
  8
0
 62
     2
 10
6.8563499999999991
 20
6.4101400000000002
 30
0.0
 70
    32
  0
VERTEX
  5
1403
  8
0
 62
     2
 10
6.8560600000000003
 20
6.4130900000000004
 30
0.0
 70
    32
  0
VERTEX
  5
1404
  8
0
 62
     2
 10
6.855839999999997
 20
6.4160399999999971
 30
0.0
 70
    32
  0
VERTEX
  5
1405
  8
0
 62
     2
 10
6.8556800000000004
 20
6.4189999999999987
 30
0.0
 70
    32
  0
VERTEX
  5
1406
  8
0
 62
     2
 10
6.855579999999998
 20
6.4219599999999986
 30
0.0
 70
    32
  0
VERTEX
  5
1407
  8
0
 62
     2
 10
6.85555
 20
6.4249199999999993
 30
0.0
 70
    32
  0
SEQEND
  5
1408
  8
0
 62
     2
  0
LINE
  5
3E8
  8
DISPLAY
 62
     2
 10
6.8555497433372921
 20
6.4249241050082144
 30
0.0
 11
6.8555497433372921
 21
6.4662108797356721
 31
0.0
  0
POLYLINE
  5
3E9
  8
0
 62
     2
 66
     1
 10
0.0
 20
0.0
 30
0.0
 70
     8
  0
VERTEX
  5
1409
  8
0
 62
     2
 10
7.27902
 20
6.4249199999999993
 30
0.0
 70
    32
  0
VERTEX
  5
140A
  8
0
 62
     2
 10
7.2789899999999959
 20
6.4219599999999986
 30
0.0
 70
    32
  0
VERTEX
  5
140B
  8
0
 62
     2
 10
7.2788899999999988
 20
6.4189999999999987
 30
0.0
 70
    32
  0
VERTEX
  5
140C
  8
0
 62
     2
 10
7.2787300000000004
 20
6.4160399999999971
 30
0.0
 70
    32
  0
VERTEX
  5
140D
  8
0
 62
     2
 10
7.2785099999999989
 20
6.4130900000000004
 30
0.0
 70
    32
  0
VERTEX
  5
140E
  8
0
 62
     2
 10
7.2782200000000001
 20
6.4101400000000002
 30
0.0
 70
    32
  0
VERTEX
  5
140F
  8
0
 62
     2
 10
7.2778700000000001
 20
6.4071999999999987
 30
0.0
 70
    32
  0
VERTEX
  5
1410
  8
0
 62
     2
 10
7.277459999999996
 20
6.4042799999999991
 30
0.0
 70
    32
  0
VERTEX
  5
1411
  8
0
 62
     2
 10
7.27698
 20
6.4013599999999986
 30
0.0
 70
    32
  0
VERTEX
  5
1412
  8
0
 62
     2
 10
7.2764499999999988
 20
6.39846
 30
0.0
 70
    32
  0
VERTEX
  5
1413
  8
0
 62
     2
 10
7.2758399999999988
 20
6.395579999999998
 30
0.0
 70
    32
  0
VERTEX
  5
1414
  8
0
 62
     2
 10
7.2751799999999989
 20
6.3927199999999971
 30
0.0
 70
    32
  0
VERTEX
  5
1415
  8
0
 62
     2
 10
7.2744600000000004
 20
6.3898699999999993
 30
0.0
 70
    32
  0
VERTEX
  5
1416
  8
0
 62
     2
 10
7.2736700000000001
 20
6.3870399999999981
 30
0.0
 70
    32
  0
VERTEX
  5
1417
  8
0
 62
     2
 10
7.272829999999999
 20
6.3842400000000001
 30
0.0
 70
    32
  0
VERTEX
  5
1418
  8
0
 62
     2
 10
7.2719199999999988
 20
6.381459999999997
 30
0.0
 70
    32
  0
VERTEX
  5
1419
  8
0
 62
     2
 10
7.2709599999999979
 20
6.3787099999999981
 30
0.0
 70
    32
  0
VERTEX
  5
141A
  8
0
 62
     2
 10
7.2699399999999983
 20
6.375989999999998
 30
0.0
 70
    32
  0
VERTEX
  5
141B
  8
0
 62
     2
 10
7.268849999999996
 20
6.373289999999999
 30
0.0
 70
    32
  0
VERTEX
  5
141C
  8
0
 62
     2
 10
7.267710000000001
 20
6.3706300000000002
 30
0.0
 70
    32
  0
VERTEX
  5
141D
  8
0
 62
     2
 10
7.2665199999999981
 20
6.3680000000000003
 30
0.0
 70
    32
  0
VERTEX
  5
141E
  8
0
 62
     2
 10
7.2652599999999961
 20
6.3654000000000002
 30
0.0
 70
    32
  0
VERTEX
  5
141F
  8
0
 62
     2
 10
7.26396
 20
6.3628400000000003
 30
0.0
 70
    32
  0
VERTEX
  5
1420
  8
0
 62
     2
 10
7.2625899999999959
 20
6.3603199999999971
 30
0.0
 70
    32
  0
VERTEX
  5
1421
  8
0
 62
     2
 10
7.2611800000000004
 20
6.3578299999999981
 30
0.0
 70
    32
  0
VERTEX
  5
1422
  8
0
 62
     2
 10
7.2597100000000001
 20
6.3553899999999981
 30
0.0
 70
    32
  0
VERTEX
  5
1423
  8
0
 62
     2
 10
7.2581800000000003
 20
6.3529900000000001
 30
0.0
 70
    32
  0
VERTEX
  5
1424
  8
0
 62
     2
 10
7.2566100000000002
 20
6.3506299999999971
 30
0.0
 70
    32
  0
VERTEX
  5
1425
  8
0
 62
     2
 10
7.2549899999999958
 20
6.348309999999997
 30
0.0
 70
    32
  0
VERTEX
  5
1426
  8
0
 62
     2
 10
7.253309999999999
 20
6.3460499999999991
 30
0.0
 70
    32
  0
VERTEX
  5
1427
  8
0
 62
     2
 10
7.2515899999999984
 20
6.34382
 30
0.0
 70
    32
  0
VERTEX
  5
1428
  8
0
 62
     2
 10
7.2498199999999988
 20
6.3416499999999987
 30
0.0
 70
    32
  0
VERTEX
  5
1429
  8
0
 62
     2
 10
7.2480099999999981
 20
6.3395299999999981
 30
0.0
 70
    32
  0
VERTEX
  5
142A
  8
0
 62
     2
 10
7.2461500000000001
 20
6.3374600000000001
 30
0.0
 70
    32
  0
VERTEX
  5
142B
  8
0
 62
     2
 10
7.2442500000000001
 20
6.3354400000000002
 30
0.0
 70
    32
  0
VERTEX
  5
142C
  8
0
 62
     2
 10
7.2423000000000002
 20
6.333479999999998
 30
0.0
 70
    32
  0
VERTEX
  5
142D
  8
0
 62
     2
 10
7.24031
 20
6.3315700000000001
 30
0.0
 70
    32
  0
VERTEX
  5
142E
  8
0
 62
     2
 10
7.2382799999999961
 20
6.32972
 30
0.0
 70
    32
  0
VERTEX
  5
142F
  8
0
 62
     2
 10
7.2362199999999959
 20
6.3279300000000003
 30
0.0
 70
    32
  0
VERTEX
  5
1430
  8
0
 62
     2
 10
7.2341100000000003
 20
6.3261900000000004
 30
0.0
 70
    32
  0
VERTEX
  5
1431
  8
0
 62
     2
 10
7.231969999999996
 20
6.3245100000000001
 30
0.0
 70
    32
  0
VERTEX
  5
1432
  8
0
 62
     2
 10
7.2297899999999959
 20
6.3228999999999971
 30
0.0
 70
    32
  0
VERTEX
  5
1433
  8
0
 62
     2
 10
7.2275799999999979
 20
6.3213400000000002
 30
0.0
 70
    32
  0
VERTEX
  5
1434
  8
0
 62
     2
 10
7.225329999999996
 20
6.3198499999999971
 30
0.0
 70
    32
  0
VERTEX
  5
1435
  8
0
 62
     2
 10
7.2230600000000003
 20
6.318419999999997
 30
0.0
 70
    32
  0
VERTEX
  5
1436
  8
0
 62
     2
 10
7.2207499999999989
 20
6.317059999999997
 30
0.0
 70
    32
  0
VERTEX
  5
1437
  8
0
 62
     2
 10
7.2184100000000004
 20
6.31576
 30
0.0
 70
    32
  0
VERTEX
  5
1438
  8
0
 62
     2
 10
7.2160500000000001
 20
6.314519999999999
 30
0.0
 70
    32
  0
VERTEX
  5
1439
  8
0
 62
     2
 10
7.21366
 20
6.313349999999998
 30
0.0
 70
    32
  0
VERTEX
  5
143A
  8
0
 62
     2
 10
7.2112499999999988
 20
6.312249999999997
 30
0.0
 70
    32
  0
VERTEX
  5
143B
  8
0
 62
     2
 10
7.2088199999999958
 20
6.3112199999999987
 30
0.0
 70
    32
  0
VERTEX
  5
143C
  8
0
 62
     2
 10
7.2063600000000001
 20
6.3102599999999986
 30
0.0
 70
    32
  0
VERTEX
  5
143D
  8
0
 62
     2
 10
7.2038799999999981
 20
6.3093599999999981
 30
0.0
 70
    32
  0
VERTEX
  5
143E
  8
0
 62
     2
 10
7.2013899999999991
 20
6.308539999999998
 30
0.0
 70
    32
  0
VERTEX
  5
143F
  8
0
 62
     2
 10
7.1988700000000003
 20
6.3077800000000002
 30
0.0
 70
    32
  0
VERTEX
  5
1440
  8
0
 62
     2
 10
7.196349999999998
 20
6.3071000000000002
 30
0.0
 70
    32
  0
VERTEX
  5
1441
  8
0
 62
     2
 10
7.1938000000000004
 20
6.3064799999999988
 30
0.0
 70
    32
  0
VERTEX
  5
1442
  8
0
 62
     2
 10
7.1912500000000001
 20
6.305939999999997
 30
0.0
 70
    32
  0
VERTEX
  5
1443
  8
0
 62
     2
 10
7.1886799999999971
 20
6.305469999999997
 30
0.0
 70
    32
  0
VERTEX
  5
1444
  8
0
 62
     2
 10
7.1861100000000002
 20
6.3050699999999971
 30
0.0
 70
    32
  0
VERTEX
  5
1445
  8
0
 62
     2
 10
7.1835300000000002
 20
6.304739999999998
 30
0.0
 70
    32
  0
VERTEX
  5
1446
  8
0
 62
     2
 10
7.180939999999997
 20
6.3044900000000004
 30
0.0
 70
    32
  0
VERTEX
  5
1447
  8
0
 62
     2
 10
7.17835
 20
6.3043100000000001
 30
0.0
 70
    32
  0
VERTEX
  5
1448
  8
0
 62
     2
 10
7.1757499999999981
 20
6.304199999999998
 30
0.0
 70
    32
  0
VERTEX
  5
1449
  8
0
 62
     2
 10
7.173149999999997
 20
6.3041599999999987
 30
0.0
 70
    32
  0
VERTEX
  5
144A
  8
0
 62
     2
 10
7.1705500000000004
 20
6.304199999999998
 30
0.0
 70
    32
  0
VERTEX
  5
144B
  8
0
 62
     2
 10
7.1679599999999981
 20
6.3043100000000001
 30
0.0
 70
    32
  0
VERTEX
  5
144C
  8
0
 62
     2
 10
7.1653599999999971
 20
6.3044900000000004
 30
0.0
 70
    32
  0
VERTEX
  5
144D
  8
0
 62
     2
 10
7.1627700000000001
 20
6.304739999999998
 30
0.0
 70
    32
  0
VERTEX
  5
144E
  8
0
 62
     2
 10
7.1601899999999992
 20
6.3050699999999971
 30
0.0
 70
    32
  0
VERTEX
  5
144F
  8
0
 62
     2
 10
7.157619999999997
 20
6.305469999999997
 30
0.0
 70
    32
  0
VERTEX
  5
1450
  8
0
 62
     2
 10
7.1550500000000001
 20
6.305939999999997
 30
0.0
 70
    32
  0
VERTEX
  5
1451
  8
0
 62
     2
 10
7.1524999999999981
 20
6.3064799999999988
 30
0.0
 70
    32
  0
VERTEX
  5
1452
  8
0
 62
     2
 10
7.1499499999999987
 20
6.3071000000000002
 30
0.0
 70
    32
  0
VERTEX
  5
1453
  8
0
 62
     2
 10
7.1474299999999991
 20
6.3077800000000002
 30
0.0
 70
    32
  0
VERTEX
  5
1454
  8
0
 62
     2
 10
7.1449100000000003
 20
6.308539999999998
 30
0.0
 70
    32
  0
VERTEX
  5
1455
  8
0
 62
     2
 10
7.1424199999999987
 20
6.3093599999999981
 30
0.0
 70
    32
  0
VERTEX
  5
1456
  8
0
 62
     2
 10
7.1399399999999993
 20
6.3102599999999986
 30
0.0
 70
    32
  0
VERTEX
  5
1457
  8
0
 62
     2
 10
7.137489999999997
 20
6.3112199999999987
 30
0.0
 70
    32
  0
VERTEX
  5
1458
  8
0
 62
     2
 10
7.135049999999997
 20
6.312249999999997
 30
0.0
 70
    32
  0
VERTEX
  5
1459
  8
0
 62
     2
 10
7.1326400000000003
 20
6.313349999999998
 30
0.0
 70
    32
  0
VERTEX
  5
145A
  8
0
 62
     2
 10
7.1302500000000002
 20
6.314519999999999
 30
0.0
 70
    32
  0
VERTEX
  5
145B
  8
0
 62
     2
 10
7.1278899999999981
 20
6.31576
 30
0.0
 70
    32
  0
VERTEX
  5
145C
  8
0
 62
     2
 10
7.1255499999999987
 20
6.317059999999997
 30
0.0
 70
    32
  0
VERTEX
  5
145D
  8
0
 62
     2
 10
7.1232499999999987
 20
6.318419999999997
 30
0.0
 70
    32
  0
VERTEX
  5
145E
  8
0
 62
     2
 10
7.120969999999998
 20
6.3198499999999971
 30
0.0
 70
    32
  0
VERTEX
  5
145F
  8
0
 62
     2
 10
7.1187199999999971
 20
6.3213400000000002
 30
0.0
 70
    32
  0
VERTEX
  5
1460
  8
0
 62
     2
 10
7.116509999999999
 20
6.3228999999999971
 30
0.0
 70
    32
  0
VERTEX
  5
1461
  8
0
 62
     2
 10
7.114329999999998
 20
6.3245100000000001
 30
0.0
 70
    32
  0
VERTEX
  5
1462
  8
0
 62
     2
 10
7.1121899999999991
 20
6.3261900000000004
 30
0.0
 70
    32
  0
VERTEX
  5
1463
  8
0
 62
     2
 10
7.1100899999999987
 20
6.3279300000000003
 30
0.0
 70
    32
  0
VERTEX
  5
1464
  8
0
 62
     2
 10
7.108019999999998
 20
6.32972
 30
0.0
 70
    32
  0
VERTEX
  5
1465
  8
0
 62
     2
 10
7.1059900000000003
 20
6.3315700000000001
 30
0.0
 70
    32
  0
VERTEX
  5
1466
  8
0
 62
     2
 10
7.1040000000000001
 20
6.333479999999998
 30
0.0
 70
    32
  0
VERTEX
  5
1467
  8
0
 62
     2
 10
7.1020500000000002
 20
6.3354400000000002
 30
0.0
 70
    32
  0
VERTEX
  5
1468
  8
0
 62
     2
 10
7.1001500000000002
 20
6.3374600000000001
 30
0.0
 70
    32
  0
VERTEX
  5
1469
  8
0
 62
     2
 10
7.0982899999999987
 20
6.3395299999999981
 30
0.0
 70
    32
  0
VERTEX
  5
146A
  8
0
 62
     2
 10
7.096479999999997
 20
6.3416499999999987
 30
0.0
 70
    32
  0
VERTEX
  5
146B
  8
0
 62
     2
 10
7.0947100000000001
 20
6.34382
 30
0.0
 70
    32
  0
VERTEX
  5
146C
  8
0
 62
     2
 10
7.0929899999999986
 20
6.3460499999999991
 30
0.0
 70
    32
  0
VERTEX
  5
146D
  8
0
 62
     2
 10
7.09131
 20
6.348309999999997
 30
0.0
 70
    32
  0
VERTEX
  5
146E
  8
0
 62
     2
 10
7.0896899999999992
 20
6.3506299999999971
 30
0.0
 70
    32
  0
VERTEX
  5
146F
  8
0
 62
     2
 10
7.0881199999999991
 20
6.3529900000000001
 30
0.0
 70
    32
  0
VERTEX
  5
1470
  8
0
 62
     2
 10
7.086599999999998
 20
6.3553899999999981
 30
0.0
 70
    32
  0
VERTEX
  5
1471
  8
0
 62
     2
 10
7.0851300000000004
 20
6.3578299999999981
 30
0.0
 70
    32
  0
VERTEX
  5
1472
  8
0
 62
     2
 10
7.08371
 20
6.3603199999999971
 30
0.0
 70
    32
  0
VERTEX
  5
1473
  8
0
 62
     2
 10
7.082349999999999
 20
6.3628400000000003
 30
0.0
 70
    32
  0
VERTEX
  5
1474
  8
0
 62
     2
 10
7.081039999999998
 20
6.3654000000000002
 30
0.0
 70
    32
  0
VERTEX
  5
1475
  8
0
 62
     2
 10
7.0797800000000004
 20
6.3680000000000003
 30
0.0
 70
    32
  0
VERTEX
  5
1476
  8
0
 62
     2
 10
7.0785899999999993
 20
6.3706300000000002
 30
0.0
 70
    32
  0
VERTEX
  5
1477
  8
0
 62
     2
 10
7.077449999999998
 20
6.373289999999999
 30
0.0
 70
    32
  0
VERTEX
  5
1478
  8
0
 62
     2
 10
7.0763699999999981
 20
6.375989999999998
 30
0.0
 70
    32
  0
VERTEX
  5
1479
  8
0
 62
     2
 10
7.0753399999999971
 20
6.3787099999999981
 30
0.0
 70
    32
  0
VERTEX
  5
147A
  8
0
 62
     2
 10
7.074379999999997
 20
6.381459999999997
 30
0.0
 70
    32
  0
VERTEX
  5
147B
  8
0
 62
     2
 10
7.0734699999999986
 20
6.3842400000000001
 30
0.0
 70
    32
  0
VERTEX
  5
147C
  8
0
 62
     2
 10
7.0726300000000002
 20
6.3870399999999981
 30
0.0
 70
    32
  0
VERTEX
  5
147D
  8
0
 62
     2
 10
7.071839999999999
 20
6.3898699999999993
 30
0.0
 70
    32
  0
VERTEX
  5
147E
  8
0
 62
     2
 10
7.0711199999999987
 20
6.3927199999999971
 30
0.0
 70
    32
  0
VERTEX
  5
147F
  8
0
 62
     2
 10
7.0704599999999971
 20
6.395579999999998
 30
0.0
 70
    32
  0
VERTEX
  5
1480
  8
0
 62
     2
 10
7.0698600000000003
 20
6.39846
 30
0.0
 70
    32
  0
VERTEX
  5
1481
  8
0
 62
     2
 10
7.0693200000000003
 20
6.4013599999999986
 30
0.0
 70
    32
  0
VERTEX
  5
1482
  8
0
 62
     2
 10
7.068839999999998
 20
6.4042799999999991
 30
0.0
 70
    32
  0
VERTEX
  5
1483
  8
0
 62
     2
 10
7.0684300000000002
 20
6.4071999999999987
 30
0.0
 70
    32
  0
VERTEX
  5
1484
  8
0
 62
     2
 10
7.0680800000000001
 20
6.4101400000000002
 30
0.0
 70
    32
  0
VERTEX
  5
1485
  8
0
 62
     2
 10
7.0677899999999987
 20
6.4130900000000004
 30
0.0
 70
    32
  0
VERTEX
  5
1486
  8
0
 62
     2
 10
7.067569999999999
 20
6.4160399999999971
 30
0.0
 70
    32
  0
VERTEX
  5
1487
  8
0
 62
     2
 10
7.0674099999999971
 20
6.4189999999999987
 30
0.0
 70
    32
  0
VERTEX
  5
1488
  8
0
 62
     2
 10
7.0673199999999987
 20
6.4219599999999986
 30
0.0
 70
    32
  0
VERTEX
  5
1489
  8
0
 62
     2
 10
7.0672800000000002
 20
6.4249199999999993
 30
0.0
 70
    32
  0
SEQEND
  5
148A
  8
0
 62
     2
  0
LINE
  5
3EA
  8
DISPLAY
 62
     2
 10
7.0672836323062951
 20
6.4249241050082144
 30
0.0
 11
7.0672836323062951
 21
6.4662108797356721
 31
0.0
  0
LINE
  5
3EB
  8
DISPLAY
 62
     2
 10
7.2790175212752999
 20
6.4249241050082091
 30
0.0
 11
7.2790175212752999
 21
6.4662108797356712
 31
0.0
  0
INSERT
  5
45D
  8
0
  2
*U9
 10
0.0
 20
0.0
 30
0.0
  0
POLYLINE
  5
48A
  8
0
 62
     4
 66
     1
 10
0.0
 20
0.0
 30
0.0
 70
     1
  0
VERTEX
  5
2FA0
  8
0
 62
     4
 10
1.365870380871967
 20
18.36785951468401
 30
0.0
  0
VERTEX
  5
2FA1
  8
0
 62
     4
 10
7.0137523783819491
 20
18.36785951468401
 30
0.0
  0
VERTEX
  5
2FA2
  8
0
 62
     4
 10
7.0137523783819491
 20
17.308246281014281
 30
0.0
  0
VERTEX
  5
2FA3
  8
0
 62
     4
 10
1.365870380871967
 20
17.308246281014281
 30
0.0
  0
SEQEND
  5
2FA4
  8
0
 62
     4
  0
LINE
  5
48B
  8
DISPLAY
 62
     4
 10
10.697117003343539
 20
10.291416389532611
 30
0.0
 11
10.697117003343539
 21
9.0669236854772315
 31
0.0
  0
LINE
  5
48C
  8
DISPLAY
 62
     4
 10
10.697117003343539
 20
11.72009994128604
 30
0.0
 11
10.697117003343539
 21
10.816416389532611
 31
0.0
  0
LINE
  5
48D
  8
DISPLAY
 62
     4
 10
10.697117003343539
 20
13.44242477673162
 30
0.0
 11
10.697117003343539
 21
13.09441844445452
 31
0.0
  0
LINE
  5
48E
  8
DISPLAY
 62
     4
 10
10.697117003343539
 20
12.67787695184097
 30
0.0
 11
10.697117003343539
 21
12.23259994128605
 31
0.0
  0
LINE
  5
48F
  8
DISPLAY
 62
     4
 10
6.8555497433372921
 20
9.0669236854772315
 30
0.0
 11
6.8555497433372921
 21
8.5927318249484657
 31
0.0
  0
LINE
  5
490
  8
SYMBOL
 62
     4
 10
12.64537867308275
 20
14.266539000769489
 30
0.0
 11
12.64537867308275
 21
14.3665390007695
 31
0.0
  0
LINE
  5
491
  8
SYMBOL
 62
     4
 10
12.19537967308275
 20
14.316539000769501
 30
0.0
 11
12.54537867308275
 21
14.316539000769501
 31
0.0
  0
LINE
  5
492
  8
SYMBOL
 62
     4
 10
12.54537867308275
 20
14.216539000769499
 30
0.0
 11
12.54537867308275
 21
14.4165390007695
 31
0.0
  0
LINE
  5
493
  8
SYMBOL
 62
     4
 10
12.59537967308275
 20
14.3915390007695
 30
0.0
 11
12.59537967308275
 21
14.2415390007695
 31
0.0
  0
LINE
  5
495
  8
SYMBOL
 62
     4
 10
12.49295518599563
 20
9.6816447948129998
 30
0.0
 11
12.49295518599563
 21
9.7816447948129994
 31
0.0
  0
LINE
  5
496
  8
SYMBOL
 62
     4
 10
12.04295618599563
 20
9.7316447948130005
 30
0.0
 11
12.39295518599563
 21
9.7316447948130005
 31
0.0
  0
LINE
  5
497
  8
SYMBOL
 62
     4
 10
12.39295518599563
 20
9.6316447948130008
 30
0.0
 11
12.39295518599563
 21
9.8316447948130001
 31
0.0
  0
LINE
  5
498
  8
SYMBOL
 62
     4
 10
12.44295618599563
 20
9.8066447948129998
 30
0.0
 11
12.44295618599563
 21
9.6566447948129994
 31
0.0
  0
LINE
  5
49A
  8
DISPLAY
 62
     4
 10
8.3382356419385211
 20
11.289446679265581
 30
0.0
 11
9.1578069254749952
 21
11.289446679265581
 31
0.0
  0
INSERT
  5
4A3
  8
0
 66
     1
  2
ARROW_HEAD_DISPLAY_REF
 10
12.12514438250251
 20
17.354469179067749
 30
0.0
 41
1.8634611981471281
 42
1.8634611981471281
 43
1.8634611981471281
  0
ATTRIB
  5
4A4
  8
0
 10
11.65927908296573
 20
16.888603879530962
 30
0.0
 40
0.1397595898610346
  1
NULL
  2
DISPLAY
 70
     9
  0
SEQEND
  5
4A5
  8
0
  0
TEXT
  5
152A
  8
DISPLAY
 62
     2
 10
-2.8717594059608782
 20
12.633145046668909
 30
0.0
 40
0.215
  1
Country Line
  7
ARIAL
 72
     1
 11
-1.6892594059608781
 21
12.633145046668909
 31
0.0
  0
TEXT
  5
152B
  8
DISPLAY
 62
     2
 10
-2.5101018343374131
 20
12.271145274045001
 30
0.0
 40
0.215
  1
Substation
  7
ARIAL
 72
     1
 11
-1.542601834337413
 21
12.271145274045001
 31
0.0
  0
TEXT
  5
152E
  8
DISPLAY
 62
     2
 10
-0.1678570715901599
 20
12.656218920558359
 30
0.0
 40
0.215
  1
Industrial Park
  7
ARIAL
 72
     1
 11
1.247559595076507
 21
12.656218920558359
 31
0.0
  0
TEXT
  5
152F
  8
DISPLAY
 62
     2
 10
0.268743717381805
 20
12.29421914793444
 30
0.0
 40
0.215
  1
Substation
  7
ARIAL
 72
     1
 11
1.2362437173818051
 21
12.29421914793444
 31
0.0
  0
TEXT
  5
1530
  8
DISPLAY
 62
     2
 10
3.3003306163762969
 20
12.64408924108611
 30
0.0
 40
0.215
  1
Bixby Hill
  7
ARIAL
 72
     1
 11
4.0886639497096304
 21
12.64408924108611
 31
0.0
  0
TEXT
  5
1531
  8
DISPLAY
 62
     2
 10
3.0330227491639219
 20
12.282089468462191
 30
0.0
 40
0.215
  1
Substation
  7
ARIAL
 72
     1
 11
4.000522749163923
 21
12.282089468462191
 31
0.0
  0
TEXT
  5
1532
  8
DISPLAY
 62
     2
 10
6.1525292733528048
 20
12.68563406536823
 30
0.0
 40
0.215
  1
Freedom
  7
ARIAL
 72
     1
 11
6.8691959400194724
 21
12.68563406536823
 31
0.0
  0
TEXT
  5
1533
  8
DISPLAY
 62
     2
 10
6.0343746763228259
 20
11.98526935140749
 30
0.0
 40
0.215
  1
Substation
  7
ARIAL
 72
     1
 11
7.001874676322827
 21
11.98526935140749
 31
0.0
  0
TEXT
  5
1534
  8
DISPLAY
 62
     2
 10
-6.0462446592855938
 20
18.32601705950584
 30
0.0
 40
0.215
  1
National Grid
  7
ARIAL
 72
     1
 11
-4.881661325952261
 21
18.32601705950584
 31
0.0
  0
TEXT
  5
1535
  8
DISPLAY
 62
     2
 10
-5.4268838534923951
 20
17.966803780742762
 30
0.0
 40
0.215
  1
Line 1
  7
ARIAL
 72
     1
 11
-4.9252171868257291
 21
17.966803780742762
 31
0.0
  0
TEXT
  5
1536
  8
DISPLAY
 62
     2
 10
-6.1491616667064859
 20
14.27668954644926
 30
0.0
 40
0.215
  1
Meter Station
  7
ARIAL
  0
TEXT
  5
1538
  8
DISPLAY
 62
     2
 10
-6.1621511905755071
 20
12.37669782658023
 30
0.0
 40
0.215
  1
KV C
  7
ARIAL
  0
TEXT
  5
1539
  8
DISPLAY
 62
     2
 10
-6.1621511905755071
 20
12.98038543056513
 30
0.0
 40
0.215
  1
KV A
  7
ARIAL
  0
TEXT
  5
153A
  8
DISPLAY
 62
     2
 10
-6.1621511905755071
 20
12.67670840892738
 30
0.0
 40
0.215
  1
KV B
  7
ARIAL
  0
TEXT
  5
153B
  8
DISPLAY
 62
     2
 10
-6.1633244511484921
 20
13.280396012912281
 30
0.0
 40
0.215
  1
PF
  7
ARIAL
  0
TEXT
  5
153C
  8
DISPLAY
 62
     2
 10
-6.1624445057187582
 20
13.580406595259429
 30
0.0
 40
0.215
  1
MVAR
  7
ARIAL
  0
TEXT
  5
153D
  8
DISPLAY
 62
     2
 10
-6.1624445057187582
 20
13.88041717760658
 30
0.0
 40
0.215
  1
MW
  7
ARIAL
  0
TEXT
  5
153E
  8
DISPLAY
 62
     2
 10
11.524470799244719
 20
7.4921795002123419
 30
0.0
 40
0.215
  1
KV C
  7
ARIAL
  0
TEXT
  5
153F
  8
DISPLAY
 62
     2
 10
11.524470799244719
 20
8.0958671041972377
 30
0.0
 40
0.215
  1
KV A
  7
ARIAL
  0
TEXT
  5
1540
  8
DISPLAY
 62
     2
 10
11.524470799244719
 20
7.7921900825594941
 30
0.0
 40
0.215
  1
KV B
  7
ARIAL
  0
TEXT
  5
1541
  8
DISPLAY
 62
     2
 10
11.523297538671731
 20
8.395877686544388
 30
0.0
 40
0.215
  1
PF
  7
ARIAL
  0
TEXT
  5
1542
  8
DISPLAY
 62
     2
 10
11.52417748410147
 20
8.6958882688915384
 30
0.0
 40
0.215
  1
MVAR
  7
ARIAL
  0
TEXT
  5
1543
  8
DISPLAY
 62
     2
 10
11.52417748410147
 20
8.9958988512386888
 30
0.0
 40
0.215
  1
MW
  7
ARIAL
  0
TEXT
  5
1574
  8
DISPLAY
 62
     3
 10
2.4814484470329541
 20
17.69524827960943
 30
0.0
 40
0.2949235279081819
  1
115KV SYSTEM
  7
ARIAL
 72
     1
 11
4.1526817718459839
 21
17.69524827960943
 31
0.0
  0
TEXT
  5
1575
  8
DISPLAY
 62
     6
 10
12.7763064596727
 20
17.249364489508991
 30
0.0
 40
0.215
  1
INDEX
  7
ARIAL
  0
TEXT
  5
1576
  8
DISPLAY
 62
     6
 10
12.77144434338749
 20
17.894769468883979
 30
0.0
 40
0.215
  1
Bliss Substation
  7
ARIAL
  0
TEXT
  5
1577
  8
DISPLAY
 62
     2
 10
4.1434533266982063
 20
6.462034448232945
 30
0.0
 40
0.215
  1
Bliss T1
  7
ARIAL
 72
     1
 11
4.8063699933648731
 21
6.462034448232945
 31
0.0
  0
TEXT
  5
1578
  8
DISPLAY
 62
     2
 10
3.5782819526485641
 20
6.1028211694698671
 30
0.0
 40
0.215
  1
121KV-34.5KV
  7
ARIAL
 72
     1
 11
4.7607819526485651
 21
6.1028211694698671
 31
0.0
  0
TEXT
  5
1579
  8
DISPLAY
 62
     2
 10
3.5325981190878548
 20
5.7408213968459503
 30
0.0
 40
0.215
  1
75/96/120MVA
  7
ARIAL
 72
     1
 11
4.7688481190878562
 21
5.7408213968459503
 31
0.0
  0
TEXT
  5
157A
  8
DISPLAY
 62
     2
 10
5.1366760984904554
 20
7.4917274428302782
 30
0.0
 40
0.215
  1
Bliss L1
  7
ARIAL
 72
     2
 11
6.462509431823789
 21
7.4917274428302782
 31
0.0
  0
TEXT
  5
157B
  8
DISPLAY
 62
     2
 10
4.9995512690225139
 20
7.1333941094969431
 30
0.0
 40
0.215
  1
Breaker
  7
ARIAL
 72
     2
 11
6.4328846023558484
 21
7.1333941094969431
 31
0.0
  0
TEXT
  5
157C
  8
DISPLAY
 62
     2
 10
4.504636916926553
 20
8.1950124360847347
 30
0.0
 40
0.215
  1
Bliss 89/L1
  7
ARIAL
 72
     2
 11
6.4754702502598871
 21
8.1950124360847347
 31
0.0
  0
TEXT
  5
157D
  8
DISPLAY
 62
     2
 10
14.24848231174543
 20
14.49554046814977
 30
0.0
 40
0.215
  1
Freedom
  7
ARIAL
 72
     1
 11
14.965148978412101
 21
14.49554046814977
 31
0.0
  0
TEXT
  5
157E
  8
DISPLAY
 62
     2
 10
13.90601093950559
 20
14.13720713481645
 30
0.0
 40
0.215
  1
Transmission
  7
ARIAL
 72
     1
 11
15.016844272838931
 21
14.13720713481645
 31
0.0
  0
TEXT
  5
157F
  8
DISPLAY
 62
     2
 10
14.090103424574529
 20
13.77520736219252
 30
0.0
 40
0.215
  1
Substation
  7
ARIAL
 72
     1
 11
15.05760342457453
 21
13.77520736219252
 31
0.0
  0
INSERT
  5
165F
  8
0
 66
     1
  2
ARROW_HEAD_DISPLAY_REF
 10
12.12514438250251
 20
17.354469179067749
 30
0.0
 41
1.8634611981471281
 42
1.8634611981471281
 43
1.8634611981471281
  0
ATTRIB
  5
1660
  8
0
 10
11.65927908296573
 20
16.888603879530962
 30
0.0
 40
0.1397595898610346
  1
C:\C3ILEX\EOSCADA\DISPLAYS\ONELINES\MAIN_INDEX.DXF
  2
DISPLAY
 70
     9
  0
SEQEND
  5
1661
  8
0
  0
INSERT
  5
166B
  8
0
 66
     1
  2
ARROW_HEAD_DISPLAY_REF
 10
-1.6573721548676641
 20
13.198542335413761
 30
0.0
 41
1.8634611981471281
 42
1.8634611981471281
 43
1.8634611981471281
 50
90.0
  0
ATTRIB
  5
166C
  8
0
 10
-1.1915068553308821
 20
12.732677035876989
 30
0.0
 40
0.1397595898610346
  1
C:\C3ILEX\EOSCADA\DISPLAYS\ONELINES\MAIN_INDEX.DXF
 50
90.0
  2
DISPLAY
 70
     9
  0
SEQEND
  5
166D
  8
0
  0
TEXT
  5
1671
  8
DISPLAY
 62
     2
 10
5.830029273352805
 20
12.347269093585041
 30
0.0
 40
0.215
  1
Distribution
  7
ARIAL
 72
     1
 11
6.8691959400194724
 21
12.347269093585041
 31
0.0
  0
INSERT
  5
1678
  8
0
 66
     1
  2
ARROW_HEAD_DISPLAY_REF
 10
13.23084957513441
 20
14.291055537894399
 30
0.0
 41
1.8634611981471281
 42
1.8634611981471281
 43
1.8634611981471281
  0
ATTRIB
  5
1679
  8
0
 10
12.76498427559763
 20
13.82519023835763
 30
0.0
 40
0.1397595898610346
  1
C:\C3ILEX\EOSCADA\DISPLAYS\ONELINES\115KV_SYSTEM_ARCADE.DXF
  2
DISPLAY
 70
     9
  0
SEQEND
  5
167A
  8
0
  0
INSERT
  5
167E
  8
0
 66
     1
  2
ARROW_HEAD_DISPLAY_REF
 10
1.121473396851552
 20
13.21794977001262
 30
0.0
 41
1.8634611981471281
 42
1.8634611981471281
 43
1.8634611981471281
 50
90.0
  0
ATTRIB
  5
167F
  8
0
 10
1.587338696388334
 20
12.75208447047585
 30
0.0
 40
0.1397595898610346
  1
C:\C3ILEX\EOSCADA\DISPLAYS\ONELINES\MAIN_INDEX.DXF
 50
90.0
  2
DISPLAY
 70
     9
  0
SEQEND
  5
1680
  8
0
  0
INSERT
  5
1681
  8
0
 66
     1
  2
ARROW_HEAD_DISPLAY_REF
 10
3.885752428633674
 20
13.205820090540371
 30
0.0
 41
1.8634611981471281
 42
1.8634611981471281
 43
1.8634611981471281
 50
90.0
  0
ATTRIB
  5
1682
  8
0
 10
4.3516177281704591
 20
12.7399547910036
 30
0.0
 40
0.1397595898610346
  1
C:\C3ILEX\EOSCADA\DISPLAYS\ONELINES\MAIN_INDEX.DXF
 50
90.0
  2
DISPLAY
 70
     9
  0
SEQEND
  5
1683
  8
0
  0
INSERT
  5
1684
  8
0
 66
     1
  2
ARROW_HEAD_DISPLAY_REF
 10
6.818121063931569
 20
13.200938187544731
 30
0.0
 41
1.8634611981471281
 42
1.8634611981471281
 43
1.8634611981471281
 50
90.0
  0
ATTRIB
  5
1685
  8
0
 10
7.283986363468351
 20
12.73507288800795
 30
0.0
 40
0.1397595898610346
  1
C:\C3ILEX\EOSCADA\DISPLAYS\ONELINES\FREEDOM DISTRIBUTION SUBSTATION.DXF
 50
90.0
  2
DISPLAY
 70
     9
  0
SEQEND
  5
1686
  8
0
  0
INSERT
  5
1687
  8
0
 66
     1
  2
ARROW_HEAD_DISPLAY_REF
 10
4.0587044022141292
 20
9.2965264046597955
 30
0.0
 41
1.8634611981471281
 42
1.8634611981471281
 43
1.8634611981471281
 50
90.0
  0
ATTRIB
  5
1688
  8
0
 10
4.5245697017509121
 20
8.8306611051230171
 30
0.0
 40
0.1397595898610346
  1
C:\C3ILEX\EOSCADA\DISPLAYS\ONELINES\BLISS SUBSTATION.DXF
 50
90.0
  2
DISPLAY
 70
     9
  0
SEQEND
  5
1689
  8
0
  0
INSERT
  5
168A
  8
0
 66
     1
  2
ARROW_HEAD_DISPLAY_REF
 10
-6.5458788753267747
 20
14.30023817559236
 30
0.0
 41
1.8634611981471281
 42
1.8634611981471281
 43
1.8634611981471281
 50
90.0
  0
ATTRIB
  5
168B
  8
0
 10
-6.0800135757899882
 20
13.83437287605558
 30
0.0
 40
0.1397595898610346
  1
D:\C3ILEX\EOSCADA\DISPLAYS\METER STATION.DXF
 50
90.0
  2
DISPLAY
 70
     9
  0
SEQEND
  5
168C
  8
0
  0
INSERT
  5
18A9
  8
0
 66
     1
  2
SWITCH-1_ST1-GREEN_ST2-RE0
 10
10.697117003343539
 20
11.73259994128604
 30
0.0
 41
-1.0
 50
270.0
  0
ATTRIB
  5
18AA
  8
0
  6
CONTINUOUS
 10
10.327612076006231
 20
11.6694245523706
 30
0.0
 40
0.1
  1
010100010000001401
 50
270.0
  7
ARIAL
 71
     2
  2
LINKAGE
 70
     9
  0
SEQEND
  5
18AB
  8
0
  0
INSERT
  5
18AC
  8
0
 66
     1
  2
SWITCH-1_ST1-GREEN_ST2-RE0
 10
10.697117003343539
 20
13.45492477673162
 30
0.0
 41
-1.0
 50
270.0
  0
ATTRIB
  5
18AD
  8
0
  6
CONTINUOUS
 10
10.327612076006231
 20
13.39174938781618
 30
0.0
 40
0.1
  1
010100010000001501
 50
270.0
  7
ARIAL
 71
     2
  2
LINKAGE
 70
     9
  0
SEQEND
  5
18AE
  8
0
  0
INSERT
  5
18AF
  8
0
 66
     1
  2
SWITCH-1_ST1-GREEN_ST2-RE0
 10
9.6453069254749941
 20
11.289446679265581
 30
0.0
 41
-1.0
  0
ATTRIB
  5
18B0
  8
0
  6
CONTINUOUS
 10
9.7084823143904355
 20
10.91994175192827
 30
0.0
 40
0.1
  1
010100010000001301
  7
ARIAL
 71
     2
  2
LINKAGE
 70
     9
  0
SEQEND
  5
18B1
  8
0
  0
INSERT
  5
18B2
  8
0
 66
     1
  2
SWITCH-1_ST1-GREEN_ST2-RE0
 10
11.54295618599563
 20
9.7316447948130005
 30
0.0
  0
ATTRIB
  5
18B3
  8
0
  6
CONTINUOUS
 10
11.47978079708019
 20
9.3621398674756922
 30
0.0
 40
0.1
  1
010100010000001601
  7
ARIAL
  2
LINKAGE
 70
     9
  0
SEQEND
  5
18B4
  8
0
  0
INSERT
  5
18B5
  8
0
 66
     1
  2
SWITCH-1_ST1-GREEN_ST2-RE0
 10
11.68287967308275
 20
14.316539000769501
 30
0.0
  0
ATTRIB
  5
18B6
  8
0
  6
CONTINUOUS
 10
11.619704284167311
 20
13.94703407343219
 30
0.0
 40
0.1
  1
010100010000001701
  7
ARIAL
  2
LINKAGE
 70
     9
  0
SEQEND
  5
18B7
  8
0
  0
INSERT
  5
18BE
  8
0
 66
     1
  2
SWITCH-1_ST1-GREEN_ST2-RE0
 10
10.697117003343539
 20
10.291416389532611
 30
0.0
 41
-1.0
 50
270.0
  0
ATTRIB
  5
18BF
  8
0
  6
CONTINUOUS
 10
10.327612076006231
 20
10.228241000617169
 30
0.0
 40
0.1
  1
010100010000001201
 50
270.0
  7
ARIAL
 71
     2
  2
LINKAGE
 70
     9
  0
SEQEND
  5
18C0
  8
0
  0
INSERT
  5
18C3
  8
0
 66
     1
  2
SWITCH-1_ST1-GREEN_ST2-RE0
 10
6.8555497433372921
 20
8.0802318249484664
 30
0.0
 41
-1.0
 50
270.0
  0
ATTRIB
  5
18C4
  8
0
  6
CONTINUOUS
 10
6.4860448159999811
 20
8.0170564360330268
 30
0.0
 40
0.1
  1
010100010000007201
 50
270.0
  7
ARIAL
 71
     2
  2
LINKAGE
 70
     9
  0
SEQEND
  5
18C5
  8
0
  0
LINE
  5
1F12
  8
DISPLAY
 62
     4
 10
6.0261416718811844
 20
9.0691321774734561
 30
0.0
 11
6.8594808545332731
 21
9.0691321774734561
 31
0.0
  0
LINE
  5
1F14
  8
SYMBOL
 62
     4
 10
5.5136416718811851
 20
9.0691321774734561
 30
0.0
 11
5.1636426718811821
 21
9.0691321774734561
 31
0.0
  0
INSERT
  5
1F16
  8
0
 66
     1
  2
SWITCH-1_ST1-GREEN_ST2-RE0
 10
6.0136416718811851
 20
9.0691321774734561
 30
0.0
 41
-1.0
  0
ATTRIB
  5
1F17
  8
0
  6
CONTINUOUS
 10
6.0768170607966221
 20
8.6996272501361478
 30
0.0
 40
0.1
  1
010100010000008801
  7
ARIAL
 71
     2
  2
LINKAGE
 70
     9
  0
SEQEND
  5
1F18
  8
0
  0
LINE
  5
1F2E
  8
SYMBOL
 62
     4
 10
5.0636426718811851
 20
9.0191321774734554
 30
0.0
 11
5.0636426718811851
 21
9.1191321774734568
 31
0.0
  0
LINE
  5
1F2F
  8
SYMBOL
 62
     4
 10
5.1636426718811821
 20
8.9691321774734565
 30
0.0
 11
5.1636426718811821
 21
9.1691321774734558
 31
0.0
  0
LINE
  5
1F30
  8
SYMBOL
 62
     4
 10
5.113641671881183
 20
9.1441321774734554
 30
0.0
 11
5.113641671881183
 21
8.9941321774734551
 31
0.0
  0
INSERT
  5
1FD4
  8
0
  2
*U12
 10
0.0
 20
0.0
 30
0.0
  0
INSERT
  5
1FD5
  8
0
  2
*U13
 10
0.0
 20
0.0
 30
0.0
  0
INSERT
  5
1FD6
  8
0
  2
*U14
 10
0.0
 20
0.0
 30
0.0
  0
INSERT
  5
1FDC
  8
0
  2
*U15
 10
0.0
 20
0.0
 30
0.0
  0
INSERT
  5
1FE2
  8
0
  2
*U16
 10
0.0
 20
0.0
 30
0.0
  0
INSERT
  5
1FE8
  8
0
  2
*U17
 10
0.0
 20
0.0
 30
0.0
  0
LINE
  5
2204
  8
0
 10
-5.5259653042399393
 20
9.7442734702179763
 30
0.0
 11
-5.5259653042399393
 21
9.7442734702179763
 31
0.0
  0
INSERT
  5
2359
  8
0
  2
*U18
 10
-0.2437302793117431
 20
0.9511682432065313
 30
0.0
  0
INSERT
  5
2811
  8
0
 66
     1
  2
SWITCH-1_ST1-GREEN_ST2-RE0
 10
-4.9588492632365231
 20
16.93732700756032
 30
0.0
 41
-1.0
 50
270.0
  0
ATTRIB
  5
2812
  8
0
  6
CONTINUOUS
 10
-5.3283541905738332
 20
16.874151618644881
 30
0.0
 40
0.1
  1
010100050000000d00
 50
270.0
  7
ARIAL
 71
     2
  2
LINKAGE
 70
     9
  0
SEQEND
  5
2813
  8
0
  0
INSERT
  5
2818
  8
0
  2
*U19
 10
-15.655966266580061
 20
6.6459106180277132
 30
0.0
  0
LINE
  5
281E
  8
DISPLAY
 62
     4
 10
-4.961278185786532
 20
16.619012280470351
 30
0.0
 11
-4.961278185786532
 21
16.919094942827819
 31
0.0
  0
LINE
  5
2824
  8
DISPLAY
 62
     4
 10
-4.963116512880152
 20
17.437326989021741
 30
0.0
 11
-4.963116512880152
 21
17.73740965137921
 31
0.0
  0
INSERT
  5
2835
  8
0
 66
     1
  2
SWITCH-1_ST1-GREEN_ST2-RE0
 10
-4.9496735651615831
 20
15.586596802226619
 30
0.0
 50
270.0
  0
ATTRIB
  5
2836
  8
0
  6
CONTINUOUS
 10
-5.3191784924988923
 20
15.64977219114207
 30
0.0
 40
0.1
  1
010100050000000e00
 50
270.0
  7
ARIAL
  2
LINKAGE
 70
     9
  0
SEQEND
  5
2837
  8
0
  0
INSERT
  5
283C
  8
0
  2
*U20
 10
-15.64679056850512
 20
4.8314112301267871
 30
0.0
  0
LINE
  5
2842
  8
DISPLAY
 62
     4
 10
-4.9496735948476562
 20
15.61032760112081
 30
0.0
 11
-4.9496735948476562
 21
15.91041026347829
 31
0.0
  0
INSERT
  5
2850
  8
0
 66
     1
  2
ARROW_HEAD_DISPLAY_REF
 10
-6.25142071718924
 20
19.058424045061841
 30
0.0
 41
1.8634611981471281
 42
1.8634611981471281
 43
1.8634611981471281
  0
ATTRIB
  5
2851
  8
0
 10
-6.7172860167260211
 20
18.592558745525071
 30
0.0
 40
0.1397595898610346
  1
D:\C3ILEX\EOSCADA\DISPLAYS\N GRID ARCADE STATION.DXF
  2
DISPLAY
 70
     9
  0
SEQEND
  5
2852
  8
0
  0
TEXT
  5
2858
  8
DISPLAY
 62
     2
 10
-5.9213254837783502
 20
18.991030230655468
 30
0.0
 40
0.215
  1
to Ring Bus Station
  7
ARIAL
 72
     1
 11
-4.057992150445016
 21
18.991030230655468
 31
0.0
  0
TEXT
  5
285E
  8
DISPLAY
 62
     2
 10
-4.2482676317496217
 20
17.15002379004499
 30
0.0
 40
0.215
  1
SW104
  7
ARIAL
 72
     1
 11
-3.7645176317496221
 21
17.15002379004499
 31
0.0
  0
TEXT
  5
2864
  8
DISPLAY
 62
     2
 10
-4.6679303023018939
 20
16.194632228702989
 30
0.0
 40
0.215
  1
CktSw 105
  7
ARIAL
 72
     1
 11
-3.7900136356352281
 21
16.194632228702989
 31
0.0
  0
TEXT
  5
286A
  8
DISPLAY
 62
     2
 10
-4.2227716278640202
 20
15.251979216506831
 30
0.0
 40
0.215
  1
SW106
  7
ARIAL
 72
     1
 11
-3.73902162786402
 21
15.251979216506831
 31
0.0
  0
INSERT
  5
2A2E
  8
0
 66
     1
  2
CKTSW2030
 10
-5.153114209336735
 20
15.995151053953499
 30
0.0
  0
ATTRIB
  5
2A2F
  8
0
  6
CONTINUOUS
 10
-5.2162895982521711
 20
15.625646126616189
 30
0.0
 40
0.1
  1
010100050000000100
  7
ARIAL
  2
LINKAGE
 70
     9
1001
ACDBBLOCKREPETAG
1070
     1
1071
        0
1005
0
  0
SEQEND
  5
2A30
  8
0
  0
LINE
  5
2EA7
  8
0
 10
7.5914325711473998
 20
16.466631418691041
 30
0.0
 11
8.9545082265602272
 21
16.466631418691041
 31
0.0
  0
INSERT
  5
2ECC
  8
0
 66
     1
  2
ARROW_HEAD_DISPLAY_REF
 10
13.61327634693591
 20
11.038900120624589
 30
0.0
 41
1.8634611981471281
 42
1.8634611981471281
 43
1.8634611981471281
  0
ATTRIB
  5
2ECD
  8
0
 10
13.147411047399141
 20
10.573034821087809
 30
0.0
 40
0.1397595898610346
  1
C:\C3ILEX\EOSCADA\DISPLAYS\METER STATION RELAYS.DXF
  2
DISPLAY
 70
     9
  0
SEQEND
  5
2ECE
  8
0
  0
TEXT
  5
2ECF
  8
DISPLAY
 62
     6
 10
14.2595763078209
 20
10.932984610403111
 30
0.0
 40
0.215
  1
Relay display
  7
ARIAL
  0
INSERT
  5
2ED8
  8
0
 66
     1
  2
ARROW_HEAD_DISPLAY_REF
 10
-9.6794354333100685
 20
16.403975118503379
 30
0.0
 41
1.8634611981471281
 42
1.8634611981471281
 43
1.8634611981471281
  0
ATTRIB
  5
2ED9
  8
0
 10
-10.14530073284684
 20
15.9381098189666
 30
0.0
 40
0.1397595898610346
  1
C:\C3ILEX\EOSCADA\DISPLAYS\METER STATION RELAYS.DXF
  2
DISPLAY
 70
     9
  0
SEQEND
  5
2EDA
  8
0
  0
TEXT
  5
2EDB
  8
DISPLAY
 62
     6
 10
-9.0331354724250836
 20
16.2980596082819
 30
0.0
 40
0.215
  1
Relay display
  7
ARIAL
  0
TEXT
  5
2EF3
  8
0
 62
     6
 10
14.157322077492569
 20
10.33289639319039
 30
0.0
 40
0.215
  1
ANNUNCIATOR
  7
ARIAL
  0
INSERT
  5
2EF4
  8
0
 66
     1
  2
ARROW_HEAD_DISPLAY_REF0
 10
13.63395561155385
 20
10.44769199234968
 30
0.0
 41
1.8634611981471281
 42
1.8634611981471281
 43
1.8634611981471281
  0
ATTRIB
  5
2EF5
  8
0
 10
13.16809031201706
 20
9.9818266928129091
 30
0.0
 40
0.1397595898610346
  1
C:\C3ILEX\EOSCADA\DISPLAYS\ONELINES\115KV SYSTEM ARCADE.DXF
  2
DISPLAY
 70
     9
  0
SEQEND
  5
2EF6
  8
0
  0
TEXT
  5
2EFF
  8
0
 62
     6
 10
-9.1830748781165479
 20
15.696899375221969
 30
0.0
 40
0.215
  1
ANNUNCIATOR
  7
ARIAL
  0
INSERT
  5
2F00
  8
0
 66
     1
  2
ARROW_HEAD_DISPLAY_REF0
 10
-9.7064413440552713
 20
15.811694974381259
 30
0.0
 41
1.8634611981471281
 42
1.8634611981471281
 43
1.8634611981471281
  0
ATTRIB
  5
2F01
  8
0
 10
-10.17230664359205
 20
15.34582967484449
 30
0.0
 40
0.1397595898610346
  1
C:\C3ILEX\EOSCADA\DISPLAYS\ONELINES\115KV SYSTEM ARCADE.DXF
  2
DISPLAY
 70
     9
  0
SEQEND
  5
2F02
  8
0
  0
VIEWPORT
  5
27EE
 67
     1
  8
0
 10
5.2499996395561652
 20
3.9999998836066761
 30
0.0
 40
15.338150374288331
 41
8.9929997457669462
 68
     1
 69
     1
1001
ACAD
1000
MVIEW
1002
{
1070
    16
1010
0.0
1020
0.0
1030
0.0
1010
0.0
1020
0.0
1030
1.0
1040
0.0
1040
8.9929997457669462
1040
5.2499996395561652
1040
3.9999998836066761
1040
50.0
1040
0.0
1040
0.0
1070
     0
1070
   100
1070
     1
1070
     1
1070
     0
1070
     0
1070
     0
1070
     0
1040
0.0
1040
0.0
1040
0.0
1040
0.5
1040
0.5
1040
0.5
1040
0.5
1070
     0
1002
{
1002
}
1002
}
1001
GENIUS_GENOBJ-N-SDF_13
1002
{
1000
OWNER
1000
GEN
1002
}
1001
GENIUS_GENODEF_13
1002
{
1000
HIER
1070
     0
1002
}
1002
{
1000
MANEDIT
1070
     0
1002
}
1002
{
1000
NOSEL
1070
     0
1002
}
1002
{
1000
BEHIND
1070
     0
1002
}
1002
{
1000
OTHER
1070
     0
1002
}
1002
{
1000
REACTOR
1002
}
1001
GENIUS_GENSCREG_15
1000
PF
1040
1.0
1000
DF
1040
1.0
1000
MIN
1011
-2.419075547588001
1021
0.0
1031
0.0
1021
-0.4964999892767974
1031
0.0
1000
MAX
1011
12.91907482670033
1021
0.0
1031
0.0
1021
8.4964997564901488
1031
0.0
1000
FLAGS
1070
     4
  0
VIEWPORT
  5
27F1
 67
     1
  8
0
 10
5.24999976158142
 20
3.9999997615814191
 30
0.0
 40
8.3999996185302752
 41
6.3999996185302734
 68
     2
 69
     2
1001
ACAD
1000
MVIEW
1002
{
1070
    16
1010
0.0
1020
0.0
1030
0.0
1010
0.0
1020
0.0
1030
1.0
1040
0.0
1040
17.940932294162451
1040
4.4884976151559872
1040
12.140919228175891
1040
50.0
1040
0.0
1040
0.0
1070
     0
1070
   100
1070
     1
1070
     1
1070
     0
1070
     0
1070
     0
1070
     0
1040
0.0
1040
0.0
1040
0.0
1040
0.5
1040
0.5
1040
0.5
1040
0.5
1070
     0
1002
{
1002
}
1002
}
1001
GENIUS_GENOBJ-N-SDF_13
1002
{
1000
OWNER
1000
GEN
1002
}
1001
GENIUS_GENODEF_13
1002
{
1000
HIER
1070
     0
1002
}
1002
{
1000
MANEDIT
1070
     0
1002
}
1002
{
1000
NOSEL
1070
     0
1002
}
1002
{
1000
BEHIND
1070
     0
1002
}
1002
{
1000
OTHER
1070
     0
1002
}
1002
{
1000
REACTOR
1002
}
1001
GENIUS_GENSCREG_15
1000
PF
1040
0.0
1000
DF
1040
0.0
1000
MIN
1011
1.049999952316282
1021
0.0
1031
0.0
1021
0.7999999523162824
1031
0.0
1000
MAX
1011
9.4499995708465576
1021
0.0
1031
0.0
1021
7.199999570846555
1031
0.0
1000
FLAGS
1070
     4
  0
ENDSEC
  0
EOF
