  0
SECTION
  2
HEADER
  9
$ACADVER
  1
AC1009
  9
$INSBASE
 10
0.0
 20
0.0
 30
0.0
  9
$EXTMIN
 10
-2.1401834863559279
 20
7.7926471983579599
 30
0.0
  9
$EXTMAX
 10
16.784483728223741
 20
18.55590135231251
 30
0.0
  9
$LIMMIN
 10
0.0
 20
0.0
  9
$LIMMAX
 10
12.0
 20
9.0
  9
$ORTHOMODE
 70
     1
  9
$REGENMODE
 70
     1
  9
$FILLMODE
 70
     1
  9
$QTEXTMODE
 70
     0
  9
$MIRRTEXT
 70
     1
  9
$DRAGMODE
 70
     2
  9
$LTSCALE
 40
1.0
  9
$OSMODE
 70
     7
  9
$ATTMODE
 70
     1
  9
$TEXTSIZE
 40
0.2
  9
$TRACEWID
 40
0.05
  9
$TEXTSTYLE
  7
STANDARD
  9
$CLAYER
  8
0
  9
$CELTYPE
  6
BYLAYER
  9
$CECOLOR
 62
   256
  9
$DIMSCALE
 40
1.0
  9
$DIMASZ
 40
0.18
  9
$DIMEXO
 40
0.0625
  9
$DIMDLI
 40
0.38
  9
$DIMRND
 40
0.0
  9
$DIMDLE
 40
0.0
  9
$DIMEXE
 40
0.18
  9
$DIMTP
 40
0.0
  9
$DIMTM
 40
0.0
  9
$DIMTXT
 40
0.18
  9
$DIMCEN
 40
0.09
  9
$DIMTSZ
 40
0.0
  9
$DIMTOL
 70
     0
  9
$DIMLIM
 70
     0
  9
$DIMTIH
 70
     1
  9
$DIMTOH
 70
     1
  9
$DIMSE1
 70
     0
  9
$DIMSE2
 70
     0
  9
$DIMTAD
 70
     0
  9
$DIMZIN
 70
     0
  9
$DIMBLK
  1

  9
$DIMASO
 70
     1
  9
$DIMSHO
 70
     1
  9
$DIMPOST
  1

  9
$DIMAPOST
  1

  9
$DIMALT
 70
     0
  9
$DIMALTD
 70
     2
  9
$DIMALTF
 40
25.399999999999999
  9
$DIMLFAC
 40
1.0
  9
$DIMTOFL
 70
     0
  9
$DIMTVP
 40
0.0
  9
$DIMTIX
 70
     0
  9
$DIMSOXD
 70
     0
  9
$DIMSAH
 70
     0
  9
$DIMBLK1
  1

  9
$DIMBLK2
  1

  9
$DIMSTYLE
  2
STANDARD
  9
$DIMCLRD
 70
     0
  9
$DIMCLRE
 70
     0
  9
$DIMCLRT
 70
     0
  9
$DIMTFAC
 40
1.0
  9
$DIMGAP
 40
0.09
  9
$LUNITS
 70
     2
  9
$LUPREC
 70
     4
  9
$SKETCHINC
 40
0.1
  9
$FILLETRAD
 40
0.0
  9
$AUNITS
 70
     0
  9
$AUPREC
 70
     0
  9
$MENU
  1
.
  9
$ELEVATION
 40
0.0
  9
$PELEVATION
 40
0.0
  9
$THICKNESS
 40
0.0
  9
$LIMCHECK
 70
     0
  9
$BLIPMODE
 70
     0
  9
$CHAMFERA
 40
0.5
  9
$CHAMFERB
 40
0.5
  9
$SKPOLY
 70
     0
  9
$TDCREATE
 40
2454336.4711634382
  9
$TDUPDATE
 40
2456573.5799263548
  9
$TDINDWG
 40
0.6775536921000001
  9
$TDUSRTIMER
 40
0.6775527199
  9
$USRTIMER
 70
     1
  9
$ANGBASE
 50
0.0
  9
$ANGDIR
 70
     0
  9
$PDMODE
 70
     0
  9
$PDSIZE
 40
0.0
  9
$PLINEWID
 40
0.0
  9
$COORDS
 70
     1
  9
$SPLFRAME
 70
     0
  9
$SPLINETYPE
 70
     6
  9
$SPLINESEGS
 70
     8
  9
$ATTDIA
 70
     1
  9
$ATTREQ
 70
     1
  9
$HANDLING
 70
     1
  9
$HANDSEED
  5
1282
  9
$SURFTAB1
 70
     6
  9
$SURFTAB2
 70
     6
  9
$SURFTYPE
 70
     6
  9
$SURFU
 70
     6
  9
$SURFV
 70
     6
  9
$UCSNAME
  2

  9
$UCSORG
 10
0.0
 20
0.0
 30
0.0
  9
$UCSXDIR
 10
1.0
 20
0.0
 30
0.0
  9
$UCSYDIR
 10
0.0
 20
1.0
 30
0.0
  9
$PUCSNAME
  2

  9
$PUCSORG
 10
0.0
 20
0.0
 30
0.0
  9
$PUCSXDIR
 10
1.0
 20
0.0
 30
0.0
  9
$PUCSYDIR
 10
0.0
 20
1.0
 30
0.0
  9
$USERI1
 70
     0
  9
$USERI2
 70
     0
  9
$USERI3
 70
     0
  9
$USERI4
 70
     0
  9
$USERI5
 70
     0
  9
$USERR1
 40
0.0
  9
$USERR2
 40
0.0
  9
$USERR3
 40
0.0
  9
$USERR4
 40
0.0
  9
$USERR5
 40
0.0
  9
$WORLDVIEW
 70
     1
  9
$SHADEDGE
 70
     3
  9
$SHADEDIF
 70
    70
  9
$TILEMODE
 70
     1
  9
$MAXACTVP
 70
    64
  9
$PLIMCHECK
 70
     0
  9
$PEXTMIN
 10
1.0000000000000000E+020
 20
1.0000000000000000E+020
 30
1.0000000000000000E+020
  9
$PEXTMAX
 10
-1.0000000000000000E+020
 20
-1.0000000000000000E+020
 30
-1.0000000000000000E+020
  9
$PLIMMIN
 10
0.0
 20
0.0
  9
$PLIMMAX
 10
12.0
 20
9.0
  9
$UNITMODE
 70
     0
  9
$VISRETAIN
 70
     1
  9
$PLINEGEN
 70
     0
  9
$PSLTSCALE
 70
     1
  0
ENDSEC
  0
SECTION
  2
TABLES
  0
TABLE
  2
VPORT
 70
     1
  0
VPORT
  2
*ACTIVE
 70
     0
 10
0.0
 20
0.0
 11
1.0
 21
1.0
 12
8.1787555321652299
 22
13.26642181086063
 13
0.0
 23
0.0
 14
0.5
 24
0.5
 15
0.5
 25
0.5
 16
0.0
 26
0.0
 36
1.0
 17
0.0
 27
0.0
 37
0.0
 40
19.488430911675248
 41
1.8804573804573801
 42
50.0
 43
0.0
 44
0.0
 50
0.0
 51
0.0
 71
     0
 72
   100
 73
     1
 74
     3
 75
     0
 76
     0
 77
     0
 78
     0
  0
ENDTAB
  0
TABLE
  2
LTYPE
 70
    18
  0
LTYPE
  2
CONTINUOUS
 70
     0
  3
Solid line
 72
    65
 73
     0
 40
0.0
  0
LTYPE
  2
HIDDEN
 70
     0
  3
Hidden __ __ __ __ __ __ __ __ __ __ __ __ __ _
 72
    65
 73
     2
 40
0.375
 49
0.25
 49
-0.125
  0
LTYPE
  2
PHANTOM2
 70
     0
  3
Phantom (.5x) ___ _ _ ___ _ _ ___ _ _ ___ _ _
 72
    65
 73
     6
 40
1.25
 49
0.625
 49
-0.125
 49
0.125
 49
-0.125
 49
0.125
 49
-0.125
  0
LTYPE
  2
CENTER
 70
     0
  3
Center ____ _ ____ _ ____ _ ____ _ ____ _ ____
 72
    65
 73
     4
 40
2.0
 49
1.25
 49
-0.25
 49
0.25
 49
-0.25
  0
LTYPE
  2
DASHED
 70
     0
  3
Dashed __ __ __ __ __ __ __ __ __ __ __ __ __ _
 72
    65
 73
     2
 40
0.75
 49
0.5
 49
-0.25
  0
LTYPE
  2
DOT
 70
     0
  3
Dot . . . . . . . . . . . . . . . . . . . . . .
 72
    65
 73
     2
 40
0.25
 49
0.0
 49
-0.25
  0
LTYPE
  2
AM_ISO02W050
 70
     0
  3
__ __ __ __ __ __ __ __ __ __ __ __ __ __ __
 72
    65
 73
     2
 40
7.5
 49
6.0
 49
-1.5
  0
LTYPE
  2
AM_ISO08W050
 70
     0
  3
____ . ____ . ____ . ____ . ____ . ____ . ____
 72
    65
 73
     4
 40
18.0
 49
12.0
 49
-1.5
 49
3.0
 49
-1.5
  0
LTYPE
  2
AM_ISO09W050
 70
     0
  3
_____ . . _____ . . _____ . . ____ .. ____
 72
    65
 73
     6
 40
22.5
 49
12.0
 49
-1.5
 49
3.0
 49
-1.5
 49
3.0
 49
-1.5
  0
LTYPE
  2
AMCONSTR
 70
     0
  3
_______________________
 72
    65
 73
     2
 40
9999.0
 49
9999.0
 49
0.0
  0
LTYPE
  2
AM_ISO08W050X2
 70
     0
  3
__ . __ . __ . __ . __ . __
 72
    65
 73
     4
 40
9.0
 49
6.0
 49
-0.75
 49
1.5
 49
-0.75
  0
LTYPE
  2
AM_ISO02W050X2
 70
     0
  3
 _ _ _ _ _ _ _ _ _ _ _ _
 72
    65
 73
     2
 40
3.75
 49
3.0
 49
-0.75
  0
LTYPE
  2
AMZIGZAG
 70
     0
  3
/\/-/\/-/\/-/\/-/\/-/\/
 72
    65
 73
     2
 40
11.0001
 49
0.0001
 49
-11.0
  0
LTYPE
  2
CENTER2
 70
     0
  3
Center (.5x) ___ _ ___ _ ___ _ ___ _ ___ _ ___
 72
    65
 73
     4
 40
1.125
 49
0.75
 49
-0.125
 49
0.125
 49
-0.125
  0
LTYPE
  2
HIDDEN2
 70
     0
  3
Hidden (.5x) _ _ _ _ _ _ _ _ _ _ _ _ _ _ _ _ _
 72
    65
 73
     2
 40
0.1875
 49
0.125
 49
-0.0625
  0
LTYPE
  2
AMZIGZAG2
 70
     0
  3
/\/-/\/-/\/-/\/-/\/-/\/
 72
    65
 73
     2
 40
0.4401
 49
0.0001
 49
-0.4400000000000001
  0
LTYPE
  2
ACANSTGB
 70
     0
  3
__ . . __ . .
 72
    65
 73
     6
 40
0.35433070866
 49
0.15748031496
 49
-0.03937007874
 49
0.03937007874
 49
-0.03937007874
 49
0.03937007874
 49
-0.03937007874
  0
LTYPE
  2
ACANSTGL
 70
     0
  3
_ _ _ _ _
 72
    65
 73
     2
 40
0.11811023622
 49
0.07874015748
 49
-0.03937007874
  0
ENDTAB
  0
TABLE
  2
LAYER
 70
     5
  0
LAYER
  2
0
 70
     0
 62
     6
  6
CONTINUOUS
  0
LAYER
  2
STATE_1
 70
     0
 62
     3
  6
CONTINUOUS
  0
LAYER
  2
STATE_2
 70
     0
 62
     1
  6
CONTINUOUS
  0
LAYER
  2
DISPLAY
 70
     0
 62
     7
  6
CONTINUOUS
  0
LAYER
  2
SYMBOL
 70
     0
 62
     7
  6
CONTINUOUS
  0
ENDTAB
  0
TABLE
  2
STYLE
 70
     6
  0
STYLE
  2
STANDARD
 70
     0
 40
0.0
 41
1.0
 50
0.0
 71
     0
 42
0.2
  3
txt
  4

  0
STYLE
  2
ANNOTATIVE
 70
     0
 40
0.0
 41
1.0
 50
0.0
 71
     0
 42
0.2
  3
txt
  4

  0
STYLE
  2
ARIAL
 70
     0
 40
0.0
 41
1.0
 50
0.0
 71
     0
 42
0.2
  3
txt
  4

  0
STYLE
  2

 70
     1
 40
0.0
 41
1.0
 50
0.0
 71
     0
 42
0.2
  3
genltshp.shx
  4

  0
STYLE
  2
ACANSTS
 70
     0
 40
1.0
 41
1.0
 50
0.0
 71
     0
 42
0.2
  3
romans.shx
  4

  0
STYLE
  2
ACANSGDT
 70
     0
 40
0.0
 41
1.0
 50
0.0
 71
     0
 42
0.2
  3
amgdt.shx
  4

  0
ENDTAB
  0
TABLE
  2
VIEW
 70
     0
  0
ENDTAB
  0
TABLE
  2
UCS
 70
     0
  0
ENDTAB
  0
TABLE
  2
APPID
 70
    15
  0
APPID
  2
ACAD
 70
     0
  0
APPID
  2
ACADANNOTATIVE
 70
     0
  0
APPID
  2
ACAD_MLEADERVER
 70
     0
  0
APPID
  2
CONTENTTABDATA
 70
     0
  0
APPID
  2
CONTENTCURRENTTAB
 70
     0
  0
APPID
  2
ACAD_EXEMPT_FROM_CAD_STANDARDS
 70
     0
  0
APPID
  2
CONTENTBLOCKDESCRIPTION
 70
     0
  0
APPID
  2
CONTENTBLOCKICON
 70
     0
  0
APPID
  2
MCAD_NO_VIS
 70
     0
  0
APPID
  2
ACAD_TEMP_GRAPHIC
 70
     0
  0
APPID
  2
ACATTRIBSERVICES
 70
     0
  0
APPID
  2
DESIGNERASSEMBLIES
 70
     0
  0
APPID
  2
ACAD_DSTYLE_DIMJAG
 70
     0
  0
APPID
  2
ACAD_DSTYLE_DIMBREAK
 70
     0
  0
APPID
  2
ACAD_NAV_VCDISPLAY
 70
     0
  0
ENDTAB
  0
TABLE
  2
DIMSTYLE
 70
     8
  0
DIMSTYLE
  2
STANDARD
 70
     0
  3

  4

  5

  6

  7

 40
1.0
 41
0.18
 42
0.0625
 43
0.38
 44
0.18
 45
0.0
 46
0.0
 47
0.0
 48
0.0
140
0.18
141
0.09
142
0.0
143
25.399999999999999
144
1.0
145
0.0
146
1.0
147
0.09
 71
     0
 72
     0
 73
     1
 74
     1
 75
     0
 76
     0
 77
     0
 78
     0
170
     0
171
     2
172
     0
173
     0
174
     0
175
     0
176
     0
177
     0
178
     0
  0
DIMSTYLE
  2
ANNOTATIVE
 70
     0
  3

  4

  5

  6

  7

 40
1.0
 41
0.18
 42
0.0625
 43
0.38
 44
0.18
 45
0.0
 46
0.0
 47
0.0
 48
0.0
140
0.18
141
0.09
142
0.0
143
25.399999999999999
144
1.0
145
0.0
146
1.0
147
0.09
 71
     0
 72
     0
 73
     1
 74
     1
 75
     0
 76
     0
 77
     0
 78
     0
170
     0
171
     2
172
     0
173
     0
174
     0
175
     0
176
     0
177
     0
178
     0
  0
DIMSTYLE
  2
AM_ANSI
 70
     0
  3

  4
mm
  5

  6

  7

 40
1.0
 41
0.12
 42
0.05
 43
0.5
 44
0.1
 45
0.0
 46
0.0
 47
0.1
 48
0.1
140
0.12
141
0.0
142
0.0
143
25.399999999999999
144
1.0
145
0.0
146
0.71
147
0.06
 71
     0
 72
     0
 73
     1
 74
     1
 75
     0
 76
     0
 77
     0
 78
     7
170
     0
171
     2
172
     0
173
     0
174
     0
175
     0
176
   256
177
   256
178
     2
  0
DIMSTYLE
  2
AM_ANSI$3
 70
     0
  3

  4
mm
  5

  6

  7

 40
1.0
 41
0.12
 42
0.05
 43
0.5
 44
0.1
 45
0.0
 46
0.0
 47
0.1
 48
0.1
140
0.12
141
0.0
142
0.0
143
25.399999999999999
144
1.0
145
0.0
146
0.71
147
0.06
 71
     0
 72
     0
 73
     1
 74
     1
 75
     0
 76
     0
 77
     0
 78
     7
170
     0
171
     2
172
     0
173
     0
174
     0
175
     0
176
   256
177
   256
178
     2
  0
DIMSTYLE
  2
AM_ANSI$4
 70
     0
  3

  4
mm
  5

  6

  7

 40
1.0
 41
0.12
 42
0.05
 43
0.5
 44
0.1
 45
0.0
 46
0.0
 47
0.1
 48
0.1
140
0.12
141
0.0
142
0.0
143
25.399999999999999
144
1.0
145
0.0
146
0.71
147
0.06
 71
     0
 72
     0
 73
     1
 74
     1
 75
     0
 76
     0
 77
     0
 78
     7
170
     0
171
     2
172
     0
173
     0
174
     0
175
     0
176
   256
177
   256
178
     2
  0
DIMSTYLE
  2
AM_ANSI$7
 70
     0
  3

  4
mm
  5

  6

  7

 40
1.0
 41
0.12
 42
0.05
 43
0.5
 44
0.1
 45
0.0
 46
0.0
 47
0.1
 48
0.1
140
0.12
141
0.0
142
0.0
143
25.399999999999999
144
1.0
145
0.0
146
0.71
147
0.06
 71
     0
 72
     0
 73
     1
 74
     1
 75
     0
 76
     0
 77
     0
 78
     7
170
     0
171
     2
172
     0
173
     0
174
     0
175
     0
176
   256
177
   256
178
     2
  0
DIMSTYLE
  2
AM_ANSI$SF
 70
     0
  3

  4
mm
  5

  6

  7

 40
1.0
 41
0.12
 42
0.05
 43
0.5
 44
0.1
 45
0.0
 46
0.0
 47
0.1
 48
0.1
140
0.12
141
0.0
142
0.0
143
25.399999999999999
144
1.0
145
0.0
146
0.71
147
0.06
 71
     0
 72
     0
 73
     1
 74
     1
 75
     1
 76
     1
 77
     0
 78
     7
170
     0
171
     2
172
     0
173
     0
174
     0
175
     0
176
   256
177
   256
178
     2
  0
DIMSTYLE
  2
AM_ANSI$SH
 70
     0
  3

  4
mm
  5

  6
GENAXEH
  7

 40
1.0
 41
0.12
 42
0.05
 43
0.5
 44
0.1
 45
0.0
 46
0.0
 47
0.1
 48
0.1
140
0.12
141
0.0
142
0.0
143
25.399999999999999
144
1.0
145
0.0
146
0.71
147
0.06
 71
     0
 72
     0
 73
     1
 74
     1
 75
     1
 76
     1
 77
     0
 78
     7
170
     0
171
     2
172
     0
173
     1
174
     0
175
     0
176
   256
177
   256
178
     2
  0
ENDTAB
  0
ENDSEC
  0
SECTION
  2
BLOCKS
  0
BLOCK
  8
0
  2
$MODEL_SPACE
 70
     0
 10
0.0
 20
0.0
 30
0.0
  3
$MODEL_SPACE
  1

  0
ENDBLK
  5
10DC
  8
0
  0
BLOCK
 67
     1
  8
0
  2
$PAPER_SPACE
 70
     0
 10
0.0
 20
0.0
 30
0.0
  3
$PAPER_SPACE
  1

  0
ENDBLK
  5
10D8
 67
     1
  8
0
  0
BLOCK
  8
0
  2
2_STATE_BRKR_SYMBOL_ST1-GR
 70
     2
 10
0.0
 20
0.0
 30
0.0
  3
2_STATE_BRKR_SYMBOL_ST1-GR
  1

  0
POLYLINE
  5
F9
  8
0
 62
     6
 66
     1
 10
0.0
 20
0.0
 30
0.0
 70
     1
  0
VERTEX
  5
11C3
  8
0
 62
     6
 10
6.0471933526922141
 20
4.105208527085046
 30
0.0
  0
VERTEX
  5
11C4
  8
0
 62
     6
 10
6.467243371457374
 20
4.105208527085046
 30
0.0
  0
VERTEX
  5
11C5
  8
0
 62
     6
 10
6.467243371457374
 20
4.525258545850205
 30
0.0
  0
VERTEX
  5
11C6
  8
0
 62
     6
 10
6.0471933526922141
 20
4.525258545850205
 30
0.0
  0
SEQEND
  5
11C7
  8
0
 62
     6
  0
SOLID
  5
FA
  8
STATE_2
 62
     1
 10
6.0471933526922141
 20
4.105208527085046
 30
0.0
 11
6.0471933526922141
 21
4.525258545850205
 31
0.0
 12
6.467243371457374
 22
4.105208527085046
 32
0.0
 13
6.467243371457374
 23
4.525258545850205
 33
0.0
  0
ATTDEF
  5
FB
  8
0
  6
CONTINUOUS
 62
     6
 10
5.9910018963363374
 20
3.958735244172896
 30
0.0
 40
0.084010003753032
  1
NULL
  3

  2
LINKAGE
 70
     9
  0
POLYLINE
  5
FC
  8
STATE_1
  6
CONTINUOUS
 62
     3
 66
     1
 10
0.0
 20
0.0
 30
0.0
 40
0.0588070026271224
 41
0.0588070026271224
  0
VERTEX
  5
11C8
  8
STATE_1
  6
CONTINUOUS
 62
     3
 10
6.0471933526922141
 20
4.4958457512403101
 30
0.0
  0
VERTEX
  5
11C9
  8
STATE_1
  6
CONTINUOUS
 62
     3
 10
6.467243371457374
 20
4.4958457512403101
 30
0.0
  0
SEQEND
  5
11CA
  8
STATE_1
  6
CONTINUOUS
 62
     3
  0
POLYLINE
  5
FD
  8
STATE_1
  6
CONTINUOUS
 62
     3
 66
     1
 10
0.0
 20
0.0
 30
0.0
 40
0.0588070026271224
 41
0.0588070026271224
  0
VERTEX
  5
11CB
  8
STATE_1
  6
CONTINUOUS
 62
     3
 10
6.0471933526922141
 20
4.1343690227753243
 30
0.0
  0
VERTEX
  5
11CC
  8
STATE_1
  6
CONTINUOUS
 62
     3
 10
6.467243371457374
 20
4.1343690227753243
 30
0.0
  0
SEQEND
  5
11CD
  8
STATE_1
  6
CONTINUOUS
 62
     3
  0
POLYLINE
  5
FE
  8
STATE_1
  6
CONTINUOUS
 62
     3
 66
     1
 10
0.0
 20
0.0
 30
0.0
 40
0.0588070026271224
 41
0.0588070026271224
  0
VERTEX
  5
11CE
  8
STATE_1
  6
CONTINUOUS
 62
     3
 10
6.0765064444788379
 20
4.525210898859747
 30
0.0
  0
VERTEX
  5
11CF
  8
STATE_1
  6
CONTINUOUS
 62
     3
 10
6.0765064444788379
 20
4.105160880094588
 30
0.0
  0
SEQEND
  5
11D0
  8
STATE_1
  6
CONTINUOUS
 62
     3
  0
LINE
  5
FF
  8
STATE_1
  6
CONTINUOUS
 62
     3
 10
6.4082158525585982
 20
4.1047766273305024
 30
0.0
 11
6.4082158525585982
 21
4.5248266460956623
 31
0.0
  0
POLYLINE
  5
100
  8
STATE_1
  6
CONTINUOUS
 62
     3
 66
     1
 10
0.0
 20
0.0
 30
0.0
 40
0.0588070026271224
 41
0.0588070026271224
  0
VERTEX
  5
11D1
  8
STATE_1
  6
CONTINUOUS
 62
     3
 10
6.437528944345221
 20
4.525210898859747
 30
0.0
  0
VERTEX
  5
11D2
  8
STATE_1
  6
CONTINUOUS
 62
     3
 10
6.437528944345221
 20
4.105160880094588
 30
0.0
  0
SEQEND
  5
11D3
  8
STATE_1
  6
CONTINUOUS
 62
     3
  0
ENDBLK
  5
102
  8
0
  0
BLOCK
  8
0
  2
ARROW_HEAD_DISPLAY_REF
 70
     2
 10
0.0
 20
0.0
 30
0.0
  3
ARROW_HEAD_DISPLAY_REF
  1

  0
ATTDEF
  5
245
  8
0
 10
-0.25
 20
-0.25
 30
0.0
 40
0.075
  1
NULL
  3

  2
DISPLAY
 70
     9
  0
SOLID
  5
246
  8
0
 62
     5
 10
0.1249999999999996
 20
-0.0937500000000002
 30
0.0
 11
-0.1249999999999996
 21
0.0000000000000011
 31
0.0
 12
0.1249999999999996
 22
0.0937500000000002
 32
0.0
 13
0.1249999999999996
 23
0.0937500000000002
 33
0.0
  0
ENDBLK
  5
248
  8
0
  0
BLOCK
  8
0
  2
1_LINE_TEXT_DISPLAY_REF_CE
 70
     2
 10
0.0
 20
0.0
 30
0.0
  3
1_LINE_TEXT_DISPLAY_REF_CE
  1

  0
ATTDEF
  5
24D
  8
0
 62
     5
 10
0.0240473984278853
 20
0.1455691966350546
 30
0.0
 40
0.2
  1

  7
ARIAL
 72
     1
 11
0.0240473984278853
 21
0.1455691966350546
 31
0.0
  3
ENTER TEXT HERE
  2
LINE1
 70
     0
  0
ATTDEF
  5
24E
  8
0
 10
-0.1833920903288963
 20
0.0395691603674864
 30
0.0
 40
0.075
  1
NULL
  7
ARIAL
  3

  2
DISPLAY
 70
     9
  0
ENDBLK
  5
250
  8
0
  0
BLOCK
  8
0
  2
1_LINE_TEXT_DISPLAY_REF_LE
 70
     2
 10
0.0
 20
0.0
 30
0.0
  3
1_LINE_TEXT_DISPLAY_REF_LE
  1

  0
ATTDEF
  5
25A
  8
0
 62
     5
 10
0.2240976624509303
 20
0.1475994037153464
 30
0.0
 40
0.2
  1

  7
ARIAL
  3
ENTER TEXT HERE
  2
LINE1
 70
     0
  0
ATTDEF
  5
25B
  8
0
 10
0.240051627683002
 20
0.0415993674477782
 30
0.0
 40
0.075
  1
NULL
  7
ARIAL
  3

  2
DISPLAY
 70
     9
  0
ENDBLK
  5
25D
  8
0
  0
BLOCK
  8
0
  2
LIVETEXT_C
 70
     2
 10
0.0
 20
0.0
 30
0.0
  3
LIVETEXT_C
  1

  0
ATTDEF
  5
291
  8
0
 10
-0.1375
 20
0.091
 30
0.0
 40
0.075
  1
NULL
  7
ARIAL
 72
     1
 11
0.0
 21
0.091
 31
0.0
  3

  2
LINKAGE
 70
     9
  0
ATTDEF
  5
292
  8
0
 10
-0.35
 20
0.0
 30
0.0
 40
0.075
  1
UNLINKED C
  7
ARIAL
 72
     1
 11
0.0
 21
0.0
 31
0.0
  3

  2
TEXT
 70
     8
  0
ENDBLK
  5
294
  8
0
  0
BLOCK
  8
0
 62
     6
  2
SW1-CLOSE-HORIZ
 70
     0
 10
0.0
 20
0.0
 30
0.0
  3
SW1-CLOSE-HORIZ
  1

  0
POLYLINE
  5
333
  8
0
 66
     1
 10
0.0
 20
0.0
 30
0.0
 40
0.01
 41
0.01
  0
VERTEX
  5
11D4
  8
0
 10
0.25
 20
0.0
 30
0.0
  0
VERTEX
  5
11D5
  8
0
 10
-0.25
 20
0.0
 30
0.0
  0
SEQEND
  5
11D6
  8
0
  0
POLYLINE
  5
334
  8
0
 66
     1
 10
0.0
 20
0.0
 30
0.0
 40
0.01
 41
0.01
  0
VERTEX
  5
11D7
  8
0
 10
-0.1767766952966369
 20
-0.1767766952966368
 30
0.0
  0
VERTEX
  5
11D8
  8
0
 10
0.176776695296637
 20
0.1767766952966369
 30
0.0
  0
SEQEND
  5
11D9
  8
0
  0
POLYLINE
  5
335
  8
0
 66
     1
 10
0.0
 20
0.0
 30
0.0
 70
     1
 40
0.025
 41
0.025
  0
VERTEX
  5
11DA
  8
0
 10
-0.2625
 20
0.0
 30
0.0
 42
1.0
  0
VERTEX
  5
11DB
  8
0
 10
-0.2375
 20
0.0
 30
0.0
 42
1.0
  0
SEQEND
  5
11DC
  8
0
  0
POLYLINE
  5
336
  8
0
 66
     1
 10
0.0
 20
0.0
 30
0.0
 70
     1
 40
0.025
 41
0.025
  0
VERTEX
  5
11DD
  8
0
 10
0.2375
 20
0.0
 30
0.0
 42
1.0
  0
VERTEX
  5
11DE
  8
0
 10
0.2625
 20
0.0
 30
0.0
 42
1.0
  0
SEQEND
  5
11DF
  8
0
  0
ENDBLK
  5
338
  8
0
 62
     6
  0
BLOCK
  8
0
 62
     6
  2
SW1-OPEN-HORIZ
 70
     0
 10
0.0
 20
0.0
 30
0.0
  3
SW1-OPEN-HORIZ
  1

  0
POLYLINE
  5
33A
  8
0
 66
     1
 10
0.0
 20
0.0
 30
0.0
 40
0.01
 41
0.01
  0
VERTEX
  5
11E0
  8
0
 10
-0.1767766952966369
 20
-0.1767766952966368
 30
0.0
  0
VERTEX
  5
11E1
  8
0
 10
0.1767766952966369
 20
0.1767766952966368
 30
0.0
  0
SEQEND
  5
11E2
  8
0
  0
POLYLINE
  5
33B
  8
0
 66
     1
 10
0.0
 20
0.0
 30
0.0
 70
     1
 40
0.025
 41
0.025
  0
VERTEX
  5
11E3
  8
0
 10
-0.2625000000000001
 20
0.0
 30
0.0
 42
1.0
  0
VERTEX
  5
11E4
  8
0
 10
-0.2375
 20
0.0
 30
0.0
 42
1.0
  0
SEQEND
  5
11E5
  8
0
  0
POLYLINE
  5
33C
  8
0
 66
     1
 10
0.0
 20
0.0
 30
0.0
 70
     1
 40
0.025
 41
0.025
  0
VERTEX
  5
11E6
  8
0
 10
0.2374999999999999
 20
0.0
 30
0.0
 42
1.0
  0
VERTEX
  5
11E7
  8
0
 10
0.2624999999999999
 20
0.0
 30
0.0
 42
1.0
  0
SEQEND
  5
11E8
  8
0
  0
ENDBLK
  5
33E
  8
0
 62
     6
  0
BLOCK
  8
0
  2
SW1_HOR_ST1-RED_ST2-GREEN
 70
     2
 10
0.0
 20
0.0
 30
0.0
  3
SW1_HOR_ST1-RED_ST2-GREEN
  1

  0
ATTDEF
  5
340
  8
0
  6
CONTINUOUS
 10
-0.0631753889154396
 20
-0.3695049273373092
 30
0.0
 40
0.1
  1
NULL
  7
ARIAL
  3

  2
LINKAGE
 70
     9
  0
INSERT
  5
341
  8
STATE_2
 62
     1
  2
SW1-CLOSE-HORIZ
 10
0.25
 20
0.0000000000000001
 30
0.0
  0
INSERT
  5
342
  8
STATE_1
 62
     3
  2
SW1-OPEN-HORIZ
 10
0.25
 20
0.0000000000000001
 30
0.0
  0
INSERT
  5
343
  8
0
 62
     6
  2
SW1-CLOSE-HORIZ
 10
0.25
 20
0.0000000000000001
 30
0.0
  0
ENDBLK
  5
345
  8
0
  0
BLOCK
  8
0
  2
LIVETEXT_L
 70
     2
 10
0.0
 20
0.0
 30
0.0
  3
LIVETEXT_L
  1

  0
ATTDEF
  5
34E
  8
0
 10
0.0
 20
0.096244
 30
0.0
 40
0.075
  1
NULL
  7
ARIAL
  3

  2
LINKAGE
 70
     9
  0
ATTDEF
  5
34F
  8
0
 10
0.0
 20
0.0
 30
0.0
 40
0.075
  1
UNLINKED L
  7
ARIAL
  3

  2
TEXT
 70
     8
  0
ENDBLK
  5
351
  8
0
  0
BLOCK
  8
0
  2
ARROW_HEAD_DISPLAY_REF0
 70
     2
 10
0.0
 20
0.0
 30
0.0
  3
ARROW_HEAD_DISPLAY_REF0
  1

  0
ATTDEF
  5
A04
  8
0
 10
-0.25
 20
-0.25
 30
0.0
 40
0.075
  1
NULL
  3

  2
DISPLAY
 70
     9
  0
SOLID
  5
A05
  8
0
 62
     5
 10
0.1249999999999996
 20
-0.0937500000000002
 30
0.0
 11
-0.1249999999999996
 21
0.0000000000000011
 31
0.0
 12
0.1249999999999996
 22
0.0937500000000002
 32
0.0
 13
0.1249999999999996
 23
0.0937500000000002
 33
0.0
  0
ENDBLK
  5
A06
  8
0
  0
BLOCK
  8
0
  2
CIRCUIT_SWITCHER_ST1-GREEN
 70
     2
 10
0.0
 20
0.0
 30
0.0
  3
CIRCUIT_SWITCHER_ST1-GREEN
  1

  0
ATTDEF
  5
E8E
  8
0
  6
CONTINUOUS
 10
-0.0631753889154396
 20
-0.3695049273373092
 30
0.0
 40
0.1
  1
NULL
  7
ARIAL
  3

  2
LINKAGE
 70
     9
  0
LINE
  5
E8F
  8
0
 62
     6
 10
-0.0000000000000004
 20
0.4160971619594384
 30
0.0
 11
-0.0000000000000004
 21
-0.0000000000000001
 31
0.0
  0
LINE
  5
E90
  8
0
 62
     6
 10
-0.0000000000000004
 20
-0.0000000000000001
 30
0.0
 11
0.2835952413135465
 21
-0.0000000000000001
 31
0.0
  0
LINE
  5
E91
  8
0
 62
     6
 10
0.1864400717320716
 20
0.0602420159684058
 30
0.0
 11
0.1864400717320716
 21
0.323919359233816
 31
0.0
  0
ARC
  5
E92
  8
0
 62
     6
 10
0.2057599344961125
 20
-0.0000000000000001
 30
0.0
 40
0.077835306817434
 50
270.0
 51
90.0
  0
LINE
  5
E93
  8
0
 62
     6
 10
0.1864400717320716
 20
0.4160971619594384
 30
0.0
 11
0.2815430528433693
 21
0.4160971619594384
 31
0.0
  0
LINE
  5
E94
  8
0
 62
     6
 10
0.1864400717320716
 20
0.323919359233816
 30
0.0
 11
0.3766460339546707
 21
0.5082749646850573
 31
0.0
  0
LINE
  5
E95
  8
0
 62
     6
 10
0.1864400717320716
 20
0.4160971619594384
 30
0.0
 11
0.1864400717320716
 21
0.6254093943824586
 31
0.0
  0
LINE
  5
E96
  8
0
 62
     6
 10
0.1864400717320716
 20
0.4160971619594384
 30
0.0
 11
-0.0000000000000004
 21
0.4160971619594384
 31
0.0
  0
LINE
  5
E97
  8
STATE_1
 62
     3
 10
-0.0000000000000004
 20
0.4160971619594384
 30
0.0
 11
-0.0000000000000004
 21
-0.0000000000000001
 31
0.0
  0
LINE
  5
E98
  8
STATE_1
 62
     3
 10
-0.0000000000000004
 20
-0.0000000000000001
 30
0.0
 11
0.2835952413135465
 21
-0.0000000000000001
 31
0.0
  0
LINE
  5
E99
  8
STATE_1
 62
     3
 10
0.1864400717320716
 20
0.0602420159684057
 30
0.0
 11
0.1864400717320716
 21
0.323919359233816
 31
0.0
  0
ARC
  5
E9A
  8
STATE_1
 62
     3
 10
0.2057599344961125
 20
-0.0000000000000001
 30
0.0
 40
0.077835306817434
 50
270.0
 51
90.0
  0
LINE
  5
E9B
  8
STATE_1
 62
     3
 10
0.1864400717320716
 20
0.4160971619594384
 30
0.0
 11
0.2815430528433693
 21
0.4160971619594384
 31
0.0
  0
LINE
  5
E9C
  8
STATE_1
 62
     3
 10
0.1864400717320716
 20
0.323919359233816
 30
0.0
 11
0.3766460339546707
 21
0.5082749646850572
 31
0.0
  0
LINE
  5
E9D
  8
STATE_1
 62
     3
 10
0.1864400717320716
 20
0.4160971619594384
 30
0.0
 11
0.1864400717320716
 21
0.6254093943824585
 31
0.0
  0
LINE
  5
E9E
  8
STATE_1
 62
     3
 10
0.1864400717320716
 20
0.4160971619594384
 30
0.0
 11
-0.0000000000000004
 21
0.4160971619594384
 31
0.0
  0
LINE
  5
E9F
  8
STATE_2
 62
     1
 10
-0.0000000000000004
 20
0.4160971619594384
 30
0.0
 11
-0.0000000000000004
 21
-0.0000000000000001
 31
0.0
  0
LINE
  5
EA0
  8
STATE_2
 62
     1
 10
-0.0000000000000004
 20
-0.0000000000000001
 30
0.0
 11
0.2835952413135465
 21
-0.0000000000000001
 31
0.0
  0
LINE
  5
EA1
  8
STATE_2
 62
     1
 10
0.1864400717320716
 20
0.0602420159684058
 30
0.0
 11
0.1864400717320716
 21
0.323919359233816
 31
0.0
  0
ARC
  5
EA2
  8
STATE_2
 62
     1
 10
0.2057599344961125
 20
-0.0000000000000001
 30
0.0
 40
0.077835306817434
 50
270.0
 51
90.0
  0
LINE
  5
EA3
  8
STATE_2
 62
     1
 10
0.1864400717320716
 20
0.4160971619594384
 30
0.0
 11
0.2815430528433693
 21
0.4160971619594384
 31
0.0
  0
LINE
  5
EA4
  8
STATE_2
 62
     1
 10
0.1864400717320716
 20
0.323919359233816
 30
0.0
 11
0.3766460339546707
 21
0.5082749646850573
 31
0.0
  0
LINE
  5
EA5
  8
STATE_2
 62
     1
 10
0.1864400717320716
 20
0.4160971619594384
 30
0.0
 11
0.1864400717320716
 21
0.6254093943824586
 31
0.0
  0
LINE
  5
EA6
  8
STATE_2
 62
     1
 10
0.1864400717320716
 20
0.4160971619594384
 30
0.0
 11
-0.0000000000000004
 21
0.4160971619594384
 31
0.0
  0
ENDBLK
  5
EAA
  8
0
  0
BLOCK
  8
0
  2
SWITCH-1_ST1-GREEN_ST2-RED
 70
     2
 10
0.0
 20
0.0
 30
0.0
  3
SWITCH-1_ST1-GREEN_ST2-RED
  1

  0
ATTDEF
  5
EB0
  8
0
  6
CONTINUOUS
 10
-0.0631753889154396
 20
-0.3695049273373092
 30
0.0
 40
0.1
  1
NULL
  7
ARIAL
  3

  2
LINKAGE
 70
     9
  0
POLYLINE
  5
EB1
  8
0
 66
     1
 10
0.0
 20
0.0
 30
0.0
 40
0.01
 41
0.01
  0
VERTEX
  5
11EE
  8
0
 10
0.5
 20
0.0
 30
0.0
  0
VERTEX
  5
11EF
  8
0
 10
0.0000000000000001
 20
0.0
 30
0.0
  0
SEQEND
  5
11F0
  8
0
  0
POLYLINE
  5
EB2
  8
0
 66
     1
 10
0.0
 20
0.0
 30
0.0
 40
0.01
 41
0.01
  0
VERTEX
  5
11F1
  8
0
 10
0.0000000000000001
 20
0.0000000000000001
 30
0.0
  0
VERTEX
  5
11F2
  8
0
 10
0.5
 20
0.2357758278042004
 30
0.0
  0
SEQEND
  5
11F3
  8
0
  0
POLYLINE
  5
EB3
  8
0
 66
     1
 10
0.0
 20
0.0
 30
0.0
 70
     1
 40
0.025
 41
0.025
  0
VERTEX
  5
11F4
  8
0
 10
-0.0125
 20
0.0
 30
0.0
 42
1.0
  0
VERTEX
  5
11F5
  8
0
 10
0.0125000000000001
 20
0.0
 30
0.0
 42
1.0
  0
SEQEND
  5
11F6
  8
0
  0
POLYLINE
  5
EB4
  8
0
 66
     1
 10
0.0
 20
0.0
 30
0.0
 70
     1
 40
0.025
 41
0.025
  0
VERTEX
  5
11F7
  8
0
 10
0.4875
 20
0.0
 30
0.0
 42
1.0
  0
VERTEX
  5
11F8
  8
0
 10
0.5125
 20
0.0
 30
0.0
 42
1.0
  0
SEQEND
  5
11F9
  8
0
  0
POLYLINE
  5
EB5
  8
0
 66
     1
 10
0.0
 20
0.0
 30
0.0
 40
0.01
 41
0.01
  0
VERTEX
  5
11FA
  8
0
 10
0.2496148761583474
 20
0.1226972818849456
 30
0.0
  0
VERTEX
  5
11FB
  8
0
 10
0.2496148761583474
 20
0.0
 30
0.0
  0
SEQEND
  5
11FC
  8
0
  0
POLYLINE
  5
EB6
  8
0
 66
     1
 10
0.0
 20
0.0
 30
0.0
 40
0.01
 41
0.01
  0
VERTEX
  5
11FD
  8
0
 10
0.293945299840761
 20
0.000458430069401
 30
0.0
  0
VERTEX
  5
11FE
  8
0
 10
0.2047139749452524
 20
0.000458430069401
 30
0.0
  0
SEQEND
  5
11FF
  8
0
  0
POLYLINE
  5
EB7
  8
STATE_1
 66
     1
 10
0.0
 20
0.0
 30
0.0
 40
0.01
 41
0.01
  0
VERTEX
  5
1200
  8
STATE_1
 10
0.0
 20
0.0000000000000001
 30
0.0
  0
VERTEX
  5
1201
  8
STATE_1
 10
0.5
 20
0.2357758278042004
 30
0.0
  0
SEQEND
  5
1202
  8
STATE_1
  0
POLYLINE
  5
EB8
  8
STATE_1
 66
     1
 10
0.0
 20
0.0
 30
0.0
 70
     1
 40
0.025
 41
0.025
  0
VERTEX
  5
1203
  8
STATE_1
 10
-0.0125
 20
0.0000000000000001
 30
0.0
 42
1.0
  0
VERTEX
  5
1204
  8
STATE_1
 10
0.0125000000000002
 20
0.0000000000000001
 30
0.0
 42
1.0
  0
SEQEND
  5
1205
  8
STATE_1
  0
POLYLINE
  5
EB9
  8
STATE_1
 66
     1
 10
0.0
 20
0.0
 30
0.0
 70
     1
 40
0.025
 41
0.025
  0
VERTEX
  5
1206
  8
STATE_1
 10
0.4875
 20
0.0000000000000001
 30
0.0
 42
1.0
  0
VERTEX
  5
1207
  8
STATE_1
 10
0.5125
 20
0.0000000000000001
 30
0.0
 42
1.0
  0
SEQEND
  5
1208
  8
STATE_1
  0
POLYLINE
  5
EBA
  8
STATE_1
 66
     1
 10
0.0
 20
0.0
 30
0.0
 40
0.01
 41
0.01
  0
VERTEX
  5
1209
  8
STATE_1
 10
0.2496148761583474
 20
0.1226972818849457
 30
0.0
  0
VERTEX
  5
120A
  8
STATE_1
 10
0.2496148761583474
 20
0.0000000000000001
 30
0.0
  0
SEQEND
  5
120B
  8
STATE_1
  0
POLYLINE
  5
EBB
  8
STATE_1
 66
     1
 10
0.0
 20
0.0
 30
0.0
 40
0.01
 41
0.01
  0
VERTEX
  5
120C
  8
STATE_1
 10
0.293945299840761
 20
0.0004584300694011
 30
0.0
  0
VERTEX
  5
120D
  8
STATE_1
 10
0.2047139749452524
 20
0.0004584300694011
 30
0.0
  0
SEQEND
  5
120E
  8
STATE_1
  0
POLYLINE
  5
EBC
  8
STATE_2
 66
     1
 10
0.0
 20
0.0
 30
0.0
 40
0.01
 41
0.01
  0
VERTEX
  5
120F
  8
STATE_2
 10
0.5
 20
-0.0000000000000001
 30
0.0
  0
VERTEX
  5
1210
  8
STATE_2
 10
0.0
 20
-0.0000000000000001
 30
0.0
  0
SEQEND
  5
1211
  8
STATE_2
  0
POLYLINE
  5
EBD
  8
STATE_2
 66
     1
 10
0.0
 20
0.0
 30
0.0
 70
     1
 40
0.025
 41
0.025
  0
VERTEX
  5
1212
  8
STATE_2
 10
-0.0125
 20
-0.0000000000000001
 30
0.0
 42
1.0
  0
VERTEX
  5
1213
  8
STATE_2
 10
0.0125000000000002
 20
-0.0000000000000001
 30
0.0
 42
1.0
  0
SEQEND
  5
1214
  8
STATE_2
  0
POLYLINE
  5
EBE
  8
STATE_2
 66
     1
 10
0.0
 20
0.0
 30
0.0
 70
     1
 40
0.025
 41
0.025
  0
VERTEX
  5
1215
  8
STATE_2
 10
0.4875
 20
-0.0000000000000001
 30
0.0
 42
1.0
  0
VERTEX
  5
1216
  8
STATE_2
 10
0.5125
 20
-0.0000000000000001
 30
0.0
 42
1.0
  0
SEQEND
  5
1217
  8
STATE_2
  0
ENDBLK
  5
EC2
  8
0
  0
BLOCK
  8
0
  2
SWITCH-1_ST1-GREEN_ST2-RE0
 70
     2
 10
0.0
 20
0.0
 30
0.0
  3
SWITCH-1_ST1-GREEN_ST2-RE0
  1

  0
ATTDEF
  5
FA5
  8
0
  6
CONTINUOUS
 10
-0.0631753889154396
 20
-0.3695049273373092
 30
0.0
 40
0.1
  1
NULL
  7
ARIAL
  3

  2
LINKAGE
 70
     9
  0
POLYLINE
  5
FA6
  8
0
 66
     1
 10
0.0
 20
0.0
 30
0.0
 40
0.01
 41
0.01
  0
VERTEX
  5
1218
  8
0
 10
0.5
 20
0.0
 30
0.0
  0
VERTEX
  5
1219
  8
0
 10
0.0000000000000001
 20
0.0
 30
0.0
  0
SEQEND
  5
121A
  8
0
  0
POLYLINE
  5
FA7
  8
0
 66
     1
 10
0.0
 20
0.0
 30
0.0
 40
0.01
 41
0.01
  0
VERTEX
  5
121B
  8
0
 10
0.0000000000000001
 20
0.0000000000000001
 30
0.0
  0
VERTEX
  5
121C
  8
0
 10
0.5
 20
0.2357758278042004
 30
0.0
  0
SEQEND
  5
121D
  8
0
  0
POLYLINE
  5
FA8
  8
0
 66
     1
 10
0.0
 20
0.0
 30
0.0
 70
     1
 40
0.025
 41
0.025
  0
VERTEX
  5
121E
  8
0
 10
-0.0125
 20
0.0
 30
0.0
 42
1.0
  0
VERTEX
  5
121F
  8
0
 10
0.0125000000000001
 20
0.0
 30
0.0
 42
1.0
  0
SEQEND
  5
1220
  8
0
  0
POLYLINE
  5
FA9
  8
0
 66
     1
 10
0.0
 20
0.0
 30
0.0
 70
     1
 40
0.025
 41
0.025
  0
VERTEX
  5
1221
  8
0
 10
0.4875
 20
0.0
 30
0.0
 42
1.0
  0
VERTEX
  5
1222
  8
0
 10
0.5125
 20
0.0
 30
0.0
 42
1.0
  0
SEQEND
  5
1223
  8
0
  0
POLYLINE
  5
FAA
  8
0
 66
     1
 10
0.0
 20
0.0
 30
0.0
 40
0.01
 41
0.01
  0
VERTEX
  5
1224
  8
0
 10
0.2496148761583474
 20
0.1226972818849456
 30
0.0
  0
VERTEX
  5
1225
  8
0
 10
0.2496148761583474
 20
0.0
 30
0.0
  0
SEQEND
  5
1226
  8
0
  0
POLYLINE
  5
FAB
  8
0
 66
     1
 10
0.0
 20
0.0
 30
0.0
 40
0.01
 41
0.01
  0
VERTEX
  5
1227
  8
0
 10
0.293945299840761
 20
0.000458430069401
 30
0.0
  0
VERTEX
  5
1228
  8
0
 10
0.2047139749452524
 20
0.000458430069401
 30
0.0
  0
SEQEND
  5
1229
  8
0
  0
POLYLINE
  5
FAC
  8
STATE_1
 66
     1
 10
0.0
 20
0.0
 30
0.0
 40
0.01
 41
0.01
  0
VERTEX
  5
122A
  8
STATE_1
 10
0.0
 20
0.0000000000000001
 30
0.0
  0
VERTEX
  5
122B
  8
STATE_1
 10
0.5
 20
0.2357758278042004
 30
0.0
  0
SEQEND
  5
122C
  8
STATE_1
  0
POLYLINE
  5
FAD
  8
STATE_1
 66
     1
 10
0.0
 20
0.0
 30
0.0
 70
     1
 40
0.025
 41
0.025
  0
VERTEX
  5
122D
  8
STATE_1
 10
-0.0125
 20
0.0000000000000001
 30
0.0
 42
1.0
  0
VERTEX
  5
122E
  8
STATE_1
 10
0.0125000000000002
 20
0.0000000000000001
 30
0.0
 42
1.0
  0
SEQEND
  5
122F
  8
STATE_1
  0
POLYLINE
  5
FAE
  8
STATE_1
 66
     1
 10
0.0
 20
0.0
 30
0.0
 70
     1
 40
0.025
 41
0.025
  0
VERTEX
  5
1230
  8
STATE_1
 10
0.4875
 20
0.0000000000000001
 30
0.0
 42
1.0
  0
VERTEX
  5
1231
  8
STATE_1
 10
0.5125
 20
0.0000000000000001
 30
0.0
 42
1.0
  0
SEQEND
  5
1232
  8
STATE_1
  0
POLYLINE
  5
FAF
  8
STATE_1
 66
     1
 10
0.0
 20
0.0
 30
0.0
 40
0.01
 41
0.01
  0
VERTEX
  5
1233
  8
STATE_1
 10
0.2496148761583474
 20
0.1226972818849457
 30
0.0
  0
VERTEX
  5
1234
  8
STATE_1
 10
0.2496148761583474
 20
0.0000000000000001
 30
0.0
  0
SEQEND
  5
1235
  8
STATE_1
  0
POLYLINE
  5
FB0
  8
STATE_1
 66
     1
 10
0.0
 20
0.0
 30
0.0
 40
0.01
 41
0.01
  0
VERTEX
  5
1236
  8
STATE_1
 10
0.293945299840761
 20
0.0004584300694011
 30
0.0
  0
VERTEX
  5
1237
  8
STATE_1
 10
0.2047139749452524
 20
0.0004584300694011
 30
0.0
  0
SEQEND
  5
1238
  8
STATE_1
  0
POLYLINE
  5
FB1
  8
STATE_2
 66
     1
 10
0.0
 20
0.0
 30
0.0
 40
0.01
 41
0.01
  0
VERTEX
  5
1239
  8
STATE_2
 10
0.5
 20
-0.0000000000000001
 30
0.0
  0
VERTEX
  5
123A
  8
STATE_2
 10
0.0
 20
-0.0000000000000001
 30
0.0
  0
SEQEND
  5
123B
  8
STATE_2
  0
POLYLINE
  5
FB2
  8
STATE_2
 66
     1
 10
0.0
 20
0.0
 30
0.0
 70
     1
 40
0.025
 41
0.025
  0
VERTEX
  5
123C
  8
STATE_2
 10
-0.0125
 20
-0.0000000000000001
 30
0.0
 42
1.0
  0
VERTEX
  5
123D
  8
STATE_2
 10
0.0125000000000002
 20
-0.0000000000000001
 30
0.0
 42
1.0
  0
SEQEND
  5
123E
  8
STATE_2
  0
POLYLINE
  5
FB3
  8
STATE_2
 66
     1
 10
0.0
 20
0.0
 30
0.0
 70
     1
 40
0.025
 41
0.025
  0
VERTEX
  5
123F
  8
STATE_2
 10
0.4875
 20
-0.0000000000000001
 30
0.0
 42
1.0
  0
VERTEX
  5
1240
  8
STATE_2
 10
0.5125
 20
-0.0000000000000001
 30
0.0
 42
1.0
  0
SEQEND
  5
1241
  8
STATE_2
  0
ENDBLK
  5
FB4
  8
0
  0
BLOCK
  8
0
  2
GENAXEH
 70
     0
 10
0.0
 20
0.0
 30
0.0
  3
GENAXEH
  1

  0
LINE
  5
11A9
  8
0
 10
-1.0
 20
0.0
 30
0.0
 11
1.0
 21
0.0
 31
0.0
  0
ENDBLK
  5
11AB
  8
0
  0
ENDSEC
  0
SECTION
  2
ENTITIES
  0
INSERT
  5
251
  8
0
 66
     1
  2
1_LINE_TEXT_DISPLAY_REF_CE
 10
2.9139176157222191
 20
19.293446985449261
 30
0.0
  0
ATTRIB
  5
252
  8
0
 62
     5
 10
2.9379650141501021
 20
19.43901618208432
 30
0.0
 40
0.2
  1

  7
ARIAL
 72
     1
 11
2.9379650141501021
 21
19.43901618208432
 31
0.0
  2
LINE1
 70
     0
  0
ATTRIB
  5
253
  8
0
 10
2.7305255253933232
 20
19.333016145816728
 30
0.0
 40
0.075
  1
NULL
  7
ARIAL
  2
DISPLAY
 70
     9
  0
SEQEND
  5
254
  8
0
  0
INSERT
  5
255
  8
0
 66
     1
  2
1_LINE_TEXT_DISPLAY_REF_CE
 10
1.964121063016063
 20
19.531003282532438
 30
0.0
  0
ATTRIB
  5
256
  8
0
 62
     5
 10
1.9881684614439501
 20
19.676572479167501
 30
0.0
 40
0.2
  1

  7
ARIAL
 72
     1
 11
1.9881684614439501
 21
19.676572479167501
 31
0.0
  2
LINE1
 70
     0
  0
ATTRIB
  5
257
  8
0
 10
1.780728972687168
 20
19.57057244289993
 30
0.0
 40
0.075
  1
NULL
  7
ARIAL
  2
DISPLAY
 70
     9
  0
SEQEND
  5
258
  8
0
  0
INSERT
  5
25E
  8
0
 66
     1
  2
1_LINE_TEXT_DISPLAY_REF_LE
 10
3.490579801370846
 20
18.34322174599393
 30
0.0
  0
ATTRIB
  5
25F
  8
0
 62
     5
 10
3.7146774638217792
 20
18.49082114970928
 30
0.0
 40
0.2
  1

  7
ARIAL
  2
LINE1
 70
     0
  0
ATTRIB
  5
260
  8
0
 10
3.73063142905385
 20
18.38482111344171
 30
0.0
 40
0.075
  1
NULL
  7
ARIAL
  2
DISPLAY
 70
     9
  0
SEQEND
  5
261
  8
0
  0
LINE
  5
2A6
  8
DISPLAY
 62
     4
 10
15.007445564462939
 20
11.580931181779331
 30
0.0
 11
1.1479672009295001
 21
11.580931181779331
 31
0.0
  0
LINE
  5
2A7
  8
DISPLAY
 62
     4
 10
6.2691949815862227
 20
14.181643987520889
 30
0.0
 11
6.2691949815862227
 21
12.708260266463361
 31
0.0
  0
INSERT
  5
382
  8
0
 66
     1
  2
2_STATE_BRKR_SYMBOL_ST1-GR
 10
0.0119766195114259
 20
8.2124145152230543
 30
0.0
  0
ATTRIB
  5
383
  8
0
  6
CONTINUOUS
 62
     6
 10
6.0029785158477633
 20
12.17114975939595
 30
0.0
 40
0.084010003753032
  1
010100010000007b01
  2
LINKAGE
 70
     9
  0
SEQEND
  5
384
  8
0
  0
LINE
  5
385
  8
DISPLAY
 62
     4
 10
6.2691949815862227
 20
12.317623042308099
 30
0.0
 11
6.2691949815862227
 21
11.580931181779331
 31
0.0
  0
TEXT
  5
42B
  8
0
 62
     2
 10
4.9867876170759251
 20
12.592424690312621
 30
0.0
 40
0.215
  1
52/M1
  7
ARIAL
 72
     2
 11
5.9184542837425909
 21
12.592424690312621
 31
0.0
  0
TEXT
  5
488
  8
0
 62
     6
 10
-1.3838843706488131
 20
17.606409802856579
 30
0.0
 40
0.215
  1
115KV SYSTEM
  7
ARIAL
  0
TEXT
  5
489
  8
0
 62
     3
 10
10.60765836538982
 20
16.79937859135951
 30
0.0
 40
0.2949235279081819
  1
BLISS SUBSTATION
  7
ARIAL
 72
     1
 11
12.819584824701179
 21
16.79937859135951
 31
0.0
  0
POLYLINE
  5
48A
  8
0
 62
     4
 66
     1
 10
0.0
 20
0.0
 30
0.0
 70
     1
  0
VERTEX
  5
11E9
  8
0
 62
     4
 10
10.014919102583089
 20
17.472191002101159
 30
0.0
  0
VERTEX
  5
11EA
  8
0
 62
     4
 10
15.66280110009307
 20
17.472191002101159
 30
0.0
  0
VERTEX
  5
11EB
  8
0
 62
     4
 10
15.66280110009307
 20
16.412577768431419
 30
0.0
  0
VERTEX
  5
11EC
  8
0
 62
     4
 10
10.014919102583089
 20
16.412577768431419
 30
0.0
  0
SEQEND
  5
11ED
  8
0
 62
     4
  0
TEXT
  5
4A2
  8
0
 62
     2
 10
3.873022687900944
 20
16.424034256778981
 30
0.0
 40
0.215
  1
Bliss 89/L1
  7
ARIAL
 72
     2
 11
5.8438560212342781
 21
16.424034256778981
 31
0.0
  0
POLYLINE
  5
4B0
  8
0
 62
     2
 66
     1
 10
0.0
 20
0.0
 30
0.0
 70
     8
  0
VERTEX
  5
541
  8
0
 62
     2
 10
6.4809299999999981
 20
14.5878
 30
0.0
 70
    32
  0
VERTEX
  5
542
  8
0
 62
     2
 10
6.4809000000000001
 20
14.584899999999999
 30
0.0
 70
    32
  0
VERTEX
  5
543
  8
0
 62
     2
 10
6.4808000000000003
 20
14.581899999999999
 30
0.0
 70
    32
  0
VERTEX
  5
544
  8
0
 62
     2
 10
6.4806400000000002
 20
14.579000000000001
 30
0.0
 70
    32
  0
VERTEX
  5
545
  8
0
 62
     2
 10
6.4804199999999987
 20
14.576000000000001
 30
0.0
 70
    32
  0
VERTEX
  5
546
  8
0
 62
     2
 10
6.4801299999999991
 20
14.5731
 30
0.0
 70
    32
  0
VERTEX
  5
547
  8
0
 62
     2
 10
6.4797799999999981
 20
14.5701
 30
0.0
 70
    32
  0
VERTEX
  5
548
  8
0
 62
     2
 10
6.4793700000000003
 20
14.5672
 30
0.0
 70
    32
  0
VERTEX
  5
549
  8
0
 62
     2
 10
6.478889999999998
 20
14.564299999999999
 30
0.0
 70
    32
  0
VERTEX
  5
54A
  8
0
 62
     2
 10
6.4783599999999986
 20
14.561400000000001
 30
0.0
 70
    32
  0
VERTEX
  5
54B
  8
0
 62
     2
 10
6.4777599999999991
 20
14.5585
 30
0.0
 70
    32
  0
VERTEX
  5
54C
  8
0
 62
     2
 10
6.4770899999999987
 20
14.5556
 30
0.0
 70
    32
  0
VERTEX
  5
54D
  8
0
 62
     2
 10
6.4763699999999993
 20
14.5528
 30
0.0
 70
    32
  0
VERTEX
  5
54E
  8
0
 62
     2
 10
6.4755900000000004
 20
14.550000000000001
 30
0.0
 70
    32
  0
VERTEX
  5
54F
  8
0
 62
     2
 10
6.4747399999999971
 20
14.5472
 30
0.0
 70
    32
  0
VERTEX
  5
550
  8
0
 62
     2
 10
6.47384
 20
14.5444
 30
0.0
 70
    32
  0
VERTEX
  5
551
  8
0
 62
     2
 10
6.4728699999999986
 20
14.541600000000001
 30
0.0
 70
    32
  0
VERTEX
  5
552
  8
0
 62
     2
 10
6.4718499999999981
 20
14.5389
 30
0.0
 70
    32
  0
VERTEX
  5
553
  8
0
 62
     2
 10
6.4707600000000003
 20
14.536199999999999
 30
0.0
 70
    32
  0
VERTEX
  5
554
  8
0
 62
     2
 10
6.469619999999999
 20
14.5335
 30
0.0
 70
    32
  0
VERTEX
  5
555
  8
0
 62
     2
 10
6.468429999999997
 20
14.530900000000001
 30
0.0
 70
    32
  0
VERTEX
  5
556
  8
0
 62
     2
 10
6.467179999999999
 20
14.5283
 30
0.0
 70
    32
  0
VERTEX
  5
557
  8
0
 62
     2
 10
6.465869999999998
 20
14.5258
 30
0.0
 70
    32
  0
VERTEX
  5
558
  8
0
 62
     2
 10
6.4645000000000001
 20
14.523199999999999
 30
0.0
 70
    32
  0
VERTEX
  5
559
  8
0
 62
     2
 10
6.4630900000000002
 20
14.5207
 30
0.0
 70
    32
  0
VERTEX
  5
55A
  8
0
 62
     2
 10
6.461619999999999
 20
14.5183
 30
0.0
 70
    32
  0
VERTEX
  5
55B
  8
0
 62
     2
 10
6.4600999999999971
 20
14.5159
 30
0.0
 70
    32
  0
VERTEX
  5
55C
  8
0
 62
     2
 10
6.45852
 20
14.513500000000001
 30
0.0
 70
    32
  0
VERTEX
  5
55D
  8
0
 62
     2
 10
6.4569000000000001
 20
14.511200000000001
 30
0.0
 70
    32
  0
VERTEX
  5
55E
  8
0
 62
     2
 10
6.4552300000000002
 20
14.509
 30
0.0
 70
    32
  0
VERTEX
  5
55F
  8
0
 62
     2
 10
6.4535
 20
14.5067
 30
0.0
 70
    32
  0
VERTEX
  5
560
  8
0
 62
     2
 10
6.45174
 20
14.5046
 30
0.0
 70
    32
  0
VERTEX
  5
561
  8
0
 62
     2
 10
6.449919999999997
 20
14.5024
 30
0.0
 70
    32
  0
VERTEX
  5
562
  8
0
 62
     2
 10
6.448059999999999
 20
14.500400000000001
 30
0.0
 70
    32
  0
VERTEX
  5
563
  8
0
 62
     2
 10
6.446159999999999
 20
14.4984
 30
0.0
 70
    32
  0
VERTEX
  5
564
  8
0
 62
     2
 10
6.4442099999999991
 20
14.4964
 30
0.0
 70
    32
  0
VERTEX
  5
565
  8
0
 62
     2
 10
6.4422199999999981
 20
14.4945
 30
0.0
 70
    32
  0
VERTEX
  5
566
  8
0
 62
     2
 10
6.4401900000000003
 20
14.492599999999999
 30
0.0
 70
    32
  0
VERTEX
  5
567
  8
0
 62
     2
 10
6.4381300000000001
 20
14.4908
 30
0.0
 70
    32
  0
VERTEX
  5
568
  8
0
 62
     2
 10
6.4360200000000001
 20
14.489100000000001
 30
0.0
 70
    32
  0
VERTEX
  5
569
  8
0
 62
     2
 10
6.4338800000000003
 20
14.487399999999999
 30
0.0
 70
    32
  0
VERTEX
  5
56A
  8
0
 62
     2
 10
6.4317000000000002
 20
14.485799999999999
 30
0.0
 70
    32
  0
VERTEX
  5
56B
  8
0
 62
     2
 10
6.4294900000000004
 20
14.484299999999999
 30
0.0
 70
    32
  0
VERTEX
  5
56C
  8
0
 62
     2
 10
6.4272400000000003
 20
14.482799999999999
 30
0.0
 70
    32
  0
VERTEX
  5
56D
  8
0
 62
     2
 10
6.4249700000000001
 20
14.481299999999999
 30
0.0
 70
    32
  0
VERTEX
  5
56E
  8
0
 62
     2
 10
6.4226599999999987
 20
14.48
 30
0.0
 70
    32
  0
VERTEX
  5
56F
  8
0
 62
     2
 10
6.4203299999999981
 20
14.4787
 30
0.0
 70
    32
  0
VERTEX
  5
570
  8
0
 62
     2
 10
6.4179599999999981
 20
14.477399999999999
 30
0.0
 70
    32
  0
VERTEX
  5
571
  8
0
 62
     2
 10
6.4155800000000003
 20
14.4763
 30
0.0
 70
    32
  0
VERTEX
  5
572
  8
0
 62
     2
 10
6.4131599999999986
 20
14.475199999999999
 30
0.0
 70
    32
  0
VERTEX
  5
573
  8
0
 62
     2
 10
6.41073
 20
14.4741
 30
0.0
 70
    32
  0
VERTEX
  5
574
  8
0
 62
     2
 10
6.408269999999999
 20
14.4732
 30
0.0
 70
    32
  0
VERTEX
  5
575
  8
0
 62
     2
 10
6.405789999999997
 20
14.472300000000001
 30
0.0
 70
    32
  0
VERTEX
  5
576
  8
0
 62
     2
 10
6.4032999999999971
 20
14.471399999999999
 30
0.0
 70
    32
  0
VERTEX
  5
577
  8
0
 62
     2
 10
6.4007899999999971
 20
14.470700000000001
 30
0.0
 70
    32
  0
VERTEX
  5
578
  8
0
 62
     2
 10
6.3982599999999987
 20
14.470000000000001
 30
0.0
 70
    32
  0
VERTEX
  5
579
  8
0
 62
     2
 10
6.3957199999999981
 20
14.4694
 30
0.0
 70
    32
  0
VERTEX
  5
57A
  8
0
 62
     2
 10
6.3931599999999991
 20
14.4689
 30
0.0
 70
    32
  0
VERTEX
  5
57B
  8
0
 62
     2
 10
6.3906000000000001
 20
14.468400000000001
 30
0.0
 70
    32
  0
VERTEX
  5
57C
  8
0
 62
     2
 10
6.38802
 20
14.468
 30
0.0
 70
    32
  0
VERTEX
  5
57D
  8
0
 62
     2
 10
6.38544
 20
14.467700000000001
 30
0.0
 70
    32
  0
VERTEX
  5
57E
  8
0
 62
     2
 10
6.3828500000000004
 20
14.4674
 30
0.0
 70
    32
  0
VERTEX
  5
57F
  8
0
 62
     2
 10
6.380259999999998
 20
14.4672
 30
0.0
 70
    32
  0
VERTEX
  5
580
  8
0
 62
     2
 10
6.377659999999997
 20
14.4671
 30
0.0
 70
    32
  0
VERTEX
  5
581
  8
0
 62
     2
 10
6.3750599999999986
 20
14.4671
 30
0.0
 70
    32
  0
VERTEX
  5
582
  8
0
 62
     2
 10
6.3724600000000002
 20
14.4671
 30
0.0
 70
    32
  0
VERTEX
  5
583
  8
0
 62
     2
 10
6.369869999999997
 20
14.4672
 30
0.0
 70
    32
  0
VERTEX
  5
584
  8
0
 62
     2
 10
6.3672699999999987
 20
14.4674
 30
0.0
 70
    32
  0
VERTEX
  5
585
  8
0
 62
     2
 10
6.3646900000000004
 20
14.467700000000001
 30
0.0
 70
    32
  0
VERTEX
  5
586
  8
0
 62
     2
 10
6.3620999999999981
 20
14.468
 30
0.0
 70
    32
  0
VERTEX
  5
587
  8
0
 62
     2
 10
6.3595300000000003
 20
14.468400000000001
 30
0.0
 70
    32
  0
VERTEX
  5
588
  8
0
 62
     2
 10
6.3569599999999991
 20
14.4689
 30
0.0
 70
    32
  0
VERTEX
  5
589
  8
0
 62
     2
 10
6.354409999999997
 20
14.4694
 30
0.0
 70
    32
  0
VERTEX
  5
58A
  8
0
 62
     2
 10
6.351869999999999
 20
14.470000000000001
 30
0.0
 70
    32
  0
VERTEX
  5
58B
  8
0
 62
     2
 10
6.3493399999999971
 20
14.470700000000001
 30
0.0
 70
    32
  0
VERTEX
  5
58C
  8
0
 62
     2
 10
6.3468299999999971
 20
14.471399999999999
 30
0.0
 70
    32
  0
VERTEX
  5
58D
  8
0
 62
     2
 10
6.3443300000000002
 20
14.472300000000001
 30
0.0
 70
    32
  0
VERTEX
  5
58E
  8
0
 62
     2
 10
6.3418499999999991
 20
14.4732
 30
0.0
 70
    32
  0
VERTEX
  5
58F
  8
0
 62
     2
 10
6.3394000000000004
 20
14.4741
 30
0.0
 70
    32
  0
VERTEX
  5
590
  8
0
 62
     2
 10
6.3369599999999986
 20
14.475199999999999
 30
0.0
 70
    32
  0
VERTEX
  5
591
  8
0
 62
     2
 10
6.3345500000000001
 20
14.4763
 30
0.0
 70
    32
  0
VERTEX
  5
592
  8
0
 62
     2
 10
6.33216
 20
14.477399999999999
 30
0.0
 70
    32
  0
VERTEX
  5
593
  8
0
 62
     2
 10
6.329799999999997
 20
14.4787
 30
0.0
 70
    32
  0
VERTEX
  5
594
  8
0
 62
     2
 10
6.3274600000000003
 20
14.48
 30
0.0
 70
    32
  0
VERTEX
  5
595
  8
0
 62
     2
 10
6.3251599999999986
 20
14.481299999999999
 30
0.0
 70
    32
  0
VERTEX
  5
596
  8
0
 62
     2
 10
6.3228799999999987
 20
14.482799999999999
 30
0.0
 70
    32
  0
VERTEX
  5
597
  8
0
 62
     2
 10
6.32064
 20
14.484299999999999
 30
0.0
 70
    32
  0
VERTEX
  5
598
  8
0
 62
     2
 10
6.318419999999997
 20
14.485799999999999
 30
0.0
 70
    32
  0
VERTEX
  5
599
  8
0
 62
     2
 10
6.3162500000000001
 20
14.487399999999999
 30
0.0
 70
    32
  0
VERTEX
  5
59A
  8
0
 62
     2
 10
6.314099999999998
 20
14.489100000000001
 30
0.0
 70
    32
  0
VERTEX
  5
59B
  8
0
 62
     2
 10
6.3120000000000003
 20
14.4908
 30
0.0
 70
    32
  0
VERTEX
  5
59C
  8
0
 62
     2
 10
6.3099299999999987
 20
14.492599999999999
 30
0.0
 70
    32
  0
VERTEX
  5
59D
  8
0
 62
     2
 10
6.3079000000000001
 20
14.4945
 30
0.0
 70
    32
  0
VERTEX
  5
59E
  8
0
 62
     2
 10
6.305909999999999
 20
14.4964
 30
0.0
 70
    32
  0
VERTEX
  5
59F
  8
0
 62
     2
 10
6.3039699999999987
 20
14.4984
 30
0.0
 70
    32
  0
VERTEX
  5
5A0
  8
0
 62
     2
 10
6.3020599999999991
 20
14.500400000000001
 30
0.0
 70
    32
  0
VERTEX
  5
5A1
  8
0
 62
     2
 10
6.3002000000000002
 20
14.5024
 30
0.0
 70
    32
  0
VERTEX
  5
5A2
  8
0
 62
     2
 10
6.2983900000000004
 20
14.5046
 30
0.0
 70
    32
  0
VERTEX
  5
5A3
  8
0
 62
     2
 10
6.2966199999999981
 20
14.5067
 30
0.0
 70
    32
  0
VERTEX
  5
5A4
  8
0
 62
     2
 10
6.2949000000000002
 20
14.509
 30
0.0
 70
    32
  0
VERTEX
  5
5A5
  8
0
 62
     2
 10
6.2932300000000003
 20
14.511200000000001
 30
0.0
 70
    32
  0
VERTEX
  5
5A6
  8
0
 62
     2
 10
6.2915999999999981
 20
14.513500000000001
 30
0.0
 70
    32
  0
VERTEX
  5
5A7
  8
0
 62
     2
 10
6.290029999999998
 20
14.5159
 30
0.0
 70
    32
  0
VERTEX
  5
5A8
  8
0
 62
     2
 10
6.2885099999999987
 20
14.5183
 30
0.0
 70
    32
  0
VERTEX
  5
5A9
  8
0
 62
     2
 10
6.2870400000000002
 20
14.5207
 30
0.0
 70
    32
  0
VERTEX
  5
5AA
  8
0
 62
     2
 10
6.2856199999999971
 20
14.523199999999999
 30
0.0
 70
    32
  0
VERTEX
  5
5AB
  8
0
 62
     2
 10
6.2842599999999971
 20
14.5258
 30
0.0
 70
    32
  0
VERTEX
  5
5AC
  8
0
 62
     2
 10
6.2829499999999987
 20
14.5283
 30
0.0
 70
    32
  0
VERTEX
  5
5AD
  8
0
 62
     2
 10
6.2816999999999981
 20
14.530900000000001
 30
0.0
 70
    32
  0
VERTEX
  5
5AE
  8
0
 62
     2
 10
6.2804999999999991
 20
14.5335
 30
0.0
 70
    32
  0
VERTEX
  5
5AF
  8
0
 62
     2
 10
6.2793599999999987
 20
14.536199999999999
 30
0.0
 70
    32
  0
VERTEX
  5
5B0
  8
0
 62
     2
 10
6.2782799999999988
 20
14.5389
 30
0.0
 70
    32
  0
VERTEX
  5
5B1
  8
0
 62
     2
 10
6.2772500000000004
 20
14.541600000000001
 30
0.0
 70
    32
  0
VERTEX
  5
5B2
  8
0
 62
     2
 10
6.2762900000000004
 20
14.5444
 30
0.0
 70
    32
  0
VERTEX
  5
5B3
  8
0
 62
     2
 10
6.2753800000000002
 20
14.5472
 30
0.0
 70
    32
  0
VERTEX
  5
5B4
  8
0
 62
     2
 10
6.27454
 20
14.550000000000001
 30
0.0
 70
    32
  0
VERTEX
  5
5B5
  8
0
 62
     2
 10
6.2737499999999971
 20
14.5528
 30
0.0
 70
    32
  0
VERTEX
  5
5B6
  8
0
 62
     2
 10
6.2730300000000003
 20
14.5556
 30
0.0
 70
    32
  0
VERTEX
  5
5B7
  8
0
 62
     2
 10
6.2723699999999987
 20
14.5585
 30
0.0
 70
    32
  0
VERTEX
  5
5B8
  8
0
 62
     2
 10
6.2717700000000001
 20
14.561400000000001
 30
0.0
 70
    32
  0
VERTEX
  5
5B9
  8
0
 62
     2
 10
6.2712300000000001
 20
14.564299999999999
 30
0.0
 70
    32
  0
VERTEX
  5
5BA
  8
0
 62
     2
 10
6.2707499999999987
 20
14.5672
 30
0.0
 70
    32
  0
VERTEX
  5
5BB
  8
0
 62
     2
 10
6.27034
 20
14.5701
 30
0.0
 70
    32
  0
VERTEX
  5
5BC
  8
0
 62
     2
 10
6.2699899999999991
 20
14.5731
 30
0.0
 70
    32
  0
VERTEX
  5
5BD
  8
0
 62
     2
 10
6.2697000000000003
 20
14.576000000000001
 30
0.0
 70
    32
  0
VERTEX
  5
5BE
  8
0
 62
     2
 10
6.2694799999999971
 20
14.579000000000001
 30
0.0
 70
    32
  0
VERTEX
  5
5BF
  8
0
 62
     2
 10
6.2693199999999987
 20
14.581899999999999
 30
0.0
 70
    32
  0
VERTEX
  5
5C0
  8
0
 62
     2
 10
6.2692300000000003
 20
14.584899999999999
 30
0.0
 70
    32
  0
VERTEX
  5
5C1
  8
0
 62
     2
 10
6.26919
 20
14.5878
 30
0.0
 70
    32
  0
SEQEND
  5
5C2
  8
0
 62
     2
  0
POLYLINE
  5
4B1
  8
0
 62
     2
 66
     1
 10
0.0
 20
0.0
 30
0.0
 70
     8
  0
VERTEX
  5
5C3
  8
0
 62
     2
 10
6.4809299999999981
 20
14.222899999999999
 30
0.0
 70
    32
  0
VERTEX
  5
5C4
  8
0
 62
     2
 10
6.4809000000000001
 20
14.225899999999999
 30
0.0
 70
    32
  0
VERTEX
  5
5C5
  8
0
 62
     2
 10
6.4808000000000003
 20
14.228899999999999
 30
0.0
 70
    32
  0
VERTEX
  5
5C6
  8
0
 62
     2
 10
6.4806400000000002
 20
14.2318
 30
0.0
 70
    32
  0
VERTEX
  5
5C7
  8
0
 62
     2
 10
6.4804199999999987
 20
14.2348
 30
0.0
 70
    32
  0
VERTEX
  5
5C8
  8
0
 62
     2
 10
6.4801299999999991
 20
14.2377
 30
0.0
 70
    32
  0
VERTEX
  5
5C9
  8
0
 62
     2
 10
6.4797799999999981
 20
14.2407
 30
0.0
 70
    32
  0
VERTEX
  5
5CA
  8
0
 62
     2
 10
6.4793700000000003
 20
14.243600000000001
 30
0.0
 70
    32
  0
VERTEX
  5
5CB
  8
0
 62
     2
 10
6.478889999999998
 20
14.246499999999999
 30
0.0
 70
    32
  0
VERTEX
  5
5CC
  8
0
 62
     2
 10
6.4783599999999986
 20
14.2494
 30
0.0
 70
    32
  0
VERTEX
  5
5CD
  8
0
 62
     2
 10
6.4777599999999991
 20
14.2523
 30
0.0
 70
    32
  0
VERTEX
  5
5CE
  8
0
 62
     2
 10
6.4770899999999987
 20
14.255100000000001
 30
0.0
 70
    32
  0
VERTEX
  5
5CF
  8
0
 62
     2
 10
6.4763699999999993
 20
14.257999999999999
 30
0.0
 70
    32
  0
VERTEX
  5
5D0
  8
0
 62
     2
 10
6.4755900000000004
 20
14.2608
 30
0.0
 70
    32
  0
VERTEX
  5
5D1
  8
0
 62
     2
 10
6.4747399999999971
 20
14.2636
 30
0.0
 70
    32
  0
VERTEX
  5
5D2
  8
0
 62
     2
 10
6.47384
 20
14.266400000000001
 30
0.0
 70
    32
  0
VERTEX
  5
5D3
  8
0
 62
     2
 10
6.4728699999999986
 20
14.2691
 30
0.0
 70
    32
  0
VERTEX
  5
5D4
  8
0
 62
     2
 10
6.4718499999999981
 20
14.2719
 30
0.0
 70
    32
  0
VERTEX
  5
5D5
  8
0
 62
     2
 10
6.4707600000000003
 20
14.2746
 30
0.0
 70
    32
  0
VERTEX
  5
5D6
  8
0
 62
     2
 10
6.469619999999999
 20
14.277200000000001
 30
0.0
 70
    32
  0
VERTEX
  5
5D7
  8
0
 62
     2
 10
6.468429999999997
 20
14.2799
 30
0.0
 70
    32
  0
VERTEX
  5
5D8
  8
0
 62
     2
 10
6.467179999999999
 20
14.282500000000001
 30
0.0
 70
    32
  0
VERTEX
  5
5D9
  8
0
 62
     2
 10
6.465869999999998
 20
14.285
 30
0.0
 70
    32
  0
VERTEX
  5
5DA
  8
0
 62
     2
 10
6.4645000000000001
 20
14.2875
 30
0.0
 70
    32
  0
VERTEX
  5
5DB
  8
0
 62
     2
 10
6.4630900000000002
 20
14.289999999999999
 30
0.0
 70
    32
  0
VERTEX
  5
5DC
  8
0
 62
     2
 10
6.461619999999999
 20
14.2925
 30
0.0
 70
    32
  0
VERTEX
  5
5DD
  8
0
 62
     2
 10
6.4600999999999971
 20
14.2949
 30
0.0
 70
    32
  0
VERTEX
  5
5DE
  8
0
 62
     2
 10
6.45852
 20
14.2972
 30
0.0
 70
    32
  0
VERTEX
  5
5DF
  8
0
 62
     2
 10
6.4569000000000001
 20
14.2995
 30
0.0
 70
    32
  0
VERTEX
  5
5E0
  8
0
 62
     2
 10
6.4552300000000002
 20
14.3018
 30
0.0
 70
    32
  0
VERTEX
  5
5E1
  8
0
 62
     2
 10
6.4535
 20
14.304
 30
0.0
 70
    32
  0
VERTEX
  5
5E2
  8
0
 62
     2
 10
6.45174
 20
14.3062
 30
0.0
 70
    32
  0
VERTEX
  5
5E3
  8
0
 62
     2
 10
6.449919999999997
 20
14.308299999999999
 30
0.0
 70
    32
  0
VERTEX
  5
5E4
  8
0
 62
     2
 10
6.448059999999999
 20
14.3104
 30
0.0
 70
    32
  0
VERTEX
  5
5E5
  8
0
 62
     2
 10
6.446159999999999
 20
14.3124
 30
0.0
 70
    32
  0
VERTEX
  5
5E6
  8
0
 62
     2
 10
6.4442099999999991
 20
14.314399999999999
 30
0.0
 70
    32
  0
VERTEX
  5
5E7
  8
0
 62
     2
 10
6.4422199999999981
 20
14.3163
 30
0.0
 70
    32
  0
VERTEX
  5
5E8
  8
0
 62
     2
 10
6.4401900000000003
 20
14.318099999999999
 30
0.0
 70
    32
  0
VERTEX
  5
5E9
  8
0
 62
     2
 10
6.4381300000000001
 20
14.319900000000001
 30
0.0
 70
    32
  0
VERTEX
  5
5EA
  8
0
 62
     2
 10
6.4360200000000001
 20
14.3217
 30
0.0
 70
    32
  0
VERTEX
  5
5EB
  8
0
 62
     2
 10
6.4338800000000003
 20
14.3233
 30
0.0
 70
    32
  0
VERTEX
  5
5EC
  8
0
 62
     2
 10
6.4317000000000002
 20
14.324999999999999
 30
0.0
 70
    32
  0
VERTEX
  5
5ED
  8
0
 62
     2
 10
6.4294900000000004
 20
14.326499999999999
 30
0.0
 70
    32
  0
VERTEX
  5
5EE
  8
0
 62
     2
 10
6.4272400000000003
 20
14.327999999999999
 30
0.0
 70
    32
  0
VERTEX
  5
5EF
  8
0
 62
     2
 10
6.4249700000000001
 20
14.3294
 30
0.0
 70
    32
  0
VERTEX
  5
5F0
  8
0
 62
     2
 10
6.4226599999999987
 20
14.3308
 30
0.0
 70
    32
  0
VERTEX
  5
5F1
  8
0
 62
     2
 10
6.4203299999999981
 20
14.332100000000001
 30
0.0
 70
    32
  0
VERTEX
  5
5F2
  8
0
 62
     2
 10
6.4179599999999981
 20
14.333299999999999
 30
0.0
 70
    32
  0
VERTEX
  5
5F3
  8
0
 62
     2
 10
6.4155800000000003
 20
14.3345
 30
0.0
 70
    32
  0
VERTEX
  5
5F4
  8
0
 62
     2
 10
6.4131599999999986
 20
14.335599999999999
 30
0.0
 70
    32
  0
VERTEX
  5
5F5
  8
0
 62
     2
 10
6.41073
 20
14.336600000000001
 30
0.0
 70
    32
  0
VERTEX
  5
5F6
  8
0
 62
     2
 10
6.408269999999999
 20
14.3376
 30
0.0
 70
    32
  0
VERTEX
  5
5F7
  8
0
 62
     2
 10
6.405789999999997
 20
14.3385
 30
0.0
 70
    32
  0
VERTEX
  5
5F8
  8
0
 62
     2
 10
6.4032999999999971
 20
14.3393
 30
0.0
 70
    32
  0
VERTEX
  5
5F9
  8
0
 62
     2
 10
6.4007899999999971
 20
14.3401
 30
0.0
 70
    32
  0
VERTEX
  5
5FA
  8
0
 62
     2
 10
6.3982599999999987
 20
14.3408
 30
0.0
 70
    32
  0
VERTEX
  5
5FB
  8
0
 62
     2
 10
6.3957199999999981
 20
14.3414
 30
0.0
 70
    32
  0
VERTEX
  5
5FC
  8
0
 62
     2
 10
6.3931599999999991
 20
14.341900000000001
 30
0.0
 70
    32
  0
VERTEX
  5
5FD
  8
0
 62
     2
 10
6.3906000000000001
 20
14.3424
 30
0.0
 70
    32
  0
VERTEX
  5
5FE
  8
0
 62
     2
 10
6.38802
 20
14.3428
 30
0.0
 70
    32
  0
VERTEX
  5
5FF
  8
0
 62
     2
 10
6.38544
 20
14.3431
 30
0.0
 70
    32
  0
VERTEX
  5
600
  8
0
 62
     2
 10
6.3828500000000004
 20
14.343400000000001
 30
0.0
 70
    32
  0
VERTEX
  5
601
  8
0
 62
     2
 10
6.380259999999998
 20
14.343500000000001
 30
0.0
 70
    32
  0
VERTEX
  5
602
  8
0
 62
     2
 10
6.377659999999997
 20
14.3437
 30
0.0
 70
    32
  0
VERTEX
  5
603
  8
0
 62
     2
 10
6.3750599999999986
 20
14.3437
 30
0.0
 70
    32
  0
VERTEX
  5
604
  8
0
 62
     2
 10
6.3724600000000002
 20
14.3437
 30
0.0
 70
    32
  0
VERTEX
  5
605
  8
0
 62
     2
 10
6.369869999999997
 20
14.343500000000001
 30
0.0
 70
    32
  0
VERTEX
  5
606
  8
0
 62
     2
 10
6.3672699999999987
 20
14.343400000000001
 30
0.0
 70
    32
  0
VERTEX
  5
607
  8
0
 62
     2
 10
6.3646900000000004
 20
14.3431
 30
0.0
 70
    32
  0
VERTEX
  5
608
  8
0
 62
     2
 10
6.3620999999999981
 20
14.3428
 30
0.0
 70
    32
  0
VERTEX
  5
609
  8
0
 62
     2
 10
6.3595300000000003
 20
14.3424
 30
0.0
 70
    32
  0
VERTEX
  5
60A
  8
0
 62
     2
 10
6.3569599999999991
 20
14.341900000000001
 30
0.0
 70
    32
  0
VERTEX
  5
60B
  8
0
 62
     2
 10
6.354409999999997
 20
14.3414
 30
0.0
 70
    32
  0
VERTEX
  5
60C
  8
0
 62
     2
 10
6.351869999999999
 20
14.3408
 30
0.0
 70
    32
  0
VERTEX
  5
60D
  8
0
 62
     2
 10
6.3493399999999971
 20
14.3401
 30
0.0
 70
    32
  0
VERTEX
  5
60E
  8
0
 62
     2
 10
6.3468299999999971
 20
14.3393
 30
0.0
 70
    32
  0
VERTEX
  5
60F
  8
0
 62
     2
 10
6.3443300000000002
 20
14.3385
 30
0.0
 70
    32
  0
VERTEX
  5
610
  8
0
 62
     2
 10
6.3418499999999991
 20
14.3376
 30
0.0
 70
    32
  0
VERTEX
  5
611
  8
0
 62
     2
 10
6.3394000000000004
 20
14.336600000000001
 30
0.0
 70
    32
  0
VERTEX
  5
612
  8
0
 62
     2
 10
6.3369599999999986
 20
14.335599999999999
 30
0.0
 70
    32
  0
VERTEX
  5
613
  8
0
 62
     2
 10
6.3345500000000001
 20
14.3345
 30
0.0
 70
    32
  0
VERTEX
  5
614
  8
0
 62
     2
 10
6.33216
 20
14.333299999999999
 30
0.0
 70
    32
  0
VERTEX
  5
615
  8
0
 62
     2
 10
6.329799999999997
 20
14.332100000000001
 30
0.0
 70
    32
  0
VERTEX
  5
616
  8
0
 62
     2
 10
6.3274600000000003
 20
14.3308
 30
0.0
 70
    32
  0
VERTEX
  5
617
  8
0
 62
     2
 10
6.3251599999999986
 20
14.3294
 30
0.0
 70
    32
  0
VERTEX
  5
618
  8
0
 62
     2
 10
6.3228799999999987
 20
14.327999999999999
 30
0.0
 70
    32
  0
VERTEX
  5
619
  8
0
 62
     2
 10
6.32064
 20
14.326499999999999
 30
0.0
 70
    32
  0
VERTEX
  5
61A
  8
0
 62
     2
 10
6.318419999999997
 20
14.324999999999999
 30
0.0
 70
    32
  0
VERTEX
  5
61B
  8
0
 62
     2
 10
6.3162500000000001
 20
14.3233
 30
0.0
 70
    32
  0
VERTEX
  5
61C
  8
0
 62
     2
 10
6.314099999999998
 20
14.3217
 30
0.0
 70
    32
  0
VERTEX
  5
61D
  8
0
 62
     2
 10
6.3120000000000003
 20
14.319900000000001
 30
0.0
 70
    32
  0
VERTEX
  5
61E
  8
0
 62
     2
 10
6.3099299999999987
 20
14.318099999999999
 30
0.0
 70
    32
  0
VERTEX
  5
61F
  8
0
 62
     2
 10
6.3079000000000001
 20
14.3163
 30
0.0
 70
    32
  0
VERTEX
  5
620
  8
0
 62
     2
 10
6.305909999999999
 20
14.314399999999999
 30
0.0
 70
    32
  0
VERTEX
  5
621
  8
0
 62
     2
 10
6.3039699999999987
 20
14.3124
 30
0.0
 70
    32
  0
VERTEX
  5
622
  8
0
 62
     2
 10
6.3020599999999991
 20
14.3104
 30
0.0
 70
    32
  0
VERTEX
  5
623
  8
0
 62
     2
 10
6.3002000000000002
 20
14.308299999999999
 30
0.0
 70
    32
  0
VERTEX
  5
624
  8
0
 62
     2
 10
6.2983900000000004
 20
14.3062
 30
0.0
 70
    32
  0
VERTEX
  5
625
  8
0
 62
     2
 10
6.2966199999999981
 20
14.304
 30
0.0
 70
    32
  0
VERTEX
  5
626
  8
0
 62
     2
 10
6.2949000000000002
 20
14.3018
 30
0.0
 70
    32
  0
VERTEX
  5
627
  8
0
 62
     2
 10
6.2932300000000003
 20
14.2995
 30
0.0
 70
    32
  0
VERTEX
  5
628
  8
0
 62
     2
 10
6.2915999999999981
 20
14.2972
 30
0.0
 70
    32
  0
VERTEX
  5
629
  8
0
 62
     2
 10
6.290029999999998
 20
14.2949
 30
0.0
 70
    32
  0
VERTEX
  5
62A
  8
0
 62
     2
 10
6.2885099999999987
 20
14.2925
 30
0.0
 70
    32
  0
VERTEX
  5
62B
  8
0
 62
     2
 10
6.2870400000000002
 20
14.289999999999999
 30
0.0
 70
    32
  0
VERTEX
  5
62C
  8
0
 62
     2
 10
6.2856199999999971
 20
14.2875
 30
0.0
 70
    32
  0
VERTEX
  5
62D
  8
0
 62
     2
 10
6.2842599999999971
 20
14.285
 30
0.0
 70
    32
  0
VERTEX
  5
62E
  8
0
 62
     2
 10
6.2829499999999987
 20
14.282500000000001
 30
0.0
 70
    32
  0
VERTEX
  5
62F
  8
0
 62
     2
 10
6.2816999999999981
 20
14.2799
 30
0.0
 70
    32
  0
VERTEX
  5
630
  8
0
 62
     2
 10
6.2804999999999991
 20
14.277200000000001
 30
0.0
 70
    32
  0
VERTEX
  5
631
  8
0
 62
     2
 10
6.2793599999999987
 20
14.2746
 30
0.0
 70
    32
  0
VERTEX
  5
632
  8
0
 62
     2
 10
6.2782799999999988
 20
14.2719
 30
0.0
 70
    32
  0
VERTEX
  5
633
  8
0
 62
     2
 10
6.2772500000000004
 20
14.2691
 30
0.0
 70
    32
  0
VERTEX
  5
634
  8
0
 62
     2
 10
6.2762900000000004
 20
14.266400000000001
 30
0.0
 70
    32
  0
VERTEX
  5
635
  8
0
 62
     2
 10
6.2753800000000002
 20
14.2636
 30
0.0
 70
    32
  0
VERTEX
  5
636
  8
0
 62
     2
 10
6.27454
 20
14.2608
 30
0.0
 70
    32
  0
VERTEX
  5
637
  8
0
 62
     2
 10
6.2737499999999971
 20
14.257999999999999
 30
0.0
 70
    32
  0
VERTEX
  5
638
  8
0
 62
     2
 10
6.2730300000000003
 20
14.255100000000001
 30
0.0
 70
    32
  0
VERTEX
  5
639
  8
0
 62
     2
 10
6.2723699999999987
 20
14.2523
 30
0.0
 70
    32
  0
VERTEX
  5
63A
  8
0
 62
     2
 10
6.2717700000000001
 20
14.2494
 30
0.0
 70
    32
  0
VERTEX
  5
63B
  8
0
 62
     2
 10
6.2712300000000001
 20
14.246499999999999
 30
0.0
 70
    32
  0
VERTEX
  5
63C
  8
0
 62
     2
 10
6.2707499999999987
 20
14.243600000000001
 30
0.0
 70
    32
  0
VERTEX
  5
63D
  8
0
 62
     2
 10
6.27034
 20
14.2407
 30
0.0
 70
    32
  0
VERTEX
  5
63E
  8
0
 62
     2
 10
6.2699899999999991
 20
14.2377
 30
0.0
 70
    32
  0
VERTEX
  5
63F
  8
0
 62
     2
 10
6.2697000000000003
 20
14.2348
 30
0.0
 70
    32
  0
VERTEX
  5
640
  8
0
 62
     2
 10
6.2694799999999971
 20
14.2318
 30
0.0
 70
    32
  0
VERTEX
  5
641
  8
0
 62
     2
 10
6.2693199999999987
 20
14.228899999999999
 30
0.0
 70
    32
  0
VERTEX
  5
642
  8
0
 62
     2
 10
6.2692300000000003
 20
14.225899999999999
 30
0.0
 70
    32
  0
VERTEX
  5
643
  8
0
 62
     2
 10
6.26919
 20
14.222899999999999
 30
0.0
 70
    32
  0
SEQEND
  5
644
  8
0
 62
     2
  0
INSERT
  5
4B2
  8
0
 66
     1
  2
2_STATE_BRKR_SYMBOL_ST1-GR
 10
0.0119766195114259
 20
11.26060757548346
 30
0.0
  0
ATTRIB
  5
4B3
  8
0
  6
CONTINUOUS
 62
     6
 10
6.0029785158477633
 20
15.21934281965636
 30
0.0
 40
0.084010003753032
  1
010100010000007301
  2
LINKAGE
 70
     9
  0
SEQEND
  5
4B4
  8
0
  0
POLYLINE
  5
4B5
  8
0
 62
     2
 66
     1
 10
0.0
 20
0.0
 30
0.0
 70
     8
  0
VERTEX
  5
645
  8
0
 62
     2
 10
6.0574599999999981
 20
14.5878
 30
0.0
 70
    32
  0
VERTEX
  5
646
  8
0
 62
     2
 10
6.0574300000000001
 20
14.584899999999999
 30
0.0
 70
    32
  0
VERTEX
  5
647
  8
0
 62
     2
 10
6.0573300000000003
 20
14.581899999999999
 30
0.0
 70
    32
  0
VERTEX
  5
648
  8
0
 62
     2
 10
6.0571699999999993
 20
14.579000000000001
 30
0.0
 70
    32
  0
VERTEX
  5
649
  8
0
 62
     2
 10
6.0569499999999987
 20
14.576000000000001
 30
0.0
 70
    32
  0
VERTEX
  5
64A
  8
0
 62
     2
 10
6.056659999999999
 20
14.5731
 30
0.0
 70
    32
  0
VERTEX
  5
64B
  8
0
 62
     2
 10
6.0563199999999986
 20
14.5701
 30
0.0
 70
    32
  0
VERTEX
  5
64C
  8
0
 62
     2
 10
6.0559000000000003
 20
14.5672
 30
0.0
 70
    32
  0
VERTEX
  5
64D
  8
0
 62
     2
 10
6.0554300000000003
 20
14.564299999999999
 30
0.0
 70
    32
  0
VERTEX
  5
64E
  8
0
 62
     2
 10
6.0548900000000003
 20
14.561400000000001
 30
0.0
 70
    32
  0
VERTEX
  5
64F
  8
0
 62
     2
 10
6.0542899999999991
 20
14.5585
 30
0.0
 70
    32
  0
VERTEX
  5
650
  8
0
 62
     2
 10
6.0536300000000001
 20
14.5556
 30
0.0
 70
    32
  0
VERTEX
  5
651
  8
0
 62
     2
 10
6.0529000000000002
 20
14.5528
 30
0.0
 70
    32
  0
VERTEX
  5
652
  8
0
 62
     2
 10
6.0521199999999986
 20
14.550000000000001
 30
0.0
 70
    32
  0
VERTEX
  5
653
  8
0
 62
     2
 10
6.051269999999997
 20
14.5472
 30
0.0
 70
    32
  0
VERTEX
  5
654
  8
0
 62
     2
 10
6.05037
 20
14.5444
 30
0.0
 70
    32
  0
VERTEX
  5
655
  8
0
 62
     2
 10
6.0494000000000003
 20
14.541600000000001
 30
0.0
 70
    32
  0
VERTEX
  5
656
  8
0
 62
     2
 10
6.0483799999999981
 20
14.5389
 30
0.0
 70
    32
  0
VERTEX
  5
657
  8
0
 62
     2
 10
6.047299999999999
 20
14.536199999999999
 30
0.0
 70
    32
  0
VERTEX
  5
658
  8
0
 62
     2
 10
6.0461599999999986
 20
14.5335
 30
0.0
 70
    32
  0
VERTEX
  5
659
  8
0
 62
     2
 10
6.044959999999997
 20
14.530900000000001
 30
0.0
 70
    32
  0
VERTEX
  5
65A
  8
0
 62
     2
 10
6.043709999999999
 20
14.5283
 30
0.0
 70
    32
  0
VERTEX
  5
65B
  8
0
 62
     2
 10
6.0423999999999971
 20
14.5258
 30
0.0
 70
    32
  0
VERTEX
  5
65C
  8
0
 62
     2
 10
6.0410399999999971
 20
14.523199999999999
 30
0.0
 70
    32
  0
VERTEX
  5
65D
  8
0
 62
     2
 10
6.0396199999999993
 20
14.5207
 30
0.0
 70
    32
  0
VERTEX
  5
65E
  8
0
 62
     2
 10
6.038149999999999
 20
14.5183
 30
0.0
 70
    32
  0
VERTEX
  5
65F
  8
0
 62
     2
 10
6.0366299999999971
 20
14.5159
 30
0.0
 70
    32
  0
VERTEX
  5
660
  8
0
 62
     2
 10
6.03505
 20
14.513500000000001
 30
0.0
 70
    32
  0
VERTEX
  5
661
  8
0
 62
     2
 10
6.0334300000000001
 20
14.511200000000001
 30
0.0
 70
    32
  0
VERTEX
  5
662
  8
0
 62
     2
 10
6.0317600000000002
 20
14.509
 30
0.0
 70
    32
  0
VERTEX
  5
663
  8
0
 62
     2
 10
6.0300399999999987
 20
14.5067
 30
0.0
 70
    32
  0
VERTEX
  5
664
  8
0
 62
     2
 10
6.02827
 20
14.5046
 30
0.0
 70
    32
  0
VERTEX
  5
665
  8
0
 62
     2
 10
6.0264499999999988
 20
14.5024
 30
0.0
 70
    32
  0
VERTEX
  5
666
  8
0
 62
     2
 10
6.024589999999999
 20
14.500400000000001
 30
0.0
 70
    32
  0
VERTEX
  5
667
  8
0
 62
     2
 10
6.0226899999999981
 20
14.4984
 30
0.0
 70
    32
  0
VERTEX
  5
668
  8
0
 62
     2
 10
6.0207399999999991
 20
14.4964
 30
0.0
 70
    32
  0
VERTEX
  5
669
  8
0
 62
     2
 10
6.0187600000000003
 20
14.4945
 30
0.0
 70
    32
  0
VERTEX
  5
66A
  8
0
 62
     2
 10
6.016729999999999
 20
14.492599999999999
 30
0.0
 70
    32
  0
VERTEX
  5
66B
  8
0
 62
     2
 10
6.0146600000000001
 20
14.4908
 30
0.0
 70
    32
  0
VERTEX
  5
66C
  8
0
 62
     2
 10
6.0125500000000001
 20
14.489100000000001
 30
0.0
 70
    32
  0
VERTEX
  5
66D
  8
0
 62
     2
 10
6.0104100000000003
 20
14.487399999999999
 30
0.0
 70
    32
  0
VERTEX
  5
66E
  8
0
 62
     2
 10
6.0082300000000002
 20
14.485799999999999
 30
0.0
 70
    32
  0
VERTEX
  5
66F
  8
0
 62
     2
 10
6.0060199999999986
 20
14.484299999999999
 30
0.0
 70
    32
  0
VERTEX
  5
670
  8
0
 62
     2
 10
6.003779999999999
 20
14.482799999999999
 30
0.0
 70
    32
  0
VERTEX
  5
671
  8
0
 62
     2
 10
6.0015000000000001
 20
14.481299999999999
 30
0.0
 70
    32
  0
VERTEX
  5
672
  8
0
 62
     2
 10
5.9991899999999987
 20
14.48
 30
0.0
 70
    32
  0
VERTEX
  5
673
  8
0
 62
     2
 10
5.9968599999999981
 20
14.4787
 30
0.0
 70
    32
  0
VERTEX
  5
674
  8
0
 62
     2
 10
5.9945000000000004
 20
14.477399999999999
 30
0.0
 70
    32
  0
VERTEX
  5
675
  8
0
 62
     2
 10
5.9921100000000003
 20
14.4763
 30
0.0
 70
    32
  0
VERTEX
  5
676
  8
0
 62
     2
 10
5.9897
 20
14.475199999999999
 30
0.0
 70
    32
  0
VERTEX
  5
677
  8
0
 62
     2
 10
5.98726
 20
14.4741
 30
0.0
 70
    32
  0
VERTEX
  5
678
  8
0
 62
     2
 10
5.984799999999999
 20
14.4732
 30
0.0
 70
    32
  0
VERTEX
  5
679
  8
0
 62
     2
 10
5.9823300000000001
 20
14.472300000000001
 30
0.0
 70
    32
  0
VERTEX
  5
67A
  8
0
 62
     2
 10
5.9798299999999971
 20
14.471399999999999
 30
0.0
 70
    32
  0
VERTEX
  5
67B
  8
0
 62
     2
 10
5.9773199999999971
 20
14.470700000000001
 30
0.0
 70
    32
  0
VERTEX
  5
67C
  8
0
 62
     2
 10
5.9747899999999987
 20
14.470000000000001
 30
0.0
 70
    32
  0
VERTEX
  5
67D
  8
0
 62
     2
 10
5.9722499999999981
 20
14.4694
 30
0.0
 70
    32
  0
VERTEX
  5
67E
  8
0
 62
     2
 10
5.9696899999999991
 20
14.4689
 30
0.0
 70
    32
  0
VERTEX
  5
67F
  8
0
 62
     2
 10
5.96713
 20
14.468400000000001
 30
0.0
 70
    32
  0
VERTEX
  5
680
  8
0
 62
     2
 10
5.96455
 20
14.468
 30
0.0
 70
    32
  0
VERTEX
  5
681
  8
0
 62
     2
 10
5.9619699999999991
 20
14.467700000000001
 30
0.0
 70
    32
  0
VERTEX
  5
682
  8
0
 62
     2
 10
5.9593800000000003
 20
14.4674
 30
0.0
 70
    32
  0
VERTEX
  5
683
  8
0
 62
     2
 10
5.956789999999998
 20
14.4672
 30
0.0
 70
    32
  0
VERTEX
  5
684
  8
0
 62
     2
 10
5.954189999999997
 20
14.4671
 30
0.0
 70
    32
  0
VERTEX
  5
685
  8
0
 62
     2
 10
5.9515900000000004
 20
14.4671
 30
0.0
 70
    32
  0
VERTEX
  5
686
  8
0
 62
     2
 10
5.9489999999999981
 20
14.4671
 30
0.0
 70
    32
  0
VERTEX
  5
687
  8
0
 62
     2
 10
5.946399999999997
 20
14.4672
 30
0.0
 70
    32
  0
VERTEX
  5
688
  8
0
 62
     2
 10
5.94381
 20
14.4674
 30
0.0
 70
    32
  0
VERTEX
  5
689
  8
0
 62
     2
 10
5.9412199999999986
 20
14.467700000000001
 30
0.0
 70
    32
  0
VERTEX
  5
68A
  8
0
 62
     2
 10
5.9386299999999981
 20
14.468
 30
0.0
 70
    32
  0
VERTEX
  5
68B
  8
0
 62
     2
 10
5.9360599999999986
 20
14.468400000000001
 30
0.0
 70
    32
  0
VERTEX
  5
68C
  8
0
 62
     2
 10
5.933489999999999
 20
14.4689
 30
0.0
 70
    32
  0
VERTEX
  5
68D
  8
0
 62
     2
 10
5.930939999999997
 20
14.4694
 30
0.0
 70
    32
  0
VERTEX
  5
68E
  8
0
 62
     2
 10
5.928399999999999
 20
14.470000000000001
 30
0.0
 70
    32
  0
VERTEX
  5
68F
  8
0
 62
     2
 10
5.9258699999999971
 20
14.470700000000001
 30
0.0
 70
    32
  0
VERTEX
  5
690
  8
0
 62
     2
 10
5.9233599999999971
 20
14.471399999999999
 30
0.0
 70
    32
  0
VERTEX
  5
691
  8
0
 62
     2
 10
5.9208600000000002
 20
14.472300000000001
 30
0.0
 70
    32
  0
VERTEX
  5
692
  8
0
 62
     2
 10
5.9183899999999987
 20
14.4732
 30
0.0
 70
    32
  0
VERTEX
  5
693
  8
0
 62
     2
 10
5.9159300000000004
 20
14.4741
 30
0.0
 70
    32
  0
VERTEX
  5
694
  8
0
 62
     2
 10
5.9134900000000004
 20
14.475199999999999
 30
0.0
 70
    32
  0
VERTEX
  5
695
  8
0
 62
     2
 10
5.9110800000000001
 20
14.4763
 30
0.0
 70
    32
  0
VERTEX
  5
696
  8
0
 62
     2
 10
5.9086899999999991
 20
14.477399999999999
 30
0.0
 70
    32
  0
VERTEX
  5
697
  8
0
 62
     2
 10
5.9063299999999987
 20
14.4787
 30
0.0
 70
    32
  0
VERTEX
  5
698
  8
0
 62
     2
 10
5.903999999999999
 20
14.48
 30
0.0
 70
    32
  0
VERTEX
  5
699
  8
0
 62
     2
 10
5.9016900000000003
 20
14.481299999999999
 30
0.0
 70
    32
  0
VERTEX
  5
69A
  8
0
 62
     2
 10
5.8994099999999987
 20
14.482799999999999
 30
0.0
 70
    32
  0
VERTEX
  5
69B
  8
0
 62
     2
 10
5.89717
 20
14.484299999999999
 30
0.0
 70
    32
  0
VERTEX
  5
69C
  8
0
 62
     2
 10
5.8949600000000002
 20
14.485799999999999
 30
0.0
 70
    32
  0
VERTEX
  5
69D
  8
0
 62
     2
 10
5.8927800000000001
 20
14.487399999999999
 30
0.0
 70
    32
  0
VERTEX
  5
69E
  8
0
 62
     2
 10
5.8906400000000003
 20
14.489100000000001
 30
0.0
 70
    32
  0
VERTEX
  5
69F
  8
0
 62
     2
 10
5.8885300000000003
 20
14.4908
 30
0.0
 70
    32
  0
VERTEX
  5
6A0
  8
0
 62
     2
 10
5.8864599999999987
 20
14.492599999999999
 30
0.0
 70
    32
  0
VERTEX
  5
6A1
  8
0
 62
     2
 10
5.88443
 20
14.4945
 30
0.0
 70
    32
  0
VERTEX
  5
6A2
  8
0
 62
     2
 10
5.882439999999999
 20
14.4964
 30
0.0
 70
    32
  0
VERTEX
  5
6A3
  8
0
 62
     2
 10
5.8804999999999987
 20
14.4984
 30
0.0
 70
    32
  0
VERTEX
  5
6A4
  8
0
 62
     2
 10
5.8785899999999991
 20
14.500400000000001
 30
0.0
 70
    32
  0
VERTEX
  5
6A5
  8
0
 62
     2
 10
5.8767300000000002
 20
14.5024
 30
0.0
 70
    32
  0
VERTEX
  5
6A6
  8
0
 62
     2
 10
5.8749199999999986
 20
14.5046
 30
0.0
 70
    32
  0
VERTEX
  5
6A7
  8
0
 62
     2
 10
5.8731499999999981
 20
14.5067
 30
0.0
 70
    32
  0
VERTEX
  5
6A8
  8
0
 62
     2
 10
5.8714300000000001
 20
14.509
 30
0.0
 70
    32
  0
VERTEX
  5
6A9
  8
0
 62
     2
 10
5.8697600000000003
 20
14.511200000000001
 30
0.0
 70
    32
  0
VERTEX
  5
6AA
  8
0
 62
     2
 10
5.8681299999999981
 20
14.513500000000001
 30
0.0
 70
    32
  0
VERTEX
  5
6AB
  8
0
 62
     2
 10
5.8665599999999971
 20
14.5159
 30
0.0
 70
    32
  0
VERTEX
  5
6AC
  8
0
 62
     2
 10
5.8650399999999987
 20
14.5183
 30
0.0
 70
    32
  0
VERTEX
  5
6AD
  8
0
 62
     2
 10
5.8635699999999993
 20
14.5207
 30
0.0
 70
    32
  0
VERTEX
  5
6AE
  8
0
 62
     2
 10
5.8621499999999971
 20
14.523199999999999
 30
0.0
 70
    32
  0
VERTEX
  5
6AF
  8
0
 62
     2
 10
5.8607899999999971
 20
14.5258
 30
0.0
 70
    32
  0
VERTEX
  5
6B0
  8
0
 62
     2
 10
5.8594799999999987
 20
14.5283
 30
0.0
 70
    32
  0
VERTEX
  5
6B1
  8
0
 62
     2
 10
5.858229999999998
 20
14.530900000000001
 30
0.0
 70
    32
  0
VERTEX
  5
6B2
  8
0
 62
     2
 10
5.8570299999999991
 20
14.5335
 30
0.0
 70
    32
  0
VERTEX
  5
6B3
  8
0
 62
     2
 10
5.8558899999999987
 20
14.536199999999999
 30
0.0
 70
    32
  0
VERTEX
  5
6B4
  8
0
 62
     2
 10
5.8548099999999987
 20
14.5389
 30
0.0
 70
    32
  0
VERTEX
  5
6B5
  8
0
 62
     2
 10
5.85379
 20
14.541600000000001
 30
0.0
 70
    32
  0
VERTEX
  5
6B6
  8
0
 62
     2
 10
5.8528199999999986
 20
14.5444
 30
0.0
 70
    32
  0
VERTEX
  5
6B7
  8
0
 62
     2
 10
5.851919999999998
 20
14.5472
 30
0.0
 70
    32
  0
VERTEX
  5
6B8
  8
0
 62
     2
 10
5.8510699999999991
 20
14.550000000000001
 30
0.0
 70
    32
  0
VERTEX
  5
6B9
  8
0
 62
     2
 10
5.8502900000000002
 20
14.5528
 30
0.0
 70
    32
  0
VERTEX
  5
6BA
  8
0
 62
     2
 10
5.8495600000000003
 20
14.5556
 30
0.0
 70
    32
  0
VERTEX
  5
6BB
  8
0
 62
     2
 10
5.8489000000000004
 20
14.5585
 30
0.0
 70
    32
  0
VERTEX
  5
6BC
  8
0
 62
     2
 10
5.8483000000000001
 20
14.561400000000001
 30
0.0
 70
    32
  0
VERTEX
  5
6BD
  8
0
 62
     2
 10
5.8477600000000001
 20
14.564299999999999
 30
0.0
 70
    32
  0
VERTEX
  5
6BE
  8
0
 62
     2
 10
5.8472900000000001
 20
14.5672
 30
0.0
 70
    32
  0
VERTEX
  5
6BF
  8
0
 62
     2
 10
5.84687
 20
14.5701
 30
0.0
 70
    32
  0
VERTEX
  5
6C0
  8
0
 62
     2
 10
5.8465199999999991
 20
14.5731
 30
0.0
 70
    32
  0
VERTEX
  5
6C1
  8
0
 62
     2
 10
5.8462399999999981
 20
14.576000000000001
 30
0.0
 70
    32
  0
VERTEX
  5
6C2
  8
0
 62
     2
 10
5.846009999999997
 20
14.579000000000001
 30
0.0
 70
    32
  0
VERTEX
  5
6C3
  8
0
 62
     2
 10
5.8458500000000004
 20
14.581899999999999
 30
0.0
 70
    32
  0
VERTEX
  5
6C4
  8
0
 62
     2
 10
5.8457600000000003
 20
14.584899999999999
 30
0.0
 70
    32
  0
VERTEX
  5
6C5
  8
0
 62
     2
 10
5.845729999999997
 20
14.5878
 30
0.0
 70
    32
  0
SEQEND
  5
6C6
  8
0
 62
     2
  0
POLYLINE
  5
4B6
  8
0
 62
     2
 66
     1
 10
0.0
 20
0.0
 30
0.0
 70
     8
  0
VERTEX
  5
6C7
  8
0
 62
     2
 10
6.0574599999999981
 20
14.222899999999999
 30
0.0
 70
    32
  0
VERTEX
  5
6C8
  8
0
 62
     2
 10
6.0574300000000001
 20
14.225899999999999
 30
0.0
 70
    32
  0
VERTEX
  5
6C9
  8
0
 62
     2
 10
6.0573300000000003
 20
14.228899999999999
 30
0.0
 70
    32
  0
VERTEX
  5
6CA
  8
0
 62
     2
 10
6.0571699999999993
 20
14.2318
 30
0.0
 70
    32
  0
VERTEX
  5
6CB
  8
0
 62
     2
 10
6.0569499999999987
 20
14.2348
 30
0.0
 70
    32
  0
VERTEX
  5
6CC
  8
0
 62
     2
 10
6.056659999999999
 20
14.2377
 30
0.0
 70
    32
  0
VERTEX
  5
6CD
  8
0
 62
     2
 10
6.0563199999999986
 20
14.2407
 30
0.0
 70
    32
  0
VERTEX
  5
6CE
  8
0
 62
     2
 10
6.0559000000000003
 20
14.243600000000001
 30
0.0
 70
    32
  0
VERTEX
  5
6CF
  8
0
 62
     2
 10
6.0554300000000003
 20
14.246499999999999
 30
0.0
 70
    32
  0
VERTEX
  5
6D0
  8
0
 62
     2
 10
6.0548900000000003
 20
14.2494
 30
0.0
 70
    32
  0
VERTEX
  5
6D1
  8
0
 62
     2
 10
6.0542899999999991
 20
14.2523
 30
0.0
 70
    32
  0
VERTEX
  5
6D2
  8
0
 62
     2
 10
6.0536300000000001
 20
14.255100000000001
 30
0.0
 70
    32
  0
VERTEX
  5
6D3
  8
0
 62
     2
 10
6.0529000000000002
 20
14.257999999999999
 30
0.0
 70
    32
  0
VERTEX
  5
6D4
  8
0
 62
     2
 10
6.0521199999999986
 20
14.2608
 30
0.0
 70
    32
  0
VERTEX
  5
6D5
  8
0
 62
     2
 10
6.051269999999997
 20
14.2636
 30
0.0
 70
    32
  0
VERTEX
  5
6D6
  8
0
 62
     2
 10
6.05037
 20
14.266400000000001
 30
0.0
 70
    32
  0
VERTEX
  5
6D7
  8
0
 62
     2
 10
6.0494000000000003
 20
14.2691
 30
0.0
 70
    32
  0
VERTEX
  5
6D8
  8
0
 62
     2
 10
6.0483799999999981
 20
14.2719
 30
0.0
 70
    32
  0
VERTEX
  5
6D9
  8
0
 62
     2
 10
6.047299999999999
 20
14.2746
 30
0.0
 70
    32
  0
VERTEX
  5
6DA
  8
0
 62
     2
 10
6.0461599999999986
 20
14.277200000000001
 30
0.0
 70
    32
  0
VERTEX
  5
6DB
  8
0
 62
     2
 10
6.044959999999997
 20
14.2799
 30
0.0
 70
    32
  0
VERTEX
  5
6DC
  8
0
 62
     2
 10
6.043709999999999
 20
14.282500000000001
 30
0.0
 70
    32
  0
VERTEX
  5
6DD
  8
0
 62
     2
 10
6.0423999999999971
 20
14.285
 30
0.0
 70
    32
  0
VERTEX
  5
6DE
  8
0
 62
     2
 10
6.0410399999999971
 20
14.2875
 30
0.0
 70
    32
  0
VERTEX
  5
6DF
  8
0
 62
     2
 10
6.0396199999999993
 20
14.289999999999999
 30
0.0
 70
    32
  0
VERTEX
  5
6E0
  8
0
 62
     2
 10
6.038149999999999
 20
14.2925
 30
0.0
 70
    32
  0
VERTEX
  5
6E1
  8
0
 62
     2
 10
6.0366299999999971
 20
14.2949
 30
0.0
 70
    32
  0
VERTEX
  5
6E2
  8
0
 62
     2
 10
6.03505
 20
14.2972
 30
0.0
 70
    32
  0
VERTEX
  5
6E3
  8
0
 62
     2
 10
6.0334300000000001
 20
14.2995
 30
0.0
 70
    32
  0
VERTEX
  5
6E4
  8
0
 62
     2
 10
6.0317600000000002
 20
14.3018
 30
0.0
 70
    32
  0
VERTEX
  5
6E5
  8
0
 62
     2
 10
6.0300399999999987
 20
14.304
 30
0.0
 70
    32
  0
VERTEX
  5
6E6
  8
0
 62
     2
 10
6.02827
 20
14.3062
 30
0.0
 70
    32
  0
VERTEX
  5
6E7
  8
0
 62
     2
 10
6.0264499999999988
 20
14.308299999999999
 30
0.0
 70
    32
  0
VERTEX
  5
6E8
  8
0
 62
     2
 10
6.024589999999999
 20
14.3104
 30
0.0
 70
    32
  0
VERTEX
  5
6E9
  8
0
 62
     2
 10
6.0226899999999981
 20
14.3124
 30
0.0
 70
    32
  0
VERTEX
  5
6EA
  8
0
 62
     2
 10
6.0207399999999991
 20
14.314399999999999
 30
0.0
 70
    32
  0
VERTEX
  5
6EB
  8
0
 62
     2
 10
6.0187600000000003
 20
14.3163
 30
0.0
 70
    32
  0
VERTEX
  5
6EC
  8
0
 62
     2
 10
6.016729999999999
 20
14.318099999999999
 30
0.0
 70
    32
  0
VERTEX
  5
6ED
  8
0
 62
     2
 10
6.0146600000000001
 20
14.319900000000001
 30
0.0
 70
    32
  0
VERTEX
  5
6EE
  8
0
 62
     2
 10
6.0125500000000001
 20
14.3217
 30
0.0
 70
    32
  0
VERTEX
  5
6EF
  8
0
 62
     2
 10
6.0104100000000003
 20
14.3233
 30
0.0
 70
    32
  0
VERTEX
  5
6F0
  8
0
 62
     2
 10
6.0082300000000002
 20
14.324999999999999
 30
0.0
 70
    32
  0
VERTEX
  5
6F1
  8
0
 62
     2
 10
6.0060199999999986
 20
14.326499999999999
 30
0.0
 70
    32
  0
VERTEX
  5
6F2
  8
0
 62
     2
 10
6.003779999999999
 20
14.327999999999999
 30
0.0
 70
    32
  0
VERTEX
  5
6F3
  8
0
 62
     2
 10
6.0015000000000001
 20
14.3294
 30
0.0
 70
    32
  0
VERTEX
  5
6F4
  8
0
 62
     2
 10
5.9991899999999987
 20
14.3308
 30
0.0
 70
    32
  0
VERTEX
  5
6F5
  8
0
 62
     2
 10
5.9968599999999981
 20
14.332100000000001
 30
0.0
 70
    32
  0
VERTEX
  5
6F6
  8
0
 62
     2
 10
5.9945000000000004
 20
14.333299999999999
 30
0.0
 70
    32
  0
VERTEX
  5
6F7
  8
0
 62
     2
 10
5.9921100000000003
 20
14.3345
 30
0.0
 70
    32
  0
VERTEX
  5
6F8
  8
0
 62
     2
 10
5.9897
 20
14.335599999999999
 30
0.0
 70
    32
  0
VERTEX
  5
6F9
  8
0
 62
     2
 10
5.98726
 20
14.336600000000001
 30
0.0
 70
    32
  0
VERTEX
  5
6FA
  8
0
 62
     2
 10
5.984799999999999
 20
14.3376
 30
0.0
 70
    32
  0
VERTEX
  5
6FB
  8
0
 62
     2
 10
5.9823300000000001
 20
14.3385
 30
0.0
 70
    32
  0
VERTEX
  5
6FC
  8
0
 62
     2
 10
5.9798299999999971
 20
14.3393
 30
0.0
 70
    32
  0
VERTEX
  5
6FD
  8
0
 62
     2
 10
5.9773199999999971
 20
14.3401
 30
0.0
 70
    32
  0
VERTEX
  5
6FE
  8
0
 62
     2
 10
5.9747899999999987
 20
14.3408
 30
0.0
 70
    32
  0
VERTEX
  5
6FF
  8
0
 62
     2
 10
5.9722499999999981
 20
14.3414
 30
0.0
 70
    32
  0
VERTEX
  5
700
  8
0
 62
     2
 10
5.9696899999999991
 20
14.341900000000001
 30
0.0
 70
    32
  0
VERTEX
  5
701
  8
0
 62
     2
 10
5.96713
 20
14.3424
 30
0.0
 70
    32
  0
VERTEX
  5
702
  8
0
 62
     2
 10
5.96455
 20
14.3428
 30
0.0
 70
    32
  0
VERTEX
  5
703
  8
0
 62
     2
 10
5.9619699999999991
 20
14.3431
 30
0.0
 70
    32
  0
VERTEX
  5
704
  8
0
 62
     2
 10
5.9593800000000003
 20
14.343400000000001
 30
0.0
 70
    32
  0
VERTEX
  5
705
  8
0
 62
     2
 10
5.956789999999998
 20
14.343500000000001
 30
0.0
 70
    32
  0
VERTEX
  5
706
  8
0
 62
     2
 10
5.954189999999997
 20
14.3437
 30
0.0
 70
    32
  0
VERTEX
  5
707
  8
0
 62
     2
 10
5.9515900000000004
 20
14.3437
 30
0.0
 70
    32
  0
VERTEX
  5
708
  8
0
 62
     2
 10
5.9489999999999981
 20
14.3437
 30
0.0
 70
    32
  0
VERTEX
  5
709
  8
0
 62
     2
 10
5.946399999999997
 20
14.343500000000001
 30
0.0
 70
    32
  0
VERTEX
  5
70A
  8
0
 62
     2
 10
5.94381
 20
14.343400000000001
 30
0.0
 70
    32
  0
VERTEX
  5
70B
  8
0
 62
     2
 10
5.9412199999999986
 20
14.3431
 30
0.0
 70
    32
  0
VERTEX
  5
70C
  8
0
 62
     2
 10
5.9386299999999981
 20
14.3428
 30
0.0
 70
    32
  0
VERTEX
  5
70D
  8
0
 62
     2
 10
5.9360599999999986
 20
14.3424
 30
0.0
 70
    32
  0
VERTEX
  5
70E
  8
0
 62
     2
 10
5.933489999999999
 20
14.341900000000001
 30
0.0
 70
    32
  0
VERTEX
  5
70F
  8
0
 62
     2
 10
5.930939999999997
 20
14.3414
 30
0.0
 70
    32
  0
VERTEX
  5
710
  8
0
 62
     2
 10
5.928399999999999
 20
14.3408
 30
0.0
 70
    32
  0
VERTEX
  5
711
  8
0
 62
     2
 10
5.9258699999999971
 20
14.3401
 30
0.0
 70
    32
  0
VERTEX
  5
712
  8
0
 62
     2
 10
5.9233599999999971
 20
14.3393
 30
0.0
 70
    32
  0
VERTEX
  5
713
  8
0
 62
     2
 10
5.9208600000000002
 20
14.3385
 30
0.0
 70
    32
  0
VERTEX
  5
714
  8
0
 62
     2
 10
5.9183899999999987
 20
14.3376
 30
0.0
 70
    32
  0
VERTEX
  5
715
  8
0
 62
     2
 10
5.9159300000000004
 20
14.336600000000001
 30
0.0
 70
    32
  0
VERTEX
  5
716
  8
0
 62
     2
 10
5.9134900000000004
 20
14.335599999999999
 30
0.0
 70
    32
  0
VERTEX
  5
717
  8
0
 62
     2
 10
5.9110800000000001
 20
14.3345
 30
0.0
 70
    32
  0
VERTEX
  5
718
  8
0
 62
     2
 10
5.9086899999999991
 20
14.333299999999999
 30
0.0
 70
    32
  0
VERTEX
  5
719
  8
0
 62
     2
 10
5.9063299999999987
 20
14.332100000000001
 30
0.0
 70
    32
  0
VERTEX
  5
71A
  8
0
 62
     2
 10
5.903999999999999
 20
14.3308
 30
0.0
 70
    32
  0
VERTEX
  5
71B
  8
0
 62
     2
 10
5.9016900000000003
 20
14.3294
 30
0.0
 70
    32
  0
VERTEX
  5
71C
  8
0
 62
     2
 10
5.8994099999999987
 20
14.327999999999999
 30
0.0
 70
    32
  0
VERTEX
  5
71D
  8
0
 62
     2
 10
5.89717
 20
14.326499999999999
 30
0.0
 70
    32
  0
VERTEX
  5
71E
  8
0
 62
     2
 10
5.8949600000000002
 20
14.324999999999999
 30
0.0
 70
    32
  0
VERTEX
  5
71F
  8
0
 62
     2
 10
5.8927800000000001
 20
14.3233
 30
0.0
 70
    32
  0
VERTEX
  5
720
  8
0
 62
     2
 10
5.8906400000000003
 20
14.3217
 30
0.0
 70
    32
  0
VERTEX
  5
721
  8
0
 62
     2
 10
5.8885300000000003
 20
14.319900000000001
 30
0.0
 70
    32
  0
VERTEX
  5
722
  8
0
 62
     2
 10
5.8864599999999987
 20
14.318099999999999
 30
0.0
 70
    32
  0
VERTEX
  5
723
  8
0
 62
     2
 10
5.88443
 20
14.3163
 30
0.0
 70
    32
  0
VERTEX
  5
724
  8
0
 62
     2
 10
5.882439999999999
 20
14.314399999999999
 30
0.0
 70
    32
  0
VERTEX
  5
725
  8
0
 62
     2
 10
5.8804999999999987
 20
14.3124
 30
0.0
 70
    32
  0
VERTEX
  5
726
  8
0
 62
     2
 10
5.8785899999999991
 20
14.3104
 30
0.0
 70
    32
  0
VERTEX
  5
727
  8
0
 62
     2
 10
5.8767300000000002
 20
14.308299999999999
 30
0.0
 70
    32
  0
VERTEX
  5
728
  8
0
 62
     2
 10
5.8749199999999986
 20
14.3062
 30
0.0
 70
    32
  0
VERTEX
  5
729
  8
0
 62
     2
 10
5.8731499999999981
 20
14.304
 30
0.0
 70
    32
  0
VERTEX
  5
72A
  8
0
 62
     2
 10
5.8714300000000001
 20
14.3018
 30
0.0
 70
    32
  0
VERTEX
  5
72B
  8
0
 62
     2
 10
5.8697600000000003
 20
14.2995
 30
0.0
 70
    32
  0
VERTEX
  5
72C
  8
0
 62
     2
 10
5.8681299999999981
 20
14.2972
 30
0.0
 70
    32
  0
VERTEX
  5
72D
  8
0
 62
     2
 10
5.8665599999999971
 20
14.2949
 30
0.0
 70
    32
  0
VERTEX
  5
72E
  8
0
 62
     2
 10
5.8650399999999987
 20
14.2925
 30
0.0
 70
    32
  0
VERTEX
  5
72F
  8
0
 62
     2
 10
5.8635699999999993
 20
14.289999999999999
 30
0.0
 70
    32
  0
VERTEX
  5
730
  8
0
 62
     2
 10
5.8621499999999971
 20
14.2875
 30
0.0
 70
    32
  0
VERTEX
  5
731
  8
0
 62
     2
 10
5.8607899999999971
 20
14.285
 30
0.0
 70
    32
  0
VERTEX
  5
732
  8
0
 62
     2
 10
5.8594799999999987
 20
14.282500000000001
 30
0.0
 70
    32
  0
VERTEX
  5
733
  8
0
 62
     2
 10
5.858229999999998
 20
14.2799
 30
0.0
 70
    32
  0
VERTEX
  5
734
  8
0
 62
     2
 10
5.8570299999999991
 20
14.277200000000001
 30
0.0
 70
    32
  0
VERTEX
  5
735
  8
0
 62
     2
 10
5.8558899999999987
 20
14.2746
 30
0.0
 70
    32
  0
VERTEX
  5
736
  8
0
 62
     2
 10
5.8548099999999987
 20
14.2719
 30
0.0
 70
    32
  0
VERTEX
  5
737
  8
0
 62
     2
 10
5.85379
 20
14.2691
 30
0.0
 70
    32
  0
VERTEX
  5
738
  8
0
 62
     2
 10
5.8528199999999986
 20
14.266400000000001
 30
0.0
 70
    32
  0
VERTEX
  5
739
  8
0
 62
     2
 10
5.851919999999998
 20
14.2636
 30
0.0
 70
    32
  0
VERTEX
  5
73A
  8
0
 62
     2
 10
5.8510699999999991
 20
14.2608
 30
0.0
 70
    32
  0
VERTEX
  5
73B
  8
0
 62
     2
 10
5.8502900000000002
 20
14.257999999999999
 30
0.0
 70
    32
  0
VERTEX
  5
73C
  8
0
 62
     2
 10
5.8495600000000003
 20
14.255100000000001
 30
0.0
 70
    32
  0
VERTEX
  5
73D
  8
0
 62
     2
 10
5.8489000000000004
 20
14.2523
 30
0.0
 70
    32
  0
VERTEX
  5
73E
  8
0
 62
     2
 10
5.8483000000000001
 20
14.2494
 30
0.0
 70
    32
  0
VERTEX
  5
73F
  8
0
 62
     2
 10
5.8477600000000001
 20
14.246499999999999
 30
0.0
 70
    32
  0
VERTEX
  5
740
  8
0
 62
     2
 10
5.8472900000000001
 20
14.243600000000001
 30
0.0
 70
    32
  0
VERTEX
  5
741
  8
0
 62
     2
 10
5.84687
 20
14.2407
 30
0.0
 70
    32
  0
VERTEX
  5
742
  8
0
 62
     2
 10
5.8465199999999991
 20
14.2377
 30
0.0
 70
    32
  0
VERTEX
  5
743
  8
0
 62
     2
 10
5.8462399999999981
 20
14.2348
 30
0.0
 70
    32
  0
VERTEX
  5
744
  8
0
 62
     2
 10
5.846009999999997
 20
14.2318
 30
0.0
 70
    32
  0
VERTEX
  5
745
  8
0
 62
     2
 10
5.8458500000000004
 20
14.228899999999999
 30
0.0
 70
    32
  0
VERTEX
  5
746
  8
0
 62
     2
 10
5.8457600000000003
 20
14.225899999999999
 30
0.0
 70
    32
  0
VERTEX
  5
747
  8
0
 62
     2
 10
5.845729999999997
 20
14.222899999999999
 30
0.0
 70
    32
  0
SEQEND
  5
748
  8
0
 62
     2
  0
LINE
  5
4B7
  8
DISPLAY
 62
     2
 10
5.8457272036482131
 20
14.22293076224835
 30
0.0
 11
5.8457272036482131
 21
14.181643987520889
 31
0.0
  0
LINE
  5
4B8
  8
DISPLAY
 62
     2
 10
5.8457272036482131
 20
14.587837467312291
 30
0.0
 11
5.8457272036482131
 21
14.629124242039749
 31
0.0
  0
LINE
  5
4B9
  8
DISPLAY
 62
     4
 10
6.2691949815862227
 20
15.365816102568511
 30
0.0
 11
6.2691949815862227
 21
14.62912424203974
 31
0.0
  0
POLYLINE
  5
4BA
  8
0
 62
     2
 66
     1
 10
0.0
 20
0.0
 30
0.0
 70
     8
  0
VERTEX
  5
749
  8
0
 62
     2
 10
6.26919
 20
14.5878
 30
0.0
 70
    32
  0
VERTEX
  5
74A
  8
0
 62
     2
 10
6.2691600000000003
 20
14.584899999999999
 30
0.0
 70
    32
  0
VERTEX
  5
74B
  8
0
 62
     2
 10
6.2690700000000001
 20
14.581899999999999
 30
0.0
 70
    32
  0
VERTEX
  5
74C
  8
0
 62
     2
 10
6.2689099999999991
 20
14.579000000000001
 30
0.0
 70
    32
  0
VERTEX
  5
74D
  8
0
 62
     2
 10
6.2686900000000003
 20
14.576000000000001
 30
0.0
 70
    32
  0
VERTEX
  5
74E
  8
0
 62
     2
 10
6.2683999999999971
 20
14.5731
 30
0.0
 70
    32
  0
VERTEX
  5
74F
  8
0
 62
     2
 10
6.268049999999997
 20
14.5701
 30
0.0
 70
    32
  0
VERTEX
  5
750
  8
0
 62
     2
 10
6.2676400000000001
 20
14.5672
 30
0.0
 70
    32
  0
VERTEX
  5
751
  8
0
 62
     2
 10
6.2671599999999987
 20
14.564299999999999
 30
0.0
 70
    32
  0
VERTEX
  5
752
  8
0
 62
     2
 10
6.2666199999999987
 20
14.561400000000001
 30
0.0
 70
    32
  0
VERTEX
  5
753
  8
0
 62
     2
 10
6.2660200000000001
 20
14.5585
 30
0.0
 70
    32
  0
VERTEX
  5
754
  8
0
 62
     2
 10
6.2653600000000003
 20
14.5556
 30
0.0
 70
    32
  0
VERTEX
  5
755
  8
0
 62
     2
 10
6.2646399999999991
 20
14.5528
 30
0.0
 70
    32
  0
VERTEX
  5
756
  8
0
 62
     2
 10
6.263849999999997
 20
14.550000000000001
 30
0.0
 70
    32
  0
VERTEX
  5
757
  8
0
 62
     2
 10
6.2630099999999986
 20
14.5472
 30
0.0
 70
    32
  0
VERTEX
  5
758
  8
0
 62
     2
 10
6.2621000000000002
 20
14.5444
 30
0.0
 70
    32
  0
VERTEX
  5
759
  8
0
 62
     2
 10
6.2611400000000001
 20
14.541600000000001
 30
0.0
 70
    32
  0
VERTEX
  5
75A
  8
0
 62
     2
 10
6.2601100000000001
 20
14.5389
 30
0.0
 70
    32
  0
VERTEX
  5
75B
  8
0
 62
     2
 10
6.2590300000000001
 20
14.536199999999999
 30
0.0
 70
    32
  0
VERTEX
  5
75C
  8
0
 62
     2
 10
6.2578899999999971
 20
14.5335
 30
0.0
 70
    32
  0
VERTEX
  5
75D
  8
0
 62
     2
 10
6.2566899999999981
 20
14.530900000000001
 30
0.0
 70
    32
  0
VERTEX
  5
75E
  8
0
 62
     2
 10
6.2554400000000001
 20
14.5283
 30
0.0
 70
    32
  0
VERTEX
  5
75F
  8
0
 62
     2
 10
6.2541299999999991
 20
14.5258
 30
0.0
 70
    32
  0
VERTEX
  5
760
  8
0
 62
     2
 10
6.2527699999999991
 20
14.523199999999999
 30
0.0
 70
    32
  0
VERTEX
  5
761
  8
0
 62
     2
 10
6.2513500000000004
 20
14.5207
 30
0.0
 70
    32
  0
VERTEX
  5
762
  8
0
 62
     2
 10
6.2498800000000001
 20
14.5183
 30
0.0
 70
    32
  0
VERTEX
  5
763
  8
0
 62
     2
 10
6.248359999999999
 20
14.5159
 30
0.0
 70
    32
  0
VERTEX
  5
764
  8
0
 62
     2
 10
6.2467899999999981
 20
14.513500000000001
 30
0.0
 70
    32
  0
VERTEX
  5
765
  8
0
 62
     2
 10
6.2451600000000003
 20
14.511200000000001
 30
0.0
 70
    32
  0
VERTEX
  5
766
  8
0
 62
     2
 10
6.2434900000000004
 20
14.509
 30
0.0
 70
    32
  0
VERTEX
  5
767
  8
0
 62
     2
 10
6.241769999999998
 20
14.5067
 30
0.0
 70
    32
  0
VERTEX
  5
768
  8
0
 62
     2
 10
6.2400000000000002
 20
14.5046
 30
0.0
 70
    32
  0
VERTEX
  5
769
  8
0
 62
     2
 10
6.2381900000000003
 20
14.5024
 30
0.0
 70
    32
  0
VERTEX
  5
76A
  8
0
 62
     2
 10
6.236329999999997
 20
14.500400000000001
 30
0.0
 70
    32
  0
VERTEX
  5
76B
  8
0
 62
     2
 10
6.2344200000000001
 20
14.4984
 30
0.0
 70
    32
  0
VERTEX
  5
76C
  8
0
 62
     2
 10
6.232479999999998
 20
14.4964
 30
0.0
 70
    32
  0
VERTEX
  5
76D
  8
0
 62
     2
 10
6.2304899999999988
 20
14.4945
 30
0.0
 70
    32
  0
VERTEX
  5
76E
  8
0
 62
     2
 10
6.2284600000000001
 20
14.492599999999999
 30
0.0
 70
    32
  0
VERTEX
  5
76F
  8
0
 62
     2
 10
6.2263900000000003
 20
14.4908
 30
0.0
 70
    32
  0
VERTEX
  5
770
  8
0
 62
     2
 10
6.2242899999999981
 20
14.489100000000001
 30
0.0
 70
    32
  0
VERTEX
  5
771
  8
0
 62
     2
 10
6.2221399999999987
 20
14.487399999999999
 30
0.0
 70
    32
  0
VERTEX
  5
772
  8
0
 62
     2
 10
6.2199699999999991
 20
14.485799999999999
 30
0.0
 70
    32
  0
VERTEX
  5
773
  8
0
 62
     2
 10
6.217749999999997
 20
14.484299999999999
 30
0.0
 70
    32
  0
VERTEX
  5
774
  8
0
 62
     2
 10
6.2155100000000001
 20
14.482799999999999
 30
0.0
 70
    32
  0
VERTEX
  5
775
  8
0
 62
     2
 10
6.2132300000000003
 20
14.481299999999999
 30
0.0
 70
    32
  0
VERTEX
  5
776
  8
0
 62
     2
 10
6.2109300000000003
 20
14.48
 30
0.0
 70
    32
  0
VERTEX
  5
777
  8
0
 62
     2
 10
6.2085900000000001
 20
14.4787
 30
0.0
 70
    32
  0
VERTEX
  5
778
  8
0
 62
     2
 10
6.206229999999997
 20
14.477399999999999
 30
0.0
 70
    32
  0
VERTEX
  5
779
  8
0
 62
     2
 10
6.2038399999999987
 20
14.4763
 30
0.0
 70
    32
  0
VERTEX
  5
77A
  8
0
 62
     2
 10
6.2014300000000002
 20
14.475199999999999
 30
0.0
 70
    32
  0
VERTEX
  5
77B
  8
0
 62
     2
 10
6.1989900000000002
 20
14.4741
 30
0.0
 70
    32
  0
VERTEX
  5
77C
  8
0
 62
     2
 10
6.1965399999999971
 20
14.4732
 30
0.0
 70
    32
  0
VERTEX
  5
77D
  8
0
 62
     2
 10
6.1940599999999986
 20
14.472300000000001
 30
0.0
 70
    32
  0
VERTEX
  5
77E
  8
0
 62
     2
 10
6.1915599999999991
 20
14.471399999999999
 30
0.0
 70
    32
  0
VERTEX
  5
77F
  8
0
 62
     2
 10
6.1890499999999991
 20
14.470700000000001
 30
0.0
 70
    32
  0
VERTEX
  5
780
  8
0
 62
     2
 10
6.186519999999998
 20
14.470000000000001
 30
0.0
 70
    32
  0
VERTEX
  5
781
  8
0
 62
     2
 10
6.18398
 20
14.4694
 30
0.0
 70
    32
  0
VERTEX
  5
782
  8
0
 62
     2
 10
6.1814299999999971
 20
14.4689
 30
0.0
 70
    32
  0
VERTEX
  5
783
  8
0
 62
     2
 10
6.1788600000000002
 20
14.468400000000001
 30
0.0
 70
    32
  0
VERTEX
  5
784
  8
0
 62
     2
 10
6.1762899999999981
 20
14.468
 30
0.0
 70
    32
  0
VERTEX
  5
785
  8
0
 62
     2
 10
6.1737000000000002
 20
14.467700000000001
 30
0.0
 70
    32
  0
VERTEX
  5
786
  8
0
 62
     2
 10
6.1711199999999993
 20
14.4674
 30
0.0
 70
    32
  0
VERTEX
  5
787
  8
0
 62
     2
 10
6.16852
 20
14.4672
 30
0.0
 70
    32
  0
VERTEX
  5
788
  8
0
 62
     2
 10
6.1659300000000004
 20
14.4671
 30
0.0
 70
    32
  0
VERTEX
  5
789
  8
0
 62
     2
 10
6.1633300000000002
 20
14.4671
 30
0.0
 70
    32
  0
VERTEX
  5
78A
  8
0
 62
     2
 10
6.16073
 20
14.4671
 30
0.0
 70
    32
  0
VERTEX
  5
78B
  8
0
 62
     2
 10
6.1581299999999981
 20
14.4672
 30
0.0
 70
    32
  0
VERTEX
  5
78C
  8
0
 62
     2
 10
6.1555400000000002
 20
14.4674
 30
0.0
 70
    32
  0
VERTEX
  5
78D
  8
0
 62
     2
 10
6.152949999999997
 20
14.467700000000001
 30
0.0
 70
    32
  0
VERTEX
  5
78E
  8
0
 62
     2
 10
6.150369999999997
 20
14.468
 30
0.0
 70
    32
  0
VERTEX
  5
78F
  8
0
 62
     2
 10
6.1477899999999988
 20
14.468400000000001
 30
0.0
 70
    32
  0
VERTEX
  5
790
  8
0
 62
     2
 10
6.1452299999999971
 20
14.4689
 30
0.0
 70
    32
  0
VERTEX
  5
791
  8
0
 62
     2
 10
6.1426699999999981
 20
14.4694
 30
0.0
 70
    32
  0
VERTEX
  5
792
  8
0
 62
     2
 10
6.1401300000000001
 20
14.470000000000001
 30
0.0
 70
    32
  0
VERTEX
  5
793
  8
0
 62
     2
 10
6.1375999999999991
 20
14.470700000000001
 30
0.0
 70
    32
  0
VERTEX
  5
794
  8
0
 62
     2
 10
6.135089999999999
 20
14.471399999999999
 30
0.0
 70
    32
  0
VERTEX
  5
795
  8
0
 62
     2
 10
6.1326000000000001
 20
14.472300000000001
 30
0.0
 70
    32
  0
VERTEX
  5
796
  8
0
 62
     2
 10
6.130119999999998
 20
14.4732
 30
0.0
 70
    32
  0
VERTEX
  5
797
  8
0
 62
     2
 10
6.127659999999997
 20
14.4741
 30
0.0
 70
    32
  0
VERTEX
  5
798
  8
0
 62
     2
 10
6.1252300000000002
 20
14.475199999999999
 30
0.0
 70
    32
  0
VERTEX
  5
799
  8
0
 62
     2
 10
6.1228100000000003
 20
14.4763
 30
0.0
 70
    32
  0
VERTEX
  5
79A
  8
0
 62
     2
 10
6.120429999999998
 20
14.477399999999999
 30
0.0
 70
    32
  0
VERTEX
  5
79B
  8
0
 62
     2
 10
6.1180599999999981
 20
14.4787
 30
0.0
 70
    32
  0
VERTEX
  5
79C
  8
0
 62
     2
 10
6.1157300000000001
 20
14.48
 30
0.0
 70
    32
  0
VERTEX
  5
79D
  8
0
 62
     2
 10
6.1134199999999987
 20
14.481299999999999
 30
0.0
 70
    32
  0
VERTEX
  5
79E
  8
0
 62
     2
 10
6.1111500000000003
 20
14.482799999999999
 30
0.0
 70
    32
  0
VERTEX
  5
79F
  8
0
 62
     2
 10
6.1089000000000002
 20
14.484299999999999
 30
0.0
 70
    32
  0
VERTEX
  5
7A0
  8
0
 62
     2
 10
6.1066900000000004
 20
14.485799999999999
 30
0.0
 70
    32
  0
VERTEX
  5
7A1
  8
0
 62
     2
 10
6.1045100000000003
 20
14.487399999999999
 30
0.0
 70
    32
  0
VERTEX
  5
7A2
  8
0
 62
     2
 10
6.1023699999999987
 20
14.489100000000001
 30
0.0
 70
    32
  0
VERTEX
  5
7A3
  8
0
 62
     2
 10
6.1002599999999987
 20
14.4908
 30
0.0
 70
    32
  0
VERTEX
  5
7A4
  8
0
 62
     2
 10
6.0982000000000003
 20
14.492599999999999
 30
0.0
 70
    32
  0
VERTEX
  5
7A5
  8
0
 62
     2
 10
6.0961699999999981
 20
14.4945
 30
0.0
 70
    32
  0
VERTEX
  5
7A6
  8
0
 62
     2
 10
6.094179999999997
 20
14.4964
 30
0.0
 70
    32
  0
VERTEX
  5
7A7
  8
0
 62
     2
 10
6.092229999999998
 20
14.4984
 30
0.0
 70
    32
  0
VERTEX
  5
7A8
  8
0
 62
     2
 10
6.090329999999998
 20
14.500400000000001
 30
0.0
 70
    32
  0
VERTEX
  5
7A9
  8
0
 62
     2
 10
6.08847
 20
14.5024
 30
0.0
 70
    32
  0
VERTEX
  5
7AA
  8
0
 62
     2
 10
6.086649999999997
 20
14.5046
 30
0.0
 70
    32
  0
VERTEX
  5
7AB
  8
0
 62
     2
 10
6.084889999999997
 20
14.5067
 30
0.0
 70
    32
  0
VERTEX
  5
7AC
  8
0
 62
     2
 10
6.0831599999999986
 20
14.509
 30
0.0
 70
    32
  0
VERTEX
  5
7AD
  8
0
 62
     2
 10
6.0814899999999987
 20
14.511200000000001
 30
0.0
 70
    32
  0
VERTEX
  5
7AE
  8
0
 62
     2
 10
6.079869999999997
 20
14.513500000000001
 30
0.0
 70
    32
  0
VERTEX
  5
7AF
  8
0
 62
     2
 10
6.0782899999999991
 20
14.5159
 30
0.0
 70
    32
  0
VERTEX
  5
7B0
  8
0
 62
     2
 10
6.076769999999998
 20
14.5183
 30
0.0
 70
    32
  0
VERTEX
  5
7B1
  8
0
 62
     2
 10
6.0753000000000004
 20
14.5207
 30
0.0
 70
    32
  0
VERTEX
  5
7B2
  8
0
 62
     2
 10
6.0738899999999987
 20
14.523199999999999
 30
0.0
 70
    32
  0
VERTEX
  5
7B3
  8
0
 62
     2
 10
6.072519999999999
 20
14.5258
 30
0.0
 70
    32
  0
VERTEX
  5
7B4
  8
0
 62
     2
 10
6.0712099999999971
 20
14.5283
 30
0.0
 70
    32
  0
VERTEX
  5
7B5
  8
0
 62
     2
 10
6.06996
 20
14.530900000000001
 30
0.0
 70
    32
  0
VERTEX
  5
7B6
  8
0
 62
     2
 10
6.0687699999999971
 20
14.5335
 30
0.0
 70
    32
  0
VERTEX
  5
7B7
  8
0
 62
     2
 10
6.0676300000000003
 20
14.536199999999999
 30
0.0
 70
    32
  0
VERTEX
  5
7B8
  8
0
 62
     2
 10
6.066539999999998
 20
14.5389
 30
0.0
 70
    32
  0
VERTEX
  5
7B9
  8
0
 62
     2
 10
6.0655200000000002
 20
14.541600000000001
 30
0.0
 70
    32
  0
VERTEX
  5
7BA
  8
0
 62
     2
 10
6.064549999999997
 20
14.5444
 30
0.0
 70
    32
  0
VERTEX
  5
7BB
  8
0
 62
     2
 10
6.0636499999999991
 20
14.5472
 30
0.0
 70
    32
  0
VERTEX
  5
7BC
  8
0
 62
     2
 10
6.0628000000000002
 20
14.550000000000001
 30
0.0
 70
    32
  0
VERTEX
  5
7BD
  8
0
 62
     2
 10
6.0620199999999986
 20
14.5528
 30
0.0
 70
    32
  0
VERTEX
  5
7BE
  8
0
 62
     2
 10
6.0613000000000001
 20
14.5556
 30
0.0
 70
    32
  0
VERTEX
  5
7BF
  8
0
 62
     2
 10
6.0606299999999971
 20
14.5585
 30
0.0
 70
    32
  0
VERTEX
  5
7C0
  8
0
 62
     2
 10
6.0600300000000002
 20
14.561400000000001
 30
0.0
 70
    32
  0
VERTEX
  5
7C1
  8
0
 62
     2
 10
6.0594999999999981
 20
14.564299999999999
 30
0.0
 70
    32
  0
VERTEX
  5
7C2
  8
0
 62
     2
 10
6.0590200000000003
 20
14.5672
 30
0.0
 70
    32
  0
VERTEX
  5
7C3
  8
0
 62
     2
 10
6.0586099999999981
 20
14.5701
 30
0.0
 70
    32
  0
VERTEX
  5
7C4
  8
0
 62
     2
 10
6.0582599999999971
 20
14.5731
 30
0.0
 70
    32
  0
VERTEX
  5
7C5
  8
0
 62
     2
 10
6.0579700000000001
 20
14.576000000000001
 30
0.0
 70
    32
  0
VERTEX
  5
7C6
  8
0
 62
     2
 10
6.0577500000000004
 20
14.579000000000001
 30
0.0
 70
    32
  0
VERTEX
  5
7C7
  8
0
 62
     2
 10
6.0575900000000003
 20
14.581899999999999
 30
0.0
 70
    32
  0
VERTEX
  5
7C8
  8
0
 62
     2
 10
6.0574899999999987
 20
14.584899999999999
 30
0.0
 70
    32
  0
VERTEX
  5
7C9
  8
0
 62
     2
 10
6.0574599999999981
 20
14.5878
 30
0.0
 70
    32
  0
SEQEND
  5
7CA
  8
0
 62
     2
  0
POLYLINE
  5
4BB
  8
0
 62
     2
 66
     1
 10
0.0
 20
0.0
 30
0.0
 70
     8
  0
VERTEX
  5
7CB
  8
0
 62
     2
 10
6.26919
 20
14.222899999999999
 30
0.0
 70
    32
  0
VERTEX
  5
7CC
  8
0
 62
     2
 10
6.2691600000000003
 20
14.225899999999999
 30
0.0
 70
    32
  0
VERTEX
  5
7CD
  8
0
 62
     2
 10
6.2690700000000001
 20
14.228899999999999
 30
0.0
 70
    32
  0
VERTEX
  5
7CE
  8
0
 62
     2
 10
6.2689099999999991
 20
14.2318
 30
0.0
 70
    32
  0
VERTEX
  5
7CF
  8
0
 62
     2
 10
6.2686900000000003
 20
14.2348
 30
0.0
 70
    32
  0
VERTEX
  5
7D0
  8
0
 62
     2
 10
6.2683999999999971
 20
14.2377
 30
0.0
 70
    32
  0
VERTEX
  5
7D1
  8
0
 62
     2
 10
6.268049999999997
 20
14.2407
 30
0.0
 70
    32
  0
VERTEX
  5
7D2
  8
0
 62
     2
 10
6.2676400000000001
 20
14.243600000000001
 30
0.0
 70
    32
  0
VERTEX
  5
7D3
  8
0
 62
     2
 10
6.2671599999999987
 20
14.246499999999999
 30
0.0
 70
    32
  0
VERTEX
  5
7D4
  8
0
 62
     2
 10
6.2666199999999987
 20
14.2494
 30
0.0
 70
    32
  0
VERTEX
  5
7D5
  8
0
 62
     2
 10
6.2660200000000001
 20
14.2523
 30
0.0
 70
    32
  0
VERTEX
  5
7D6
  8
0
 62
     2
 10
6.2653600000000003
 20
14.255100000000001
 30
0.0
 70
    32
  0
VERTEX
  5
7D7
  8
0
 62
     2
 10
6.2646399999999991
 20
14.257999999999999
 30
0.0
 70
    32
  0
VERTEX
  5
7D8
  8
0
 62
     2
 10
6.263849999999997
 20
14.2608
 30
0.0
 70
    32
  0
VERTEX
  5
7D9
  8
0
 62
     2
 10
6.2630099999999986
 20
14.2636
 30
0.0
 70
    32
  0
VERTEX
  5
7DA
  8
0
 62
     2
 10
6.2621000000000002
 20
14.266400000000001
 30
0.0
 70
    32
  0
VERTEX
  5
7DB
  8
0
 62
     2
 10
6.2611400000000001
 20
14.2691
 30
0.0
 70
    32
  0
VERTEX
  5
7DC
  8
0
 62
     2
 10
6.2601100000000001
 20
14.2719
 30
0.0
 70
    32
  0
VERTEX
  5
7DD
  8
0
 62
     2
 10
6.2590300000000001
 20
14.2746
 30
0.0
 70
    32
  0
VERTEX
  5
7DE
  8
0
 62
     2
 10
6.2578899999999971
 20
14.277200000000001
 30
0.0
 70
    32
  0
VERTEX
  5
7DF
  8
0
 62
     2
 10
6.2566899999999981
 20
14.2799
 30
0.0
 70
    32
  0
VERTEX
  5
7E0
  8
0
 62
     2
 10
6.2554400000000001
 20
14.282500000000001
 30
0.0
 70
    32
  0
VERTEX
  5
7E1
  8
0
 62
     2
 10
6.2541299999999991
 20
14.285
 30
0.0
 70
    32
  0
VERTEX
  5
7E2
  8
0
 62
     2
 10
6.2527699999999991
 20
14.2875
 30
0.0
 70
    32
  0
VERTEX
  5
7E3
  8
0
 62
     2
 10
6.2513500000000004
 20
14.289999999999999
 30
0.0
 70
    32
  0
VERTEX
  5
7E4
  8
0
 62
     2
 10
6.2498800000000001
 20
14.2925
 30
0.0
 70
    32
  0
VERTEX
  5
7E5
  8
0
 62
     2
 10
6.248359999999999
 20
14.2949
 30
0.0
 70
    32
  0
VERTEX
  5
7E6
  8
0
 62
     2
 10
6.2467899999999981
 20
14.2972
 30
0.0
 70
    32
  0
VERTEX
  5
7E7
  8
0
 62
     2
 10
6.2451600000000003
 20
14.2995
 30
0.0
 70
    32
  0
VERTEX
  5
7E8
  8
0
 62
     2
 10
6.2434900000000004
 20
14.3018
 30
0.0
 70
    32
  0
VERTEX
  5
7E9
  8
0
 62
     2
 10
6.241769999999998
 20
14.304
 30
0.0
 70
    32
  0
VERTEX
  5
7EA
  8
0
 62
     2
 10
6.2400000000000002
 20
14.3062
 30
0.0
 70
    32
  0
VERTEX
  5
7EB
  8
0
 62
     2
 10
6.2381900000000003
 20
14.308299999999999
 30
0.0
 70
    32
  0
VERTEX
  5
7EC
  8
0
 62
     2
 10
6.236329999999997
 20
14.3104
 30
0.0
 70
    32
  0
VERTEX
  5
7ED
  8
0
 62
     2
 10
6.2344200000000001
 20
14.3124
 30
0.0
 70
    32
  0
VERTEX
  5
7EE
  8
0
 62
     2
 10
6.232479999999998
 20
14.314399999999999
 30
0.0
 70
    32
  0
VERTEX
  5
7EF
  8
0
 62
     2
 10
6.2304899999999988
 20
14.3163
 30
0.0
 70
    32
  0
VERTEX
  5
7F0
  8
0
 62
     2
 10
6.2284600000000001
 20
14.318099999999999
 30
0.0
 70
    32
  0
VERTEX
  5
7F1
  8
0
 62
     2
 10
6.2263900000000003
 20
14.319900000000001
 30
0.0
 70
    32
  0
VERTEX
  5
7F2
  8
0
 62
     2
 10
6.2242899999999981
 20
14.3217
 30
0.0
 70
    32
  0
VERTEX
  5
7F3
  8
0
 62
     2
 10
6.2221399999999987
 20
14.3233
 30
0.0
 70
    32
  0
VERTEX
  5
7F4
  8
0
 62
     2
 10
6.2199699999999991
 20
14.324999999999999
 30
0.0
 70
    32
  0
VERTEX
  5
7F5
  8
0
 62
     2
 10
6.217749999999997
 20
14.326499999999999
 30
0.0
 70
    32
  0
VERTEX
  5
7F6
  8
0
 62
     2
 10
6.2155100000000001
 20
14.327999999999999
 30
0.0
 70
    32
  0
VERTEX
  5
7F7
  8
0
 62
     2
 10
6.2132300000000003
 20
14.3294
 30
0.0
 70
    32
  0
VERTEX
  5
7F8
  8
0
 62
     2
 10
6.2109300000000003
 20
14.3308
 30
0.0
 70
    32
  0
VERTEX
  5
7F9
  8
0
 62
     2
 10
6.2085900000000001
 20
14.332100000000001
 30
0.0
 70
    32
  0
VERTEX
  5
7FA
  8
0
 62
     2
 10
6.206229999999997
 20
14.333299999999999
 30
0.0
 70
    32
  0
VERTEX
  5
7FB
  8
0
 62
     2
 10
6.2038399999999987
 20
14.3345
 30
0.0
 70
    32
  0
VERTEX
  5
7FC
  8
0
 62
     2
 10
6.2014300000000002
 20
14.335599999999999
 30
0.0
 70
    32
  0
VERTEX
  5
7FD
  8
0
 62
     2
 10
6.1989900000000002
 20
14.336600000000001
 30
0.0
 70
    32
  0
VERTEX
  5
7FE
  8
0
 62
     2
 10
6.1965399999999971
 20
14.3376
 30
0.0
 70
    32
  0
VERTEX
  5
7FF
  8
0
 62
     2
 10
6.1940599999999986
 20
14.3385
 30
0.0
 70
    32
  0
VERTEX
  5
800
  8
0
 62
     2
 10
6.1915599999999991
 20
14.3393
 30
0.0
 70
    32
  0
VERTEX
  5
801
  8
0
 62
     2
 10
6.1890499999999991
 20
14.3401
 30
0.0
 70
    32
  0
VERTEX
  5
802
  8
0
 62
     2
 10
6.186519999999998
 20
14.3408
 30
0.0
 70
    32
  0
VERTEX
  5
803
  8
0
 62
     2
 10
6.18398
 20
14.3414
 30
0.0
 70
    32
  0
VERTEX
  5
804
  8
0
 62
     2
 10
6.1814299999999971
 20
14.341900000000001
 30
0.0
 70
    32
  0
VERTEX
  5
805
  8
0
 62
     2
 10
6.1788600000000002
 20
14.3424
 30
0.0
 70
    32
  0
VERTEX
  5
806
  8
0
 62
     2
 10
6.1762899999999981
 20
14.3428
 30
0.0
 70
    32
  0
VERTEX
  5
807
  8
0
 62
     2
 10
6.1737000000000002
 20
14.3431
 30
0.0
 70
    32
  0
VERTEX
  5
808
  8
0
 62
     2
 10
6.1711199999999993
 20
14.343400000000001
 30
0.0
 70
    32
  0
VERTEX
  5
809
  8
0
 62
     2
 10
6.16852
 20
14.343500000000001
 30
0.0
 70
    32
  0
VERTEX
  5
80A
  8
0
 62
     2
 10
6.1659300000000004
 20
14.3437
 30
0.0
 70
    32
  0
VERTEX
  5
80B
  8
0
 62
     2
 10
6.1633300000000002
 20
14.3437
 30
0.0
 70
    32
  0
VERTEX
  5
80C
  8
0
 62
     2
 10
6.16073
 20
14.3437
 30
0.0
 70
    32
  0
VERTEX
  5
80D
  8
0
 62
     2
 10
6.1581299999999981
 20
14.343500000000001
 30
0.0
 70
    32
  0
VERTEX
  5
80E
  8
0
 62
     2
 10
6.1555400000000002
 20
14.343400000000001
 30
0.0
 70
    32
  0
VERTEX
  5
80F
  8
0
 62
     2
 10
6.152949999999997
 20
14.3431
 30
0.0
 70
    32
  0
VERTEX
  5
810
  8
0
 62
     2
 10
6.150369999999997
 20
14.3428
 30
0.0
 70
    32
  0
VERTEX
  5
811
  8
0
 62
     2
 10
6.1477899999999988
 20
14.3424
 30
0.0
 70
    32
  0
VERTEX
  5
812
  8
0
 62
     2
 10
6.1452299999999971
 20
14.341900000000001
 30
0.0
 70
    32
  0
VERTEX
  5
813
  8
0
 62
     2
 10
6.1426699999999981
 20
14.3414
 30
0.0
 70
    32
  0
VERTEX
  5
814
  8
0
 62
     2
 10
6.1401300000000001
 20
14.3408
 30
0.0
 70
    32
  0
VERTEX
  5
815
  8
0
 62
     2
 10
6.1375999999999991
 20
14.3401
 30
0.0
 70
    32
  0
VERTEX
  5
816
  8
0
 62
     2
 10
6.135089999999999
 20
14.3393
 30
0.0
 70
    32
  0
VERTEX
  5
817
  8
0
 62
     2
 10
6.1326000000000001
 20
14.3385
 30
0.0
 70
    32
  0
VERTEX
  5
818
  8
0
 62
     2
 10
6.130119999999998
 20
14.3376
 30
0.0
 70
    32
  0
VERTEX
  5
819
  8
0
 62
     2
 10
6.127659999999997
 20
14.336600000000001
 30
0.0
 70
    32
  0
VERTEX
  5
81A
  8
0
 62
     2
 10
6.1252300000000002
 20
14.335599999999999
 30
0.0
 70
    32
  0
VERTEX
  5
81B
  8
0
 62
     2
 10
6.1228100000000003
 20
14.3345
 30
0.0
 70
    32
  0
VERTEX
  5
81C
  8
0
 62
     2
 10
6.120429999999998
 20
14.333299999999999
 30
0.0
 70
    32
  0
VERTEX
  5
81D
  8
0
 62
     2
 10
6.1180599999999981
 20
14.332100000000001
 30
0.0
 70
    32
  0
VERTEX
  5
81E
  8
0
 62
     2
 10
6.1157300000000001
 20
14.3308
 30
0.0
 70
    32
  0
VERTEX
  5
81F
  8
0
 62
     2
 10
6.1134199999999987
 20
14.3294
 30
0.0
 70
    32
  0
VERTEX
  5
820
  8
0
 62
     2
 10
6.1111500000000003
 20
14.327999999999999
 30
0.0
 70
    32
  0
VERTEX
  5
821
  8
0
 62
     2
 10
6.1089000000000002
 20
14.326499999999999
 30
0.0
 70
    32
  0
VERTEX
  5
822
  8
0
 62
     2
 10
6.1066900000000004
 20
14.324999999999999
 30
0.0
 70
    32
  0
VERTEX
  5
823
  8
0
 62
     2
 10
6.1045100000000003
 20
14.3233
 30
0.0
 70
    32
  0
VERTEX
  5
824
  8
0
 62
     2
 10
6.1023699999999987
 20
14.3217
 30
0.0
 70
    32
  0
VERTEX
  5
825
  8
0
 62
     2
 10
6.1002599999999987
 20
14.319900000000001
 30
0.0
 70
    32
  0
VERTEX
  5
826
  8
0
 62
     2
 10
6.0982000000000003
 20
14.318099999999999
 30
0.0
 70
    32
  0
VERTEX
  5
827
  8
0
 62
     2
 10
6.0961699999999981
 20
14.3163
 30
0.0
 70
    32
  0
VERTEX
  5
828
  8
0
 62
     2
 10
6.094179999999997
 20
14.314399999999999
 30
0.0
 70
    32
  0
VERTEX
  5
829
  8
0
 62
     2
 10
6.092229999999998
 20
14.3124
 30
0.0
 70
    32
  0
VERTEX
  5
82A
  8
0
 62
     2
 10
6.090329999999998
 20
14.3104
 30
0.0
 70
    32
  0
VERTEX
  5
82B
  8
0
 62
     2
 10
6.08847
 20
14.308299999999999
 30
0.0
 70
    32
  0
VERTEX
  5
82C
  8
0
 62
     2
 10
6.086649999999997
 20
14.3062
 30
0.0
 70
    32
  0
VERTEX
  5
82D
  8
0
 62
     2
 10
6.084889999999997
 20
14.304
 30
0.0
 70
    32
  0
VERTEX
  5
82E
  8
0
 62
     2
 10
6.0831599999999986
 20
14.3018
 30
0.0
 70
    32
  0
VERTEX
  5
82F
  8
0
 62
     2
 10
6.0814899999999987
 20
14.2995
 30
0.0
 70
    32
  0
VERTEX
  5
830
  8
0
 62
     2
 10
6.079869999999997
 20
14.2972
 30
0.0
 70
    32
  0
VERTEX
  5
831
  8
0
 62
     2
 10
6.0782899999999991
 20
14.2949
 30
0.0
 70
    32
  0
VERTEX
  5
832
  8
0
 62
     2
 10
6.076769999999998
 20
14.2925
 30
0.0
 70
    32
  0
VERTEX
  5
833
  8
0
 62
     2
 10
6.0753000000000004
 20
14.289999999999999
 30
0.0
 70
    32
  0
VERTEX
  5
834
  8
0
 62
     2
 10
6.0738899999999987
 20
14.2875
 30
0.0
 70
    32
  0
VERTEX
  5
835
  8
0
 62
     2
 10
6.072519999999999
 20
14.285
 30
0.0
 70
    32
  0
VERTEX
  5
836
  8
0
 62
     2
 10
6.0712099999999971
 20
14.282500000000001
 30
0.0
 70
    32
  0
VERTEX
  5
837
  8
0
 62
     2
 10
6.06996
 20
14.2799
 30
0.0
 70
    32
  0
VERTEX
  5
838
  8
0
 62
     2
 10
6.0687699999999971
 20
14.277200000000001
 30
0.0
 70
    32
  0
VERTEX
  5
839
  8
0
 62
     2
 10
6.0676300000000003
 20
14.2746
 30
0.0
 70
    32
  0
VERTEX
  5
83A
  8
0
 62
     2
 10
6.066539999999998
 20
14.2719
 30
0.0
 70
    32
  0
VERTEX
  5
83B
  8
0
 62
     2
 10
6.0655200000000002
 20
14.2691
 30
0.0
 70
    32
  0
VERTEX
  5
83C
  8
0
 62
     2
 10
6.064549999999997
 20
14.266400000000001
 30
0.0
 70
    32
  0
VERTEX
  5
83D
  8
0
 62
     2
 10
6.0636499999999991
 20
14.2636
 30
0.0
 70
    32
  0
VERTEX
  5
83E
  8
0
 62
     2
 10
6.0628000000000002
 20
14.2608
 30
0.0
 70
    32
  0
VERTEX
  5
83F
  8
0
 62
     2
 10
6.0620199999999986
 20
14.257999999999999
 30
0.0
 70
    32
  0
VERTEX
  5
840
  8
0
 62
     2
 10
6.0613000000000001
 20
14.255100000000001
 30
0.0
 70
    32
  0
VERTEX
  5
841
  8
0
 62
     2
 10
6.0606299999999971
 20
14.2523
 30
0.0
 70
    32
  0
VERTEX
  5
842
  8
0
 62
     2
 10
6.0600300000000002
 20
14.2494
 30
0.0
 70
    32
  0
VERTEX
  5
843
  8
0
 62
     2
 10
6.0594999999999981
 20
14.246499999999999
 30
0.0
 70
    32
  0
VERTEX
  5
844
  8
0
 62
     2
 10
6.0590200000000003
 20
14.243600000000001
 30
0.0
 70
    32
  0
VERTEX
  5
845
  8
0
 62
     2
 10
6.0586099999999981
 20
14.2407
 30
0.0
 70
    32
  0
VERTEX
  5
846
  8
0
 62
     2
 10
6.0582599999999971
 20
14.2377
 30
0.0
 70
    32
  0
VERTEX
  5
847
  8
0
 62
     2
 10
6.0579700000000001
 20
14.2348
 30
0.0
 70
    32
  0
VERTEX
  5
848
  8
0
 62
     2
 10
6.0577500000000004
 20
14.2318
 30
0.0
 70
    32
  0
VERTEX
  5
849
  8
0
 62
     2
 10
6.0575900000000003
 20
14.228899999999999
 30
0.0
 70
    32
  0
VERTEX
  5
84A
  8
0
 62
     2
 10
6.0574899999999987
 20
14.225899999999999
 30
0.0
 70
    32
  0
VERTEX
  5
84B
  8
0
 62
     2
 10
6.0574599999999981
 20
14.222899999999999
 30
0.0
 70
    32
  0
SEQEND
  5
84C
  8
0
 62
     2
  0
LINE
  5
4BC
  8
DISPLAY
 62
     2
 10
6.0574610926172161
 20
14.22293076224835
 30
0.0
 11
6.0574610926172161
 21
14.181643987520889
 31
0.0
  0
LINE
  5
4BD
  8
DISPLAY
 62
     2
 10
6.0574610926172161
 20
14.58783746731228
 30
0.0
 11
6.0574610926172161
 21
14.62912424203974
 31
0.0
  0
LINE
  5
4BE
  8
DISPLAY
 62
     2
 10
6.2691949815862227
 20
14.22293076224835
 30
0.0
 11
6.2691949815862227
 21
14.181643987520889
 31
0.0
  0
LINE
  5
4BF
  8
DISPLAY
 62
     2
 10
6.2691949815862227
 20
14.58783746731228
 30
0.0
 11
6.2691949815862227
 21
14.62912424203974
 31
0.0
  0
LINE
  5
4C0
  8
DISPLAY
 62
     4
 10
6.2691949815862227
 20
16.230645187252531
 30
0.0
 11
6.2691949815862227
 21
15.75645332672377
 31
0.0
  0
POLYLINE
  5
4C1
  8
0
 62
     2
 66
     1
 10
0.0
 20
0.0
 30
0.0
 70
     8
  0
VERTEX
  5
84D
  8
0
 62
     2
 10
6.6926600000000001
 20
14.5878
 30
0.0
 70
    32
  0
VERTEX
  5
84E
  8
0
 62
     2
 10
6.6926300000000003
 20
14.584899999999999
 30
0.0
 70
    32
  0
VERTEX
  5
84F
  8
0
 62
     2
 10
6.6925399999999993
 20
14.581899999999999
 30
0.0
 70
    32
  0
VERTEX
  5
850
  8
0
 62
     2
 10
6.6923799999999991
 20
14.579000000000001
 30
0.0
 70
    32
  0
VERTEX
  5
851
  8
0
 62
     2
 10
6.692149999999998
 20
14.576000000000001
 30
0.0
 70
    32
  0
VERTEX
  5
852
  8
0
 62
     2
 10
6.6918699999999971
 20
14.5731
 30
0.0
 70
    32
  0
VERTEX
  5
853
  8
0
 62
     2
 10
6.691519999999997
 20
14.5701
 30
0.0
 70
    32
  0
VERTEX
  5
854
  8
0
 62
     2
 10
6.6910999999999987
 20
14.5672
 30
0.0
 70
    32
  0
VERTEX
  5
855
  8
0
 62
     2
 10
6.6906299999999987
 20
14.564299999999999
 30
0.0
 70
    32
  0
VERTEX
  5
856
  8
0
 62
     2
 10
6.690089999999997
 20
14.561400000000001
 30
0.0
 70
    32
  0
VERTEX
  5
857
  8
0
 62
     2
 10
6.6894899999999993
 20
14.5585
 30
0.0
 70
    32
  0
VERTEX
  5
858
  8
0
 62
     2
 10
6.6888300000000003
 20
14.5556
 30
0.0
 70
    32
  0
VERTEX
  5
859
  8
0
 62
     2
 10
6.6881000000000004
 20
14.5528
 30
0.0
 70
    32
  0
VERTEX
  5
85A
  8
0
 62
     2
 10
6.687319999999997
 20
14.550000000000001
 30
0.0
 70
    32
  0
VERTEX
  5
85B
  8
0
 62
     2
 10
6.686469999999999
 20
14.5472
 30
0.0
 70
    32
  0
VERTEX
  5
85C
  8
0
 62
     2
 10
6.6855699999999993
 20
14.5444
 30
0.0
 70
    32
  0
VERTEX
  5
85D
  8
0
 62
     2
 10
6.684599999999997
 20
14.541600000000001
 30
0.0
 70
    32
  0
VERTEX
  5
85E
  8
0
 62
     2
 10
6.6835800000000001
 20
14.5389
 30
0.0
 70
    32
  0
VERTEX
  5
85F
  8
0
 62
     2
 10
6.6825000000000001
 20
14.536199999999999
 30
0.0
 70
    32
  0
VERTEX
  5
860
  8
0
 62
     2
 10
6.6813599999999971
 20
14.5335
 30
0.0
 70
    32
  0
VERTEX
  5
861
  8
0
 62
     2
 10
6.6801599999999981
 20
14.530900000000001
 30
0.0
 70
    32
  0
VERTEX
  5
862
  8
0
 62
     2
 10
6.678910000000001
 20
14.5283
 30
0.0
 70
    32
  0
VERTEX
  5
863
  8
0
 62
     2
 10
6.6775999999999991
 20
14.5258
 30
0.0
 70
    32
  0
VERTEX
  5
864
  8
0
 62
     2
 10
6.6762399999999991
 20
14.523199999999999
 30
0.0
 70
    32
  0
VERTEX
  5
865
  8
0
 62
     2
 10
6.6748199999999986
 20
14.5207
 30
0.0
 70
    32
  0
VERTEX
  5
866
  8
0
 62
     2
 10
6.6733500000000001
 20
14.5183
 30
0.0
 70
    32
  0
VERTEX
  5
867
  8
0
 62
     2
 10
6.671829999999999
 20
14.5159
 30
0.0
 70
    32
  0
VERTEX
  5
868
  8
0
 62
     2
 10
6.6702599999999981
 20
14.513500000000001
 30
0.0
 70
    32
  0
VERTEX
  5
869
  8
0
 62
     2
 10
6.6686300000000003
 20
14.511200000000001
 30
0.0
 70
    32
  0
VERTEX
  5
86A
  8
0
 62
     2
 10
6.6669600000000004
 20
14.509
 30
0.0
 70
    32
  0
VERTEX
  5
86B
  8
0
 62
     2
 10
6.6652399999999981
 20
14.5067
 30
0.0
 70
    32
  0
VERTEX
  5
86C
  8
0
 62
     2
 10
6.6634699999999993
 20
14.5046
 30
0.0
 70
    32
  0
VERTEX
  5
86D
  8
0
 62
     2
 10
6.6616600000000004
 20
14.5024
 30
0.0
 70
    32
  0
VERTEX
  5
86E
  8
0
 62
     2
 10
6.6597999999999971
 20
14.500400000000001
 30
0.0
 70
    32
  0
VERTEX
  5
86F
  8
0
 62
     2
 10
6.6578899999999992
 20
14.4984
 30
0.0
 70
    32
  0
VERTEX
  5
870
  8
0
 62
     2
 10
6.655949999999998
 20
14.4964
 30
0.0
 70
    32
  0
VERTEX
  5
871
  8
0
 62
     2
 10
6.653959999999997
 20
14.4945
 30
0.0
 70
    32
  0
VERTEX
  5
872
  8
0
 62
     2
 10
6.6519300000000001
 20
14.492599999999999
 30
0.0
 70
    32
  0
VERTEX
  5
873
  8
0
 62
     2
 10
6.6498600000000003
 20
14.4908
 30
0.0
 70
    32
  0
VERTEX
  5
874
  8
0
 62
     2
 10
6.6477500000000003
 20
14.489100000000001
 30
0.0
 70
    32
  0
VERTEX
  5
875
  8
0
 62
     2
 10
6.6456099999999987
 20
14.487399999999999
 30
0.0
 70
    32
  0
VERTEX
  5
876
  8
0
 62
     2
 10
6.6434300000000004
 20
14.485799999999999
 30
0.0
 70
    32
  0
VERTEX
  5
877
  8
0
 62
     2
 10
6.641219999999997
 20
14.484299999999999
 30
0.0
 70
    32
  0
VERTEX
  5
878
  8
0
 62
     2
 10
6.6389800000000001
 20
14.482799999999999
 30
0.0
 70
    32
  0
VERTEX
  5
879
  8
0
 62
     2
 10
6.6367000000000003
 20
14.481299999999999
 30
0.0
 70
    32
  0
VERTEX
  5
87A
  8
0
 62
     2
 10
6.634389999999998
 20
14.48
 30
0.0
 70
    32
  0
VERTEX
  5
87B
  8
0
 62
     2
 10
6.6320600000000001
 20
14.4787
 30
0.0
 70
    32
  0
VERTEX
  5
87C
  8
0
 62
     2
 10
6.629699999999997
 20
14.477399999999999
 30
0.0
 70
    32
  0
VERTEX
  5
87D
  8
0
 62
     2
 10
6.6273099999999987
 20
14.4763
 30
0.0
 70
    32
  0
VERTEX
  5
87E
  8
0
 62
     2
 10
6.6249000000000002
 20
14.475199999999999
 30
0.0
 70
    32
  0
VERTEX
  5
87F
  8
0
 62
     2
 10
6.6224600000000002
 20
14.4741
 30
0.0
 70
    32
  0
VERTEX
  5
880
  8
0
 62
     2
 10
6.6200000000000001
 20
14.4732
 30
0.0
 70
    32
  0
VERTEX
  5
881
  8
0
 62
     2
 10
6.6175300000000004
 20
14.472300000000001
 30
0.0
 70
    32
  0
VERTEX
  5
882
  8
0
 62
     2
 10
6.6150299999999991
 20
14.471399999999999
 30
0.0
 70
    32
  0
VERTEX
  5
883
  8
0
 62
     2
 10
6.6125199999999991
 20
14.470700000000001
 30
0.0
 70
    32
  0
VERTEX
  5
884
  8
0
 62
     2
 10
6.609989999999998
 20
14.470000000000001
 30
0.0
 70
    32
  0
VERTEX
  5
885
  8
0
 62
     2
 10
6.60745
 20
14.4694
 30
0.0
 70
    32
  0
VERTEX
  5
886
  8
0
 62
     2
 10
6.6048999999999971
 20
14.4689
 30
0.0
 70
    32
  0
VERTEX
  5
887
  8
0
 62
     2
 10
6.6023300000000003
 20
14.468400000000001
 30
0.0
 70
    32
  0
VERTEX
  5
888
  8
0
 62
     2
 10
6.5997599999999981
 20
14.468
 30
0.0
 70
    32
  0
VERTEX
  5
889
  8
0
 62
     2
 10
6.5971699999999993
 20
14.467700000000001
 30
0.0
 70
    32
  0
VERTEX
  5
88A
  8
0
 62
     2
 10
6.594579999999997
 20
14.4674
 30
0.0
 70
    32
  0
VERTEX
  5
88B
  8
0
 62
     2
 10
6.5919899999999991
 20
14.4672
 30
0.0
 70
    32
  0
VERTEX
  5
88C
  8
0
 62
     2
 10
6.5893899999999981
 20
14.4671
 30
0.0
 70
    32
  0
VERTEX
  5
88D
  8
0
 62
     2
 10
6.5868000000000002
 20
14.4671
 30
0.0
 70
    32
  0
VERTEX
  5
88E
  8
0
 62
     2
 10
6.5842000000000001
 20
14.4671
 30
0.0
 70
    32
  0
VERTEX
  5
88F
  8
0
 62
     2
 10
6.581599999999999
 20
14.4672
 30
0.0
 70
    32
  0
VERTEX
  5
890
  8
0
 62
     2
 10
6.5790100000000002
 20
14.4674
 30
0.0
 70
    32
  0
VERTEX
  5
891
  8
0
 62
     2
 10
6.576419999999997
 20
14.467700000000001
 30
0.0
 70
    32
  0
VERTEX
  5
892
  8
0
 62
     2
 10
6.573839999999997
 20
14.468
 30
0.0
 70
    32
  0
VERTEX
  5
893
  8
0
 62
     2
 10
6.571259999999997
 20
14.468400000000001
 30
0.0
 70
    32
  0
VERTEX
  5
894
  8
0
 62
     2
 10
6.5686999999999971
 20
14.4689
 30
0.0
 70
    32
  0
VERTEX
  5
895
  8
0
 62
     2
 10
6.5661399999999981
 20
14.4694
 30
0.0
 70
    32
  0
VERTEX
  5
896
  8
0
 62
     2
 10
6.5636000000000001
 20
14.470000000000001
 30
0.0
 70
    32
  0
VERTEX
  5
897
  8
0
 62
     2
 10
6.5610699999999991
 20
14.470700000000001
 30
0.0
 70
    32
  0
VERTEX
  5
898
  8
0
 62
     2
 10
6.5585599999999991
 20
14.471399999999999
 30
0.0
 70
    32
  0
VERTEX
  5
899
  8
0
 62
     2
 10
6.5560600000000004
 20
14.472300000000001
 30
0.0
 70
    32
  0
VERTEX
  5
89A
  8
0
 62
     2
 10
6.553589999999998
 20
14.4732
 30
0.0
 70
    32
  0
VERTEX
  5
89B
  8
0
 62
     2
 10
6.551129999999997
 20
14.4741
 30
0.0
 70
    32
  0
VERTEX
  5
89C
  8
0
 62
     2
 10
6.548689999999997
 20
14.475199999999999
 30
0.0
 70
    32
  0
VERTEX
  5
89D
  8
0
 62
     2
 10
6.5462800000000003
 20
14.4763
 30
0.0
 70
    32
  0
VERTEX
  5
89E
  8
0
 62
     2
 10
6.5438900000000002
 20
14.477399999999999
 30
0.0
 70
    32
  0
VERTEX
  5
89F
  8
0
 62
     2
 10
6.5415299999999981
 20
14.4787
 30
0.0
 70
    32
  0
VERTEX
  5
8A0
  8
0
 62
     2
 10
6.5392000000000001
 20
14.48
 30
0.0
 70
    32
  0
VERTEX
  5
8A1
  8
0
 62
     2
 10
6.536889999999997
 20
14.481299999999999
 30
0.0
 70
    32
  0
VERTEX
  5
8A2
  8
0
 62
     2
 10
6.534609999999998
 20
14.482799999999999
 30
0.0
 70
    32
  0
VERTEX
  5
8A3
  8
0
 62
     2
 10
6.5323699999999993
 20
14.484299999999999
 30
0.0
 70
    32
  0
VERTEX
  5
8A4
  8
0
 62
     2
 10
6.5301599999999986
 20
14.485799999999999
 30
0.0
 70
    32
  0
VERTEX
  5
8A5
  8
0
 62
     2
 10
6.5279800000000003
 20
14.487399999999999
 30
0.0
 70
    32
  0
VERTEX
  5
8A6
  8
0
 62
     2
 10
6.5258399999999988
 20
14.489100000000001
 30
0.0
 70
    32
  0
VERTEX
  5
8A7
  8
0
 62
     2
 10
6.5237299999999987
 20
14.4908
 30
0.0
 70
    32
  0
VERTEX
  5
8A8
  8
0
 62
     2
 10
6.521659999999998
 20
14.492599999999999
 30
0.0
 70
    32
  0
VERTEX
  5
8A9
  8
0
 62
     2
 10
6.5196300000000003
 20
14.4945
 30
0.0
 70
    32
  0
VERTEX
  5
8AA
  8
0
 62
     2
 10
6.5176499999999971
 20
14.4964
 30
0.0
 70
    32
  0
VERTEX
  5
8AB
  8
0
 62
     2
 10
6.515699999999998
 20
14.4984
 30
0.0
 70
    32
  0
VERTEX
  5
8AC
  8
0
 62
     2
 10
6.513799999999998
 20
14.500400000000001
 30
0.0
 70
    32
  0
VERTEX
  5
8AD
  8
0
 62
     2
 10
6.5119400000000001
 20
14.5024
 30
0.0
 70
    32
  0
VERTEX
  5
8AE
  8
0
 62
     2
 10
6.510119999999997
 20
14.5046
 30
0.0
 70
    32
  0
VERTEX
  5
8AF
  8
0
 62
     2
 10
6.5083500000000001
 20
14.5067
 30
0.0
 70
    32
  0
VERTEX
  5
8B0
  8
0
 62
     2
 10
6.5066300000000004
 20
14.509
 30
0.0
 70
    32
  0
VERTEX
  5
8B1
  8
0
 62
     2
 10
6.5049599999999987
 20
14.511200000000001
 30
0.0
 70
    32
  0
VERTEX
  5
8B2
  8
0
 62
     2
 10
6.503339999999997
 20
14.513500000000001
 30
0.0
 70
    32
  0
VERTEX
  5
8B3
  8
0
 62
     2
 10
6.5017599999999991
 20
14.5159
 30
0.0
 70
    32
  0
VERTEX
  5
8B4
  8
0
 62
     2
 10
6.500239999999998
 20
14.5183
 30
0.0
 70
    32
  0
VERTEX
  5
8B5
  8
0
 62
     2
 10
6.4987699999999986
 20
14.5207
 30
0.0
 70
    32
  0
VERTEX
  5
8B6
  8
0
 62
     2
 10
6.4973499999999991
 20
14.523199999999999
 30
0.0
 70
    32
  0
VERTEX
  5
8B7
  8
0
 62
     2
 10
6.495989999999999
 20
14.5258
 30
0.0
 70
    32
  0
VERTEX
  5
8B8
  8
0
 62
     2
 10
6.494679999999998
 20
14.5283
 30
0.0
 70
    32
  0
VERTEX
  5
8B9
  8
0
 62
     2
 10
6.49343
 20
14.530900000000001
 30
0.0
 70
    32
  0
VERTEX
  5
8BA
  8
0
 62
     2
 10
6.4922300000000002
 20
14.5335
 30
0.0
 70
    32
  0
VERTEX
  5
8BB
  8
0
 62
     2
 10
6.491089999999998
 20
14.536199999999999
 30
0.0
 70
    32
  0
VERTEX
  5
8BC
  8
0
 62
     2
 10
6.4900099999999981
 20
14.5389
 30
0.0
 70
    32
  0
VERTEX
  5
8BD
  8
0
 62
     2
 10
6.4889900000000003
 20
14.541600000000001
 30
0.0
 70
    32
  0
VERTEX
  5
8BE
  8
0
 62
     2
 10
6.488019999999997
 20
14.5444
 30
0.0
 70
    32
  0
VERTEX
  5
8BF
  8
0
 62
     2
 10
6.4871199999999991
 20
14.5472
 30
0.0
 70
    32
  0
VERTEX
  5
8C0
  8
0
 62
     2
 10
6.4862699999999993
 20
14.550000000000001
 30
0.0
 70
    32
  0
VERTEX
  5
8C1
  8
0
 62
     2
 10
6.4854900000000004
 20
14.5528
 30
0.0
 70
    32
  0
VERTEX
  5
8C2
  8
0
 62
     2
 10
6.4847599999999987
 20
14.5556
 30
0.0
 70
    32
  0
VERTEX
  5
8C3
  8
0
 62
     2
 10
6.4840999999999971
 20
14.5585
 30
0.0
 70
    32
  0
VERTEX
  5
8C4
  8
0
 62
     2
 10
6.4835000000000003
 20
14.561400000000001
 30
0.0
 70
    32
  0
VERTEX
  5
8C5
  8
0
 62
     2
 10
6.4829600000000003
 20
14.564299999999999
 30
0.0
 70
    32
  0
VERTEX
  5
8C6
  8
0
 62
     2
 10
6.4824900000000003
 20
14.5672
 30
0.0
 70
    32
  0
VERTEX
  5
8C7
  8
0
 62
     2
 10
6.4820699999999993
 20
14.5701
 30
0.0
 70
    32
  0
VERTEX
  5
8C8
  8
0
 62
     2
 10
6.4817299999999971
 20
14.5731
 30
0.0
 70
    32
  0
VERTEX
  5
8C9
  8
0
 62
     2
 10
6.4814400000000001
 20
14.576000000000001
 30
0.0
 70
    32
  0
VERTEX
  5
8CA
  8
0
 62
     2
 10
6.4812199999999986
 20
14.579000000000001
 30
0.0
 70
    32
  0
VERTEX
  5
8CB
  8
0
 62
     2
 10
6.4810600000000003
 20
14.581899999999999
 30
0.0
 70
    32
  0
VERTEX
  5
8CC
  8
0
 62
     2
 10
6.4809599999999987
 20
14.584899999999999
 30
0.0
 70
    32
  0
VERTEX
  5
8CD
  8
0
 62
     2
 10
6.4809299999999981
 20
14.5878
 30
0.0
 70
    32
  0
SEQEND
  5
8CE
  8
0
 62
     2
  0
POLYLINE
  5
4C2
  8
0
 62
     2
 66
     1
 10
0.0
 20
0.0
 30
0.0
 70
     8
  0
VERTEX
  5
8CF
  8
0
 62
     2
 10
6.6926600000000001
 20
14.222899999999999
 30
0.0
 70
    32
  0
VERTEX
  5
8D0
  8
0
 62
     2
 10
6.6926300000000003
 20
14.225899999999999
 30
0.0
 70
    32
  0
VERTEX
  5
8D1
  8
0
 62
     2
 10
6.6925399999999993
 20
14.228899999999999
 30
0.0
 70
    32
  0
VERTEX
  5
8D2
  8
0
 62
     2
 10
6.6923799999999991
 20
14.2318
 30
0.0
 70
    32
  0
VERTEX
  5
8D3
  8
0
 62
     2
 10
6.692149999999998
 20
14.2348
 30
0.0
 70
    32
  0
VERTEX
  5
8D4
  8
0
 62
     2
 10
6.6918699999999971
 20
14.2377
 30
0.0
 70
    32
  0
VERTEX
  5
8D5
  8
0
 62
     2
 10
6.691519999999997
 20
14.2407
 30
0.0
 70
    32
  0
VERTEX
  5
8D6
  8
0
 62
     2
 10
6.6910999999999987
 20
14.243600000000001
 30
0.0
 70
    32
  0
VERTEX
  5
8D7
  8
0
 62
     2
 10
6.6906299999999987
 20
14.246499999999999
 30
0.0
 70
    32
  0
VERTEX
  5
8D8
  8
0
 62
     2
 10
6.690089999999997
 20
14.2494
 30
0.0
 70
    32
  0
VERTEX
  5
8D9
  8
0
 62
     2
 10
6.6894899999999993
 20
14.2523
 30
0.0
 70
    32
  0
VERTEX
  5
8DA
  8
0
 62
     2
 10
6.6888300000000003
 20
14.255100000000001
 30
0.0
 70
    32
  0
VERTEX
  5
8DB
  8
0
 62
     2
 10
6.6881000000000004
 20
14.257999999999999
 30
0.0
 70
    32
  0
VERTEX
  5
8DC
  8
0
 62
     2
 10
6.687319999999997
 20
14.2608
 30
0.0
 70
    32
  0
VERTEX
  5
8DD
  8
0
 62
     2
 10
6.686469999999999
 20
14.2636
 30
0.0
 70
    32
  0
VERTEX
  5
8DE
  8
0
 62
     2
 10
6.6855699999999993
 20
14.266400000000001
 30
0.0
 70
    32
  0
VERTEX
  5
8DF
  8
0
 62
     2
 10
6.684599999999997
 20
14.2691
 30
0.0
 70
    32
  0
VERTEX
  5
8E0
  8
0
 62
     2
 10
6.6835800000000001
 20
14.2719
 30
0.0
 70
    32
  0
VERTEX
  5
8E1
  8
0
 62
     2
 10
6.6825000000000001
 20
14.2746
 30
0.0
 70
    32
  0
VERTEX
  5
8E2
  8
0
 62
     2
 10
6.6813599999999971
 20
14.277200000000001
 30
0.0
 70
    32
  0
VERTEX
  5
8E3
  8
0
 62
     2
 10
6.6801599999999981
 20
14.2799
 30
0.0
 70
    32
  0
VERTEX
  5
8E4
  8
0
 62
     2
 10
6.678910000000001
 20
14.282500000000001
 30
0.0
 70
    32
  0
VERTEX
  5
8E5
  8
0
 62
     2
 10
6.6775999999999991
 20
14.285
 30
0.0
 70
    32
  0
VERTEX
  5
8E6
  8
0
 62
     2
 10
6.6762399999999991
 20
14.2875
 30
0.0
 70
    32
  0
VERTEX
  5
8E7
  8
0
 62
     2
 10
6.6748199999999986
 20
14.289999999999999
 30
0.0
 70
    32
  0
VERTEX
  5
8E8
  8
0
 62
     2
 10
6.6733500000000001
 20
14.2925
 30
0.0
 70
    32
  0
VERTEX
  5
8E9
  8
0
 62
     2
 10
6.671829999999999
 20
14.2949
 30
0.0
 70
    32
  0
VERTEX
  5
8EA
  8
0
 62
     2
 10
6.6702599999999981
 20
14.2972
 30
0.0
 70
    32
  0
VERTEX
  5
8EB
  8
0
 62
     2
 10
6.6686300000000003
 20
14.2995
 30
0.0
 70
    32
  0
VERTEX
  5
8EC
  8
0
 62
     2
 10
6.6669600000000004
 20
14.3018
 30
0.0
 70
    32
  0
VERTEX
  5
8ED
  8
0
 62
     2
 10
6.6652399999999981
 20
14.304
 30
0.0
 70
    32
  0
VERTEX
  5
8EE
  8
0
 62
     2
 10
6.6634699999999993
 20
14.3062
 30
0.0
 70
    32
  0
VERTEX
  5
8EF
  8
0
 62
     2
 10
6.6616600000000004
 20
14.308299999999999
 30
0.0
 70
    32
  0
VERTEX
  5
8F0
  8
0
 62
     2
 10
6.6597999999999971
 20
14.3104
 30
0.0
 70
    32
  0
VERTEX
  5
8F1
  8
0
 62
     2
 10
6.6578899999999992
 20
14.3124
 30
0.0
 70
    32
  0
VERTEX
  5
8F2
  8
0
 62
     2
 10
6.655949999999998
 20
14.314399999999999
 30
0.0
 70
    32
  0
VERTEX
  5
8F3
  8
0
 62
     2
 10
6.653959999999997
 20
14.3163
 30
0.0
 70
    32
  0
VERTEX
  5
8F4
  8
0
 62
     2
 10
6.6519300000000001
 20
14.318099999999999
 30
0.0
 70
    32
  0
VERTEX
  5
8F5
  8
0
 62
     2
 10
6.6498600000000003
 20
14.319900000000001
 30
0.0
 70
    32
  0
VERTEX
  5
8F6
  8
0
 62
     2
 10
6.6477500000000003
 20
14.3217
 30
0.0
 70
    32
  0
VERTEX
  5
8F7
  8
0
 62
     2
 10
6.6456099999999987
 20
14.3233
 30
0.0
 70
    32
  0
VERTEX
  5
8F8
  8
0
 62
     2
 10
6.6434300000000004
 20
14.324999999999999
 30
0.0
 70
    32
  0
VERTEX
  5
8F9
  8
0
 62
     2
 10
6.641219999999997
 20
14.326499999999999
 30
0.0
 70
    32
  0
VERTEX
  5
8FA
  8
0
 62
     2
 10
6.6389800000000001
 20
14.327999999999999
 30
0.0
 70
    32
  0
VERTEX
  5
8FB
  8
0
 62
     2
 10
6.6367000000000003
 20
14.3294
 30
0.0
 70
    32
  0
VERTEX
  5
8FC
  8
0
 62
     2
 10
6.634389999999998
 20
14.3308
 30
0.0
 70
    32
  0
VERTEX
  5
8FD
  8
0
 62
     2
 10
6.6320600000000001
 20
14.332100000000001
 30
0.0
 70
    32
  0
VERTEX
  5
8FE
  8
0
 62
     2
 10
6.629699999999997
 20
14.333299999999999
 30
0.0
 70
    32
  0
VERTEX
  5
8FF
  8
0
 62
     2
 10
6.6273099999999987
 20
14.3345
 30
0.0
 70
    32
  0
VERTEX
  5
900
  8
0
 62
     2
 10
6.6249000000000002
 20
14.335599999999999
 30
0.0
 70
    32
  0
VERTEX
  5
901
  8
0
 62
     2
 10
6.6224600000000002
 20
14.336600000000001
 30
0.0
 70
    32
  0
VERTEX
  5
902
  8
0
 62
     2
 10
6.6200000000000001
 20
14.3376
 30
0.0
 70
    32
  0
VERTEX
  5
903
  8
0
 62
     2
 10
6.6175300000000004
 20
14.3385
 30
0.0
 70
    32
  0
VERTEX
  5
904
  8
0
 62
     2
 10
6.6150299999999991
 20
14.3393
 30
0.0
 70
    32
  0
VERTEX
  5
905
  8
0
 62
     2
 10
6.6125199999999991
 20
14.3401
 30
0.0
 70
    32
  0
VERTEX
  5
906
  8
0
 62
     2
 10
6.609989999999998
 20
14.3408
 30
0.0
 70
    32
  0
VERTEX
  5
907
  8
0
 62
     2
 10
6.60745
 20
14.3414
 30
0.0
 70
    32
  0
VERTEX
  5
908
  8
0
 62
     2
 10
6.6048999999999971
 20
14.341900000000001
 30
0.0
 70
    32
  0
VERTEX
  5
909
  8
0
 62
     2
 10
6.6023300000000003
 20
14.3424
 30
0.0
 70
    32
  0
VERTEX
  5
90A
  8
0
 62
     2
 10
6.5997599999999981
 20
14.3428
 30
0.0
 70
    32
  0
VERTEX
  5
90B
  8
0
 62
     2
 10
6.5971699999999993
 20
14.3431
 30
0.0
 70
    32
  0
VERTEX
  5
90C
  8
0
 62
     2
 10
6.594579999999997
 20
14.343400000000001
 30
0.0
 70
    32
  0
VERTEX
  5
90D
  8
0
 62
     2
 10
6.5919899999999991
 20
14.343500000000001
 30
0.0
 70
    32
  0
VERTEX
  5
90E
  8
0
 62
     2
 10
6.5893899999999981
 20
14.3437
 30
0.0
 70
    32
  0
VERTEX
  5
90F
  8
0
 62
     2
 10
6.5868000000000002
 20
14.3437
 30
0.0
 70
    32
  0
VERTEX
  5
910
  8
0
 62
     2
 10
6.5842000000000001
 20
14.3437
 30
0.0
 70
    32
  0
VERTEX
  5
911
  8
0
 62
     2
 10
6.581599999999999
 20
14.343500000000001
 30
0.0
 70
    32
  0
VERTEX
  5
912
  8
0
 62
     2
 10
6.5790100000000002
 20
14.343400000000001
 30
0.0
 70
    32
  0
VERTEX
  5
913
  8
0
 62
     2
 10
6.576419999999997
 20
14.3431
 30
0.0
 70
    32
  0
VERTEX
  5
914
  8
0
 62
     2
 10
6.573839999999997
 20
14.3428
 30
0.0
 70
    32
  0
VERTEX
  5
915
  8
0
 62
     2
 10
6.571259999999997
 20
14.3424
 30
0.0
 70
    32
  0
VERTEX
  5
916
  8
0
 62
     2
 10
6.5686999999999971
 20
14.341900000000001
 30
0.0
 70
    32
  0
VERTEX
  5
917
  8
0
 62
     2
 10
6.5661399999999981
 20
14.3414
 30
0.0
 70
    32
  0
VERTEX
  5
918
  8
0
 62
     2
 10
6.5636000000000001
 20
14.3408
 30
0.0
 70
    32
  0
VERTEX
  5
919
  8
0
 62
     2
 10
6.5610699999999991
 20
14.3401
 30
0.0
 70
    32
  0
VERTEX
  5
91A
  8
0
 62
     2
 10
6.5585599999999991
 20
14.3393
 30
0.0
 70
    32
  0
VERTEX
  5
91B
  8
0
 62
     2
 10
6.5560600000000004
 20
14.3385
 30
0.0
 70
    32
  0
VERTEX
  5
91C
  8
0
 62
     2
 10
6.553589999999998
 20
14.3376
 30
0.0
 70
    32
  0
VERTEX
  5
91D
  8
0
 62
     2
 10
6.551129999999997
 20
14.336600000000001
 30
0.0
 70
    32
  0
VERTEX
  5
91E
  8
0
 62
     2
 10
6.548689999999997
 20
14.335599999999999
 30
0.0
 70
    32
  0
VERTEX
  5
91F
  8
0
 62
     2
 10
6.5462800000000003
 20
14.3345
 30
0.0
 70
    32
  0
VERTEX
  5
920
  8
0
 62
     2
 10
6.5438900000000002
 20
14.333299999999999
 30
0.0
 70
    32
  0
VERTEX
  5
921
  8
0
 62
     2
 10
6.5415299999999981
 20
14.332100000000001
 30
0.0
 70
    32
  0
VERTEX
  5
922
  8
0
 62
     2
 10
6.5392000000000001
 20
14.3308
 30
0.0
 70
    32
  0
VERTEX
  5
923
  8
0
 62
     2
 10
6.536889999999997
 20
14.3294
 30
0.0
 70
    32
  0
VERTEX
  5
924
  8
0
 62
     2
 10
6.534609999999998
 20
14.327999999999999
 30
0.0
 70
    32
  0
VERTEX
  5
925
  8
0
 62
     2
 10
6.5323699999999993
 20
14.326499999999999
 30
0.0
 70
    32
  0
VERTEX
  5
926
  8
0
 62
     2
 10
6.5301599999999986
 20
14.324999999999999
 30
0.0
 70
    32
  0
VERTEX
  5
927
  8
0
 62
     2
 10
6.5279800000000003
 20
14.3233
 30
0.0
 70
    32
  0
VERTEX
  5
928
  8
0
 62
     2
 10
6.5258399999999988
 20
14.3217
 30
0.0
 70
    32
  0
VERTEX
  5
929
  8
0
 62
     2
 10
6.5237299999999987
 20
14.319900000000001
 30
0.0
 70
    32
  0
VERTEX
  5
92A
  8
0
 62
     2
 10
6.521659999999998
 20
14.318099999999999
 30
0.0
 70
    32
  0
VERTEX
  5
92B
  8
0
 62
     2
 10
6.5196300000000003
 20
14.3163
 30
0.0
 70
    32
  0
VERTEX
  5
92C
  8
0
 62
     2
 10
6.5176499999999971
 20
14.314399999999999
 30
0.0
 70
    32
  0
VERTEX
  5
92D
  8
0
 62
     2
 10
6.515699999999998
 20
14.3124
 30
0.0
 70
    32
  0
VERTEX
  5
92E
  8
0
 62
     2
 10
6.513799999999998
 20
14.3104
 30
0.0
 70
    32
  0
VERTEX
  5
92F
  8
0
 62
     2
 10
6.5119400000000001
 20
14.308299999999999
 30
0.0
 70
    32
  0
VERTEX
  5
930
  8
0
 62
     2
 10
6.510119999999997
 20
14.3062
 30
0.0
 70
    32
  0
VERTEX
  5
931
  8
0
 62
     2
 10
6.5083500000000001
 20
14.304
 30
0.0
 70
    32
  0
VERTEX
  5
932
  8
0
 62
     2
 10
6.5066300000000004
 20
14.3018
 30
0.0
 70
    32
  0
VERTEX
  5
933
  8
0
 62
     2
 10
6.5049599999999987
 20
14.2995
 30
0.0
 70
    32
  0
VERTEX
  5
934
  8
0
 62
     2
 10
6.503339999999997
 20
14.2972
 30
0.0
 70
    32
  0
VERTEX
  5
935
  8
0
 62
     2
 10
6.5017599999999991
 20
14.2949
 30
0.0
 70
    32
  0
VERTEX
  5
936
  8
0
 62
     2
 10
6.500239999999998
 20
14.2925
 30
0.0
 70
    32
  0
VERTEX
  5
937
  8
0
 62
     2
 10
6.4987699999999986
 20
14.289999999999999
 30
0.0
 70
    32
  0
VERTEX
  5
938
  8
0
 62
     2
 10
6.4973499999999991
 20
14.2875
 30
0.0
 70
    32
  0
VERTEX
  5
939
  8
0
 62
     2
 10
6.495989999999999
 20
14.285
 30
0.0
 70
    32
  0
VERTEX
  5
93A
  8
0
 62
     2
 10
6.494679999999998
 20
14.282500000000001
 30
0.0
 70
    32
  0
VERTEX
  5
93B
  8
0
 62
     2
 10
6.49343
 20
14.2799
 30
0.0
 70
    32
  0
VERTEX
  5
93C
  8
0
 62
     2
 10
6.4922300000000002
 20
14.277200000000001
 30
0.0
 70
    32
  0
VERTEX
  5
93D
  8
0
 62
     2
 10
6.491089999999998
 20
14.2746
 30
0.0
 70
    32
  0
VERTEX
  5
93E
  8
0
 62
     2
 10
6.4900099999999981
 20
14.2719
 30
0.0
 70
    32
  0
VERTEX
  5
93F
  8
0
 62
     2
 10
6.4889900000000003
 20
14.2691
 30
0.0
 70
    32
  0
VERTEX
  5
940
  8
0
 62
     2
 10
6.488019999999997
 20
14.266400000000001
 30
0.0
 70
    32
  0
VERTEX
  5
941
  8
0
 62
     2
 10
6.4871199999999991
 20
14.2636
 30
0.0
 70
    32
  0
VERTEX
  5
942
  8
0
 62
     2
 10
6.4862699999999993
 20
14.2608
 30
0.0
 70
    32
  0
VERTEX
  5
943
  8
0
 62
     2
 10
6.4854900000000004
 20
14.257999999999999
 30
0.0
 70
    32
  0
VERTEX
  5
944
  8
0
 62
     2
 10
6.4847599999999987
 20
14.255100000000001
 30
0.0
 70
    32
  0
VERTEX
  5
945
  8
0
 62
     2
 10
6.4840999999999971
 20
14.2523
 30
0.0
 70
    32
  0
VERTEX
  5
946
  8
0
 62
     2
 10
6.4835000000000003
 20
14.2494
 30
0.0
 70
    32
  0
VERTEX
  5
947
  8
0
 62
     2
 10
6.4829600000000003
 20
14.246499999999999
 30
0.0
 70
    32
  0
VERTEX
  5
948
  8
0
 62
     2
 10
6.4824900000000003
 20
14.243600000000001
 30
0.0
 70
    32
  0
VERTEX
  5
949
  8
0
 62
     2
 10
6.4820699999999993
 20
14.2407
 30
0.0
 70
    32
  0
VERTEX
  5
94A
  8
0
 62
     2
 10
6.4817299999999971
 20
14.2377
 30
0.0
 70
    32
  0
VERTEX
  5
94B
  8
0
 62
     2
 10
6.4814400000000001
 20
14.2348
 30
0.0
 70
    32
  0
VERTEX
  5
94C
  8
0
 62
     2
 10
6.4812199999999986
 20
14.2318
 30
0.0
 70
    32
  0
VERTEX
  5
94D
  8
0
 62
     2
 10
6.4810600000000003
 20
14.228899999999999
 30
0.0
 70
    32
  0
VERTEX
  5
94E
  8
0
 62
     2
 10
6.4809599999999987
 20
14.225899999999999
 30
0.0
 70
    32
  0
VERTEX
  5
94F
  8
0
 62
     2
 10
6.4809299999999981
 20
14.222899999999999
 30
0.0
 70
    32
  0
SEQEND
  5
950
  8
0
 62
     2
  0
LINE
  5
4C3
  8
DISPLAY
 62
     2
 10
6.4809288705552301
 20
14.22293076224835
 30
0.0
 11
6.4809288705552301
 21
14.181643987520889
 31
0.0
  0
LINE
  5
4C4
  8
DISPLAY
 62
     2
 10
6.4809288705552301
 20
14.58783746731228
 30
0.0
 11
6.4809288705552301
 21
14.62912424203974
 31
0.0
  0
LINE
  5
4C5
  8
DISPLAY
 62
     2
 10
6.6926627595242332
 20
14.22293076224835
 30
0.0
 11
6.6926627595242332
 21
14.181643987520889
 31
0.0
  0
LINE
  5
4C6
  8
DISPLAY
 62
     2
 10
6.6926627595242332
 20
14.58783746731228
 30
0.0
 11
6.6926627595242332
 21
14.62912424203974
 31
0.0
  0
LINE
  5
4C7
  8
DISPLAY
 62
     4
 10
6.2691949815862227
 20
17.769338112732139
 30
0.0
 11
6.2691949815862227
 21
16.755645187252519
 31
0.0
  0
LINE
  5
4C9
  8
DISPLAY
 62
     4
 10
1.1479672009295001
 20
11.580931181779331
 30
0.0
 11
1.1479672009295001
 21
10.107547460721801
 31
0.0
  0
LINE
  5
4CA
  8
DISPLAY
 62
     4
 10
8.0777063826962205
 20
11.580931181779331
 30
0.0
 11
8.0777063826962205
 21
10.107547460721801
 31
0.0
  0
LINE
  5
4CB
  8
DISPLAY
 62
     4
 10
15.007445564462939
 20
11.580931181779331
 30
0.0
 11
15.007445564462939
 21
10.107547460721801
 31
0.0
  0
TEXT
  5
4CC
  8
0
 62
     2
 10
-0.1740058587060048
 20
9.8062090883288633
 30
0.0
 40
0.215
  1
52BL1
  7
ARIAL
 72
     2
 11
0.7576608079606615
 21
9.8062090883288633
 31
0.0
  0
INSERT
  5
4D1
  8
0
 66
     1
  2
2_STATE_BRKR_SYMBOL_ST1-GR
 10
-5.1092511611452931
 20
5.5822889148715991
 30
0.0
  0
ATTRIB
  5
4D2
  8
0
  6
CONTINUOUS
 62
     6
 10
0.8817507351910388
 20
9.5410241590444969
 30
0.0
 40
0.084010003753032
  1
010100010000007e01
  2
LINKAGE
 70
     9
  0
SEQEND
  5
4D3
  8
0
  0
INSERT
  5
4D9
  8
0
 66
     1
  2
2_STATE_BRKR_SYMBOL_ST1-GR
 10
1.820488020621422
 20
5.5822889148715991
 30
0.0
  0
ATTRIB
  5
4DA
  8
0
  6
CONTINUOUS
 62
     6
 10
7.8114899169577559
 20
9.5410241590444969
 30
0.0
 40
0.084010003753032
  1
010100010000008101
  2
LINKAGE
 70
     9
  0
SEQEND
  5
4DB
  8
0
  0
INSERT
  5
4E1
  8
0
 66
     1
  2
2_STATE_BRKR_SYMBOL_ST1-GR
 10
8.7502272023881424
 20
5.5822889148715991
 30
0.0
  0
ATTRIB
  5
4E2
  8
0
  6
CONTINUOUS
 62
     6
 10
14.741229098724469
 20
9.5410241590444969
 30
0.0
 40
0.084010003753032
  1
010100010000008401
  2
LINKAGE
 70
     9
  0
SEQEND
  5
4E3
  8
0
  0
LINE
  5
4E4
  8
DISPLAY
 62
     4
 10
15.007445564462939
 20
9.6874974419566424
 30
0.0
 11
15.007445564462939
 21
8.2141137208991157
 31
0.0
  0
LINE
  5
4E5
  8
DISPLAY
 62
     4
 10
8.0777063826962205
 20
9.6874974419566424
 30
0.0
 11
8.0777063826962205
 21
8.2141137208991157
 31
0.0
  0
LINE
  5
4E6
  8
DISPLAY
 62
     4
 10
1.1479672009295001
 20
9.6874974419566424
 30
0.0
 11
1.1479672009295001
 21
8.2141137208991157
 31
0.0
  0
TEXT
  5
4E7
  8
0
 62
     2
 10
-0.2283279686430249
 20
7.7926471983579608
 30
0.0
 40
0.215
  1
To Wind Turbines
  7
ARIAL
  0
TEXT
  5
4EA
  8
0
 62
     2
 10
6.7014112131236931
 20
7.7926471983579608
 30
0.0
 40
0.215
  1
To Wind Turbines
  7
ARIAL
  0
TEXT
  5
4EB
  8
0
 62
     2
 10
13.63115039489041
 20
7.7926471983579608
 30
0.0
 40
0.215
  1
To Wind Turbines
  7
ARIAL
  0
TEXT
  5
4F2
  8
0
 62
     2
 10
6.670355878767853
 20
9.8062090883288633
 30
0.0
 40
0.215
  1
52BL2
  7
ARIAL
 72
     2
 11
7.6736892121011859
 21
9.8062090883288633
 31
0.0
  0
TEXT
  5
4F3
  8
0
 62
     2
 10
13.59932766626444
 20
9.8062090883288633
 30
0.0
 40
0.215
  1
52BL3
  7
ARIAL
 72
     2
 11
14.60266099959777
 21
9.8062090883288633
 31
0.0
  0
TEXT
  5
4F4
  8
0
 62
     6
 10
-1.3726782166349101
 20
16.948801451952558
 30
0.0
 40
0.215
  1
INDEX
  7
ARIAL
  0
INSERT
  5
A12
  8
0
 66
     1
  2
ARROW_HEAD_DISPLAY_REF0
 10
-1.907250836587538
 20
17.721205402015858
 30
0.0
 41
1.8634611981471281
 42
1.8634611981471281
 43
1.8634611981471281
  0
ATTRIB
  5
A13
  8
0
 10
-2.373116136124322
 20
17.255340102479082
 30
0.0
 40
0.1397595898610346
  1
D:\C3ILEX\EOSCADA\DISPLAYS\MAIN_INDEX.DXF
  2
DISPLAY
 70
     9
  0
SEQEND
  5
A14
  8
0
  0
INSERT
  5
A16
  8
0
 66
     1
  2
ARROW_HEAD_DISPLAY_REF0
 10
-1.907250836587538
 20
17.07498960197815
 30
0.0
 41
1.8634611981471281
 42
1.8634611981471281
 43
1.8634611981471281
  0
ATTRIB
  5
A17
  8
0
 10
-2.373116136124322
 20
16.609124302441369
 30
0.0
 40
0.1397595898610346
  1
C:\C3ILEX\EOSCADA\DISPLAYS\ONELINES\MAIN_INDEX.DXF
  2
DISPLAY
 70
     9
  0
SEQEND
  5
A18
  8
0
  0
TEXT
  5
B31
  8
0
 62
     2
 10
4.1051425689187271
 20
18.3409013523125
 30
0.0
 40
0.215
  1
To Village of Arcade
  7
ARIAL
 72
     1
 11
6.0759759022520603
 21
18.3409013523125
 31
0.0
  0
TEXT
  5
B32
  8
0
 62
     2
 10
4.6136337177161932
 20
17.982568018979169
 30
0.0
 40
0.215
  1
Freedom Substion
  7
ARIAL
 72
     1
 11
6.2261337177161931
 21
17.982568018979169
 31
0.0
  0
TEXT
  5
B33
  8
0
 62
     2
 10
1.5116565322089419
 20
15.6745907675789
 30
0.0
 40
0.215
  1
Bliss L1 Breaker
  7
ARIAL
 72
     2
 11
4.5574898655422764
 21
15.6745907675789
 31
0.0
  0
TEXT
  5
B34
  8
0
 62
     2
 10
5.1321841868832676
 20
15.447952485372269
 30
0.0
 40
0.215
  1
52L1
  7
ARIAL
 72
     2
 11
5.8488508535499353
 21
15.447952485372269
 31
0.0
  0
TEXT
  5
B35
  8
0
 62
     2
 10
3.085956835535538
 20
14.40522895735741
 30
0.0
 40
0.215
  1
Bliss T1
  7
ARIAL
  0
TEXT
  5
B36
  8
0
 62
     2
 10
3.085956835535538
 20
14.04689562402408
 30
0.0
 40
0.215
  1
121KV-34.5KV
  7
ARIAL
  0
TEXT
  5
B37
  8
0
 62
     2
 10
3.085956835535538
 20
13.688562290690751
 30
0.0
 40
0.215
  1
75/96/120MVA
  7
ARIAL
  0
TEXT
  5
CD2
  8
0
 62
     2
 10
13.426437935443561
 20
9.0160387527457821
 30
0.0
 40
0.215
  1
Low Gas
  7
ARIAL
 72
     2
 11
14.859771268776891
 21
9.0160387527457821
 31
0.0
  0
TEXT
  5
CDF
  8
0
 62
     2
 10
6.4966986952935857
 20
8.9633607495888334
 30
0.0
 40
0.215
  1
Low Gas
  7
ARIAL
 72
     2
 11
7.9300320286269201
 21
8.9633607495888334
 31
0.0
  0
TEXT
  5
CE5
  8
0
 62
     2
 10
12.747124601234299
 20
8.2785464203196533
 30
0.0
 40
0.215
  1
LOR Status
  7
ARIAL
 72
     2
 11
14.825457934567631
 21
8.2785464203196533
 31
0.0
  0
TEXT
  5
CEE
  8
0
 62
     2
 10
5.817385419467584
 20
8.2785464203196533
 30
0.0
 40
0.215
  1
LOR Status
  7
ARIAL
 72
     2
 11
7.8957187528009181
 21
8.2785464203196533
 31
0.0
  0
TEXT
  5
CF7
  8
0
 62
     2
 10
-1.112353762299134
 20
8.2785464203196533
 30
0.0
 40
0.215
  1
LOR Status
  7
ARIAL
 72
     2
 11
0.9659795710341992
 21
8.2785464203196533
 31
0.0
  0
TEXT
  5
CFC
  8
0
 62
     2
 10
-0.4330404864731344
 20
8.9633607495888334
 30
0.0
 40
0.215
  1
Low Gas
  7
ARIAL
 72
     2
 11
1.000292846860199
 21
8.9633607495888334
 31
0.0
  0
TEXT
  5
D05
  8
0
 62
     2
 10
4.688187351801866
 20
11.751520417056909
 30
0.0
 40
0.215
  1
Low Gas
  7
ARIAL
 72
     2
 11
6.1215206851352004
 21
11.751520417056909
 31
0.0
  0
INSERT
  5
EC3
  8
0
 66
     1
  2
SWITCH-1_ST1-GREEN_ST2-RED
 10
6.2691949815862227
 20
16.24314518725253
 30
0.0
 50
90.0
  0
ATTRIB
  5
EC4
  8
0
  6
CONTINUOUS
 10
6.638699908923531
 20
16.17996979833709
 30
0.0
 40
0.1
  1
010100010000007201
 50
90.0
  7
ARIAL
  2
LINKAGE
 70
     9
  0
SEQEND
  5
EC5
  8
0
  0
LINE
  5
FC6
  8
DISPLAY
 62
     4
 10
5.4245262794341889
 20
17.517346268335171
 30
0.0
 11
6.257865462086281
 21
17.517346268335171
 31
0.0
  0
LINE
  5
FC7
  8
SYMBOL
 62
     4
 10
4.9120262794341887
 20
17.517346268335171
 30
0.0
 11
4.5620272794341892
 21
17.517346268335171
 31
0.0
  0
INSERT
  5
FC8
  8
0
 66
     1
  2
SWITCH-1_ST1-GREEN_ST2-RE0
 10
5.4120262794341887
 20
17.517346268335171
 30
0.0
 41
-1.0
  0
ATTRIB
  5
FC9
  8
0
  6
CONTINUOUS
 10
5.4752016683496301
 20
17.147841340997861
 30
0.0
 40
0.1
  1
010100010000008801
  7
ARIAL
 71
     2
  2
LINKAGE
 70
     9
  0
SEQEND
  5
FCA
  8
0
  0
LINE
  5
FCB
  8
SYMBOL
 62
     4
 10
4.4620272794341904
 20
17.46734626833517
 30
0.0
 11
4.4620272794341904
 21
17.567346268335172
 31
0.0
  0
LINE
  5
FCC
  8
SYMBOL
 62
     4
 10
4.5620272794341892
 20
17.417346268335169
 30
0.0
 11
4.5620272794341892
 21
17.617346268335169
 31
0.0
  0
LINE
  5
FCD
  8
SYMBOL
 62
     4
 10
4.5120262794341892
 20
17.59234626833517
 30
0.0
 11
4.5120262794341892
 21
17.442346268335172
 31
0.0
  0
ENDSEC
  0
EOF
