  0
SECTION
  2
HEADER
  9
$ACADVER
  1
AC1009
  9
$INSBASE
 10
0.0
 20
0.0
 30
0.0
  9
$EXTMIN
 10
6.0784938085339801
 20
1.268783590095836
 30
0.0
  9
$EXTMAX
 10
17.70455437887793
 20
6.6261708018486161
 30
0.0
  9
$LIMMIN
 10
0.0
 20
0.0
  9
$LIMMAX
 10
12.0
 20
9.0
  9
$ORTHOMODE
 70
     1
  9
$REGENMODE
 70
     1
  9
$FILLMODE
 70
     1
  9
$QTEXTMODE
 70
     0
  9
$MIRRTEXT
 70
     1
  9
$DRAGMODE
 70
     2
  9
$LTSCALE
 40
1.0
  9
$OSMODE
 70
     7
  9
$ATTMODE
 70
     1
  9
$TEXTSIZE
 40
0.2
  9
$TRACEWID
 40
0.05
  9
$TEXTSTYLE
  7
ARIAL
  9
$CLAYER
  8
LINES
  9
$CELTYPE
  6
BYLAYER
  9
$CECOLOR
 62
     7
  9
$DIMSCALE
 40
1.0
  9
$DIMASZ
 40
0.18
  9
$DIMEXO
 40
0.0625
  9
$DIMDLI
 40
0.38
  9
$DIMRND
 40
0.0
  9
$DIMDLE
 40
0.0
  9
$DIMEXE
 40
0.18
  9
$DIMTP
 40
0.0
  9
$DIMTM
 40
0.0
  9
$DIMTXT
 40
0.18
  9
$DIMCEN
 40
0.09
  9
$DIMTSZ
 40
0.0
  9
$DIMTOL
 70
     0
  9
$DIMLIM
 70
     0
  9
$DIMTIH
 70
     1
  9
$DIMTOH
 70
     1
  9
$DIMSE1
 70
     0
  9
$DIMSE2
 70
     0
  9
$DIMTAD
 70
     0
  9
$DIMZIN
 70
     0
  9
$DIMBLK
  1

  9
$DIMASO
 70
     1
  9
$DIMSHO
 70
     1
  9
$DIMPOST
  1

  9
$DIMAPOST
  1

  9
$DIMALT
 70
     0
  9
$DIMALTD
 70
     2
  9
$DIMALTF
 40
25.399999999999999
  9
$DIMLFAC
 40
1.0
  9
$DIMTOFL
 70
     0
  9
$DIMTVP
 40
0.0
  9
$DIMTIX
 70
     0
  9
$DIMSOXD
 70
     0
  9
$DIMSAH
 70
     0
  9
$DIMBLK1
  1

  9
$DIMBLK2
  1

  9
$DIMSTYLE
  2
STANDARD
  9
$DIMCLRD
 70
     0
  9
$DIMCLRE
 70
     0
  9
$DIMCLRT
 70
     0
  9
$DIMTFAC
 40
1.0
  9
$DIMGAP
 40
0.09
  9
$LUNITS
 70
     2
  9
$LUPREC
 70
     4
  9
$SKETCHINC
 40
0.1
  9
$FILLETRAD
 40
0.0
  9
$AUNITS
 70
     0
  9
$AUPREC
 70
     0
  9
$MENU
  1
.
  9
$ELEVATION
 40
0.0
  9
$PELEVATION
 40
0.0
  9
$THICKNESS
 40
0.0
  9
$LIMCHECK
 70
     0
  9
$BLIPMODE
 70
     0
  9
$CHAMFERA
 40
0.5
  9
$CHAMFERB
 40
0.5
  9
$SKPOLY
 70
     0
  9
$TDCREATE
 40
2452669.3492247001
  9
$TDUPDATE
 40
2456573.5804356951
  9
$TDINDWG
 40
0.1560965856
  9
$TDUSRTIMER
 40
0.1560843403
  9
$USRTIMER
 70
     1
  9
$ANGBASE
 50
0.0
  9
$ANGDIR
 70
     0
  9
$PDMODE
 70
     0
  9
$PDSIZE
 40
0.0
  9
$PLINEWID
 40
0.0
  9
$COORDS
 70
     1
  9
$SPLFRAME
 70
     0
  9
$SPLINETYPE
 70
     6
  9
$SPLINESEGS
 70
     8
  9
$ATTDIA
 70
     1
  9
$ATTREQ
 70
     1
  9
$HANDLING
 70
     1
  9
$HANDSEED
  5
1072
  9
$SURFTAB1
 70
     6
  9
$SURFTAB2
 70
     6
  9
$SURFTYPE
 70
     6
  9
$SURFU
 70
     6
  9
$SURFV
 70
     6
  9
$UCSNAME
  2

  9
$UCSORG
 10
0.0
 20
0.0
 30
0.0
  9
$UCSXDIR
 10
1.0
 20
0.0
 30
0.0
  9
$UCSYDIR
 10
0.0
 20
1.0
 30
0.0
  9
$PUCSNAME
  2

  9
$PUCSORG
 10
0.0
 20
0.0
 30
0.0
  9
$PUCSXDIR
 10
1.0
 20
0.0
 30
0.0
  9
$PUCSYDIR
 10
0.0
 20
1.0
 30
0.0
  9
$USERI1
 70
     0
  9
$USERI2
 70
     0
  9
$USERI3
 70
     0
  9
$USERI4
 70
     0
  9
$USERI5
 70
     0
  9
$USERR1
 40
0.0
  9
$USERR2
 40
0.0
  9
$USERR3
 40
0.0
  9
$USERR4
 40
0.0
  9
$USERR5
 40
0.0
  9
$WORLDVIEW
 70
     1
  9
$SHADEDGE
 70
     3
  9
$SHADEDIF
 70
    70
  9
$TILEMODE
 70
     1
  9
$MAXACTVP
 70
    64
  9
$PLIMCHECK
 70
     0
  9
$PEXTMIN
 10
1.0000000000000000E+020
 20
1.0000000000000000E+020
 30
1.0000000000000000E+020
  9
$PEXTMAX
 10
-1.0000000000000000E+020
 20
-1.0000000000000000E+020
 30
-1.0000000000000000E+020
  9
$PLIMMIN
 10
0.0
 20
0.0
  9
$PLIMMAX
 10
12.0
 20
9.0
  9
$UNITMODE
 70
     0
  9
$VISRETAIN
 70
     1
  9
$PLINEGEN
 70
     0
  9
$PSLTSCALE
 70
     1
  0
ENDSEC
  0
SECTION
  2
TABLES
  0
TABLE
  2
VPORT
 70
     1
  0
VPORT
  2
*ACTIVE
 70
     0
 10
0.0
 20
0.0
 11
1.0
 21
1.0
 12
15.26807880668799
 22
3.045313735484549
 13
0.0
 23
0.0
 14
0.5
 24
0.5
 15
0.25
 25
0.25
 16
0.0
 26
0.0
 36
1.0
 17
0.0
 27
0.0
 37
0.0
 40
11.68271437335504
 41
1.8804573804573801
 42
50.0
 43
0.0
 44
0.0
 50
0.0
 51
0.0
 71
     0
 72
   100
 73
     1
 74
     3
 75
     0
 76
     1
 77
     0
 78
     0
  0
ENDTAB
  0
TABLE
  2
LTYPE
 70
    18
  0
LTYPE
  2
CONTINUOUS
 70
     0
  3
Solid line
 72
    65
 73
     0
 40
0.0
  0
LTYPE
  2
HIDDEN
 70
     0
  3
Hidden __ __ __ __ __ __ __ __ __ __ __ __ __ _
 72
    65
 73
     2
 40
0.375
 49
0.25
 49
-0.125
  0
LTYPE
  2
PHANTOM2
 70
     0
  3
Phantom (.5x) ___ _ _ ___ _ _ ___ _ _ ___ _ _
 72
    65
 73
     6
 40
1.25
 49
0.625
 49
-0.125
 49
0.125
 49
-0.125
 49
0.125
 49
-0.125
  0
LTYPE
  2
CENTER
 70
     0
  3
Center ____ _ ____ _ ____ _ ____ _ ____ _ ____
 72
    65
 73
     4
 40
2.0
 49
1.25
 49
-0.25
 49
0.25
 49
-0.25
  0
LTYPE
  2
DASHED
 70
     0
  3
Dashed __ __ __ __ __ __ __ __ __ __ __ __ __ _
 72
    65
 73
     2
 40
0.75
 49
0.5
 49
-0.25
  0
LTYPE
  2
DOT
 70
     0
  3
Dot . . . . . . . . . . . . . . . . . . . . . .
 72
    65
 73
     2
 40
0.25
 49
0.0
 49
-0.25
  0
LTYPE
  2
AM_ISO02W050
 70
     0
  3
__ __ __ __ __ __ __ __ __ __ __ __ __ __ __
 72
    65
 73
     2
 40
7.5
 49
6.0
 49
-1.5
  0
LTYPE
  2
AM_ISO08W050
 70
     0
  3
____ . ____ . ____ . ____ . ____ . ____ . ____
 72
    65
 73
     4
 40
18.0
 49
12.0
 49
-1.5
 49
3.0
 49
-1.5
  0
LTYPE
  2
AM_ISO09W050
 70
     0
  3
_____ . . _____ . . _____ . . ____ .. ____
 72
    65
 73
     6
 40
22.5
 49
12.0
 49
-1.5
 49
3.0
 49
-1.5
 49
3.0
 49
-1.5
  0
LTYPE
  2
AMCONSTR
 70
     0
  3
_______________________
 72
    65
 73
     2
 40
9999.0
 49
9999.0
 49
0.0
  0
LTYPE
  2
AM_ISO08W050X2
 70
     0
  3
__ . __ . __ . __ . __ . __
 72
    65
 73
     4
 40
9.0
 49
6.0
 49
-0.75
 49
1.5
 49
-0.75
  0
LTYPE
  2
AM_ISO02W050X2
 70
     0
  3
 _ _ _ _ _ _ _ _ _ _ _ _
 72
    65
 73
     2
 40
3.75
 49
3.0
 49
-0.75
  0
LTYPE
  2
AMZIGZAG
 70
     0
  3
/\/-/\/-/\/-/\/-/\/-/\/
 72
    65
 73
     2
 40
11.0001
 49
0.0001
 49
-11.0
  0
LTYPE
  2
CENTER2
 70
     0
  3
Center (.5x) ___ _ ___ _ ___ _ ___ _ ___ _ ___
 72
    65
 73
     4
 40
1.125
 49
0.75
 49
-0.125
 49
0.125
 49
-0.125
  0
LTYPE
  2
HIDDEN2
 70
     0
  3
Hidden (.5x) _ _ _ _ _ _ _ _ _ _ _ _ _ _ _ _ _
 72
    65
 73
     2
 40
0.1875
 49
0.125
 49
-0.0625
  0
LTYPE
  2
AMZIGZAG2
 70
     0
  3
/\/-/\/-/\/-/\/-/\/-/\/
 72
    65
 73
     2
 40
0.4401
 49
0.0001
 49
-0.4400000000000001
  0
LTYPE
  2
ACANSTGB
 70
     0
  3
__ . . __ . .
 72
    65
 73
     6
 40
0.35433070866
 49
0.15748031496
 49
-0.03937007874
 49
0.03937007874
 49
-0.03937007874
 49
0.03937007874
 49
-0.03937007874
  0
LTYPE
  2
ACANSTGL
 70
     0
  3
_ _ _ _ _
 72
    65
 73
     2
 40
0.11811023622
 49
0.07874015748
 49
-0.03937007874
  0
ENDTAB
  0
TABLE
  2
LAYER
 70
     4
  0
LAYER
  2
0
 70
     0
 62
     6
  6
CONTINUOUS
  0
LAYER
  2
LINES
 70
     0
 62
     7
  6
CONTINUOUS
  0
LAYER
  2
TEXT
 70
     0
 62
     7
  6
CONTINUOUS
  0
LAYER
  2
C3-ILEX-LOGO
 70
     0
 62
     7
  6
CONTINUOUS
  0
ENDTAB
  0
TABLE
  2
STYLE
 70
     6
  0
STYLE
  2
STANDARD
 70
     0
 40
0.0
 41
1.0
 50
0.0
 71
     0
 42
0.2
  3
txt
  4

  0
STYLE
  2
ANNOTATIVE
 70
     0
 40
0.0
 41
1.0
 50
0.0
 71
     0
 42
0.2
  3
txt
  4

  0
STYLE
  2
ARIAL
 70
     0
 40
0.0
 41
1.0
 50
0.0
 71
     0
 42
0.2
  3
txt
  4

  0
STYLE
  2

 70
     1
 40
0.0
 41
1.0
 50
0.0
 71
     0
 42
0.2
  3
genltshp.shx
  4

  0
STYLE
  2
ACANSTS
 70
     0
 40
1.0
 41
1.0
 50
0.0
 71
     0
 42
0.2
  3
romans.shx
  4

  0
STYLE
  2
ACANSGDT
 70
     0
 40
0.0
 41
1.0
 50
0.0
 71
     0
 42
0.2
  3
amgdt.shx
  4

  0
ENDTAB
  0
TABLE
  2
VIEW
 70
     0
  0
ENDTAB
  0
TABLE
  2
UCS
 70
     0
  0
ENDTAB
  0
TABLE
  2
APPID
 70
    13
  0
APPID
  2
ACAD
 70
     0
  0
APPID
  2
ACADANNOTATIVE
 70
     0
  0
APPID
  2
ACAD_MLEADERVER
 70
     0
  0
APPID
  2
CONTENTTABDATA
 70
     0
  0
APPID
  2
CONTENTCURRENTTAB
 70
     0
  0
APPID
  2
ACAD_EXEMPT_FROM_CAD_STANDARDS
 70
     0
  0
APPID
  2
MCAD_NO_VIS
 70
     0
  0
APPID
  2
ACAD_TEMP_GRAPHIC
 70
     0
  0
APPID
  2
ACATTRIBSERVICES
 70
     0
  0
APPID
  2
DESIGNERASSEMBLIES
 70
     0
  0
APPID
  2
ACAD_DSTYLE_DIMJAG
 70
     0
  0
APPID
  2
ACAD_DSTYLE_DIMBREAK
 70
     0
  0
APPID
  2
ACAD_NAV_VCDISPLAY
 70
     0
  0
ENDTAB
  0
TABLE
  2
DIMSTYLE
 70
     8
  0
DIMSTYLE
  2
STANDARD
 70
     0
  3

  4

  5

  6

  7

 40
1.0
 41
0.18
 42
0.0625
 43
0.38
 44
0.18
 45
0.0
 46
0.0
 47
0.0
 48
0.0
140
0.18
141
0.09
142
0.0
143
25.399999999999999
144
1.0
145
0.0
146
1.0
147
0.09
 71
     0
 72
     0
 73
     1
 74
     1
 75
     0
 76
     0
 77
     0
 78
     0
170
     0
171
     2
172
     0
173
     0
174
     0
175
     0
176
     0
177
     0
178
     0
  0
DIMSTYLE
  2
ANNOTATIVE
 70
     0
  3

  4

  5

  6

  7

 40
1.0
 41
0.18
 42
0.0625
 43
0.38
 44
0.18
 45
0.0
 46
0.0
 47
0.0
 48
0.0
140
0.18
141
0.09
142
0.0
143
25.399999999999999
144
1.0
145
0.0
146
1.0
147
0.09
 71
     0
 72
     0
 73
     1
 74
     1
 75
     0
 76
     0
 77
     0
 78
     0
170
     0
171
     2
172
     0
173
     0
174
     0
175
     0
176
     0
177
     0
178
     0
  0
DIMSTYLE
  2
AM_ANSI
 70
     0
  3

  4
mm
  5

  6

  7

 40
1.0
 41
0.12
 42
0.05
 43
0.5
 44
0.1
 45
0.0
 46
0.0
 47
0.1
 48
0.1
140
0.12
141
0.0
142
0.0
143
25.399999999999999
144
1.0
145
0.0
146
0.71
147
0.06
 71
     0
 72
     0
 73
     1
 74
     1
 75
     0
 76
     0
 77
     0
 78
     7
170
     0
171
     2
172
     0
173
     0
174
     0
175
     0
176
   256
177
   256
178
     2
  0
DIMSTYLE
  2
AM_ANSI$3
 70
     0
  3

  4
mm
  5

  6

  7

 40
1.0
 41
0.12
 42
0.05
 43
0.5
 44
0.1
 45
0.0
 46
0.0
 47
0.1
 48
0.1
140
0.12
141
0.0
142
0.0
143
25.399999999999999
144
1.0
145
0.0
146
0.71
147
0.06
 71
     0
 72
     0
 73
     1
 74
     1
 75
     0
 76
     0
 77
     0
 78
     7
170
     0
171
     2
172
     0
173
     0
174
     0
175
     0
176
   256
177
   256
178
     2
  0
DIMSTYLE
  2
AM_ANSI$4
 70
     0
  3

  4
mm
  5

  6

  7

 40
1.0
 41
0.12
 42
0.05
 43
0.5
 44
0.1
 45
0.0
 46
0.0
 47
0.1
 48
0.1
140
0.12
141
0.0
142
0.0
143
25.399999999999999
144
1.0
145
0.0
146
0.71
147
0.06
 71
     0
 72
     0
 73
     1
 74
     1
 75
     0
 76
     0
 77
     0
 78
     7
170
     0
171
     2
172
     0
173
     0
174
     0
175
     0
176
   256
177
   256
178
     2
  0
DIMSTYLE
  2
AM_ANSI$7
 70
     0
  3

  4
mm
  5

  6

  7

 40
1.0
 41
0.12
 42
0.05
 43
0.5
 44
0.1
 45
0.0
 46
0.0
 47
0.1
 48
0.1
140
0.12
141
0.0
142
0.0
143
25.399999999999999
144
1.0
145
0.0
146
0.71
147
0.06
 71
     0
 72
     0
 73
     1
 74
     1
 75
     0
 76
     0
 77
     0
 78
     7
170
     0
171
     2
172
     0
173
     0
174
     0
175
     0
176
   256
177
   256
178
     2
  0
DIMSTYLE
  2
AM_ANSI$SF
 70
     0
  3

  4
mm
  5

  6

  7

 40
1.0
 41
0.12
 42
0.05
 43
0.5
 44
0.1
 45
0.0
 46
0.0
 47
0.1
 48
0.1
140
0.12
141
0.0
142
0.0
143
25.399999999999999
144
1.0
145
0.0
146
0.71
147
0.06
 71
     0
 72
     0
 73
     1
 74
     1
 75
     1
 76
     1
 77
     0
 78
     7
170
     0
171
     2
172
     0
173
     0
174
     0
175
     0
176
   256
177
   256
178
     2
  0
DIMSTYLE
  2
AM_ANSI$SH
 70
     0
  3

  4
mm
  5

  6
GENAXEH
  7

 40
1.0
 41
0.12
 42
0.05
 43
0.5
 44
0.1
 45
0.0
 46
0.0
 47
0.1
 48
0.1
140
0.12
141
0.0
142
0.0
143
25.399999999999999
144
1.0
145
0.0
146
0.71
147
0.06
 71
     0
 72
     0
 73
     1
 74
     1
 75
     1
 76
     1
 77
     0
 78
     7
170
     0
171
     2
172
     0
173
     1
174
     0
175
     0
176
   256
177
   256
178
     2
  0
ENDTAB
  0
ENDSEC
  0
SECTION
  2
BLOCKS
  0
BLOCK
  8
0
  2
$MODEL_SPACE
 70
     0
 10
0.0
 20
0.0
 30
0.0
  3
$MODEL_SPACE
  1

  0
ENDBLK
  5
F59
  8
0
  0
BLOCK
 67
     1
  8
0
  2
$PAPER_SPACE
 70
     0
 10
0.0
 20
0.0
 30
0.0
  3
$PAPER_SPACE
  1

  0
ENDBLK
  5
F55
 67
     1
  8
0
  0
BLOCK
  8
0
  2
ARROW_HEAD2
 70
     2
 10
0.0
 20
0.0
 30
0.0
  3
ARROW_HEAD2
  1

  0
ATTDEF
  5
93D
  8
0
 10
-0.25
 20
-0.25
 30
0.0
 40
0.075
  1
NULL
  7
ARIAL
  3

  2
DISPLAY
 70
     9
  0
POLYLINE
  5
93E
  8
0
 62
     5
 66
     1
 10
0.0
 20
0.0
 30
0.0
 70
     1
  0
VERTEX
  5
102B
  8
0
 62
     5
 10
-0.2249838535640767
 20
-0.0266780870803083
 30
0.0
  0
VERTEX
  5
102C
  8
0
 62
     5
 10
0.0143973127199317
 20
-0.120807854108324
 30
0.0
  0
VERTEX
  5
102D
  8
0
 62
     5
 10
0.0143973127199318
 20
0.0674516799477073
 30
0.0
  0
SEQEND
  5
102E
  8
0
 62
     5
  0
LINE
  5
943
  8
0
 62
     5
 10
0.0281849840823378
 20
-0.1446888014260738
 30
0.0
 11
0.0143973127199317
 21
-0.1208078541083239
 31
0.0
  0
LINE
  5
944
  8
0
 62
     5
 10
0.0143973127199318
 20
0.0674516799477072
 30
0.0
 11
0.0281849840823381
 21
0.0913326272654571
 31
0.0
  0
LINE
  5
945
  8
0
 62
     5
 10
-0.2525591962888889
 20
-0.0266780870803083
 30
0.0
 11
0.0281849840823378
 21
-0.1446888014260738
 31
0.0
  0
LINE
  5
946
  8
0
 62
     5
 10
0.0281849840823378
 20
-0.1446888014260738
 30
0.0
 11
0.0281849840823381
 21
0.0913326272654571
 31
0.0
  0
LINE
  5
947
  8
0
 62
     5
 10
0.0281849840823381
 20
0.0913326272654571
 30
0.0
 11
-0.2525591962888889
 21
-0.0266780870803083
 31
0.0
  0
LINE
  5
948
  8
0
 62
     5
 10
-0.2525591962888889
 20
-0.0266780870803083
 30
0.0
 11
-0.2249838535640767
 21
-0.0266780870803083
 31
0.0
  0
INSERT
  5
94A
  8
0
  6
CONTINUOUS
 62
     5
  2
*U3
 10
0.0
 20
0.0
 30
0.0
1001
ACAD
1002
{
1000
R14_HATCH_DATA
1000
1E0
1011
1.0
1021
0.0
1031
0.0
1021
0.0
1031
0.0
1011
0.0
1021
0.0
1031
0.0
1021
1.0
1031
0.0
1011
0.0
1021
0.0
1031
0.0
1021
0.0
1031
1.0
1040
0.0
1010
0.0
1020
0.0
1030
1.0
1000
SOLID
1070
     1
1070
     1
1071
        1
1071
        7
1070
     0
1070
     1
1071
        3
1040
0.0143973127199319
1040
0.0674516799477073
1040
-0.2249838535640766
1040
-0.0266780870803083
1040
0.0143973127199317
1040
-0.120807854108324
1071
        1
1005
1D9
1070
     0
1070
     1
1040
0.0007502553648817
1071
        1
1040
-0.0976524922727238
1040
-0.0362112629739346
1040
0.0
1002
}
  0
ENDBLK
  5
94B
  8
0
  0
BLOCK
  8
0
  2
*U3
 70
     1
 10
0.0
 20
0.0
 30
0.0
  3
*U3
  1

  0
SOLID
  5
94D
  8
0
  6
CONTINUOUS
 62
     5
 10
-0.0653964093747377
 20
-0.0266780870803084
 30
0.0
 11
0.0143973127199319
 21
0.0674516799477073
 31
0.0
 12
-0.2249838535640766
 22
-0.0266780870803083
 32
0.0
 13
-0.2249838535640766
 23
-0.0266780870803083
 33
0.0
  0
SOLID
  5
94E
  8
0
  6
CONTINUOUS
 62
     5
 10
-0.0653964093747377
 20
-0.0266780870803084
 30
0.0
 11
-0.2249838535640766
 21
-0.0266780870803083
 31
0.0
 12
0.0143973127199317
 22
-0.120807854108324
 32
0.0
 13
0.0143973127199317
 23
-0.120807854108324
 33
0.0
  0
SOLID
  5
94F
  8
0
  6
CONTINUOUS
 62
     5
 10
-0.0653964093747377
 20
-0.0266780870803084
 30
0.0
 11
0.0143973127199317
 21
-0.120807854108324
 31
0.0
 12
0.0143973127199319
 22
0.0674516799477073
 32
0.0
 13
0.0143973127199319
 23
0.0674516799477073
 33
0.0
  0
ENDBLK
  5
950
  8
0
  0
BLOCK
  8
0
 62
     7
  2
GENAXEH
 70
     0
 10
0.0
 20
0.0
 30
0.0
  3
GENAXEH
  1

  0
LINE
  5
1011
  8
0
 10
-1.0
 20
0.0
 30
0.0
 11
1.0
 21
0.0
 31
0.0
  0
ENDBLK
  5
1013
  8
0
 62
     7
  0
ENDSEC
  0
SECTION
  2
ENTITIES
  0
TEXT
  5
951
  8
TEXT
 62
     5
 10
9.7628436743895044
 20
6.3761708018486161
 30
0.0
 40
0.25
  1
Index
  7
ARIAL
 72
     1
 11
10.30451034105617
 21
6.3761708018486161
 31
0.0
  0
TEXT
  5
952
  8
TEXT
 62
     7
 10
6.545079356869091
 20
5.7920268966507251
 30
0.0
 40
0.2
  1
115KV System
  7
ARIAL
  0
TEXT
  5
953
  8
TEXT
 62
     7
 10
6.4986038498491521
 20
4.6307753369051827
 30
0.0
 40
0.2
  1
Bliss Substation
  7
ARIAL
  0
TEXT
  5
954
  8
TEXT
 62
     7
 10
6.511738584401483
 20
5.3991210609659284
 30
0.0
 40
0.2
  1
National Grid Arcade Station
  7
ARIAL
  0
TEXT
  5
955
  8
TEXT
 62
     7
 10
12.73562102059862
 20
5.809648736067385
 30
0.0
 40
0.2
  1
Meter Station Relay
  7
ARIAL
  0
INSERT
  5
956
  8
LINES
 66
     1
  2
ARROW_HEAD2
 10
6.3333230131806211
 20
5.8981822731495424
 30
0.0
  0
ATTRIB
  5
957
  8
0
 10
6.0833230131806211
 20
5.6481822731495424
 30
0.0
 40
0.075
  1
C:\C3ILEX\EOSCADA\DISPLAYS\ONELINES\115KV SYSTEM ARCADE.DXF
  7
ARIAL
  2
DISPLAY
 70
     9
  0
SEQEND
  5
958
  8
LINES
  0
INSERT
  5
959
  8
LINES
 66
     1
  2
ARROW_HEAD2
 10
6.3333230131806211
 20
4.7369307134039991
 30
0.0
  0
ATTRIB
  5
95A
  8
0
 10
6.0833230131806211
 20
4.4869307134039991
 30
0.0
 40
0.075
  1
C:\C3ILEX\EOSCADA\DISPLAYS\ONELINES\BLISS SUBSTATION.DXF
  7
ARIAL
  2
DISPLAY
 70
     9
  0
SEQEND
  5
95B
  8
LINES
  0
INSERT
  5
95C
  8
LINES
 66
     1
  2
ARROW_HEAD2
 10
6.3464577788692544
 20
5.1244323263459011
 30
0.0
  0
ATTRIB
  5
95D
  8
0
 10
6.0964577788692544
 20
4.8744323263459011
 30
0.0
 40
0.075
  1
C:\C3ILEX\EOSCADA\DISPLAYS\N GRID ARCADE STATION.DXF
  7
ARIAL
  2
DISPLAY
 70
     9
  0
SEQEND
  5
95E
  8
LINES
  0
INSERT
  5
95F
  8
LINES
 66
     1
  2
ARROW_HEAD2
 10
6.3333230131806211
 20
3.955850246216583
 30
0.0
  0
ATTRIB
  5
960
  8
0
 10
6.0833230131806211
 20
3.705850246216583
 30
0.0
 40
0.075
  1
C:\C3ILEX\EOSCADA\DISPLAYS\METER STATION RELAYS.DXF
  7
ARIAL
  2
DISPLAY
 70
     9
  0
SEQEND
  5
961
  8
LINES
  0
INSERT
  5
962
  8
LINES
 66
     1
  2
ARROW_HEAD2
 10
6.3333230131806211
 20
3.5867364330720162
 30
0.0
  0
ATTRIB
  5
963
  8
0
 10
6.0833230131806211
 20
3.3367364330720162
 30
0.0
 40
0.075
  1
C:\C3ILEX\EOSCADA\DISPLAYS\Demo\SUBSTATION WEATHER REPORT.DXF
  7
ARIAL
  2
DISPLAY
 70
     9
  0
SEQEND
  5
964
  8
LINES
  0
INSERT
  5
966
  8
LINES
 66
     1
  2
ARROW_HEAD2
 10
6.3333230131806211
 20
3.1991669332270711
 30
0.0
  0
ATTRIB
  5
967
  8
0
 10
6.0833230131806211
 20
2.9491669332270751
 30
0.0
 40
0.075
  1
C:\C3ILEX\EOSCADA\DISPLAYS\Demo\HOMETOWN.DXF
  7
ARIAL
  2
DISPLAY
 70
     9
  0
SEQEND
  5
968
  8
LINES
  0
INSERT
  5
970
  8
LINES
 66
     1
  2
ARROW_HEAD2
 10
6.3333230131806211
 20
5.511395032972473
 30
0.0
  0
ATTRIB
  5
971
  8
0
 10
6.0833230131806211
 20
5.261395032972473
 30
0.0
 40
0.075
  1
C:\C3ILEX\EOSCADA\DISPLAYS\METER STATION.DXF
  7
ARIAL
  2
DISPLAY
 70
     9
  0
SEQEND
  5
972
  8
LINES
  0
TEXT
  5
973
  8
TEXT
 62
     7
 10
6.5264891166975527
 20
4.9872400219029416
 30
0.0
 40
0.2
  1
Meter Station
  7
ARIAL
  0
TEXT
  5
977
  8
TEXT
 62
     7
 10
6.4890807672939337
 20
3.0919555700861112
 30
0.0
 40
0.2
  1
Freedom Dist. Substation
  7
ARIAL
  0
INSERT
  5
978
  8
LINES
 66
     1
  2
ARROW_HEAD2
 10
6.3333230131806211
 20
2.8301062056920609
 30
0.0
  0
ATTRIB
  5
979
  8
0
 10
6.0833230131806211
 20
2.5801062056920641
 30
0.0
 40
0.075
  1
C:\C3ILEX\EOSCADA\DISPLAYS\ONELINES\APPLETON_69.DXF
  7
ARIAL
  2
DISPLAY
 70
     9
  0
SEQEND
  5
97A
  8
LINES
  0
INSERT
  5
990
  8
LINES
 66
     1
  2
ARROW_HEAD2
 10
6.3333230131806211
 20
2.4610454781570481
 30
0.0
  0
ATTRIB
  5
991
  8
0
 10
6.0833230131806211
 20
2.211045478157053
 30
0.0
 40
0.075
  1
C:\C3ILEX\EOSCADA\DISPLAYS\ONELINES\APPLETON_345.DXF
  7
ARIAL
  2
DISPLAY
 70
     9
  0
SEQEND
  5
992
  8
LINES
  0
POLYLINE
  5
995
  8
C3-ILEX-LOGO
 62
     0
 66
     1
 10
0.0
 20
0.0
 30
0.0
 40
0.03
 41
0.03
  0
VERTEX
  5
102F
  8
C3-ILEX-LOGO
 62
     0
 10
9.4519014059788304
 20
6.2962042336260531
 30
0.0
  0
VERTEX
  5
1030
  8
C3-ILEX-LOGO
 62
     0
 10
11.353643876507441
 20
6.2962042336260531
 30
0.0
  0
SEQEND
  5
1031
  8
C3-ILEX-LOGO
 62
     0
  0
INSERT
  5
9DE
  8
LINES
 66
     1
  2
ARROW_HEAD2
 10
6.3333230131806211
 20
2.1126543684061301
 30
0.0
  0
ATTRIB
  5
9DF
  8
0
 10
6.0833230131806211
 20
1.8626543684061341
 30
0.0
 40
0.075
  1
C:\C3ILEX\EOSCADA\DISPLAYS\DEMO\MAIN INDEX.DXF
  7
ARIAL
  2
DISPLAY
 70
     9
  0
SEQEND
  5
9E0
  8
LINES
  0
INSERT
  5
A38
  8
LINES
 66
     1
  2
ARROW_HEAD2
 10
12.53293186566277
 20
4.7769398548831923
 30
0.0
  0
ATTRIB
  5
A39
  8
0
 10
12.28293186566277
 20
4.5269398548831923
 30
0.0
 40
0.075
  1
C:\C3ILEX\EOSCADA\DISPLAYS\ONELINES\FREEDOM DISTRIBUTION SUBSTATION.DXF
  7
ARIAL
  2
DISPLAY
 70
     9
  0
SEQEND
  5
A3A
  8
LINES
  0
TEXT
  5
ACE
  8
TEXT
 62
     7
 10
6.4496303117839817
 20
3.4553732313371661
 30
0.0
 40
0.2
  1
Bixby Hill Substation
  7
ARIAL
  0
INSERT
  5
AD2
  8
LINES
 66
     1
  2
ARROW_HEAD2
 10
12.530661828223289
 20
5.177793886518633
 30
0.0
  0
ATTRIB
  5
AD3
  8
0
 10
12.280661828223289
 20
4.927793886518633
 30
0.0
 40
0.075
  1
C:\C3ILEX\EOSCADA\DISPLAYS\DEMO\SYSCOMM.DXF
  7
ARIAL
  2
DISPLAY
 70
     9
  0
SEQEND
  5
AD4
  8
LINES
  0
INSERT
  5
AD5
  8
LINES
 66
     1
  2
ARROW_HEAD2
 10
6.331053004822869
 20
4.318417964107863
 30
0.0
  0
ATTRIB
  5
AD6
  8
0
 10
6.081053004822869
 20
4.068417964107863
 30
0.0
 40
0.075
  1
C:\C3ILEX\EOSCADA\DISPLAYS\ONELINES\TAP SWITCH SUBSTATION.DXF
  7
ARIAL
  2
DISPLAY
 70
     9
  0
SEQEND
  5
AD7
  8
LINES
  0
INSERT
  5
AD8
  8
LINES
 66
     1
  2
ARROW_HEAD2
 10
12.530661828223289
 20
4.3777938865186332
 30
0.0
  0
ATTRIB
  5
AD9
  8
0
 10
12.280661828223289
 20
4.1277938865186332
 30
0.0
 40
0.075
  1
C:\C3ILEX\EOSCADA\DISPLAYS\DEMO\MAIN INDEX.DXF
  7
ARIAL
  2
DISPLAY
 70
     9
  0
SEQEND
  5
ADA
  8
LINES
  0
INSERT
  5
ADB
  8
LINES
 66
     1
  2
ARROW_HEAD2
 10
12.530661828223289
 20
3.9967134193312202
 30
0.0
  0
ATTRIB
  5
ADC
  8
0
 10
12.280661828223289
 20
3.7467134193312202
 30
0.0
 40
0.075
  1
C:\C3ILEX\EOSCADA\DISPLAYS\DEMO\MAIN INDEX.DXF
  7
ARIAL
  2
DISPLAY
 70
     9
  0
SEQEND
  5
ADD
  8
LINES
  0
INSERT
  5
ADE
  8
LINES
 66
     1
  2
ARROW_HEAD2
 10
12.530661828223289
 20
3.6275996061866511
 30
0.0
  0
ATTRIB
  5
ADF
  8
0
 10
12.280661828223289
 20
3.3775996061866511
 30
0.0
 40
0.075
  1
C:\C3ILEX\EOSCADA\DISPLAYS\DEMO\MAIN INDEX.DXF
  7
ARIAL
  2
DISPLAY
 70
     9
  0
SEQEND
  5
AE0
  8
LINES
  0
INSERT
  5
AE2
  8
LINES
 66
     1
  2
ARROW_HEAD2
 10
12.530661828223289
 20
3.2400301063417061
 30
0.0
  0
ATTRIB
  5
AE3
  8
0
 10
12.280661828223289
 20
2.990030106341711
 30
0.0
 40
0.075
  1
C:\C3ILEX\EOSCADA\DISPLAYS\DEMO\MAIN INDEX.DXF
  7
ARIAL
  2
DISPLAY
 70
     9
  0
SEQEND
  5
AE4
  8
LINES
  0
INSERT
  5
AE7
  8
LINES
 66
     1
  2
ARROW_HEAD2
 10
12.530661828223289
 20
5.5522582060871102
 30
0.0
  0
ATTRIB
  5
AE8
  8
0
 10
12.280661828223289
 20
5.3022582060871102
 30
0.0
 40
0.075
  1
C:\C3ILEX\EOSCADA\DISPLAYS\DEMO\MONTHLY SUMMARY DISPLAY.DXF
  7
ARIAL
  2
DISPLAY
 70
     9
  0
SEQEND
  5
AE9
  8
LINES
  0
TEXT
  5
AEA
  8
TEXT
 62
     7
 10
6.4682205208192212
 20
3.829837550905645
 30
0.0
 40
0.2
  1
Industrial Park Sub
  7
ARIAL
  0
TEXT
  5
AEB
  8
TEXT
 62
     7
 10
6.4868107609907577
 20
4.2167432412989037
 30
0.0
 40
0.2
  1
Country Line Substation
  7
ARIAL
  0
INSERT
  5
AEC
  8
LINES
 66
     1
  2
ARROW_HEAD2
 10
12.530661828223289
 20
2.8709693788066981
 30
0.0
  0
ATTRIB
  5
AED
  8
0
 10
12.280661828223289
 20
2.620969378806699
 30
0.0
 40
0.075
  1
C:\C3ILEX\EOSCADA\DISPLAYS\DEMO\MAIN INDEX.DXF
  7
ARIAL
  2
DISPLAY
 70
     9
  0
SEQEND
  5
AEE
  8
LINES
  0
INSERT
  5
AF2
  8
LINES
 66
     1
  2
ARROW_HEAD2
 10
12.530661828223289
 20
2.501908651271683
 30
0.0
  0
ATTRIB
  5
AF3
  8
0
 10
12.280661828223289
 20
2.251908651271691
 30
0.0
 40
0.075
  1
C:\C3ILEX\EOSCADA\DISPLAYS\DEMO\MAIN INDEX.DXF
  7
ARIAL
  2
DISPLAY
 70
     9
  0
SEQEND
  5
AF4
  8
LINES
  0
INSERT
  5
AF6
  8
LINES
 66
     1
  2
ARROW_HEAD2
 10
12.530661828223289
 20
2.153517541520765
 30
0.0
  0
ATTRIB
  5
AF7
  8
0
 10
12.280661828223289
 20
1.903517541520771
 30
0.0
 40
0.075
  1
C:\C3ILEX\EOSCADA\DISPLAYS\DEMO\MAIN INDEX.DXF
  7
ARIAL
  2
DISPLAY
 70
     9
  0
SEQEND
  5
AF8
  8
LINES
  0
TEXT
  5
AF9
  8
LINES
 62
     7
 10
12.752932859768929
 20
2.044286500097511
 30
0.0
 40
0.2
  1
  
  7
ARIAL
  0
INSERT
  5
B02
  8
LINES
 66
     1
  2
ARROW_HEAD2
 10
12.530661828223289
 20
5.9203052792960591
 30
0.0
  0
ATTRIB
  5
B03
  8
0
 10
12.280661828223289
 20
5.6703052792960591
 30
0.0
 40
0.075
  1
C:\C3ILEX\EOSCADA\DISPLAYS\DEMO\DAILY SUMMARY DISPLAY.DXF
  7
ARIAL
  2
DISPLAY
 70
     9
  0
SEQEND
  5
B04
  8
LINES
  0
INSERT
  5
B12
  8
LINES
 66
     1
  2
ARROW_HEAD2
 10
6.3333230131806211
 20
1.7618635012728281
 30
0.0
  0
ATTRIB
  5
B13
  8
0
 10
6.0833230131806211
 20
1.5118635012728341
 30
0.0
 40
0.075
  1
C:\C3ILEX\EOSCADA\DISPLAYS\DEMO\MAIN INDEX.DXF
  7
ARIAL
  2
DISPLAY
 70
     9
  0
SEQEND
  5
B14
  8
LINES
  0
INSERT
  5
B15
  8
LINES
 66
     1
  2
ARROW_HEAD2
 10
6.3333230131806211
 20
1.4134723915219101
 30
0.0
  0
ATTRIB
  5
B16
  8
0
 10
6.0833230131806211
 20
1.1634723915219141
 30
0.0
 40
0.075
  1
C:\C3ILEX\EOSCADA\DISPLAYS\DEMO\MAIN INDEX.DXF
  7
ARIAL
  2
DISPLAY
 70
     9
  0
SEQEND
  5
B17
  8
LINES
  0
TEXT
  5
B19
  8
LINES
 62
     7
 10
12.752932859768929
 20
1.693495632964209
 30
0.0
 40
0.2
  1
  
  7
ARIAL
  0
INSERT
  5
B1A
  8
LINES
 66
     1
  2
ARROW_HEAD2
 10
12.530661828223289
 20
1.802726674387463
 30
0.0
  0
ATTRIB
  5
B1B
  8
0
 10
12.280661828223289
 20
1.552726674387471
 30
0.0
 40
0.075
  1
C:\C3ILEX\EOSCADA\DISPLAYS\DEMO\MAIN INDEX.DXF
  7
ARIAL
  2
DISPLAY
 70
     9
  0
SEQEND
  5
B1C
  8
LINES
  0
INSERT
  5
B1D
  8
LINES
 66
     1
  2
ARROW_HEAD2
 10
12.530661828223289
 20
1.454335564636543
 30
0.0
  0
ATTRIB
  5
B1E
  8
0
 10
12.280661828223289
 20
1.204335564636551
 30
0.0
 40
0.075
  1
C:\C3ILEX\EOSCADA\DISPLAYS\Demo\GAS_WATER_INDEX.DXF
  7
ARIAL
  2
DISPLAY
 70
     9
  0
SEQEND
  5
B1F
  8
LINES
  0
TEXT
  5
F89
  8
TEXT
 62
     7
 10
12.719297472039729
 20
5.4503973449832879
 30
0.0
 40
0.2
  1
County Line Relays
  7
ARIAL
  0
TEXT
  5
F8F
  8
TEXT
 62
     7
 10
12.7285925921255
 20
5.0881310041162466
 30
0.0
 40
0.2
  1
Bixby Hill Relays
  7
ARIAL
  0
TEXT
  5
F95
  8
TEXT
 62
     7
 10
12.73788771221127
 20
4.688709122745605
 30
0.0
 40
0.2
  1
Freedom Transmission Relays
  7
ARIAL
  0
ENDSEC
  0
EOF
