  0
SECTION
  2
HEADER
  9
$ACADVER
  1
AC1009
  9
$INSBASE
 10
0.0
 20
0.0
 30
0.0
  9
$EXTMIN
 10
-7.5380305056798322
 20
6.3374236276082723
 30
0.0
  9
$EXTMAX
 10
17.49889255825904
 20
19.295619151138279
 30
0.0
  9
$LIMMIN
 10
0.0
 20
0.0
  9
$LIMMAX
 10
12.0
 20
9.0
  9
$ORTHOMODE
 70
     1
  9
$REGENMODE
 70
     1
  9
$FILLMODE
 70
     1
  9
$QTEXTMODE
 70
     0
  9
$MIRRTEXT
 70
     1
  9
$DRAGMODE
 70
     2
  9
$LTSCALE
 40
1.0
  9
$OSMODE
 70
     7
  9
$ATTMODE
 70
     1
  9
$TEXTSIZE
 40
0.2
  9
$TRACEWID
 40
0.05
  9
$TEXTSTYLE
  7
STANDARD
  9
$CLAYER
  8
DISPLAY
  9
$CELTYPE
  6
BYLAYER
  9
$CECOLOR
 62
   256
  9
$DIMSCALE
 40
1.0
  9
$DIMASZ
 40
0.18
  9
$DIMEXO
 40
0.0625
  9
$DIMDLI
 40
0.38
  9
$DIMRND
 40
0.0
  9
$DIMDLE
 40
0.0
  9
$DIMEXE
 40
0.18
  9
$DIMTP
 40
0.0
  9
$DIMTM
 40
0.0
  9
$DIMTXT
 40
0.18
  9
$DIMCEN
 40
0.09
  9
$DIMTSZ
 40
0.0
  9
$DIMTOL
 70
     0
  9
$DIMLIM
 70
     0
  9
$DIMTIH
 70
     1
  9
$DIMTOH
 70
     1
  9
$DIMSE1
 70
     0
  9
$DIMSE2
 70
     0
  9
$DIMTAD
 70
     0
  9
$DIMZIN
 70
     0
  9
$DIMBLK
  1

  9
$DIMASO
 70
     1
  9
$DIMSHO
 70
     1
  9
$DIMPOST
  1

  9
$DIMAPOST
  1

  9
$DIMALT
 70
     0
  9
$DIMALTD
 70
     2
  9
$DIMALTF
 40
25.399999999999999
  9
$DIMLFAC
 40
1.0
  9
$DIMTOFL
 70
     0
  9
$DIMTVP
 40
0.0
  9
$DIMTIX
 70
     0
  9
$DIMSOXD
 70
     0
  9
$DIMSAH
 70
     0
  9
$DIMBLK1
  1

  9
$DIMBLK2
  1

  9
$DIMSTYLE
  2
STANDARD
  9
$DIMCLRD
 70
     0
  9
$DIMCLRE
 70
     0
  9
$DIMCLRT
 70
     0
  9
$DIMTFAC
 40
1.0
  9
$DIMGAP
 40
0.09
  9
$LUNITS
 70
     2
  9
$LUPREC
 70
     4
  9
$SKETCHINC
 40
0.1
  9
$FILLETRAD
 40
0.0
  9
$AUNITS
 70
     0
  9
$AUPREC
 70
     0
  9
$MENU
  1
.
  9
$ELEVATION
 40
0.0
  9
$PELEVATION
 40
0.0
  9
$THICKNESS
 40
0.0
  9
$LIMCHECK
 70
     0
  9
$BLIPMODE
 70
     0
  9
$CHAMFERA
 40
0.5
  9
$CHAMFERB
 40
0.5
  9
$SKPOLY
 70
     0
  9
$TDCREATE
 40
2454336.4711634382
  9
$TDUPDATE
 40
2456573.5806817822
  9
$TDINDWG
 40
0.7317288773
  9
$TDUSRTIMER
 40
0.7317275463
  9
$USRTIMER
 70
     1
  9
$ANGBASE
 50
0.0
  9
$ANGDIR
 70
     0
  9
$PDMODE
 70
     0
  9
$PDSIZE
 40
0.0
  9
$PLINEWID
 40
0.0
  9
$COORDS
 70
     1
  9
$SPLFRAME
 70
     0
  9
$SPLINETYPE
 70
     6
  9
$SPLINESEGS
 70
     8
  9
$ATTDIA
 70
     1
  9
$ATTREQ
 70
     1
  9
$HANDLING
 70
     1
  9
$HANDSEED
  5
1CE9
  9
$SURFTAB1
 70
     6
  9
$SURFTAB2
 70
     6
  9
$SURFTYPE
 70
     6
  9
$SURFU
 70
     6
  9
$SURFV
 70
     6
  9
$UCSNAME
  2

  9
$UCSORG
 10
0.0
 20
0.0
 30
0.0
  9
$UCSXDIR
 10
1.0
 20
0.0
 30
0.0
  9
$UCSYDIR
 10
0.0
 20
1.0
 30
0.0
  9
$PUCSNAME
  2

  9
$PUCSORG
 10
0.0
 20
0.0
 30
0.0
  9
$PUCSXDIR
 10
1.0
 20
0.0
 30
0.0
  9
$PUCSYDIR
 10
0.0
 20
1.0
 30
0.0
  9
$USERI1
 70
     0
  9
$USERI2
 70
     0
  9
$USERI3
 70
     0
  9
$USERI4
 70
     0
  9
$USERI5
 70
     0
  9
$USERR1
 40
0.0
  9
$USERR2
 40
0.0
  9
$USERR3
 40
0.0
  9
$USERR4
 40
0.0
  9
$USERR5
 40
0.0
  9
$WORLDVIEW
 70
     1
  9
$SHADEDGE
 70
     3
  9
$SHADEDIF
 70
    70
  9
$TILEMODE
 70
     1
  9
$MAXACTVP
 70
    64
  9
$PLIMCHECK
 70
     0
  9
$PEXTMIN
 10
1.0000000000000000E+020
 20
1.0000000000000000E+020
 30
1.0000000000000000E+020
  9
$PEXTMAX
 10
-1.0000000000000000E+020
 20
-1.0000000000000000E+020
 30
-1.0000000000000000E+020
  9
$PLIMMIN
 10
0.0
 20
0.0
  9
$PLIMMAX
 10
12.0
 20
9.0
  9
$UNITMODE
 70
     0
  9
$VISRETAIN
 70
     1
  9
$PLINEGEN
 70
     0
  9
$PSLTSCALE
 70
     1
  0
ENDSEC
  0
SECTION
  2
TABLES
  0
TABLE
  2
VPORT
 70
     1
  0
VPORT
  2
*ACTIVE
 70
     0
 10
0.0
 20
0.0
 11
1.0
 21
1.0
 12
10.331813133777899
 22
10.84992590733675
 13
0.0
 23
0.0
 14
0.5
 24
0.5
 15
0.5
 25
0.5
 16
0.0
 26
0.0
 36
1.0
 17
0.0
 27
0.0
 37
0.0
 40
23.45622125782436
 41
1.8804573804573801
 42
50.0
 43
0.0
 44
0.0
 50
0.0
 51
0.0
 71
     0
 72
   100
 73
     1
 74
     3
 75
     0
 76
     0
 77
     0
 78
     0
  0
ENDTAB
  0
TABLE
  2
LTYPE
 70
    18
  0
LTYPE
  2
CONTINUOUS
 70
     0
  3
Solid line
 72
    65
 73
     0
 40
0.0
  0
LTYPE
  2
HIDDEN
 70
     0
  3
Hidden __ __ __ __ __ __ __ __ __ __ __ __ __ _
 72
    65
 73
     2
 40
0.375
 49
0.25
 49
-0.125
  0
LTYPE
  2
PHANTOM2
 70
     0
  3
Phantom (.5x) ___ _ _ ___ _ _ ___ _ _ ___ _ _
 72
    65
 73
     6
 40
1.25
 49
0.625
 49
-0.125
 49
0.125
 49
-0.125
 49
0.125
 49
-0.125
  0
LTYPE
  2
CENTER
 70
     0
  3
Center ____ _ ____ _ ____ _ ____ _ ____ _ ____
 72
    65
 73
     4
 40
2.0
 49
1.25
 49
-0.25
 49
0.25
 49
-0.25
  0
LTYPE
  2
DASHED
 70
     0
  3
Dashed __ __ __ __ __ __ __ __ __ __ __ __ __ _
 72
    65
 73
     2
 40
0.75
 49
0.5
 49
-0.25
  0
LTYPE
  2
DOT
 70
     0
  3
Dot . . . . . . . . . . . . . . . . . . . . . .
 72
    65
 73
     2
 40
0.25
 49
0.0
 49
-0.25
  0
LTYPE
  2
AM_ISO02W050
 70
     0
  3
__ __ __ __ __ __ __ __ __ __ __ __ __ __ __
 72
    65
 73
     2
 40
7.5
 49
6.0
 49
-1.5
  0
LTYPE
  2
AM_ISO08W050
 70
     0
  3
____ . ____ . ____ . ____ . ____ . ____ . ____
 72
    65
 73
     4
 40
18.0
 49
12.0
 49
-1.5
 49
3.0
 49
-1.5
  0
LTYPE
  2
AM_ISO09W050
 70
     0
  3
_____ . . _____ . . _____ . . ____ .. ____
 72
    65
 73
     6
 40
22.5
 49
12.0
 49
-1.5
 49
3.0
 49
-1.5
 49
3.0
 49
-1.5
  0
LTYPE
  2
AMCONSTR
 70
     0
  3
_______________________
 72
    65
 73
     2
 40
9999.0
 49
9999.0
 49
0.0
  0
LTYPE
  2
AM_ISO08W050X2
 70
     0
  3
__ . __ . __ . __ . __ . __
 72
    65
 73
     4
 40
9.0
 49
6.0
 49
-0.75
 49
1.5
 49
-0.75
  0
LTYPE
  2
AM_ISO02W050X2
 70
     0
  3
 _ _ _ _ _ _ _ _ _ _ _ _
 72
    65
 73
     2
 40
3.75
 49
3.0
 49
-0.75
  0
LTYPE
  2
AMZIGZAG
 70
     0
  3
/\/-/\/-/\/-/\/-/\/-/\/
 72
    65
 73
     2
 40
11.0001
 49
0.0001
 49
-11.0
  0
LTYPE
  2
CENTER2
 70
     0
  3
Center (.5x) ___ _ ___ _ ___ _ ___ _ ___ _ ___
 72
    65
 73
     4
 40
1.125
 49
0.75
 49
-0.125
 49
0.125
 49
-0.125
  0
LTYPE
  2
HIDDEN2
 70
     0
  3
Hidden (.5x) _ _ _ _ _ _ _ _ _ _ _ _ _ _ _ _ _
 72
    65
 73
     2
 40
0.1875
 49
0.125
 49
-0.0625
  0
LTYPE
  2
AMZIGZAG2
 70
     0
  3
/\/-/\/-/\/-/\/-/\/-/\/
 72
    65
 73
     2
 40
0.4401
 49
0.0001
 49
-0.4400000000000001
  0
LTYPE
  2
ACANSTGB
 70
     0
  3
__ . . __ . .
 72
    65
 73
     6
 40
0.35433070866
 49
0.15748031496
 49
-0.03937007874
 49
0.03937007874
 49
-0.03937007874
 49
0.03937007874
 49
-0.03937007874
  0
LTYPE
  2
ACANSTGL
 70
     0
  3
_ _ _ _ _
 72
    65
 73
     2
 40
0.11811023622
 49
0.07874015748
 49
-0.03937007874
  0
ENDTAB
  0
TABLE
  2
LAYER
 70
     5
  0
LAYER
  2
0
 70
     0
 62
     6
  6
CONTINUOUS
  0
LAYER
  2
STATE_1
 70
     0
 62
     3
  6
CONTINUOUS
  0
LAYER
  2
STATE_2
 70
     0
 62
     1
  6
CONTINUOUS
  0
LAYER
  2
DISPLAY
 70
     0
 62
     7
  6
CONTINUOUS
  0
LAYER
  2
NOTES
 70
     0
 62
     6
  6
CONTINUOUS
  0
ENDTAB
  0
TABLE
  2
STYLE
 70
     6
  0
STYLE
  2
STANDARD
 70
     0
 40
0.0
 41
1.0
 50
0.0
 71
     0
 42
0.2
  3
txt
  4

  0
STYLE
  2
ANNOTATIVE
 70
     0
 40
0.0
 41
1.0
 50
0.0
 71
     0
 42
0.2
  3
txt
  4

  0
STYLE
  2
ARIAL
 70
     0
 40
0.0
 41
1.0
 50
0.0
 71
     0
 42
0.2
  3
txt
  4

  0
STYLE
  2

 70
     1
 40
0.0
 41
1.0
 50
0.0
 71
     0
 42
0.2
  3
genltshp.shx
  4

  0
STYLE
  2
ACANSTS
 70
     0
 40
1.0
 41
1.0
 50
0.0
 71
     0
 42
0.2
  3
romans.shx
  4

  0
STYLE
  2
ACANSGDT
 70
     0
 40
0.0
 41
1.0
 50
0.0
 71
     0
 42
0.2
  3
amgdt.shx
  4

  0
ENDTAB
  0
TABLE
  2
VIEW
 70
     0
  0
ENDTAB
  0
TABLE
  2
UCS
 70
     0
  0
ENDTAB
  0
TABLE
  2
APPID
 70
    16
  0
APPID
  2
ACAD
 70
     0
  0
APPID
  2
ACADANNOTATIVE
 70
     0
  0
APPID
  2
ACAD_MLEADERVER
 70
     0
  0
APPID
  2
CONTENTTABDATA
 70
     0
  0
APPID
  2
CONTENTCURRENTTAB
 70
     0
  0
APPID
  2
ACAD_EXEMPT_FROM_CAD_STANDARDS
 70
     0
  0
APPID
  2
CONTENTBLOCKDESCRIPTION
 70
     0
  0
APPID
  2
CONTENTBLOCKICON
 70
     0
  0
APPID
  2
ACAECLAYERSTANDARD
 70
     0
  0
APPID
  2
MCAD_NO_VIS
 70
     0
  0
APPID
  2
ACAD_TEMP_GRAPHIC
 70
     0
  0
APPID
  2
ACATTRIBSERVICES
 70
     0
  0
APPID
  2
DESIGNERASSEMBLIES
 70
     0
  0
APPID
  2
ACAD_DSTYLE_DIMJAG
 70
     0
  0
APPID
  2
ACAD_DSTYLE_DIMBREAK
 70
     0
  0
APPID
  2
ACAD_NAV_VCDISPLAY
 70
     0
  0
ENDTAB
  0
TABLE
  2
DIMSTYLE
 70
     8
  0
DIMSTYLE
  2
STANDARD
 70
     0
  3

  4

  5

  6

  7

 40
1.0
 41
0.18
 42
0.0625
 43
0.38
 44
0.18
 45
0.0
 46
0.0
 47
0.0
 48
0.0
140
0.18
141
0.09
142
0.0
143
25.399999999999999
144
1.0
145
0.0
146
1.0
147
0.09
 71
     0
 72
     0
 73
     1
 74
     1
 75
     0
 76
     0
 77
     0
 78
     0
170
     0
171
     2
172
     0
173
     0
174
     0
175
     0
176
     0
177
     0
178
     0
  0
DIMSTYLE
  2
ANNOTATIVE
 70
     0
  3

  4

  5

  6

  7

 40
1.0
 41
0.18
 42
0.0625
 43
0.38
 44
0.18
 45
0.0
 46
0.0
 47
0.0
 48
0.0
140
0.18
141
0.09
142
0.0
143
25.399999999999999
144
1.0
145
0.0
146
1.0
147
0.09
 71
     0
 72
     0
 73
     1
 74
     1
 75
     0
 76
     0
 77
     0
 78
     0
170
     0
171
     2
172
     0
173
     0
174
     0
175
     0
176
     0
177
     0
178
     0
  0
DIMSTYLE
  2
AM_ANSI
 70
     0
  3

  4
mm
  5

  6

  7

 40
1.0
 41
0.12
 42
0.05
 43
0.5
 44
0.1
 45
0.0
 46
0.0
 47
0.1
 48
0.1
140
0.12
141
0.0
142
0.0
143
25.399999999999999
144
1.0
145
0.0
146
0.71
147
0.06
 71
     0
 72
     0
 73
     1
 74
     1
 75
     0
 76
     0
 77
     0
 78
     7
170
     0
171
     2
172
     0
173
     0
174
     0
175
     0
176
   256
177
   256
178
     2
  0
DIMSTYLE
  2
AM_ANSI$3
 70
     0
  3

  4
mm
  5

  6

  7

 40
1.0
 41
0.12
 42
0.05
 43
0.5
 44
0.1
 45
0.0
 46
0.0
 47
0.1
 48
0.1
140
0.12
141
0.0
142
0.0
143
25.399999999999999
144
1.0
145
0.0
146
0.71
147
0.06
 71
     0
 72
     0
 73
     1
 74
     1
 75
     0
 76
     0
 77
     0
 78
     7
170
     0
171
     2
172
     0
173
     0
174
     0
175
     0
176
   256
177
   256
178
     2
  0
DIMSTYLE
  2
AM_ANSI$4
 70
     0
  3

  4
mm
  5

  6

  7

 40
1.0
 41
0.12
 42
0.05
 43
0.5
 44
0.1
 45
0.0
 46
0.0
 47
0.1
 48
0.1
140
0.12
141
0.0
142
0.0
143
25.399999999999999
144
1.0
145
0.0
146
0.71
147
0.06
 71
     0
 72
     0
 73
     1
 74
     1
 75
     0
 76
     0
 77
     0
 78
     7
170
     0
171
     2
172
     0
173
     0
174
     0
175
     0
176
   256
177
   256
178
     2
  0
DIMSTYLE
  2
AM_ANSI$7
 70
     0
  3

  4
mm
  5

  6

  7

 40
1.0
 41
0.12
 42
0.05
 43
0.5
 44
0.1
 45
0.0
 46
0.0
 47
0.1
 48
0.1
140
0.12
141
0.0
142
0.0
143
25.399999999999999
144
1.0
145
0.0
146
0.71
147
0.06
 71
     0
 72
     0
 73
     1
 74
     1
 75
     0
 76
     0
 77
     0
 78
     7
170
     0
171
     2
172
     0
173
     0
174
     0
175
     0
176
   256
177
   256
178
     2
  0
DIMSTYLE
  2
AM_ANSI$SF
 70
     0
  3

  4
mm
  5

  6

  7

 40
1.0
 41
0.12
 42
0.05
 43
0.5
 44
0.1
 45
0.0
 46
0.0
 47
0.1
 48
0.1
140
0.12
141
0.0
142
0.0
143
25.399999999999999
144
1.0
145
0.0
146
0.71
147
0.06
 71
     0
 72
     0
 73
     1
 74
     1
 75
     1
 76
     1
 77
     0
 78
     7
170
     0
171
     2
172
     0
173
     0
174
     0
175
     0
176
   256
177
   256
178
     2
  0
DIMSTYLE
  2
AM_ANSI$SH
 70
     0
  3

  4
mm
  5

  6
GENAXEH
  7

 40
1.0
 41
0.12
 42
0.05
 43
0.5
 44
0.1
 45
0.0
 46
0.0
 47
0.1
 48
0.1
140
0.12
141
0.0
142
0.0
143
25.399999999999999
144
1.0
145
0.0
146
0.71
147
0.06
 71
     0
 72
     0
 73
     1
 74
     1
 75
     1
 76
     1
 77
     0
 78
     7
170
     0
171
     2
172
     0
173
     1
174
     0
175
     0
176
   256
177
   256
178
     2
  0
ENDTAB
  0
ENDSEC
  0
SECTION
  2
BLOCKS
  0
BLOCK
  8
0
  2
$MODEL_SPACE
 70
     0
 10
0.0
 20
0.0
 30
0.0
  3
$MODEL_SPACE
  1

  0
ENDBLK
  5
1B04
  8
0
  0
BLOCK
 67
     1
  8
0
  2
$PAPER_SPACE
 70
     0
 10
0.0
 20
0.0
 30
0.0
  3
$PAPER_SPACE
  1

  0
ENDBLK
  5
1B00
 67
     1
  8
0
  0
BLOCK
  8
0
  2
2_STATE_BRKR_SYMBOL_ST1-GR
 70
     2
 10
0.0
 20
0.0
 30
0.0
  3
2_STATE_BRKR_SYMBOL_ST1-GR
  1

  0
POLYLINE
  5
F9
  8
0
 62
     6
 66
     1
 10
0.0
 20
0.0
 30
0.0
 70
     1
  0
VERTEX
  5
1C4C
  8
0
 62
     6
 10
6.0471933526922141
 20
4.105208527085046
 30
0.0
  0
VERTEX
  5
1C4D
  8
0
 62
     6
 10
6.467243371457374
 20
4.105208527085046
 30
0.0
  0
VERTEX
  5
1C4E
  8
0
 62
     6
 10
6.467243371457374
 20
4.525258545850205
 30
0.0
  0
VERTEX
  5
1C4F
  8
0
 62
     6
 10
6.0471933526922141
 20
4.525258545850205
 30
0.0
  0
SEQEND
  5
1C50
  8
0
 62
     6
  0
SOLID
  5
FA
  8
STATE_2
 62
     1
 10
6.0471933526922141
 20
4.105208527085046
 30
0.0
 11
6.0471933526922141
 21
4.525258545850205
 31
0.0
 12
6.467243371457374
 22
4.105208527085046
 32
0.0
 13
6.467243371457374
 23
4.525258545850205
 33
0.0
  0
ATTDEF
  5
FB
  8
0
  6
CONTINUOUS
 62
     6
 10
5.9910018963363374
 20
3.958735244172896
 30
0.0
 40
0.084010003753032
  1
NULL
  3

  2
LINKAGE
 70
     9
  0
POLYLINE
  5
FC
  8
STATE_1
  6
CONTINUOUS
 62
     3
 66
     1
 10
0.0
 20
0.0
 30
0.0
 40
0.0588070026271224
 41
0.0588070026271224
  0
VERTEX
  5
1C51
  8
STATE_1
  6
CONTINUOUS
 62
     3
 10
6.0471933526922141
 20
4.4958457512403101
 30
0.0
  0
VERTEX
  5
1C52
  8
STATE_1
  6
CONTINUOUS
 62
     3
 10
6.467243371457374
 20
4.4958457512403101
 30
0.0
  0
SEQEND
  5
1C53
  8
STATE_1
  6
CONTINUOUS
 62
     3
  0
POLYLINE
  5
FD
  8
STATE_1
  6
CONTINUOUS
 62
     3
 66
     1
 10
0.0
 20
0.0
 30
0.0
 40
0.0588070026271224
 41
0.0588070026271224
  0
VERTEX
  5
1C54
  8
STATE_1
  6
CONTINUOUS
 62
     3
 10
6.0471933526922141
 20
4.1343690227753243
 30
0.0
  0
VERTEX
  5
1C55
  8
STATE_1
  6
CONTINUOUS
 62
     3
 10
6.467243371457374
 20
4.1343690227753243
 30
0.0
  0
SEQEND
  5
1C56
  8
STATE_1
  6
CONTINUOUS
 62
     3
  0
POLYLINE
  5
FE
  8
STATE_1
  6
CONTINUOUS
 62
     3
 66
     1
 10
0.0
 20
0.0
 30
0.0
 40
0.0588070026271224
 41
0.0588070026271224
  0
VERTEX
  5
1C57
  8
STATE_1
  6
CONTINUOUS
 62
     3
 10
6.076506444478837
 20
4.525210898859747
 30
0.0
  0
VERTEX
  5
1C58
  8
STATE_1
  6
CONTINUOUS
 62
     3
 10
6.076506444478837
 20
4.105160880094588
 30
0.0
  0
SEQEND
  5
1C59
  8
STATE_1
  6
CONTINUOUS
 62
     3
  0
LINE
  5
FF
  8
STATE_1
  6
CONTINUOUS
 62
     3
 10
6.4082158525585982
 20
4.1047766273305024
 30
0.0
 11
6.4082158525585982
 21
4.5248266460956623
 31
0.0
  0
POLYLINE
  5
100
  8
STATE_1
  6
CONTINUOUS
 62
     3
 66
     1
 10
0.0
 20
0.0
 30
0.0
 40
0.0588070026271224
 41
0.0588070026271224
  0
VERTEX
  5
1C5A
  8
STATE_1
  6
CONTINUOUS
 62
     3
 10
6.437528944345221
 20
4.525210898859747
 30
0.0
  0
VERTEX
  5
1C5B
  8
STATE_1
  6
CONTINUOUS
 62
     3
 10
6.437528944345221
 20
4.105160880094588
 30
0.0
  0
SEQEND
  5
1C5C
  8
STATE_1
  6
CONTINUOUS
 62
     3
  0
ENDBLK
  5
102
  8
0
  0
BLOCK
  8
0
  2
1_LINE_TEXT_DISPLAY_REF_CE
 70
     2
 10
0.0
 20
0.0
 30
0.0
  3
1_LINE_TEXT_DISPLAY_REF_CE
  1

  0
ATTDEF
  5
24D
  8
0
 62
     5
 10
0.0240473984278853
 20
0.1455691966350546
 30
0.0
 40
0.2
  1

  7
ARIAL
 72
     1
 11
0.0240473984278853
 21
0.1455691966350546
 31
0.0
  3
ENTER TEXT HERE
  2
LINE1
 70
     0
  0
ATTDEF
  5
24E
  8
0
 10
-0.1833920903288963
 20
0.0395691603674864
 30
0.0
 40
0.075
  1
NULL
  7
ARIAL
  3

  2
DISPLAY
 70
     9
  0
ENDBLK
  5
250
  8
0
  0
BLOCK
  8
0
  2
1_LINE_TEXT_DISPLAY_REF_LE
 70
     2
 10
0.0
 20
0.0
 30
0.0
  3
1_LINE_TEXT_DISPLAY_REF_LE
  1

  0
ATTDEF
  5
25A
  8
0
 62
     5
 10
0.2240976624509303
 20
0.1475994037153464
 30
0.0
 40
0.2
  1

  7
ARIAL
  3
ENTER TEXT HERE
  2
LINE1
 70
     0
  0
ATTDEF
  5
25B
  8
0
 10
0.240051627683002
 20
0.0415993674477782
 30
0.0
 40
0.075
  1
NULL
  7
ARIAL
  3

  2
DISPLAY
 70
     9
  0
ENDBLK
  5
25D
  8
0
  0
BLOCK
  8
0
 62
     6
  2
SW1-CLOSE-HORIZ
 70
     0
 10
0.0
 20
0.0
 30
0.0
  3
SW1-CLOSE-HORIZ
  1

  0
POLYLINE
  5
333
  8
0
 66
     1
 10
0.0
 20
0.0
 30
0.0
 40
0.01
 41
0.01
  0
VERTEX
  5
1C5D
  8
0
 10
0.25
 20
0.0
 30
0.0
  0
VERTEX
  5
1C5E
  8
0
 10
-0.25
 20
0.0
 30
0.0
  0
SEQEND
  5
1C5F
  8
0
  0
POLYLINE
  5
334
  8
0
 66
     1
 10
0.0
 20
0.0
 30
0.0
 40
0.01
 41
0.01
  0
VERTEX
  5
1C60
  8
0
 10
-0.1767766952966369
 20
-0.1767766952966368
 30
0.0
  0
VERTEX
  5
1C61
  8
0
 10
0.176776695296637
 20
0.1767766952966369
 30
0.0
  0
SEQEND
  5
1C62
  8
0
  0
POLYLINE
  5
335
  8
0
 66
     1
 10
0.0
 20
0.0
 30
0.0
 70
     1
 40
0.025
 41
0.025
  0
VERTEX
  5
1C63
  8
0
 10
-0.2625
 20
0.0
 30
0.0
 42
1.0
  0
VERTEX
  5
1C64
  8
0
 10
-0.2375
 20
0.0
 30
0.0
 42
1.0
  0
SEQEND
  5
1C65
  8
0
  0
POLYLINE
  5
336
  8
0
 66
     1
 10
0.0
 20
0.0
 30
0.0
 70
     1
 40
0.025
 41
0.025
  0
VERTEX
  5
1C66
  8
0
 10
0.2375
 20
0.0
 30
0.0
 42
1.0
  0
VERTEX
  5
1C67
  8
0
 10
0.2625
 20
0.0
 30
0.0
 42
1.0
  0
SEQEND
  5
1C68
  8
0
  0
ENDBLK
  5
338
  8
0
 62
     6
  0
BLOCK
  8
0
 62
     6
  2
SW1-OPEN-HORIZ
 70
     0
 10
0.0
 20
0.0
 30
0.0
  3
SW1-OPEN-HORIZ
  1

  0
POLYLINE
  5
33A
  8
0
 66
     1
 10
0.0
 20
0.0
 30
0.0
 40
0.01
 41
0.01
  0
VERTEX
  5
1C69
  8
0
 10
-0.1767766952966369
 20
-0.1767766952966368
 30
0.0
  0
VERTEX
  5
1C6A
  8
0
 10
0.1767766952966369
 20
0.1767766952966368
 30
0.0
  0
SEQEND
  5
1C6B
  8
0
  0
POLYLINE
  5
33B
  8
0
 66
     1
 10
0.0
 20
0.0
 30
0.0
 70
     1
 40
0.025
 41
0.025
  0
VERTEX
  5
1C6C
  8
0
 10
-0.2625000000000001
 20
0.0
 30
0.0
 42
1.0
  0
VERTEX
  5
1C6D
  8
0
 10
-0.2375
 20
0.0
 30
0.0
 42
1.0
  0
SEQEND
  5
1C6E
  8
0
  0
POLYLINE
  5
33C
  8
0
 66
     1
 10
0.0
 20
0.0
 30
0.0
 70
     1
 40
0.025
 41
0.025
  0
VERTEX
  5
1C6F
  8
0
 10
0.2374999999999999
 20
0.0
 30
0.0
 42
1.0
  0
VERTEX
  5
1C70
  8
0
 10
0.2624999999999999
 20
0.0
 30
0.0
 42
1.0
  0
SEQEND
  5
1C71
  8
0
  0
ENDBLK
  5
33E
  8
0
 62
     6
  0
BLOCK
  8
0
  2
LIVETEXT_L
 70
     2
 10
0.0
 20
0.0
 30
0.0
  3
LIVETEXT_L
  1

  0
ATTDEF
  5
34E
  8
0
 10
0.0
 20
0.096244
 30
0.0
 40
0.075
  1
NULL
  7
ARIAL
  3

  2
LINKAGE
 70
     9
  0
ATTDEF
  5
34F
  8
0
 10
0.0
 20
0.0
 30
0.0
 40
0.075
  1
UNLINKED L
  7
ARIAL
  3

  2
TEXT
 70
     8
  0
ENDBLK
  5
351
  8
0
  0
BLOCK
  8
0
  2
ARROW_HEAD_DISPLAY_REF0
 70
     2
 10
0.0
 20
0.0
 30
0.0
  3
ARROW_HEAD_DISPLAY_REF0
  1

  0
ATTDEF
  5
A04
  8
0
 10
-0.25
 20
-0.25
 30
0.0
 40
0.075
  1
NULL
  3

  2
DISPLAY
 70
     9
  0
SOLID
  5
A05
  8
0
 62
     5
 10
0.1249999999999996
 20
-0.0937500000000002
 30
0.0
 11
-0.1249999999999996
 21
0.0000000000000011
 31
0.0
 12
0.1249999999999996
 22
0.0937500000000002
 32
0.0
 13
0.1249999999999996
 23
0.0937500000000002
 33
0.0
  0
ENDBLK
  5
A06
  8
0
  0
BLOCK
  8
0
  2
CIRCUIT_SWITCHER_ST1-GREE0
 70
     2
 10
0.0
 20
0.0
 30
0.0
  3
CIRCUIT_SWITCHER_ST1-GREE0
  1

  0
ATTDEF
  5
102D
  8
0
  6
CONTINUOUS
 10
-0.0631753889154396
 20
-0.3695049273373092
 30
0.0
 40
0.1
  1
NULL
  7
ARIAL
  3

  2
LINKAGE
 70
     9
  0
LINE
  5
102E
  8
0
 62
     6
 10
-0.0000000000000004
 20
0.4160971619594384
 30
0.0
 11
-0.0000000000000004
 21
-0.0000000000000001
 31
0.0
  0
LINE
  5
102F
  8
0
 62
     6
 10
-0.0000000000000004
 20
-0.0000000000000001
 30
0.0
 11
0.2835952413135465
 21
-0.0000000000000001
 31
0.0
  0
LINE
  5
1030
  8
0
 62
     6
 10
0.1864400717320716
 20
0.0602420159684058
 30
0.0
 11
0.1864400717320716
 21
0.323919359233816
 31
0.0
  0
ARC
  5
1031
  8
0
 62
     6
 10
0.2057599344961125
 20
-0.0000000000000001
 30
0.0
 40
0.077835306817434
 50
270.0
 51
90.0
  0
LINE
  5
1032
  8
0
 62
     6
 10
0.1864400717320716
 20
0.4160971619594384
 30
0.0
 11
0.2815430528433693
 21
0.4160971619594384
 31
0.0
  0
LINE
  5
1033
  8
0
 62
     6
 10
0.1864400717320716
 20
0.323919359233816
 30
0.0
 11
0.3766460339546707
 21
0.5082749646850573
 31
0.0
  0
LINE
  5
1034
  8
0
 62
     6
 10
0.1864400717320716
 20
0.4160971619594384
 30
0.0
 11
0.1864400717320716
 21
0.6254093943824586
 31
0.0
  0
LINE
  5
1035
  8
0
 62
     6
 10
0.1864400717320716
 20
0.4160971619594384
 30
0.0
 11
-0.0000000000000004
 21
0.4160971619594384
 31
0.0
  0
LINE
  5
1036
  8
STATE_1
 62
     3
 10
-0.0000000000000004
 20
0.4160971619594384
 30
0.0
 11
-0.0000000000000004
 21
-0.0000000000000001
 31
0.0
  0
LINE
  5
1037
  8
STATE_1
 62
     3
 10
-0.0000000000000004
 20
-0.0000000000000001
 30
0.0
 11
0.2835952413135465
 21
-0.0000000000000001
 31
0.0
  0
LINE
  5
1038
  8
STATE_1
 62
     3
 10
0.1864400717320716
 20
0.0602420159684057
 30
0.0
 11
0.1864400717320716
 21
0.323919359233816
 31
0.0
  0
ARC
  5
1039
  8
STATE_1
 62
     3
 10
0.2057599344961125
 20
-0.0000000000000001
 30
0.0
 40
0.077835306817434
 50
270.0
 51
90.0
  0
LINE
  5
103A
  8
STATE_1
 62
     3
 10
0.1864400717320716
 20
0.4160971619594384
 30
0.0
 11
0.2815430528433693
 21
0.4160971619594384
 31
0.0
  0
LINE
  5
103B
  8
STATE_1
 62
     3
 10
0.1864400717320716
 20
0.323919359233816
 30
0.0
 11
0.3766460339546707
 21
0.5082749646850572
 31
0.0
  0
LINE
  5
103C
  8
STATE_1
 62
     3
 10
0.1864400717320716
 20
0.4160971619594384
 30
0.0
 11
0.1864400717320716
 21
0.6254093943824585
 31
0.0
  0
LINE
  5
103D
  8
STATE_1
 62
     3
 10
0.1864400717320716
 20
0.4160971619594384
 30
0.0
 11
-0.0000000000000004
 21
0.4160971619594384
 31
0.0
  0
LINE
  5
103E
  8
STATE_2
 62
     1
 10
-0.0000000000000004
 20
0.4160971619594384
 30
0.0
 11
-0.0000000000000004
 21
-0.0000000000000001
 31
0.0
  0
LINE
  5
103F
  8
STATE_2
 62
     1
 10
-0.0000000000000004
 20
-0.0000000000000001
 30
0.0
 11
0.2835952413135465
 21
-0.0000000000000001
 31
0.0
  0
LINE
  5
1040
  8
STATE_2
 62
     1
 10
0.1864400717320716
 20
0.0602420159684058
 30
0.0
 11
0.1864400717320716
 21
0.323919359233816
 31
0.0
  0
ARC
  5
1041
  8
STATE_2
 62
     1
 10
0.2057599344961125
 20
-0.0000000000000001
 30
0.0
 40
0.077835306817434
 50
270.0
 51
90.0
  0
LINE
  5
1042
  8
STATE_2
 62
     1
 10
0.1864400717320716
 20
0.4160971619594384
 30
0.0
 11
0.2815430528433693
 21
0.4160971619594384
 31
0.0
  0
LINE
  5
1043
  8
STATE_2
 62
     1
 10
0.1864400717320716
 20
0.323919359233816
 30
0.0
 11
0.3766460339546707
 21
0.5082749646850573
 31
0.0
  0
LINE
  5
1044
  8
STATE_2
 62
     1
 10
0.1864400717320716
 20
0.4160971619594384
 30
0.0
 11
0.1864400717320716
 21
0.6254093943824586
 31
0.0
  0
LINE
  5
1045
  8
STATE_2
 62
     1
 10
0.1864400717320716
 20
0.4160971619594384
 30
0.0
 11
-0.0000000000000004
 21
0.4160971619594384
 31
0.0
  0
ENDBLK
  5
1049
  8
0
  0
BLOCK
  8
0
  2
REGULATOR1
 70
     0
 10
0.0
 20
0.0
 30
0.0
  3
REGULATOR1
  1

  0
CIRCLE
  5
104E
  8
0
 10
0.0
 20
0.0
 30
0.0
 40
0.2499999999999
  0
LINE
  5
104F
  8
0
 10
0.0
 20
0.0
 30
0.0
 11
-0.0833333333332998
 21
-0.1443383333332759
 31
0.0
  0
SOLID
  5
1050
  8
0
 10
0.0360841666666519
 20
-0.020834166666658
 30
0.0
 11
-0.0360849999999846
 21
0.0208324999999926
 31
0.0
 12
0.0833333333333012
 22
0.1443374999999417
 32
0.0
 13
0.0833333333333012
 23
0.1443374999999417
 33
0.0
  0
LINE
  5
1051
  8
0
 10
-0.0360849999999846
 20
0.0208324999999926
 30
0.0
 11
0.0833333333333012
 21
0.1443374999999417
 31
0.0
  0
LINE
  5
1052
  8
0
 10
0.0833333333333012
 20
0.1443374999999417
 30
0.0
 11
0.0360841666666519
 21
-0.020834166666658
 31
0.0
  0
LINE
  5
1053
  8
0
 10
0.0360841666666519
 20
-0.020834166666658
 30
0.0
 11
-0.0360849999999846
 21
0.0208324999999926
 31
0.0
  0
ENDBLK
  5
1055
  8
0
  0
BLOCK
  8
0
  2
SWITCH-1_ST1-GREEN_ST2-RE0
 70
     2
 10
0.0
 20
0.0
 30
0.0
  3
SWITCH-1_ST1-GREEN_ST2-RE0
  1

  0
ATTDEF
  5
1067
  8
0
  6
CONTINUOUS
 10
-0.0631753889154396
 20
-0.3695049273373092
 30
0.0
 40
0.1
  1
NULL
  7
ARIAL
  3

  2
LINKAGE
 70
     9
  0
POLYLINE
  5
1068
  8
0
 66
     1
 10
0.0
 20
0.0
 30
0.0
 40
0.01
 41
0.01
  0
VERTEX
  5
1C77
  8
0
 10
0.5
 20
0.0
 30
0.0
  0
VERTEX
  5
1C78
  8
0
 10
0.0000000000000001
 20
0.0
 30
0.0
  0
SEQEND
  5
1C79
  8
0
  0
POLYLINE
  5
1069
  8
0
 66
     1
 10
0.0
 20
0.0
 30
0.0
 40
0.01
 41
0.01
  0
VERTEX
  5
1C7A
  8
0
 10
0.0000000000000001
 20
0.0000000000000001
 30
0.0
  0
VERTEX
  5
1C7B
  8
0
 10
0.5
 20
0.2357758278042004
 30
0.0
  0
SEQEND
  5
1C7C
  8
0
  0
POLYLINE
  5
106A
  8
0
 66
     1
 10
0.0
 20
0.0
 30
0.0
 70
     1
 40
0.025
 41
0.025
  0
VERTEX
  5
1C7D
  8
0
 10
-0.0125
 20
0.0
 30
0.0
 42
1.0
  0
VERTEX
  5
1C7E
  8
0
 10
0.0125000000000001
 20
0.0
 30
0.0
 42
1.0
  0
SEQEND
  5
1C7F
  8
0
  0
POLYLINE
  5
106B
  8
0
 66
     1
 10
0.0
 20
0.0
 30
0.0
 70
     1
 40
0.025
 41
0.025
  0
VERTEX
  5
1C80
  8
0
 10
0.4875
 20
0.0
 30
0.0
 42
1.0
  0
VERTEX
  5
1C81
  8
0
 10
0.5125
 20
0.0
 30
0.0
 42
1.0
  0
SEQEND
  5
1C82
  8
0
  0
POLYLINE
  5
106C
  8
0
 66
     1
 10
0.0
 20
0.0
 30
0.0
 40
0.01
 41
0.01
  0
VERTEX
  5
1C83
  8
0
 10
0.2496148761583474
 20
0.1226972818849456
 30
0.0
  0
VERTEX
  5
1C84
  8
0
 10
0.2496148761583474
 20
0.0
 30
0.0
  0
SEQEND
  5
1C85
  8
0
  0
POLYLINE
  5
106D
  8
0
 66
     1
 10
0.0
 20
0.0
 30
0.0
 40
0.01
 41
0.01
  0
VERTEX
  5
1C86
  8
0
 10
0.293945299840761
 20
0.000458430069401
 30
0.0
  0
VERTEX
  5
1C87
  8
0
 10
0.2047139749452524
 20
0.000458430069401
 30
0.0
  0
SEQEND
  5
1C88
  8
0
  0
POLYLINE
  5
106E
  8
STATE_1
 66
     1
 10
0.0
 20
0.0
 30
0.0
 40
0.01
 41
0.01
  0
VERTEX
  5
1C89
  8
STATE_1
 10
0.0
 20
0.0000000000000001
 30
0.0
  0
VERTEX
  5
1C8A
  8
STATE_1
 10
0.5
 20
0.2357758278042004
 30
0.0
  0
SEQEND
  5
1C8B
  8
STATE_1
  0
POLYLINE
  5
106F
  8
STATE_1
 66
     1
 10
0.0
 20
0.0
 30
0.0
 70
     1
 40
0.025
 41
0.025
  0
VERTEX
  5
1C8C
  8
STATE_1
 10
-0.0125
 20
0.0000000000000001
 30
0.0
 42
1.0
  0
VERTEX
  5
1C8D
  8
STATE_1
 10
0.0125000000000002
 20
0.0000000000000001
 30
0.0
 42
1.0
  0
SEQEND
  5
1C8E
  8
STATE_1
  0
POLYLINE
  5
1070
  8
STATE_1
 66
     1
 10
0.0
 20
0.0
 30
0.0
 70
     1
 40
0.025
 41
0.025
  0
VERTEX
  5
1C8F
  8
STATE_1
 10
0.4875
 20
0.0000000000000001
 30
0.0
 42
1.0
  0
VERTEX
  5
1C90
  8
STATE_1
 10
0.5125
 20
0.0000000000000001
 30
0.0
 42
1.0
  0
SEQEND
  5
1C91
  8
STATE_1
  0
POLYLINE
  5
1071
  8
STATE_1
 66
     1
 10
0.0
 20
0.0
 30
0.0
 40
0.01
 41
0.01
  0
VERTEX
  5
1C92
  8
STATE_1
 10
0.2496148761583474
 20
0.1226972818849457
 30
0.0
  0
VERTEX
  5
1C93
  8
STATE_1
 10
0.2496148761583474
 20
0.0000000000000001
 30
0.0
  0
SEQEND
  5
1C94
  8
STATE_1
  0
POLYLINE
  5
1072
  8
STATE_1
 66
     1
 10
0.0
 20
0.0
 30
0.0
 40
0.01
 41
0.01
  0
VERTEX
  5
1C95
  8
STATE_1
 10
0.293945299840761
 20
0.0004584300694011
 30
0.0
  0
VERTEX
  5
1C96
  8
STATE_1
 10
0.2047139749452524
 20
0.0004584300694011
 30
0.0
  0
SEQEND
  5
1C97
  8
STATE_1
  0
POLYLINE
  5
1073
  8
STATE_2
 66
     1
 10
0.0
 20
0.0
 30
0.0
 40
0.01
 41
0.01
  0
VERTEX
  5
1C98
  8
STATE_2
 10
0.5
 20
-0.0000000000000001
 30
0.0
  0
VERTEX
  5
1C99
  8
STATE_2
 10
0.0
 20
-0.0000000000000001
 30
0.0
  0
SEQEND
  5
1C9A
  8
STATE_2
  0
POLYLINE
  5
1074
  8
STATE_2
 66
     1
 10
0.0
 20
0.0
 30
0.0
 70
     1
 40
0.025
 41
0.025
  0
VERTEX
  5
1C9B
  8
STATE_2
 10
-0.0125
 20
-0.0000000000000001
 30
0.0
 42
1.0
  0
VERTEX
  5
1C9C
  8
STATE_2
 10
0.0125000000000002
 20
-0.0000000000000001
 30
0.0
 42
1.0
  0
SEQEND
  5
1C9D
  8
STATE_2
  0
POLYLINE
  5
1075
  8
STATE_2
 66
     1
 10
0.0
 20
0.0
 30
0.0
 70
     1
 40
0.025
 41
0.025
  0
VERTEX
  5
1C9E
  8
STATE_2
 10
0.4875
 20
-0.0000000000000001
 30
0.0
 42
1.0
  0
VERTEX
  5
1C9F
  8
STATE_2
 10
0.5125
 20
-0.0000000000000001
 30
0.0
 42
1.0
  0
SEQEND
  5
1CA0
  8
STATE_2
  0
ENDBLK
  5
1076
  8
0
  0
BLOCK
  8
0
  2
ARROW_HEAD_DISPLAY_REF
 70
     2
 10
0.0
 20
0.0
 30
0.0
  3
ARROW_HEAD_DISPLAY_REF
  1

  0
ATTDEF
  5
1B9E
  8
0
 10
-0.25
 20
-0.25
 30
0.0
 40
0.075
  1
NULL
  3

  2
DISPLAY
 70
     9
  0
SOLID
  5
1B9F
  8
0
 62
     5
 10
0.1249999999999996
 20
-0.0937500000000002
 30
0.0
 11
-0.1249999999999996
 21
0.0000000000000011
 31
0.0
 12
0.1249999999999996
 22
0.0937500000000002
 32
0.0
 13
0.1249999999999996
 23
0.0937500000000002
 33
0.0
  0
ENDBLK
  5
1BA0
  8
0
  0
BLOCK
  8
0
  2
GENAXEH
 70
     0
 10
0.0
 20
0.0
 30
0.0
  3
GENAXEH
  1

  0
LINE
  5
1C32
  8
0
 10
-1.0
 20
0.0
 30
0.0
 11
1.0
 21
0.0
 31
0.0
  0
ENDBLK
  5
1C34
  8
0
  0
BLOCK
  8
0
  2
*U15
 70
     1
 10
0.0
 20
0.0
 30
0.0
  3
*U15
  1

  0
TEXT
  5
1CCE
  8
DISPLAY
 10
5.3009559289292341
 20
13.209036917625189
 30
0.0
 40
0.2
  1
Note:
  0
TEXT
  5
1CCF
  8
DISPLAY
 10
5.3009559289292341
 20
12.87570358429185
 30
0.0
 40
0.2
  1
These voltage
  0
TEXT
  5
1CD0
  8
DISPLAY
 10
5.3009559289292341
 20
12.54237025095852
 30
0.0
 40
0.2
  1
are referenced
  0
TEXT
  5
1CD1
  8
DISPLAY
 10
5.3009559289292341
 20
12.209036917625189
 30
0.0
 40
0.2
  1
to 120V (div.
  0
TEXT
  5
1CD2
  8
DISPLAY
 10
5.3009559289292341
 20
11.87570358429185
 30
0.0
 40
0.2
  1
primary by 60)
  0
ENDBLK
  5
1CD4
  8
0
  0
ENDSEC
  0
SECTION
  2
ENTITIES
  0
INSERT
  5
251
  8
0
 66
     1
  2
1_LINE_TEXT_DISPLAY_REF_CE
 10
2.9139176157222191
 20
19.293446985449261
 30
0.0
  0
ATTRIB
  5
252
  8
0
 62
     5
 10
2.9379650141501021
 20
19.43901618208432
 30
0.0
 40
0.2
  1

  7
ARIAL
 72
     1
 11
2.9379650141501021
 21
19.43901618208432
 31
0.0
  2
LINE1
 70
     0
  0
ATTRIB
  5
253
  8
0
 10
2.7305255253933232
 20
19.333016145816728
 30
0.0
 40
0.075
  1
NULL
  7
ARIAL
  2
DISPLAY
 70
     9
  0
SEQEND
  5
254
  8
0
  0
INSERT
  5
255
  8
0
 66
     1
  2
1_LINE_TEXT_DISPLAY_REF_CE
 10
1.964121063016063
 20
19.531003282532438
 30
0.0
  0
ATTRIB
  5
256
  8
0
 62
     5
 10
1.9881684614439501
 20
19.676572479167501
 30
0.0
 40
0.2
  1

  7
ARIAL
 72
     1
 11
1.9881684614439501
 21
19.676572479167501
 31
0.0
  2
LINE1
 70
     0
  0
ATTRIB
  5
257
  8
0
 10
1.780728972687168
 20
19.57057244289993
 30
0.0
 40
0.075
  1
NULL
  7
ARIAL
  2
DISPLAY
 70
     9
  0
SEQEND
  5
258
  8
0
  0
INSERT
  5
25E
  8
0
 66
     1
  2
1_LINE_TEXT_DISPLAY_REF_LE
 10
3.490579801370846
 20
18.34322174599393
 30
0.0
  0
ATTRIB
  5
25F
  8
0
 62
     5
 10
3.7146774638217792
 20
18.49082114970928
 30
0.0
 40
0.2
  1

  7
ARIAL
  2
LINE1
 70
     0
  0
ATTRIB
  5
260
  8
0
 10
3.73063142905385
 20
18.38482111344171
 30
0.0
 40
0.075
  1
NULL
  7
ARIAL
  2
DISPLAY
 70
     9
  0
SEQEND
  5
261
  8
0
  0
LINE
  5
2A6
  8
DISPLAY
 62
     4
 10
7.4880825791632439
 20
9.4939940604032991
 30
0.0
 11
-1.6036404358360401
 21
9.4939940604032955
 31
0.0
  0
LINE
  5
2A7
  8
DISPLAY
 62
     4
 10
-1.6036404358360401
 20
14.05180005437593
 30
0.0
 11
-1.6036404358360401
 21
13.06510819384726
 31
0.0
  0
INSERT
  5
382
  8
0
 66
     1
  2
2_STATE_BRKR_SYMBOL_ST1-GR
 10
-7.8608587979108382
 20
6.1254773938470191
 30
0.0
  0
ATTRIB
  5
383
  8
0
  6
CONTINUOUS
 62
     6
 10
-1.869856901574499
 20
10.08421263801991
 30
0.0
 40
0.084010003753032
  1
010100010000004001
  2
LINKAGE
 70
     9
  0
SEQEND
  5
384
  8
0
  0
LINE
  5
385
  8
DISPLAY
 62
     4
 10
-1.6036404358360401
 20
10.230685920932061
 30
0.0
 11
-1.6036404358360401
 21
9.4939940604032955
 31
0.0
  0
TEXT
  5
42B
  8
0
 62
     2
 10
-3.5151970868673961
 20
10.50548756893658
 30
0.0
 40
0.215
  1
MAIN 350
  7
ARIAL
 72
     1
 11
-2.7447804202007302
 21
10.50548756893658
 31
0.0
  0
TEXT
  5
488
  8
0
 62
     6
 10
12.3090646590195
 20
16.09316085770693
 30
0.0
 40
0.215
  1
115KV SYSTEM
  7
ARIAL
  0
TEXT
  5
489
  8
0
 62
     3
 10
10.75512012934391
 20
18.55294767134664
 30
0.0
 40
0.2949235279081819
  1
INDUSTRIAL PARK
  7
ARIAL
 72
     1
 11
12.819584824701179
 21
18.55294767134664
 31
0.0
  0
POLYLINE
  5
48A
  8
0
 62
     4
 66
     1
 10
0.0
 20
0.0
 30
0.0
 70
     1
  0
VERTEX
  5
1C72
  8
0
 62
     4
 10
9.5226239155997199
 20
19.049878966295712
 30
0.0
  0
VERTEX
  5
1C73
  8
0
 62
     4
 10
16.114457843591332
 20
19.049878966295712
 30
0.0
  0
VERTEX
  5
1C74
  8
0
 62
     4
 10
16.114457843591332
 20
17.81316855567939
 30
0.0
  0
VERTEX
  5
1C75
  8
0
 62
     4
 10
9.5226239155997199
 20
17.81316855567939
 30
0.0
  0
SEQEND
  5
1C76
  8
0
 62
     4
  0
POLYLINE
  5
4B0
  8
0
 62
     2
 66
     1
 10
0.0
 20
0.0
 30
0.0
 70
     8
  0
VERTEX
  5
541
  8
0
 62
     2
 10
-1.391905417422266
 20
14.45795606685504
 30
0.0
 70
    32
  0
VERTEX
  5
542
  8
0
 62
     2
 10
-1.391935417422264
 20
14.45505606685504
 30
0.0
 70
    32
  0
VERTEX
  5
543
  8
0
 62
     2
 10
-1.392035417422264
 20
14.45205606685504
 30
0.0
 70
    32
  0
VERTEX
  5
544
  8
0
 62
     2
 10
-1.392195417422263
 20
14.449156066855039
 30
0.0
 70
    32
  0
VERTEX
  5
545
  8
0
 62
     2
 10
-1.392415417422264
 20
14.446156066855041
 30
0.0
 70
    32
  0
VERTEX
  5
546
  8
0
 62
     2
 10
-1.3927054174222651
 20
14.44325606685504
 30
0.0
 70
    32
  0
VERTEX
  5
547
  8
0
 62
     2
 10
-1.393055417422266
 20
14.44025606685504
 30
0.0
 70
    32
  0
VERTEX
  5
548
  8
0
 62
     2
 10
-1.393465417422264
 20
14.43735606685504
 30
0.0
 70
    32
  0
VERTEX
  5
549
  8
0
 62
     2
 10
-1.3939454174222661
 20
14.43445606685504
 30
0.0
 70
    32
  0
VERTEX
  5
54A
  8
0
 62
     2
 10
-1.3944754174222651
 20
14.431556066855039
 30
0.0
 70
    32
  0
VERTEX
  5
54B
  8
0
 62
     2
 10
-1.395075417422263
 20
14.428656066855041
 30
0.0
 70
    32
  0
VERTEX
  5
54C
  8
0
 62
     2
 10
-1.3957454174222641
 20
14.42575606685504
 30
0.0
 70
    32
  0
VERTEX
  5
54D
  8
0
 62
     2
 10
-1.396465417422263
 20
14.42295606685504
 30
0.0
 70
    32
  0
VERTEX
  5
54E
  8
0
 62
     2
 10
-1.397245417422263
 20
14.420156066855039
 30
0.0
 70
    32
  0
VERTEX
  5
54F
  8
0
 62
     2
 10
-1.3980954174222671
 20
14.41735606685504
 30
0.0
 70
    32
  0
VERTEX
  5
550
  8
0
 62
     2
 10
-1.3989954174222641
 20
14.41455606685504
 30
0.0
 70
    32
  0
VERTEX
  5
551
  8
0
 62
     2
 10
-1.3999654174222651
 20
14.411756066855039
 30
0.0
 70
    32
  0
VERTEX
  5
552
  8
0
 62
     2
 10
-1.400985417422266
 20
14.40905606685504
 30
0.0
 70
    32
  0
VERTEX
  5
553
  8
0
 62
     2
 10
-1.402075417422264
 20
14.406356066855039
 30
0.0
 70
    32
  0
VERTEX
  5
554
  8
0
 62
     2
 10
-1.4032154174222651
 20
14.40365606685504
 30
0.0
 70
    32
  0
VERTEX
  5
555
  8
0
 62
     2
 10
-1.4044054174222671
 20
14.401056066855039
 30
0.0
 70
    32
  0
VERTEX
  5
556
  8
0
 62
     2
 10
-1.4056554174222651
 20
14.39845606685504
 30
0.0
 70
    32
  0
VERTEX
  5
557
  8
0
 62
     2
 10
-1.4069654174222661
 20
14.395956066855041
 30
0.0
 70
    32
  0
VERTEX
  5
558
  8
0
 62
     2
 10
-1.408335417422264
 20
14.39335606685504
 30
0.0
 70
    32
  0
VERTEX
  5
559
  8
0
 62
     2
 10
-1.409745417422263
 20
14.39085606685504
 30
0.0
 70
    32
  0
VERTEX
  5
55A
  8
0
 62
     2
 10
-1.4112154174222651
 20
14.38845606685504
 30
0.0
 70
    32
  0
VERTEX
  5
55B
  8
0
 62
     2
 10
-1.4127354174222631
 20
14.386056066855041
 30
0.0
 70
    32
  0
VERTEX
  5
55C
  8
0
 62
     2
 10
-1.4143154174222641
 20
14.383656066855041
 30
0.0
 70
    32
  0
VERTEX
  5
55D
  8
0
 62
     2
 10
-1.415935417422264
 20
14.381356066855041
 30
0.0
 70
    32
  0
VERTEX
  5
55E
  8
0
 62
     2
 10
-1.4176054174222641
 20
14.379156066855041
 30
0.0
 70
    32
  0
VERTEX
  5
55F
  8
0
 62
     2
 10
-1.4193354174222641
 20
14.376856066855041
 30
0.0
 70
    32
  0
VERTEX
  5
560
  8
0
 62
     2
 10
-1.4210954174222641
 20
14.37475606685504
 30
0.0
 70
    32
  0
VERTEX
  5
561
  8
0
 62
     2
 10
-1.422915417422266
 20
14.37255606685504
 30
0.0
 70
    32
  0
VERTEX
  5
562
  8
0
 62
     2
 10
-1.4247754174222651
 20
14.370556066855039
 30
0.0
 70
    32
  0
VERTEX
  5
563
  8
0
 62
     2
 10
-1.426675417422266
 20
14.36855606685504
 30
0.0
 70
    32
  0
VERTEX
  5
564
  8
0
 62
     2
 10
-1.428625417422263
 20
14.36655606685504
 30
0.0
 70
    32
  0
VERTEX
  5
565
  8
0
 62
     2
 10
-1.4306154174222661
 20
14.364656066855041
 30
0.0
 70
    32
  0
VERTEX
  5
566
  8
0
 62
     2
 10
-1.432645417422264
 20
14.36275606685504
 30
0.0
 70
    32
  0
VERTEX
  5
567
  8
0
 62
     2
 10
-1.434705417422264
 20
14.36095606685504
 30
0.0
 70
    32
  0
VERTEX
  5
568
  8
0
 62
     2
 10
-1.436815417422264
 20
14.359256066855041
 30
0.0
 70
    32
  0
VERTEX
  5
569
  8
0
 62
     2
 10
-1.4389554174222641
 20
14.357556066855039
 30
0.0
 70
    32
  0
VERTEX
  5
56A
  8
0
 62
     2
 10
-1.441135417422263
 20
14.35595606685504
 30
0.0
 70
    32
  0
VERTEX
  5
56B
  8
0
 62
     2
 10
-1.443345417422264
 20
14.35445606685504
 30
0.0
 70
    32
  0
VERTEX
  5
56C
  8
0
 62
     2
 10
-1.4455954174222641
 20
14.35295606685504
 30
0.0
 70
    32
  0
VERTEX
  5
56D
  8
0
 62
     2
 10
-1.447865417422264
 20
14.351456066855039
 30
0.0
 70
    32
  0
VERTEX
  5
56E
  8
0
 62
     2
 10
-1.4501754174222641
 20
14.350156066855041
 30
0.0
 70
    32
  0
VERTEX
  5
56F
  8
0
 62
     2
 10
-1.452505417422266
 20
14.34885606685504
 30
0.0
 70
    32
  0
VERTEX
  5
570
  8
0
 62
     2
 10
-1.454875417422266
 20
14.34755606685504
 30
0.0
 70
    32
  0
VERTEX
  5
571
  8
0
 62
     2
 10
-1.4572554174222641
 20
14.34645606685504
 30
0.0
 70
    32
  0
VERTEX
  5
572
  8
0
 62
     2
 10
-1.459675417422263
 20
14.34535606685504
 30
0.0
 70
    32
  0
VERTEX
  5
573
  8
0
 62
     2
 10
-1.4621054174222641
 20
14.34425606685504
 30
0.0
 70
    32
  0
VERTEX
  5
574
  8
0
 62
     2
 10
-1.4645654174222651
 20
14.343356066855041
 30
0.0
 70
    32
  0
VERTEX
  5
575
  8
0
 62
     2
 10
-1.467045417422266
 20
14.342456066855039
 30
0.0
 70
    32
  0
VERTEX
  5
576
  8
0
 62
     2
 10
-1.469535417422267
 20
14.341556066855039
 30
0.0
 70
    32
  0
VERTEX
  5
577
  8
0
 62
     2
 10
-1.472045417422263
 20
14.340856066855039
 30
0.0
 70
    32
  0
VERTEX
  5
578
  8
0
 62
     2
 10
-1.4745754174222641
 20
14.340156066855039
 30
0.0
 70
    32
  0
VERTEX
  5
579
  8
0
 62
     2
 10
-1.477115417422266
 20
14.339556066855041
 30
0.0
 70
    32
  0
VERTEX
  5
57A
  8
0
 62
     2
 10
-1.4796754174222631
 20
14.33905606685504
 30
0.0
 70
    32
  0
VERTEX
  5
57B
  8
0
 62
     2
 10
-1.4822354174222641
 20
14.338556066855039
 30
0.0
 70
    32
  0
VERTEX
  5
57C
  8
0
 62
     2
 10
-1.4848154174222641
 20
14.33815606685504
 30
0.0
 70
    32
  0
VERTEX
  5
57D
  8
0
 62
     2
 10
-1.4873954174222641
 20
14.337856066855039
 30
0.0
 70
    32
  0
VERTEX
  5
57E
  8
0
 62
     2
 10
-1.489985417422264
 20
14.33755606685504
 30
0.0
 70
    32
  0
VERTEX
  5
57F
  8
0
 62
     2
 10
-1.4925754174222661
 20
14.33735606685504
 30
0.0
 70
    32
  0
VERTEX
  5
580
  8
0
 62
     2
 10
-1.495175417422266
 20
14.337256066855041
 30
0.0
 70
    32
  0
VERTEX
  5
581
  8
0
 62
     2
 10
-1.4977754174222651
 20
14.337256066855041
 30
0.0
 70
    32
  0
VERTEX
  5
582
  8
0
 62
     2
 10
-1.5003754174222641
 20
14.337256066855041
 30
0.0
 70
    32
  0
VERTEX
  5
583
  8
0
 62
     2
 10
-1.5029654174222671
 20
14.33735606685504
 30
0.0
 70
    32
  0
VERTEX
  5
584
  8
0
 62
     2
 10
-1.505565417422263
 20
14.33755606685504
 30
0.0
 70
    32
  0
VERTEX
  5
585
  8
0
 62
     2
 10
-1.508145417422263
 20
14.337856066855039
 30
0.0
 70
    32
  0
VERTEX
  5
586
  8
0
 62
     2
 10
-1.510735417422266
 20
14.33815606685504
 30
0.0
 70
    32
  0
VERTEX
  5
587
  8
0
 62
     2
 10
-1.513305417422264
 20
14.338556066855039
 30
0.0
 70
    32
  0
VERTEX
  5
588
  8
0
 62
     2
 10
-1.5158754174222651
 20
14.33905606685504
 30
0.0
 70
    32
  0
VERTEX
  5
589
  8
0
 62
     2
 10
-1.5184254174222671
 20
14.339556066855041
 30
0.0
 70
    32
  0
VERTEX
  5
58A
  8
0
 62
     2
 10
-1.5209654174222651
 20
14.340156066855039
 30
0.0
 70
    32
  0
VERTEX
  5
58B
  8
0
 62
     2
 10
-1.523495417422263
 20
14.340856066855039
 30
0.0
 70
    32
  0
VERTEX
  5
58C
  8
0
 62
     2
 10
-1.526005417422263
 20
14.341556066855039
 30
0.0
 70
    32
  0
VERTEX
  5
58D
  8
0
 62
     2
 10
-1.5285054174222641
 20
14.342456066855039
 30
0.0
 70
    32
  0
VERTEX
  5
58E
  8
0
 62
     2
 10
-1.530985417422263
 20
14.343356066855041
 30
0.0
 70
    32
  0
VERTEX
  5
58F
  8
0
 62
     2
 10
-1.533435417422264
 20
14.34425606685504
 30
0.0
 70
    32
  0
VERTEX
  5
590
  8
0
 62
     2
 10
-1.5358754174222651
 20
14.34535606685504
 30
0.0
 70
    32
  0
VERTEX
  5
591
  8
0
 62
     2
 10
-1.538285417422264
 20
14.34645606685504
 30
0.0
 70
    32
  0
VERTEX
  5
592
  8
0
 62
     2
 10
-1.5406754174222641
 20
14.34755606685504
 30
0.0
 70
    32
  0
VERTEX
  5
593
  8
0
 62
     2
 10
-1.543035417422266
 20
14.34885606685504
 30
0.0
 70
    32
  0
VERTEX
  5
594
  8
0
 62
     2
 10
-1.545375417422264
 20
14.350156066855041
 30
0.0
 70
    32
  0
VERTEX
  5
595
  8
0
 62
     2
 10
-1.5476754174222651
 20
14.351456066855039
 30
0.0
 70
    32
  0
VERTEX
  5
596
  8
0
 62
     2
 10
-1.5499554174222641
 20
14.35295606685504
 30
0.0
 70
    32
  0
VERTEX
  5
597
  8
0
 62
     2
 10
-1.5521954174222641
 20
14.35445606685504
 30
0.0
 70
    32
  0
VERTEX
  5
598
  8
0
 62
     2
 10
-1.5544154174222671
 20
14.35595606685504
 30
0.0
 70
    32
  0
VERTEX
  5
599
  8
0
 62
     2
 10
-1.556585417422264
 20
14.357556066855039
 30
0.0
 70
    32
  0
VERTEX
  5
59A
  8
0
 62
     2
 10
-1.5587354174222661
 20
14.359256066855041
 30
0.0
 70
    32
  0
VERTEX
  5
59B
  8
0
 62
     2
 10
-1.5608354174222641
 20
14.36095606685504
 30
0.0
 70
    32
  0
VERTEX
  5
59C
  8
0
 62
     2
 10
-1.5629054174222641
 20
14.36275606685504
 30
0.0
 70
    32
  0
VERTEX
  5
59D
  8
0
 62
     2
 10
-1.5649354174222641
 20
14.364656066855041
 30
0.0
 70
    32
  0
VERTEX
  5
59E
  8
0
 62
     2
 10
-1.5669254174222651
 20
14.36655606685504
 30
0.0
 70
    32
  0
VERTEX
  5
59F
  8
0
 62
     2
 10
-1.568865417422264
 20
14.36855606685504
 30
0.0
 70
    32
  0
VERTEX
  5
5A0
  8
0
 62
     2
 10
-1.570775417422263
 20
14.370556066855039
 30
0.0
 70
    32
  0
VERTEX
  5
5A1
  8
0
 62
     2
 10
-1.5726354174222641
 20
14.37255606685504
 30
0.0
 70
    32
  0
VERTEX
  5
5A2
  8
0
 62
     2
 10
-1.574445417422264
 20
14.37475606685504
 30
0.0
 70
    32
  0
VERTEX
  5
5A3
  8
0
 62
     2
 10
-1.576215417422266
 20
14.376856066855041
 30
0.0
 70
    32
  0
VERTEX
  5
5A4
  8
0
 62
     2
 10
-1.577935417422264
 20
14.379156066855041
 30
0.0
 70
    32
  0
VERTEX
  5
5A5
  8
0
 62
     2
 10
-1.579605417422264
 20
14.381356066855041
 30
0.0
 70
    32
  0
VERTEX
  5
5A6
  8
0
 62
     2
 10
-1.581235417422266
 20
14.383656066855041
 30
0.0
 70
    32
  0
VERTEX
  5
5A7
  8
0
 62
     2
 10
-1.5828054174222661
 20
14.386056066855041
 30
0.0
 70
    32
  0
VERTEX
  5
5A8
  8
0
 62
     2
 10
-1.5843254174222641
 20
14.38845606685504
 30
0.0
 70
    32
  0
VERTEX
  5
5A9
  8
0
 62
     2
 10
-1.585795417422263
 20
14.39085606685504
 30
0.0
 70
    32
  0
VERTEX
  5
5AA
  8
0
 62
     2
 10
-1.587215417422263
 20
14.39335606685504
 30
0.0
 70
    32
  0
VERTEX
  5
5AB
  8
0
 62
     2
 10
-1.588575417422263
 20
14.395956066855041
 30
0.0
 70
    32
  0
VERTEX
  5
5AC
  8
0
 62
     2
 10
-1.5898854174222641
 20
14.39845606685504
 30
0.0
 70
    32
  0
VERTEX
  5
5AD
  8
0
 62
     2
 10
-1.5911354174222661
 20
14.401056066855039
 30
0.0
 70
    32
  0
VERTEX
  5
5AE
  8
0
 62
     2
 10
-1.592335417422263
 20
14.40365606685504
 30
0.0
 70
    32
  0
VERTEX
  5
5AF
  8
0
 62
     2
 10
-1.5934754174222641
 20
14.406356066855039
 30
0.0
 70
    32
  0
VERTEX
  5
5B0
  8
0
 62
     2
 10
-1.594555417422264
 20
14.40905606685504
 30
0.0
 70
    32
  0
VERTEX
  5
5B1
  8
0
 62
     2
 10
-1.595585417422263
 20
14.411756066855039
 30
0.0
 70
    32
  0
VERTEX
  5
5B2
  8
0
 62
     2
 10
-1.596545417422264
 20
14.41455606685504
 30
0.0
 70
    32
  0
VERTEX
  5
5B3
  8
0
 62
     2
 10
-1.597455417422263
 20
14.41735606685504
 30
0.0
 70
    32
  0
VERTEX
  5
5B4
  8
0
 62
     2
 10
-1.5982954174222641
 20
14.420156066855039
 30
0.0
 70
    32
  0
VERTEX
  5
5B5
  8
0
 62
     2
 10
-1.5990854174222671
 20
14.42295606685504
 30
0.0
 70
    32
  0
VERTEX
  5
5B6
  8
0
 62
     2
 10
-1.599805417422264
 20
14.42575606685504
 30
0.0
 70
    32
  0
VERTEX
  5
5B7
  8
0
 62
     2
 10
-1.600465417422263
 20
14.428656066855041
 30
0.0
 70
    32
  0
VERTEX
  5
5B8
  8
0
 62
     2
 10
-1.601065417422264
 20
14.431556066855039
 30
0.0
 70
    32
  0
VERTEX
  5
5B9
  8
0
 62
     2
 10
-1.601605417422264
 20
14.43445606685504
 30
0.0
 70
    32
  0
VERTEX
  5
5BA
  8
0
 62
     2
 10
-1.6020854174222641
 20
14.43735606685504
 30
0.0
 70
    32
  0
VERTEX
  5
5BB
  8
0
 62
     2
 10
-1.6024954174222641
 20
14.44025606685504
 30
0.0
 70
    32
  0
VERTEX
  5
5BC
  8
0
 62
     2
 10
-1.6028454174222651
 20
14.44325606685504
 30
0.0
 70
    32
  0
VERTEX
  5
5BD
  8
0
 62
     2
 10
-1.6031354174222641
 20
14.446156066855041
 30
0.0
 70
    32
  0
VERTEX
  5
5BE
  8
0
 62
     2
 10
-1.6033554174222671
 20
14.449156066855039
 30
0.0
 70
    32
  0
VERTEX
  5
5BF
  8
0
 62
     2
 10
-1.603515417422263
 20
14.45205606685504
 30
0.0
 70
    32
  0
VERTEX
  5
5C0
  8
0
 62
     2
 10
-1.603605417422264
 20
14.45505606685504
 30
0.0
 70
    32
  0
VERTEX
  5
5C1
  8
0
 62
     2
 10
-1.6036454174222641
 20
14.45795606685504
 30
0.0
 70
    32
  0
SEQEND
  5
5C2
  8
0
 62
     2
  0
POLYLINE
  5
4B1
  8
0
 62
     2
 66
     1
 10
0.0
 20
0.0
 30
0.0
 70
     8
  0
VERTEX
  5
5C3
  8
0
 62
     2
 10
-1.391905417422266
 20
14.09305606685504
 30
0.0
 70
    32
  0
VERTEX
  5
5C4
  8
0
 62
     2
 10
-1.391935417422264
 20
14.09605606685504
 30
0.0
 70
    32
  0
VERTEX
  5
5C5
  8
0
 62
     2
 10
-1.392035417422264
 20
14.09905606685504
 30
0.0
 70
    32
  0
VERTEX
  5
5C6
  8
0
 62
     2
 10
-1.392195417422263
 20
14.10195606685504
 30
0.0
 70
    32
  0
VERTEX
  5
5C7
  8
0
 62
     2
 10
-1.392415417422264
 20
14.10495606685504
 30
0.0
 70
    32
  0
VERTEX
  5
5C8
  8
0
 62
     2
 10
-1.3927054174222651
 20
14.107856066855041
 30
0.0
 70
    32
  0
VERTEX
  5
5C9
  8
0
 62
     2
 10
-1.393055417422266
 20
14.110856066855041
 30
0.0
 70
    32
  0
VERTEX
  5
5CA
  8
0
 62
     2
 10
-1.393465417422264
 20
14.113756066855039
 30
0.0
 70
    32
  0
VERTEX
  5
5CB
  8
0
 62
     2
 10
-1.3939454174222661
 20
14.11665606685504
 30
0.0
 70
    32
  0
VERTEX
  5
5CC
  8
0
 62
     2
 10
-1.3944754174222651
 20
14.11955606685504
 30
0.0
 70
    32
  0
VERTEX
  5
5CD
  8
0
 62
     2
 10
-1.395075417422263
 20
14.12245606685504
 30
0.0
 70
    32
  0
VERTEX
  5
5CE
  8
0
 62
     2
 10
-1.3957454174222641
 20
14.125256066855041
 30
0.0
 70
    32
  0
VERTEX
  5
5CF
  8
0
 62
     2
 10
-1.396465417422263
 20
14.128156066855039
 30
0.0
 70
    32
  0
VERTEX
  5
5D0
  8
0
 62
     2
 10
-1.397245417422263
 20
14.13095606685504
 30
0.0
 70
    32
  0
VERTEX
  5
5D1
  8
0
 62
     2
 10
-1.3980954174222671
 20
14.133756066855041
 30
0.0
 70
    32
  0
VERTEX
  5
5D2
  8
0
 62
     2
 10
-1.3989954174222641
 20
14.136556066855039
 30
0.0
 70
    32
  0
VERTEX
  5
5D3
  8
0
 62
     2
 10
-1.3999654174222651
 20
14.13925606685504
 30
0.0
 70
    32
  0
VERTEX
  5
5D4
  8
0
 62
     2
 10
-1.400985417422266
 20
14.142056066855041
 30
0.0
 70
    32
  0
VERTEX
  5
5D5
  8
0
 62
     2
 10
-1.402075417422264
 20
14.14475606685504
 30
0.0
 70
    32
  0
VERTEX
  5
5D6
  8
0
 62
     2
 10
-1.4032154174222651
 20
14.147356066855041
 30
0.0
 70
    32
  0
VERTEX
  5
5D7
  8
0
 62
     2
 10
-1.4044054174222671
 20
14.15005606685504
 30
0.0
 70
    32
  0
VERTEX
  5
5D8
  8
0
 62
     2
 10
-1.4056554174222651
 20
14.152656066855039
 30
0.0
 70
    32
  0
VERTEX
  5
5D9
  8
0
 62
     2
 10
-1.4069654174222661
 20
14.15515606685504
 30
0.0
 70
    32
  0
VERTEX
  5
5DA
  8
0
 62
     2
 10
-1.408335417422264
 20
14.15765606685504
 30
0.0
 70
    32
  0
VERTEX
  5
5DB
  8
0
 62
     2
 10
-1.409745417422263
 20
14.160156066855039
 30
0.0
 70
    32
  0
VERTEX
  5
5DC
  8
0
 62
     2
 10
-1.4112154174222651
 20
14.162656066855041
 30
0.0
 70
    32
  0
VERTEX
  5
5DD
  8
0
 62
     2
 10
-1.4127354174222631
 20
14.16505606685504
 30
0.0
 70
    32
  0
VERTEX
  5
5DE
  8
0
 62
     2
 10
-1.4143154174222641
 20
14.16735606685504
 30
0.0
 70
    32
  0
VERTEX
  5
5DF
  8
0
 62
     2
 10
-1.415935417422264
 20
14.16965606685504
 30
0.0
 70
    32
  0
VERTEX
  5
5E0
  8
0
 62
     2
 10
-1.4176054174222641
 20
14.17195606685504
 30
0.0
 70
    32
  0
VERTEX
  5
5E1
  8
0
 62
     2
 10
-1.4193354174222641
 20
14.174156066855041
 30
0.0
 70
    32
  0
VERTEX
  5
5E2
  8
0
 62
     2
 10
-1.4210954174222641
 20
14.176356066855041
 30
0.0
 70
    32
  0
VERTEX
  5
5E3
  8
0
 62
     2
 10
-1.422915417422266
 20
14.178456066855039
 30
0.0
 70
    32
  0
VERTEX
  5
5E4
  8
0
 62
     2
 10
-1.4247754174222651
 20
14.18055606685504
 30
0.0
 70
    32
  0
VERTEX
  5
5E5
  8
0
 62
     2
 10
-1.426675417422266
 20
14.182556066855041
 30
0.0
 70
    32
  0
VERTEX
  5
5E6
  8
0
 62
     2
 10
-1.428625417422263
 20
14.184556066855039
 30
0.0
 70
    32
  0
VERTEX
  5
5E7
  8
0
 62
     2
 10
-1.4306154174222661
 20
14.18645606685504
 30
0.0
 70
    32
  0
VERTEX
  5
5E8
  8
0
 62
     2
 10
-1.432645417422264
 20
14.18825606685504
 30
0.0
 70
    32
  0
VERTEX
  5
5E9
  8
0
 62
     2
 10
-1.434705417422264
 20
14.190056066855041
 30
0.0
 70
    32
  0
VERTEX
  5
5EA
  8
0
 62
     2
 10
-1.436815417422264
 20
14.19185606685504
 30
0.0
 70
    32
  0
VERTEX
  5
5EB
  8
0
 62
     2
 10
-1.4389554174222641
 20
14.19345606685504
 30
0.0
 70
    32
  0
VERTEX
  5
5EC
  8
0
 62
     2
 10
-1.441135417422263
 20
14.19515606685504
 30
0.0
 70
    32
  0
VERTEX
  5
5ED
  8
0
 62
     2
 10
-1.443345417422264
 20
14.19665606685504
 30
0.0
 70
    32
  0
VERTEX
  5
5EE
  8
0
 62
     2
 10
-1.4455954174222641
 20
14.19815606685504
 30
0.0
 70
    32
  0
VERTEX
  5
5EF
  8
0
 62
     2
 10
-1.447865417422264
 20
14.19955606685504
 30
0.0
 70
    32
  0
VERTEX
  5
5F0
  8
0
 62
     2
 10
-1.4501754174222641
 20
14.20095606685504
 30
0.0
 70
    32
  0
VERTEX
  5
5F1
  8
0
 62
     2
 10
-1.452505417422266
 20
14.202256066855041
 30
0.0
 70
    32
  0
VERTEX
  5
5F2
  8
0
 62
     2
 10
-1.454875417422266
 20
14.20345606685504
 30
0.0
 70
    32
  0
VERTEX
  5
5F3
  8
0
 62
     2
 10
-1.4572554174222641
 20
14.204656066855041
 30
0.0
 70
    32
  0
VERTEX
  5
5F4
  8
0
 62
     2
 10
-1.459675417422263
 20
14.20575606685504
 30
0.0
 70
    32
  0
VERTEX
  5
5F5
  8
0
 62
     2
 10
-1.4621054174222641
 20
14.206756066855039
 30
0.0
 70
    32
  0
VERTEX
  5
5F6
  8
0
 62
     2
 10
-1.4645654174222651
 20
14.20775606685504
 30
0.0
 70
    32
  0
VERTEX
  5
5F7
  8
0
 62
     2
 10
-1.467045417422266
 20
14.20865606685504
 30
0.0
 70
    32
  0
VERTEX
  5
5F8
  8
0
 62
     2
 10
-1.469535417422267
 20
14.20945606685504
 30
0.0
 70
    32
  0
VERTEX
  5
5F9
  8
0
 62
     2
 10
-1.472045417422263
 20
14.21025606685504
 30
0.0
 70
    32
  0
VERTEX
  5
5FA
  8
0
 62
     2
 10
-1.4745754174222641
 20
14.21095606685504
 30
0.0
 70
    32
  0
VERTEX
  5
5FB
  8
0
 62
     2
 10
-1.477115417422266
 20
14.21155606685504
 30
0.0
 70
    32
  0
VERTEX
  5
5FC
  8
0
 62
     2
 10
-1.4796754174222631
 20
14.212056066855039
 30
0.0
 70
    32
  0
VERTEX
  5
5FD
  8
0
 62
     2
 10
-1.4822354174222641
 20
14.21255606685504
 30
0.0
 70
    32
  0
VERTEX
  5
5FE
  8
0
 62
     2
 10
-1.4848154174222641
 20
14.212956066855041
 30
0.0
 70
    32
  0
VERTEX
  5
5FF
  8
0
 62
     2
 10
-1.4873954174222641
 20
14.21325606685504
 30
0.0
 70
    32
  0
VERTEX
  5
600
  8
0
 62
     2
 10
-1.489985417422264
 20
14.213556066855039
 30
0.0
 70
    32
  0
VERTEX
  5
601
  8
0
 62
     2
 10
-1.4925754174222661
 20
14.213656066855039
 30
0.0
 70
    32
  0
VERTEX
  5
602
  8
0
 62
     2
 10
-1.495175417422266
 20
14.21385606685504
 30
0.0
 70
    32
  0
VERTEX
  5
603
  8
0
 62
     2
 10
-1.4977754174222651
 20
14.21385606685504
 30
0.0
 70
    32
  0
VERTEX
  5
604
  8
0
 62
     2
 10
-1.5003754174222641
 20
14.21385606685504
 30
0.0
 70
    32
  0
VERTEX
  5
605
  8
0
 62
     2
 10
-1.5029654174222671
 20
14.213656066855039
 30
0.0
 70
    32
  0
VERTEX
  5
606
  8
0
 62
     2
 10
-1.505565417422263
 20
14.213556066855039
 30
0.0
 70
    32
  0
VERTEX
  5
607
  8
0
 62
     2
 10
-1.508145417422263
 20
14.21325606685504
 30
0.0
 70
    32
  0
VERTEX
  5
608
  8
0
 62
     2
 10
-1.510735417422266
 20
14.212956066855041
 30
0.0
 70
    32
  0
VERTEX
  5
609
  8
0
 62
     2
 10
-1.513305417422264
 20
14.21255606685504
 30
0.0
 70
    32
  0
VERTEX
  5
60A
  8
0
 62
     2
 10
-1.5158754174222651
 20
14.212056066855039
 30
0.0
 70
    32
  0
VERTEX
  5
60B
  8
0
 62
     2
 10
-1.5184254174222671
 20
14.21155606685504
 30
0.0
 70
    32
  0
VERTEX
  5
60C
  8
0
 62
     2
 10
-1.5209654174222651
 20
14.21095606685504
 30
0.0
 70
    32
  0
VERTEX
  5
60D
  8
0
 62
     2
 10
-1.523495417422263
 20
14.21025606685504
 30
0.0
 70
    32
  0
VERTEX
  5
60E
  8
0
 62
     2
 10
-1.526005417422263
 20
14.20945606685504
 30
0.0
 70
    32
  0
VERTEX
  5
60F
  8
0
 62
     2
 10
-1.5285054174222641
 20
14.20865606685504
 30
0.0
 70
    32
  0
VERTEX
  5
610
  8
0
 62
     2
 10
-1.530985417422263
 20
14.20775606685504
 30
0.0
 70
    32
  0
VERTEX
  5
611
  8
0
 62
     2
 10
-1.533435417422264
 20
14.206756066855039
 30
0.0
 70
    32
  0
VERTEX
  5
612
  8
0
 62
     2
 10
-1.5358754174222651
 20
14.20575606685504
 30
0.0
 70
    32
  0
VERTEX
  5
613
  8
0
 62
     2
 10
-1.538285417422264
 20
14.204656066855041
 30
0.0
 70
    32
  0
VERTEX
  5
614
  8
0
 62
     2
 10
-1.5406754174222641
 20
14.20345606685504
 30
0.0
 70
    32
  0
VERTEX
  5
615
  8
0
 62
     2
 10
-1.543035417422266
 20
14.202256066855041
 30
0.0
 70
    32
  0
VERTEX
  5
616
  8
0
 62
     2
 10
-1.545375417422264
 20
14.20095606685504
 30
0.0
 70
    32
  0
VERTEX
  5
617
  8
0
 62
     2
 10
-1.5476754174222651
 20
14.19955606685504
 30
0.0
 70
    32
  0
VERTEX
  5
618
  8
0
 62
     2
 10
-1.5499554174222641
 20
14.19815606685504
 30
0.0
 70
    32
  0
VERTEX
  5
619
  8
0
 62
     2
 10
-1.5521954174222641
 20
14.19665606685504
 30
0.0
 70
    32
  0
VERTEX
  5
61A
  8
0
 62
     2
 10
-1.5544154174222671
 20
14.19515606685504
 30
0.0
 70
    32
  0
VERTEX
  5
61B
  8
0
 62
     2
 10
-1.556585417422264
 20
14.19345606685504
 30
0.0
 70
    32
  0
VERTEX
  5
61C
  8
0
 62
     2
 10
-1.5587354174222661
 20
14.19185606685504
 30
0.0
 70
    32
  0
VERTEX
  5
61D
  8
0
 62
     2
 10
-1.5608354174222641
 20
14.190056066855041
 30
0.0
 70
    32
  0
VERTEX
  5
61E
  8
0
 62
     2
 10
-1.5629054174222641
 20
14.18825606685504
 30
0.0
 70
    32
  0
VERTEX
  5
61F
  8
0
 62
     2
 10
-1.5649354174222641
 20
14.18645606685504
 30
0.0
 70
    32
  0
VERTEX
  5
620
  8
0
 62
     2
 10
-1.5669254174222651
 20
14.184556066855039
 30
0.0
 70
    32
  0
VERTEX
  5
621
  8
0
 62
     2
 10
-1.568865417422264
 20
14.182556066855041
 30
0.0
 70
    32
  0
VERTEX
  5
622
  8
0
 62
     2
 10
-1.570775417422263
 20
14.18055606685504
 30
0.0
 70
    32
  0
VERTEX
  5
623
  8
0
 62
     2
 10
-1.5726354174222641
 20
14.178456066855039
 30
0.0
 70
    32
  0
VERTEX
  5
624
  8
0
 62
     2
 10
-1.574445417422264
 20
14.176356066855041
 30
0.0
 70
    32
  0
VERTEX
  5
625
  8
0
 62
     2
 10
-1.576215417422266
 20
14.174156066855041
 30
0.0
 70
    32
  0
VERTEX
  5
626
  8
0
 62
     2
 10
-1.577935417422264
 20
14.17195606685504
 30
0.0
 70
    32
  0
VERTEX
  5
627
  8
0
 62
     2
 10
-1.579605417422264
 20
14.16965606685504
 30
0.0
 70
    32
  0
VERTEX
  5
628
  8
0
 62
     2
 10
-1.581235417422266
 20
14.16735606685504
 30
0.0
 70
    32
  0
VERTEX
  5
629
  8
0
 62
     2
 10
-1.5828054174222661
 20
14.16505606685504
 30
0.0
 70
    32
  0
VERTEX
  5
62A
  8
0
 62
     2
 10
-1.5843254174222641
 20
14.162656066855041
 30
0.0
 70
    32
  0
VERTEX
  5
62B
  8
0
 62
     2
 10
-1.585795417422263
 20
14.160156066855039
 30
0.0
 70
    32
  0
VERTEX
  5
62C
  8
0
 62
     2
 10
-1.587215417422263
 20
14.15765606685504
 30
0.0
 70
    32
  0
VERTEX
  5
62D
  8
0
 62
     2
 10
-1.588575417422263
 20
14.15515606685504
 30
0.0
 70
    32
  0
VERTEX
  5
62E
  8
0
 62
     2
 10
-1.5898854174222641
 20
14.152656066855039
 30
0.0
 70
    32
  0
VERTEX
  5
62F
  8
0
 62
     2
 10
-1.5911354174222661
 20
14.15005606685504
 30
0.0
 70
    32
  0
VERTEX
  5
630
  8
0
 62
     2
 10
-1.592335417422263
 20
14.147356066855041
 30
0.0
 70
    32
  0
VERTEX
  5
631
  8
0
 62
     2
 10
-1.5934754174222641
 20
14.14475606685504
 30
0.0
 70
    32
  0
VERTEX
  5
632
  8
0
 62
     2
 10
-1.594555417422264
 20
14.142056066855041
 30
0.0
 70
    32
  0
VERTEX
  5
633
  8
0
 62
     2
 10
-1.595585417422263
 20
14.13925606685504
 30
0.0
 70
    32
  0
VERTEX
  5
634
  8
0
 62
     2
 10
-1.596545417422264
 20
14.136556066855039
 30
0.0
 70
    32
  0
VERTEX
  5
635
  8
0
 62
     2
 10
-1.597455417422263
 20
14.133756066855041
 30
0.0
 70
    32
  0
VERTEX
  5
636
  8
0
 62
     2
 10
-1.5982954174222641
 20
14.13095606685504
 30
0.0
 70
    32
  0
VERTEX
  5
637
  8
0
 62
     2
 10
-1.5990854174222671
 20
14.128156066855039
 30
0.0
 70
    32
  0
VERTEX
  5
638
  8
0
 62
     2
 10
-1.599805417422264
 20
14.125256066855041
 30
0.0
 70
    32
  0
VERTEX
  5
639
  8
0
 62
     2
 10
-1.600465417422263
 20
14.12245606685504
 30
0.0
 70
    32
  0
VERTEX
  5
63A
  8
0
 62
     2
 10
-1.601065417422264
 20
14.11955606685504
 30
0.0
 70
    32
  0
VERTEX
  5
63B
  8
0
 62
     2
 10
-1.601605417422264
 20
14.11665606685504
 30
0.0
 70
    32
  0
VERTEX
  5
63C
  8
0
 62
     2
 10
-1.6020854174222641
 20
14.113756066855039
 30
0.0
 70
    32
  0
VERTEX
  5
63D
  8
0
 62
     2
 10
-1.6024954174222641
 20
14.110856066855041
 30
0.0
 70
    32
  0
VERTEX
  5
63E
  8
0
 62
     2
 10
-1.6028454174222651
 20
14.107856066855041
 30
0.0
 70
    32
  0
VERTEX
  5
63F
  8
0
 62
     2
 10
-1.6031354174222641
 20
14.10495606685504
 30
0.0
 70
    32
  0
VERTEX
  5
640
  8
0
 62
     2
 10
-1.6033554174222671
 20
14.10195606685504
 30
0.0
 70
    32
  0
VERTEX
  5
641
  8
0
 62
     2
 10
-1.603515417422263
 20
14.09905606685504
 30
0.0
 70
    32
  0
VERTEX
  5
642
  8
0
 62
     2
 10
-1.603605417422264
 20
14.09605606685504
 30
0.0
 70
    32
  0
VERTEX
  5
643
  8
0
 62
     2
 10
-1.6036454174222641
 20
14.09305606685504
 30
0.0
 70
    32
  0
SEQEND
  5
644
  8
0
 62
     2
  0
POLYLINE
  5
4B5
  8
0
 62
     2
 66
     1
 10
0.0
 20
0.0
 30
0.0
 70
     8
  0
VERTEX
  5
645
  8
0
 62
     2
 10
-1.815375417422266
 20
14.45795606685504
 30
0.0
 70
    32
  0
VERTEX
  5
646
  8
0
 62
     2
 10
-1.815405417422264
 20
14.45505606685504
 30
0.0
 70
    32
  0
VERTEX
  5
647
  8
0
 62
     2
 10
-1.815505417422264
 20
14.45205606685504
 30
0.0
 70
    32
  0
VERTEX
  5
648
  8
0
 62
     2
 10
-1.8156654174222631
 20
14.449156066855039
 30
0.0
 70
    32
  0
VERTEX
  5
649
  8
0
 62
     2
 10
-1.8158854174222621
 20
14.446156066855041
 30
0.0
 70
    32
  0
VERTEX
  5
64A
  8
0
 62
     2
 10
-1.816175417422264
 20
14.44325606685504
 30
0.0
 70
    32
  0
VERTEX
  5
64B
  8
0
 62
     2
 10
-1.816515417422264
 20
14.44025606685504
 30
0.0
 70
    32
  0
VERTEX
  5
64C
  8
0
 62
     2
 10
-1.8169354174222641
 20
14.43735606685504
 30
0.0
 70
    32
  0
VERTEX
  5
64D
  8
0
 62
     2
 10
-1.817405417422264
 20
14.43445606685504
 30
0.0
 70
    32
  0
VERTEX
  5
64E
  8
0
 62
     2
 10
-1.817945417422264
 20
14.431556066855039
 30
0.0
 70
    32
  0
VERTEX
  5
64F
  8
0
 62
     2
 10
-1.8185454174222631
 20
14.428656066855041
 30
0.0
 70
    32
  0
VERTEX
  5
650
  8
0
 62
     2
 10
-1.819205417422264
 20
14.42575606685504
 30
0.0
 70
    32
  0
VERTEX
  5
651
  8
0
 62
     2
 10
-1.8199354174222631
 20
14.42295606685504
 30
0.0
 70
    32
  0
VERTEX
  5
652
  8
0
 62
     2
 10
-1.8207154174222631
 20
14.420156066855039
 30
0.0
 70
    32
  0
VERTEX
  5
653
  8
0
 62
     2
 10
-1.8215654174222671
 20
14.41735606685504
 30
0.0
 70
    32
  0
VERTEX
  5
654
  8
0
 62
     2
 10
-1.8224654174222641
 20
14.41455606685504
 30
0.0
 70
    32
  0
VERTEX
  5
655
  8
0
 62
     2
 10
-1.823435417422264
 20
14.411756066855039
 30
0.0
 70
    32
  0
VERTEX
  5
656
  8
0
 62
     2
 10
-1.824455417422266
 20
14.40905606685504
 30
0.0
 70
    32
  0
VERTEX
  5
657
  8
0
 62
     2
 10
-1.825535417422264
 20
14.406356066855039
 30
0.0
 70
    32
  0
VERTEX
  5
658
  8
0
 62
     2
 10
-1.826675417422263
 20
14.40365606685504
 30
0.0
 70
    32
  0
VERTEX
  5
659
  8
0
 62
     2
 10
-1.827875417422266
 20
14.401056066855039
 30
0.0
 70
    32
  0
VERTEX
  5
65A
  8
0
 62
     2
 10
-1.829125417422264
 20
14.39845606685504
 30
0.0
 70
    32
  0
VERTEX
  5
65B
  8
0
 62
     2
 10
-1.830435417422267
 20
14.395956066855041
 30
0.0
 70
    32
  0
VERTEX
  5
65C
  8
0
 62
     2
 10
-1.831795417422263
 20
14.39335606685504
 30
0.0
 70
    32
  0
VERTEX
  5
65D
  8
0
 62
     2
 10
-1.833215417422263
 20
14.39085606685504
 30
0.0
 70
    32
  0
VERTEX
  5
65E
  8
0
 62
     2
 10
-1.834685417422264
 20
14.38845606685504
 30
0.0
 70
    32
  0
VERTEX
  5
65F
  8
0
 62
     2
 10
-1.8362054174222671
 20
14.386056066855041
 30
0.0
 70
    32
  0
VERTEX
  5
660
  8
0
 62
     2
 10
-1.8377854174222641
 20
14.383656066855041
 30
0.0
 70
    32
  0
VERTEX
  5
661
  8
0
 62
     2
 10
-1.839405417422264
 20
14.381356066855041
 30
0.0
 70
    32
  0
VERTEX
  5
662
  8
0
 62
     2
 10
-1.8410754174222641
 20
14.379156066855041
 30
0.0
 70
    32
  0
VERTEX
  5
663
  8
0
 62
     2
 10
-1.842795417422264
 20
14.376856066855041
 30
0.0
 70
    32
  0
VERTEX
  5
664
  8
0
 62
     2
 10
-1.8445654174222641
 20
14.37475606685504
 30
0.0
 70
    32
  0
VERTEX
  5
665
  8
0
 62
     2
 10
-1.846385417422264
 20
14.37255606685504
 30
0.0
 70
    32
  0
VERTEX
  5
666
  8
0
 62
     2
 10
-1.848245417422266
 20
14.370556066855039
 30
0.0
 70
    32
  0
VERTEX
  5
667
  8
0
 62
     2
 10
-1.850145417422266
 20
14.36855606685504
 30
0.0
 70
    32
  0
VERTEX
  5
668
  8
0
 62
     2
 10
-1.852095417422263
 20
14.36655606685504
 30
0.0
 70
    32
  0
VERTEX
  5
669
  8
0
 62
     2
 10
-1.854075417422264
 20
14.364656066855041
 30
0.0
 70
    32
  0
VERTEX
  5
66A
  8
0
 62
     2
 10
-1.856105417422264
 20
14.36275606685504
 30
0.0
 70
    32
  0
VERTEX
  5
66B
  8
0
 62
     2
 10
-1.858175417422264
 20
14.36095606685504
 30
0.0
 70
    32
  0
VERTEX
  5
66C
  8
0
 62
     2
 10
-1.8602854174222641
 20
14.359256066855041
 30
0.0
 70
    32
  0
VERTEX
  5
66D
  8
0
 62
     2
 10
-1.8624254174222641
 20
14.357556066855039
 30
0.0
 70
    32
  0
VERTEX
  5
66E
  8
0
 62
     2
 10
-1.864605417422263
 20
14.35595606685504
 30
0.0
 70
    32
  0
VERTEX
  5
66F
  8
0
 62
     2
 10
-1.866815417422264
 20
14.35445606685504
 30
0.0
 70
    32
  0
VERTEX
  5
670
  8
0
 62
     2
 10
-1.869055417422264
 20
14.35295606685504
 30
0.0
 70
    32
  0
VERTEX
  5
671
  8
0
 62
     2
 10
-1.8713354174222641
 20
14.351456066855039
 30
0.0
 70
    32
  0
VERTEX
  5
672
  8
0
 62
     2
 10
-1.8736454174222641
 20
14.350156066855041
 30
0.0
 70
    32
  0
VERTEX
  5
673
  8
0
 62
     2
 10
-1.875975417422266
 20
14.34885606685504
 30
0.0
 70
    32
  0
VERTEX
  5
674
  8
0
 62
     2
 10
-1.878335417422264
 20
14.34755606685504
 30
0.0
 70
    32
  0
VERTEX
  5
675
  8
0
 62
     2
 10
-1.8807254174222641
 20
14.34645606685504
 30
0.0
 70
    32
  0
VERTEX
  5
676
  8
0
 62
     2
 10
-1.8831354174222641
 20
14.34535606685504
 30
0.0
 70
    32
  0
VERTEX
  5
677
  8
0
 62
     2
 10
-1.8855754174222641
 20
14.34425606685504
 30
0.0
 70
    32
  0
VERTEX
  5
678
  8
0
 62
     2
 10
-1.888035417422264
 20
14.343356066855041
 30
0.0
 70
    32
  0
VERTEX
  5
679
  8
0
 62
     2
 10
-1.890505417422264
 20
14.342456066855039
 30
0.0
 70
    32
  0
VERTEX
  5
67A
  8
0
 62
     2
 10
-1.8930054174222639
 20
14.341556066855039
 30
0.0
 70
    32
  0
VERTEX
  5
67B
  8
0
 62
     2
 10
-1.895515417422263
 20
14.340856066855039
 30
0.0
 70
    32
  0
VERTEX
  5
67C
  8
0
 62
     2
 10
-1.898045417422263
 20
14.340156066855039
 30
0.0
 70
    32
  0
VERTEX
  5
67D
  8
0
 62
     2
 10
-1.9005854174222661
 20
14.339556066855041
 30
0.0
 70
    32
  0
VERTEX
  5
67E
  8
0
 62
     2
 10
-1.903145417422264
 20
14.33905606685504
 30
0.0
 70
    32
  0
VERTEX
  5
67F
  8
0
 62
     2
 10
-1.9057054174222641
 20
14.338556066855039
 30
0.0
 70
    32
  0
VERTEX
  5
680
  8
0
 62
     2
 10
-1.9082854174222641
 20
14.33815606685504
 30
0.0
 70
    32
  0
VERTEX
  5
681
  8
0
 62
     2
 10
-1.910865417422263
 20
14.337856066855039
 30
0.0
 70
    32
  0
VERTEX
  5
682
  8
0
 62
     2
 10
-1.913455417422264
 20
14.33755606685504
 30
0.0
 70
    32
  0
VERTEX
  5
683
  8
0
 62
     2
 10
-1.9160454174222661
 20
14.33735606685504
 30
0.0
 70
    32
  0
VERTEX
  5
684
  8
0
 62
     2
 10
-1.918645417422266
 20
14.337256066855041
 30
0.0
 70
    32
  0
VERTEX
  5
685
  8
0
 62
     2
 10
-1.921245417422264
 20
14.337256066855041
 30
0.0
 70
    32
  0
VERTEX
  5
686
  8
0
 62
     2
 10
-1.923835417422266
 20
14.337256066855041
 30
0.0
 70
    32
  0
VERTEX
  5
687
  8
0
 62
     2
 10
-1.9264354174222671
 20
14.33735606685504
 30
0.0
 70
    32
  0
VERTEX
  5
688
  8
0
 62
     2
 10
-1.9290254174222641
 20
14.33755606685504
 30
0.0
 70
    32
  0
VERTEX
  5
689
  8
0
 62
     2
 10
-1.9316154174222631
 20
14.337856066855039
 30
0.0
 70
    32
  0
VERTEX
  5
68A
  8
0
 62
     2
 10
-1.934205417422266
 20
14.33815606685504
 30
0.0
 70
    32
  0
VERTEX
  5
68B
  8
0
 62
     2
 10
-1.936775417422264
 20
14.338556066855039
 30
0.0
 70
    32
  0
VERTEX
  5
68C
  8
0
 62
     2
 10
-1.939345417422264
 20
14.33905606685504
 30
0.0
 70
    32
  0
VERTEX
  5
68D
  8
0
 62
     2
 10
-1.941895417422266
 20
14.339556066855041
 30
0.0
 70
    32
  0
VERTEX
  5
68E
  8
0
 62
     2
 10
-1.944435417422264
 20
14.340156066855039
 30
0.0
 70
    32
  0
VERTEX
  5
68F
  8
0
 62
     2
 10
-1.9469654174222639
 20
14.340856066855039
 30
0.0
 70
    32
  0
VERTEX
  5
690
  8
0
 62
     2
 10
-1.949475417422263
 20
14.341556066855039
 30
0.0
 70
    32
  0
VERTEX
  5
691
  8
0
 62
     2
 10
-1.9519754174222641
 20
14.342456066855039
 30
0.0
 70
    32
  0
VERTEX
  5
692
  8
0
 62
     2
 10
-1.954445417422263
 20
14.343356066855041
 30
0.0
 70
    32
  0
VERTEX
  5
693
  8
0
 62
     2
 10
-1.956905417422264
 20
14.34425606685504
 30
0.0
 70
    32
  0
VERTEX
  5
694
  8
0
 62
     2
 10
-1.959345417422264
 20
14.34535606685504
 30
0.0
 70
    32
  0
VERTEX
  5
695
  8
0
 62
     2
 10
-1.961755417422264
 20
14.34645606685504
 30
0.0
 70
    32
  0
VERTEX
  5
696
  8
0
 62
     2
 10
-1.964145417422263
 20
14.34755606685504
 30
0.0
 70
    32
  0
VERTEX
  5
697
  8
0
 62
     2
 10
-1.966505417422264
 20
14.34885606685504
 30
0.0
 70
    32
  0
VERTEX
  5
698
  8
0
 62
     2
 10
-1.968835417422264
 20
14.350156066855041
 30
0.0
 70
    32
  0
VERTEX
  5
699
  8
0
 62
     2
 10
-1.971145417422264
 20
14.351456066855039
 30
0.0
 70
    32
  0
VERTEX
  5
69A
  8
0
 62
     2
 10
-1.9734254174222641
 20
14.35295606685504
 30
0.0
 70
    32
  0
VERTEX
  5
69B
  8
0
 62
     2
 10
-1.9756654174222641
 20
14.35445606685504
 30
0.0
 70
    32
  0
VERTEX
  5
69C
  8
0
 62
     2
 10
-1.977875417422263
 20
14.35595606685504
 30
0.0
 70
    32
  0
VERTEX
  5
69D
  8
0
 62
     2
 10
-1.980055417422264
 20
14.357556066855039
 30
0.0
 70
    32
  0
VERTEX
  5
69E
  8
0
 62
     2
 10
-1.982195417422264
 20
14.359256066855041
 30
0.0
 70
    32
  0
VERTEX
  5
69F
  8
0
 62
     2
 10
-1.9843054174222641
 20
14.36095606685504
 30
0.0
 70
    32
  0
VERTEX
  5
6A0
  8
0
 62
     2
 10
-1.9863754174222641
 20
14.36275606685504
 30
0.0
 70
    32
  0
VERTEX
  5
6A1
  8
0
 62
     2
 10
-1.9884054174222641
 20
14.364656066855041
 30
0.0
 70
    32
  0
VERTEX
  5
6A2
  8
0
 62
     2
 10
-1.990395417422266
 20
14.36655606685504
 30
0.0
 70
    32
  0
VERTEX
  5
6A3
  8
0
 62
     2
 10
-1.9923354174222641
 20
14.36855606685504
 30
0.0
 70
    32
  0
VERTEX
  5
6A4
  8
0
 62
     2
 10
-1.994245417422263
 20
14.370556066855039
 30
0.0
 70
    32
  0
VERTEX
  5
6A5
  8
0
 62
     2
 10
-1.9961054174222641
 20
14.37255606685504
 30
0.0
 70
    32
  0
VERTEX
  5
6A6
  8
0
 62
     2
 10
-1.997915417422264
 20
14.37475606685504
 30
0.0
 70
    32
  0
VERTEX
  5
6A7
  8
0
 62
     2
 10
-1.999685417422266
 20
14.376856066855041
 30
0.0
 70
    32
  0
VERTEX
  5
6A8
  8
0
 62
     2
 10
-2.001405417422264
 20
14.379156066855041
 30
0.0
 70
    32
  0
VERTEX
  5
6A9
  8
0
 62
     2
 10
-2.003075417422262
 20
14.381356066855041
 30
0.0
 70
    32
  0
VERTEX
  5
6AA
  8
0
 62
     2
 10
-2.004705417422266
 20
14.383656066855041
 30
0.0
 70
    32
  0
VERTEX
  5
6AB
  8
0
 62
     2
 10
-2.006275417422267
 20
14.386056066855041
 30
0.0
 70
    32
  0
VERTEX
  5
6AC
  8
0
 62
     2
 10
-2.0077954174222641
 20
14.38845606685504
 30
0.0
 70
    32
  0
VERTEX
  5
6AD
  8
0
 62
     2
 10
-2.0092654174222631
 20
14.39085606685504
 30
0.0
 70
    32
  0
VERTEX
  5
6AE
  8
0
 62
     2
 10
-2.010685417422267
 20
14.39335606685504
 30
0.0
 70
    32
  0
VERTEX
  5
6AF
  8
0
 62
     2
 10
-2.0120454174222671
 20
14.395956066855041
 30
0.0
 70
    32
  0
VERTEX
  5
6B0
  8
0
 62
     2
 10
-2.0133554174222641
 20
14.39845606685504
 30
0.0
 70
    32
  0
VERTEX
  5
6B1
  8
0
 62
     2
 10
-2.0146054174222661
 20
14.401056066855039
 30
0.0
 70
    32
  0
VERTEX
  5
6B2
  8
0
 62
     2
 10
-2.0158054174222642
 20
14.40365606685504
 30
0.0
 70
    32
  0
VERTEX
  5
6B3
  8
0
 62
     2
 10
-2.0169454174222641
 20
14.406356066855039
 30
0.0
 70
    32
  0
VERTEX
  5
6B4
  8
0
 62
     2
 10
-2.018025417422264
 20
14.40905606685504
 30
0.0
 70
    32
  0
VERTEX
  5
6B5
  8
0
 62
     2
 10
-2.0190454174222641
 20
14.411756066855039
 30
0.0
 70
    32
  0
VERTEX
  5
6B6
  8
0
 62
     2
 10
-2.0200154174222642
 20
14.41455606685504
 30
0.0
 70
    32
  0
VERTEX
  5
6B7
  8
0
 62
     2
 10
-2.0209154174222661
 20
14.41735606685504
 30
0.0
 70
    32
  0
VERTEX
  5
6B8
  8
0
 62
     2
 10
-2.021765417422265
 20
14.420156066855039
 30
0.0
 70
    32
  0
VERTEX
  5
6B9
  8
0
 62
     2
 10
-2.022545417422263
 20
14.42295606685504
 30
0.0
 70
    32
  0
VERTEX
  5
6BA
  8
0
 62
     2
 10
-2.023275417422262
 20
14.42575606685504
 30
0.0
 70
    32
  0
VERTEX
  5
6BB
  8
0
 62
     2
 10
-2.0239354174222641
 20
14.428656066855041
 30
0.0
 70
    32
  0
VERTEX
  5
6BC
  8
0
 62
     2
 10
-2.0245354174222641
 20
14.431556066855039
 30
0.0
 70
    32
  0
VERTEX
  5
6BD
  8
0
 62
     2
 10
-2.025075417422264
 20
14.43445606685504
 30
0.0
 70
    32
  0
VERTEX
  5
6BE
  8
0
 62
     2
 10
-2.025545417422264
 20
14.43735606685504
 30
0.0
 70
    32
  0
VERTEX
  5
6BF
  8
0
 62
     2
 10
-2.0259654174222641
 20
14.44025606685504
 30
0.0
 70
    32
  0
VERTEX
  5
6C0
  8
0
 62
     2
 10
-2.0263154174222642
 20
14.44325606685504
 30
0.0
 70
    32
  0
VERTEX
  5
6C1
  8
0
 62
     2
 10
-2.026595417422266
 20
14.446156066855041
 30
0.0
 70
    32
  0
VERTEX
  5
6C2
  8
0
 62
     2
 10
-2.0268254174222671
 20
14.449156066855039
 30
0.0
 70
    32
  0
VERTEX
  5
6C3
  8
0
 62
     2
 10
-2.0269854174222641
 20
14.45205606685504
 30
0.0
 70
    32
  0
VERTEX
  5
6C4
  8
0
 62
     2
 10
-2.027075417422262
 20
14.45505606685504
 30
0.0
 70
    32
  0
VERTEX
  5
6C5
  8
0
 62
     2
 10
-2.0271054174222671
 20
14.45795606685504
 30
0.0
 70
    32
  0
SEQEND
  5
6C6
  8
0
 62
     2
  0
POLYLINE
  5
4B6
  8
0
 62
     2
 66
     1
 10
0.0
 20
0.0
 30
0.0
 70
     8
  0
VERTEX
  5
6C7
  8
0
 62
     2
 10
-1.815375417422266
 20
14.09305606685504
 30
0.0
 70
    32
  0
VERTEX
  5
6C8
  8
0
 62
     2
 10
-1.815405417422264
 20
14.09605606685504
 30
0.0
 70
    32
  0
VERTEX
  5
6C9
  8
0
 62
     2
 10
-1.815505417422264
 20
14.09905606685504
 30
0.0
 70
    32
  0
VERTEX
  5
6CA
  8
0
 62
     2
 10
-1.8156654174222631
 20
14.10195606685504
 30
0.0
 70
    32
  0
VERTEX
  5
6CB
  8
0
 62
     2
 10
-1.8158854174222621
 20
14.10495606685504
 30
0.0
 70
    32
  0
VERTEX
  5
6CC
  8
0
 62
     2
 10
-1.816175417422264
 20
14.107856066855041
 30
0.0
 70
    32
  0
VERTEX
  5
6CD
  8
0
 62
     2
 10
-1.816515417422264
 20
14.110856066855041
 30
0.0
 70
    32
  0
VERTEX
  5
6CE
  8
0
 62
     2
 10
-1.8169354174222641
 20
14.113756066855039
 30
0.0
 70
    32
  0
VERTEX
  5
6CF
  8
0
 62
     2
 10
-1.817405417422264
 20
14.11665606685504
 30
0.0
 70
    32
  0
VERTEX
  5
6D0
  8
0
 62
     2
 10
-1.817945417422264
 20
14.11955606685504
 30
0.0
 70
    32
  0
VERTEX
  5
6D1
  8
0
 62
     2
 10
-1.8185454174222631
 20
14.12245606685504
 30
0.0
 70
    32
  0
VERTEX
  5
6D2
  8
0
 62
     2
 10
-1.819205417422264
 20
14.125256066855041
 30
0.0
 70
    32
  0
VERTEX
  5
6D3
  8
0
 62
     2
 10
-1.8199354174222631
 20
14.128156066855039
 30
0.0
 70
    32
  0
VERTEX
  5
6D4
  8
0
 62
     2
 10
-1.8207154174222631
 20
14.13095606685504
 30
0.0
 70
    32
  0
VERTEX
  5
6D5
  8
0
 62
     2
 10
-1.8215654174222671
 20
14.133756066855041
 30
0.0
 70
    32
  0
VERTEX
  5
6D6
  8
0
 62
     2
 10
-1.8224654174222641
 20
14.136556066855039
 30
0.0
 70
    32
  0
VERTEX
  5
6D7
  8
0
 62
     2
 10
-1.823435417422264
 20
14.13925606685504
 30
0.0
 70
    32
  0
VERTEX
  5
6D8
  8
0
 62
     2
 10
-1.824455417422266
 20
14.142056066855041
 30
0.0
 70
    32
  0
VERTEX
  5
6D9
  8
0
 62
     2
 10
-1.825535417422264
 20
14.14475606685504
 30
0.0
 70
    32
  0
VERTEX
  5
6DA
  8
0
 62
     2
 10
-1.826675417422263
 20
14.147356066855041
 30
0.0
 70
    32
  0
VERTEX
  5
6DB
  8
0
 62
     2
 10
-1.827875417422266
 20
14.15005606685504
 30
0.0
 70
    32
  0
VERTEX
  5
6DC
  8
0
 62
     2
 10
-1.829125417422264
 20
14.152656066855039
 30
0.0
 70
    32
  0
VERTEX
  5
6DD
  8
0
 62
     2
 10
-1.830435417422267
 20
14.15515606685504
 30
0.0
 70
    32
  0
VERTEX
  5
6DE
  8
0
 62
     2
 10
-1.831795417422263
 20
14.15765606685504
 30
0.0
 70
    32
  0
VERTEX
  5
6DF
  8
0
 62
     2
 10
-1.833215417422263
 20
14.160156066855039
 30
0.0
 70
    32
  0
VERTEX
  5
6E0
  8
0
 62
     2
 10
-1.834685417422264
 20
14.162656066855041
 30
0.0
 70
    32
  0
VERTEX
  5
6E1
  8
0
 62
     2
 10
-1.8362054174222671
 20
14.16505606685504
 30
0.0
 70
    32
  0
VERTEX
  5
6E2
  8
0
 62
     2
 10
-1.8377854174222641
 20
14.16735606685504
 30
0.0
 70
    32
  0
VERTEX
  5
6E3
  8
0
 62
     2
 10
-1.839405417422264
 20
14.16965606685504
 30
0.0
 70
    32
  0
VERTEX
  5
6E4
  8
0
 62
     2
 10
-1.8410754174222641
 20
14.17195606685504
 30
0.0
 70
    32
  0
VERTEX
  5
6E5
  8
0
 62
     2
 10
-1.842795417422264
 20
14.174156066855041
 30
0.0
 70
    32
  0
VERTEX
  5
6E6
  8
0
 62
     2
 10
-1.8445654174222641
 20
14.176356066855041
 30
0.0
 70
    32
  0
VERTEX
  5
6E7
  8
0
 62
     2
 10
-1.846385417422264
 20
14.178456066855039
 30
0.0
 70
    32
  0
VERTEX
  5
6E8
  8
0
 62
     2
 10
-1.848245417422266
 20
14.18055606685504
 30
0.0
 70
    32
  0
VERTEX
  5
6E9
  8
0
 62
     2
 10
-1.850145417422266
 20
14.182556066855041
 30
0.0
 70
    32
  0
VERTEX
  5
6EA
  8
0
 62
     2
 10
-1.852095417422263
 20
14.184556066855039
 30
0.0
 70
    32
  0
VERTEX
  5
6EB
  8
0
 62
     2
 10
-1.854075417422264
 20
14.18645606685504
 30
0.0
 70
    32
  0
VERTEX
  5
6EC
  8
0
 62
     2
 10
-1.856105417422264
 20
14.18825606685504
 30
0.0
 70
    32
  0
VERTEX
  5
6ED
  8
0
 62
     2
 10
-1.858175417422264
 20
14.190056066855041
 30
0.0
 70
    32
  0
VERTEX
  5
6EE
  8
0
 62
     2
 10
-1.8602854174222641
 20
14.19185606685504
 30
0.0
 70
    32
  0
VERTEX
  5
6EF
  8
0
 62
     2
 10
-1.8624254174222641
 20
14.19345606685504
 30
0.0
 70
    32
  0
VERTEX
  5
6F0
  8
0
 62
     2
 10
-1.864605417422263
 20
14.19515606685504
 30
0.0
 70
    32
  0
VERTEX
  5
6F1
  8
0
 62
     2
 10
-1.866815417422264
 20
14.19665606685504
 30
0.0
 70
    32
  0
VERTEX
  5
6F2
  8
0
 62
     2
 10
-1.869055417422264
 20
14.19815606685504
 30
0.0
 70
    32
  0
VERTEX
  5
6F3
  8
0
 62
     2
 10
-1.8713354174222641
 20
14.19955606685504
 30
0.0
 70
    32
  0
VERTEX
  5
6F4
  8
0
 62
     2
 10
-1.8736454174222641
 20
14.20095606685504
 30
0.0
 70
    32
  0
VERTEX
  5
6F5
  8
0
 62
     2
 10
-1.875975417422266
 20
14.202256066855041
 30
0.0
 70
    32
  0
VERTEX
  5
6F6
  8
0
 62
     2
 10
-1.878335417422264
 20
14.20345606685504
 30
0.0
 70
    32
  0
VERTEX
  5
6F7
  8
0
 62
     2
 10
-1.8807254174222641
 20
14.204656066855041
 30
0.0
 70
    32
  0
VERTEX
  5
6F8
  8
0
 62
     2
 10
-1.8831354174222641
 20
14.20575606685504
 30
0.0
 70
    32
  0
VERTEX
  5
6F9
  8
0
 62
     2
 10
-1.8855754174222641
 20
14.206756066855039
 30
0.0
 70
    32
  0
VERTEX
  5
6FA
  8
0
 62
     2
 10
-1.888035417422264
 20
14.20775606685504
 30
0.0
 70
    32
  0
VERTEX
  5
6FB
  8
0
 62
     2
 10
-1.890505417422264
 20
14.20865606685504
 30
0.0
 70
    32
  0
VERTEX
  5
6FC
  8
0
 62
     2
 10
-1.8930054174222639
 20
14.20945606685504
 30
0.0
 70
    32
  0
VERTEX
  5
6FD
  8
0
 62
     2
 10
-1.895515417422263
 20
14.21025606685504
 30
0.0
 70
    32
  0
VERTEX
  5
6FE
  8
0
 62
     2
 10
-1.898045417422263
 20
14.21095606685504
 30
0.0
 70
    32
  0
VERTEX
  5
6FF
  8
0
 62
     2
 10
-1.9005854174222661
 20
14.21155606685504
 30
0.0
 70
    32
  0
VERTEX
  5
700
  8
0
 62
     2
 10
-1.903145417422264
 20
14.212056066855039
 30
0.0
 70
    32
  0
VERTEX
  5
701
  8
0
 62
     2
 10
-1.9057054174222641
 20
14.21255606685504
 30
0.0
 70
    32
  0
VERTEX
  5
702
  8
0
 62
     2
 10
-1.9082854174222641
 20
14.212956066855041
 30
0.0
 70
    32
  0
VERTEX
  5
703
  8
0
 62
     2
 10
-1.910865417422263
 20
14.21325606685504
 30
0.0
 70
    32
  0
VERTEX
  5
704
  8
0
 62
     2
 10
-1.913455417422264
 20
14.213556066855039
 30
0.0
 70
    32
  0
VERTEX
  5
705
  8
0
 62
     2
 10
-1.9160454174222661
 20
14.213656066855039
 30
0.0
 70
    32
  0
VERTEX
  5
706
  8
0
 62
     2
 10
-1.918645417422266
 20
14.21385606685504
 30
0.0
 70
    32
  0
VERTEX
  5
707
  8
0
 62
     2
 10
-1.921245417422264
 20
14.21385606685504
 30
0.0
 70
    32
  0
VERTEX
  5
708
  8
0
 62
     2
 10
-1.923835417422266
 20
14.21385606685504
 30
0.0
 70
    32
  0
VERTEX
  5
709
  8
0
 62
     2
 10
-1.9264354174222671
 20
14.213656066855039
 30
0.0
 70
    32
  0
VERTEX
  5
70A
  8
0
 62
     2
 10
-1.9290254174222641
 20
14.213556066855039
 30
0.0
 70
    32
  0
VERTEX
  5
70B
  8
0
 62
     2
 10
-1.9316154174222631
 20
14.21325606685504
 30
0.0
 70
    32
  0
VERTEX
  5
70C
  8
0
 62
     2
 10
-1.934205417422266
 20
14.212956066855041
 30
0.0
 70
    32
  0
VERTEX
  5
70D
  8
0
 62
     2
 10
-1.936775417422264
 20
14.21255606685504
 30
0.0
 70
    32
  0
VERTEX
  5
70E
  8
0
 62
     2
 10
-1.939345417422264
 20
14.212056066855039
 30
0.0
 70
    32
  0
VERTEX
  5
70F
  8
0
 62
     2
 10
-1.941895417422266
 20
14.21155606685504
 30
0.0
 70
    32
  0
VERTEX
  5
710
  8
0
 62
     2
 10
-1.944435417422264
 20
14.21095606685504
 30
0.0
 70
    32
  0
VERTEX
  5
711
  8
0
 62
     2
 10
-1.9469654174222639
 20
14.21025606685504
 30
0.0
 70
    32
  0
VERTEX
  5
712
  8
0
 62
     2
 10
-1.949475417422263
 20
14.20945606685504
 30
0.0
 70
    32
  0
VERTEX
  5
713
  8
0
 62
     2
 10
-1.9519754174222641
 20
14.20865606685504
 30
0.0
 70
    32
  0
VERTEX
  5
714
  8
0
 62
     2
 10
-1.954445417422263
 20
14.20775606685504
 30
0.0
 70
    32
  0
VERTEX
  5
715
  8
0
 62
     2
 10
-1.956905417422264
 20
14.206756066855039
 30
0.0
 70
    32
  0
VERTEX
  5
716
  8
0
 62
     2
 10
-1.959345417422264
 20
14.20575606685504
 30
0.0
 70
    32
  0
VERTEX
  5
717
  8
0
 62
     2
 10
-1.961755417422264
 20
14.204656066855041
 30
0.0
 70
    32
  0
VERTEX
  5
718
  8
0
 62
     2
 10
-1.964145417422263
 20
14.20345606685504
 30
0.0
 70
    32
  0
VERTEX
  5
719
  8
0
 62
     2
 10
-1.966505417422264
 20
14.202256066855041
 30
0.0
 70
    32
  0
VERTEX
  5
71A
  8
0
 62
     2
 10
-1.968835417422264
 20
14.20095606685504
 30
0.0
 70
    32
  0
VERTEX
  5
71B
  8
0
 62
     2
 10
-1.971145417422264
 20
14.19955606685504
 30
0.0
 70
    32
  0
VERTEX
  5
71C
  8
0
 62
     2
 10
-1.9734254174222641
 20
14.19815606685504
 30
0.0
 70
    32
  0
VERTEX
  5
71D
  8
0
 62
     2
 10
-1.9756654174222641
 20
14.19665606685504
 30
0.0
 70
    32
  0
VERTEX
  5
71E
  8
0
 62
     2
 10
-1.977875417422263
 20
14.19515606685504
 30
0.0
 70
    32
  0
VERTEX
  5
71F
  8
0
 62
     2
 10
-1.980055417422264
 20
14.19345606685504
 30
0.0
 70
    32
  0
VERTEX
  5
720
  8
0
 62
     2
 10
-1.982195417422264
 20
14.19185606685504
 30
0.0
 70
    32
  0
VERTEX
  5
721
  8
0
 62
     2
 10
-1.9843054174222641
 20
14.190056066855041
 30
0.0
 70
    32
  0
VERTEX
  5
722
  8
0
 62
     2
 10
-1.9863754174222641
 20
14.18825606685504
 30
0.0
 70
    32
  0
VERTEX
  5
723
  8
0
 62
     2
 10
-1.9884054174222641
 20
14.18645606685504
 30
0.0
 70
    32
  0
VERTEX
  5
724
  8
0
 62
     2
 10
-1.990395417422266
 20
14.184556066855039
 30
0.0
 70
    32
  0
VERTEX
  5
725
  8
0
 62
     2
 10
-1.9923354174222641
 20
14.182556066855041
 30
0.0
 70
    32
  0
VERTEX
  5
726
  8
0
 62
     2
 10
-1.994245417422263
 20
14.18055606685504
 30
0.0
 70
    32
  0
VERTEX
  5
727
  8
0
 62
     2
 10
-1.9961054174222641
 20
14.178456066855039
 30
0.0
 70
    32
  0
VERTEX
  5
728
  8
0
 62
     2
 10
-1.997915417422264
 20
14.176356066855041
 30
0.0
 70
    32
  0
VERTEX
  5
729
  8
0
 62
     2
 10
-1.999685417422266
 20
14.174156066855041
 30
0.0
 70
    32
  0
VERTEX
  5
72A
  8
0
 62
     2
 10
-2.001405417422264
 20
14.17195606685504
 30
0.0
 70
    32
  0
VERTEX
  5
72B
  8
0
 62
     2
 10
-2.003075417422262
 20
14.16965606685504
 30
0.0
 70
    32
  0
VERTEX
  5
72C
  8
0
 62
     2
 10
-2.004705417422266
 20
14.16735606685504
 30
0.0
 70
    32
  0
VERTEX
  5
72D
  8
0
 62
     2
 10
-2.006275417422267
 20
14.16505606685504
 30
0.0
 70
    32
  0
VERTEX
  5
72E
  8
0
 62
     2
 10
-2.0077954174222641
 20
14.162656066855041
 30
0.0
 70
    32
  0
VERTEX
  5
72F
  8
0
 62
     2
 10
-2.0092654174222631
 20
14.160156066855039
 30
0.0
 70
    32
  0
VERTEX
  5
730
  8
0
 62
     2
 10
-2.010685417422267
 20
14.15765606685504
 30
0.0
 70
    32
  0
VERTEX
  5
731
  8
0
 62
     2
 10
-2.0120454174222671
 20
14.15515606685504
 30
0.0
 70
    32
  0
VERTEX
  5
732
  8
0
 62
     2
 10
-2.0133554174222641
 20
14.152656066855039
 30
0.0
 70
    32
  0
VERTEX
  5
733
  8
0
 62
     2
 10
-2.0146054174222661
 20
14.15005606685504
 30
0.0
 70
    32
  0
VERTEX
  5
734
  8
0
 62
     2
 10
-2.0158054174222642
 20
14.147356066855041
 30
0.0
 70
    32
  0
VERTEX
  5
735
  8
0
 62
     2
 10
-2.0169454174222641
 20
14.14475606685504
 30
0.0
 70
    32
  0
VERTEX
  5
736
  8
0
 62
     2
 10
-2.018025417422264
 20
14.142056066855041
 30
0.0
 70
    32
  0
VERTEX
  5
737
  8
0
 62
     2
 10
-2.0190454174222641
 20
14.13925606685504
 30
0.0
 70
    32
  0
VERTEX
  5
738
  8
0
 62
     2
 10
-2.0200154174222642
 20
14.136556066855039
 30
0.0
 70
    32
  0
VERTEX
  5
739
  8
0
 62
     2
 10
-2.0209154174222661
 20
14.133756066855041
 30
0.0
 70
    32
  0
VERTEX
  5
73A
  8
0
 62
     2
 10
-2.021765417422265
 20
14.13095606685504
 30
0.0
 70
    32
  0
VERTEX
  5
73B
  8
0
 62
     2
 10
-2.022545417422263
 20
14.128156066855039
 30
0.0
 70
    32
  0
VERTEX
  5
73C
  8
0
 62
     2
 10
-2.023275417422262
 20
14.125256066855041
 30
0.0
 70
    32
  0
VERTEX
  5
73D
  8
0
 62
     2
 10
-2.0239354174222641
 20
14.12245606685504
 30
0.0
 70
    32
  0
VERTEX
  5
73E
  8
0
 62
     2
 10
-2.0245354174222641
 20
14.11955606685504
 30
0.0
 70
    32
  0
VERTEX
  5
73F
  8
0
 62
     2
 10
-2.025075417422264
 20
14.11665606685504
 30
0.0
 70
    32
  0
VERTEX
  5
740
  8
0
 62
     2
 10
-2.025545417422264
 20
14.113756066855039
 30
0.0
 70
    32
  0
VERTEX
  5
741
  8
0
 62
     2
 10
-2.0259654174222641
 20
14.110856066855041
 30
0.0
 70
    32
  0
VERTEX
  5
742
  8
0
 62
     2
 10
-2.0263154174222642
 20
14.107856066855041
 30
0.0
 70
    32
  0
VERTEX
  5
743
  8
0
 62
     2
 10
-2.026595417422266
 20
14.10495606685504
 30
0.0
 70
    32
  0
VERTEX
  5
744
  8
0
 62
     2
 10
-2.0268254174222671
 20
14.10195606685504
 30
0.0
 70
    32
  0
VERTEX
  5
745
  8
0
 62
     2
 10
-2.0269854174222641
 20
14.09905606685504
 30
0.0
 70
    32
  0
VERTEX
  5
746
  8
0
 62
     2
 10
-2.027075417422262
 20
14.09605606685504
 30
0.0
 70
    32
  0
VERTEX
  5
747
  8
0
 62
     2
 10
-2.0271054174222671
 20
14.09305606685504
 30
0.0
 70
    32
  0
SEQEND
  5
748
  8
0
 62
     2
  0
LINE
  5
4B7
  8
DISPLAY
 62
     2
 10
-2.027108213774051
 20
14.09308682910339
 30
0.0
 11
-2.027108213774051
 21
14.05180005437593
 31
0.0
  0
LINE
  5
4B8
  8
DISPLAY
 62
     2
 10
-2.027108213774051
 20
14.457993534167329
 30
0.0
 11
-2.027108213774051
 21
14.499280308894789
 31
0.0
  0
LINE
  5
4B9
  8
DISPLAY
 62
     4
 10
-1.6036404358360401
 20
15.961854745708839
 30
0.0
 11
-1.6036404358360401
 21
14.499280308894781
 31
0.0
  0
POLYLINE
  5
4BA
  8
0
 62
     2
 66
     1
 10
0.0
 20
0.0
 30
0.0
 70
     8
  0
VERTEX
  5
749
  8
0
 62
     2
 10
-1.6036454174222641
 20
14.45795606685504
 30
0.0
 70
    32
  0
VERTEX
  5
74A
  8
0
 62
     2
 10
-1.603675417422264
 20
14.45505606685504
 30
0.0
 70
    32
  0
VERTEX
  5
74B
  8
0
 62
     2
 10
-1.603765417422264
 20
14.45205606685504
 30
0.0
 70
    32
  0
VERTEX
  5
74C
  8
0
 62
     2
 10
-1.603925417422263
 20
14.449156066855039
 30
0.0
 70
    32
  0
VERTEX
  5
74D
  8
0
 62
     2
 10
-1.604145417422264
 20
14.446156066855041
 30
0.0
 70
    32
  0
VERTEX
  5
74E
  8
0
 62
     2
 10
-1.604435417422263
 20
14.44325606685504
 30
0.0
 70
    32
  0
VERTEX
  5
74F
  8
0
 62
     2
 10
-1.6047854174222671
 20
14.44025606685504
 30
0.0
 70
    32
  0
VERTEX
  5
750
  8
0
 62
     2
 10
-1.605195417422264
 20
14.43735606685504
 30
0.0
 70
    32
  0
VERTEX
  5
751
  8
0
 62
     2
 10
-1.6056754174222641
 20
14.43445606685504
 30
0.0
 70
    32
  0
VERTEX
  5
752
  8
0
 62
     2
 10
-1.606215417422264
 20
14.431556066855039
 30
0.0
 70
    32
  0
VERTEX
  5
753
  8
0
 62
     2
 10
-1.606815417422264
 20
14.428656066855041
 30
0.0
 70
    32
  0
VERTEX
  5
754
  8
0
 62
     2
 10
-1.6074754174222641
 20
14.42575606685504
 30
0.0
 70
    32
  0
VERTEX
  5
755
  8
0
 62
     2
 10
-1.608195417422263
 20
14.42295606685504
 30
0.0
 70
    32
  0
VERTEX
  5
756
  8
0
 62
     2
 10
-1.6089854174222671
 20
14.420156066855039
 30
0.0
 70
    32
  0
VERTEX
  5
757
  8
0
 62
     2
 10
-1.609825417422263
 20
14.41735606685504
 30
0.0
 70
    32
  0
VERTEX
  5
758
  8
0
 62
     2
 10
-1.610735417422263
 20
14.41455606685504
 30
0.0
 70
    32
  0
VERTEX
  5
759
  8
0
 62
     2
 10
-1.611695417422264
 20
14.411756066855039
 30
0.0
 70
    32
  0
VERTEX
  5
75A
  8
0
 62
     2
 10
-1.6127254174222641
 20
14.40905606685504
 30
0.0
 70
    32
  0
VERTEX
  5
75B
  8
0
 62
     2
 10
-1.613805417422264
 20
14.406356066855039
 30
0.0
 70
    32
  0
VERTEX
  5
75C
  8
0
 62
     2
 10
-1.6149454174222651
 20
14.40365606685504
 30
0.0
 70
    32
  0
VERTEX
  5
75D
  8
0
 62
     2
 10
-1.616145417422266
 20
14.401056066855039
 30
0.0
 70
    32
  0
VERTEX
  5
75E
  8
0
 62
     2
 10
-1.617395417422264
 20
14.39845606685504
 30
0.0
 70
    32
  0
VERTEX
  5
75F
  8
0
 62
     2
 10
-1.618705417422263
 20
14.395956066855041
 30
0.0
 70
    32
  0
VERTEX
  5
760
  8
0
 62
     2
 10
-1.6200654174222651
 20
14.39335606685504
 30
0.0
 70
    32
  0
VERTEX
  5
761
  8
0
 62
     2
 10
-1.621485417422263
 20
14.39085606685504
 30
0.0
 70
    32
  0
VERTEX
  5
762
  8
0
 62
     2
 10
-1.622955417422264
 20
14.38845606685504
 30
0.0
 70
    32
  0
VERTEX
  5
763
  8
0
 62
     2
 10
-1.6244754174222651
 20
14.386056066855041
 30
0.0
 70
    32
  0
VERTEX
  5
764
  8
0
 62
     2
 10
-1.626045417422266
 20
14.383656066855041
 30
0.0
 70
    32
  0
VERTEX
  5
765
  8
0
 62
     2
 10
-1.6276754174222641
 20
14.381356066855041
 30
0.0
 70
    32
  0
VERTEX
  5
766
  8
0
 62
     2
 10
-1.629345417422263
 20
14.379156066855041
 30
0.0
 70
    32
  0
VERTEX
  5
767
  8
0
 62
     2
 10
-1.6310654174222661
 20
14.376856066855041
 30
0.0
 70
    32
  0
VERTEX
  5
768
  8
0
 62
     2
 10
-1.632835417422263
 20
14.37475606685504
 30
0.0
 70
    32
  0
VERTEX
  5
769
  8
0
 62
     2
 10
-1.634645417422264
 20
14.37255606685504
 30
0.0
 70
    32
  0
VERTEX
  5
76A
  8
0
 62
     2
 10
-1.6365054174222671
 20
14.370556066855039
 30
0.0
 70
    32
  0
VERTEX
  5
76B
  8
0
 62
     2
 10
-1.638415417422264
 20
14.36855606685504
 30
0.0
 70
    32
  0
VERTEX
  5
76C
  8
0
 62
     2
 10
-1.6403554174222661
 20
14.36655606685504
 30
0.0
 70
    32
  0
VERTEX
  5
76D
  8
0
 62
     2
 10
-1.642345417422264
 20
14.364656066855041
 30
0.0
 70
    32
  0
VERTEX
  5
76E
  8
0
 62
     2
 10
-1.644375417422264
 20
14.36275606685504
 30
0.0
 70
    32
  0
VERTEX
  5
76F
  8
0
 62
     2
 10
-1.646445417422264
 20
14.36095606685504
 30
0.0
 70
    32
  0
VERTEX
  5
770
  8
0
 62
     2
 10
-1.648545417422266
 20
14.359256066855041
 30
0.0
 70
    32
  0
VERTEX
  5
771
  8
0
 62
     2
 10
-1.6506954174222641
 20
14.357556066855039
 30
0.0
 70
    32
  0
VERTEX
  5
772
  8
0
 62
     2
 10
-1.652865417422263
 20
14.35595606685504
 30
0.0
 70
    32
  0
VERTEX
  5
773
  8
0
 62
     2
 10
-1.655085417422266
 20
14.35445606685504
 30
0.0
 70
    32
  0
VERTEX
  5
774
  8
0
 62
     2
 10
-1.657325417422264
 20
14.35295606685504
 30
0.0
 70
    32
  0
VERTEX
  5
775
  8
0
 62
     2
 10
-1.6596054174222641
 20
14.351456066855039
 30
0.0
 70
    32
  0
VERTEX
  5
776
  8
0
 62
     2
 10
-1.6619054174222641
 20
14.350156066855041
 30
0.0
 70
    32
  0
VERTEX
  5
777
  8
0
 62
     2
 10
-1.6642454174222641
 20
14.34885606685504
 30
0.0
 70
    32
  0
VERTEX
  5
778
  8
0
 62
     2
 10
-1.6666054174222671
 20
14.34755606685504
 30
0.0
 70
    32
  0
VERTEX
  5
779
  8
0
 62
     2
 10
-1.6689954174222641
 20
14.34645606685504
 30
0.0
 70
    32
  0
VERTEX
  5
77A
  8
0
 62
     2
 10
-1.671405417422263
 20
14.34535606685504
 30
0.0
 70
    32
  0
VERTEX
  5
77B
  8
0
 62
     2
 10
-1.673845417422263
 20
14.34425606685504
 30
0.0
 70
    32
  0
VERTEX
  5
77C
  8
0
 62
     2
 10
-1.6762954174222671
 20
14.343356066855041
 30
0.0
 70
    32
  0
VERTEX
  5
77D
  8
0
 62
     2
 10
-1.6787754174222651
 20
14.342456066855039
 30
0.0
 70
    32
  0
VERTEX
  5
77E
  8
0
 62
     2
 10
-1.6812754174222651
 20
14.341556066855039
 30
0.0
 70
    32
  0
VERTEX
  5
77F
  8
0
 62
     2
 10
-1.6837854174222651
 20
14.340856066855039
 30
0.0
 70
    32
  0
VERTEX
  5
780
  8
0
 62
     2
 10
-1.6863154174222661
 20
14.340156066855039
 30
0.0
 70
    32
  0
VERTEX
  5
781
  8
0
 62
     2
 10
-1.6888554174222641
 20
14.339556066855041
 30
0.0
 70
    32
  0
VERTEX
  5
782
  8
0
 62
     2
 10
-1.691405417422263
 20
14.33905606685504
 30
0.0
 70
    32
  0
VERTEX
  5
783
  8
0
 62
     2
 10
-1.6939754174222641
 20
14.338556066855039
 30
0.0
 70
    32
  0
VERTEX
  5
784
  8
0
 62
     2
 10
-1.6965454174222661
 20
14.33815606685504
 30
0.0
 70
    32
  0
VERTEX
  5
785
  8
0
 62
     2
 10
-1.699135417422263
 20
14.337856066855039
 30
0.0
 70
    32
  0
VERTEX
  5
786
  8
0
 62
     2
 10
-1.7017154174222651
 20
14.33755606685504
 30
0.0
 70
    32
  0
VERTEX
  5
787
  8
0
 62
     2
 10
-1.704315417422263
 20
14.33735606685504
 30
0.0
 70
    32
  0
VERTEX
  5
788
  8
0
 62
     2
 10
-1.706905417422264
 20
14.337256066855041
 30
0.0
 70
    32
  0
VERTEX
  5
789
  8
0
 62
     2
 10
-1.709505417422263
 20
14.337256066855041
 30
0.0
 70
    32
  0
VERTEX
  5
78A
  8
0
 62
     2
 10
-1.7121054174222641
 20
14.337256066855041
 30
0.0
 70
    32
  0
VERTEX
  5
78B
  8
0
 62
     2
 10
-1.714705417422266
 20
14.33735606685504
 30
0.0
 70
    32
  0
VERTEX
  5
78C
  8
0
 62
     2
 10
-1.7172954174222641
 20
14.33755606685504
 30
0.0
 70
    32
  0
VERTEX
  5
78D
  8
0
 62
     2
 10
-1.7198854174222671
 20
14.337856066855039
 30
0.0
 70
    32
  0
VERTEX
  5
78E
  8
0
 62
     2
 10
-1.7224654174222671
 20
14.33815606685504
 30
0.0
 70
    32
  0
VERTEX
  5
78F
  8
0
 62
     2
 10
-1.725045417422264
 20
14.338556066855039
 30
0.0
 70
    32
  0
VERTEX
  5
790
  8
0
 62
     2
 10
-1.727605417422263
 20
14.33905606685504
 30
0.0
 70
    32
  0
VERTEX
  5
791
  8
0
 62
     2
 10
-1.730165417422266
 20
14.339556066855041
 30
0.0
 70
    32
  0
VERTEX
  5
792
  8
0
 62
     2
 10
-1.732705417422264
 20
14.340156066855039
 30
0.0
 70
    32
  0
VERTEX
  5
793
  8
0
 62
     2
 10
-1.7352354174222651
 20
14.340856066855039
 30
0.0
 70
    32
  0
VERTEX
  5
794
  8
0
 62
     2
 10
-1.7377454174222651
 20
14.341556066855039
 30
0.0
 70
    32
  0
VERTEX
  5
795
  8
0
 62
     2
 10
-1.7402354174222641
 20
14.342456066855039
 30
0.0
 70
    32
  0
VERTEX
  5
796
  8
0
 62
     2
 10
-1.7427154174222661
 20
14.343356066855041
 30
0.0
 70
    32
  0
VERTEX
  5
797
  8
0
 62
     2
 10
-1.745175417422266
 20
14.34425606685504
 30
0.0
 70
    32
  0
VERTEX
  5
798
  8
0
 62
     2
 10
-1.7476054174222631
 20
14.34535606685504
 30
0.0
 70
    32
  0
VERTEX
  5
799
  8
0
 62
     2
 10
-1.750025417422264
 20
14.34645606685504
 30
0.0
 70
    32
  0
VERTEX
  5
79A
  8
0
 62
     2
 10
-1.7524054174222661
 20
14.34755606685504
 30
0.0
 70
    32
  0
VERTEX
  5
79B
  8
0
 62
     2
 10
-1.7547754174222661
 20
14.34885606685504
 30
0.0
 70
    32
  0
VERTEX
  5
79C
  8
0
 62
     2
 10
-1.757105417422264
 20
14.350156066855041
 30
0.0
 70
    32
  0
VERTEX
  5
79D
  8
0
 62
     2
 10
-1.759415417422264
 20
14.351456066855039
 30
0.0
 70
    32
  0
VERTEX
  5
79E
  8
0
 62
     2
 10
-1.761685417422264
 20
14.35295606685504
 30
0.0
 70
    32
  0
VERTEX
  5
79F
  8
0
 62
     2
 10
-1.763935417422263
 20
14.35445606685504
 30
0.0
 70
    32
  0
VERTEX
  5
7A0
  8
0
 62
     2
 10
-1.7661454174222631
 20
14.35595606685504
 30
0.0
 70
    32
  0
VERTEX
  5
7A1
  8
0
 62
     2
 10
-1.768325417422264
 20
14.357556066855039
 30
0.0
 70
    32
  0
VERTEX
  5
7A2
  8
0
 62
     2
 10
-1.770465417422264
 20
14.359256066855041
 30
0.0
 70
    32
  0
VERTEX
  5
7A3
  8
0
 62
     2
 10
-1.7725754174222641
 20
14.36095606685504
 30
0.0
 70
    32
  0
VERTEX
  5
7A4
  8
0
 62
     2
 10
-1.774635417422264
 20
14.36275606685504
 30
0.0
 70
    32
  0
VERTEX
  5
7A5
  8
0
 62
     2
 10
-1.776665417422266
 20
14.364656066855041
 30
0.0
 70
    32
  0
VERTEX
  5
7A6
  8
0
 62
     2
 10
-1.7786554174222671
 20
14.36655606685504
 30
0.0
 70
    32
  0
VERTEX
  5
7A7
  8
0
 62
     2
 10
-1.7806054174222661
 20
14.36855606685504
 30
0.0
 70
    32
  0
VERTEX
  5
7A8
  8
0
 62
     2
 10
-1.7825054174222661
 20
14.370556066855039
 30
0.0
 70
    32
  0
VERTEX
  5
7A9
  8
0
 62
     2
 10
-1.7843654174222641
 20
14.37255606685504
 30
0.0
 70
    32
  0
VERTEX
  5
7AA
  8
0
 62
     2
 10
-1.7861854174222671
 20
14.37475606685504
 30
0.0
 70
    32
  0
VERTEX
  5
7AB
  8
0
 62
     2
 10
-1.7879454174222671
 20
14.376856066855041
 30
0.0
 70
    32
  0
VERTEX
  5
7AC
  8
0
 62
     2
 10
-1.7896754174222651
 20
14.379156066855041
 30
0.0
 70
    32
  0
VERTEX
  5
7AD
  8
0
 62
     2
 10
-1.7913454174222641
 20
14.381356066855041
 30
0.0
 70
    32
  0
VERTEX
  5
7AE
  8
0
 62
     2
 10
-1.792965417422266
 20
14.383656066855041
 30
0.0
 70
    32
  0
VERTEX
  5
7AF
  8
0
 62
     2
 10
-1.794545417422263
 20
14.386056066855041
 30
0.0
 70
    32
  0
VERTEX
  5
7B0
  8
0
 62
     2
 10
-1.7960654174222661
 20
14.38845606685504
 30
0.0
 70
    32
  0
VERTEX
  5
7B1
  8
0
 62
     2
 10
-1.797535417422264
 20
14.39085606685504
 30
0.0
 70
    32
  0
VERTEX
  5
7B2
  8
0
 62
     2
 10
-1.7989454174222641
 20
14.39335606685504
 30
0.0
 70
    32
  0
VERTEX
  5
7B3
  8
0
 62
     2
 10
-1.8003154174222651
 20
14.395956066855041
 30
0.0
 70
    32
  0
VERTEX
  5
7B4
  8
0
 62
     2
 10
-1.801625417422267
 20
14.39845606685504
 30
0.0
 70
    32
  0
VERTEX
  5
7B5
  8
0
 62
     2
 10
-1.8028754174222641
 20
14.401056066855039
 30
0.0
 70
    32
  0
VERTEX
  5
7B6
  8
0
 62
     2
 10
-1.804065417422267
 20
14.40365606685504
 30
0.0
 70
    32
  0
VERTEX
  5
7B7
  8
0
 62
     2
 10
-1.805205417422264
 20
14.406356066855039
 30
0.0
 70
    32
  0
VERTEX
  5
7B8
  8
0
 62
     2
 10
-1.8062954174222661
 20
14.40905606685504
 30
0.0
 70
    32
  0
VERTEX
  5
7B9
  8
0
 62
     2
 10
-1.8073154174222641
 20
14.411756066855039
 30
0.0
 70
    32
  0
VERTEX
  5
7BA
  8
0
 62
     2
 10
-1.808285417422266
 20
14.41455606685504
 30
0.0
 70
    32
  0
VERTEX
  5
7BB
  8
0
 62
     2
 10
-1.809185417422263
 20
14.41735606685504
 30
0.0
 70
    32
  0
VERTEX
  5
7BC
  8
0
 62
     2
 10
-1.810035417422263
 20
14.420156066855039
 30
0.0
 70
    32
  0
VERTEX
  5
7BD
  8
0
 62
     2
 10
-1.810815417422263
 20
14.42295606685504
 30
0.0
 70
    32
  0
VERTEX
  5
7BE
  8
0
 62
     2
 10
-1.811535417422264
 20
14.42575606685504
 30
0.0
 70
    32
  0
VERTEX
  5
7BF
  8
0
 62
     2
 10
-1.8122054174222639
 20
14.428656066855041
 30
0.0
 70
    32
  0
VERTEX
  5
7C0
  8
0
 62
     2
 10
-1.8128054174222641
 20
14.431556066855039
 30
0.0
 70
    32
  0
VERTEX
  5
7C1
  8
0
 62
     2
 10
-1.813335417422266
 20
14.43445606685504
 30
0.0
 70
    32
  0
VERTEX
  5
7C2
  8
0
 62
     2
 10
-1.813815417422264
 20
14.43735606685504
 30
0.0
 70
    32
  0
VERTEX
  5
7C3
  8
0
 62
     2
 10
-1.8142254174222661
 20
14.44025606685504
 30
0.0
 70
    32
  0
VERTEX
  5
7C4
  8
0
 62
     2
 10
-1.814575417422263
 20
14.44325606685504
 30
0.0
 70
    32
  0
VERTEX
  5
7C5
  8
0
 62
     2
 10
-1.814865417422264
 20
14.446156066855041
 30
0.0
 70
    32
  0
VERTEX
  5
7C6
  8
0
 62
     2
 10
-1.815085417422263
 20
14.449156066855039
 30
0.0
 70
    32
  0
VERTEX
  5
7C7
  8
0
 62
     2
 10
-1.8152454174222641
 20
14.45205606685504
 30
0.0
 70
    32
  0
VERTEX
  5
7C8
  8
0
 62
     2
 10
-1.8153454174222641
 20
14.45505606685504
 30
0.0
 70
    32
  0
VERTEX
  5
7C9
  8
0
 62
     2
 10
-1.815375417422266
 20
14.45795606685504
 30
0.0
 70
    32
  0
SEQEND
  5
7CA
  8
0
 62
     2
  0
POLYLINE
  5
4BB
  8
0
 62
     2
 66
     1
 10
0.0
 20
0.0
 30
0.0
 70
     8
  0
VERTEX
  5
7CB
  8
0
 62
     2
 10
-1.6036454174222641
 20
14.09305606685504
 30
0.0
 70
    32
  0
VERTEX
  5
7CC
  8
0
 62
     2
 10
-1.603675417422264
 20
14.09605606685504
 30
0.0
 70
    32
  0
VERTEX
  5
7CD
  8
0
 62
     2
 10
-1.603765417422264
 20
14.09905606685504
 30
0.0
 70
    32
  0
VERTEX
  5
7CE
  8
0
 62
     2
 10
-1.603925417422263
 20
14.10195606685504
 30
0.0
 70
    32
  0
VERTEX
  5
7CF
  8
0
 62
     2
 10
-1.604145417422264
 20
14.10495606685504
 30
0.0
 70
    32
  0
VERTEX
  5
7D0
  8
0
 62
     2
 10
-1.604435417422263
 20
14.107856066855041
 30
0.0
 70
    32
  0
VERTEX
  5
7D1
  8
0
 62
     2
 10
-1.6047854174222671
 20
14.110856066855041
 30
0.0
 70
    32
  0
VERTEX
  5
7D2
  8
0
 62
     2
 10
-1.605195417422264
 20
14.113756066855039
 30
0.0
 70
    32
  0
VERTEX
  5
7D3
  8
0
 62
     2
 10
-1.6056754174222641
 20
14.11665606685504
 30
0.0
 70
    32
  0
VERTEX
  5
7D4
  8
0
 62
     2
 10
-1.606215417422264
 20
14.11955606685504
 30
0.0
 70
    32
  0
VERTEX
  5
7D5
  8
0
 62
     2
 10
-1.606815417422264
 20
14.12245606685504
 30
0.0
 70
    32
  0
VERTEX
  5
7D6
  8
0
 62
     2
 10
-1.6074754174222641
 20
14.125256066855041
 30
0.0
 70
    32
  0
VERTEX
  5
7D7
  8
0
 62
     2
 10
-1.608195417422263
 20
14.128156066855039
 30
0.0
 70
    32
  0
VERTEX
  5
7D8
  8
0
 62
     2
 10
-1.6089854174222671
 20
14.13095606685504
 30
0.0
 70
    32
  0
VERTEX
  5
7D9
  8
0
 62
     2
 10
-1.609825417422263
 20
14.133756066855041
 30
0.0
 70
    32
  0
VERTEX
  5
7DA
  8
0
 62
     2
 10
-1.610735417422263
 20
14.136556066855039
 30
0.0
 70
    32
  0
VERTEX
  5
7DB
  8
0
 62
     2
 10
-1.611695417422264
 20
14.13925606685504
 30
0.0
 70
    32
  0
VERTEX
  5
7DC
  8
0
 62
     2
 10
-1.6127254174222641
 20
14.142056066855041
 30
0.0
 70
    32
  0
VERTEX
  5
7DD
  8
0
 62
     2
 10
-1.613805417422264
 20
14.14475606685504
 30
0.0
 70
    32
  0
VERTEX
  5
7DE
  8
0
 62
     2
 10
-1.6149454174222651
 20
14.147356066855041
 30
0.0
 70
    32
  0
VERTEX
  5
7DF
  8
0
 62
     2
 10
-1.616145417422266
 20
14.15005606685504
 30
0.0
 70
    32
  0
VERTEX
  5
7E0
  8
0
 62
     2
 10
-1.617395417422264
 20
14.152656066855039
 30
0.0
 70
    32
  0
VERTEX
  5
7E1
  8
0
 62
     2
 10
-1.618705417422263
 20
14.15515606685504
 30
0.0
 70
    32
  0
VERTEX
  5
7E2
  8
0
 62
     2
 10
-1.6200654174222651
 20
14.15765606685504
 30
0.0
 70
    32
  0
VERTEX
  5
7E3
  8
0
 62
     2
 10
-1.621485417422263
 20
14.160156066855039
 30
0.0
 70
    32
  0
VERTEX
  5
7E4
  8
0
 62
     2
 10
-1.622955417422264
 20
14.162656066855041
 30
0.0
 70
    32
  0
VERTEX
  5
7E5
  8
0
 62
     2
 10
-1.6244754174222651
 20
14.16505606685504
 30
0.0
 70
    32
  0
VERTEX
  5
7E6
  8
0
 62
     2
 10
-1.626045417422266
 20
14.16735606685504
 30
0.0
 70
    32
  0
VERTEX
  5
7E7
  8
0
 62
     2
 10
-1.6276754174222641
 20
14.16965606685504
 30
0.0
 70
    32
  0
VERTEX
  5
7E8
  8
0
 62
     2
 10
-1.629345417422263
 20
14.17195606685504
 30
0.0
 70
    32
  0
VERTEX
  5
7E9
  8
0
 62
     2
 10
-1.6310654174222661
 20
14.174156066855041
 30
0.0
 70
    32
  0
VERTEX
  5
7EA
  8
0
 62
     2
 10
-1.632835417422263
 20
14.176356066855041
 30
0.0
 70
    32
  0
VERTEX
  5
7EB
  8
0
 62
     2
 10
-1.634645417422264
 20
14.178456066855039
 30
0.0
 70
    32
  0
VERTEX
  5
7EC
  8
0
 62
     2
 10
-1.6365054174222671
 20
14.18055606685504
 30
0.0
 70
    32
  0
VERTEX
  5
7ED
  8
0
 62
     2
 10
-1.638415417422264
 20
14.182556066855041
 30
0.0
 70
    32
  0
VERTEX
  5
7EE
  8
0
 62
     2
 10
-1.6403554174222661
 20
14.184556066855039
 30
0.0
 70
    32
  0
VERTEX
  5
7EF
  8
0
 62
     2
 10
-1.642345417422264
 20
14.18645606685504
 30
0.0
 70
    32
  0
VERTEX
  5
7F0
  8
0
 62
     2
 10
-1.644375417422264
 20
14.18825606685504
 30
0.0
 70
    32
  0
VERTEX
  5
7F1
  8
0
 62
     2
 10
-1.646445417422264
 20
14.190056066855041
 30
0.0
 70
    32
  0
VERTEX
  5
7F2
  8
0
 62
     2
 10
-1.648545417422266
 20
14.19185606685504
 30
0.0
 70
    32
  0
VERTEX
  5
7F3
  8
0
 62
     2
 10
-1.6506954174222641
 20
14.19345606685504
 30
0.0
 70
    32
  0
VERTEX
  5
7F4
  8
0
 62
     2
 10
-1.652865417422263
 20
14.19515606685504
 30
0.0
 70
    32
  0
VERTEX
  5
7F5
  8
0
 62
     2
 10
-1.655085417422266
 20
14.19665606685504
 30
0.0
 70
    32
  0
VERTEX
  5
7F6
  8
0
 62
     2
 10
-1.657325417422264
 20
14.19815606685504
 30
0.0
 70
    32
  0
VERTEX
  5
7F7
  8
0
 62
     2
 10
-1.6596054174222641
 20
14.19955606685504
 30
0.0
 70
    32
  0
VERTEX
  5
7F8
  8
0
 62
     2
 10
-1.6619054174222641
 20
14.20095606685504
 30
0.0
 70
    32
  0
VERTEX
  5
7F9
  8
0
 62
     2
 10
-1.6642454174222641
 20
14.202256066855041
 30
0.0
 70
    32
  0
VERTEX
  5
7FA
  8
0
 62
     2
 10
-1.6666054174222671
 20
14.20345606685504
 30
0.0
 70
    32
  0
VERTEX
  5
7FB
  8
0
 62
     2
 10
-1.6689954174222641
 20
14.204656066855041
 30
0.0
 70
    32
  0
VERTEX
  5
7FC
  8
0
 62
     2
 10
-1.671405417422263
 20
14.20575606685504
 30
0.0
 70
    32
  0
VERTEX
  5
7FD
  8
0
 62
     2
 10
-1.673845417422263
 20
14.206756066855039
 30
0.0
 70
    32
  0
VERTEX
  5
7FE
  8
0
 62
     2
 10
-1.6762954174222671
 20
14.20775606685504
 30
0.0
 70
    32
  0
VERTEX
  5
7FF
  8
0
 62
     2
 10
-1.6787754174222651
 20
14.20865606685504
 30
0.0
 70
    32
  0
VERTEX
  5
800
  8
0
 62
     2
 10
-1.6812754174222651
 20
14.20945606685504
 30
0.0
 70
    32
  0
VERTEX
  5
801
  8
0
 62
     2
 10
-1.6837854174222651
 20
14.21025606685504
 30
0.0
 70
    32
  0
VERTEX
  5
802
  8
0
 62
     2
 10
-1.6863154174222661
 20
14.21095606685504
 30
0.0
 70
    32
  0
VERTEX
  5
803
  8
0
 62
     2
 10
-1.6888554174222641
 20
14.21155606685504
 30
0.0
 70
    32
  0
VERTEX
  5
804
  8
0
 62
     2
 10
-1.691405417422263
 20
14.212056066855039
 30
0.0
 70
    32
  0
VERTEX
  5
805
  8
0
 62
     2
 10
-1.6939754174222641
 20
14.21255606685504
 30
0.0
 70
    32
  0
VERTEX
  5
806
  8
0
 62
     2
 10
-1.6965454174222661
 20
14.212956066855041
 30
0.0
 70
    32
  0
VERTEX
  5
807
  8
0
 62
     2
 10
-1.699135417422263
 20
14.21325606685504
 30
0.0
 70
    32
  0
VERTEX
  5
808
  8
0
 62
     2
 10
-1.7017154174222651
 20
14.213556066855039
 30
0.0
 70
    32
  0
VERTEX
  5
809
  8
0
 62
     2
 10
-1.704315417422263
 20
14.213656066855039
 30
0.0
 70
    32
  0
VERTEX
  5
80A
  8
0
 62
     2
 10
-1.706905417422264
 20
14.21385606685504
 30
0.0
 70
    32
  0
VERTEX
  5
80B
  8
0
 62
     2
 10
-1.709505417422263
 20
14.21385606685504
 30
0.0
 70
    32
  0
VERTEX
  5
80C
  8
0
 62
     2
 10
-1.7121054174222641
 20
14.21385606685504
 30
0.0
 70
    32
  0
VERTEX
  5
80D
  8
0
 62
     2
 10
-1.714705417422266
 20
14.213656066855039
 30
0.0
 70
    32
  0
VERTEX
  5
80E
  8
0
 62
     2
 10
-1.7172954174222641
 20
14.213556066855039
 30
0.0
 70
    32
  0
VERTEX
  5
80F
  8
0
 62
     2
 10
-1.7198854174222671
 20
14.21325606685504
 30
0.0
 70
    32
  0
VERTEX
  5
810
  8
0
 62
     2
 10
-1.7224654174222671
 20
14.212956066855041
 30
0.0
 70
    32
  0
VERTEX
  5
811
  8
0
 62
     2
 10
-1.725045417422264
 20
14.21255606685504
 30
0.0
 70
    32
  0
VERTEX
  5
812
  8
0
 62
     2
 10
-1.727605417422263
 20
14.212056066855039
 30
0.0
 70
    32
  0
VERTEX
  5
813
  8
0
 62
     2
 10
-1.730165417422266
 20
14.21155606685504
 30
0.0
 70
    32
  0
VERTEX
  5
814
  8
0
 62
     2
 10
-1.732705417422264
 20
14.21095606685504
 30
0.0
 70
    32
  0
VERTEX
  5
815
  8
0
 62
     2
 10
-1.7352354174222651
 20
14.21025606685504
 30
0.0
 70
    32
  0
VERTEX
  5
816
  8
0
 62
     2
 10
-1.7377454174222651
 20
14.20945606685504
 30
0.0
 70
    32
  0
VERTEX
  5
817
  8
0
 62
     2
 10
-1.7402354174222641
 20
14.20865606685504
 30
0.0
 70
    32
  0
VERTEX
  5
818
  8
0
 62
     2
 10
-1.7427154174222661
 20
14.20775606685504
 30
0.0
 70
    32
  0
VERTEX
  5
819
  8
0
 62
     2
 10
-1.745175417422266
 20
14.206756066855039
 30
0.0
 70
    32
  0
VERTEX
  5
81A
  8
0
 62
     2
 10
-1.7476054174222631
 20
14.20575606685504
 30
0.0
 70
    32
  0
VERTEX
  5
81B
  8
0
 62
     2
 10
-1.750025417422264
 20
14.204656066855041
 30
0.0
 70
    32
  0
VERTEX
  5
81C
  8
0
 62
     2
 10
-1.7524054174222661
 20
14.20345606685504
 30
0.0
 70
    32
  0
VERTEX
  5
81D
  8
0
 62
     2
 10
-1.7547754174222661
 20
14.202256066855041
 30
0.0
 70
    32
  0
VERTEX
  5
81E
  8
0
 62
     2
 10
-1.757105417422264
 20
14.20095606685504
 30
0.0
 70
    32
  0
VERTEX
  5
81F
  8
0
 62
     2
 10
-1.759415417422264
 20
14.19955606685504
 30
0.0
 70
    32
  0
VERTEX
  5
820
  8
0
 62
     2
 10
-1.761685417422264
 20
14.19815606685504
 30
0.0
 70
    32
  0
VERTEX
  5
821
  8
0
 62
     2
 10
-1.763935417422263
 20
14.19665606685504
 30
0.0
 70
    32
  0
VERTEX
  5
822
  8
0
 62
     2
 10
-1.7661454174222631
 20
14.19515606685504
 30
0.0
 70
    32
  0
VERTEX
  5
823
  8
0
 62
     2
 10
-1.768325417422264
 20
14.19345606685504
 30
0.0
 70
    32
  0
VERTEX
  5
824
  8
0
 62
     2
 10
-1.770465417422264
 20
14.19185606685504
 30
0.0
 70
    32
  0
VERTEX
  5
825
  8
0
 62
     2
 10
-1.7725754174222641
 20
14.190056066855041
 30
0.0
 70
    32
  0
VERTEX
  5
826
  8
0
 62
     2
 10
-1.774635417422264
 20
14.18825606685504
 30
0.0
 70
    32
  0
VERTEX
  5
827
  8
0
 62
     2
 10
-1.776665417422266
 20
14.18645606685504
 30
0.0
 70
    32
  0
VERTEX
  5
828
  8
0
 62
     2
 10
-1.7786554174222671
 20
14.184556066855039
 30
0.0
 70
    32
  0
VERTEX
  5
829
  8
0
 62
     2
 10
-1.7806054174222661
 20
14.182556066855041
 30
0.0
 70
    32
  0
VERTEX
  5
82A
  8
0
 62
     2
 10
-1.7825054174222661
 20
14.18055606685504
 30
0.0
 70
    32
  0
VERTEX
  5
82B
  8
0
 62
     2
 10
-1.7843654174222641
 20
14.178456066855039
 30
0.0
 70
    32
  0
VERTEX
  5
82C
  8
0
 62
     2
 10
-1.7861854174222671
 20
14.176356066855041
 30
0.0
 70
    32
  0
VERTEX
  5
82D
  8
0
 62
     2
 10
-1.7879454174222671
 20
14.174156066855041
 30
0.0
 70
    32
  0
VERTEX
  5
82E
  8
0
 62
     2
 10
-1.7896754174222651
 20
14.17195606685504
 30
0.0
 70
    32
  0
VERTEX
  5
82F
  8
0
 62
     2
 10
-1.7913454174222641
 20
14.16965606685504
 30
0.0
 70
    32
  0
VERTEX
  5
830
  8
0
 62
     2
 10
-1.792965417422266
 20
14.16735606685504
 30
0.0
 70
    32
  0
VERTEX
  5
831
  8
0
 62
     2
 10
-1.794545417422263
 20
14.16505606685504
 30
0.0
 70
    32
  0
VERTEX
  5
832
  8
0
 62
     2
 10
-1.7960654174222661
 20
14.162656066855041
 30
0.0
 70
    32
  0
VERTEX
  5
833
  8
0
 62
     2
 10
-1.797535417422264
 20
14.160156066855039
 30
0.0
 70
    32
  0
VERTEX
  5
834
  8
0
 62
     2
 10
-1.7989454174222641
 20
14.15765606685504
 30
0.0
 70
    32
  0
VERTEX
  5
835
  8
0
 62
     2
 10
-1.8003154174222651
 20
14.15515606685504
 30
0.0
 70
    32
  0
VERTEX
  5
836
  8
0
 62
     2
 10
-1.801625417422267
 20
14.152656066855039
 30
0.0
 70
    32
  0
VERTEX
  5
837
  8
0
 62
     2
 10
-1.8028754174222641
 20
14.15005606685504
 30
0.0
 70
    32
  0
VERTEX
  5
838
  8
0
 62
     2
 10
-1.804065417422267
 20
14.147356066855041
 30
0.0
 70
    32
  0
VERTEX
  5
839
  8
0
 62
     2
 10
-1.805205417422264
 20
14.14475606685504
 30
0.0
 70
    32
  0
VERTEX
  5
83A
  8
0
 62
     2
 10
-1.8062954174222661
 20
14.142056066855041
 30
0.0
 70
    32
  0
VERTEX
  5
83B
  8
0
 62
     2
 10
-1.8073154174222641
 20
14.13925606685504
 30
0.0
 70
    32
  0
VERTEX
  5
83C
  8
0
 62
     2
 10
-1.808285417422266
 20
14.136556066855039
 30
0.0
 70
    32
  0
VERTEX
  5
83D
  8
0
 62
     2
 10
-1.809185417422263
 20
14.133756066855041
 30
0.0
 70
    32
  0
VERTEX
  5
83E
  8
0
 62
     2
 10
-1.810035417422263
 20
14.13095606685504
 30
0.0
 70
    32
  0
VERTEX
  5
83F
  8
0
 62
     2
 10
-1.810815417422263
 20
14.128156066855039
 30
0.0
 70
    32
  0
VERTEX
  5
840
  8
0
 62
     2
 10
-1.811535417422264
 20
14.125256066855041
 30
0.0
 70
    32
  0
VERTEX
  5
841
  8
0
 62
     2
 10
-1.8122054174222639
 20
14.12245606685504
 30
0.0
 70
    32
  0
VERTEX
  5
842
  8
0
 62
     2
 10
-1.8128054174222641
 20
14.11955606685504
 30
0.0
 70
    32
  0
VERTEX
  5
843
  8
0
 62
     2
 10
-1.813335417422266
 20
14.11665606685504
 30
0.0
 70
    32
  0
VERTEX
  5
844
  8
0
 62
     2
 10
-1.813815417422264
 20
14.113756066855039
 30
0.0
 70
    32
  0
VERTEX
  5
845
  8
0
 62
     2
 10
-1.8142254174222661
 20
14.110856066855041
 30
0.0
 70
    32
  0
VERTEX
  5
846
  8
0
 62
     2
 10
-1.814575417422263
 20
14.107856066855041
 30
0.0
 70
    32
  0
VERTEX
  5
847
  8
0
 62
     2
 10
-1.814865417422264
 20
14.10495606685504
 30
0.0
 70
    32
  0
VERTEX
  5
848
  8
0
 62
     2
 10
-1.815085417422263
 20
14.10195606685504
 30
0.0
 70
    32
  0
VERTEX
  5
849
  8
0
 62
     2
 10
-1.8152454174222641
 20
14.09905606685504
 30
0.0
 70
    32
  0
VERTEX
  5
84A
  8
0
 62
     2
 10
-1.8153454174222641
 20
14.09605606685504
 30
0.0
 70
    32
  0
VERTEX
  5
84B
  8
0
 62
     2
 10
-1.815375417422266
 20
14.09305606685504
 30
0.0
 70
    32
  0
SEQEND
  5
84C
  8
0
 62
     2
  0
LINE
  5
4BC
  8
DISPLAY
 62
     2
 10
-1.815374324805048
 20
14.09308682910339
 30
0.0
 11
-1.815374324805048
 21
14.05180005437593
 31
0.0
  0
LINE
  5
4BD
  8
DISPLAY
 62
     2
 10
-1.815374324805048
 20
14.45799353416732
 30
0.0
 11
-1.815374324805048
 21
14.499280308894781
 31
0.0
  0
LINE
  5
4BE
  8
DISPLAY
 62
     2
 10
-1.6036404358360401
 20
14.09308682910339
 30
0.0
 11
-1.6036404358360401
 21
14.05180005437593
 31
0.0
  0
LINE
  5
4BF
  8
DISPLAY
 62
     2
 10
-1.6036404358360401
 20
14.45799353416732
 30
0.0
 11
-1.6036404358360401
 21
14.499280308894781
 31
0.0
  0
POLYLINE
  5
4C1
  8
0
 62
     2
 66
     1
 10
0.0
 20
0.0
 30
0.0
 70
     8
  0
VERTEX
  5
84D
  8
0
 62
     2
 10
-1.1801754174222641
 20
14.45795606685504
 30
0.0
 70
    32
  0
VERTEX
  5
84E
  8
0
 62
     2
 10
-1.180205417422264
 20
14.45505606685504
 30
0.0
 70
    32
  0
VERTEX
  5
84F
  8
0
 62
     2
 10
-1.1802954174222651
 20
14.45205606685504
 30
0.0
 70
    32
  0
VERTEX
  5
850
  8
0
 62
     2
 10
-1.180455417422265
 20
14.449156066855039
 30
0.0
 70
    32
  0
VERTEX
  5
851
  8
0
 62
     2
 10
-1.1806854174222661
 20
14.446156066855041
 30
0.0
 70
    32
  0
VERTEX
  5
852
  8
0
 62
     2
 10
-1.180965417422267
 20
14.44325606685504
 30
0.0
 70
    32
  0
VERTEX
  5
853
  8
0
 62
     2
 10
-1.1813154174222671
 20
14.44025606685504
 30
0.0
 70
    32
  0
VERTEX
  5
854
  8
0
 62
     2
 10
-1.1817354174222641
 20
14.43735606685504
 30
0.0
 70
    32
  0
VERTEX
  5
855
  8
0
 62
     2
 10
-1.182205417422264
 20
14.43445606685504
 30
0.0
 70
    32
  0
VERTEX
  5
856
  8
0
 62
     2
 10
-1.182745417422264
 20
14.431556066855039
 30
0.0
 70
    32
  0
VERTEX
  5
857
  8
0
 62
     2
 10
-1.1833454174222651
 20
14.428656066855041
 30
0.0
 70
    32
  0
VERTEX
  5
858
  8
0
 62
     2
 10
-1.1840054174222641
 20
14.42575606685504
 30
0.0
 70
    32
  0
VERTEX
  5
859
  8
0
 62
     2
 10
-1.184735417422264
 20
14.42295606685504
 30
0.0
 70
    32
  0
VERTEX
  5
85A
  8
0
 62
     2
 10
-1.1855154174222671
 20
14.420156066855039
 30
0.0
 70
    32
  0
VERTEX
  5
85B
  8
0
 62
     2
 10
-1.1863654174222651
 20
14.41735606685504
 30
0.0
 70
    32
  0
VERTEX
  5
85C
  8
0
 62
     2
 10
-1.1872654174222641
 20
14.41455606685504
 30
0.0
 70
    32
  0
VERTEX
  5
85D
  8
0
 62
     2
 10
-1.188235417422264
 20
14.411756066855039
 30
0.0
 70
    32
  0
VERTEX
  5
85E
  8
0
 62
     2
 10
-1.189255417422264
 20
14.40905606685504
 30
0.0
 70
    32
  0
VERTEX
  5
85F
  8
0
 62
     2
 10
-1.190335417422264
 20
14.406356066855039
 30
0.0
 70
    32
  0
VERTEX
  5
860
  8
0
 62
     2
 10
-1.191475417422267
 20
14.40365606685504
 30
0.0
 70
    32
  0
VERTEX
  5
861
  8
0
 62
     2
 10
-1.192675417422264
 20
14.401056066855039
 30
0.0
 70
    32
  0
VERTEX
  5
862
  8
0
 62
     2
 10
-1.1939254174222631
 20
14.39845606685504
 30
0.0
 70
    32
  0
VERTEX
  5
863
  8
0
 62
     2
 10
-1.195235417422265
 20
14.395956066855041
 30
0.0
 70
    32
  0
VERTEX
  5
864
  8
0
 62
     2
 10
-1.1965954174222651
 20
14.39335606685504
 30
0.0
 70
    32
  0
VERTEX
  5
865
  8
0
 62
     2
 10
-1.198015417422265
 20
14.39085606685504
 30
0.0
 70
    32
  0
VERTEX
  5
866
  8
0
 62
     2
 10
-1.199485417422264
 20
14.38845606685504
 30
0.0
 70
    32
  0
VERTEX
  5
867
  8
0
 62
     2
 10
-1.2010054174222651
 20
14.386056066855041
 30
0.0
 70
    32
  0
VERTEX
  5
868
  8
0
 62
     2
 10
-1.202575417422264
 20
14.383656066855041
 30
0.0
 70
    32
  0
VERTEX
  5
869
  8
0
 62
     2
 10
-1.2042054174222641
 20
14.381356066855041
 30
0.0
 70
    32
  0
VERTEX
  5
86A
  8
0
 62
     2
 10
-1.205875417422261
 20
14.379156066855041
 30
0.0
 70
    32
  0
VERTEX
  5
86B
  8
0
 62
     2
 10
-1.2075954174222661
 20
14.376856066855041
 30
0.0
 70
    32
  0
VERTEX
  5
86C
  8
0
 62
     2
 10
-1.2093654174222641
 20
14.37475606685504
 30
0.0
 70
    32
  0
VERTEX
  5
86D
  8
0
 62
     2
 10
-1.211175417422264
 20
14.37255606685504
 30
0.0
 70
    32
  0
VERTEX
  5
86E
  8
0
 62
     2
 10
-1.2130354174222671
 20
14.370556066855039
 30
0.0
 70
    32
  0
VERTEX
  5
86F
  8
0
 62
     2
 10
-1.214945417422264
 20
14.36855606685504
 30
0.0
 70
    32
  0
VERTEX
  5
870
  8
0
 62
     2
 10
-1.2168854174222661
 20
14.36655606685504
 30
0.0
 70
    32
  0
VERTEX
  5
871
  8
0
 62
     2
 10
-1.218875417422264
 20
14.364656066855041
 30
0.0
 70
    32
  0
VERTEX
  5
872
  8
0
 62
     2
 10
-1.220905417422264
 20
14.36275606685504
 30
0.0
 70
    32
  0
VERTEX
  5
873
  8
0
 62
     2
 10
-1.222975417422264
 20
14.36095606685504
 30
0.0
 70
    32
  0
VERTEX
  5
874
  8
0
 62
     2
 10
-1.2250854174222641
 20
14.359256066855041
 30
0.0
 70
    32
  0
VERTEX
  5
875
  8
0
 62
     2
 10
-1.2272254174222641
 20
14.357556066855039
 30
0.0
 70
    32
  0
VERTEX
  5
876
  8
0
 62
     2
 10
-1.2294054174222631
 20
14.35595606685504
 30
0.0
 70
    32
  0
VERTEX
  5
877
  8
0
 62
     2
 10
-1.2316154174222671
 20
14.35445606685504
 30
0.0
 70
    32
  0
VERTEX
  5
878
  8
0
 62
     2
 10
-1.233855417422264
 20
14.35295606685504
 30
0.0
 70
    32
  0
VERTEX
  5
879
  8
0
 62
     2
 10
-1.2361354174222641
 20
14.351456066855039
 30
0.0
 70
    32
  0
VERTEX
  5
87A
  8
0
 62
     2
 10
-1.2384454174222661
 20
14.350156066855041
 30
0.0
 70
    32
  0
VERTEX
  5
87B
  8
0
 62
     2
 10
-1.240775417422264
 20
14.34885606685504
 30
0.0
 70
    32
  0
VERTEX
  5
87C
  8
0
 62
     2
 10
-1.2431354174222671
 20
14.34755606685504
 30
0.0
 70
    32
  0
VERTEX
  5
87D
  8
0
 62
     2
 10
-1.2455254174222641
 20
14.34645606685504
 30
0.0
 70
    32
  0
VERTEX
  5
87E
  8
0
 62
     2
 10
-1.2479354174222641
 20
14.34535606685504
 30
0.0
 70
    32
  0
VERTEX
  5
87F
  8
0
 62
     2
 10
-1.2503754174222641
 20
14.34425606685504
 30
0.0
 70
    32
  0
VERTEX
  5
880
  8
0
 62
     2
 10
-1.252835417422264
 20
14.343356066855041
 30
0.0
 70
    32
  0
VERTEX
  5
881
  8
0
 62
     2
 10
-1.255305417422264
 20
14.342456066855039
 30
0.0
 70
    32
  0
VERTEX
  5
882
  8
0
 62
     2
 10
-1.257805417422265
 20
14.341556066855039
 30
0.0
 70
    32
  0
VERTEX
  5
883
  8
0
 62
     2
 10
-1.260315417422265
 20
14.340856066855039
 30
0.0
 70
    32
  0
VERTEX
  5
884
  8
0
 62
     2
 10
-1.2628454174222661
 20
14.340156066855039
 30
0.0
 70
    32
  0
VERTEX
  5
885
  8
0
 62
     2
 10
-1.2653854174222641
 20
14.339556066855041
 30
0.0
 70
    32
  0
VERTEX
  5
886
  8
0
 62
     2
 10
-1.267935417422267
 20
14.33905606685504
 30
0.0
 70
    32
  0
VERTEX
  5
887
  8
0
 62
     2
 10
-1.2705054174222641
 20
14.338556066855039
 30
0.0
 70
    32
  0
VERTEX
  5
888
  8
0
 62
     2
 10
-1.273075417422264
 20
14.33815606685504
 30
0.0
 70
    32
  0
VERTEX
  5
889
  8
0
 62
     2
 10
-1.275665417422265
 20
14.337856066855039
 30
0.0
 70
    32
  0
VERTEX
  5
88A
  8
0
 62
     2
 10
-1.278255417422264
 20
14.33755606685504
 30
0.0
 70
    32
  0
VERTEX
  5
88B
  8
0
 62
     2
 10
-1.2808454174222641
 20
14.33735606685504
 30
0.0
 70
    32
  0
VERTEX
  5
88C
  8
0
 62
     2
 10
-1.283445417422264
 20
14.337256066855041
 30
0.0
 70
    32
  0
VERTEX
  5
88D
  8
0
 62
     2
 10
-1.286035417422261
 20
14.337256066855041
 30
0.0
 70
    32
  0
VERTEX
  5
88E
  8
0
 62
     2
 10
-1.2886354174222641
 20
14.337256066855041
 30
0.0
 70
    32
  0
VERTEX
  5
88F
  8
0
 62
     2
 10
-1.2912354174222651
 20
14.33735606685504
 30
0.0
 70
    32
  0
VERTEX
  5
890
  8
0
 62
     2
 10
-1.2938254174222641
 20
14.33755606685504
 30
0.0
 70
    32
  0
VERTEX
  5
891
  8
0
 62
     2
 10
-1.2964154174222671
 20
14.337856066855039
 30
0.0
 70
    32
  0
VERTEX
  5
892
  8
0
 62
     2
 10
-1.2989954174222671
 20
14.33815606685504
 30
0.0
 70
    32
  0
VERTEX
  5
893
  8
0
 62
     2
 10
-1.301575417422264
 20
14.338556066855039
 30
0.0
 70
    32
  0
VERTEX
  5
894
  8
0
 62
     2
 10
-1.304135417422267
 20
14.33905606685504
 30
0.0
 70
    32
  0
VERTEX
  5
895
  8
0
 62
     2
 10
-1.306695417422264
 20
14.339556066855041
 30
0.0
 70
    32
  0
VERTEX
  5
896
  8
0
 62
     2
 10
-1.309235417422264
 20
14.340156066855039
 30
0.0
 70
    32
  0
VERTEX
  5
897
  8
0
 62
     2
 10
-1.311765417422265
 20
14.340856066855039
 30
0.0
 70
    32
  0
VERTEX
  5
898
  8
0
 62
     2
 10
-1.3142754174222651
 20
14.341556066855039
 30
0.0
 70
    32
  0
VERTEX
  5
899
  8
0
 62
     2
 10
-1.316775417422261
 20
14.342456066855039
 30
0.0
 70
    32
  0
VERTEX
  5
89A
  8
0
 62
     2
 10
-1.3192454174222661
 20
14.343356066855041
 30
0.0
 70
    32
  0
VERTEX
  5
89B
  8
0
 62
     2
 10
-1.3217054174222671
 20
14.34425606685504
 30
0.0
 70
    32
  0
VERTEX
  5
89C
  8
0
 62
     2
 10
-1.3241454174222671
 20
14.34535606685504
 30
0.0
 70
    32
  0
VERTEX
  5
89D
  8
0
 62
     2
 10
-1.326555417422264
 20
14.34645606685504
 30
0.0
 70
    32
  0
VERTEX
  5
89E
  8
0
 62
     2
 10
-1.328945417422261
 20
14.34755606685504
 30
0.0
 70
    32
  0
VERTEX
  5
89F
  8
0
 62
     2
 10
-1.331305417422264
 20
14.34885606685504
 30
0.0
 70
    32
  0
VERTEX
  5
8A0
  8
0
 62
     2
 10
-1.333635417422264
 20
14.350156066855041
 30
0.0
 70
    32
  0
VERTEX
  5
8A1
  8
0
 62
     2
 10
-1.335945417422264
 20
14.351456066855039
 30
0.0
 70
    32
  0
VERTEX
  5
8A2
  8
0
 62
     2
 10
-1.3382254174222661
 20
14.35295606685504
 30
0.0
 70
    32
  0
VERTEX
  5
8A3
  8
0
 62
     2
 10
-1.3404654174222641
 20
14.35445606685504
 30
0.0
 70
    32
  0
VERTEX
  5
8A4
  8
0
 62
     2
 10
-1.342675417422263
 20
14.35595606685504
 30
0.0
 70
    32
  0
VERTEX
  5
8A5
  8
0
 62
     2
 10
-1.344855417422264
 20
14.357556066855039
 30
0.0
 70
    32
  0
VERTEX
  5
8A6
  8
0
 62
     2
 10
-1.346995417422264
 20
14.359256066855041
 30
0.0
 70
    32
  0
VERTEX
  5
8A7
  8
0
 62
     2
 10
-1.3491054174222641
 20
14.36095606685504
 30
0.0
 70
    32
  0
VERTEX
  5
8A8
  8
0
 62
     2
 10
-1.3511754174222661
 20
14.36275606685504
 30
0.0
 70
    32
  0
VERTEX
  5
8A9
  8
0
 62
     2
 10
-1.3532054174222641
 20
14.364656066855041
 30
0.0
 70
    32
  0
VERTEX
  5
8AA
  8
0
 62
     2
 10
-1.3551854174222671
 20
14.36655606685504
 30
0.0
 70
    32
  0
VERTEX
  5
8AB
  8
0
 62
     2
 10
-1.3571354174222661
 20
14.36855606685504
 30
0.0
 70
    32
  0
VERTEX
  5
8AC
  8
0
 62
     2
 10
-1.3590354174222661
 20
14.370556066855039
 30
0.0
 70
    32
  0
VERTEX
  5
8AD
  8
0
 62
     2
 10
-1.3608954174222641
 20
14.37255606685504
 30
0.0
 70
    32
  0
VERTEX
  5
8AE
  8
0
 62
     2
 10
-1.3627154174222671
 20
14.37475606685504
 30
0.0
 70
    32
  0
VERTEX
  5
8AF
  8
0
 62
     2
 10
-1.364485417422264
 20
14.376856066855041
 30
0.0
 70
    32
  0
VERTEX
  5
8B0
  8
0
 62
     2
 10
-1.366205417422264
 20
14.379156066855041
 30
0.0
 70
    32
  0
VERTEX
  5
8B1
  8
0
 62
     2
 10
-1.367875417422264
 20
14.381356066855041
 30
0.0
 70
    32
  0
VERTEX
  5
8B2
  8
0
 62
     2
 10
-1.3694954174222671
 20
14.383656066855041
 30
0.0
 70
    32
  0
VERTEX
  5
8B3
  8
0
 62
     2
 10
-1.371075417422263
 20
14.386056066855041
 30
0.0
 70
    32
  0
VERTEX
  5
8B4
  8
0
 62
     2
 10
-1.3725954174222661
 20
14.38845606685504
 30
0.0
 70
    32
  0
VERTEX
  5
8B5
  8
0
 62
     2
 10
-1.3740654174222651
 20
14.39085606685504
 30
0.0
 70
    32
  0
VERTEX
  5
8B6
  8
0
 62
     2
 10
-1.375485417422263
 20
14.39335606685504
 30
0.0
 70
    32
  0
VERTEX
  5
8B7
  8
0
 62
     2
 10
-1.3768454174222651
 20
14.395956066855041
 30
0.0
 70
    32
  0
VERTEX
  5
8B8
  8
0
 62
     2
 10
-1.3781554174222661
 20
14.39845606685504
 30
0.0
 70
    32
  0
VERTEX
  5
8B9
  8
0
 62
     2
 10
-1.3794054174222641
 20
14.401056066855039
 30
0.0
 70
    32
  0
VERTEX
  5
8BA
  8
0
 62
     2
 10
-1.3806054174222631
 20
14.40365606685504
 30
0.0
 70
    32
  0
VERTEX
  5
8BB
  8
0
 62
     2
 10
-1.3817454174222661
 20
14.406356066855039
 30
0.0
 70
    32
  0
VERTEX
  5
8BC
  8
0
 62
     2
 10
-1.3828254174222661
 20
14.40905606685504
 30
0.0
 70
    32
  0
VERTEX
  5
8BD
  8
0
 62
     2
 10
-1.3838454174222641
 20
14.411756066855039
 30
0.0
 70
    32
  0
VERTEX
  5
8BE
  8
0
 62
     2
 10
-1.3848154174222671
 20
14.41455606685504
 30
0.0
 70
    32
  0
VERTEX
  5
8BF
  8
0
 62
     2
 10
-1.385715417422263
 20
14.41735606685504
 30
0.0
 70
    32
  0
VERTEX
  5
8C0
  8
0
 62
     2
 10
-1.386565417422263
 20
14.420156066855039
 30
0.0
 70
    32
  0
VERTEX
  5
8C1
  8
0
 62
     2
 10
-1.387345417422263
 20
14.42295606685504
 30
0.0
 70
    32
  0
VERTEX
  5
8C2
  8
0
 62
     2
 10
-1.388075417422264
 20
14.42575606685504
 30
0.0
 70
    32
  0
VERTEX
  5
8C3
  8
0
 62
     2
 10
-1.388735417422267
 20
14.428656066855041
 30
0.0
 70
    32
  0
VERTEX
  5
8C4
  8
0
 62
     2
 10
-1.3893354174222641
 20
14.431556066855039
 30
0.0
 70
    32
  0
VERTEX
  5
8C5
  8
0
 62
     2
 10
-1.3898754174222641
 20
14.43445606685504
 30
0.0
 70
    32
  0
VERTEX
  5
8C6
  8
0
 62
     2
 10
-1.390345417422264
 20
14.43735606685504
 30
0.0
 70
    32
  0
VERTEX
  5
8C7
  8
0
 62
     2
 10
-1.390765417422263
 20
14.44025606685504
 30
0.0
 70
    32
  0
VERTEX
  5
8C8
  8
0
 62
     2
 10
-1.391105417422267
 20
14.44325606685504
 30
0.0
 70
    32
  0
VERTEX
  5
8C9
  8
0
 62
     2
 10
-1.391395417422264
 20
14.446156066855041
 30
0.0
 70
    32
  0
VERTEX
  5
8CA
  8
0
 62
     2
 10
-1.391615417422263
 20
14.449156066855039
 30
0.0
 70
    32
  0
VERTEX
  5
8CB
  8
0
 62
     2
 10
-1.3917754174222641
 20
14.45205606685504
 30
0.0
 70
    32
  0
VERTEX
  5
8CC
  8
0
 62
     2
 10
-1.3918754174222641
 20
14.45505606685504
 30
0.0
 70
    32
  0
VERTEX
  5
8CD
  8
0
 62
     2
 10
-1.391905417422266
 20
14.45795606685504
 30
0.0
 70
    32
  0
SEQEND
  5
8CE
  8
0
 62
     2
  0
POLYLINE
  5
4C2
  8
0
 62
     2
 66
     1
 10
0.0
 20
0.0
 30
0.0
 70
     8
  0
VERTEX
  5
8CF
  8
0
 62
     2
 10
-1.1801754174222641
 20
14.09305606685504
 30
0.0
 70
    32
  0
VERTEX
  5
8D0
  8
0
 62
     2
 10
-1.180205417422264
 20
14.09605606685504
 30
0.0
 70
    32
  0
VERTEX
  5
8D1
  8
0
 62
     2
 10
-1.1802954174222651
 20
14.09905606685504
 30
0.0
 70
    32
  0
VERTEX
  5
8D2
  8
0
 62
     2
 10
-1.180455417422265
 20
14.10195606685504
 30
0.0
 70
    32
  0
VERTEX
  5
8D3
  8
0
 62
     2
 10
-1.1806854174222661
 20
14.10495606685504
 30
0.0
 70
    32
  0
VERTEX
  5
8D4
  8
0
 62
     2
 10
-1.180965417422267
 20
14.107856066855041
 30
0.0
 70
    32
  0
VERTEX
  5
8D5
  8
0
 62
     2
 10
-1.1813154174222671
 20
14.110856066855041
 30
0.0
 70
    32
  0
VERTEX
  5
8D6
  8
0
 62
     2
 10
-1.1817354174222641
 20
14.113756066855039
 30
0.0
 70
    32
  0
VERTEX
  5
8D7
  8
0
 62
     2
 10
-1.182205417422264
 20
14.11665606685504
 30
0.0
 70
    32
  0
VERTEX
  5
8D8
  8
0
 62
     2
 10
-1.182745417422264
 20
14.11955606685504
 30
0.0
 70
    32
  0
VERTEX
  5
8D9
  8
0
 62
     2
 10
-1.1833454174222651
 20
14.12245606685504
 30
0.0
 70
    32
  0
VERTEX
  5
8DA
  8
0
 62
     2
 10
-1.1840054174222641
 20
14.125256066855041
 30
0.0
 70
    32
  0
VERTEX
  5
8DB
  8
0
 62
     2
 10
-1.184735417422264
 20
14.128156066855039
 30
0.0
 70
    32
  0
VERTEX
  5
8DC
  8
0
 62
     2
 10
-1.1855154174222671
 20
14.13095606685504
 30
0.0
 70
    32
  0
VERTEX
  5
8DD
  8
0
 62
     2
 10
-1.1863654174222651
 20
14.133756066855041
 30
0.0
 70
    32
  0
VERTEX
  5
8DE
  8
0
 62
     2
 10
-1.1872654174222641
 20
14.136556066855039
 30
0.0
 70
    32
  0
VERTEX
  5
8DF
  8
0
 62
     2
 10
-1.188235417422264
 20
14.13925606685504
 30
0.0
 70
    32
  0
VERTEX
  5
8E0
  8
0
 62
     2
 10
-1.189255417422264
 20
14.142056066855041
 30
0.0
 70
    32
  0
VERTEX
  5
8E1
  8
0
 62
     2
 10
-1.190335417422264
 20
14.14475606685504
 30
0.0
 70
    32
  0
VERTEX
  5
8E2
  8
0
 62
     2
 10
-1.191475417422267
 20
14.147356066855041
 30
0.0
 70
    32
  0
VERTEX
  5
8E3
  8
0
 62
     2
 10
-1.192675417422264
 20
14.15005606685504
 30
0.0
 70
    32
  0
VERTEX
  5
8E4
  8
0
 62
     2
 10
-1.1939254174222631
 20
14.152656066855039
 30
0.0
 70
    32
  0
VERTEX
  5
8E5
  8
0
 62
     2
 10
-1.195235417422265
 20
14.15515606685504
 30
0.0
 70
    32
  0
VERTEX
  5
8E6
  8
0
 62
     2
 10
-1.1965954174222651
 20
14.15765606685504
 30
0.0
 70
    32
  0
VERTEX
  5
8E7
  8
0
 62
     2
 10
-1.198015417422265
 20
14.160156066855039
 30
0.0
 70
    32
  0
VERTEX
  5
8E8
  8
0
 62
     2
 10
-1.199485417422264
 20
14.162656066855041
 30
0.0
 70
    32
  0
VERTEX
  5
8E9
  8
0
 62
     2
 10
-1.2010054174222651
 20
14.16505606685504
 30
0.0
 70
    32
  0
VERTEX
  5
8EA
  8
0
 62
     2
 10
-1.202575417422264
 20
14.16735606685504
 30
0.0
 70
    32
  0
VERTEX
  5
8EB
  8
0
 62
     2
 10
-1.2042054174222641
 20
14.16965606685504
 30
0.0
 70
    32
  0
VERTEX
  5
8EC
  8
0
 62
     2
 10
-1.205875417422261
 20
14.17195606685504
 30
0.0
 70
    32
  0
VERTEX
  5
8ED
  8
0
 62
     2
 10
-1.2075954174222661
 20
14.174156066855041
 30
0.0
 70
    32
  0
VERTEX
  5
8EE
  8
0
 62
     2
 10
-1.2093654174222641
 20
14.176356066855041
 30
0.0
 70
    32
  0
VERTEX
  5
8EF
  8
0
 62
     2
 10
-1.211175417422264
 20
14.178456066855039
 30
0.0
 70
    32
  0
VERTEX
  5
8F0
  8
0
 62
     2
 10
-1.2130354174222671
 20
14.18055606685504
 30
0.0
 70
    32
  0
VERTEX
  5
8F1
  8
0
 62
     2
 10
-1.214945417422264
 20
14.182556066855041
 30
0.0
 70
    32
  0
VERTEX
  5
8F2
  8
0
 62
     2
 10
-1.2168854174222661
 20
14.184556066855039
 30
0.0
 70
    32
  0
VERTEX
  5
8F3
  8
0
 62
     2
 10
-1.218875417422264
 20
14.18645606685504
 30
0.0
 70
    32
  0
VERTEX
  5
8F4
  8
0
 62
     2
 10
-1.220905417422264
 20
14.18825606685504
 30
0.0
 70
    32
  0
VERTEX
  5
8F5
  8
0
 62
     2
 10
-1.222975417422264
 20
14.190056066855041
 30
0.0
 70
    32
  0
VERTEX
  5
8F6
  8
0
 62
     2
 10
-1.2250854174222641
 20
14.19185606685504
 30
0.0
 70
    32
  0
VERTEX
  5
8F7
  8
0
 62
     2
 10
-1.2272254174222641
 20
14.19345606685504
 30
0.0
 70
    32
  0
VERTEX
  5
8F8
  8
0
 62
     2
 10
-1.2294054174222631
 20
14.19515606685504
 30
0.0
 70
    32
  0
VERTEX
  5
8F9
  8
0
 62
     2
 10
-1.2316154174222671
 20
14.19665606685504
 30
0.0
 70
    32
  0
VERTEX
  5
8FA
  8
0
 62
     2
 10
-1.233855417422264
 20
14.19815606685504
 30
0.0
 70
    32
  0
VERTEX
  5
8FB
  8
0
 62
     2
 10
-1.2361354174222641
 20
14.19955606685504
 30
0.0
 70
    32
  0
VERTEX
  5
8FC
  8
0
 62
     2
 10
-1.2384454174222661
 20
14.20095606685504
 30
0.0
 70
    32
  0
VERTEX
  5
8FD
  8
0
 62
     2
 10
-1.240775417422264
 20
14.202256066855041
 30
0.0
 70
    32
  0
VERTEX
  5
8FE
  8
0
 62
     2
 10
-1.2431354174222671
 20
14.20345606685504
 30
0.0
 70
    32
  0
VERTEX
  5
8FF
  8
0
 62
     2
 10
-1.2455254174222641
 20
14.204656066855041
 30
0.0
 70
    32
  0
VERTEX
  5
900
  8
0
 62
     2
 10
-1.2479354174222641
 20
14.20575606685504
 30
0.0
 70
    32
  0
VERTEX
  5
901
  8
0
 62
     2
 10
-1.2503754174222641
 20
14.206756066855039
 30
0.0
 70
    32
  0
VERTEX
  5
902
  8
0
 62
     2
 10
-1.252835417422264
 20
14.20775606685504
 30
0.0
 70
    32
  0
VERTEX
  5
903
  8
0
 62
     2
 10
-1.255305417422264
 20
14.20865606685504
 30
0.0
 70
    32
  0
VERTEX
  5
904
  8
0
 62
     2
 10
-1.257805417422265
 20
14.20945606685504
 30
0.0
 70
    32
  0
VERTEX
  5
905
  8
0
 62
     2
 10
-1.260315417422265
 20
14.21025606685504
 30
0.0
 70
    32
  0
VERTEX
  5
906
  8
0
 62
     2
 10
-1.2628454174222661
 20
14.21095606685504
 30
0.0
 70
    32
  0
VERTEX
  5
907
  8
0
 62
     2
 10
-1.2653854174222641
 20
14.21155606685504
 30
0.0
 70
    32
  0
VERTEX
  5
908
  8
0
 62
     2
 10
-1.267935417422267
 20
14.212056066855039
 30
0.0
 70
    32
  0
VERTEX
  5
909
  8
0
 62
     2
 10
-1.2705054174222641
 20
14.21255606685504
 30
0.0
 70
    32
  0
VERTEX
  5
90A
  8
0
 62
     2
 10
-1.273075417422264
 20
14.212956066855041
 30
0.0
 70
    32
  0
VERTEX
  5
90B
  8
0
 62
     2
 10
-1.275665417422265
 20
14.21325606685504
 30
0.0
 70
    32
  0
VERTEX
  5
90C
  8
0
 62
     2
 10
-1.278255417422264
 20
14.213556066855039
 30
0.0
 70
    32
  0
VERTEX
  5
90D
  8
0
 62
     2
 10
-1.2808454174222641
 20
14.213656066855039
 30
0.0
 70
    32
  0
VERTEX
  5
90E
  8
0
 62
     2
 10
-1.283445417422264
 20
14.21385606685504
 30
0.0
 70
    32
  0
VERTEX
  5
90F
  8
0
 62
     2
 10
-1.286035417422261
 20
14.21385606685504
 30
0.0
 70
    32
  0
VERTEX
  5
910
  8
0
 62
     2
 10
-1.2886354174222641
 20
14.21385606685504
 30
0.0
 70
    32
  0
VERTEX
  5
911
  8
0
 62
     2
 10
-1.2912354174222651
 20
14.213656066855039
 30
0.0
 70
    32
  0
VERTEX
  5
912
  8
0
 62
     2
 10
-1.2938254174222641
 20
14.213556066855039
 30
0.0
 70
    32
  0
VERTEX
  5
913
  8
0
 62
     2
 10
-1.2964154174222671
 20
14.21325606685504
 30
0.0
 70
    32
  0
VERTEX
  5
914
  8
0
 62
     2
 10
-1.2989954174222671
 20
14.212956066855041
 30
0.0
 70
    32
  0
VERTEX
  5
915
  8
0
 62
     2
 10
-1.301575417422264
 20
14.21255606685504
 30
0.0
 70
    32
  0
VERTEX
  5
916
  8
0
 62
     2
 10
-1.304135417422267
 20
14.212056066855039
 30
0.0
 70
    32
  0
VERTEX
  5
917
  8
0
 62
     2
 10
-1.306695417422264
 20
14.21155606685504
 30
0.0
 70
    32
  0
VERTEX
  5
918
  8
0
 62
     2
 10
-1.309235417422264
 20
14.21095606685504
 30
0.0
 70
    32
  0
VERTEX
  5
919
  8
0
 62
     2
 10
-1.311765417422265
 20
14.21025606685504
 30
0.0
 70
    32
  0
VERTEX
  5
91A
  8
0
 62
     2
 10
-1.3142754174222651
 20
14.20945606685504
 30
0.0
 70
    32
  0
VERTEX
  5
91B
  8
0
 62
     2
 10
-1.316775417422261
 20
14.20865606685504
 30
0.0
 70
    32
  0
VERTEX
  5
91C
  8
0
 62
     2
 10
-1.3192454174222661
 20
14.20775606685504
 30
0.0
 70
    32
  0
VERTEX
  5
91D
  8
0
 62
     2
 10
-1.3217054174222671
 20
14.206756066855039
 30
0.0
 70
    32
  0
VERTEX
  5
91E
  8
0
 62
     2
 10
-1.3241454174222671
 20
14.20575606685504
 30
0.0
 70
    32
  0
VERTEX
  5
91F
  8
0
 62
     2
 10
-1.326555417422264
 20
14.204656066855041
 30
0.0
 70
    32
  0
VERTEX
  5
920
  8
0
 62
     2
 10
-1.328945417422261
 20
14.20345606685504
 30
0.0
 70
    32
  0
VERTEX
  5
921
  8
0
 62
     2
 10
-1.331305417422264
 20
14.202256066855041
 30
0.0
 70
    32
  0
VERTEX
  5
922
  8
0
 62
     2
 10
-1.333635417422264
 20
14.20095606685504
 30
0.0
 70
    32
  0
VERTEX
  5
923
  8
0
 62
     2
 10
-1.335945417422264
 20
14.19955606685504
 30
0.0
 70
    32
  0
VERTEX
  5
924
  8
0
 62
     2
 10
-1.3382254174222661
 20
14.19815606685504
 30
0.0
 70
    32
  0
VERTEX
  5
925
  8
0
 62
     2
 10
-1.3404654174222641
 20
14.19665606685504
 30
0.0
 70
    32
  0
VERTEX
  5
926
  8
0
 62
     2
 10
-1.342675417422263
 20
14.19515606685504
 30
0.0
 70
    32
  0
VERTEX
  5
927
  8
0
 62
     2
 10
-1.344855417422264
 20
14.19345606685504
 30
0.0
 70
    32
  0
VERTEX
  5
928
  8
0
 62
     2
 10
-1.346995417422264
 20
14.19185606685504
 30
0.0
 70
    32
  0
VERTEX
  5
929
  8
0
 62
     2
 10
-1.3491054174222641
 20
14.190056066855041
 30
0.0
 70
    32
  0
VERTEX
  5
92A
  8
0
 62
     2
 10
-1.3511754174222661
 20
14.18825606685504
 30
0.0
 70
    32
  0
VERTEX
  5
92B
  8
0
 62
     2
 10
-1.3532054174222641
 20
14.18645606685504
 30
0.0
 70
    32
  0
VERTEX
  5
92C
  8
0
 62
     2
 10
-1.3551854174222671
 20
14.184556066855039
 30
0.0
 70
    32
  0
VERTEX
  5
92D
  8
0
 62
     2
 10
-1.3571354174222661
 20
14.182556066855041
 30
0.0
 70
    32
  0
VERTEX
  5
92E
  8
0
 62
     2
 10
-1.3590354174222661
 20
14.18055606685504
 30
0.0
 70
    32
  0
VERTEX
  5
92F
  8
0
 62
     2
 10
-1.3608954174222641
 20
14.178456066855039
 30
0.0
 70
    32
  0
VERTEX
  5
930
  8
0
 62
     2
 10
-1.3627154174222671
 20
14.176356066855041
 30
0.0
 70
    32
  0
VERTEX
  5
931
  8
0
 62
     2
 10
-1.364485417422264
 20
14.174156066855041
 30
0.0
 70
    32
  0
VERTEX
  5
932
  8
0
 62
     2
 10
-1.366205417422264
 20
14.17195606685504
 30
0.0
 70
    32
  0
VERTEX
  5
933
  8
0
 62
     2
 10
-1.367875417422264
 20
14.16965606685504
 30
0.0
 70
    32
  0
VERTEX
  5
934
  8
0
 62
     2
 10
-1.3694954174222671
 20
14.16735606685504
 30
0.0
 70
    32
  0
VERTEX
  5
935
  8
0
 62
     2
 10
-1.371075417422263
 20
14.16505606685504
 30
0.0
 70
    32
  0
VERTEX
  5
936
  8
0
 62
     2
 10
-1.3725954174222661
 20
14.162656066855041
 30
0.0
 70
    32
  0
VERTEX
  5
937
  8
0
 62
     2
 10
-1.3740654174222651
 20
14.160156066855039
 30
0.0
 70
    32
  0
VERTEX
  5
938
  8
0
 62
     2
 10
-1.375485417422263
 20
14.15765606685504
 30
0.0
 70
    32
  0
VERTEX
  5
939
  8
0
 62
     2
 10
-1.3768454174222651
 20
14.15515606685504
 30
0.0
 70
    32
  0
VERTEX
  5
93A
  8
0
 62
     2
 10
-1.3781554174222661
 20
14.152656066855039
 30
0.0
 70
    32
  0
VERTEX
  5
93B
  8
0
 62
     2
 10
-1.3794054174222641
 20
14.15005606685504
 30
0.0
 70
    32
  0
VERTEX
  5
93C
  8
0
 62
     2
 10
-1.3806054174222631
 20
14.147356066855041
 30
0.0
 70
    32
  0
VERTEX
  5
93D
  8
0
 62
     2
 10
-1.3817454174222661
 20
14.14475606685504
 30
0.0
 70
    32
  0
VERTEX
  5
93E
  8
0
 62
     2
 10
-1.3828254174222661
 20
14.142056066855041
 30
0.0
 70
    32
  0
VERTEX
  5
93F
  8
0
 62
     2
 10
-1.3838454174222641
 20
14.13925606685504
 30
0.0
 70
    32
  0
VERTEX
  5
940
  8
0
 62
     2
 10
-1.3848154174222671
 20
14.136556066855039
 30
0.0
 70
    32
  0
VERTEX
  5
941
  8
0
 62
     2
 10
-1.385715417422263
 20
14.133756066855041
 30
0.0
 70
    32
  0
VERTEX
  5
942
  8
0
 62
     2
 10
-1.386565417422263
 20
14.13095606685504
 30
0.0
 70
    32
  0
VERTEX
  5
943
  8
0
 62
     2
 10
-1.387345417422263
 20
14.128156066855039
 30
0.0
 70
    32
  0
VERTEX
  5
944
  8
0
 62
     2
 10
-1.388075417422264
 20
14.125256066855041
 30
0.0
 70
    32
  0
VERTEX
  5
945
  8
0
 62
     2
 10
-1.388735417422267
 20
14.12245606685504
 30
0.0
 70
    32
  0
VERTEX
  5
946
  8
0
 62
     2
 10
-1.3893354174222641
 20
14.11955606685504
 30
0.0
 70
    32
  0
VERTEX
  5
947
  8
0
 62
     2
 10
-1.3898754174222641
 20
14.11665606685504
 30
0.0
 70
    32
  0
VERTEX
  5
948
  8
0
 62
     2
 10
-1.390345417422264
 20
14.113756066855039
 30
0.0
 70
    32
  0
VERTEX
  5
949
  8
0
 62
     2
 10
-1.390765417422263
 20
14.110856066855041
 30
0.0
 70
    32
  0
VERTEX
  5
94A
  8
0
 62
     2
 10
-1.391105417422267
 20
14.107856066855041
 30
0.0
 70
    32
  0
VERTEX
  5
94B
  8
0
 62
     2
 10
-1.391395417422264
 20
14.10495606685504
 30
0.0
 70
    32
  0
VERTEX
  5
94C
  8
0
 62
     2
 10
-1.391615417422263
 20
14.10195606685504
 30
0.0
 70
    32
  0
VERTEX
  5
94D
  8
0
 62
     2
 10
-1.3917754174222641
 20
14.09905606685504
 30
0.0
 70
    32
  0
VERTEX
  5
94E
  8
0
 62
     2
 10
-1.3918754174222641
 20
14.09605606685504
 30
0.0
 70
    32
  0
VERTEX
  5
94F
  8
0
 62
     2
 10
-1.391905417422266
 20
14.09305606685504
 30
0.0
 70
    32
  0
SEQEND
  5
950
  8
0
 62
     2
  0
LINE
  5
4C3
  8
DISPLAY
 62
     2
 10
-1.391906546867034
 20
14.09308682910339
 30
0.0
 11
-1.391906546867034
 21
14.05180005437593
 31
0.0
  0
LINE
  5
4C4
  8
DISPLAY
 62
     2
 10
-1.391906546867034
 20
14.45799353416732
 30
0.0
 11
-1.391906546867034
 21
14.499280308894781
 31
0.0
  0
LINE
  5
4C5
  8
DISPLAY
 62
     2
 10
-1.1801726578980301
 20
14.09308682910339
 30
0.0
 11
-1.1801726578980301
 21
14.05180005437593
 31
0.0
  0
LINE
  5
4C6
  8
DISPLAY
 62
     2
 10
-1.1801726578980301
 20
14.45799353416732
 30
0.0
 11
-1.1801726578980301
 21
14.499280308894781
 31
0.0
  0
LINE
  5
4C7
  8
DISPLAY
 62
     4
 10
-1.6036404358360401
 20
17.057622792911658
 30
0.0
 11
-1.6036404358360401
 21
16.625801254107561
 31
0.0
  0
LINE
  5
4C9
  8
DISPLAY
 62
     4
 10
-0.9624144685710264
 20
9.4939940604032955
 30
0.0
 11
-0.9624144685710264
 21
8.7573021998745304
 31
0.0
  0
LINE
  5
4CA
  8
DISPLAY
 62
     4
 10
4.3912168840750461
 20
9.4939940604032955
 30
0.0
 11
4.3912168840750461
 21
8.7573021998745304
 31
0.0
  0
INSERT
  5
4D1
  8
0
 66
     1
  2
2_STATE_BRKR_SYMBOL_ST1-GR
 10
-7.2196328306458168
 20
4.232043654024328
 30
0.0
  0
ATTRIB
  5
4D2
  8
0
  6
CONTINUOUS
 62
     6
 10
-1.228630934309485
 20
8.1907788981972285
 30
0.0
 40
0.084010003753032
  1
010100010000004401
  2
LINKAGE
 70
     9
  0
SEQEND
  5
4D3
  8
0
  0
INSERT
  5
4D9
  8
0
 66
     1
  2
2_STATE_BRKR_SYMBOL_ST1-GR
 10
-1.866001477999748
 20
4.232043654024328
 30
0.0
  0
ATTRIB
  5
4DA
  8
0
  6
CONTINUOUS
 62
     6
 10
4.125000418336584
 20
8.1907788981972285
 30
0.0
 40
0.084010003753032
  1
010100010000004701
  2
LINKAGE
 70
     9
  0
SEQEND
  5
4DB
  8
0
  0
LINE
  5
4E5
  8
DISPLAY
 62
     4
 10
4.3912168840750461
 20
8.337252181109374
 30
0.0
 11
4.3912168840750461
 21
7.6005603205806089
 31
0.0
  0
LINE
  5
4E6
  8
DISPLAY
 62
     4
 10
-0.9624144685710264
 20
8.337252181109374
 30
0.0
 11
-0.9624144685710264
 21
7.6005603205806089
 31
0.0
  0
TEXT
  5
4F4
  8
0
 62
     6
 10
12.3202708130334
 20
15.435552506802919
 30
0.0
 40
0.215
  1
INDEX
  7
ARIAL
  0
INSERT
  5
A12
  8
0
 66
     1
  2
ARROW_HEAD_DISPLAY_REF0
 10
11.785698193080769
 20
16.207956456866221
 30
0.0
 41
1.8634611981471281
 42
1.8634611981471281
 43
1.8634611981471281
  0
ATTRIB
  5
A13
  8
0
 10
11.319832893543991
 20
15.74209115732944
 30
0.0
 40
0.1397595898610346
  1
C:\C3ILEX\EOSCADA\DISPLAYS\ONELINES\115KV SYSTEM ARCADE.DXF
  2
DISPLAY
 70
     9
  0
SEQEND
  5
A14
  8
0
  0
INSERT
  5
A16
  8
0
 66
     1
  2
ARROW_HEAD_DISPLAY_REF0
 10
11.785698193080769
 20
15.561740656828499
 30
0.0
 41
1.8634611981471281
 42
1.8634611981471281
 43
1.8634611981471281
  0
ATTRIB
  5
A17
  8
0
 10
11.319832893543991
 20
15.095875357291719
 30
0.0
 40
0.1397595898610346
  1
C:\C3ILEX\EOSCADA\DISPLAYS\ONELINES\MAIN_INDEX.DXF
  2
DISPLAY
 70
     9
  0
SEQEND
  5
A18
  8
0
  0
LINE
  5
100E
  8
DISPLAY
 62
     4
 10
9.7448482367211238
 20
9.4939940604032955
 30
0.0
 11
9.7448482367211238
 21
8.7573021998745304
 31
0.0
  0
INSERT
  5
1013
  8
0
 66
     1
  2
2_STATE_BRKR_SYMBOL_ST1-GR
 10
3.487629874646327
 20
4.232043654024328
 30
0.0
  0
ATTRIB
  5
1014
  8
0
  6
CONTINUOUS
 62
     6
 10
9.4786317709826626
 20
8.1907788981972285
 30
0.0
 40
0.084010003753032
  1
010100010000004901
  2
LINKAGE
 70
     9
  0
SEQEND
  5
1015
  8
0
  0
LINE
  5
1016
  8
DISPLAY
 62
     4
 10
9.7448482367211238
 20
8.337252181109374
 30
0.0
 11
9.7448482367211238
 21
7.6005603205806089
 31
0.0
  0
LINE
  5
1018
  8
DISPLAY
 62
     4
 10
15.0984795893672
 20
9.4939940604032955
 30
0.0
 11
15.0984795893672
 21
8.7573021998745304
 31
0.0
  0
INSERT
  5
101D
  8
0
 66
     1
  2
2_STATE_BRKR_SYMBOL_ST1-GR
 10
8.8412612272924012
 20
4.232043654024328
 30
0.0
  0
ATTRIB
  5
101E
  8
0
  6
CONTINUOUS
 62
     6
 10
14.83226312362874
 20
8.1907788981972285
 30
0.0
 40
0.084010003753032
  1
010100010000004c01
  2
LINKAGE
 70
     9
  0
SEQEND
  5
101F
  8
0
  0
LINE
  5
1020
  8
DISPLAY
 62
     4
 10
15.0984795893672
 20
8.337252181109374
 30
0.0
 11
15.0984795893672
 21
7.6005603205806089
 31
0.0
  0
INSERT
  5
104A
  8
0
 66
     1
  2
CIRCUIT_SWITCHER_ST1-GREE0
 10
-1.7900805075681121
 20
16.000391859725099
 30
0.0
  0
ATTRIB
  5
104B
  8
0
  6
CONTINUOUS
 10
-1.853255896483553
 20
15.63088693238779
 30
0.0
 40
0.1
  1
010100010000004601
  7
ARIAL
  2
LINKAGE
 70
     9
  0
SEQEND
  5
104C
  8
0
  0
LINE
  5
1057
  8
DISPLAY
 62
     4
 10
-1.6036404358360401
 20
13.06510819384726
 30
0.0
 11
-1.6036404358360441
 21
10.650735939697221
 31
0.0
  0
TEXT
  5
105B
  8
0
 62
     2
 10
-0.6146532253232114
 20
14.76179173500185
 30
0.0
 40
0.215
  1
Transformer #1
  7
ARIAL
  0
TEXT
  5
105D
  8
0
 62
     2
 10
-0.5921918099801378
 20
14.35935341501046
 30
0.0
 40
0.215
  1
15MVA
  7
ARIAL
  0
TEXT
  5
105E
  8
0
 62
     2
 10
-0.5921918099801378
 20
16.25028486677089
 30
0.0
 40
0.215
  1
S&C Circuit Switcher
  7
ARIAL
  0
LINE
  5
1084
  8
DISPLAY
 62
     4
 10
-1.6005172774326999
 20
18.281723956139508
 30
0.0
 11
-1.6005172774326999
 21
18.839683814493391
 31
0.0
  0
INSERT
  5
1086
  8
0
 66
     1
  2
SWITCH-1_ST1-GREEN_ST2-RE0
 10
-1.6005172774326999
 20
17.76922395613953
 30
0.0
 41
-1.0
 50
270.0
  0
ATTRIB
  5
1087
  8
0
  6
CONTINUOUS
 10
-1.9700222047700089
 20
17.706048567224091
 30
0.0
 40
0.1
  1
040100010000000100
 50
270.0
  7
ARIAL
 71
     2
  2
LINKAGE
 70
     9
  0
SEQEND
  5
1088
  8
0
  0
LINE
  5
108D
  8
DISPLAY
 62
     4
 10
-1.6005172774326999
 20
17.002351534224928
 30
0.0
 11
-1.6005172774326999
 21
17.756723956139531
 31
0.0
  0
TEXT
  5
108F
  8
DISPLAY
 62
     2
 10
-2.674167653972499
 20
19.080619151138279
 30
0.0
 40
0.215
  1
115KV LINE
  7
ARIAL
 72
     1
 11
-1.7066676539724981
 21
19.080619151138279
 31
0.0
  0
TEXT
  5
1090
  8
0
 62
     3
 10
11.44327502779633
 20
18.072566625485969
 30
0.0
 40
0.2949235279081819
  1
SUBSTATION
  7
ARIAL
 72
     1
 11
12.819584824701179
 21
18.072566625485969
 31
0.0
  0
TEXT
  5
14D1
  8
0
 62
     2
 10
-6.2858237752491011
 20
12.12740409438603
 30
0.0
 40
0.215
  1
Volts
  7
ARIAL
  0
TEXT
  5
14D4
  8
0
 62
     2
 10
-5.1636156216646798
 20
12.12740409438603
 30
0.0
 40
0.215
  1
A
  7
ARIAL
  0
TEXT
  5
14D5
  8
0
 62
     2
 10
-5.1636156216646798
 20
11.769070761052699
 30
0.0
 40
0.215
  1
B
  7
ARIAL
  0
TEXT
  5
14D6
  8
0
 62
     2
 10
-5.1636156216646798
 20
11.41073742771937
 30
0.0
 40
0.215
  1
C
  7
ARIAL
  0
TEXT
  5
151D
  8
0
 62
     2
 10
-7.5380305056798322
 20
13.74171598796563
 30
0.0
 40
0.215
  1
8.32KV Amps
  7
ARIAL
  0
TEXT
  5
151E
  8
0
 62
     2
 10
-5.161673409787733
 20
13.72415362149456
 30
0.0
 40
0.215
  1
A
  7
ARIAL
  0
TEXT
  5
151F
  8
0
 62
     2
 10
-5.161673409787733
 20
13.365820288161229
 30
0.0
 40
0.215
  1
B
  7
ARIAL
  0
TEXT
  5
1520
  8
0
 62
     2
 10
-5.161673409787733
 20
13.0074869548279
 30
0.0
 40
0.215
  1
C
  7
ARIAL
  0
TEXT
  5
152D
  8
0
 62
     2
 10
-6.0932154031004169
 20
12.568079059204431
 30
0.0
 40
0.215
  1
KVA
  7
ARIAL
  0
LINE
  5
1559
  8
DISPLAY
 62
     4
 10
15.804193240132561
 20
9.4939940604032991
 30
0.0
 11
7.4880825791632439
 21
9.4939940604032991
 31
0.0
  0
TEXT
  5
1560
  8
DISPLAY
 62
     2
 10
-0.9530753120448345
 20
18.076954470072138
 30
0.0
 40
0.215
  1
GOAB
  7
ARIAL
  0
TEXT
  5
1565
  8
0
 62
     2
 10
-0.1543641640396149
 20
6.3374236276082732
 30
0.0
 40
0.215
  1
VAR
  7
ARIAL
  0
TEXT
  5
1575
  8
0
 62
     2
 10
-0.6358041178132671
 20
7.9341731547168051
 30
0.0
 40
0.215
  1
Amps
  7
ARIAL
  0
TEXT
  5
1576
  8
0
 62
     2
 10
0.3521950049389542
 20
7.9341731547168051
 30
0.0
 40
0.215
  1
A
  7
ARIAL
  0
TEXT
  5
1577
  8
0
 62
     2
 10
0.3521950049389542
 20
7.5758398213834779
 30
0.0
 40
0.215
  1
B
  7
ARIAL
  0
TEXT
  5
1578
  8
0
 62
     2
 10
0.3521950049389542
 20
7.2175064880501472
 30
0.0
 40
0.215
  1
C
  7
ARIAL
  0
TEXT
  5
1585
  8
0
 62
     2
 10
0.1431181595253417
 20
6.778098592426673
 30
0.0
 40
0.215
  1
PF
  7
ARIAL
  0
TEXT
  5
158C
  8
0
 62
     2
 10
-0.620336923127363
 20
8.4310145205493718
 30
0.0
 40
0.215
  1
Feeder 310
  7
ARIAL
  0
TEXT
  5
158D
  8
0
 62
     2
 10
5.1992671886064601
 20
6.3374236276082732
 30
0.0
 40
0.215
  1
VAR
  7
ARIAL
  0
TEXT
  5
1592
  8
0
 62
     2
 10
4.7178272348328081
 20
7.9341731547168051
 30
0.0
 40
0.215
  1
Amps
  7
ARIAL
  0
TEXT
  5
1593
  8
0
 62
     2
 10
5.7058263575850301
 20
7.9341731547168051
 30
0.0
 40
0.215
  1
A
  7
ARIAL
  0
TEXT
  5
1594
  8
0
 62
     2
 10
5.7058263575850301
 20
7.5758398213834779
 30
0.0
 40
0.215
  1
B
  7
ARIAL
  0
TEXT
  5
1595
  8
0
 62
     2
 10
5.7058263575850301
 20
7.2175064880501472
 30
0.0
 40
0.215
  1
C
  7
ARIAL
  0
TEXT
  5
15A2
  8
0
 62
     2
 10
5.4967495121714141
 20
6.778098592426673
 30
0.0
 40
0.215
  1
PF
  7
ARIAL
  0
TEXT
  5
15A7
  8
0
 62
     2
 10
4.8124716698932959
 20
8.4310145205493718
 30
0.0
 40
0.215
  1
Feeder 320
  7
ARIAL
  0
TEXT
  5
15A8
  8
0
 62
     2
 10
10.55289854125254
 20
6.3374236276082803
 30
0.0
 40
0.215
  1
VAR
  7
ARIAL
  0
TEXT
  5
15AD
  8
0
 62
     2
 10
10.07145858747888
 20
7.934173154716806
 30
0.0
 40
0.215
  1
Amps
  7
ARIAL
  0
TEXT
  5
15AE
  8
0
 62
     2
 10
11.059457710231101
 20
7.934173154716806
 30
0.0
 40
0.215
  1
A
  7
ARIAL
  0
TEXT
  5
15AF
  8
0
 62
     2
 10
11.059457710231101
 20
7.5758398213834779
 30
0.0
 40
0.215
  1
B
  7
ARIAL
  0
TEXT
  5
15B0
  8
0
 62
     2
 10
11.059457710231101
 20
7.2175064880501472
 30
0.0
 40
0.215
  1
C
  7
ARIAL
  0
TEXT
  5
15BD
  8
0
 62
     2
 10
10.85038086481749
 20
6.7780985924266783
 30
0.0
 40
0.215
  1
PF
  7
ARIAL
  0
TEXT
  5
15C2
  8
0
 62
     2
 10
10.150267537524339
 20
8.4626641786479588
 30
0.0
 40
0.215
  1
Feeder 330
  7
ARIAL
  0
TEXT
  5
15C3
  8
0
 62
     2
 10
15.9065298938986
 20
6.3374236276082803
 30
0.0
 40
0.215
  1
VAR
  7
ARIAL
  0
TEXT
  5
15C8
  8
0
 62
     2
 10
15.425089940124961
 20
7.934173154716806
 30
0.0
 40
0.215
  1
Amps
  7
ARIAL
  0
TEXT
  5
15C9
  8
0
 62
     2
 10
16.41308906287718
 20
7.934173154716806
 30
0.0
 40
0.215
  1
A
  7
ARIAL
  0
TEXT
  5
15CA
  8
0
 62
     2
 10
16.41308906287718
 20
7.5758398213834779
 30
0.0
 40
0.215
  1
B
  7
ARIAL
  0
TEXT
  5
15CB
  8
0
 62
     2
 10
16.41308906287718
 20
7.2175064880501472
 30
0.0
 40
0.215
  1
C
  7
ARIAL
  0
TEXT
  5
15D8
  8
0
 62
     2
 10
16.204012217463571
 20
6.7780985924266783
 30
0.0
 40
0.215
  1
PF
  7
ARIAL
  0
TEXT
  5
15DD
  8
0
 62
     2
 10
15.45639255825904
 20
8.4784889908387768
 30
0.0
 40
0.215
  1
Feeder 340
  7
ARIAL
  0
LINE
  5
15DE
  8
DISPLAY
 62
     4
 10
-0.9624144685710264
 20
7.6005603205806089
 30
0.0
 11
-1.123007501064013
 21
7.7607175990524544
 31
0.0
  0
LINE
  5
15DF
  8
DISPLAY
 62
     4
 10
-0.9624144685710264
 20
7.6005603205806089
 30
0.0
 11
-0.8018214360780362
 21
7.7607175990524544
 31
0.0
  0
LINE
  5
15E0
  8
DISPLAY
 62
     4
 10
4.3912168840750461
 20
7.6005603205806089
 30
0.0
 11
4.230623851582056
 21
7.7607175990524544
 31
0.0
  0
LINE
  5
15E1
  8
DISPLAY
 62
     4
 10
4.3912168840750461
 20
7.6005603205806089
 30
0.0
 11
4.551809916568037
 21
7.7607175990524544
 31
0.0
  0
LINE
  5
15E2
  8
DISPLAY
 62
     4
 10
9.7448482367211238
 20
7.6005603205806089
 30
0.0
 11
9.5842552042281355
 21
7.7607175990524544
 31
0.0
  0
LINE
  5
15E3
  8
DISPLAY
 62
     4
 10
9.7448482367211238
 20
7.6005603205806089
 30
0.0
 11
9.9054412692141156
 21
7.7607175990524544
 31
0.0
  0
LINE
  5
15E4
  8
DISPLAY
 62
     4
 10
15.0984795893672
 20
7.6005603205806089
 30
0.0
 11
14.93788655687421
 21
7.7607175990524544
 31
0.0
  0
LINE
  5
15E5
  8
DISPLAY
 62
     4
 10
15.0984795893672
 20
7.6005603205806089
 30
0.0
 11
15.25907262186019
 21
7.7607175990524544
 31
0.0
  0
TEXT
  5
16F7
  8
DISPLAY
 62
     2
 10
-3.1522197849900411
 20
18.01905993319124
 30
0.0
 40
0.215
  1
SW303
  7
ARIAL
  0
TEXT
  5
16FD
  8
DISPLAY
 62
     2
 10
-3.0181260429937442
 20
16.150059773673469
 30
0.0
 40
0.215
  1
CS304
  7
ARIAL
  0
TEXT
  5
1827
  8
0
 62
     2
 10
-1.0871341776695991
 20
12.10233855520077
 30
0.0
 40
0.215
  1
Volts
  7
ARIAL
  0
TEXT
  5
1828
  8
0
 62
     2
 10
0.0350739759148198
 20
12.10233855520077
 30
0.0
 40
0.215
  1
A
  7
ARIAL
  0
TEXT
  5
1829
  8
0
 62
     2
 10
0.0350739759148198
 20
11.74400522186744
 30
0.0
 40
0.215
  1
B
  7
ARIAL
  0
TEXT
  5
182A
  8
0
 62
     2
 10
0.0350739759148198
 20
11.385671888534111
 30
0.0
 40
0.215
  1
C
  7
ARIAL
  0
INSERT
  5
1B49
  8
DISPLAY
  2
*U15
 10
0.0
 20
0.0
 30
0.0
  0
LINE
  5
1B50
  8
DISPLAY
 10
4.9393982915086383
 20
12.699780105458769
 30
0.0
 11
0.9727145745500322
 21
11.944137543162061
 31
0.0
  0
LINE
  5
1B51
  8
DISPLAY
 10
0.9727145745500322
 20
11.944137543162061
 30
0.0
 11
1.0966734445529189
 21
12.14233886268655
 31
0.0
  0
LINE
  5
1B52
  8
DISPLAY
 10
0.9727145745500322
 20
11.944137543162061
 30
0.0
 11
1.1834446473982529
 21
11.807874150740149
 31
0.0
  0
CIRCLE
  5
1B7C
  8
DISPLAY
 10
-0.9753648444469504
 20
7.243015226896854
 30
0.0
 40
0.3609558170262908
  0
TEXT
  5
1B7D
  8
0
 62
     2
 10
-1.1615947939640701
 20
7.1084953900555572
 30
0.0
 40
0.215
  1
79
  7
ARIAL
 72
     1
 11
-0.9824281272974033
 21
7.1084953900555572
 31
0.0
  0
CIRCLE
  5
1B84
  8
DISPLAY
 10
4.4155226808113284
 20
7.2378282285145161
 30
0.0
 40
0.3609558170262908
  0
TEXT
  5
1B85
  8
0
 62
     2
 10
4.2292927312942092
 20
7.1033083916732176
 30
0.0
 40
0.215
  1
79
  7
ARIAL
 72
     1
 11
4.4084593979608746
 21
7.1033083916732176
 31
0.0
  0
CIRCLE
  5
1B8C
  8
DISPLAY
 10
9.7377077828815501
 20
7.2273265301795631
 30
0.0
 40
0.3609558170262908
  0
TEXT
  5
1B8D
  8
0
 62
     2
 10
9.5514778333644301
 20
7.0928066933382663
 30
0.0
 40
0.215
  1
79
  7
ARIAL
 72
     1
 11
9.7306445000310973
 21
7.0928066933382663
 31
0.0
  0
CIRCLE
  5
1B94
  8
DISPLAY
 10
15.11676412954778
 20
7.2382745122183847
 30
0.0
 40
0.3609558170262908
  0
TEXT
  5
1B95
  8
0
 62
     2
 10
14.93053418003066
 20
7.103754675377087
 30
0.0
 40
0.215
  1
79
  7
ARIAL
 72
     1
 11
15.109700846697329
 21
7.103754675377087
 31
0.0
  0
TEXT
  5
1BBC
  8
0
 62
     2
 10
-7.2919924573200596
 20
16.534134226427369
 30
0.0
 40
0.215
  1
115KV Amps
  7
ARIAL
  0
TEXT
  5
1BBD
  8
0
 62
     2
 10
-5.0562285319192624
 20
16.49900949348525
 30
0.0
 40
0.215
  1
A
  7
ARIAL
  0
TEXT
  5
1BBE
  8
0
 62
     2
 10
-5.0562285319192624
 20
16.140676160151909
 30
0.0
 40
0.215
  1
B
  7
ARIAL
  0
TEXT
  5
1BBF
  8
0
 62
     2
 10
-5.0562285319192624
 20
15.78234282681858
 30
0.0
 40
0.215
  1
C
  7
ARIAL
  0
ENDSEC
  0
EOF
