  0
SECTION
  2
HEADER
  9
$ACADVER
  1
AC1009
  9
$INSBASE
 10
0.0
 20
0.0
 30
0.0
  9
$EXTMIN
 10
7.449511454402411
 20
26.094906945168411
 30
0.0
  9
$EXTMAX
 10
58.788346960420817
 20
43.699510698236409
 30
0.0
  9
$LIMMIN
 10
0.0
 20
0.0
  9
$LIMMAX
 10
12.0
 20
9.0
  9
$ORTHOMODE
 70
     1
  9
$REGENMODE
 70
     1
  9
$FILLMODE
 70
     1
  9
$QTEXTMODE
 70
     0
  9
$MIRRTEXT
 70
     0
  9
$DRAGMODE
 70
     2
  9
$LTSCALE
 40
1.0
  9
$OSMODE
 70
     7
  9
$ATTMODE
 70
     1
  9
$TEXTSIZE
 40
0.2
  9
$TRACEWID
 40
0.05
  9
$TEXTSTYLE
  7
STANDARD
  9
$CLAYER
  8
0
  9
$CELTYPE
  6
BYLAYER
  9
$CECOLOR
 62
   256
  9
$DIMSCALE
 40
1.0
  9
$DIMASZ
 40
0.18
  9
$DIMEXO
 40
0.0625
  9
$DIMDLI
 40
0.38
  9
$DIMRND
 40
0.0
  9
$DIMDLE
 40
0.0
  9
$DIMEXE
 40
0.18
  9
$DIMTP
 40
0.0
  9
$DIMTM
 40
0.0
  9
$DIMTXT
 40
0.18
  9
$DIMCEN
 40
0.09
  9
$DIMTSZ
 40
0.0
  9
$DIMTOL
 70
     0
  9
$DIMLIM
 70
     0
  9
$DIMTIH
 70
     1
  9
$DIMTOH
 70
     1
  9
$DIMSE1
 70
     0
  9
$DIMSE2
 70
     0
  9
$DIMTAD
 70
     0
  9
$DIMZIN
 70
     0
  9
$DIMBLK
  1

  9
$DIMASO
 70
     1
  9
$DIMSHO
 70
     1
  9
$DIMPOST
  1

  9
$DIMAPOST
  1

  9
$DIMALT
 70
     0
  9
$DIMALTD
 70
     2
  9
$DIMALTF
 40
25.399999999999999
  9
$DIMLFAC
 40
1.0
  9
$DIMTOFL
 70
     0
  9
$DIMTVP
 40
0.0
  9
$DIMTIX
 70
     0
  9
$DIMSOXD
 70
     0
  9
$DIMSAH
 70
     0
  9
$DIMBLK1
  1

  9
$DIMBLK2
  1

  9
$DIMSTYLE
  2
STANDARD
  9
$DIMCLRD
 70
     0
  9
$DIMCLRE
 70
     0
  9
$DIMCLRT
 70
     0
  9
$DIMTFAC
 40
1.0
  9
$DIMGAP
 40
0.09
  9
$LUNITS
 70
     2
  9
$LUPREC
 70
     4
  9
$SKETCHINC
 40
0.1
  9
$FILLETRAD
 40
0.0
  9
$AUNITS
 70
     0
  9
$AUPREC
 70
     0
  9
$MENU
  1
.
  9
$ELEVATION
 40
0.0
  9
$PELEVATION
 40
0.0
  9
$THICKNESS
 40
0.0
  9
$LIMCHECK
 70
     0
  9
$BLIPMODE
 70
     0
  9
$CHAMFERA
 40
0.0
  9
$CHAMFERB
 40
0.0
  9
$SKPOLY
 70
     0
  9
$TDCREATE
 40
2455182.7396522691
  9
$TDUPDATE
 40
2456573.580975058
  9
$TDINDWG
 40
0.0551672685
  9
$TDUSRTIMER
 40
0.0551658218
  9
$USRTIMER
 70
     1
  9
$ANGBASE
 50
0.0
  9
$ANGDIR
 70
     0
  9
$PDMODE
 70
     0
  9
$PDSIZE
 40
0.0
  9
$PLINEWID
 40
0.0
  9
$COORDS
 70
     1
  9
$SPLFRAME
 70
     0
  9
$SPLINETYPE
 70
     6
  9
$SPLINESEGS
 70
     8
  9
$ATTDIA
 70
     1
  9
$ATTREQ
 70
     1
  9
$HANDLING
 70
     1
  9
$HANDSEED
  5
127F
  9
$SURFTAB1
 70
     6
  9
$SURFTAB2
 70
     6
  9
$SURFTYPE
 70
     6
  9
$SURFU
 70
     6
  9
$SURFV
 70
     6
  9
$UCSNAME
  2

  9
$UCSORG
 10
0.0
 20
0.0
 30
0.0
  9
$UCSXDIR
 10
1.0
 20
0.0
 30
0.0
  9
$UCSYDIR
 10
0.0
 20
1.0
 30
0.0
  9
$PUCSNAME
  2

  9
$PUCSORG
 10
0.0
 20
0.0
 30
0.0
  9
$PUCSXDIR
 10
1.0
 20
0.0
 30
0.0
  9
$PUCSYDIR
 10
0.0
 20
1.0
 30
0.0
  9
$USERI1
 70
     0
  9
$USERI2
 70
     0
  9
$USERI3
 70
     0
  9
$USERI4
 70
     0
  9
$USERI5
 70
     0
  9
$USERR1
 40
0.0
  9
$USERR2
 40
0.0
  9
$USERR3
 40
0.0
  9
$USERR4
 40
0.0
  9
$USERR5
 40
0.0
  9
$WORLDVIEW
 70
     1
  9
$SHADEDGE
 70
     3
  9
$SHADEDIF
 70
    70
  9
$TILEMODE
 70
     1
  9
$MAXACTVP
 70
    64
  9
$PLIMCHECK
 70
     0
  9
$PEXTMIN
 10
0.0
 20
0.0
 30
0.0
  9
$PEXTMAX
 10
0.0
 20
0.0
 30
0.0
  9
$PLIMMIN
 10
0.0
 20
0.0
  9
$PLIMMAX
 10
12.0
 20
9.0
  9
$UNITMODE
 70
     0
  9
$VISRETAIN
 70
     1
  9
$PLINEGEN
 70
     0
  9
$PSLTSCALE
 70
     1
  0
ENDSEC
  0
SECTION
  2
TABLES
  0
TABLE
  2
VPORT
 70
     1
  0
VPORT
  2
*ACTIVE
 70
     0
 10
0.0
 20
0.0
 11
1.0
 21
1.0
 12
33.119128009136929
 22
36.400031078565434
 13
0.0
 23
0.0
 14
0.5
 24
0.5
 15
0.5
 25
0.5
 16
0.0
 26
0.0
 36
1.0
 17
0.0
 27
0.0
 37
0.0
 40
27.401624692878979
 41
1.8804573804573801
 42
50.0
 43
0.0
 44
0.0
 50
0.0
 51
0.0
 71
     0
 72
  1000
 73
     1
 74
     3
 75
     0
 76
     0
 77
     0
 78
     0
  0
ENDTAB
  0
TABLE
  2
LTYPE
 70
    18
  0
LTYPE
  2
CONTINUOUS
 70
     0
  3
Solid line
 72
    65
 73
     0
 40
0.0
  0
LTYPE
  2
HIDDEN
 70
     0
  3
Hidden __ __ __ __ __ __ __ __ __ __ __ __ __ _
 72
    65
 73
     2
 40
0.375
 49
0.25
 49
-0.125
  0
LTYPE
  2
PHANTOM2
 70
     0
  3
Phantom (.5x) ___ _ _ ___ _ _ ___ _ _ ___ _ _
 72
    65
 73
     6
 40
1.25
 49
0.625
 49
-0.125
 49
0.125
 49
-0.125
 49
0.125
 49
-0.125
  0
LTYPE
  2
CENTER
 70
     0
  3
Center ____ _ ____ _ ____ _ ____ _ ____ _ ____
 72
    65
 73
     4
 40
2.0
 49
1.25
 49
-0.25
 49
0.25
 49
-0.25
  0
LTYPE
  2
DASHED
 70
     0
  3
Dashed __ __ __ __ __ __ __ __ __ __ __ __ __ _
 72
    65
 73
     2
 40
0.75
 49
0.5
 49
-0.25
  0
LTYPE
  2
DOT
 70
     0
  3
Dot . . . . . . . . . . . . . . . . . . . . . .
 72
    65
 73
     2
 40
0.25
 49
0.0
 49
-0.25
  0
LTYPE
  2
AM_ISO02W050
 70
     0
  3
__ __ __ __ __ __ __ __ __ __ __ __ __ __ __
 72
    65
 73
     2
 40
7.5
 49
6.0
 49
-1.5
  0
LTYPE
  2
AM_ISO08W050
 70
     0
  3
____ . ____ . ____ . ____ . ____ . ____ . ____
 72
    65
 73
     4
 40
18.0
 49
12.0
 49
-1.5
 49
3.0
 49
-1.5
  0
LTYPE
  2
AM_ISO09W050
 70
     0
  3
_____ . . _____ . . _____ . . ____ .. ____
 72
    65
 73
     6
 40
22.5
 49
12.0
 49
-1.5
 49
3.0
 49
-1.5
 49
3.0
 49
-1.5
  0
LTYPE
  2
AMCONSTR
 70
     0
  3
_______________________
 72
    65
 73
     2
 40
9999.0
 49
9999.0
 49
0.0
  0
LTYPE
  2
AM_ISO08W050X2
 70
     0
  3
__ . __ . __ . __ . __ . __
 72
    65
 73
     4
 40
9.0
 49
6.0
 49
-0.75
 49
1.5
 49
-0.75
  0
LTYPE
  2
AM_ISO02W050X2
 70
     0
  3
 _ _ _ _ _ _ _ _ _ _ _ _
 72
    65
 73
     2
 40
3.75
 49
3.0
 49
-0.75
  0
LTYPE
  2
AMZIGZAG
 70
     0
  3
/\/-/\/-/\/-/\/-/\/-/\/
 72
    65
 73
     2
 40
11.0001
 49
0.0001
 49
-11.0
  0
LTYPE
  2
CENTER2
 70
     0
  3
Center (.5x) ___ _ ___ _ ___ _ ___ _ ___ _ ___
 72
    65
 73
     4
 40
1.125
 49
0.75
 49
-0.125
 49
0.125
 49
-0.125
  0
LTYPE
  2
HIDDEN2
 70
     0
  3
Hidden (.5x) _ _ _ _ _ _ _ _ _ _ _ _ _ _ _ _ _
 72
    65
 73
     2
 40
0.1875
 49
0.125
 49
-0.0625
  0
LTYPE
  2
AMZIGZAG2
 70
     0
  3
/\/-/\/-/\/-/\/-/\/-/\/
 72
    65
 73
     2
 40
0.4401
 49
0.0001
 49
-0.4400000000000001
  0
LTYPE
  2
ACANSTGB
 70
     0
  3
__ . . __ . .
 72
    65
 73
     6
 40
0.35433070866
 49
0.15748031496
 49
-0.03937007874
 49
0.03937007874
 49
-0.03937007874
 49
0.03937007874
 49
-0.03937007874
  0
LTYPE
  2
ACANSTGL
 70
     0
  3
_ _ _ _ _
 72
    65
 73
     2
 40
0.11811023622
 49
0.07874015748
 49
-0.03937007874
  0
ENDTAB
  0
TABLE
  2
LAYER
 70
     4
  0
LAYER
  2
0
 70
     0
 62
     7
  6
CONTINUOUS
  0
LAYER
  2
STATE_1
 70
     0
 62
     3
  6
CONTINUOUS
  0
LAYER
  2
STATE_2
 70
     0
 62
     1
  6
CONTINUOUS
  0
LAYER
  2
DEFPOINTS
 70
     0
 62
     7
  6
CONTINUOUS
  0
ENDTAB
  0
TABLE
  2
STYLE
 70
     5
  0
STYLE
  2
STANDARD
 70
     0
 40
0.0
 41
1.0
 50
0.0
 71
     0
 42
0.2
  3
txt
  4

  0
STYLE
  2
ANNOTATIVE
 70
     0
 40
0.0
 41
1.0
 50
0.0
 71
     0
 42
0.2
  3
txt
  4

  0
STYLE
  2

 70
     1
 40
0.0
 41
1.0
 50
0.0
 71
     0
 42
0.2
  3
genltshp.shx
  4

  0
STYLE
  2
ACANSTS
 70
     0
 40
1.0
 41
1.0
 50
0.0
 71
     0
 42
0.2
  3
romans.shx
  4

  0
STYLE
  2
ACANSGDT
 70
     0
 40
0.0
 41
1.0
 50
0.0
 71
     0
 42
0.2
  3
amgdt.shx
  4

  0
ENDTAB
  0
TABLE
  2
VIEW
 70
     0
  0
ENDTAB
  0
TABLE
  2
UCS
 70
     0
  0
ENDTAB
  0
TABLE
  2
APPID
 70
    13
  0
APPID
  2
ACAD
 70
     0
  0
APPID
  2
ACADANNOTATIVE
 70
     0
  0
APPID
  2
ACAD_MLEADERVER
 70
     0
  0
APPID
  2
ACAD_EXEMPT_FROM_CAD_STANDARDS
 70
     0
  0
APPID
  2
CONTENTTABDATA
 70
     0
  0
APPID
  2
CONTENTCURRENTTAB
 70
     0
  0
APPID
  2
MCAD_NO_VIS
 70
     0
  0
APPID
  2
ACAD_TEMP_GRAPHIC
 70
     0
  0
APPID
  2
ACATTRIBSERVICES
 70
     0
  0
APPID
  2
DESIGNERASSEMBLIES
 70
     0
  0
APPID
  2
ACAD_DSTYLE_DIMJAG
 70
     0
  0
APPID
  2
ACAD_DSTYLE_DIMBREAK
 70
     0
  0
APPID
  2
ACAD_NAV_VCDISPLAY
 70
     0
  0
ENDTAB
  0
TABLE
  2
DIMSTYLE
 70
     8
  0
DIMSTYLE
  2
STANDARD
 70
     0
  3

  4

  5

  6

  7

 40
1.0
 41
0.18
 42
0.0625
 43
0.38
 44
0.18
 45
0.0
 46
0.0
 47
0.0
 48
0.0
140
0.18
141
0.09
142
0.0
143
25.399999999999999
144
1.0
145
0.0
146
1.0
147
0.09
 71
     0
 72
     0
 73
     1
 74
     1
 75
     0
 76
     0
 77
     0
 78
     0
170
     0
171
     2
172
     0
173
     0
174
     0
175
     0
176
     0
177
     0
178
     0
  0
DIMSTYLE
  2
ANNOTATIVE
 70
     0
  3

  4

  5

  6

  7

 40
1.0
 41
0.18
 42
0.0625
 43
0.38
 44
0.18
 45
0.0
 46
0.0
 47
0.0
 48
0.0
140
0.18
141
0.09
142
0.0
143
25.399999999999999
144
1.0
145
0.0
146
1.0
147
0.09
 71
     0
 72
     0
 73
     1
 74
     1
 75
     0
 76
     0
 77
     0
 78
     0
170
     0
171
     2
172
     0
173
     0
174
     0
175
     0
176
     0
177
     0
178
     0
  0
DIMSTYLE
  2
AM_ANSI
 70
     0
  3

  4
mm
  5

  6

  7

 40
1.0
 41
0.12
 42
0.05
 43
0.5
 44
0.1
 45
0.0
 46
0.0
 47
0.1
 48
0.1
140
0.12
141
0.0
142
0.0
143
25.399999999999999
144
1.0
145
0.0
146
0.71
147
0.06
 71
     0
 72
     0
 73
     1
 74
     1
 75
     0
 76
     0
 77
     0
 78
     7
170
     0
171
     2
172
     0
173
     0
174
     0
175
     0
176
   256
177
   256
178
     2
  0
DIMSTYLE
  2
AM_ANSI$3
 70
     0
  3

  4
mm
  5

  6

  7

 40
1.0
 41
0.12
 42
0.05
 43
0.5
 44
0.1
 45
0.0
 46
0.0
 47
0.1
 48
0.1
140
0.12
141
0.0
142
0.0
143
25.399999999999999
144
1.0
145
0.0
146
0.71
147
0.06
 71
     0
 72
     0
 73
     1
 74
     1
 75
     0
 76
     0
 77
     0
 78
     7
170
     0
171
     2
172
     0
173
     0
174
     0
175
     0
176
   256
177
   256
178
     2
  0
DIMSTYLE
  2
AM_ANSI$4
 70
     0
  3

  4
mm
  5

  6

  7

 40
1.0
 41
0.12
 42
0.05
 43
0.5
 44
0.1
 45
0.0
 46
0.0
 47
0.1
 48
0.1
140
0.12
141
0.0
142
0.0
143
25.399999999999999
144
1.0
145
0.0
146
0.71
147
0.06
 71
     0
 72
     0
 73
     1
 74
     1
 75
     0
 76
     0
 77
     0
 78
     7
170
     0
171
     2
172
     0
173
     0
174
     0
175
     0
176
   256
177
   256
178
     2
  0
DIMSTYLE
  2
AM_ANSI$7
 70
     0
  3

  4
mm
  5

  6

  7

 40
1.0
 41
0.12
 42
0.05
 43
0.5
 44
0.1
 45
0.0
 46
0.0
 47
0.1
 48
0.1
140
0.12
141
0.0
142
0.0
143
25.399999999999999
144
1.0
145
0.0
146
0.71
147
0.06
 71
     0
 72
     0
 73
     1
 74
     1
 75
     0
 76
     0
 77
     0
 78
     7
170
     0
171
     2
172
     0
173
     0
174
     0
175
     0
176
   256
177
   256
178
     2
  0
DIMSTYLE
  2
AM_ANSI$SF
 70
     0
  3

  4
mm
  5

  6

  7

 40
1.0
 41
0.12
 42
0.05
 43
0.5
 44
0.1
 45
0.0
 46
0.0
 47
0.1
 48
0.1
140
0.12
141
0.0
142
0.0
143
25.399999999999999
144
1.0
145
0.0
146
0.71
147
0.06
 71
     0
 72
     0
 73
     1
 74
     1
 75
     1
 76
     1
 77
     0
 78
     7
170
     0
171
     2
172
     0
173
     0
174
     0
175
     0
176
   256
177
   256
178
     2
  0
DIMSTYLE
  2
AM_ANSI$SH
 70
     0
  3

  4
mm
  5

  6
GENAXEH
  7

 40
1.0
 41
0.12
 42
0.05
 43
0.5
 44
0.1
 45
0.0
 46
0.0
 47
0.1
 48
0.1
140
0.12
141
0.0
142
0.0
143
25.399999999999999
144
1.0
145
0.0
146
0.71
147
0.06
 71
     0
 72
     0
 73
     1
 74
     1
 75
     1
 76
     1
 77
     0
 78
     7
170
     0
171
     2
172
     0
173
     1
174
     0
175
     0
176
   256
177
   256
178
     2
  0
ENDTAB
  0
ENDSEC
  0
SECTION
  2
BLOCKS
  0
BLOCK
  8
0
  2
$MODEL_SPACE
 70
     0
 10
0.0
 20
0.0
 30
0.0
  3
$MODEL_SPACE
  1

  0
ENDBLK
  5
109C
  8
0
  0
BLOCK
 67
     1
  8
0
  2
$PAPER_SPACE
 70
     0
 10
0.0
 20
0.0
 30
0.0
  3
$PAPER_SPACE
  1

  0
ENDBLK
  5
1098
 67
     1
  8
0
  0
BLOCK
  8
0
  2
CIRCLE_ST1-NONE_ST2-GRN
 70
     2
 10
0.0
 20
0.0
 30
0.0
  3
CIRCLE_ST1-NONE_ST2-GRN
  1

  0
ATTDEF
  5
159
  8
0
  6
CONTINUOUS
 62
     6
 10
-0.0668866252179554
 20
-0.1743521918446091
 30
0.0
 40
0.1
  1
NULL
  3

  2
LINKAGE
 70
     9
  0
CIRCLE
  5
15A
  8
STATE_2
  6
CONTINUOUS
 62
     3
 10
0.2514792248698892
 20
0.202514684568396
 30
0.0
 40
0.2500005846087492
  0
CIRCLE
  5
15B
  8
STATE_1
  6
CONTINUOUS
 62
     7
 10
0.2514792248698892
 20
0.202514684568396
 30
0.0
 40
0.25
  0
CIRCLE
  5
15C
  8
0
  6
CONTINUOUS
 62
     3
 10
0.2514792248698892
 20
0.202514684568396
 30
0.0
 40
0.25
  0
INSERT
  5
15D
  8
STATE_2
  6
CONTINUOUS
 62
     3
  2
*U6
 10
0.0
 20
0.0
 30
0.0
1001
ACAD
1002
{
1000
R14_HATCH_DATA
1000
15D
1011
1.0
1021
0.0
1031
0.0
1021
0.0
1031
0.0
1011
0.0
1021
0.0
1031
0.0
1021
1.0
1031
0.0
1011
0.0
1021
0.0
1031
0.0
1021
0.0
1031
1.0
1040
0.0
1010
0.0
1020
0.0
1030
1.0
1000
SOLID
1070
     1
1070
     1
1071
        1
1071
        1
1071
        1
1070
     2
1040
0.2514792248698892
1040
0.202514684568396
1040
0.2500005846087492
1040
0.0
1040
6.2831853071795827
1070
     1
1071
        1
1005
15A
1070
     0
1070
     1
1071
        1
1040
0.0
1040
0.0
1040
0.0
1002
}
  0
ENDBLK
  5
161
  8
0
  0
BLOCK
  8
0
  2
*U6
 70
     1
 10
0.0
 20
0.0
 30
0.0
  3
*U6
  1

  0
SOLID
  5
636
  8
STATE_2
  6
CONTINUOUS
 62
     3
 10
0.2514792248698892
 20
0.4525152691771453
 30
0.0
 11
0.1742247956221138
 21
0.4402793696381452
 31
0.0
 12
0.3287336541176646
 22
0.4402793696381452
 32
0.0
 13
0.3287336541176646
 23
0.4402793696381452
 33
0.0
  0
SOLID
  5
637
  8
STATE_2
  6
CONTINUOUS
 62
     3
 10
0.1742247956221138
 20
0.4402793696381452
 30
0.0
 11
0.1045325681723698
 21
0.4047694061205461
 31
0.0
 12
0.3984258815674087
 22
0.4047694061205461
 32
0.0
 13
0.3984258815674087
 23
0.4047694061205461
 33
0.0
  0
SOLID
  5
638
  8
STATE_2
  6
CONTINUOUS
 62
     3
 10
-0.1742247956221138
 20
0.4402793696381452
 30
0.0
 11
-0.3287336541176646
 21
0.4402793696381452
 31
0.0
 12
-0.3984258815674087
 22
0.4047694061205461
 32
0.0
 13
-0.3984258815674087
 23
0.4047694061205461
 33
0.0
210
0.0
220
0.0
230
-1.0
  0
SOLID
  5
639
  8
STATE_2
  6
CONTINUOUS
 62
     3
 10
0.1045325681723698
 20
0.4047694061205461
 30
0.0
 11
0.0492245033177393
 21
0.3494613412659154
 31
0.0
 12
0.4537339464220393
 22
0.3494613412659154
 32
0.0
 13
0.4537339464220393
 23
0.3494613412659154
 33
0.0
  0
SOLID
  5
63A
  8
STATE_2
  6
CONTINUOUS
 62
     3
 10
-0.1045325681723698
 20
0.4047694061205461
 30
0.0
 11
-0.3984258815674087
 21
0.4047694061205461
 31
0.0
 12
-0.4537339464220393
 22
0.3494613412659154
 32
0.0
 13
-0.4537339464220393
 23
0.3494613412659154
 33
0.0
210
0.0
220
0.0
230
-1.0
  0
SOLID
  5
63B
  8
STATE_2
  6
CONTINUOUS
 62
     3
 10
0.0492245033177393
 20
0.3494613412659154
 30
0.0
 11
0.0137145398001405
 21
0.2797691138161714
 31
0.0
 12
0.4892439099396383
 22
0.2797691138161714
 32
0.0
 13
0.4892439099396383
 23
0.2797691138161714
 33
0.0
  0
SOLID
  5
63C
  8
STATE_2
  6
CONTINUOUS
 62
     3
 10
-0.0492245033177393
 20
0.3494613412659154
 30
0.0
 11
-0.4537339464220393
 21
0.3494613412659154
 31
0.0
 12
-0.4892439099396383
 22
0.2797691138161714
 32
0.0
 13
-0.4892439099396383
 23
0.2797691138161714
 33
0.0
210
0.0
220
0.0
230
-1.0
  0
SOLID
  5
63D
  8
STATE_2
  6
CONTINUOUS
 62
     3
 10
0.0137145398001405
 20
0.2797691138161714
 30
0.0
 11
0.0014786402611401
 21
0.202514684568396
 31
0.0
 12
0.5014798094786384
 22
0.202514684568396
 32
0.0
 13
0.5014798094786384
 23
0.202514684568396
 33
0.0
  0
SOLID
  5
63E
  8
STATE_2
  6
CONTINUOUS
 62
     3
 10
-0.0137145398001405
 20
0.2797691138161714
 30
0.0
 11
-0.4892439099396383
 21
0.2797691138161714
 31
0.0
 12
-0.5014798094786384
 22
0.202514684568396
 32
0.0
 13
-0.5014798094786384
 23
0.202514684568396
 33
0.0
210
0.0
220
0.0
230
-1.0
  0
SOLID
  5
63F
  8
STATE_2
  6
CONTINUOUS
 62
     3
 10
0.0014786402611401
 20
0.202514684568396
 30
0.0
 11
0.0137145398001405
 21
0.1252602553206206
 31
0.0
 12
0.4892439099396379
 22
0.1252602553206206
 32
0.0
 13
0.4892439099396379
 23
0.1252602553206206
 33
0.0
  0
SOLID
  5
640
  8
STATE_2
  6
CONTINUOUS
 62
     3
 10
-0.0014786402611401
 20
0.202514684568396
 30
0.0
 11
-0.5014798094786384
 21
0.202514684568396
 31
0.0
 12
-0.4892439099396379
 22
0.1252602553206206
 32
0.0
 13
-0.4892439099396379
 23
0.1252602553206206
 33
0.0
210
0.0
220
0.0
230
-1.0
  0
SOLID
  5
641
  8
STATE_2
  6
CONTINUOUS
 62
     3
 10
0.0137145398001406
 20
0.1252602553206206
 30
0.0
 11
0.0492245033177393
 21
0.0555680278708766
 31
0.0
 12
0.4537339464220393
 22
0.0555680278708766
 32
0.0
 13
0.4537339464220393
 23
0.0555680278708766
 33
0.0
  0
SOLID
  5
642
  8
STATE_2
  6
CONTINUOUS
 62
     3
 10
-0.0137145398001406
 20
0.1252602553206206
 30
0.0
 11
-0.4892439099396379
 21
0.1252602553206206
 31
0.0
 12
-0.4537339464220393
 22
0.0555680278708766
 32
0.0
 13
-0.4537339464220393
 23
0.0555680278708766
 33
0.0
210
0.0
220
0.0
230
-1.0
  0
SOLID
  5
643
  8
STATE_2
  6
CONTINUOUS
 62
     3
 10
0.0492245033177393
 20
0.0555680278708766
 30
0.0
 11
0.1045325681723698
 21
0.0002599630162461
 31
0.0
 12
0.3984258815674085
 22
0.0002599630162461
 32
0.0
 13
0.3984258815674085
 23
0.0002599630162461
 33
0.0
  0
SOLID
  5
644
  8
STATE_2
  6
CONTINUOUS
 62
     3
 10
-0.0492245033177393
 20
0.0555680278708766
 30
0.0
 11
-0.4537339464220393
 21
0.0555680278708766
 31
0.0
 12
-0.3984258815674085
 22
0.0002599630162461
 32
0.0
 13
-0.3984258815674085
 23
0.0002599630162461
 33
0.0
210
0.0
220
0.0
230
-1.0
  0
SOLID
  5
645
  8
STATE_2
  6
CONTINUOUS
 62
     3
 10
0.1045325681723699
 20
0.0002599630162461
 30
0.0
 11
0.1742247956221138
 21
-0.0352500005013527
 31
0.0
 12
0.3287336541176645
 22
-0.0352500005013527
 32
0.0
 13
0.3287336541176645
 23
-0.0352500005013527
 33
0.0
  0
SOLID
  5
646
  8
STATE_2
  6
CONTINUOUS
 62
     3
 10
-0.1045325681723699
 20
0.0002599630162461
 30
0.0
 11
-0.3984258815674085
 21
0.0002599630162461
 31
0.0
 12
-0.3287336541176645
 22
-0.0352500005013527
 32
0.0
 13
-0.3287336541176645
 23
-0.0352500005013527
 33
0.0
210
0.0
220
0.0
230
-1.0
  0
SOLID
  5
647
  8
STATE_2
  6
CONTINUOUS
 62
     3
 10
-0.1742247956221139
 20
-0.0352500005013527
 30
0.0
 11
-0.3287336541176645
 21
-0.0352500005013527
 31
0.0
 12
-0.2514792248698892
 22
-0.0474859000403531
 32
0.0
 13
-0.2514792248698892
 23
-0.0474859000403531
 33
0.0
210
0.0
220
0.0
230
-1.0
  0
LINE
  5
648
  8
STATE_2
  6
CONTINUOUS
 62
     3
 10
0.2514792248698892
 20
0.4525152691771453
 30
0.0
 11
0.1742247956221138
 21
0.4402793696381452
 31
0.0
  0
LINE
  5
649
  8
STATE_2
  6
CONTINUOUS
 62
     3
 10
0.3287336541176646
 20
0.4402793696381452
 30
0.0
 11
0.2514792248698892
 21
0.4525152691771453
 31
0.0
  0
LINE
  5
64A
  8
STATE_2
  6
CONTINUOUS
 62
     3
 10
0.1742247956221138
 20
0.4402793696381452
 30
0.0
 11
0.1045325681723698
 21
0.4047694061205461
 31
0.0
  0
LINE
  5
64B
  8
STATE_2
  6
CONTINUOUS
 62
     3
 10
0.3287336541176646
 20
0.4402793696381452
 30
0.0
 11
0.3984258815674087
 21
0.4047694061205461
 31
0.0
  0
LINE
  5
64C
  8
STATE_2
  6
CONTINUOUS
 62
     3
 10
0.1045325681723698
 20
0.4047694061205461
 30
0.0
 11
0.0492245033177393
 21
0.3494613412659154
 31
0.0
  0
LINE
  5
64D
  8
STATE_2
  6
CONTINUOUS
 62
     3
 10
0.3984258815674087
 20
0.4047694061205461
 30
0.0
 11
0.4537339464220393
 21
0.3494613412659154
 31
0.0
  0
LINE
  5
64E
  8
STATE_2
  6
CONTINUOUS
 62
     3
 10
0.0492245033177393
 20
0.3494613412659154
 30
0.0
 11
0.0137145398001405
 21
0.2797691138161714
 31
0.0
  0
LINE
  5
64F
  8
STATE_2
  6
CONTINUOUS
 62
     3
 10
0.4537339464220393
 20
0.3494613412659154
 30
0.0
 11
0.4892439099396383
 21
0.2797691138161714
 31
0.0
  0
LINE
  5
650
  8
STATE_2
  6
CONTINUOUS
 62
     3
 10
0.0137145398001405
 20
0.2797691138161714
 30
0.0
 11
0.0014786402611401
 21
0.202514684568396
 31
0.0
  0
LINE
  5
651
  8
STATE_2
  6
CONTINUOUS
 62
     3
 10
0.4892439099396383
 20
0.2797691138161714
 30
0.0
 11
0.5014798094786384
 21
0.202514684568396
 31
0.0
  0
LINE
  5
652
  8
STATE_2
  6
CONTINUOUS
 62
     3
 10
0.0014786402611401
 20
0.202514684568396
 30
0.0
 11
0.0137145398001405
 21
0.1252602553206206
 31
0.0
  0
LINE
  5
653
  8
STATE_2
  6
CONTINUOUS
 62
     3
 10
0.5014798094786384
 20
0.202514684568396
 30
0.0
 11
0.4892439099396379
 21
0.1252602553206206
 31
0.0
  0
LINE
  5
654
  8
STATE_2
  6
CONTINUOUS
 62
     3
 10
0.0137145398001406
 20
0.1252602553206206
 30
0.0
 11
0.0492245033177393
 21
0.0555680278708766
 31
0.0
  0
LINE
  5
655
  8
STATE_2
  6
CONTINUOUS
 62
     3
 10
0.4892439099396379
 20
0.1252602553206206
 30
0.0
 11
0.4537339464220393
 21
0.0555680278708766
 31
0.0
  0
LINE
  5
656
  8
STATE_2
  6
CONTINUOUS
 62
     3
 10
0.0492245033177393
 20
0.0555680278708766
 30
0.0
 11
0.1045325681723698
 21
0.0002599630162461
 31
0.0
  0
LINE
  5
657
  8
STATE_2
  6
CONTINUOUS
 62
     3
 10
0.4537339464220393
 20
0.0555680278708766
 30
0.0
 11
0.3984258815674085
 21
0.0002599630162461
 31
0.0
  0
LINE
  5
658
  8
STATE_2
  6
CONTINUOUS
 62
     3
 10
0.1045325681723699
 20
0.0002599630162461
 30
0.0
 11
0.1742247956221138
 21
-0.0352500005013527
 31
0.0
  0
LINE
  5
659
  8
STATE_2
  6
CONTINUOUS
 62
     3
 10
0.3984258815674085
 20
0.0002599630162461
 30
0.0
 11
0.3287336541176645
 21
-0.0352500005013527
 31
0.0
  0
LINE
  5
65A
  8
STATE_2
  6
CONTINUOUS
 62
     3
 10
0.3287336541176645
 20
-0.0352500005013527
 30
0.0
 11
0.2514792248698892
 21
-0.0474859000403531
 31
0.0
  0
LINE
  5
65B
  8
STATE_2
  6
CONTINUOUS
 62
     3
 10
0.2514792248698892
 20
-0.0474859000403531
 30
0.0
 11
0.1742247956221139
 21
-0.0352500005013527
 31
0.0
  0
ENDBLK
  5
65D
  8
0
  0
BLOCK
  8
0
  2
CIRCLE_ST1-NONE_ST2-RED
 70
     2
 10
0.0
 20
0.0
 30
0.0
  3
CIRCLE_ST1-NONE_ST2-RED
  1

  0
ATTDEF
  5
166
  8
0
  6
CONTINUOUS
 62
     6
 10
-0.0668866252179554
 20
-0.1743521918446091
 30
0.0
 40
0.1
  1
NULL
  3

  2
LINKAGE
 70
     9
  0
CIRCLE
  5
167
  8
STATE_2
  6
CONTINUOUS
 62
     1
 10
0.2514792248698892
 20
0.202514684568396
 30
0.0
 40
0.2500005846087492
  0
CIRCLE
  5
168
  8
STATE_1
  6
CONTINUOUS
 62
     7
 10
0.2514792248698892
 20
0.202514684568396
 30
0.0
 40
0.25
  0
CIRCLE
  5
169
  8
0
  6
CONTINUOUS
 62
     1
 10
0.2514792248698892
 20
0.202514684568396
 30
0.0
 40
0.25
  0
INSERT
  5
16A
  8
STATE_2
  6
CONTINUOUS
 62
     1
  2
*U8
 10
0.0
 20
0.0
 30
0.0
1001
ACAD
1002
{
1000
R14_HATCH_DATA
1000
16A
1011
1.0
1021
0.0
1031
0.0
1021
0.0
1031
0.0
1011
0.0
1021
0.0
1031
0.0
1021
1.0
1031
0.0
1011
0.0
1021
0.0
1031
0.0
1021
0.0
1031
1.0
1040
0.0
1010
0.0
1020
0.0
1030
1.0
1000
SOLID
1070
     1
1070
     1
1071
        1
1071
        1
1071
        1
1070
     2
1040
0.2514792248698892
1040
0.202514684568396
1040
0.2500005846087492
1040
0.0
1040
6.2831853071795827
1070
     1
1071
        1
1005
167
1070
     0
1070
     1
1071
        1
1040
0.0
1040
0.0
1040
0.0
1002
}
  0
ENDBLK
  5
16E
  8
0
  0
BLOCK
  8
0
  2
*U8
 70
     1
 10
0.0
 20
0.0
 30
0.0
  3
*U8
  1

  0
SOLID
  5
65F
  8
STATE_2
  6
CONTINUOUS
 62
     1
 10
0.2514792248698892
 20
0.4525152691771453
 30
0.0
 11
0.1742247956221138
 21
0.4402793696381452
 31
0.0
 12
0.3287336541176646
 22
0.4402793696381452
 32
0.0
 13
0.3287336541176646
 23
0.4402793696381452
 33
0.0
  0
SOLID
  5
660
  8
STATE_2
  6
CONTINUOUS
 62
     1
 10
0.1742247956221138
 20
0.4402793696381452
 30
0.0
 11
0.1045325681723698
 21
0.4047694061205461
 31
0.0
 12
0.3984258815674087
 22
0.4047694061205461
 32
0.0
 13
0.3984258815674087
 23
0.4047694061205461
 33
0.0
  0
SOLID
  5
661
  8
STATE_2
  6
CONTINUOUS
 62
     1
 10
-0.1742247956221138
 20
0.4402793696381452
 30
0.0
 11
-0.3287336541176646
 21
0.4402793696381452
 31
0.0
 12
-0.3984258815674087
 22
0.4047694061205461
 32
0.0
 13
-0.3984258815674087
 23
0.4047694061205461
 33
0.0
210
0.0
220
0.0
230
-1.0
  0
SOLID
  5
662
  8
STATE_2
  6
CONTINUOUS
 62
     1
 10
0.1045325681723698
 20
0.4047694061205461
 30
0.0
 11
0.0492245033177393
 21
0.3494613412659154
 31
0.0
 12
0.4537339464220393
 22
0.3494613412659154
 32
0.0
 13
0.4537339464220393
 23
0.3494613412659154
 33
0.0
  0
SOLID
  5
663
  8
STATE_2
  6
CONTINUOUS
 62
     1
 10
-0.1045325681723698
 20
0.4047694061205461
 30
0.0
 11
-0.3984258815674087
 21
0.4047694061205461
 31
0.0
 12
-0.4537339464220393
 22
0.3494613412659154
 32
0.0
 13
-0.4537339464220393
 23
0.3494613412659154
 33
0.0
210
0.0
220
0.0
230
-1.0
  0
SOLID
  5
664
  8
STATE_2
  6
CONTINUOUS
 62
     1
 10
0.0492245033177393
 20
0.3494613412659154
 30
0.0
 11
0.0137145398001405
 21
0.2797691138161714
 31
0.0
 12
0.4892439099396383
 22
0.2797691138161714
 32
0.0
 13
0.4892439099396383
 23
0.2797691138161714
 33
0.0
  0
SOLID
  5
665
  8
STATE_2
  6
CONTINUOUS
 62
     1
 10
-0.0492245033177393
 20
0.3494613412659154
 30
0.0
 11
-0.4537339464220393
 21
0.3494613412659154
 31
0.0
 12
-0.4892439099396383
 22
0.2797691138161714
 32
0.0
 13
-0.4892439099396383
 23
0.2797691138161714
 33
0.0
210
0.0
220
0.0
230
-1.0
  0
SOLID
  5
666
  8
STATE_2
  6
CONTINUOUS
 62
     1
 10
0.0137145398001405
 20
0.2797691138161714
 30
0.0
 11
0.0014786402611401
 21
0.202514684568396
 31
0.0
 12
0.5014798094786384
 22
0.202514684568396
 32
0.0
 13
0.5014798094786384
 23
0.202514684568396
 33
0.0
  0
SOLID
  5
667
  8
STATE_2
  6
CONTINUOUS
 62
     1
 10
-0.0137145398001405
 20
0.2797691138161714
 30
0.0
 11
-0.4892439099396383
 21
0.2797691138161714
 31
0.0
 12
-0.5014798094786384
 22
0.202514684568396
 32
0.0
 13
-0.5014798094786384
 23
0.202514684568396
 33
0.0
210
0.0
220
0.0
230
-1.0
  0
SOLID
  5
668
  8
STATE_2
  6
CONTINUOUS
 62
     1
 10
0.0014786402611401
 20
0.202514684568396
 30
0.0
 11
0.0137145398001405
 21
0.1252602553206206
 31
0.0
 12
0.4892439099396379
 22
0.1252602553206206
 32
0.0
 13
0.4892439099396379
 23
0.1252602553206206
 33
0.0
  0
SOLID
  5
669
  8
STATE_2
  6
CONTINUOUS
 62
     1
 10
-0.0014786402611401
 20
0.202514684568396
 30
0.0
 11
-0.5014798094786384
 21
0.202514684568396
 31
0.0
 12
-0.4892439099396379
 22
0.1252602553206206
 32
0.0
 13
-0.4892439099396379
 23
0.1252602553206206
 33
0.0
210
0.0
220
0.0
230
-1.0
  0
SOLID
  5
66A
  8
STATE_2
  6
CONTINUOUS
 62
     1
 10
0.0137145398001406
 20
0.1252602553206206
 30
0.0
 11
0.0492245033177393
 21
0.0555680278708766
 31
0.0
 12
0.4537339464220393
 22
0.0555680278708766
 32
0.0
 13
0.4537339464220393
 23
0.0555680278708766
 33
0.0
  0
SOLID
  5
66B
  8
STATE_2
  6
CONTINUOUS
 62
     1
 10
-0.0137145398001406
 20
0.1252602553206206
 30
0.0
 11
-0.4892439099396379
 21
0.1252602553206206
 31
0.0
 12
-0.4537339464220393
 22
0.0555680278708766
 32
0.0
 13
-0.4537339464220393
 23
0.0555680278708766
 33
0.0
210
0.0
220
0.0
230
-1.0
  0
SOLID
  5
66C
  8
STATE_2
  6
CONTINUOUS
 62
     1
 10
0.0492245033177393
 20
0.0555680278708766
 30
0.0
 11
0.1045325681723698
 21
0.0002599630162461
 31
0.0
 12
0.3984258815674085
 22
0.0002599630162461
 32
0.0
 13
0.3984258815674085
 23
0.0002599630162461
 33
0.0
  0
SOLID
  5
66D
  8
STATE_2
  6
CONTINUOUS
 62
     1
 10
-0.0492245033177393
 20
0.0555680278708766
 30
0.0
 11
-0.4537339464220393
 21
0.0555680278708766
 31
0.0
 12
-0.3984258815674085
 22
0.0002599630162461
 32
0.0
 13
-0.3984258815674085
 23
0.0002599630162461
 33
0.0
210
0.0
220
0.0
230
-1.0
  0
SOLID
  5
66E
  8
STATE_2
  6
CONTINUOUS
 62
     1
 10
0.1045325681723699
 20
0.0002599630162461
 30
0.0
 11
0.1742247956221138
 21
-0.0352500005013527
 31
0.0
 12
0.3287336541176645
 22
-0.0352500005013527
 32
0.0
 13
0.3287336541176645
 23
-0.0352500005013527
 33
0.0
  0
SOLID
  5
66F
  8
STATE_2
  6
CONTINUOUS
 62
     1
 10
-0.1045325681723699
 20
0.0002599630162461
 30
0.0
 11
-0.3984258815674085
 21
0.0002599630162461
 31
0.0
 12
-0.3287336541176645
 22
-0.0352500005013527
 32
0.0
 13
-0.3287336541176645
 23
-0.0352500005013527
 33
0.0
210
0.0
220
0.0
230
-1.0
  0
SOLID
  5
670
  8
STATE_2
  6
CONTINUOUS
 62
     1
 10
-0.1742247956221139
 20
-0.0352500005013527
 30
0.0
 11
-0.3287336541176645
 21
-0.0352500005013527
 31
0.0
 12
-0.2514792248698892
 22
-0.0474859000403531
 32
0.0
 13
-0.2514792248698892
 23
-0.0474859000403531
 33
0.0
210
0.0
220
0.0
230
-1.0
  0
LINE
  5
671
  8
STATE_2
  6
CONTINUOUS
 62
     1
 10
0.2514792248698892
 20
0.4525152691771453
 30
0.0
 11
0.1742247956221138
 21
0.4402793696381452
 31
0.0
  0
LINE
  5
672
  8
STATE_2
  6
CONTINUOUS
 62
     1
 10
0.3287336541176646
 20
0.4402793696381452
 30
0.0
 11
0.2514792248698892
 21
0.4525152691771453
 31
0.0
  0
LINE
  5
673
  8
STATE_2
  6
CONTINUOUS
 62
     1
 10
0.1742247956221138
 20
0.4402793696381452
 30
0.0
 11
0.1045325681723698
 21
0.4047694061205461
 31
0.0
  0
LINE
  5
674
  8
STATE_2
  6
CONTINUOUS
 62
     1
 10
0.3287336541176646
 20
0.4402793696381452
 30
0.0
 11
0.3984258815674087
 21
0.4047694061205461
 31
0.0
  0
LINE
  5
675
  8
STATE_2
  6
CONTINUOUS
 62
     1
 10
0.1045325681723698
 20
0.4047694061205461
 30
0.0
 11
0.0492245033177393
 21
0.3494613412659154
 31
0.0
  0
LINE
  5
676
  8
STATE_2
  6
CONTINUOUS
 62
     1
 10
0.3984258815674087
 20
0.4047694061205461
 30
0.0
 11
0.4537339464220393
 21
0.3494613412659154
 31
0.0
  0
LINE
  5
677
  8
STATE_2
  6
CONTINUOUS
 62
     1
 10
0.0492245033177393
 20
0.3494613412659154
 30
0.0
 11
0.0137145398001405
 21
0.2797691138161714
 31
0.0
  0
LINE
  5
678
  8
STATE_2
  6
CONTINUOUS
 62
     1
 10
0.4537339464220393
 20
0.3494613412659154
 30
0.0
 11
0.4892439099396383
 21
0.2797691138161714
 31
0.0
  0
LINE
  5
679
  8
STATE_2
  6
CONTINUOUS
 62
     1
 10
0.0137145398001405
 20
0.2797691138161714
 30
0.0
 11
0.0014786402611401
 21
0.202514684568396
 31
0.0
  0
LINE
  5
67A
  8
STATE_2
  6
CONTINUOUS
 62
     1
 10
0.4892439099396383
 20
0.2797691138161714
 30
0.0
 11
0.5014798094786384
 21
0.202514684568396
 31
0.0
  0
LINE
  5
67B
  8
STATE_2
  6
CONTINUOUS
 62
     1
 10
0.0014786402611401
 20
0.202514684568396
 30
0.0
 11
0.0137145398001405
 21
0.1252602553206206
 31
0.0
  0
LINE
  5
67C
  8
STATE_2
  6
CONTINUOUS
 62
     1
 10
0.5014798094786384
 20
0.202514684568396
 30
0.0
 11
0.4892439099396379
 21
0.1252602553206206
 31
0.0
  0
LINE
  5
67D
  8
STATE_2
  6
CONTINUOUS
 62
     1
 10
0.0137145398001406
 20
0.1252602553206206
 30
0.0
 11
0.0492245033177393
 21
0.0555680278708766
 31
0.0
  0
LINE
  5
67E
  8
STATE_2
  6
CONTINUOUS
 62
     1
 10
0.4892439099396379
 20
0.1252602553206206
 30
0.0
 11
0.4537339464220393
 21
0.0555680278708766
 31
0.0
  0
LINE
  5
67F
  8
STATE_2
  6
CONTINUOUS
 62
     1
 10
0.0492245033177393
 20
0.0555680278708766
 30
0.0
 11
0.1045325681723698
 21
0.0002599630162461
 31
0.0
  0
LINE
  5
680
  8
STATE_2
  6
CONTINUOUS
 62
     1
 10
0.4537339464220393
 20
0.0555680278708766
 30
0.0
 11
0.3984258815674085
 21
0.0002599630162461
 31
0.0
  0
LINE
  5
681
  8
STATE_2
  6
CONTINUOUS
 62
     1
 10
0.1045325681723699
 20
0.0002599630162461
 30
0.0
 11
0.1742247956221138
 21
-0.0352500005013527
 31
0.0
  0
LINE
  5
682
  8
STATE_2
  6
CONTINUOUS
 62
     1
 10
0.3984258815674085
 20
0.0002599630162461
 30
0.0
 11
0.3287336541176645
 21
-0.0352500005013527
 31
0.0
  0
LINE
  5
683
  8
STATE_2
  6
CONTINUOUS
 62
     1
 10
0.3287336541176645
 20
-0.0352500005013527
 30
0.0
 11
0.2514792248698892
 21
-0.0474859000403531
 31
0.0
  0
LINE
  5
684
  8
STATE_2
  6
CONTINUOUS
 62
     1
 10
0.2514792248698892
 20
-0.0474859000403531
 30
0.0
 11
0.1742247956221139
 21
-0.0352500005013527
 31
0.0
  0
ENDBLK
  5
686
  8
0
  0
BLOCK
  8
0
  2
ARROW_HEAD_DISPLAY_REF
 70
     2
 10
0.0
 20
0.0
 30
0.0
  3
ARROW_HEAD_DISPLAY_REF
  1

  0
ATTDEF
  5
1A7
  8
0
 10
-0.25
 20
-0.25
 30
0.0
 40
0.075
  1
NULL
  3

  2
DISPLAY
 70
     9
  0
SOLID
  5
1A8
  8
0
 62
     5
 10
0.1249999999999996
 20
-0.0937500000000002
 30
0.0
 11
-0.1249999999999996
 21
0.0000000000000011
 31
0.0
 12
0.1249999999999996
 22
0.0937500000000002
 32
0.0
 13
0.1249999999999996
 23
0.0937500000000002
 33
0.0
  0
ENDBLK
  5
1A9
  8
0
  0
BLOCK
  8
0
  2
*U49
 70
     1
 10
0.0
 20
0.0
 30
0.0
  3
*U49
  1

  0
TEXT
  5
6B5
  8
0
 10
40.186816313024089
 20
33.66735396210052
 30
0.0
 40
0.5
  1
SEL-311B
  0
TEXT
  5
6B6
  8
0
 10
40.164306081100477
 20
32.825152961645763
 30
0.0
 40
0.5
  1
PROTECTION AND AUTOMATION SYSTEM
  0
ENDBLK
  5
6B8
  8
0
  0
BLOCK
  8
0
  2
*U50
 70
     1
 10
0.0
 20
0.0
 30
0.0
  3
*U50
  1

  0
TEXT
  5
6BA
  8
0
 10
40.186816313024089
 20
28.023682674443432
 30
0.0
 40
0.5
  1
SCHWEITZER ENGINEERING LABORATORIES
  0
ENDBLK
  5
6BC
  8
0
  0
BLOCK
  8
0
  2
*U51
 70
     1
 10
0.0
 20
0.0
 30
0.0
  3
*U51
  1

  0
TEXT
  5
6BE
  8
0
 10
36.350972628314331
 20
28.024964454833171
 30
0.0
 40
1.0
  1
SEL
  0
ENDBLK
  5
6C0
  8
0
  0
BLOCK
  8
0
  2
*U52
 70
     1
 10
0.0
 20
0.0
 30
0.0
  3
*U52
  1

  0
TEXT
  5
6C7
  8
0
 10
14.16989086367898
 20
34.732017905983589
 30
0.0
 40
0.2524322817673578
  1
EN
  0
ENDBLK
  5
6C9
  8
0
  0
BLOCK
  8
0
  2
*U53
 70
     1
 10
0.0
 20
0.0
 30
0.0
  3
*U53
  1

  0
TEXT
  5
6CB
  8
0
 10
15.3261646511886
 20
34.732017905983589
 30
0.0
 40
0.2524322817673578
  1
TRIP
  0
ENDBLK
  5
6CD
  8
0
  0
BLOCK
  8
0
  2
*U54
 70
     1
 10
0.0
 20
0.0
 30
0.0
  3
*U54
  1

  0
TEXT
  5
6CF
  8
0
 10
16.618383381710071
 20
34.732017905983589
 30
0.0
 40
0.2524322817673578
  1
TIME
  0
ENDBLK
  5
6D1
  8
0
  0
BLOCK
  8
0
  2
*U55
 70
     1
 10
0.0
 20
0.0
 30
0.0
  3
*U55
  1

  0
TEXT
  5
6D3
  8
0
 10
18.0990653676165
 20
34.732017905983589
 30
0.0
 40
0.2524322817673578
  1
DT
  0
ENDBLK
  5
6D5
  8
0
  0
BLOCK
  8
0
  2
*U56
 70
     1
 10
0.0
 20
0.0
 30
0.0
  3
*U56
  1

  0
TEXT
  5
6D7
  8
0
 10
19.184138098843189
 20
34.727540935092748
 30
0.0
 40
0.2524322817673578
  1
SOTF
  0
ENDBLK
  5
6D9
  8
0
  0
BLOCK
  8
0
  2
*U57
 70
     1
 10
0.0
 20
0.0
 30
0.0
  3
*U57
  1

  0
TEXT
  5
6DB
  8
0
 10
20.714497242518981
 20
34.727713126280861
 30
0.0
 40
0.2524322817673578
  1
RS
  0
ENDBLK
  5
6DD
  8
0
  0
BLOCK
  8
0
  2
*U58
 70
     1
 10
0.0
 20
0.0
 30
0.0
  3
*U58
  1

  0
TEXT
  5
6DF
  8
0
 10
22.021696606405879
 20
34.727713126280861
 30
0.0
 40
0.2524322817673578
  1
CY
  0
ENDBLK
  5
6E1
  8
0
  0
BLOCK
  8
0
  2
*U59
 70
     1
 10
0.0
 20
0.0
 30
0.0
  3
*U59
  1

  0
TEXT
  5
6E3
  8
0
 10
23.34379050806421
 20
34.727540935092748
 30
0.0
 40
0.2524322817673578
  1
LO
  0
ENDBLK
  5
6E5
  8
0
  0
BLOCK
  8
0
  2
*U60
 70
     1
 10
0.0
 20
0.0
 30
0.0
  3
*U60
  1

  0
TEXT
  5
6E7
  8
0
 10
14.29670967372104
 20
32.709922866143998
 30
0.0
 40
0.2524322817673578
  1
A
  0
ENDBLK
  5
6E9
  8
0
  0
BLOCK
  8
0
  2
*U61
 70
     1
 10
0.0
 20
0.0
 30
0.0
  3
*U61
  1

  0
TEXT
  5
6EB
  8
0
 10
15.60313417726146
 20
32.709922866143998
 30
0.0
 40
0.2524322817673578
  1
B
  0
ENDBLK
  5
6ED
  8
0
  0
BLOCK
  8
0
  2
*U62
 70
     1
 10
0.0
 20
0.0
 30
0.0
  3
*U62
  1

  0
TEXT
  5
6EF
  8
0
 10
16.905081709911059
 20
32.705618086441277
 30
0.0
 40
0.2524322817673578
  1
C
  0
ENDBLK
  5
6F1
  8
0
  0
BLOCK
  8
0
  2
*U63
 70
     1
 10
0.0
 20
0.0
 30
0.0
  3
*U63
  1

  0
TEXT
  5
6F3
  8
0
 10
18.208665058847679
 20
32.705618086441277
 30
0.0
 40
0.2524322817673578
  1
G
  0
ENDBLK
  5
6F5
  8
0
  0
BLOCK
  8
0
  2
*U64
 70
     1
 10
0.0
 20
0.0
 30
0.0
  3
*U64
  1

  0
TEXT
  5
6F7
  8
0
 10
19.5692436910483
 20
32.708889719015353
 30
0.0
 40
0.2524322817673578
  1
1
  0
ENDBLK
  5
6F9
  8
0
  0
BLOCK
  8
0
  2
*U65
 70
     1
 10
0.0
 20
0.0
 30
0.0
  3
*U65
  1

  0
TEXT
  5
6FB
  8
0
 10
20.87015807656924
 20
32.708889719015353
 30
0.0
 40
0.2524322817673578
  1
2
  0
ENDBLK
  5
6FD
  8
0
  0
BLOCK
  8
0
  2
*U66
 70
     1
 10
0.0
 20
0.0
 30
0.0
  3
*U66
  1

  0
TEXT
  5
6FF
  8
0
 10
22.17658258010967
 20
32.708889719015353
 30
0.0
 40
0.2524322817673578
  1
3
  0
ENDBLK
  5
701
  8
0
  0
BLOCK
  8
0
  2
*U67
 70
     1
 10
0.0
 20
0.0
 30
0.0
  3
*U67
  1

  0
TEXT
  5
703
  8
0
 10
23.41292527008985
 20
32.708889719015353
 30
0.0
 40
0.2524322817673578
  1
51
  0
ENDBLK
  5
705
  8
0
  0
BLOCK
  8
0
  2
*U68
 70
     1
 10
0.0
 20
0.0
 30
0.0
  3
*U68
  1

  0
TEXT
  5
707
  8
0
 10
15.15492051461451
 20
32.290242738322341
 30
0.0
 40
0.2524322817673578
  1
FAULT
  0
ENDBLK
  5
709
  8
0
  0
BLOCK
  8
0
  2
*U69
 70
     1
 10
0.0
 20
0.0
 30
0.0
  3
*U69
  1

  0
TEXT
  5
70B
  8
0
 10
16.579037695227228
 20
32.290242738322341
 30
0.0
 40
0.2524322817673578
  1
TYPE
  0
ENDBLK
  5
70D
  8
0
  0
BLOCK
  8
0
  2
*U70
 70
     1
 10
0.0
 20
0.0
 30
0.0
  3
*U70
  1

  0
TEXT
  5
70F
  8
0
 10
19.781134907375751
 20
32.285765767431513
 30
0.0
 40
0.2524322817673578
  1
ZONE / LEVEL
  0
ENDBLK
  5
711
  8
0
  0
BLOCK
  8
0
  2
*U71
 70
     1
 10
0.0
 20
0.0
 30
0.0
  3
*U71
  1

  0
TEXT
  5
713
  8
0
 10
21.292380829171481
 20
35.166297462731599
 30
0.0
 40
0.2524322817673578
  1
RECLOSER
  0
ENDBLK
  5
715
  8
0
  0
BLOCK
  8
0
  2
*U72
 70
     1
 10
0.0
 20
0.0
 30
0.0
  3
*U72
  1

  0
TEXT
  5
717
  8
0
 10
25.125975899465448
 20
32.671499882427923
 30
0.0
 40
0.2524322817673578
  1
TARGET
  0
ENDBLK
  5
719
  8
0
  0
BLOCK
  8
0
  2
*U73
 70
     1
 10
0.0
 20
0.0
 30
0.0
  3
*U73
  1

  0
TEXT
  5
71B
  8
0
 10
25.243496385349641
 20
32.127662063285911
 30
0.0
 40
0.2524322817673578
  1
RESET
  0
ENDBLK
  5
71D
  8
0
  0
BLOCK
  8
0
  2
*U74
 70
     1
 10
0.0
 20
0.0
 30
0.0
  3
*U74
  1

  0
TEXT
  5
71F
  8
0
 10
26.75134719364965
 20
32.40388571915183
 30
0.0
 40
0.2524322817673578
  1
METER
  0
ENDBLK
  5
721
  8
0
  0
BLOCK
  8
0
  2
*U75
 70
     1
 10
0.0
 20
0.0
 30
0.0
  3
*U75
  1

  0
TEXT
  5
723
  8
0
 10
25.356281613560839
 20
31.22103848423302
 30
0.0
 40
0.2524322817673578
  1
LAMP
  0
ENDBLK
  5
725
  8
0
  0
BLOCK
  8
0
  2
*U76
 70
     1
 10
0.0
 20
0.0
 30
0.0
  3
*U76
  1

  0
TEXT
  5
727
  8
0
 10
25.390461564400429
 20
30.672895885388289
 30
0.0
 40
0.2524322817673578
  1
TEST
  0
ENDBLK
  5
729
  8
0
  0
BLOCK
  8
0
  2
*U77
 70
     1
 10
0.0
 20
0.0
 30
0.0
  3
*U77
  1

  0
TEXT
  5
72B
  8
0
 10
26.661549489050959
 20
30.944814761551491
 30
0.0
 40
0.2524322817673578
  1
CANCEL
  0
ENDBLK
  5
72D
  8
0
  0
BLOCK
  8
0
  2
*U78
 70
     1
 10
0.0
 20
0.0
 30
0.0
  3
*U78
  1

  0
TEXT
  5
72F
  8
0
 10
28.20676578517056
 20
32.399580939449109
 30
0.0
 40
0.2524322817673578
  1
EVENTS
  0
ENDBLK
  5
731
  8
0
  0
BLOCK
  8
0
  2
*U79
 70
     1
 10
0.0
 20
0.0
 30
0.0
  3
*U79
  1

  0
TEXT
  5
733
  8
0
 10
29.760333353913431
 20
32.399580939449109
 30
0.0
 40
0.2524322817673578
  1
STATUS
  0
ENDBLK
  5
735
  8
0
  0
BLOCK
  8
0
  2
*U80
 70
     1
 10
0.0
 20
0.0
 30
0.0
  3
*U80
  1

  0
TEXT
  5
737
  8
0
 10
31.368829911662971
 20
32.399408748261003
 30
0.0
 40
0.2524322817673578
  1
OTHER
  0
ENDBLK
  5
739
  8
0
  0
BLOCK
  8
0
  2
*U81
 70
     1
 10
0.0
 20
0.0
 30
0.0
  3
*U81
  1

  0
TEXT
  5
73B
  8
0
 10
33.182578365638093
 20
32.399580939449109
 30
0.0
 40
0.2524322817673578
  1
SET
  0
ENDBLK
  5
73D
  8
0
  0
BLOCK
  8
0
  2
*U82
 70
     1
 10
0.0
 20
0.0
 30
0.0
  3
*U82
  1

  0
TEXT
  5
73F
  8
0
 10
34.477256483059527
 20
32.399580939449109
 30
0.0
 40
0.2524322817673578
  1
CNTRL
  0
ENDBLK
  5
741
  8
0
  0
BLOCK
  8
0
  2
*U83
 70
     1
 10
0.0
 20
0.0
 30
0.0
  3
*U83
  1

  0
TEXT
  5
743
  8
0
 10
34.349748908265042
 20
30.944814761551491
 30
0.0
 40
0.2524322817673578
  1
CANCEL
  0
ENDBLK
  5
745
  8
0
  0
BLOCK
  8
0
  2
*U84
 70
     1
 10
0.0
 20
0.0
 30
0.0
  3
*U84
  1

  0
TEXT
  5
747
  8
0
 10
35.95686793650971
 20
32.399408748261003
 30
0.0
 40
0.2524322817673578
  1
GROUP
  0
ENDBLK
  5
749
  8
0
  0
BLOCK
  8
0
  2
*U85
 70
     1
 10
0.0
 20
0.0
 30
0.0
  3
*U85
  1

  0
TEXT
  5
74B
  8
0
 10
36.193114246594853
 20
30.949119541254209
 30
0.0
 40
0.2524322817673578
  1
EDIT
  0
ENDBLK
  5
74D
  8
0
  0
BLOCK
  8
0
  2
*U86
 70
     1
 10
0.0
 20
0.0
 30
0.0
  3
*U86
  1

  0
SOLID
  5
74F
  8
0
  6
CONTINUOUS
 62
     7
 10
33.399367071466962
 20
31.499386486427039
 30
0.0
 11
33.399367071466962
 21
31.499386486427039
 31
0.0
 12
33.660408912639731
 22
31.499386486427039
 32
0.0
 13
33.660408912639731
 23
31.499386486427039
 33
0.0
  0
SOLID
  5
750
  8
0
  6
CONTINUOUS
 62
     7
 10
31.992248108210529
 20
31.499386486427039
 30
0.0
 11
31.946872658580631
 21
31.20155182302156
 31
0.0
 12
32.037623557840433
 22
31.20155182302156
 32
0.0
 13
32.037623557840433
 23
31.20155182302156
 33
0.0
  0
SOLID
  5
751
  8
0
  6
CONTINUOUS
 62
     7
 10
33.399367071466962
 20
31.499386486427039
 30
0.0
 11
33.444742521096863
 21
31.20155182302156
 31
0.0
 12
33.615033463009837
 22
31.20155182302156
 32
0.0
 13
33.615033463009837
 23
31.20155182302156
 33
0.0
  0
SOLID
  5
752
  8
0
  6
CONTINUOUS
 62
     7
 10
-33.399367071466962
 20
31.499386486427039
 30
0.0
 11
-33.660408912639731
 21
31.499386486427039
 31
0.0
 12
-33.615033463009837
 22
31.20155182302156
 32
0.0
 13
-33.615033463009837
 23
31.20155182302156
 33
0.0
210
0.0
220
0.0
230
-1.0
  0
SOLID
  5
753
  8
0
  6
CONTINUOUS
 62
     7
 10
29.345323924516769
 20
31.20155182302156
 30
0.0
 11
28.48861275653304
 21
31.071030902435169
 31
0.0
 12
29.345323924516769
 22
31.071030902435169
 32
0.0
 13
29.345323924516769
 23
31.071030902435169
 33
0.0
  0
SOLID
  5
754
  8
0
  6
CONTINUOUS
 62
     7
 10
30.026252640375851
 20
31.20155182302156
 30
0.0
 11
30.026252640375851
 21
31.071030902435169
 31
0.0
 12
30.88296380835958
 22
31.071030902435169
 32
0.0
 13
30.88296380835958
 23
31.071030902435169
 33
0.0
  0
SOLID
  5
755
  8
0
  6
CONTINUOUS
 62
     7
 10
31.946872658580631
 20
31.20155182302156
 30
0.0
 11
31.926987647917329
 21
31.071030902435169
 31
0.0
 12
32.057508568503749
 22
31.071030902435169
 32
0.0
 13
32.057508568503749
 23
31.071030902435169
 33
0.0
  0
SOLID
  5
756
  8
0
  6
CONTINUOUS
 62
     7
 10
-31.946872658580631
 20
31.20155182302156
 30
0.0
 11
-32.037623557840433
 21
31.20155182302156
 31
0.0
 12
-32.057508568503749
 22
31.071030902435169
 32
0.0
 13
-32.057508568503749
 23
31.071030902435169
 33
0.0
210
0.0
220
0.0
230
-1.0
  0
SOLID
  5
757
  8
0
  6
CONTINUOUS
 62
     7
 10
33.444742521096863
 20
31.20155182302156
 30
0.0
 11
33.464627531760151
 21
31.071030902435169
 31
0.0
 12
33.59514845234655
 22
31.071030902435169
 32
0.0
 13
33.59514845234655
 23
31.071030902435169
 33
0.0
  0
SOLID
  5
758
  8
0
  6
CONTINUOUS
 62
     7
 10
-33.444742521096863
 20
31.20155182302156
 30
0.0
 11
-33.615033463009837
 21
31.20155182302156
 31
0.0
 12
-33.59514845234655
 22
31.071030902435169
 32
0.0
 13
-33.59514845234655
 23
31.071030902435169
 33
0.0
210
0.0
220
0.0
230
-1.0
  0
SOLID
  5
759
  8
0
  6
CONTINUOUS
 62
     7
 10
-28.48861275653304
 20
31.071030902435169
 30
0.0
 11
-29.345323924516769
 21
31.071030902435169
 31
0.0
 12
-29.345323924516769
 22
30.94050998184877
 32
0.0
 13
-29.345323924516769
 23
30.94050998184877
 33
0.0
210
0.0
220
0.0
230
-1.0
  0
SOLID
  5
75A
  8
0
  6
CONTINUOUS
 62
     7
 10
-30.026252640375851
 20
31.071030902435169
 30
0.0
 11
-30.88296380835958
 21
31.071030902435169
 31
0.0
 12
-30.026252640375851
 22
30.94050998184877
 32
0.0
 13
-30.026252640375851
 23
30.94050998184877
 33
0.0
210
0.0
220
0.0
230
-1.0
  0
SOLID
  5
75B
  8
0
  6
CONTINUOUS
 62
     7
 10
31.926987647917329
 20
31.071030902435169
 30
0.0
 11
31.907102637254042
 21
30.94050998184877
 31
0.0
 12
32.07739357916703
 22
30.94050998184877
 32
0.0
 13
32.07739357916703
 23
30.94050998184877
 33
0.0
  0
SOLID
  5
75C
  8
0
  6
CONTINUOUS
 62
     7
 10
-31.926987647917329
 20
31.071030902435169
 30
0.0
 11
-32.057508568503749
 21
31.071030902435169
 31
0.0
 12
-32.07739357916703
 22
30.94050998184877
 32
0.0
 13
-32.07739357916703
 23
30.94050998184877
 33
0.0
210
0.0
220
0.0
230
-1.0
  0
SOLID
  5
75D
  8
0
  6
CONTINUOUS
 62
     7
 10
33.464627531760151
 20
31.071030902435169
 30
0.0
 11
33.484512542423452
 21
30.94050998184877
 31
0.0
 12
33.575263441683248
 22
30.94050998184877
 32
0.0
 13
33.575263441683248
 23
30.94050998184877
 33
0.0
  0
SOLID
  5
75E
  8
0
  6
CONTINUOUS
 62
     7
 10
-33.464627531760151
 20
31.071030902435169
 30
0.0
 11
-33.59514845234655
 21
31.071030902435169
 31
0.0
 12
-33.575263441683248
 22
30.94050998184877
 32
0.0
 13
-33.575263441683248
 23
30.94050998184877
 33
0.0
210
0.0
220
0.0
230
-1.0
  0
SOLID
  5
75F
  8
0
  6
CONTINUOUS
 62
     7
 10
31.907102637254042
 20
30.94050998184877
 30
0.0
 11
31.86172718762414
 21
30.642675318443288
 31
0.0
 12
32.122769028796917
 22
30.642675318443288
 32
0.0
 13
32.122769028796917
 23
30.642675318443288
 33
0.0
  0
SOLID
  5
760
  8
0
  6
CONTINUOUS
 62
     7
 10
-31.907102637254042
 20
30.94050998184877
 30
0.0
 11
-32.07739357916703
 21
30.94050998184877
 31
0.0
 12
-32.122769028796917
 22
30.642675318443288
 32
0.0
 13
-32.122769028796917
 23
30.642675318443288
 33
0.0
210
0.0
220
0.0
230
-1.0
  0
SOLID
  5
761
  8
0
  6
CONTINUOUS
 62
     7
 10
-33.484512542423452
 20
30.94050998184877
 30
0.0
 11
-33.575263441683248
 21
30.94050998184877
 31
0.0
 12
-33.529887992053347
 22
30.642675318443288
 32
0.0
 13
-33.529887992053347
 23
30.642675318443288
 33
0.0
210
0.0
220
0.0
230
-1.0
  0
SOLID
  5
762
  8
0
  6
CONTINUOUS
 62
     7
 10
31.86172718762414
 20
30.642675318443288
 30
0.0
 11
31.86172718762414
 21
30.642675318443288
 31
0.0
 12
32.122769028796917
 22
30.642675318443288
 32
0.0
 13
32.122769028796917
 23
30.642675318443288
 33
0.0
  0
LINE
  5
763
  8
0
  6
CONTINUOUS
 62
     7
 10
33.399367071466962
 20
31.499386486427039
 30
0.0
 11
33.660408912639731
 21
31.499386486427039
 31
0.0
  0
LINE
  5
764
  8
0
  6
CONTINUOUS
 62
     7
 10
31.992248108210529
 20
31.499386486427039
 30
0.0
 11
31.946872658580631
 21
31.20155182302156
 31
0.0
  0
LINE
  5
765
  8
0
  6
CONTINUOUS
 62
     7
 10
32.037623557840433
 20
31.20155182302156
 30
0.0
 11
31.992248108210529
 21
31.499386486427039
 31
0.0
  0
LINE
  5
766
  8
0
  6
CONTINUOUS
 62
     7
 10
33.399367071466962
 20
31.499386486427039
 30
0.0
 11
33.444742521096863
 21
31.20155182302156
 31
0.0
  0
LINE
  5
767
  8
0
  6
CONTINUOUS
 62
     7
 10
33.660408912639731
 20
31.499386486427039
 30
0.0
 11
33.615033463009837
 21
31.20155182302156
 31
0.0
  0
LINE
  5
768
  8
0
  6
CONTINUOUS
 62
     7
 10
29.345323924516769
 20
31.20155182302156
 30
0.0
 11
28.48861275653304
 21
31.071030902435169
 31
0.0
  0
LINE
  5
769
  8
0
  6
CONTINUOUS
 62
     7
 10
29.345323924516769
 20
31.071030902435169
 30
0.0
 11
29.345323924516769
 21
31.20155182302156
 31
0.0
  0
LINE
  5
76A
  8
0
  6
CONTINUOUS
 62
     7
 10
30.026252640375851
 20
31.20155182302156
 30
0.0
 11
30.026252640375851
 21
31.071030902435169
 31
0.0
  0
LINE
  5
76B
  8
0
  6
CONTINUOUS
 62
     7
 10
30.88296380835958
 20
31.071030902435169
 30
0.0
 11
30.026252640375851
 21
31.20155182302156
 31
0.0
  0
LINE
  5
76C
  8
0
  6
CONTINUOUS
 62
     7
 10
31.946872658580631
 20
31.20155182302156
 30
0.0
 11
31.926987647917329
 21
31.071030902435169
 31
0.0
  0
LINE
  5
76D
  8
0
  6
CONTINUOUS
 62
     7
 10
32.037623557840433
 20
31.20155182302156
 30
0.0
 11
32.057508568503749
 21
31.071030902435169
 31
0.0
  0
LINE
  5
76E
  8
0
  6
CONTINUOUS
 62
     7
 10
33.444742521096863
 20
31.20155182302156
 30
0.0
 11
33.464627531760151
 21
31.071030902435169
 31
0.0
  0
LINE
  5
76F
  8
0
  6
CONTINUOUS
 62
     7
 10
33.615033463009837
 20
31.20155182302156
 30
0.0
 11
33.59514845234655
 21
31.071030902435169
 31
0.0
  0
LINE
  5
770
  8
0
  6
CONTINUOUS
 62
     7
 10
29.345323924516769
 20
31.071030902435169
 30
0.0
 11
29.345323924516769
 21
30.94050998184877
 31
0.0
  0
LINE
  5
771
  8
0
  6
CONTINUOUS
 62
     7
 10
29.345323924516769
 20
30.94050998184877
 30
0.0
 11
28.48861275653304
 21
31.071030902435169
 31
0.0
  0
LINE
  5
772
  8
0
  6
CONTINUOUS
 62
     7
 10
30.88296380835958
 20
31.071030902435169
 30
0.0
 11
30.026252640375851
 21
30.94050998184877
 31
0.0
  0
LINE
  5
773
  8
0
  6
CONTINUOUS
 62
     7
 10
30.026252640375851
 20
30.94050998184877
 30
0.0
 11
30.026252640375851
 21
31.071030902435169
 31
0.0
  0
LINE
  5
774
  8
0
  6
CONTINUOUS
 62
     7
 10
31.926987647917329
 20
31.071030902435169
 30
0.0
 11
31.907102637254042
 21
30.94050998184877
 31
0.0
  0
LINE
  5
775
  8
0
  6
CONTINUOUS
 62
     7
 10
32.057508568503749
 20
31.071030902435169
 30
0.0
 11
32.07739357916703
 21
30.94050998184877
 31
0.0
  0
LINE
  5
776
  8
0
  6
CONTINUOUS
 62
     7
 10
33.464627531760151
 20
31.071030902435169
 30
0.0
 11
33.484512542423452
 21
30.94050998184877
 31
0.0
  0
LINE
  5
777
  8
0
  6
CONTINUOUS
 62
     7
 10
33.59514845234655
 20
31.071030902435169
 30
0.0
 11
33.575263441683248
 21
30.94050998184877
 31
0.0
  0
LINE
  5
778
  8
0
  6
CONTINUOUS
 62
     7
 10
31.907102637254042
 20
30.94050998184877
 30
0.0
 11
31.86172718762414
 21
30.642675318443288
 31
0.0
  0
LINE
  5
779
  8
0
  6
CONTINUOUS
 62
     7
 10
32.07739357916703
 20
30.94050998184877
 30
0.0
 11
32.122769028796917
 21
30.642675318443288
 31
0.0
  0
LINE
  5
77A
  8
0
  6
CONTINUOUS
 62
     7
 10
33.575263441683248
 20
30.94050998184877
 30
0.0
 11
33.529887992053347
 21
30.642675318443288
 31
0.0
  0
LINE
  5
77B
  8
0
  6
CONTINUOUS
 62
     7
 10
33.529887992053347
 20
30.642675318443288
 30
0.0
 11
33.484512542423452
 21
30.94050998184877
 31
0.0
  0
LINE
  5
77C
  8
0
  6
CONTINUOUS
 62
     7
 10
31.86172718762414
 20
30.642675318443288
 30
0.0
 11
32.122769028796917
 21
30.642675318443288
 31
0.0
  0
ENDBLK
  5
77E
  8
0
  0
BLOCK
  8
0
  2
*U87
 70
     1
 10
0.0
 20
0.0
 30
0.0
  3
*U87
  1

  0
SOLID
  5
794
  8
0
  6
CONTINUOUS
 62
     7
 10
25.841688572839271
 20
34.336508771866256
 30
0.0
 11
25.723663129464551
 21
34.323210498178213
 31
0.0
 12
25.959714016214001
 22
34.323210498178213
 32
0.0
 13
25.959714016214001
 23
34.323210498178213
 33
0.0
  0
SOLID
  5
795
  8
0
  6
CONTINUOUS
 62
     7
 10
27.379328456682089
 20
34.336508771866256
 30
0.0
 11
27.26130301330738
 21
34.323210498178213
 31
0.0
 12
27.497353900056812
 22
34.323210498178213
 32
0.0
 13
27.497353900056812
 23
34.323210498178213
 33
0.0
  0
SOLID
  5
796
  8
0
  6
CONTINUOUS
 62
     7
 10
28.91696834052491
 20
34.336508771866256
 30
0.0
 11
28.79894289715018
 21
34.323210498178213
 31
0.0
 12
29.03499378389963
 22
34.323210498178213
 32
0.0
 13
29.03499378389963
 23
34.323210498178213
 33
0.0
  0
SOLID
  5
797
  8
0
  6
CONTINUOUS
 62
     7
 10
30.454608224367721
 20
34.336508771866256
 30
0.0
 11
30.336582780992991
 21
34.323210498178213
 31
0.0
 12
30.572633667742451
 22
34.323210498178213
 32
0.0
 13
30.572633667742451
 23
34.323210498178213
 33
0.0
  0
SOLID
  5
798
  8
0
  6
CONTINUOUS
 62
     7
 10
31.992248108210529
 20
34.336508771866256
 30
0.0
 11
31.874222664835809
 21
34.323210498178213
 31
0.0
 12
32.110273551585252
 22
34.323210498178213
 32
0.0
 13
32.110273551585252
 23
34.323210498178213
 33
0.0
  0
SOLID
  5
799
  8
0
  6
CONTINUOUS
 62
     7
 10
33.529887992053347
 20
34.336508771866256
 30
0.0
 11
33.411862548678627
 21
34.323210498178213
 31
0.0
 12
33.647913435428073
 22
34.323210498178213
 32
0.0
 13
33.647913435428073
 23
34.323210498178213
 33
0.0
  0
SOLID
  5
79A
  8
0
  6
CONTINUOUS
 62
     7
 10
35.067527875896161
 20
34.336508771866256
 30
0.0
 11
34.949502432521442
 21
34.323210498178213
 31
0.0
 12
35.18555331927088
 22
34.323210498178213
 32
0.0
 13
35.18555331927088
 23
34.323210498178213
 33
0.0
  0
SOLID
  5
79B
  8
0
  6
CONTINUOUS
 62
     7
 10
36.605167759738983
 20
34.336508771866256
 30
0.0
 11
36.487142316364263
 21
34.323210498178213
 31
0.0
 12
36.723193203113702
 22
34.323210498178213
 32
0.0
 13
36.723193203113702
 23
34.323210498178213
 33
0.0
  0
SOLID
  5
79C
  8
0
  6
CONTINUOUS
 62
     7
 10
25.723663129464551
 20
34.323210498178213
 30
0.0
 11
25.611555974651971
 21
34.28398250808555
 31
0.0
 12
26.071821171026581
 22
34.28398250808555
 32
0.0
 13
26.071821171026581
 23
34.28398250808555
 33
0.0
  0
SOLID
  5
79D
  8
0
  6
CONTINUOUS
 62
     7
 10
-25.723663129464551
 20
34.323210498178213
 30
0.0
 11
-25.959714016214001
 21
34.323210498178213
 31
0.0
 12
-26.071821171026581
 22
34.28398250808555
 32
0.0
 13
-26.071821171026581
 23
34.28398250808555
 33
0.0
210
0.0
220
0.0
230
-1.0
  0
SOLID
  5
79E
  8
0
  6
CONTINUOUS
 62
     7
 10
27.26130301330738
 20
34.323210498178213
 30
0.0
 11
27.149195858494789
 21
34.28398250808555
 31
0.0
 12
27.609461054869389
 22
34.28398250808555
 32
0.0
 13
27.609461054869389
 23
34.28398250808555
 33
0.0
  0
SOLID
  5
79F
  8
0
  6
CONTINUOUS
 62
     7
 10
-27.26130301330738
 20
34.323210498178213
 30
0.0
 11
-27.497353900056812
 21
34.323210498178213
 31
0.0
 12
-27.609461054869389
 22
34.28398250808555
 32
0.0
 13
-27.609461054869389
 23
34.28398250808555
 33
0.0
210
0.0
220
0.0
230
-1.0
  0
SOLID
  5
7A0
  8
0
  6
CONTINUOUS
 62
     7
 10
28.79894289715018
 20
34.323210498178213
 30
0.0
 11
28.6868357423376
 21
34.28398250808555
 31
0.0
 12
29.14710093871221
 22
34.28398250808555
 32
0.0
 13
29.14710093871221
 23
34.28398250808555
 33
0.0
  0
SOLID
  5
7A1
  8
0
  6
CONTINUOUS
 62
     7
 10
-28.79894289715018
 20
34.323210498178213
 30
0.0
 11
-29.03499378389963
 21
34.323210498178213
 31
0.0
 12
-29.14710093871221
 22
34.28398250808555
 32
0.0
 13
-29.14710093871221
 23
34.28398250808555
 33
0.0
210
0.0
220
0.0
230
-1.0
  0
SOLID
  5
7A2
  8
0
  6
CONTINUOUS
 62
     7
 10
30.336582780992991
 20
34.323210498178213
 30
0.0
 11
30.224475626180421
 21
34.28398250808555
 31
0.0
 12
30.684740822555021
 22
34.28398250808555
 32
0.0
 13
30.684740822555021
 23
34.28398250808555
 33
0.0
  0
SOLID
  5
7A3
  8
0
  6
CONTINUOUS
 62
     7
 10
-30.336582780992991
 20
34.323210498178213
 30
0.0
 11
-30.572633667742451
 21
34.323210498178213
 31
0.0
 12
-30.684740822555021
 22
34.28398250808555
 32
0.0
 13
-30.684740822555021
 23
34.28398250808555
 33
0.0
210
0.0
220
0.0
230
-1.0
  0
SOLID
  5
7A4
  8
0
  6
CONTINUOUS
 62
     7
 10
31.874222664835809
 20
34.323210498178213
 30
0.0
 11
31.762115510023229
 21
34.28398250808555
 31
0.0
 12
32.22238070639785
 22
34.28398250808555
 32
0.0
 13
32.22238070639785
 23
34.28398250808555
 33
0.0
  0
SOLID
  5
7A5
  8
0
  6
CONTINUOUS
 62
     7
 10
-31.874222664835809
 20
34.323210498178213
 30
0.0
 11
-32.110273551585252
 21
34.323210498178213
 31
0.0
 12
-32.22238070639785
 22
34.28398250808555
 32
0.0
 13
-32.22238070639785
 23
34.28398250808555
 33
0.0
210
0.0
220
0.0
230
-1.0
  0
SOLID
  5
7A6
  8
0
  6
CONTINUOUS
 62
     7
 10
33.411862548678627
 20
34.323210498178213
 30
0.0
 11
33.29975539386605
 21
34.28398250808555
 31
0.0
 12
33.76002059024065
 22
34.28398250808555
 32
0.0
 13
33.76002059024065
 23
34.28398250808555
 33
0.0
  0
SOLID
  5
7A7
  8
0
  6
CONTINUOUS
 62
     7
 10
-33.411862548678627
 20
34.323210498178213
 30
0.0
 11
-33.647913435428073
 21
34.323210498178213
 31
0.0
 12
-33.76002059024065
 22
34.28398250808555
 32
0.0
 13
-33.76002059024065
 23
34.28398250808555
 33
0.0
210
0.0
220
0.0
230
-1.0
  0
SOLID
  5
7A8
  8
0
  6
CONTINUOUS
 62
     7
 10
34.949502432521442
 20
34.323210498178213
 30
0.0
 11
34.837395277708858
 21
34.28398250808555
 31
0.0
 12
35.29766047408345
 22
34.28398250808555
 32
0.0
 13
35.29766047408345
 23
34.28398250808555
 33
0.0
  0
SOLID
  5
7A9
  8
0
  6
CONTINUOUS
 62
     7
 10
-34.949502432521442
 20
34.323210498178213
 30
0.0
 11
-35.18555331927088
 21
34.323210498178213
 31
0.0
 12
-35.29766047408345
 22
34.28398250808555
 32
0.0
 13
-35.29766047408345
 23
34.28398250808555
 33
0.0
210
0.0
220
0.0
230
-1.0
  0
SOLID
  5
7AA
  8
0
  6
CONTINUOUS
 62
     7
 10
36.487142316364263
 20
34.323210498178213
 30
0.0
 11
36.375035161551672
 21
34.28398250808555
 31
0.0
 12
36.835300357926293
 22
34.28398250808555
 32
0.0
 13
36.835300357926293
 23
34.28398250808555
 33
0.0
  0
SOLID
  5
7AB
  8
0
  6
CONTINUOUS
 62
     7
 10
-36.487142316364263
 20
34.323210498178213
 30
0.0
 11
-36.723193203113702
 21
34.323210498178213
 31
0.0
 12
-36.835300357926293
 22
34.28398250808555
 32
0.0
 13
-36.835300357926293
 23
34.28398250808555
 33
0.0
210
0.0
220
0.0
230
-1.0
  0
SOLID
  5
7AC
  8
0
  6
CONTINUOUS
 62
     7
 10
25.611555974651971
 20
34.28398250808555
 30
0.0
 11
25.510988629262538
 21
34.220791856813349
 31
0.0
 12
26.17238851641601
 22
34.220791856813349
 32
0.0
 13
26.17238851641601
 23
34.220791856813349
 33
0.0
  0
SOLID
  5
7AD
  8
0
  6
CONTINUOUS
 62
     7
 10
-25.611555974651971
 20
34.28398250808555
 30
0.0
 11
-26.071821171026581
 21
34.28398250808555
 31
0.0
 12
-26.17238851641601
 22
34.220791856813349
 32
0.0
 13
-26.17238851641601
 23
34.220791856813349
 33
0.0
210
0.0
220
0.0
230
-1.0
  0
SOLID
  5
7AE
  8
0
  6
CONTINUOUS
 62
     7
 10
27.149195858494789
 20
34.28398250808555
 30
0.0
 11
27.04862851310536
 21
34.220791856813349
 31
0.0
 12
27.710028400258821
 22
34.220791856813349
 32
0.0
 13
27.710028400258821
 23
34.220791856813349
 33
0.0
  0
SOLID
  5
7AF
  8
0
  6
CONTINUOUS
 62
     7
 10
-27.149195858494789
 20
34.28398250808555
 30
0.0
 11
-27.609461054869389
 21
34.28398250808555
 31
0.0
 12
-27.710028400258821
 22
34.220791856813349
 32
0.0
 13
-27.710028400258821
 23
34.220791856813349
 33
0.0
210
0.0
220
0.0
230
-1.0
  0
SOLID
  5
7B0
  8
0
  6
CONTINUOUS
 62
     7
 10
28.6868357423376
 20
34.28398250808555
 30
0.0
 11
28.586268396948171
 21
34.220791856813349
 31
0.0
 12
29.247668284101628
 22
34.220791856813349
 32
0.0
 13
29.247668284101628
 23
34.220791856813349
 33
0.0
  0
SOLID
  5
7B1
  8
0
  6
CONTINUOUS
 62
     7
 10
-28.6868357423376
 20
34.28398250808555
 30
0.0
 11
-29.14710093871221
 21
34.28398250808555
 31
0.0
 12
-29.247668284101628
 22
34.220791856813349
 32
0.0
 13
-29.247668284101628
 23
34.220791856813349
 33
0.0
210
0.0
220
0.0
230
-1.0
  0
SOLID
  5
7B2
  8
0
  6
CONTINUOUS
 62
     7
 10
30.224475626180421
 20
34.28398250808555
 30
0.0
 11
30.123908280790982
 21
34.220791856813349
 31
0.0
 12
30.78530816794445
 22
34.220791856813349
 32
0.0
 13
30.78530816794445
 23
34.220791856813349
 33
0.0
  0
SOLID
  5
7B3
  8
0
  6
CONTINUOUS
 62
     7
 10
-30.224475626180421
 20
34.28398250808555
 30
0.0
 11
-30.684740822555021
 21
34.28398250808555
 31
0.0
 12
-30.78530816794445
 22
34.220791856813349
 32
0.0
 13
-30.78530816794445
 23
34.220791856813349
 33
0.0
210
0.0
220
0.0
230
-1.0
  0
SOLID
  5
7B4
  8
0
  6
CONTINUOUS
 62
     7
 10
31.762115510023229
 20
34.28398250808555
 30
0.0
 11
31.6615481646338
 21
34.220791856813349
 31
0.0
 12
32.322948051787272
 22
34.220791856813349
 32
0.0
 13
32.322948051787272
 23
34.220791856813349
 33
0.0
  0
SOLID
  5
7B5
  8
0
  6
CONTINUOUS
 62
     7
 10
-31.762115510023229
 20
34.28398250808555
 30
0.0
 11
-32.22238070639785
 21
34.28398250808555
 31
0.0
 12
-32.322948051787272
 22
34.220791856813349
 32
0.0
 13
-32.322948051787272
 23
34.220791856813349
 33
0.0
210
0.0
220
0.0
230
-1.0
  0
SOLID
  5
7B6
  8
0
  6
CONTINUOUS
 62
     7
 10
33.29975539386605
 20
34.28398250808555
 30
0.0
 11
33.199188048476621
 21
34.220791856813349
 31
0.0
 12
33.860587935630079
 22
34.220791856813349
 32
0.0
 13
33.860587935630079
 23
34.220791856813349
 33
0.0
  0
SOLID
  5
7B7
  8
0
  6
CONTINUOUS
 62
     7
 10
-33.29975539386605
 20
34.28398250808555
 30
0.0
 11
-33.76002059024065
 21
34.28398250808555
 31
0.0
 12
-33.860587935630079
 22
34.220791856813349
 32
0.0
 13
-33.860587935630079
 23
34.220791856813349
 33
0.0
210
0.0
220
0.0
230
-1.0
  0
SOLID
  5
7B8
  8
0
  6
CONTINUOUS
 62
     7
 10
34.837395277708858
 20
34.28398250808555
 30
0.0
 11
34.736827932319429
 21
34.220791856813349
 31
0.0
 12
35.398227819472901
 22
34.220791856813349
 32
0.0
 13
35.398227819472901
 23
34.220791856813349
 33
0.0
  0
SOLID
  5
7B9
  8
0
  6
CONTINUOUS
 62
     7
 10
-34.837395277708858
 20
34.28398250808555
 30
0.0
 11
-35.29766047408345
 21
34.28398250808555
 31
0.0
 12
-35.398227819472901
 22
34.220791856813349
 32
0.0
 13
-35.398227819472901
 23
34.220791856813349
 33
0.0
210
0.0
220
0.0
230
-1.0
  0
SOLID
  5
7BA
  8
0
  6
CONTINUOUS
 62
     7
 10
36.375035161551672
 20
34.28398250808555
 30
0.0
 11
36.27446781616225
 21
34.220791856813349
 31
0.0
 12
36.935867703315687
 22
34.220791856813349
 32
0.0
 13
36.935867703315687
 23
34.220791856813349
 33
0.0
  0
SOLID
  5
7BB
  8
0
  6
CONTINUOUS
 62
     7
 10
-36.375035161551672
 20
34.28398250808555
 30
0.0
 11
-36.835300357926293
 21
34.28398250808555
 31
0.0
 12
-36.935867703315687
 22
34.220791856813349
 32
0.0
 13
-36.935867703315687
 23
34.220791856813349
 33
0.0
210
0.0
220
0.0
230
-1.0
  0
SOLID
  5
7BC
  8
0
  6
CONTINUOUS
 62
     7
 10
25.510988629262538
 20
34.220791856813349
 30
0.0
 11
25.427003959926761
 21
34.136807187477579
 31
0.0
 12
26.256373185751791
 22
34.136807187477579
 32
0.0
 13
26.256373185751791
 23
34.136807187477579
 33
0.0
  0
SOLID
  5
7BD
  8
0
  6
CONTINUOUS
 62
     7
 10
-25.510988629262538
 20
34.220791856813349
 30
0.0
 11
-26.17238851641601
 21
34.220791856813349
 31
0.0
 12
-26.256373185751791
 22
34.136807187477579
 32
0.0
 13
-26.256373185751791
 23
34.136807187477579
 33
0.0
210
0.0
220
0.0
230
-1.0
  0
SOLID
  5
7BE
  8
0
  6
CONTINUOUS
 62
     7
 10
27.04862851310536
 20
34.220791856813349
 30
0.0
 11
26.964643843769579
 21
34.136807187477579
 31
0.0
 12
27.794013069594602
 22
34.136807187477579
 32
0.0
 13
27.794013069594602
 23
34.136807187477579
 33
0.0
  0
SOLID
  5
7BF
  8
0
  6
CONTINUOUS
 62
     7
 10
-27.04862851310536
 20
34.220791856813349
 30
0.0
 11
-27.710028400258821
 21
34.220791856813349
 31
0.0
 12
-27.794013069594602
 22
34.136807187477579
 32
0.0
 13
-27.794013069594602
 23
34.136807187477579
 33
0.0
210
0.0
220
0.0
230
-1.0
  0
SOLID
  5
7C0
  8
0
  6
CONTINUOUS
 62
     7
 10
28.586268396948171
 20
34.220791856813349
 30
0.0
 11
28.50228372761239
 21
34.136807187477579
 31
0.0
 12
29.33165295343743
 22
34.136807187477579
 32
0.0
 13
29.33165295343743
 23
34.136807187477579
 33
0.0
  0
SOLID
  5
7C1
  8
0
  6
CONTINUOUS
 62
     7
 10
-28.586268396948171
 20
34.220791856813349
 30
0.0
 11
-29.247668284101628
 21
34.220791856813349
 31
0.0
 12
-29.33165295343743
 22
34.136807187477579
 32
0.0
 13
-29.33165295343743
 23
34.136807187477579
 33
0.0
210
0.0
220
0.0
230
-1.0
  0
SOLID
  5
7C2
  8
0
  6
CONTINUOUS
 62
     7
 10
30.123908280790982
 20
34.220791856813349
 30
0.0
 11
30.039923611455201
 21
34.136807187477579
 31
0.0
 12
30.869292837280241
 22
34.136807187477579
 32
0.0
 13
30.869292837280241
 23
34.136807187477579
 33
0.0
  0
SOLID
  5
7C3
  8
0
  6
CONTINUOUS
 62
     7
 10
-30.123908280790982
 20
34.220791856813349
 30
0.0
 11
-30.78530816794445
 21
34.220791856813349
 31
0.0
 12
-30.869292837280241
 22
34.136807187477579
 32
0.0
 13
-30.869292837280241
 23
34.136807187477579
 33
0.0
210
0.0
220
0.0
230
-1.0
  0
SOLID
  5
7C4
  8
0
  6
CONTINUOUS
 62
     7
 10
31.6615481646338
 20
34.220791856813349
 30
0.0
 11
31.577563495298008
 21
34.136807187477579
 31
0.0
 12
32.406932721123049
 22
34.136807187477579
 32
0.0
 13
32.406932721123049
 23
34.136807187477579
 33
0.0
  0
SOLID
  5
7C5
  8
0
  6
CONTINUOUS
 62
     7
 10
-31.6615481646338
 20
34.220791856813349
 30
0.0
 11
-32.322948051787272
 21
34.220791856813349
 31
0.0
 12
-32.406932721123049
 22
34.136807187477579
 32
0.0
 13
-32.406932721123049
 23
34.136807187477579
 33
0.0
210
0.0
220
0.0
230
-1.0
  0
SOLID
  5
7C6
  8
0
  6
CONTINUOUS
 62
     7
 10
33.199188048476621
 20
34.220791856813349
 30
0.0
 11
33.11520337914083
 21
34.136807187477579
 31
0.0
 12
33.94457260496587
 22
34.136807187477579
 32
0.0
 13
33.94457260496587
 23
34.136807187477579
 33
0.0
  0
SOLID
  5
7C7
  8
0
  6
CONTINUOUS
 62
     7
 10
-33.199188048476621
 20
34.220791856813349
 30
0.0
 11
-33.860587935630079
 21
34.220791856813349
 31
0.0
 12
-33.94457260496587
 22
34.136807187477579
 32
0.0
 13
-33.94457260496587
 23
34.136807187477579
 33
0.0
210
0.0
220
0.0
230
-1.0
  0
SOLID
  5
7C8
  8
0
  6
CONTINUOUS
 62
     7
 10
34.736827932319429
 20
34.220791856813349
 30
0.0
 11
34.652843262983652
 21
34.136807187477579
 31
0.0
 12
35.482212488808678
 22
34.136807187477579
 32
0.0
 13
35.482212488808678
 23
34.136807187477579
 33
0.0
  0
SOLID
  5
7C9
  8
0
  6
CONTINUOUS
 62
     7
 10
-34.736827932319429
 20
34.220791856813349
 30
0.0
 11
-35.398227819472901
 21
34.220791856813349
 31
0.0
 12
-35.482212488808678
 22
34.136807187477579
 32
0.0
 13
-35.482212488808678
 23
34.136807187477579
 33
0.0
210
0.0
220
0.0
230
-1.0
  0
SOLID
  5
7CA
  8
0
  6
CONTINUOUS
 62
     7
 10
36.27446781616225
 20
34.220791856813349
 30
0.0
 11
36.190483146826452
 21
34.136807187477579
 31
0.0
 12
37.019852372651492
 22
34.136807187477579
 32
0.0
 13
37.019852372651492
 23
34.136807187477579
 33
0.0
  0
SOLID
  5
7CB
  8
0
  6
CONTINUOUS
 62
     7
 10
-36.27446781616225
 20
34.220791856813349
 30
0.0
 11
-36.935867703315687
 21
34.220791856813349
 31
0.0
 12
-37.019852372651492
 22
34.136807187477579
 32
0.0
 13
-37.019852372651492
 23
34.136807187477579
 33
0.0
210
0.0
220
0.0
230
-1.0
  0
SOLID
  5
7CC
  8
0
  6
CONTINUOUS
 62
     7
 10
25.427003959926761
 20
34.136807187477579
 30
0.0
 11
25.363813308654549
 21
34.036239842088143
 31
0.0
 12
26.319563837023999
 22
34.036239842088143
 32
0.0
 13
26.319563837023999
 23
34.036239842088143
 33
0.0
  0
SOLID
  5
7CD
  8
0
  6
CONTINUOUS
 62
     7
 10
-25.427003959926761
 20
34.136807187477579
 30
0.0
 11
-26.256373185751791
 21
34.136807187477579
 31
0.0
 12
-26.319563837023999
 22
34.036239842088143
 32
0.0
 13
-26.319563837023999
 23
34.036239842088143
 33
0.0
210
0.0
220
0.0
230
-1.0
  0
SOLID
  5
7CE
  8
0
  6
CONTINUOUS
 62
     7
 10
26.964643843769579
 20
34.136807187477579
 30
0.0
 11
26.901453192497371
 21
34.036239842088143
 31
0.0
 12
27.85720372086681
 22
34.036239842088143
 32
0.0
 13
27.85720372086681
 23
34.036239842088143
 33
0.0
  0
SOLID
  5
7CF
  8
0
  6
CONTINUOUS
 62
     7
 10
-26.964643843769579
 20
34.136807187477579
 30
0.0
 11
-27.794013069594602
 21
34.136807187477579
 31
0.0
 12
-27.85720372086681
 22
34.036239842088143
 32
0.0
 13
-27.85720372086681
 23
34.036239842088143
 33
0.0
210
0.0
220
0.0
230
-1.0
  0
SOLID
  5
7D0
  8
0
  6
CONTINUOUS
 62
     7
 10
28.50228372761239
 20
34.136807187477579
 30
0.0
 11
28.439093076340178
 21
34.036239842088143
 31
0.0
 12
29.394843604709632
 22
34.036239842088143
 32
0.0
 13
29.394843604709632
 23
34.036239842088143
 33
0.0
  0
SOLID
  5
7D1
  8
0
  6
CONTINUOUS
 62
     7
 10
-28.50228372761239
 20
34.136807187477579
 30
0.0
 11
-29.33165295343743
 21
34.136807187477579
 31
0.0
 12
-29.394843604709632
 22
34.036239842088143
 32
0.0
 13
-29.394843604709632
 23
34.036239842088143
 33
0.0
210
0.0
220
0.0
230
-1.0
  0
SOLID
  5
7D2
  8
0
  6
CONTINUOUS
 62
     7
 10
30.039923611455201
 20
34.136807187477579
 30
0.0
 11
29.976732960183
 21
34.036239842088143
 31
0.0
 12
30.932483488552439
 22
34.036239842088143
 32
0.0
 13
30.932483488552439
 23
34.036239842088143
 33
0.0
  0
SOLID
  5
7D3
  8
0
  6
CONTINUOUS
 62
     7
 10
-30.039923611455201
 20
34.136807187477579
 30
0.0
 11
-30.869292837280241
 21
34.136807187477579
 31
0.0
 12
-30.932483488552439
 22
34.036239842088143
 32
0.0
 13
-30.932483488552439
 23
34.036239842088143
 33
0.0
210
0.0
220
0.0
230
-1.0
  0
SOLID
  5
7D4
  8
0
  6
CONTINUOUS
 62
     7
 10
31.577563495298008
 20
34.136807187477579
 30
0.0
 11
31.514372844025811
 21
34.036239842088143
 31
0.0
 12
32.47012337239525
 22
34.036239842088143
 32
0.0
 13
32.47012337239525
 23
34.036239842088143
 33
0.0
  0
SOLID
  5
7D5
  8
0
  6
CONTINUOUS
 62
     7
 10
-31.577563495298008
 20
34.136807187477579
 30
0.0
 11
-32.406932721123049
 21
34.136807187477579
 31
0.0
 12
-32.47012337239525
 22
34.036239842088143
 32
0.0
 13
-32.47012337239525
 23
34.036239842088143
 33
0.0
210
0.0
220
0.0
230
-1.0
  0
SOLID
  5
7D6
  8
0
  6
CONTINUOUS
 62
     7
 10
33.11520337914083
 20
34.136807187477579
 30
0.0
 11
33.052012727868629
 21
34.036239842088143
 31
0.0
 12
34.007763256238071
 22
34.036239842088143
 32
0.0
 13
34.007763256238071
 23
34.036239842088143
 33
0.0
  0
SOLID
  5
7D7
  8
0
  6
CONTINUOUS
 62
     7
 10
-33.11520337914083
 20
34.136807187477579
 30
0.0
 11
-33.94457260496587
 21
34.136807187477579
 31
0.0
 12
-34.007763256238071
 22
34.036239842088143
 32
0.0
 13
-34.007763256238071
 23
34.036239842088143
 33
0.0
210
0.0
220
0.0
230
-1.0
  0
SOLID
  5
7D8
  8
0
  6
CONTINUOUS
 62
     7
 10
34.652843262983652
 20
34.136807187477579
 30
0.0
 11
34.589652611711443
 21
34.036239842088143
 31
0.0
 12
35.545403140080879
 22
34.036239842088143
 32
0.0
 13
35.545403140080879
 23
34.036239842088143
 33
0.0
  0
SOLID
  5
7D9
  8
0
  6
CONTINUOUS
 62
     7
 10
-34.652843262983652
 20
34.136807187477579
 30
0.0
 11
-35.482212488808678
 21
34.136807187477579
 31
0.0
 12
-35.545403140080879
 22
34.036239842088143
 32
0.0
 13
-35.545403140080879
 23
34.036239842088143
 33
0.0
210
0.0
220
0.0
230
-1.0
  0
SOLID
  5
7DA
  8
0
  6
CONTINUOUS
 62
     7
 10
36.190483146826452
 20
34.136807187477579
 30
0.0
 11
36.127292495554258
 21
34.036239842088143
 31
0.0
 12
37.083043023923693
 22
34.036239842088143
 32
0.0
 13
37.083043023923693
 23
34.036239842088143
 33
0.0
  0
SOLID
  5
7DB
  8
0
  6
CONTINUOUS
 62
     7
 10
-36.190483146826452
 20
34.136807187477579
 30
0.0
 11
-37.019852372651492
 21
34.136807187477579
 31
0.0
 12
-37.083043023923693
 22
34.036239842088143
 32
0.0
 13
-37.083043023923693
 23
34.036239842088143
 33
0.0
210
0.0
220
0.0
230
-1.0
  0
SOLID
  5
7DC
  8
0
  6
CONTINUOUS
 62
     7
 10
25.363813308654549
 20
34.036239842088143
 30
0.0
 11
25.324585318561891
 21
33.924132687275552
 31
0.0
 12
26.358791827116651
 22
33.924132687275552
 32
0.0
 13
26.358791827116651
 23
33.924132687275552
 33
0.0
  0
SOLID
  5
7DD
  8
0
  6
CONTINUOUS
 62
     7
 10
-25.363813308654549
 20
34.036239842088143
 30
0.0
 11
-26.319563837023999
 21
34.036239842088143
 31
0.0
 12
-26.358791827116651
 22
33.924132687275552
 32
0.0
 13
-26.358791827116651
 23
33.924132687275552
 33
0.0
210
0.0
220
0.0
230
-1.0
  0
SOLID
  5
7DE
  8
0
  6
CONTINUOUS
 62
     7
 10
26.901453192497371
 20
34.036239842088143
 30
0.0
 11
26.862225202404709
 21
33.924132687275552
 31
0.0
 12
27.896431710959469
 22
33.924132687275552
 32
0.0
 13
27.896431710959469
 23
33.924132687275552
 33
0.0
  0
SOLID
  5
7DF
  8
0
  6
CONTINUOUS
 62
     7
 10
-26.901453192497371
 20
34.036239842088143
 30
0.0
 11
-27.85720372086681
 21
34.036239842088143
 31
0.0
 12
-27.896431710959469
 22
33.924132687275552
 32
0.0
 13
-27.896431710959469
 23
33.924132687275552
 33
0.0
210
0.0
220
0.0
230
-1.0
  0
SOLID
  5
7E0
  8
0
  6
CONTINUOUS
 62
     7
 10
28.439093076340178
 20
34.036239842088143
 30
0.0
 11
28.39986508624753
 21
33.924132687275552
 31
0.0
 12
29.43407159480229
 22
33.924132687275552
 32
0.0
 13
29.43407159480229
 23
33.924132687275552
 33
0.0
  0
SOLID
  5
7E1
  8
0
  6
CONTINUOUS
 62
     7
 10
-28.439093076340178
 20
34.036239842088143
 30
0.0
 11
-29.394843604709632
 21
34.036239842088143
 31
0.0
 12
-29.43407159480229
 22
33.924132687275552
 32
0.0
 13
-29.43407159480229
 23
33.924132687275552
 33
0.0
210
0.0
220
0.0
230
-1.0
  0
SOLID
  5
7E2
  8
0
  6
CONTINUOUS
 62
     7
 10
29.976732960183
 20
34.036239842088143
 30
0.0
 11
29.937504970090341
 21
33.924132687275552
 31
0.0
 12
30.971711478645101
 22
33.924132687275552
 32
0.0
 13
30.971711478645101
 23
33.924132687275552
 33
0.0
  0
SOLID
  5
7E3
  8
0
  6
CONTINUOUS
 62
     7
 10
-29.976732960183
 20
34.036239842088143
 30
0.0
 11
-30.932483488552439
 21
34.036239842088143
 31
0.0
 12
-30.971711478645101
 22
33.924132687275552
 32
0.0
 13
-30.971711478645101
 23
33.924132687275552
 33
0.0
210
0.0
220
0.0
230
-1.0
  0
SOLID
  5
7E4
  8
0
  6
CONTINUOUS
 62
     7
 10
31.514372844025811
 20
34.036239842088143
 30
0.0
 11
31.475144853933148
 21
33.924132687275552
 31
0.0
 12
32.509351362487912
 22
33.924132687275552
 32
0.0
 13
32.509351362487912
 23
33.924132687275552
 33
0.0
  0
SOLID
  5
7E5
  8
0
  6
CONTINUOUS
 62
     7
 10
-31.514372844025811
 20
34.036239842088143
 30
0.0
 11
-32.47012337239525
 21
34.036239842088143
 31
0.0
 12
-32.509351362487912
 22
33.924132687275552
 32
0.0
 13
-32.509351362487912
 23
33.924132687275552
 33
0.0
210
0.0
220
0.0
230
-1.0
  0
SOLID
  5
7E6
  8
0
  6
CONTINUOUS
 62
     7
 10
33.052012727868629
 20
34.036239842088143
 30
0.0
 11
33.012784737775966
 21
33.924132687275552
 31
0.0
 12
34.046991246330727
 22
33.924132687275552
 32
0.0
 13
34.046991246330727
 23
33.924132687275552
 33
0.0
  0
SOLID
  5
7E7
  8
0
  6
CONTINUOUS
 62
     7
 10
-33.052012727868629
 20
34.036239842088143
 30
0.0
 11
-34.007763256238071
 21
34.036239842088143
 31
0.0
 12
-34.046991246330727
 22
33.924132687275552
 32
0.0
 13
-34.046991246330727
 23
33.924132687275552
 33
0.0
210
0.0
220
0.0
230
-1.0
  0
SOLID
  5
7E8
  8
0
  6
CONTINUOUS
 62
     7
 10
34.589652611711443
 20
34.036239842088143
 30
0.0
 11
34.550424621618781
 21
33.924132687275552
 31
0.0
 12
35.584631130173541
 22
33.924132687275552
 32
0.0
 13
35.584631130173541
 23
33.924132687275552
 33
0.0
  0
SOLID
  5
7E9
  8
0
  6
CONTINUOUS
 62
     7
 10
-34.589652611711443
 20
34.036239842088143
 30
0.0
 11
-35.545403140080879
 21
34.036239842088143
 31
0.0
 12
-35.584631130173541
 22
33.924132687275552
 32
0.0
 13
-35.584631130173541
 23
33.924132687275552
 33
0.0
210
0.0
220
0.0
230
-1.0
  0
SOLID
  5
7EA
  8
0
  6
CONTINUOUS
 62
     7
 10
36.127292495554258
 20
34.036239842088143
 30
0.0
 11
36.088064505461602
 21
33.924132687275552
 31
0.0
 12
37.122271014016363
 22
33.924132687275552
 32
0.0
 13
37.122271014016363
 23
33.924132687275552
 33
0.0
  0
SOLID
  5
7EB
  8
0
  6
CONTINUOUS
 62
     7
 10
-36.127292495554258
 20
34.036239842088143
 30
0.0
 11
-37.083043023923693
 21
34.036239842088143
 31
0.0
 12
-37.122271014016363
 22
33.924132687275552
 32
0.0
 13
-37.122271014016363
 23
33.924132687275552
 33
0.0
210
0.0
220
0.0
230
-1.0
  0
SOLID
  5
7EC
  8
0
  6
CONTINUOUS
 62
     7
 10
25.324585318561891
 20
33.924132687275552
 30
0.0
 11
25.311287044873861
 21
33.80610724390084
 31
0.0
 12
26.372090100804702
 22
33.80610724390084
 32
0.0
 13
26.372090100804702
 23
33.80610724390084
 33
0.0
  0
SOLID
  5
7ED
  8
0
  6
CONTINUOUS
 62
     7
 10
-25.324585318561891
 20
33.924132687275552
 30
0.0
 11
-26.358791827116651
 21
33.924132687275552
 31
0.0
 12
-26.372090100804702
 22
33.80610724390084
 32
0.0
 13
-26.372090100804702
 23
33.80610724390084
 33
0.0
210
0.0
220
0.0
230
-1.0
  0
SOLID
  5
7EE
  8
0
  6
CONTINUOUS
 62
     7
 10
26.862225202404709
 20
33.924132687275552
 30
0.0
 11
26.848926928716669
 21
33.80610724390084
 31
0.0
 12
27.909729984647509
 22
33.80610724390084
 32
0.0
 13
27.909729984647509
 23
33.80610724390084
 33
0.0
  0
SOLID
  5
7EF
  8
0
  6
CONTINUOUS
 62
     7
 10
-26.862225202404709
 20
33.924132687275552
 30
0.0
 11
-27.896431710959469
 21
33.924132687275552
 31
0.0
 12
-27.909729984647509
 22
33.80610724390084
 32
0.0
 13
-27.909729984647509
 23
33.80610724390084
 33
0.0
210
0.0
220
0.0
230
-1.0
  0
SOLID
  5
7F0
  8
0
  6
CONTINUOUS
 62
     7
 10
28.39986508624753
 20
33.924132687275552
 30
0.0
 11
28.386566812559479
 21
33.80610724390084
 31
0.0
 12
29.44736986849033
 22
33.80610724390084
 32
0.0
 13
29.44736986849033
 23
33.80610724390084
 33
0.0
  0
SOLID
  5
7F1
  8
0
  6
CONTINUOUS
 62
     7
 10
-28.39986508624753
 20
33.924132687275552
 30
0.0
 11
-29.43407159480229
 21
33.924132687275552
 31
0.0
 12
-29.44736986849033
 22
33.80610724390084
 32
0.0
 13
-29.44736986849033
 23
33.80610724390084
 33
0.0
210
0.0
220
0.0
230
-1.0
  0
SOLID
  5
7F2
  8
0
  6
CONTINUOUS
 62
     7
 10
29.937504970090341
 20
33.924132687275552
 30
0.0
 11
29.924206696402301
 21
33.80610724390084
 31
0.0
 12
30.985009752333141
 22
33.80610724390084
 32
0.0
 13
30.985009752333141
 23
33.80610724390084
 33
0.0
  0
SOLID
  5
7F3
  8
0
  6
CONTINUOUS
 62
     7
 10
-29.937504970090341
 20
33.924132687275552
 30
0.0
 11
-30.971711478645101
 21
33.924132687275552
 31
0.0
 12
-30.985009752333141
 22
33.80610724390084
 32
0.0
 13
-30.985009752333141
 23
33.80610724390084
 33
0.0
210
0.0
220
0.0
230
-1.0
  0
SOLID
  5
7F4
  8
0
  6
CONTINUOUS
 62
     7
 10
31.475144853933148
 20
33.924132687275552
 30
0.0
 11
31.461846580245108
 21
33.80610724390084
 31
0.0
 12
32.52264963617597
 22
33.80610724390084
 32
0.0
 13
32.52264963617597
 23
33.80610724390084
 33
0.0
  0
SOLID
  5
7F5
  8
0
  6
CONTINUOUS
 62
     7
 10
-31.475144853933148
 20
33.924132687275552
 30
0.0
 11
-32.509351362487912
 21
33.924132687275552
 31
0.0
 12
-32.52264963617597
 22
33.80610724390084
 32
0.0
 13
-32.52264963617597
 23
33.80610724390084
 33
0.0
210
0.0
220
0.0
230
-1.0
  0
SOLID
  5
7F6
  8
0
  6
CONTINUOUS
 62
     7
 10
33.012784737775966
 20
33.924132687275552
 30
0.0
 11
32.999486464087923
 21
33.80610724390084
 31
0.0
 12
34.06028952001877
 22
33.80610724390084
 32
0.0
 13
34.06028952001877
 23
33.80610724390084
 33
0.0
  0
SOLID
  5
7F7
  8
0
  6
CONTINUOUS
 62
     7
 10
-33.012784737775966
 20
33.924132687275552
 30
0.0
 11
-34.046991246330727
 21
33.924132687275552
 31
0.0
 12
-34.06028952001877
 22
33.80610724390084
 32
0.0
 13
-34.06028952001877
 23
33.80610724390084
 33
0.0
210
0.0
220
0.0
230
-1.0
  0
SOLID
  5
7F8
  8
0
  6
CONTINUOUS
 62
     7
 10
34.550424621618781
 20
33.924132687275552
 30
0.0
 11
34.537126347930737
 21
33.80610724390084
 31
0.0
 12
35.597929403861592
 22
33.80610724390084
 32
0.0
 13
35.597929403861592
 23
33.80610724390084
 33
0.0
  0
SOLID
  5
7F9
  8
0
  6
CONTINUOUS
 62
     7
 10
-34.550424621618781
 20
33.924132687275552
 30
0.0
 11
-35.584631130173541
 21
33.924132687275552
 31
0.0
 12
-35.597929403861592
 22
33.80610724390084
 32
0.0
 13
-35.597929403861592
 23
33.80610724390084
 33
0.0
210
0.0
220
0.0
230
-1.0
  0
SOLID
  5
7FA
  8
0
  6
CONTINUOUS
 62
     7
 10
36.088064505461602
 20
33.924132687275552
 30
0.0
 11
36.074766231773552
 21
33.80610724390084
 31
0.0
 12
37.135569287704399
 22
33.80610724390084
 32
0.0
 13
37.135569287704399
 23
33.80610724390084
 33
0.0
  0
SOLID
  5
7FB
  8
0
  6
CONTINUOUS
 62
     7
 10
-36.088064505461602
 20
33.924132687275552
 30
0.0
 11
-37.122271014016363
 21
33.924132687275552
 31
0.0
 12
-37.135569287704399
 22
33.80610724390084
 32
0.0
 13
-37.135569287704399
 23
33.80610724390084
 33
0.0
210
0.0
220
0.0
230
-1.0
  0
SOLID
  5
7FC
  8
0
  6
CONTINUOUS
 62
     7
 10
25.311287044873861
 20
33.80610724390084
 30
0.0
 11
25.324585318561891
 21
33.688081800526113
 31
0.0
 12
26.358791827116651
 22
33.688081800526113
 32
0.0
 13
26.358791827116651
 23
33.688081800526113
 33
0.0
  0
SOLID
  5
7FD
  8
0
  6
CONTINUOUS
 62
     7
 10
-25.311287044873861
 20
33.80610724390084
 30
0.0
 11
-26.372090100804702
 21
33.80610724390084
 31
0.0
 12
-26.358791827116651
 22
33.688081800526113
 32
0.0
 13
-26.358791827116651
 23
33.688081800526113
 33
0.0
210
0.0
220
0.0
230
-1.0
  0
SOLID
  5
7FE
  8
0
  6
CONTINUOUS
 62
     7
 10
26.848926928716669
 20
33.80610724390084
 30
0.0
 11
26.862225202404709
 21
33.688081800526113
 31
0.0
 12
27.896431710959469
 22
33.688081800526113
 32
0.0
 13
27.896431710959469
 23
33.688081800526113
 33
0.0
  0
SOLID
  5
7FF
  8
0
  6
CONTINUOUS
 62
     7
 10
-26.848926928716669
 20
33.80610724390084
 30
0.0
 11
-27.909729984647509
 21
33.80610724390084
 31
0.0
 12
-27.896431710959469
 22
33.688081800526113
 32
0.0
 13
-27.896431710959469
 23
33.688081800526113
 33
0.0
210
0.0
220
0.0
230
-1.0
  0
SOLID
  5
800
  8
0
  6
CONTINUOUS
 62
     7
 10
28.386566812559479
 20
33.80610724390084
 30
0.0
 11
28.39986508624753
 21
33.688081800526113
 31
0.0
 12
29.43407159480229
 22
33.688081800526113
 32
0.0
 13
29.43407159480229
 23
33.688081800526113
 33
0.0
  0
SOLID
  5
801
  8
0
  6
CONTINUOUS
 62
     7
 10
-28.386566812559479
 20
33.80610724390084
 30
0.0
 11
-29.44736986849033
 21
33.80610724390084
 31
0.0
 12
-29.43407159480229
 22
33.688081800526113
 32
0.0
 13
-29.43407159480229
 23
33.688081800526113
 33
0.0
210
0.0
220
0.0
230
-1.0
  0
SOLID
  5
802
  8
0
  6
CONTINUOUS
 62
     7
 10
29.924206696402301
 20
33.80610724390084
 30
0.0
 11
29.937504970090341
 21
33.688081800526113
 31
0.0
 12
30.971711478645101
 22
33.688081800526113
 32
0.0
 13
30.971711478645101
 23
33.688081800526113
 33
0.0
  0
SOLID
  5
803
  8
0
  6
CONTINUOUS
 62
     7
 10
-29.924206696402301
 20
33.80610724390084
 30
0.0
 11
-30.985009752333141
 21
33.80610724390084
 31
0.0
 12
-30.971711478645101
 22
33.688081800526113
 32
0.0
 13
-30.971711478645101
 23
33.688081800526113
 33
0.0
210
0.0
220
0.0
230
-1.0
  0
SOLID
  5
804
  8
0
  6
CONTINUOUS
 62
     7
 10
31.461846580245108
 20
33.80610724390084
 30
0.0
 11
31.475144853933148
 21
33.688081800526113
 31
0.0
 12
32.509351362487912
 22
33.688081800526113
 32
0.0
 13
32.509351362487912
 23
33.688081800526113
 33
0.0
  0
SOLID
  5
805
  8
0
  6
CONTINUOUS
 62
     7
 10
-31.461846580245108
 20
33.80610724390084
 30
0.0
 11
-32.52264963617597
 21
33.80610724390084
 31
0.0
 12
-32.509351362487912
 22
33.688081800526113
 32
0.0
 13
-32.509351362487912
 23
33.688081800526113
 33
0.0
210
0.0
220
0.0
230
-1.0
  0
SOLID
  5
806
  8
0
  6
CONTINUOUS
 62
     7
 10
32.999486464087923
 20
33.80610724390084
 30
0.0
 11
33.012784737775966
 21
33.688081800526113
 31
0.0
 12
34.046991246330727
 22
33.688081800526113
 32
0.0
 13
34.046991246330727
 23
33.688081800526113
 33
0.0
  0
SOLID
  5
807
  8
0
  6
CONTINUOUS
 62
     7
 10
-32.999486464087923
 20
33.80610724390084
 30
0.0
 11
-34.06028952001877
 21
33.80610724390084
 31
0.0
 12
-34.046991246330727
 22
33.688081800526113
 32
0.0
 13
-34.046991246330727
 23
33.688081800526113
 33
0.0
210
0.0
220
0.0
230
-1.0
  0
SOLID
  5
808
  8
0
  6
CONTINUOUS
 62
     7
 10
34.537126347930737
 20
33.80610724390084
 30
0.0
 11
34.550424621618781
 21
33.688081800526113
 31
0.0
 12
35.584631130173541
 22
33.688081800526113
 32
0.0
 13
35.584631130173541
 23
33.688081800526113
 33
0.0
  0
SOLID
  5
809
  8
0
  6
CONTINUOUS
 62
     7
 10
-34.537126347930737
 20
33.80610724390084
 30
0.0
 11
-35.597929403861592
 21
33.80610724390084
 31
0.0
 12
-35.584631130173541
 22
33.688081800526113
 32
0.0
 13
-35.584631130173541
 23
33.688081800526113
 33
0.0
210
0.0
220
0.0
230
-1.0
  0
SOLID
  5
80A
  8
0
  6
CONTINUOUS
 62
     7
 10
36.074766231773552
 20
33.80610724390084
 30
0.0
 11
36.088064505461602
 21
33.688081800526113
 31
0.0
 12
37.122271014016363
 22
33.688081800526113
 32
0.0
 13
37.122271014016363
 23
33.688081800526113
 33
0.0
  0
SOLID
  5
80B
  8
0
  6
CONTINUOUS
 62
     7
 10
-36.074766231773552
 20
33.80610724390084
 30
0.0
 11
-37.135569287704399
 21
33.80610724390084
 31
0.0
 12
-37.122271014016363
 22
33.688081800526113
 32
0.0
 13
-37.122271014016363
 23
33.688081800526113
 33
0.0
210
0.0
220
0.0
230
-1.0
  0
SOLID
  5
80C
  8
0
  6
CONTINUOUS
 62
     7
 10
25.324585318561891
 20
33.688081800526113
 30
0.0
 11
25.363813308654549
 21
33.575974645713529
 31
0.0
 12
26.319563837023999
 22
33.575974645713529
 32
0.0
 13
26.319563837023999
 23
33.575974645713529
 33
0.0
  0
SOLID
  5
80D
  8
0
  6
CONTINUOUS
 62
     7
 10
-25.324585318561891
 20
33.688081800526113
 30
0.0
 11
-26.358791827116651
 21
33.688081800526113
 31
0.0
 12
-26.319563837023999
 22
33.575974645713529
 32
0.0
 13
-26.319563837023999
 23
33.575974645713529
 33
0.0
210
0.0
220
0.0
230
-1.0
  0
SOLID
  5
80E
  8
0
  6
CONTINUOUS
 62
     7
 10
26.862225202404709
 20
33.688081800526113
 30
0.0
 11
26.901453192497371
 21
33.575974645713529
 31
0.0
 12
27.85720372086681
 22
33.575974645713529
 32
0.0
 13
27.85720372086681
 23
33.575974645713529
 33
0.0
  0
SOLID
  5
80F
  8
0
  6
CONTINUOUS
 62
     7
 10
-26.862225202404709
 20
33.688081800526113
 30
0.0
 11
-27.896431710959469
 21
33.688081800526113
 31
0.0
 12
-27.85720372086681
 22
33.575974645713529
 32
0.0
 13
-27.85720372086681
 23
33.575974645713529
 33
0.0
210
0.0
220
0.0
230
-1.0
  0
SOLID
  5
810
  8
0
  6
CONTINUOUS
 62
     7
 10
28.39986508624753
 20
33.688081800526113
 30
0.0
 11
28.439093076340178
 21
33.575974645713529
 31
0.0
 12
29.394843604709632
 22
33.575974645713529
 32
0.0
 13
29.394843604709632
 23
33.575974645713529
 33
0.0
  0
SOLID
  5
811
  8
0
  6
CONTINUOUS
 62
     7
 10
-28.39986508624753
 20
33.688081800526113
 30
0.0
 11
-29.43407159480229
 21
33.688081800526113
 31
0.0
 12
-29.394843604709632
 22
33.575974645713529
 32
0.0
 13
-29.394843604709632
 23
33.575974645713529
 33
0.0
210
0.0
220
0.0
230
-1.0
  0
SOLID
  5
812
  8
0
  6
CONTINUOUS
 62
     7
 10
29.937504970090341
 20
33.688081800526113
 30
0.0
 11
29.976732960183
 21
33.575974645713529
 31
0.0
 12
30.932483488552439
 22
33.575974645713529
 32
0.0
 13
30.932483488552439
 23
33.575974645713529
 33
0.0
  0
SOLID
  5
813
  8
0
  6
CONTINUOUS
 62
     7
 10
-29.937504970090341
 20
33.688081800526113
 30
0.0
 11
-30.971711478645101
 21
33.688081800526113
 31
0.0
 12
-30.932483488552439
 22
33.575974645713529
 32
0.0
 13
-30.932483488552439
 23
33.575974645713529
 33
0.0
210
0.0
220
0.0
230
-1.0
  0
SOLID
  5
814
  8
0
  6
CONTINUOUS
 62
     7
 10
31.475144853933148
 20
33.688081800526113
 30
0.0
 11
31.514372844025811
 21
33.575974645713529
 31
0.0
 12
32.47012337239525
 22
33.575974645713529
 32
0.0
 13
32.47012337239525
 23
33.575974645713529
 33
0.0
  0
SOLID
  5
815
  8
0
  6
CONTINUOUS
 62
     7
 10
-31.475144853933148
 20
33.688081800526113
 30
0.0
 11
-32.509351362487912
 21
33.688081800526113
 31
0.0
 12
-32.47012337239525
 22
33.575974645713529
 32
0.0
 13
-32.47012337239525
 23
33.575974645713529
 33
0.0
210
0.0
220
0.0
230
-1.0
  0
SOLID
  5
816
  8
0
  6
CONTINUOUS
 62
     7
 10
33.012784737775966
 20
33.688081800526113
 30
0.0
 11
33.052012727868629
 21
33.575974645713529
 31
0.0
 12
34.007763256238071
 22
33.575974645713529
 32
0.0
 13
34.007763256238071
 23
33.575974645713529
 33
0.0
  0
SOLID
  5
817
  8
0
  6
CONTINUOUS
 62
     7
 10
-33.012784737775966
 20
33.688081800526113
 30
0.0
 11
-34.046991246330727
 21
33.688081800526113
 31
0.0
 12
-34.007763256238071
 22
33.575974645713529
 32
0.0
 13
-34.007763256238071
 23
33.575974645713529
 33
0.0
210
0.0
220
0.0
230
-1.0
  0
SOLID
  5
818
  8
0
  6
CONTINUOUS
 62
     7
 10
34.550424621618781
 20
33.688081800526113
 30
0.0
 11
34.589652611711443
 21
33.575974645713529
 31
0.0
 12
35.545403140080879
 22
33.575974645713529
 32
0.0
 13
35.545403140080879
 23
33.575974645713529
 33
0.0
  0
SOLID
  5
819
  8
0
  6
CONTINUOUS
 62
     7
 10
-34.550424621618781
 20
33.688081800526113
 30
0.0
 11
-35.584631130173541
 21
33.688081800526113
 31
0.0
 12
-35.545403140080879
 22
33.575974645713529
 32
0.0
 13
-35.545403140080879
 23
33.575974645713529
 33
0.0
210
0.0
220
0.0
230
-1.0
  0
SOLID
  5
81A
  8
0
  6
CONTINUOUS
 62
     7
 10
36.088064505461602
 20
33.688081800526113
 30
0.0
 11
36.127292495554258
 21
33.575974645713529
 31
0.0
 12
37.083043023923693
 22
33.575974645713529
 32
0.0
 13
37.083043023923693
 23
33.575974645713529
 33
0.0
  0
SOLID
  5
81B
  8
0
  6
CONTINUOUS
 62
     7
 10
-36.088064505461602
 20
33.688081800526113
 30
0.0
 11
-37.122271014016363
 21
33.688081800526113
 31
0.0
 12
-37.083043023923693
 22
33.575974645713529
 32
0.0
 13
-37.083043023923693
 23
33.575974645713529
 33
0.0
210
0.0
220
0.0
230
-1.0
  0
SOLID
  5
81C
  8
0
  6
CONTINUOUS
 62
     7
 10
25.363813308654549
 20
33.575974645713529
 30
0.0
 11
25.427003959926761
 21
33.4754073003241
 31
0.0
 12
26.256373185751791
 22
33.4754073003241
 32
0.0
 13
26.256373185751791
 23
33.4754073003241
 33
0.0
  0
SOLID
  5
81D
  8
0
  6
CONTINUOUS
 62
     7
 10
-25.363813308654549
 20
33.575974645713529
 30
0.0
 11
-26.319563837023999
 21
33.575974645713529
 31
0.0
 12
-26.256373185751791
 22
33.4754073003241
 32
0.0
 13
-26.256373185751791
 23
33.4754073003241
 33
0.0
210
0.0
220
0.0
230
-1.0
  0
SOLID
  5
81E
  8
0
  6
CONTINUOUS
 62
     7
 10
26.901453192497371
 20
33.575974645713529
 30
0.0
 11
26.964643843769579
 21
33.4754073003241
 31
0.0
 12
27.794013069594602
 22
33.4754073003241
 32
0.0
 13
27.794013069594602
 23
33.4754073003241
 33
0.0
  0
SOLID
  5
81F
  8
0
  6
CONTINUOUS
 62
     7
 10
-26.901453192497371
 20
33.575974645713529
 30
0.0
 11
-27.85720372086681
 21
33.575974645713529
 31
0.0
 12
-27.794013069594602
 22
33.4754073003241
 32
0.0
 13
-27.794013069594602
 23
33.4754073003241
 33
0.0
210
0.0
220
0.0
230
-1.0
  0
SOLID
  5
820
  8
0
  6
CONTINUOUS
 62
     7
 10
28.439093076340178
 20
33.575974645713529
 30
0.0
 11
28.50228372761239
 21
33.4754073003241
 31
0.0
 12
29.33165295343743
 22
33.4754073003241
 32
0.0
 13
29.33165295343743
 23
33.4754073003241
 33
0.0
  0
SOLID
  5
821
  8
0
  6
CONTINUOUS
 62
     7
 10
-28.439093076340178
 20
33.575974645713529
 30
0.0
 11
-29.394843604709632
 21
33.575974645713529
 31
0.0
 12
-29.33165295343743
 22
33.4754073003241
 32
0.0
 13
-29.33165295343743
 23
33.4754073003241
 33
0.0
210
0.0
220
0.0
230
-1.0
  0
SOLID
  5
822
  8
0
  6
CONTINUOUS
 62
     7
 10
29.976732960183
 20
33.575974645713529
 30
0.0
 11
30.039923611455201
 21
33.4754073003241
 31
0.0
 12
30.869292837280241
 22
33.4754073003241
 32
0.0
 13
30.869292837280241
 23
33.4754073003241
 33
0.0
  0
SOLID
  5
823
  8
0
  6
CONTINUOUS
 62
     7
 10
-29.976732960183
 20
33.575974645713529
 30
0.0
 11
-30.932483488552439
 21
33.575974645713529
 31
0.0
 12
-30.869292837280241
 22
33.4754073003241
 32
0.0
 13
-30.869292837280241
 23
33.4754073003241
 33
0.0
210
0.0
220
0.0
230
-1.0
  0
SOLID
  5
824
  8
0
  6
CONTINUOUS
 62
     7
 10
31.514372844025811
 20
33.575974645713529
 30
0.0
 11
31.577563495298008
 21
33.4754073003241
 31
0.0
 12
32.406932721123049
 22
33.4754073003241
 32
0.0
 13
32.406932721123049
 23
33.4754073003241
 33
0.0
  0
SOLID
  5
825
  8
0
  6
CONTINUOUS
 62
     7
 10
-31.514372844025811
 20
33.575974645713529
 30
0.0
 11
-32.47012337239525
 21
33.575974645713529
 31
0.0
 12
-32.406932721123049
 22
33.4754073003241
 32
0.0
 13
-32.406932721123049
 23
33.4754073003241
 33
0.0
210
0.0
220
0.0
230
-1.0
  0
SOLID
  5
826
  8
0
  6
CONTINUOUS
 62
     7
 10
33.052012727868629
 20
33.575974645713529
 30
0.0
 11
33.11520337914083
 21
33.4754073003241
 31
0.0
 12
33.94457260496587
 22
33.4754073003241
 32
0.0
 13
33.94457260496587
 23
33.4754073003241
 33
0.0
  0
SOLID
  5
827
  8
0
  6
CONTINUOUS
 62
     7
 10
-33.052012727868629
 20
33.575974645713529
 30
0.0
 11
-34.007763256238071
 21
33.575974645713529
 31
0.0
 12
-33.94457260496587
 22
33.4754073003241
 32
0.0
 13
-33.94457260496587
 23
33.4754073003241
 33
0.0
210
0.0
220
0.0
230
-1.0
  0
SOLID
  5
828
  8
0
  6
CONTINUOUS
 62
     7
 10
34.589652611711443
 20
33.575974645713529
 30
0.0
 11
34.652843262983652
 21
33.4754073003241
 31
0.0
 12
35.482212488808678
 22
33.4754073003241
 32
0.0
 13
35.482212488808678
 23
33.4754073003241
 33
0.0
  0
SOLID
  5
829
  8
0
  6
CONTINUOUS
 62
     7
 10
-34.589652611711443
 20
33.575974645713529
 30
0.0
 11
-35.545403140080879
 21
33.575974645713529
 31
0.0
 12
-35.482212488808678
 22
33.4754073003241
 32
0.0
 13
-35.482212488808678
 23
33.4754073003241
 33
0.0
210
0.0
220
0.0
230
-1.0
  0
SOLID
  5
82A
  8
0
  6
CONTINUOUS
 62
     7
 10
36.127292495554258
 20
33.575974645713529
 30
0.0
 11
36.190483146826452
 21
33.4754073003241
 31
0.0
 12
37.019852372651492
 22
33.4754073003241
 32
0.0
 13
37.019852372651492
 23
33.4754073003241
 33
0.0
  0
SOLID
  5
82B
  8
0
  6
CONTINUOUS
 62
     7
 10
-36.127292495554258
 20
33.575974645713529
 30
0.0
 11
-37.083043023923693
 21
33.575974645713529
 31
0.0
 12
-37.019852372651492
 22
33.4754073003241
 32
0.0
 13
-37.019852372651492
 23
33.4754073003241
 33
0.0
210
0.0
220
0.0
230
-1.0
  0
SOLID
  5
82C
  8
0
  6
CONTINUOUS
 62
     7
 10
25.427003959926761
 20
33.4754073003241
 30
0.0
 11
25.510988629262538
 21
33.391422630988323
 31
0.0
 12
26.17238851641601
 22
33.391422630988323
 32
0.0
 13
26.17238851641601
 23
33.391422630988323
 33
0.0
  0
SOLID
  5
82D
  8
0
  6
CONTINUOUS
 62
     7
 10
-25.427003959926761
 20
33.4754073003241
 30
0.0
 11
-26.256373185751791
 21
33.4754073003241
 31
0.0
 12
-26.17238851641601
 22
33.391422630988323
 32
0.0
 13
-26.17238851641601
 23
33.391422630988323
 33
0.0
210
0.0
220
0.0
230
-1.0
  0
SOLID
  5
82E
  8
0
  6
CONTINUOUS
 62
     7
 10
26.964643843769579
 20
33.4754073003241
 30
0.0
 11
27.04862851310536
 21
33.391422630988323
 31
0.0
 12
27.710028400258821
 22
33.391422630988323
 32
0.0
 13
27.710028400258821
 23
33.391422630988323
 33
0.0
  0
SOLID
  5
82F
  8
0
  6
CONTINUOUS
 62
     7
 10
-26.964643843769579
 20
33.4754073003241
 30
0.0
 11
-27.794013069594602
 21
33.4754073003241
 31
0.0
 12
-27.710028400258821
 22
33.391422630988323
 32
0.0
 13
-27.710028400258821
 23
33.391422630988323
 33
0.0
210
0.0
220
0.0
230
-1.0
  0
SOLID
  5
830
  8
0
  6
CONTINUOUS
 62
     7
 10
28.50228372761239
 20
33.4754073003241
 30
0.0
 11
28.586268396948171
 21
33.391422630988323
 31
0.0
 12
29.247668284101628
 22
33.391422630988323
 32
0.0
 13
29.247668284101628
 23
33.391422630988323
 33
0.0
  0
SOLID
  5
831
  8
0
  6
CONTINUOUS
 62
     7
 10
-28.50228372761239
 20
33.4754073003241
 30
0.0
 11
-29.33165295343743
 21
33.4754073003241
 31
0.0
 12
-29.247668284101628
 22
33.391422630988323
 32
0.0
 13
-29.247668284101628
 23
33.391422630988323
 33
0.0
210
0.0
220
0.0
230
-1.0
  0
SOLID
  5
832
  8
0
  6
CONTINUOUS
 62
     7
 10
30.039923611455201
 20
33.4754073003241
 30
0.0
 11
30.123908280790982
 21
33.391422630988323
 31
0.0
 12
30.78530816794445
 22
33.391422630988323
 32
0.0
 13
30.78530816794445
 23
33.391422630988323
 33
0.0
  0
SOLID
  5
833
  8
0
  6
CONTINUOUS
 62
     7
 10
-30.039923611455201
 20
33.4754073003241
 30
0.0
 11
-30.869292837280241
 21
33.4754073003241
 31
0.0
 12
-30.78530816794445
 22
33.391422630988323
 32
0.0
 13
-30.78530816794445
 23
33.391422630988323
 33
0.0
210
0.0
220
0.0
230
-1.0
  0
SOLID
  5
834
  8
0
  6
CONTINUOUS
 62
     7
 10
31.577563495298008
 20
33.4754073003241
 30
0.0
 11
31.6615481646338
 21
33.391422630988323
 31
0.0
 12
32.322948051787272
 22
33.391422630988323
 32
0.0
 13
32.322948051787272
 23
33.391422630988323
 33
0.0
  0
SOLID
  5
835
  8
0
  6
CONTINUOUS
 62
     7
 10
-31.577563495298008
 20
33.4754073003241
 30
0.0
 11
-32.406932721123049
 21
33.4754073003241
 31
0.0
 12
-32.322948051787272
 22
33.391422630988323
 32
0.0
 13
-32.322948051787272
 23
33.391422630988323
 33
0.0
210
0.0
220
0.0
230
-1.0
  0
SOLID
  5
836
  8
0
  6
CONTINUOUS
 62
     7
 10
33.11520337914083
 20
33.4754073003241
 30
0.0
 11
33.199188048476621
 21
33.391422630988323
 31
0.0
 12
33.860587935630079
 22
33.391422630988323
 32
0.0
 13
33.860587935630079
 23
33.391422630988323
 33
0.0
  0
SOLID
  5
837
  8
0
  6
CONTINUOUS
 62
     7
 10
-33.11520337914083
 20
33.4754073003241
 30
0.0
 11
-33.94457260496587
 21
33.4754073003241
 31
0.0
 12
-33.860587935630079
 22
33.391422630988323
 32
0.0
 13
-33.860587935630079
 23
33.391422630988323
 33
0.0
210
0.0
220
0.0
230
-1.0
  0
SOLID
  5
838
  8
0
  6
CONTINUOUS
 62
     7
 10
34.652843262983652
 20
33.4754073003241
 30
0.0
 11
34.736827932319429
 21
33.391422630988323
 31
0.0
 12
35.398227819472901
 22
33.391422630988323
 32
0.0
 13
35.398227819472901
 23
33.391422630988323
 33
0.0
  0
SOLID
  5
839
  8
0
  6
CONTINUOUS
 62
     7
 10
-34.652843262983652
 20
33.4754073003241
 30
0.0
 11
-35.482212488808678
 21
33.4754073003241
 31
0.0
 12
-35.398227819472901
 22
33.391422630988323
 32
0.0
 13
-35.398227819472901
 23
33.391422630988323
 33
0.0
210
0.0
220
0.0
230
-1.0
  0
SOLID
  5
83A
  8
0
  6
CONTINUOUS
 62
     7
 10
36.190483146826452
 20
33.4754073003241
 30
0.0
 11
36.27446781616225
 21
33.391422630988323
 31
0.0
 12
36.935867703315687
 22
33.391422630988323
 32
0.0
 13
36.935867703315687
 23
33.391422630988323
 33
0.0
  0
SOLID
  5
83B
  8
0
  6
CONTINUOUS
 62
     7
 10
-36.190483146826452
 20
33.4754073003241
 30
0.0
 11
-37.019852372651492
 21
33.4754073003241
 31
0.0
 12
-36.935867703315687
 22
33.391422630988323
 32
0.0
 13
-36.935867703315687
 23
33.391422630988323
 33
0.0
210
0.0
220
0.0
230
-1.0
  0
SOLID
  5
83C
  8
0
  6
CONTINUOUS
 62
     7
 10
25.510988629262538
 20
33.391422630988323
 30
0.0
 11
25.611555974651971
 21
33.328231979716122
 31
0.0
 12
26.071821171026581
 22
33.328231979716122
 32
0.0
 13
26.071821171026581
 23
33.328231979716122
 33
0.0
  0
SOLID
  5
83D
  8
0
  6
CONTINUOUS
 62
     7
 10
-25.510988629262538
 20
33.391422630988323
 30
0.0
 11
-26.17238851641601
 21
33.391422630988323
 31
0.0
 12
-26.071821171026581
 22
33.328231979716122
 32
0.0
 13
-26.071821171026581
 23
33.328231979716122
 33
0.0
210
0.0
220
0.0
230
-1.0
  0
SOLID
  5
83E
  8
0
  6
CONTINUOUS
 62
     7
 10
27.04862851310536
 20
33.391422630988323
 30
0.0
 11
27.149195858494789
 21
33.328231979716122
 31
0.0
 12
27.609461054869389
 22
33.328231979716122
 32
0.0
 13
27.609461054869389
 23
33.328231979716122
 33
0.0
  0
SOLID
  5
83F
  8
0
  6
CONTINUOUS
 62
     7
 10
-27.04862851310536
 20
33.391422630988323
 30
0.0
 11
-27.710028400258821
 21
33.391422630988323
 31
0.0
 12
-27.609461054869389
 22
33.328231979716122
 32
0.0
 13
-27.609461054869389
 23
33.328231979716122
 33
0.0
210
0.0
220
0.0
230
-1.0
  0
SOLID
  5
840
  8
0
  6
CONTINUOUS
 62
     7
 10
28.586268396948171
 20
33.391422630988323
 30
0.0
 11
28.6868357423376
 21
33.328231979716122
 31
0.0
 12
29.14710093871221
 22
33.328231979716122
 32
0.0
 13
29.14710093871221
 23
33.328231979716122
 33
0.0
  0
SOLID
  5
841
  8
0
  6
CONTINUOUS
 62
     7
 10
-28.586268396948171
 20
33.391422630988323
 30
0.0
 11
-29.247668284101628
 21
33.391422630988323
 31
0.0
 12
-29.14710093871221
 22
33.328231979716122
 32
0.0
 13
-29.14710093871221
 23
33.328231979716122
 33
0.0
210
0.0
220
0.0
230
-1.0
  0
SOLID
  5
842
  8
0
  6
CONTINUOUS
 62
     7
 10
30.123908280790982
 20
33.391422630988323
 30
0.0
 11
30.224475626180421
 21
33.328231979716122
 31
0.0
 12
30.684740822555021
 22
33.328231979716122
 32
0.0
 13
30.684740822555021
 23
33.328231979716122
 33
0.0
  0
SOLID
  5
843
  8
0
  6
CONTINUOUS
 62
     7
 10
-30.123908280790982
 20
33.391422630988323
 30
0.0
 11
-30.78530816794445
 21
33.391422630988323
 31
0.0
 12
-30.684740822555021
 22
33.328231979716122
 32
0.0
 13
-30.684740822555021
 23
33.328231979716122
 33
0.0
210
0.0
220
0.0
230
-1.0
  0
SOLID
  5
844
  8
0
  6
CONTINUOUS
 62
     7
 10
31.6615481646338
 20
33.391422630988323
 30
0.0
 11
31.762115510023229
 21
33.328231979716122
 31
0.0
 12
32.22238070639785
 22
33.328231979716122
 32
0.0
 13
32.22238070639785
 23
33.328231979716122
 33
0.0
  0
SOLID
  5
845
  8
0
  6
CONTINUOUS
 62
     7
 10
-31.6615481646338
 20
33.391422630988323
 30
0.0
 11
-32.322948051787272
 21
33.391422630988323
 31
0.0
 12
-32.22238070639785
 22
33.328231979716122
 32
0.0
 13
-32.22238070639785
 23
33.328231979716122
 33
0.0
210
0.0
220
0.0
230
-1.0
  0
SOLID
  5
846
  8
0
  6
CONTINUOUS
 62
     7
 10
33.199188048476621
 20
33.391422630988323
 30
0.0
 11
33.29975539386605
 21
33.328231979716122
 31
0.0
 12
33.76002059024065
 22
33.328231979716122
 32
0.0
 13
33.76002059024065
 23
33.328231979716122
 33
0.0
  0
SOLID
  5
847
  8
0
  6
CONTINUOUS
 62
     7
 10
-33.199188048476621
 20
33.391422630988323
 30
0.0
 11
-33.860587935630079
 21
33.391422630988323
 31
0.0
 12
-33.76002059024065
 22
33.328231979716122
 32
0.0
 13
-33.76002059024065
 23
33.328231979716122
 33
0.0
210
0.0
220
0.0
230
-1.0
  0
SOLID
  5
848
  8
0
  6
CONTINUOUS
 62
     7
 10
34.736827932319429
 20
33.391422630988323
 30
0.0
 11
34.837395277708858
 21
33.328231979716122
 31
0.0
 12
35.29766047408345
 22
33.328231979716122
 32
0.0
 13
35.29766047408345
 23
33.328231979716122
 33
0.0
  0
SOLID
  5
849
  8
0
  6
CONTINUOUS
 62
     7
 10
-34.736827932319429
 20
33.391422630988323
 30
0.0
 11
-35.398227819472901
 21
33.391422630988323
 31
0.0
 12
-35.29766047408345
 22
33.328231979716122
 32
0.0
 13
-35.29766047408345
 23
33.328231979716122
 33
0.0
210
0.0
220
0.0
230
-1.0
  0
SOLID
  5
84A
  8
0
  6
CONTINUOUS
 62
     7
 10
36.27446781616225
 20
33.391422630988323
 30
0.0
 11
36.375035161551672
 21
33.328231979716122
 31
0.0
 12
36.835300357926293
 22
33.328231979716122
 32
0.0
 13
36.835300357926293
 23
33.328231979716122
 33
0.0
  0
SOLID
  5
84B
  8
0
  6
CONTINUOUS
 62
     7
 10
-36.27446781616225
 20
33.391422630988323
 30
0.0
 11
-36.935867703315687
 21
33.391422630988323
 31
0.0
 12
-36.835300357926293
 22
33.328231979716122
 32
0.0
 13
-36.835300357926293
 23
33.328231979716122
 33
0.0
210
0.0
220
0.0
230
-1.0
  0
SOLID
  5
84C
  8
0
  6
CONTINUOUS
 62
     7
 10
25.611555974651971
 20
33.328231979716122
 30
0.0
 11
25.723663129464551
 21
33.289003989623453
 31
0.0
 12
25.959714016214001
 22
33.289003989623453
 32
0.0
 13
25.959714016214001
 23
33.289003989623453
 33
0.0
  0
SOLID
  5
84D
  8
0
  6
CONTINUOUS
 62
     7
 10
-25.611555974651971
 20
33.328231979716122
 30
0.0
 11
-26.071821171026581
 21
33.328231979716122
 31
0.0
 12
-25.959714016214001
 22
33.289003989623453
 32
0.0
 13
-25.959714016214001
 23
33.289003989623453
 33
0.0
210
0.0
220
0.0
230
-1.0
  0
SOLID
  5
84E
  8
0
  6
CONTINUOUS
 62
     7
 10
27.149195858494789
 20
33.328231979716122
 30
0.0
 11
27.26130301330738
 21
33.289003989623453
 31
0.0
 12
27.497353900056812
 22
33.289003989623453
 32
0.0
 13
27.497353900056812
 23
33.289003989623453
 33
0.0
  0
SOLID
  5
84F
  8
0
  6
CONTINUOUS
 62
     7
 10
-27.149195858494789
 20
33.328231979716122
 30
0.0
 11
-27.609461054869389
 21
33.328231979716122
 31
0.0
 12
-27.497353900056812
 22
33.289003989623453
 32
0.0
 13
-27.497353900056812
 23
33.289003989623453
 33
0.0
210
0.0
220
0.0
230
-1.0
  0
SOLID
  5
850
  8
0
  6
CONTINUOUS
 62
     7
 10
28.6868357423376
 20
33.328231979716122
 30
0.0
 11
28.79894289715018
 21
33.289003989623453
 31
0.0
 12
29.03499378389963
 22
33.289003989623453
 32
0.0
 13
29.03499378389963
 23
33.289003989623453
 33
0.0
  0
SOLID
  5
851
  8
0
  6
CONTINUOUS
 62
     7
 10
-28.6868357423376
 20
33.328231979716122
 30
0.0
 11
-29.14710093871221
 21
33.328231979716122
 31
0.0
 12
-29.03499378389963
 22
33.289003989623453
 32
0.0
 13
-29.03499378389963
 23
33.289003989623453
 33
0.0
210
0.0
220
0.0
230
-1.0
  0
SOLID
  5
852
  8
0
  6
CONTINUOUS
 62
     7
 10
30.224475626180421
 20
33.328231979716122
 30
0.0
 11
30.336582780992991
 21
33.289003989623453
 31
0.0
 12
30.572633667742451
 22
33.289003989623453
 32
0.0
 13
30.572633667742451
 23
33.289003989623453
 33
0.0
  0
SOLID
  5
853
  8
0
  6
CONTINUOUS
 62
     7
 10
-30.224475626180421
 20
33.328231979716122
 30
0.0
 11
-30.684740822555021
 21
33.328231979716122
 31
0.0
 12
-30.572633667742451
 22
33.289003989623453
 32
0.0
 13
-30.572633667742451
 23
33.289003989623453
 33
0.0
210
0.0
220
0.0
230
-1.0
  0
SOLID
  5
854
  8
0
  6
CONTINUOUS
 62
     7
 10
31.762115510023229
 20
33.328231979716122
 30
0.0
 11
31.874222664835809
 21
33.289003989623453
 31
0.0
 12
32.110273551585252
 22
33.289003989623453
 32
0.0
 13
32.110273551585252
 23
33.289003989623453
 33
0.0
  0
SOLID
  5
855
  8
0
  6
CONTINUOUS
 62
     7
 10
-31.762115510023229
 20
33.328231979716122
 30
0.0
 11
-32.22238070639785
 21
33.328231979716122
 31
0.0
 12
-32.110273551585252
 22
33.289003989623453
 32
0.0
 13
-32.110273551585252
 23
33.289003989623453
 33
0.0
210
0.0
220
0.0
230
-1.0
  0
SOLID
  5
856
  8
0
  6
CONTINUOUS
 62
     7
 10
33.29975539386605
 20
33.328231979716122
 30
0.0
 11
33.411862548678627
 21
33.289003989623453
 31
0.0
 12
33.647913435428073
 22
33.289003989623453
 32
0.0
 13
33.647913435428073
 23
33.289003989623453
 33
0.0
  0
SOLID
  5
857
  8
0
  6
CONTINUOUS
 62
     7
 10
-33.29975539386605
 20
33.328231979716122
 30
0.0
 11
-33.76002059024065
 21
33.328231979716122
 31
0.0
 12
-33.647913435428073
 22
33.289003989623453
 32
0.0
 13
-33.647913435428073
 23
33.289003989623453
 33
0.0
210
0.0
220
0.0
230
-1.0
  0
SOLID
  5
858
  8
0
  6
CONTINUOUS
 62
     7
 10
34.837395277708858
 20
33.328231979716122
 30
0.0
 11
34.949502432521442
 21
33.289003989623453
 31
0.0
 12
35.18555331927088
 22
33.289003989623453
 32
0.0
 13
35.18555331927088
 23
33.289003989623453
 33
0.0
  0
SOLID
  5
859
  8
0
  6
CONTINUOUS
 62
     7
 10
-34.837395277708858
 20
33.328231979716122
 30
0.0
 11
-35.29766047408345
 21
33.328231979716122
 31
0.0
 12
-35.18555331927088
 22
33.289003989623453
 32
0.0
 13
-35.18555331927088
 23
33.289003989623453
 33
0.0
210
0.0
220
0.0
230
-1.0
  0
SOLID
  5
85A
  8
0
  6
CONTINUOUS
 62
     7
 10
36.375035161551672
 20
33.328231979716122
 30
0.0
 11
36.487142316364263
 21
33.289003989623453
 31
0.0
 12
36.723193203113702
 22
33.289003989623453
 32
0.0
 13
36.723193203113702
 23
33.289003989623453
 33
0.0
  0
SOLID
  5
85B
  8
0
  6
CONTINUOUS
 62
     7
 10
-36.375035161551672
 20
33.328231979716122
 30
0.0
 11
-36.835300357926293
 21
33.328231979716122
 31
0.0
 12
-36.723193203113702
 22
33.289003989623453
 32
0.0
 13
-36.723193203113702
 23
33.289003989623453
 33
0.0
210
0.0
220
0.0
230
-1.0
  0
SOLID
  5
85C
  8
0
  6
CONTINUOUS
 62
     7
 10
-25.723663129464551
 20
33.289003989623453
 30
0.0
 11
-25.959714016214001
 21
33.289003989623453
 31
0.0
 12
-25.841688572839271
 22
33.275705715935409
 32
0.0
 13
-25.841688572839271
 23
33.275705715935409
 33
0.0
210
0.0
220
0.0
230
-1.0
  0
SOLID
  5
85D
  8
0
  6
CONTINUOUS
 62
     7
 10
-27.26130301330738
 20
33.289003989623453
 30
0.0
 11
-27.497353900056812
 21
33.289003989623453
 31
0.0
 12
-27.379328456682089
 22
33.275705715935409
 32
0.0
 13
-27.379328456682089
 23
33.275705715935409
 33
0.0
210
0.0
220
0.0
230
-1.0
  0
SOLID
  5
85E
  8
0
  6
CONTINUOUS
 62
     7
 10
-28.79894289715018
 20
33.289003989623453
 30
0.0
 11
-29.03499378389963
 21
33.289003989623453
 31
0.0
 12
-28.91696834052491
 22
33.275705715935409
 32
0.0
 13
-28.91696834052491
 23
33.275705715935409
 33
0.0
210
0.0
220
0.0
230
-1.0
  0
SOLID
  5
85F
  8
0
  6
CONTINUOUS
 62
     7
 10
-30.336582780992991
 20
33.289003989623453
 30
0.0
 11
-30.572633667742451
 21
33.289003989623453
 31
0.0
 12
-30.454608224367721
 22
33.275705715935409
 32
0.0
 13
-30.454608224367721
 23
33.275705715935409
 33
0.0
210
0.0
220
0.0
230
-1.0
  0
SOLID
  5
860
  8
0
  6
CONTINUOUS
 62
     7
 10
-31.874222664835809
 20
33.289003989623453
 30
0.0
 11
-32.110273551585252
 21
33.289003989623453
 31
0.0
 12
-31.992248108210529
 22
33.275705715935409
 32
0.0
 13
-31.992248108210529
 23
33.275705715935409
 33
0.0
210
0.0
220
0.0
230
-1.0
  0
SOLID
  5
861
  8
0
  6
CONTINUOUS
 62
     7
 10
-33.411862548678627
 20
33.289003989623453
 30
0.0
 11
-33.647913435428073
 21
33.289003989623453
 31
0.0
 12
-33.529887992053347
 22
33.275705715935409
 32
0.0
 13
-33.529887992053347
 23
33.275705715935409
 33
0.0
210
0.0
220
0.0
230
-1.0
  0
SOLID
  5
862
  8
0
  6
CONTINUOUS
 62
     7
 10
-34.949502432521442
 20
33.289003989623453
 30
0.0
 11
-35.18555331927088
 21
33.289003989623453
 31
0.0
 12
-35.067527875896161
 22
33.275705715935409
 32
0.0
 13
-35.067527875896161
 23
33.275705715935409
 33
0.0
210
0.0
220
0.0
230
-1.0
  0
SOLID
  5
863
  8
0
  6
CONTINUOUS
 62
     7
 10
-36.487142316364263
 20
33.289003989623453
 30
0.0
 11
-36.723193203113702
 21
33.289003989623453
 31
0.0
 12
-36.605167759738983
 22
33.275705715935409
 32
0.0
 13
-36.605167759738983
 23
33.275705715935409
 33
0.0
210
0.0
220
0.0
230
-1.0
  0
LINE
  5
864
  8
0
  6
CONTINUOUS
 62
     7
 10
25.841688572839271
 20
34.336508771866256
 30
0.0
 11
25.723663129464551
 21
34.323210498178213
 31
0.0
  0
LINE
  5
865
  8
0
  6
CONTINUOUS
 62
     7
 10
25.959714016214001
 20
34.323210498178213
 30
0.0
 11
25.841688572839271
 21
34.336508771866256
 31
0.0
  0
LINE
  5
866
  8
0
  6
CONTINUOUS
 62
     7
 10
27.379328456682089
 20
34.336508771866256
 30
0.0
 11
27.26130301330738
 21
34.323210498178213
 31
0.0
  0
LINE
  5
867
  8
0
  6
CONTINUOUS
 62
     7
 10
27.497353900056812
 20
34.323210498178213
 30
0.0
 11
27.379328456682089
 21
34.336508771866256
 31
0.0
  0
LINE
  5
868
  8
0
  6
CONTINUOUS
 62
     7
 10
28.91696834052491
 20
34.336508771866256
 30
0.0
 11
28.79894289715018
 21
34.323210498178213
 31
0.0
  0
LINE
  5
869
  8
0
  6
CONTINUOUS
 62
     7
 10
29.03499378389963
 20
34.323210498178213
 30
0.0
 11
28.91696834052491
 21
34.336508771866256
 31
0.0
  0
LINE
  5
86A
  8
0
  6
CONTINUOUS
 62
     7
 10
30.454608224367721
 20
34.336508771866256
 30
0.0
 11
30.336582780992991
 21
34.323210498178213
 31
0.0
  0
LINE
  5
86B
  8
0
  6
CONTINUOUS
 62
     7
 10
30.572633667742451
 20
34.323210498178213
 30
0.0
 11
30.454608224367721
 21
34.336508771866256
 31
0.0
  0
LINE
  5
86C
  8
0
  6
CONTINUOUS
 62
     7
 10
31.992248108210529
 20
34.336508771866256
 30
0.0
 11
31.874222664835809
 21
34.323210498178213
 31
0.0
  0
LINE
  5
86D
  8
0
  6
CONTINUOUS
 62
     7
 10
32.110273551585252
 20
34.323210498178213
 30
0.0
 11
31.992248108210529
 21
34.336508771866256
 31
0.0
  0
LINE
  5
86E
  8
0
  6
CONTINUOUS
 62
     7
 10
33.529887992053347
 20
34.336508771866256
 30
0.0
 11
33.411862548678627
 21
34.323210498178213
 31
0.0
  0
LINE
  5
86F
  8
0
  6
CONTINUOUS
 62
     7
 10
33.647913435428073
 20
34.323210498178213
 30
0.0
 11
33.529887992053347
 21
34.336508771866256
 31
0.0
  0
LINE
  5
870
  8
0
  6
CONTINUOUS
 62
     7
 10
35.067527875896161
 20
34.336508771866256
 30
0.0
 11
34.949502432521442
 21
34.323210498178213
 31
0.0
  0
LINE
  5
871
  8
0
  6
CONTINUOUS
 62
     7
 10
35.18555331927088
 20
34.323210498178213
 30
0.0
 11
35.067527875896161
 21
34.336508771866256
 31
0.0
  0
LINE
  5
872
  8
0
  6
CONTINUOUS
 62
     7
 10
36.605167759738983
 20
34.336508771866256
 30
0.0
 11
36.487142316364263
 21
34.323210498178213
 31
0.0
  0
LINE
  5
873
  8
0
  6
CONTINUOUS
 62
     7
 10
36.723193203113702
 20
34.323210498178213
 30
0.0
 11
36.605167759738983
 21
34.336508771866256
 31
0.0
  0
LINE
  5
874
  8
0
  6
CONTINUOUS
 62
     7
 10
25.723663129464551
 20
34.323210498178213
 30
0.0
 11
25.611555974651971
 21
34.28398250808555
 31
0.0
  0
LINE
  5
875
  8
0
  6
CONTINUOUS
 62
     7
 10
25.959714016214001
 20
34.323210498178213
 30
0.0
 11
26.071821171026581
 21
34.28398250808555
 31
0.0
  0
LINE
  5
876
  8
0
  6
CONTINUOUS
 62
     7
 10
27.26130301330738
 20
34.323210498178213
 30
0.0
 11
27.149195858494789
 21
34.28398250808555
 31
0.0
  0
LINE
  5
877
  8
0
  6
CONTINUOUS
 62
     7
 10
27.497353900056812
 20
34.323210498178213
 30
0.0
 11
27.609461054869389
 21
34.28398250808555
 31
0.0
  0
LINE
  5
878
  8
0
  6
CONTINUOUS
 62
     7
 10
28.79894289715018
 20
34.323210498178213
 30
0.0
 11
28.6868357423376
 21
34.28398250808555
 31
0.0
  0
LINE
  5
879
  8
0
  6
CONTINUOUS
 62
     7
 10
29.03499378389963
 20
34.323210498178213
 30
0.0
 11
29.14710093871221
 21
34.28398250808555
 31
0.0
  0
LINE
  5
87A
  8
0
  6
CONTINUOUS
 62
     7
 10
30.336582780992991
 20
34.323210498178213
 30
0.0
 11
30.224475626180421
 21
34.28398250808555
 31
0.0
  0
LINE
  5
87B
  8
0
  6
CONTINUOUS
 62
     7
 10
30.572633667742451
 20
34.323210498178213
 30
0.0
 11
30.684740822555021
 21
34.28398250808555
 31
0.0
  0
LINE
  5
87C
  8
0
  6
CONTINUOUS
 62
     7
 10
31.874222664835809
 20
34.323210498178213
 30
0.0
 11
31.762115510023229
 21
34.28398250808555
 31
0.0
  0
LINE
  5
87D
  8
0
  6
CONTINUOUS
 62
     7
 10
32.110273551585252
 20
34.323210498178213
 30
0.0
 11
32.22238070639785
 21
34.28398250808555
 31
0.0
  0
LINE
  5
87E
  8
0
  6
CONTINUOUS
 62
     7
 10
33.411862548678627
 20
34.323210498178213
 30
0.0
 11
33.29975539386605
 21
34.28398250808555
 31
0.0
  0
LINE
  5
87F
  8
0
  6
CONTINUOUS
 62
     7
 10
33.647913435428073
 20
34.323210498178213
 30
0.0
 11
33.76002059024065
 21
34.28398250808555
 31
0.0
  0
LINE
  5
880
  8
0
  6
CONTINUOUS
 62
     7
 10
34.949502432521442
 20
34.323210498178213
 30
0.0
 11
34.837395277708858
 21
34.28398250808555
 31
0.0
  0
LINE
  5
881
  8
0
  6
CONTINUOUS
 62
     7
 10
35.18555331927088
 20
34.323210498178213
 30
0.0
 11
35.29766047408345
 21
34.28398250808555
 31
0.0
  0
LINE
  5
882
  8
0
  6
CONTINUOUS
 62
     7
 10
36.487142316364263
 20
34.323210498178213
 30
0.0
 11
36.375035161551672
 21
34.28398250808555
 31
0.0
  0
LINE
  5
883
  8
0
  6
CONTINUOUS
 62
     7
 10
36.723193203113702
 20
34.323210498178213
 30
0.0
 11
36.835300357926293
 21
34.28398250808555
 31
0.0
  0
LINE
  5
884
  8
0
  6
CONTINUOUS
 62
     7
 10
25.611555974651971
 20
34.28398250808555
 30
0.0
 11
25.510988629262538
 21
34.220791856813349
 31
0.0
  0
LINE
  5
885
  8
0
  6
CONTINUOUS
 62
     7
 10
26.071821171026581
 20
34.28398250808555
 30
0.0
 11
26.17238851641601
 21
34.220791856813349
 31
0.0
  0
LINE
  5
886
  8
0
  6
CONTINUOUS
 62
     7
 10
27.149195858494789
 20
34.28398250808555
 30
0.0
 11
27.04862851310536
 21
34.220791856813349
 31
0.0
  0
LINE
  5
887
  8
0
  6
CONTINUOUS
 62
     7
 10
27.609461054869389
 20
34.28398250808555
 30
0.0
 11
27.710028400258821
 21
34.220791856813349
 31
0.0
  0
LINE
  5
888
  8
0
  6
CONTINUOUS
 62
     7
 10
28.6868357423376
 20
34.28398250808555
 30
0.0
 11
28.586268396948171
 21
34.220791856813349
 31
0.0
  0
LINE
  5
889
  8
0
  6
CONTINUOUS
 62
     7
 10
29.14710093871221
 20
34.28398250808555
 30
0.0
 11
29.247668284101628
 21
34.220791856813349
 31
0.0
  0
LINE
  5
88A
  8
0
  6
CONTINUOUS
 62
     7
 10
30.224475626180421
 20
34.28398250808555
 30
0.0
 11
30.123908280790982
 21
34.220791856813349
 31
0.0
  0
LINE
  5
88B
  8
0
  6
CONTINUOUS
 62
     7
 10
30.684740822555021
 20
34.28398250808555
 30
0.0
 11
30.78530816794445
 21
34.220791856813349
 31
0.0
  0
LINE
  5
88C
  8
0
  6
CONTINUOUS
 62
     7
 10
31.762115510023229
 20
34.28398250808555
 30
0.0
 11
31.6615481646338
 21
34.220791856813349
 31
0.0
  0
LINE
  5
88D
  8
0
  6
CONTINUOUS
 62
     7
 10
32.22238070639785
 20
34.28398250808555
 30
0.0
 11
32.322948051787272
 21
34.220791856813349
 31
0.0
  0
LINE
  5
88E
  8
0
  6
CONTINUOUS
 62
     7
 10
33.29975539386605
 20
34.28398250808555
 30
0.0
 11
33.199188048476621
 21
34.220791856813349
 31
0.0
  0
LINE
  5
88F
  8
0
  6
CONTINUOUS
 62
     7
 10
33.76002059024065
 20
34.28398250808555
 30
0.0
 11
33.860587935630079
 21
34.220791856813349
 31
0.0
  0
LINE
  5
890
  8
0
  6
CONTINUOUS
 62
     7
 10
34.837395277708858
 20
34.28398250808555
 30
0.0
 11
34.736827932319429
 21
34.220791856813349
 31
0.0
  0
LINE
  5
891
  8
0
  6
CONTINUOUS
 62
     7
 10
35.29766047408345
 20
34.28398250808555
 30
0.0
 11
35.398227819472901
 21
34.220791856813349
 31
0.0
  0
LINE
  5
892
  8
0
  6
CONTINUOUS
 62
     7
 10
36.375035161551672
 20
34.28398250808555
 30
0.0
 11
36.27446781616225
 21
34.220791856813349
 31
0.0
  0
LINE
  5
893
  8
0
  6
CONTINUOUS
 62
     7
 10
36.835300357926293
 20
34.28398250808555
 30
0.0
 11
36.935867703315687
 21
34.220791856813349
 31
0.0
  0
LINE
  5
894
  8
0
  6
CONTINUOUS
 62
     7
 10
25.510988629262538
 20
34.220791856813349
 30
0.0
 11
25.427003959926761
 21
34.136807187477579
 31
0.0
  0
LINE
  5
895
  8
0
  6
CONTINUOUS
 62
     7
 10
26.17238851641601
 20
34.220791856813349
 30
0.0
 11
26.256373185751791
 21
34.136807187477579
 31
0.0
  0
LINE
  5
896
  8
0
  6
CONTINUOUS
 62
     7
 10
27.04862851310536
 20
34.220791856813349
 30
0.0
 11
26.964643843769579
 21
34.136807187477579
 31
0.0
  0
LINE
  5
897
  8
0
  6
CONTINUOUS
 62
     7
 10
27.710028400258821
 20
34.220791856813349
 30
0.0
 11
27.794013069594602
 21
34.136807187477579
 31
0.0
  0
LINE
  5
898
  8
0
  6
CONTINUOUS
 62
     7
 10
28.586268396948171
 20
34.220791856813349
 30
0.0
 11
28.50228372761239
 21
34.136807187477579
 31
0.0
  0
LINE
  5
899
  8
0
  6
CONTINUOUS
 62
     7
 10
29.247668284101628
 20
34.220791856813349
 30
0.0
 11
29.33165295343743
 21
34.136807187477579
 31
0.0
  0
LINE
  5
89A
  8
0
  6
CONTINUOUS
 62
     7
 10
30.123908280790982
 20
34.220791856813349
 30
0.0
 11
30.039923611455201
 21
34.136807187477579
 31
0.0
  0
LINE
  5
89B
  8
0
  6
CONTINUOUS
 62
     7
 10
30.78530816794445
 20
34.220791856813349
 30
0.0
 11
30.869292837280241
 21
34.136807187477579
 31
0.0
  0
LINE
  5
89C
  8
0
  6
CONTINUOUS
 62
     7
 10
31.6615481646338
 20
34.220791856813349
 30
0.0
 11
31.577563495298008
 21
34.136807187477579
 31
0.0
  0
LINE
  5
89D
  8
0
  6
CONTINUOUS
 62
     7
 10
32.322948051787272
 20
34.220791856813349
 30
0.0
 11
32.406932721123049
 21
34.136807187477579
 31
0.0
  0
LINE
  5
89E
  8
0
  6
CONTINUOUS
 62
     7
 10
33.199188048476621
 20
34.220791856813349
 30
0.0
 11
33.11520337914083
 21
34.136807187477579
 31
0.0
  0
LINE
  5
89F
  8
0
  6
CONTINUOUS
 62
     7
 10
33.860587935630079
 20
34.220791856813349
 30
0.0
 11
33.94457260496587
 21
34.136807187477579
 31
0.0
  0
LINE
  5
8A0
  8
0
  6
CONTINUOUS
 62
     7
 10
34.736827932319429
 20
34.220791856813349
 30
0.0
 11
34.652843262983652
 21
34.136807187477579
 31
0.0
  0
LINE
  5
8A1
  8
0
  6
CONTINUOUS
 62
     7
 10
35.398227819472901
 20
34.220791856813349
 30
0.0
 11
35.482212488808678
 21
34.136807187477579
 31
0.0
  0
LINE
  5
8A2
  8
0
  6
CONTINUOUS
 62
     7
 10
36.27446781616225
 20
34.220791856813349
 30
0.0
 11
36.190483146826452
 21
34.136807187477579
 31
0.0
  0
LINE
  5
8A3
  8
0
  6
CONTINUOUS
 62
     7
 10
36.935867703315687
 20
34.220791856813349
 30
0.0
 11
37.019852372651492
 21
34.136807187477579
 31
0.0
  0
LINE
  5
8A4
  8
0
  6
CONTINUOUS
 62
     7
 10
25.427003959926761
 20
34.136807187477579
 30
0.0
 11
25.363813308654549
 21
34.036239842088143
 31
0.0
  0
LINE
  5
8A5
  8
0
  6
CONTINUOUS
 62
     7
 10
26.256373185751791
 20
34.136807187477579
 30
0.0
 11
26.319563837023999
 21
34.036239842088143
 31
0.0
  0
LINE
  5
8A6
  8
0
  6
CONTINUOUS
 62
     7
 10
26.964643843769579
 20
34.136807187477579
 30
0.0
 11
26.901453192497371
 21
34.036239842088143
 31
0.0
  0
LINE
  5
8A7
  8
0
  6
CONTINUOUS
 62
     7
 10
27.794013069594602
 20
34.136807187477579
 30
0.0
 11
27.85720372086681
 21
34.036239842088143
 31
0.0
  0
LINE
  5
8A8
  8
0
  6
CONTINUOUS
 62
     7
 10
28.50228372761239
 20
34.136807187477579
 30
0.0
 11
28.439093076340178
 21
34.036239842088143
 31
0.0
  0
LINE
  5
8A9
  8
0
  6
CONTINUOUS
 62
     7
 10
29.33165295343743
 20
34.136807187477579
 30
0.0
 11
29.394843604709632
 21
34.036239842088143
 31
0.0
  0
LINE
  5
8AA
  8
0
  6
CONTINUOUS
 62
     7
 10
30.039923611455201
 20
34.136807187477579
 30
0.0
 11
29.976732960183
 21
34.036239842088143
 31
0.0
  0
LINE
  5
8AB
  8
0
  6
CONTINUOUS
 62
     7
 10
30.869292837280241
 20
34.136807187477579
 30
0.0
 11
30.932483488552439
 21
34.036239842088143
 31
0.0
  0
LINE
  5
8AC
  8
0
  6
CONTINUOUS
 62
     7
 10
31.577563495298008
 20
34.136807187477579
 30
0.0
 11
31.514372844025811
 21
34.036239842088143
 31
0.0
  0
LINE
  5
8AD
  8
0
  6
CONTINUOUS
 62
     7
 10
32.406932721123049
 20
34.136807187477579
 30
0.0
 11
32.47012337239525
 21
34.036239842088143
 31
0.0
  0
LINE
  5
8AE
  8
0
  6
CONTINUOUS
 62
     7
 10
33.11520337914083
 20
34.136807187477579
 30
0.0
 11
33.052012727868629
 21
34.036239842088143
 31
0.0
  0
LINE
  5
8AF
  8
0
  6
CONTINUOUS
 62
     7
 10
33.94457260496587
 20
34.136807187477579
 30
0.0
 11
34.007763256238071
 21
34.036239842088143
 31
0.0
  0
LINE
  5
8B0
  8
0
  6
CONTINUOUS
 62
     7
 10
34.652843262983652
 20
34.136807187477579
 30
0.0
 11
34.589652611711443
 21
34.036239842088143
 31
0.0
  0
LINE
  5
8B1
  8
0
  6
CONTINUOUS
 62
     7
 10
35.482212488808678
 20
34.136807187477579
 30
0.0
 11
35.545403140080879
 21
34.036239842088143
 31
0.0
  0
LINE
  5
8B2
  8
0
  6
CONTINUOUS
 62
     7
 10
36.190483146826452
 20
34.136807187477579
 30
0.0
 11
36.127292495554258
 21
34.036239842088143
 31
0.0
  0
LINE
  5
8B3
  8
0
  6
CONTINUOUS
 62
     7
 10
37.019852372651492
 20
34.136807187477579
 30
0.0
 11
37.083043023923693
 21
34.036239842088143
 31
0.0
  0
LINE
  5
8B4
  8
0
  6
CONTINUOUS
 62
     7
 10
25.363813308654549
 20
34.036239842088143
 30
0.0
 11
25.324585318561891
 21
33.924132687275552
 31
0.0
  0
LINE
  5
8B5
  8
0
  6
CONTINUOUS
 62
     7
 10
26.319563837023999
 20
34.036239842088143
 30
0.0
 11
26.358791827116651
 21
33.924132687275552
 31
0.0
  0
LINE
  5
8B6
  8
0
  6
CONTINUOUS
 62
     7
 10
26.901453192497371
 20
34.036239842088143
 30
0.0
 11
26.862225202404709
 21
33.924132687275552
 31
0.0
  0
LINE
  5
8B7
  8
0
  6
CONTINUOUS
 62
     7
 10
27.85720372086681
 20
34.036239842088143
 30
0.0
 11
27.896431710959469
 21
33.924132687275552
 31
0.0
  0
LINE
  5
8B8
  8
0
  6
CONTINUOUS
 62
     7
 10
28.439093076340178
 20
34.036239842088143
 30
0.0
 11
28.39986508624753
 21
33.924132687275552
 31
0.0
  0
LINE
  5
8B9
  8
0
  6
CONTINUOUS
 62
     7
 10
29.394843604709632
 20
34.036239842088143
 30
0.0
 11
29.43407159480229
 21
33.924132687275552
 31
0.0
  0
LINE
  5
8BA
  8
0
  6
CONTINUOUS
 62
     7
 10
29.976732960183
 20
34.036239842088143
 30
0.0
 11
29.937504970090341
 21
33.924132687275552
 31
0.0
  0
LINE
  5
8BB
  8
0
  6
CONTINUOUS
 62
     7
 10
30.932483488552439
 20
34.036239842088143
 30
0.0
 11
30.971711478645101
 21
33.924132687275552
 31
0.0
  0
LINE
  5
8BC
  8
0
  6
CONTINUOUS
 62
     7
 10
31.514372844025811
 20
34.036239842088143
 30
0.0
 11
31.475144853933148
 21
33.924132687275552
 31
0.0
  0
LINE
  5
8BD
  8
0
  6
CONTINUOUS
 62
     7
 10
32.47012337239525
 20
34.036239842088143
 30
0.0
 11
32.509351362487912
 21
33.924132687275552
 31
0.0
  0
LINE
  5
8BE
  8
0
  6
CONTINUOUS
 62
     7
 10
33.052012727868629
 20
34.036239842088143
 30
0.0
 11
33.012784737775966
 21
33.924132687275552
 31
0.0
  0
LINE
  5
8BF
  8
0
  6
CONTINUOUS
 62
     7
 10
34.007763256238071
 20
34.036239842088143
 30
0.0
 11
34.046991246330727
 21
33.924132687275552
 31
0.0
  0
LINE
  5
8C0
  8
0
  6
CONTINUOUS
 62
     7
 10
34.589652611711443
 20
34.036239842088143
 30
0.0
 11
34.550424621618781
 21
33.924132687275552
 31
0.0
  0
LINE
  5
8C1
  8
0
  6
CONTINUOUS
 62
     7
 10
35.545403140080879
 20
34.036239842088143
 30
0.0
 11
35.584631130173541
 21
33.924132687275552
 31
0.0
  0
LINE
  5
8C2
  8
0
  6
CONTINUOUS
 62
     7
 10
36.127292495554258
 20
34.036239842088143
 30
0.0
 11
36.088064505461602
 21
33.924132687275552
 31
0.0
  0
LINE
  5
8C3
  8
0
  6
CONTINUOUS
 62
     7
 10
37.083043023923693
 20
34.036239842088143
 30
0.0
 11
37.122271014016363
 21
33.924132687275552
 31
0.0
  0
LINE
  5
8C4
  8
0
  6
CONTINUOUS
 62
     7
 10
25.324585318561891
 20
33.924132687275552
 30
0.0
 11
25.311287044873861
 21
33.80610724390084
 31
0.0
  0
LINE
  5
8C5
  8
0
  6
CONTINUOUS
 62
     7
 10
26.358791827116651
 20
33.924132687275552
 30
0.0
 11
26.372090100804702
 21
33.80610724390084
 31
0.0
  0
LINE
  5
8C6
  8
0
  6
CONTINUOUS
 62
     7
 10
26.862225202404709
 20
33.924132687275552
 30
0.0
 11
26.848926928716669
 21
33.80610724390084
 31
0.0
  0
LINE
  5
8C7
  8
0
  6
CONTINUOUS
 62
     7
 10
27.896431710959469
 20
33.924132687275552
 30
0.0
 11
27.909729984647509
 21
33.80610724390084
 31
0.0
  0
LINE
  5
8C8
  8
0
  6
CONTINUOUS
 62
     7
 10
28.39986508624753
 20
33.924132687275552
 30
0.0
 11
28.386566812559479
 21
33.80610724390084
 31
0.0
  0
LINE
  5
8C9
  8
0
  6
CONTINUOUS
 62
     7
 10
29.43407159480229
 20
33.924132687275552
 30
0.0
 11
29.44736986849033
 21
33.80610724390084
 31
0.0
  0
LINE
  5
8CA
  8
0
  6
CONTINUOUS
 62
     7
 10
29.937504970090341
 20
33.924132687275552
 30
0.0
 11
29.924206696402301
 21
33.80610724390084
 31
0.0
  0
LINE
  5
8CB
  8
0
  6
CONTINUOUS
 62
     7
 10
30.971711478645101
 20
33.924132687275552
 30
0.0
 11
30.985009752333141
 21
33.80610724390084
 31
0.0
  0
LINE
  5
8CC
  8
0
  6
CONTINUOUS
 62
     7
 10
31.475144853933148
 20
33.924132687275552
 30
0.0
 11
31.461846580245108
 21
33.80610724390084
 31
0.0
  0
LINE
  5
8CD
  8
0
  6
CONTINUOUS
 62
     7
 10
32.509351362487912
 20
33.924132687275552
 30
0.0
 11
32.52264963617597
 21
33.80610724390084
 31
0.0
  0
LINE
  5
8CE
  8
0
  6
CONTINUOUS
 62
     7
 10
33.012784737775966
 20
33.924132687275552
 30
0.0
 11
32.999486464087923
 21
33.80610724390084
 31
0.0
  0
LINE
  5
8CF
  8
0
  6
CONTINUOUS
 62
     7
 10
34.046991246330727
 20
33.924132687275552
 30
0.0
 11
34.06028952001877
 21
33.80610724390084
 31
0.0
  0
LINE
  5
8D0
  8
0
  6
CONTINUOUS
 62
     7
 10
34.550424621618781
 20
33.924132687275552
 30
0.0
 11
34.537126347930737
 21
33.80610724390084
 31
0.0
  0
LINE
  5
8D1
  8
0
  6
CONTINUOUS
 62
     7
 10
35.584631130173541
 20
33.924132687275552
 30
0.0
 11
35.597929403861592
 21
33.80610724390084
 31
0.0
  0
LINE
  5
8D2
  8
0
  6
CONTINUOUS
 62
     7
 10
36.088064505461602
 20
33.924132687275552
 30
0.0
 11
36.074766231773552
 21
33.80610724390084
 31
0.0
  0
LINE
  5
8D3
  8
0
  6
CONTINUOUS
 62
     7
 10
37.122271014016363
 20
33.924132687275552
 30
0.0
 11
37.135569287704399
 21
33.80610724390084
 31
0.0
  0
LINE
  5
8D4
  8
0
  6
CONTINUOUS
 62
     7
 10
25.311287044873861
 20
33.80610724390084
 30
0.0
 11
25.324585318561891
 21
33.688081800526113
 31
0.0
  0
LINE
  5
8D5
  8
0
  6
CONTINUOUS
 62
     7
 10
26.372090100804702
 20
33.80610724390084
 30
0.0
 11
26.358791827116651
 21
33.688081800526113
 31
0.0
  0
LINE
  5
8D6
  8
0
  6
CONTINUOUS
 62
     7
 10
26.848926928716669
 20
33.80610724390084
 30
0.0
 11
26.862225202404709
 21
33.688081800526113
 31
0.0
  0
LINE
  5
8D7
  8
0
  6
CONTINUOUS
 62
     7
 10
27.909729984647509
 20
33.80610724390084
 30
0.0
 11
27.896431710959469
 21
33.688081800526113
 31
0.0
  0
LINE
  5
8D8
  8
0
  6
CONTINUOUS
 62
     7
 10
28.386566812559479
 20
33.80610724390084
 30
0.0
 11
28.39986508624753
 21
33.688081800526113
 31
0.0
  0
LINE
  5
8D9
  8
0
  6
CONTINUOUS
 62
     7
 10
29.44736986849033
 20
33.80610724390084
 30
0.0
 11
29.43407159480229
 21
33.688081800526113
 31
0.0
  0
LINE
  5
8DA
  8
0
  6
CONTINUOUS
 62
     7
 10
29.924206696402301
 20
33.80610724390084
 30
0.0
 11
29.937504970090341
 21
33.688081800526113
 31
0.0
  0
LINE
  5
8DB
  8
0
  6
CONTINUOUS
 62
     7
 10
30.985009752333141
 20
33.80610724390084
 30
0.0
 11
30.971711478645101
 21
33.688081800526113
 31
0.0
  0
LINE
  5
8DC
  8
0
  6
CONTINUOUS
 62
     7
 10
31.461846580245108
 20
33.80610724390084
 30
0.0
 11
31.475144853933148
 21
33.688081800526113
 31
0.0
  0
LINE
  5
8DD
  8
0
  6
CONTINUOUS
 62
     7
 10
32.52264963617597
 20
33.80610724390084
 30
0.0
 11
32.509351362487912
 21
33.688081800526113
 31
0.0
  0
LINE
  5
8DE
  8
0
  6
CONTINUOUS
 62
     7
 10
32.999486464087923
 20
33.80610724390084
 30
0.0
 11
33.012784737775966
 21
33.688081800526113
 31
0.0
  0
LINE
  5
8DF
  8
0
  6
CONTINUOUS
 62
     7
 10
34.06028952001877
 20
33.80610724390084
 30
0.0
 11
34.046991246330727
 21
33.688081800526113
 31
0.0
  0
LINE
  5
8E0
  8
0
  6
CONTINUOUS
 62
     7
 10
34.537126347930737
 20
33.80610724390084
 30
0.0
 11
34.550424621618781
 21
33.688081800526113
 31
0.0
  0
LINE
  5
8E1
  8
0
  6
CONTINUOUS
 62
     7
 10
35.597929403861592
 20
33.80610724390084
 30
0.0
 11
35.584631130173541
 21
33.688081800526113
 31
0.0
  0
LINE
  5
8E2
  8
0
  6
CONTINUOUS
 62
     7
 10
36.074766231773552
 20
33.80610724390084
 30
0.0
 11
36.088064505461602
 21
33.688081800526113
 31
0.0
  0
LINE
  5
8E3
  8
0
  6
CONTINUOUS
 62
     7
 10
37.135569287704399
 20
33.80610724390084
 30
0.0
 11
37.122271014016363
 21
33.688081800526113
 31
0.0
  0
LINE
  5
8E4
  8
0
  6
CONTINUOUS
 62
     7
 10
25.324585318561891
 20
33.688081800526113
 30
0.0
 11
25.363813308654549
 21
33.575974645713529
 31
0.0
  0
LINE
  5
8E5
  8
0
  6
CONTINUOUS
 62
     7
 10
26.358791827116651
 20
33.688081800526113
 30
0.0
 11
26.319563837023999
 21
33.575974645713529
 31
0.0
  0
LINE
  5
8E6
  8
0
  6
CONTINUOUS
 62
     7
 10
26.862225202404709
 20
33.688081800526113
 30
0.0
 11
26.901453192497371
 21
33.575974645713529
 31
0.0
  0
LINE
  5
8E7
  8
0
  6
CONTINUOUS
 62
     7
 10
27.896431710959469
 20
33.688081800526113
 30
0.0
 11
27.85720372086681
 21
33.575974645713529
 31
0.0
  0
LINE
  5
8E8
  8
0
  6
CONTINUOUS
 62
     7
 10
28.39986508624753
 20
33.688081800526113
 30
0.0
 11
28.439093076340178
 21
33.575974645713529
 31
0.0
  0
LINE
  5
8E9
  8
0
  6
CONTINUOUS
 62
     7
 10
29.43407159480229
 20
33.688081800526113
 30
0.0
 11
29.394843604709632
 21
33.575974645713529
 31
0.0
  0
LINE
  5
8EA
  8
0
  6
CONTINUOUS
 62
     7
 10
29.937504970090341
 20
33.688081800526113
 30
0.0
 11
29.976732960183
 21
33.575974645713529
 31
0.0
  0
LINE
  5
8EB
  8
0
  6
CONTINUOUS
 62
     7
 10
30.971711478645101
 20
33.688081800526113
 30
0.0
 11
30.932483488552439
 21
33.575974645713529
 31
0.0
  0
LINE
  5
8EC
  8
0
  6
CONTINUOUS
 62
     7
 10
31.475144853933148
 20
33.688081800526113
 30
0.0
 11
31.514372844025811
 21
33.575974645713529
 31
0.0
  0
LINE
  5
8ED
  8
0
  6
CONTINUOUS
 62
     7
 10
32.509351362487912
 20
33.688081800526113
 30
0.0
 11
32.47012337239525
 21
33.575974645713529
 31
0.0
  0
LINE
  5
8EE
  8
0
  6
CONTINUOUS
 62
     7
 10
33.012784737775966
 20
33.688081800526113
 30
0.0
 11
33.052012727868629
 21
33.575974645713529
 31
0.0
  0
LINE
  5
8EF
  8
0
  6
CONTINUOUS
 62
     7
 10
34.046991246330727
 20
33.688081800526113
 30
0.0
 11
34.007763256238071
 21
33.575974645713529
 31
0.0
  0
LINE
  5
8F0
  8
0
  6
CONTINUOUS
 62
     7
 10
34.550424621618781
 20
33.688081800526113
 30
0.0
 11
34.589652611711443
 21
33.575974645713529
 31
0.0
  0
LINE
  5
8F1
  8
0
  6
CONTINUOUS
 62
     7
 10
35.584631130173541
 20
33.688081800526113
 30
0.0
 11
35.545403140080879
 21
33.575974645713529
 31
0.0
  0
LINE
  5
8F2
  8
0
  6
CONTINUOUS
 62
     7
 10
36.088064505461602
 20
33.688081800526113
 30
0.0
 11
36.127292495554258
 21
33.575974645713529
 31
0.0
  0
LINE
  5
8F3
  8
0
  6
CONTINUOUS
 62
     7
 10
37.122271014016363
 20
33.688081800526113
 30
0.0
 11
37.083043023923693
 21
33.575974645713529
 31
0.0
  0
LINE
  5
8F4
  8
0
  6
CONTINUOUS
 62
     7
 10
25.363813308654549
 20
33.575974645713529
 30
0.0
 11
25.427003959926761
 21
33.4754073003241
 31
0.0
  0
LINE
  5
8F5
  8
0
  6
CONTINUOUS
 62
     7
 10
26.319563837023999
 20
33.575974645713529
 30
0.0
 11
26.256373185751791
 21
33.4754073003241
 31
0.0
  0
LINE
  5
8F6
  8
0
  6
CONTINUOUS
 62
     7
 10
26.901453192497371
 20
33.575974645713529
 30
0.0
 11
26.964643843769579
 21
33.4754073003241
 31
0.0
  0
LINE
  5
8F7
  8
0
  6
CONTINUOUS
 62
     7
 10
27.85720372086681
 20
33.575974645713529
 30
0.0
 11
27.794013069594602
 21
33.4754073003241
 31
0.0
  0
LINE
  5
8F8
  8
0
  6
CONTINUOUS
 62
     7
 10
28.439093076340178
 20
33.575974645713529
 30
0.0
 11
28.50228372761239
 21
33.4754073003241
 31
0.0
  0
LINE
  5
8F9
  8
0
  6
CONTINUOUS
 62
     7
 10
29.394843604709632
 20
33.575974645713529
 30
0.0
 11
29.33165295343743
 21
33.4754073003241
 31
0.0
  0
LINE
  5
8FA
  8
0
  6
CONTINUOUS
 62
     7
 10
29.976732960183
 20
33.575974645713529
 30
0.0
 11
30.039923611455201
 21
33.4754073003241
 31
0.0
  0
LINE
  5
8FB
  8
0
  6
CONTINUOUS
 62
     7
 10
30.932483488552439
 20
33.575974645713529
 30
0.0
 11
30.869292837280241
 21
33.4754073003241
 31
0.0
  0
LINE
  5
8FC
  8
0
  6
CONTINUOUS
 62
     7
 10
31.514372844025811
 20
33.575974645713529
 30
0.0
 11
31.577563495298008
 21
33.4754073003241
 31
0.0
  0
LINE
  5
8FD
  8
0
  6
CONTINUOUS
 62
     7
 10
32.47012337239525
 20
33.575974645713529
 30
0.0
 11
32.406932721123049
 21
33.4754073003241
 31
0.0
  0
LINE
  5
8FE
  8
0
  6
CONTINUOUS
 62
     7
 10
33.052012727868629
 20
33.575974645713529
 30
0.0
 11
33.11520337914083
 21
33.4754073003241
 31
0.0
  0
LINE
  5
8FF
  8
0
  6
CONTINUOUS
 62
     7
 10
34.007763256238071
 20
33.575974645713529
 30
0.0
 11
33.94457260496587
 21
33.4754073003241
 31
0.0
  0
LINE
  5
900
  8
0
  6
CONTINUOUS
 62
     7
 10
34.589652611711443
 20
33.575974645713529
 30
0.0
 11
34.652843262983652
 21
33.4754073003241
 31
0.0
  0
LINE
  5
901
  8
0
  6
CONTINUOUS
 62
     7
 10
35.545403140080879
 20
33.575974645713529
 30
0.0
 11
35.482212488808678
 21
33.4754073003241
 31
0.0
  0
LINE
  5
902
  8
0
  6
CONTINUOUS
 62
     7
 10
36.127292495554258
 20
33.575974645713529
 30
0.0
 11
36.190483146826452
 21
33.4754073003241
 31
0.0
  0
LINE
  5
903
  8
0
  6
CONTINUOUS
 62
     7
 10
37.083043023923693
 20
33.575974645713529
 30
0.0
 11
37.019852372651492
 21
33.4754073003241
 31
0.0
  0
LINE
  5
904
  8
0
  6
CONTINUOUS
 62
     7
 10
25.427003959926761
 20
33.4754073003241
 30
0.0
 11
25.510988629262538
 21
33.391422630988323
 31
0.0
  0
LINE
  5
905
  8
0
  6
CONTINUOUS
 62
     7
 10
26.256373185751791
 20
33.4754073003241
 30
0.0
 11
26.17238851641601
 21
33.391422630988323
 31
0.0
  0
LINE
  5
906
  8
0
  6
CONTINUOUS
 62
     7
 10
26.964643843769579
 20
33.4754073003241
 30
0.0
 11
27.04862851310536
 21
33.391422630988323
 31
0.0
  0
LINE
  5
907
  8
0
  6
CONTINUOUS
 62
     7
 10
27.794013069594602
 20
33.4754073003241
 30
0.0
 11
27.710028400258821
 21
33.391422630988323
 31
0.0
  0
LINE
  5
908
  8
0
  6
CONTINUOUS
 62
     7
 10
28.50228372761239
 20
33.4754073003241
 30
0.0
 11
28.586268396948171
 21
33.391422630988323
 31
0.0
  0
LINE
  5
909
  8
0
  6
CONTINUOUS
 62
     7
 10
29.33165295343743
 20
33.4754073003241
 30
0.0
 11
29.247668284101628
 21
33.391422630988323
 31
0.0
  0
LINE
  5
90A
  8
0
  6
CONTINUOUS
 62
     7
 10
30.039923611455201
 20
33.4754073003241
 30
0.0
 11
30.123908280790982
 21
33.391422630988323
 31
0.0
  0
LINE
  5
90B
  8
0
  6
CONTINUOUS
 62
     7
 10
30.869292837280241
 20
33.4754073003241
 30
0.0
 11
30.78530816794445
 21
33.391422630988323
 31
0.0
  0
LINE
  5
90C
  8
0
  6
CONTINUOUS
 62
     7
 10
31.577563495298008
 20
33.4754073003241
 30
0.0
 11
31.6615481646338
 21
33.391422630988323
 31
0.0
  0
LINE
  5
90D
  8
0
  6
CONTINUOUS
 62
     7
 10
32.406932721123049
 20
33.4754073003241
 30
0.0
 11
32.322948051787272
 21
33.391422630988323
 31
0.0
  0
LINE
  5
90E
  8
0
  6
CONTINUOUS
 62
     7
 10
33.11520337914083
 20
33.4754073003241
 30
0.0
 11
33.199188048476621
 21
33.391422630988323
 31
0.0
  0
LINE
  5
90F
  8
0
  6
CONTINUOUS
 62
     7
 10
33.94457260496587
 20
33.4754073003241
 30
0.0
 11
33.860587935630079
 21
33.391422630988323
 31
0.0
  0
LINE
  5
910
  8
0
  6
CONTINUOUS
 62
     7
 10
34.652843262983652
 20
33.4754073003241
 30
0.0
 11
34.736827932319429
 21
33.391422630988323
 31
0.0
  0
LINE
  5
911
  8
0
  6
CONTINUOUS
 62
     7
 10
35.482212488808678
 20
33.4754073003241
 30
0.0
 11
35.398227819472901
 21
33.391422630988323
 31
0.0
  0
LINE
  5
912
  8
0
  6
CONTINUOUS
 62
     7
 10
36.190483146826452
 20
33.4754073003241
 30
0.0
 11
36.27446781616225
 21
33.391422630988323
 31
0.0
  0
LINE
  5
913
  8
0
  6
CONTINUOUS
 62
     7
 10
37.019852372651492
 20
33.4754073003241
 30
0.0
 11
36.935867703315687
 21
33.391422630988323
 31
0.0
  0
LINE
  5
914
  8
0
  6
CONTINUOUS
 62
     7
 10
25.510988629262538
 20
33.391422630988323
 30
0.0
 11
25.611555974651971
 21
33.328231979716122
 31
0.0
  0
LINE
  5
915
  8
0
  6
CONTINUOUS
 62
     7
 10
26.17238851641601
 20
33.391422630988323
 30
0.0
 11
26.071821171026581
 21
33.328231979716122
 31
0.0
  0
LINE
  5
916
  8
0
  6
CONTINUOUS
 62
     7
 10
27.04862851310536
 20
33.391422630988323
 30
0.0
 11
27.149195858494789
 21
33.328231979716122
 31
0.0
  0
LINE
  5
917
  8
0
  6
CONTINUOUS
 62
     7
 10
27.710028400258821
 20
33.391422630988323
 30
0.0
 11
27.609461054869389
 21
33.328231979716122
 31
0.0
  0
LINE
  5
918
  8
0
  6
CONTINUOUS
 62
     7
 10
28.586268396948171
 20
33.391422630988323
 30
0.0
 11
28.6868357423376
 21
33.328231979716122
 31
0.0
  0
LINE
  5
919
  8
0
  6
CONTINUOUS
 62
     7
 10
29.247668284101628
 20
33.391422630988323
 30
0.0
 11
29.14710093871221
 21
33.328231979716122
 31
0.0
  0
LINE
  5
91A
  8
0
  6
CONTINUOUS
 62
     7
 10
30.123908280790982
 20
33.391422630988323
 30
0.0
 11
30.224475626180421
 21
33.328231979716122
 31
0.0
  0
LINE
  5
91B
  8
0
  6
CONTINUOUS
 62
     7
 10
30.78530816794445
 20
33.391422630988323
 30
0.0
 11
30.684740822555021
 21
33.328231979716122
 31
0.0
  0
LINE
  5
91C
  8
0
  6
CONTINUOUS
 62
     7
 10
31.6615481646338
 20
33.391422630988323
 30
0.0
 11
31.762115510023229
 21
33.328231979716122
 31
0.0
  0
LINE
  5
91D
  8
0
  6
CONTINUOUS
 62
     7
 10
32.322948051787272
 20
33.391422630988323
 30
0.0
 11
32.22238070639785
 21
33.328231979716122
 31
0.0
  0
LINE
  5
91E
  8
0
  6
CONTINUOUS
 62
     7
 10
33.199188048476621
 20
33.391422630988323
 30
0.0
 11
33.29975539386605
 21
33.328231979716122
 31
0.0
  0
LINE
  5
91F
  8
0
  6
CONTINUOUS
 62
     7
 10
33.860587935630079
 20
33.391422630988323
 30
0.0
 11
33.76002059024065
 21
33.328231979716122
 31
0.0
  0
LINE
  5
920
  8
0
  6
CONTINUOUS
 62
     7
 10
34.736827932319429
 20
33.391422630988323
 30
0.0
 11
34.837395277708858
 21
33.328231979716122
 31
0.0
  0
LINE
  5
921
  8
0
  6
CONTINUOUS
 62
     7
 10
35.398227819472901
 20
33.391422630988323
 30
0.0
 11
35.29766047408345
 21
33.328231979716122
 31
0.0
  0
LINE
  5
922
  8
0
  6
CONTINUOUS
 62
     7
 10
36.27446781616225
 20
33.391422630988323
 30
0.0
 11
36.375035161551672
 21
33.328231979716122
 31
0.0
  0
LINE
  5
923
  8
0
  6
CONTINUOUS
 62
     7
 10
36.935867703315687
 20
33.391422630988323
 30
0.0
 11
36.835300357926293
 21
33.328231979716122
 31
0.0
  0
LINE
  5
924
  8
0
  6
CONTINUOUS
 62
     7
 10
25.611555974651971
 20
33.328231979716122
 30
0.0
 11
25.723663129464551
 21
33.289003989623453
 31
0.0
  0
LINE
  5
925
  8
0
  6
CONTINUOUS
 62
     7
 10
26.071821171026581
 20
33.328231979716122
 30
0.0
 11
25.959714016214001
 21
33.289003989623453
 31
0.0
  0
LINE
  5
926
  8
0
  6
CONTINUOUS
 62
     7
 10
27.149195858494789
 20
33.328231979716122
 30
0.0
 11
27.26130301330738
 21
33.289003989623453
 31
0.0
  0
LINE
  5
927
  8
0
  6
CONTINUOUS
 62
     7
 10
27.609461054869389
 20
33.328231979716122
 30
0.0
 11
27.497353900056812
 21
33.289003989623453
 31
0.0
  0
LINE
  5
928
  8
0
  6
CONTINUOUS
 62
     7
 10
28.6868357423376
 20
33.328231979716122
 30
0.0
 11
28.79894289715018
 21
33.289003989623453
 31
0.0
  0
LINE
  5
929
  8
0
  6
CONTINUOUS
 62
     7
 10
29.14710093871221
 20
33.328231979716122
 30
0.0
 11
29.03499378389963
 21
33.289003989623453
 31
0.0
  0
LINE
  5
92A
  8
0
  6
CONTINUOUS
 62
     7
 10
30.224475626180421
 20
33.328231979716122
 30
0.0
 11
30.336582780992991
 21
33.289003989623453
 31
0.0
  0
LINE
  5
92B
  8
0
  6
CONTINUOUS
 62
     7
 10
30.684740822555021
 20
33.328231979716122
 30
0.0
 11
30.572633667742451
 21
33.289003989623453
 31
0.0
  0
LINE
  5
92C
  8
0
  6
CONTINUOUS
 62
     7
 10
31.762115510023229
 20
33.328231979716122
 30
0.0
 11
31.874222664835809
 21
33.289003989623453
 31
0.0
  0
LINE
  5
92D
  8
0
  6
CONTINUOUS
 62
     7
 10
32.22238070639785
 20
33.328231979716122
 30
0.0
 11
32.110273551585252
 21
33.289003989623453
 31
0.0
  0
LINE
  5
92E
  8
0
  6
CONTINUOUS
 62
     7
 10
33.29975539386605
 20
33.328231979716122
 30
0.0
 11
33.411862548678627
 21
33.289003989623453
 31
0.0
  0
LINE
  5
92F
  8
0
  6
CONTINUOUS
 62
     7
 10
33.76002059024065
 20
33.328231979716122
 30
0.0
 11
33.647913435428073
 21
33.289003989623453
 31
0.0
  0
LINE
  5
930
  8
0
  6
CONTINUOUS
 62
     7
 10
34.837395277708858
 20
33.328231979716122
 30
0.0
 11
34.949502432521442
 21
33.289003989623453
 31
0.0
  0
LINE
  5
931
  8
0
  6
CONTINUOUS
 62
     7
 10
35.29766047408345
 20
33.328231979716122
 30
0.0
 11
35.18555331927088
 21
33.289003989623453
 31
0.0
  0
LINE
  5
932
  8
0
  6
CONTINUOUS
 62
     7
 10
36.375035161551672
 20
33.328231979716122
 30
0.0
 11
36.487142316364263
 21
33.289003989623453
 31
0.0
  0
LINE
  5
933
  8
0
  6
CONTINUOUS
 62
     7
 10
36.835300357926293
 20
33.328231979716122
 30
0.0
 11
36.723193203113702
 21
33.289003989623453
 31
0.0
  0
LINE
  5
934
  8
0
  6
CONTINUOUS
 62
     7
 10
25.959714016214001
 20
33.289003989623453
 30
0.0
 11
25.841688572839271
 21
33.275705715935409
 31
0.0
  0
LINE
  5
935
  8
0
  6
CONTINUOUS
 62
     7
 10
25.841688572839271
 20
33.275705715935409
 30
0.0
 11
25.723663129464551
 21
33.289003989623453
 31
0.0
  0
LINE
  5
936
  8
0
  6
CONTINUOUS
 62
     7
 10
27.497353900056812
 20
33.289003989623453
 30
0.0
 11
27.379328456682089
 21
33.275705715935409
 31
0.0
  0
LINE
  5
937
  8
0
  6
CONTINUOUS
 62
     7
 10
27.379328456682089
 20
33.275705715935409
 30
0.0
 11
27.26130301330738
 21
33.289003989623453
 31
0.0
  0
LINE
  5
938
  8
0
  6
CONTINUOUS
 62
     7
 10
29.03499378389963
 20
33.289003989623453
 30
0.0
 11
28.91696834052491
 21
33.275705715935409
 31
0.0
  0
LINE
  5
939
  8
0
  6
CONTINUOUS
 62
     7
 10
28.91696834052491
 20
33.275705715935409
 30
0.0
 11
28.79894289715018
 21
33.289003989623453
 31
0.0
  0
LINE
  5
93A
  8
0
  6
CONTINUOUS
 62
     7
 10
30.572633667742451
 20
33.289003989623453
 30
0.0
 11
30.454608224367721
 21
33.275705715935409
 31
0.0
  0
LINE
  5
93B
  8
0
  6
CONTINUOUS
 62
     7
 10
30.454608224367721
 20
33.275705715935409
 30
0.0
 11
30.336582780992991
 21
33.289003989623453
 31
0.0
  0
LINE
  5
93C
  8
0
  6
CONTINUOUS
 62
     7
 10
32.110273551585252
 20
33.289003989623453
 30
0.0
 11
31.992248108210529
 21
33.275705715935409
 31
0.0
  0
LINE
  5
93D
  8
0
  6
CONTINUOUS
 62
     7
 10
31.992248108210529
 20
33.275705715935409
 30
0.0
 11
31.874222664835809
 21
33.289003989623453
 31
0.0
  0
LINE
  5
93E
  8
0
  6
CONTINUOUS
 62
     7
 10
33.647913435428073
 20
33.289003989623453
 30
0.0
 11
33.529887992053347
 21
33.275705715935409
 31
0.0
  0
LINE
  5
93F
  8
0
  6
CONTINUOUS
 62
     7
 10
33.529887992053347
 20
33.275705715935409
 30
0.0
 11
33.411862548678627
 21
33.289003989623453
 31
0.0
  0
LINE
  5
940
  8
0
  6
CONTINUOUS
 62
     7
 10
35.18555331927088
 20
33.289003989623453
 30
0.0
 11
35.067527875896161
 21
33.275705715935409
 31
0.0
  0
LINE
  5
941
  8
0
  6
CONTINUOUS
 62
     7
 10
35.067527875896161
 20
33.275705715935409
 30
0.0
 11
34.949502432521442
 21
33.289003989623453
 31
0.0
  0
LINE
  5
942
  8
0
  6
CONTINUOUS
 62
     7
 10
36.723193203113702
 20
33.289003989623453
 30
0.0
 11
36.605167759738983
 21
33.275705715935409
 31
0.0
  0
LINE
  5
943
  8
0
  6
CONTINUOUS
 62
     7
 10
36.605167759738983
 20
33.275705715935409
 30
0.0
 11
36.487142316364263
 21
33.289003989623453
 31
0.0
  0
ENDBLK
  5
945
  8
0
  0
BLOCK
  8
0
  2
GENAXEH
 70
     0
 10
0.0
 20
0.0
 30
0.0
  3
GENAXEH
  1

  0
LINE
  5
11DF
  8
0
 10
-1.0
 20
0.0
 30
0.0
 11
1.0
 21
0.0
 31
0.0
  0
ENDBLK
  5
11E1
  8
0
  0
ENDSEC
  0
SECTION
  2
ENTITIES
  0
INSERT
  5
1BA
  8
0
 66
     1
  2
ARROW_HEAD_DISPLAY_REF
 10
8.5802755185352915
 20
41.063085888938431
 30
0.0
 41
6.8127225645901612
 42
6.8127225645901612
 43
6.8127225645901612
  0
ATTRIB
  5
1BB
  8
0
 10
6.8770948773877452
 20
39.359905247790927
 30
0.0
 40
0.5109541923442622
  1
C:\C3ILEX\EOSCADA\DISPLAYS\MAIN_INDEX.DXF
  2
DISPLAY
 70
     9
  0
SEQEND
  5
1BC
  8
0
  0
TEXT
  5
1BD
  8
0
 10
10.040005400301981
 20
40.796072553855893
 30
0.0
 40
0.6427155162740972
  1
INDEX
  0
POLYLINE
  5
1BE
  8
0
 66
     1
 10
0.0
 20
0.0
 30
0.0
 70
     1
  0
VERTEX
  5
11F9
  8
0
 10
7.7495114544024091
 20
35.996097843693491
 30
0.0
  0
VERTEX
  5
11FA
  8
0
 10
58.48834696042082
 20
35.996097843693491
 30
0.0
 42
-0.4142135623730951
  0
VERTEX
  5
11FB
  8
0
 10
58.788346960420817
 20
35.696097843693472
 30
0.0
  0
VERTEX
  5
11FC
  8
0
 10
58.788346960420817
 20
26.394906945168412
 30
0.0
 42
-0.4142135623730951
  0
VERTEX
  5
11FD
  8
0
 10
58.48834696042082
 20
26.094906945168411
 30
0.0
  0
VERTEX
  5
11FE
  8
0
 10
7.7495114544024091
 20
26.094906945168411
 30
0.0
 42
-0.4142135623730951
  0
VERTEX
  5
11FF
  8
0
 10
7.449511454402411
 20
26.394906945168412
 30
0.0
  0
VERTEX
  5
1200
  8
0
 10
7.449511454402411
 20
35.696097843693472
 30
0.0
 42
-0.4142135623730951
  0
SEQEND
  5
1201
  8
0
  0
POLYLINE
  5
1BF
  8
0
 66
     1
 10
0.0
 20
0.0
 30
0.0
 70
     1
  0
VERTEX
  5
1202
  8
0
 10
14.157539006057689
 20
28.24573999639604
 30
0.0
  0
VERTEX
  5
1203
  8
0
 10
23.98181120955639
 20
28.245739996396029
 30
0.0
 42
0.4142135623730951
  0
VERTEX
  5
1204
  8
0
 10
24.281811209556398
 20
28.54573999639603
 30
0.0
  0
VERTEX
  5
1205
  8
0
 10
24.281811209556398
 20
31.39160136286608
 30
0.0
 42
0.4142135623730951
  0
VERTEX
  5
1206
  8
0
 10
23.98181120955639
 20
31.691601362866081
 30
0.0
  0
VERTEX
  5
1207
  8
0
 10
14.157539006057689
 20
31.69160136286607
 30
0.0
 42
0.4142135623730951
  0
VERTEX
  5
1208
  8
0
 10
13.85753900605769
 20
31.391601362866069
 30
0.0
  0
VERTEX
  5
1209
  8
0
 10
13.85753900605769
 20
28.545739996396041
 30
0.0
 42
0.4142135623730951
  0
SEQEND
  5
120A
  8
0
  0
POLYLINE
  5
1C0
  8
0
 66
     1
 10
0.0
 20
0.0
 30
0.0
 70
     1
  0
VERTEX
  5
120B
  8
0
 10
14.11834996370426
 20
35.568195433552702
 30
0.0
  0
VERTEX
  5
120C
  8
0
 10
23.864244219996252
 20
35.56819543355271
 30
0.0
 42
-0.4142135623730951
  0
VERTEX
  5
120D
  8
0
 10
24.164244219996259
 20
35.268195433552712
 30
0.0
  0
VERTEX
  5
120E
  8
0
 10
24.164244219996259
 20
32.422334067082659
 30
0.0
 42
-0.4142135623730951
  0
VERTEX
  5
120F
  8
0
 10
23.864244219996252
 20
32.122334067082662
 30
0.0
  0
VERTEX
  5
1210
  8
0
 10
14.11834996370426
 20
32.122334067082662
 30
0.0
 42
-0.4142135623730951
  0
VERTEX
  5
1211
  8
0
 10
13.818349963704261
 20
32.422334067082659
 30
0.0
  0
VERTEX
  5
1212
  8
0
 10
13.818349963704261
 20
35.268195433552712
 30
0.0
 42
-0.4142135623730951
  0
SEQEND
  5
1213
  8
0
  0
POLYLINE
  5
1C1
  8
0
 66
     1
 10
0.0
 20
0.0
 30
0.0
 70
     1
  0
VERTEX
  5
1214
  8
0
 10
39.5911955934004
 20
34.785045104768891
 30
0.0
  0
VERTEX
  5
1215
  8
0
 10
55.920840715060002
 20
34.785045104768898
 30
0.0
 42
-0.4142135623730951
  0
VERTEX
  5
1216
  8
0
 10
56.220840715060021
 20
34.485045104768894
 30
0.0
  0
VERTEX
  5
1217
  8
0
 10
56.220840715059992
 20
32.383176560665817
 30
0.0
 42
-0.4142135623730943
  0
VERTEX
  5
1218
  8
0
 10
55.920840715060002
 20
32.083176560665819
 30
0.0
  0
VERTEX
  5
1219
  8
0
 10
39.591195593400407
 20
32.083176560665819
 30
0.0
 42
-0.4142135623730951
  0
VERTEX
  5
121A
  8
0
 10
39.29119559340041
 20
32.383176560665817
 30
0.0
  0
VERTEX
  5
121B
  8
0
 10
39.291195593400403
 20
34.485045104768894
 30
0.0
 42
-0.4142135623730951
  0
SEQEND
  5
121C
  8
0
  0
LINE
  5
1C2
  8
0
 10
26.554772778552319
 20
31.769916375699768
 30
0.0
 11
37.214178961171349
 21
31.769916375699768
 31
0.0
  0
CIRCLE
  5
1C3
  8
0
 10
25.841688572839271
 20
33.80610724390084
 30
0.0
 40
0.6141975678832239
  0
CIRCLE
  5
1C4
  8
0
 10
27.379328456682089
 20
33.80610724390084
 30
0.0
 40
0.6141975678832239
  0
CIRCLE
  5
1C5
  8
0
 10
28.91696834052491
 20
33.80610724390084
 30
0.0
 40
0.6141975678832239
  0
CIRCLE
  5
1C6
  8
0
 10
30.454608224367721
 20
33.80610724390084
 30
0.0
 40
0.6141975678832239
  0
CIRCLE
  5
1C7
  8
0
 10
30.454608224367721
 20
33.80610724390084
 30
0.0
 40
0.6141975678832239
  0
CIRCLE
  5
1C8
  8
0
 10
30.454608224367721
 20
33.80610724390084
 30
0.0
 40
0.6141975678832239
  0
CIRCLE
  5
1C9
  8
0
 10
31.992248108210529
 20
33.80610724390084
 30
0.0
 40
0.6141975678832239
  0
CIRCLE
  5
1CA
  8
0
 10
33.529887992053347
 20
33.80610724390084
 30
0.0
 40
0.6141975678832239
  0
CIRCLE
  5
1CB
  8
0
 10
35.067527875896161
 20
33.80610724390084
 30
0.0
 40
0.6141975678832239
  0
CIRCLE
  5
1CC
  8
0
 10
36.605167759738983
 20
33.80610724390084
 30
0.0
 40
0.6141975678832239
  0
CIRCLE
  5
1CD
  8
0
 10
36.605167759738983
 20
33.80610724390084
 30
0.0
 40
0.6141975678832239
  0
POLYLINE
  5
1CE
  8
0
 66
     1
 10
0.0
 20
0.0
 30
0.0
 70
     1
  0
VERTEX
  5
121D
  8
0
 10
36.164630145612492
 20
29.520913350278171
 30
0.0
  0
VERTEX
  5
121E
  8
0
 10
39.094546997131431
 20
29.520913350278171
 30
0.0
 42
-0.4142135623730951
  0
VERTEX
  5
121F
  8
0
 10
39.394546997131421
 20
29.22091335027817
 30
0.0
  0
VERTEX
  5
1220
  8
0
 10
39.394546997131421
 20
27.900613475122871
 30
0.0
 42
-0.414213562373094
  0
VERTEX
  5
1221
  8
0
 10
39.094546997131417
 20
27.60061347512287
 30
0.0
  0
VERTEX
  5
1222
  8
0
 10
36.164630145612492
 20
27.600613475122859
 30
0.0
 42
-0.4142135623730953
  0
VERTEX
  5
1223
  8
0
 10
35.864630145612509
 20
27.90061347512286
 30
0.0
  0
VERTEX
  5
1224
  8
0
 10
35.864630145612509
 20
29.22091335027817
 30
0.0
 42
-0.4142135623730951
  0
SEQEND
  5
1225
  8
0
  0
INSERT
  5
1CF
  8
0
  2
*U49
 10
0.0
 20
0.0
 30
0.0
  0
INSERT
  5
1D0
  8
0
  2
*U50
 10
0.0
 20
0.0
 30
0.0
  0
INSERT
  5
1D1
  8
0
  2
*U51
 10
0.0
 20
0.0
 30
0.0
  0
POLYLINE
  5
1D2
  8
0
 66
     1
 10
0.0
 20
0.0
 30
0.0
 70
     1
  0
VERTEX
  5
1226
  8
0
 10
15.508776801437079
 20
30.853366349420249
 30
0.0
  0
VERTEX
  5
1227
  8
0
 10
22.568610366974809
 20
30.853366349420249
 30
0.0
  0
VERTEX
  5
1228
  8
0
 10
22.568610366974809
 20
29.08982565456493
 30
0.0
  0
VERTEX
  5
1229
  8
0
 10
15.508776801437079
 20
29.08982565456493
 30
0.0
  0
SEQEND
  5
122A
  8
0
  0
LINE
  5
1D3
  8
0
 10
13.82226101668363
 20
33.831790641488752
 30
0.0
 11
24.164244219996259
 21
33.831790641488752
 31
0.0
  0
LINE
  5
1D4
  8
0
 10
15.116563940157301
 20
35.568195433552702
 30
0.0
 11
15.116563940157301
 21
33.831790641488752
 31
0.0
  0
LINE
  5
1D5
  8
0
 10
20.372217793807611
 20
35.56819543355271
 30
0.0
 11
20.372217793807611
 21
33.831790641488752
 31
0.0
  0
LINE
  5
1D6
  8
0
 10
19.038693652955999
 20
32.122334067082662
 30
0.0
 11
19.038693652955999
 21
33.831790641488752
 31
0.0
  0
LINE
  5
1D7
  8
0
 10
22.96082336575472
 20
32.122334067082662
 30
0.0
 11
22.96082336575472
 21
33.831790641488752
 31
0.0
  0
CIRCLE
  5
1D8
  8
0
 10
14.41431625519928
 20
34.235408823918839
 30
0.0
 40
0.2940659112696557
  0
CIRCLE
  5
1D9
  8
0
 10
15.72427067809593
 20
34.235408823918839
 30
0.0
 40
0.2940659112696557
  0
CIRCLE
  5
1DA
  8
0
 10
17.034225100992579
 20
34.235408823918839
 30
0.0
 40
0.2940659112696557
  0
CIRCLE
  5
1DB
  8
0
 10
18.344179523889238
 20
34.235408823918839
 30
0.0
 40
0.2940659112696557
  0
CIRCLE
  5
1DC
  8
0
 10
19.65413394678589
 20
34.235408823918839
 30
0.0
 40
0.2940659112696557
  0
CIRCLE
  5
1DD
  8
0
 10
20.964088369682539
 20
34.235408823918839
 30
0.0
 40
0.2940659112696557
  0
CIRCLE
  5
1DE
  8
0
 10
20.964088369682539
 20
34.235408823918839
 30
0.0
 40
0.2940659112696557
  0
CIRCLE
  5
1DF
  8
0
 10
22.274042792579191
 20
34.235408823918839
 30
0.0
 40
0.2940659112696557
  0
CIRCLE
  5
1E0
  8
0
 10
23.583997215475851
 20
34.235408823918839
 30
0.0
 40
0.2940659112696557
  0
CIRCLE
  5
1E1
  8
0
 10
14.41431625519928
 20
33.432347100261588
 30
0.0
 40
0.2940659112696557
  0
CIRCLE
  5
1E2
  8
0
 10
15.72427067809593
 20
33.432347100261588
 30
0.0
 40
0.2940659112696557
  0
CIRCLE
  5
1E3
  8
0
 10
17.034225100992579
 20
33.432347100261588
 30
0.0
 40
0.2940659112696557
  0
CIRCLE
  5
1E4
  8
0
 10
18.344179523889238
 20
33.432347100261588
 30
0.0
 40
0.2940659112696557
  0
CIRCLE
  5
1E5
  8
0
 10
19.65413394678589
 20
33.432347100261588
 30
0.0
 40
0.2940659112696557
  0
CIRCLE
  5
1E6
  8
0
 10
20.964088369682539
 20
33.432347100261588
 30
0.0
 40
0.2940659112696557
  0
CIRCLE
  5
1E7
  8
0
 10
22.274042792579191
 20
33.432347100261588
 30
0.0
 40
0.2940659112696557
  0
CIRCLE
  5
1E8
  8
0
 10
23.583997215475851
 20
33.432347100261588
 30
0.0
 40
0.2940659112696557
  0
INSERT
  5
1E9
  8
0
  2
*U52
 10
0.0
 20
0.0
 30
0.0
  0
INSERT
  5
1EA
  8
0
  2
*U53
 10
0.0
 20
0.0
 30
0.0
  0
INSERT
  5
1EB
  8
0
  2
*U54
 10
0.0
 20
0.0
 30
0.0
  0
INSERT
  5
1EC
  8
0
  2
*U55
 10
0.0
 20
0.0
 30
0.0
  0
INSERT
  5
1ED
  8
0
  2
*U56
 10
0.0
 20
0.0
 30
0.0
  0
INSERT
  5
1EE
  8
0
  2
*U57
 10
0.0
 20
0.0
 30
0.0
  0
INSERT
  5
1EF
  8
0
  2
*U58
 10
0.0
 20
0.0
 30
0.0
  0
INSERT
  5
1F0
  8
0
  2
*U59
 10
0.0
 20
0.0
 30
0.0
  0
INSERT
  5
1F1
  8
0
  2
*U60
 10
0.0
 20
0.0
 30
0.0
  0
INSERT
  5
1F2
  8
0
  2
*U61
 10
0.0
 20
0.0
 30
0.0
  0
INSERT
  5
1F3
  8
0
  2
*U62
 10
0.0
 20
0.0
 30
0.0
  0
INSERT
  5
1F4
  8
0
  2
*U63
 10
0.0
 20
0.0
 30
0.0
  0
INSERT
  5
1F5
  8
0
  2
*U64
 10
0.0
 20
0.0
 30
0.0
  0
INSERT
  5
1F6
  8
0
  2
*U65
 10
0.0
 20
0.0
 30
0.0
  0
INSERT
  5
1F7
  8
0
  2
*U66
 10
0.0
 20
0.0
 30
0.0
  0
INSERT
  5
1F8
  8
0
  2
*U67
 10
0.0
 20
0.0
 30
0.0
  0
INSERT
  5
1F9
  8
0
  2
*U68
 10
0.0
 20
0.0
 30
0.0
  0
INSERT
  5
1FA
  8
0
  2
*U69
 10
0.0
 20
0.0
 30
0.0
  0
INSERT
  5
1FB
  8
0
  2
*U70
 10
0.0
 20
0.0
 30
0.0
  0
INSERT
  5
1FC
  8
0
  2
*U71
 10
0.0
 20
0.0
 30
0.0
  0
INSERT
  5
1FD
  8
0
  2
*U72
 10
0.0
 20
0.0
 30
0.0
  0
INSERT
  5
1FE
  8
0
  2
*U73
 10
0.0
 20
0.0
 30
0.0
  0
INSERT
  5
1FF
  8
0
  2
*U74
 10
0.0
 20
0.0
 30
0.0
  0
INSERT
  5
200
  8
0
  2
*U75
 10
0.0
 20
0.0
 30
0.0
  0
INSERT
  5
201
  8
0
  2
*U76
 10
0.0
 20
0.0
 30
0.0
  0
INSERT
  5
202
  8
0
  2
*U77
 10
0.0
 20
0.0
 30
0.0
  0
INSERT
  5
203
  8
0
  2
*U78
 10
0.0
 20
0.0
 30
0.0
  0
INSERT
  5
204
  8
0
  2
*U79
 10
0.0
 20
0.0
 30
0.0
  0
INSERT
  5
205
  8
0
  2
*U80
 10
0.0
 20
0.0
 30
0.0
  0
INSERT
  5
206
  8
0
  2
*U81
 10
0.0
 20
0.0
 30
0.0
  0
INSERT
  5
207
  8
0
  2
*U82
 10
0.0
 20
0.0
 30
0.0
  0
INSERT
  5
208
  8
0
  2
*U83
 10
0.0
 20
0.0
 30
0.0
  0
INSERT
  5
209
  8
0
  2
*U84
 10
0.0
 20
0.0
 30
0.0
  0
INSERT
  5
20A
  8
0
  2
*U85
 10
0.0
 20
0.0
 30
0.0
  0
INSERT
  5
20B
  8
0
  6
CONTINUOUS
 62
     7
  2
*U86
 10
0.0
 20
0.0
 30
0.0
1001
ACAD
1002
{
1000
R14_HATCH_DATA
1000
20B
1011
1.0
1021
0.0
1031
0.0
1021
0.0
1031
0.0
1011
0.0
1021
0.0
1031
0.0
1021
1.0
1031
0.0
1011
0.0
1021
0.0
1031
0.0
1021
0.0
1031
1.0
1040
0.0
1010
0.0
1020
0.0
1030
1.0
1000
SOLID
1070
     1
1070
     1
1071
        4
1071
        1
1071
        3
1070
     1
1040
28.48861275653304
1040
31.071030902435169
1040
29.345323924516769
1040
31.20155182302156
1070
     1
1040
29.345323924516769
1040
31.20155182302156
1040
29.345323924516769
1040
30.94050998184877
1070
     1
1040
29.345323924516769
1040
30.94050998184877
1040
28.48861275653304
1040
31.071030902435169
1071
        1
1005
20C
1071
        1
1071
        3
1070
     1
1040
30.026252640375851
1040
31.20155182302156
1040
30.88296380835958
1040
31.071030902435169
1070
     1
1040
30.88296380835958
1040
31.071030902435169
1040
30.026252640375851
1040
30.94050998184877
1070
     1
1040
30.026252640375851
1040
30.94050998184877
1040
30.026252640375851
1040
31.20155182302156
1071
        1
1005
20D
1071
        1
1071
        3
1070
     1
1040
31.992248108210529
1040
31.499386486427039
1040
32.122769028796917
1040
30.642675318443288
1070
     1
1040
32.122769028796917
1040
30.642675318443288
1040
31.86172718762414
1040
30.642675318443288
1070
     1
1040
31.86172718762414
1040
30.642675318443288
1040
31.992248108210529
1040
31.499386486427039
1071
        1
1005
210
1071
        1
1071
        3
1070
     1
1040
33.660408912639731
1040
31.499386486427049
1040
33.529887992053347
1040
30.642675318443299
1070
     1
1040
33.529887992053347
1040
30.642675318443299
1040
33.399367071466962
1040
31.499386486427049
1070
     1
1040
33.399367071466962
1040
31.499386486427049
1040
33.660408912639731
1040
31.499386486427049
1071
        1
1005
211
1070
     0
1070
     1
1071
        1
1040
0.0
1040
8.076674259633009
1040
0.0
1002
}
  0
POLYLINE
  5
20C
  8
0
 66
     1
 10
0.0
 20
0.0
 30
0.0
 70
     1
  0
VERTEX
  5
122B
  8
0
 10
28.48861275653304
 20
31.071030902435169
 30
0.0
  0
VERTEX
  5
122C
  8
0
 10
29.345323924516769
 20
31.20155182302156
 30
0.0
  0
VERTEX
  5
122D
  8
0
 10
29.345323924516769
 20
30.94050998184877
 30
0.0
  0
VERTEX
  5
122E
  8
0
 10
28.48861275653304
 20
31.071030902435169
 30
0.0
  0
SEQEND
  5
122F
  8
0
  0
POLYLINE
  5
20D
  8
0
 66
     1
 10
0.0
 20
0.0
 30
0.0
 70
     1
  0
VERTEX
  5
1230
  8
0
 10
30.026252640375851
 20
31.20155182302156
 30
0.0
  0
VERTEX
  5
1231
  8
0
 10
30.88296380835958
 20
31.071030902435169
 30
0.0
  0
VERTEX
  5
1232
  8
0
 10
30.88296380835958
 20
31.071030902435169
 30
0.0
  0
VERTEX
  5
1233
  8
0
 10
30.026252640375851
 20
30.94050998184877
 30
0.0
  0
SEQEND
  5
1234
  8
0
  0
LINE
  5
20E
  8
0
 10
30.026252640375851
 20
31.071030902435169
 30
0.0
 11
30.88296380835958
 21
31.071030902435169
 31
0.0
  0
LINE
  5
20F
  8
0
 10
29.345323924516769
 20
31.071030902435169
 30
0.0
 11
28.48861275653304
 21
31.071030902435169
 31
0.0
  0
POLYLINE
  5
210
  8
0
 66
     1
 10
0.0
 20
0.0
 30
0.0
 70
     1
  0
VERTEX
  5
1235
  8
0
 10
31.992248108210529
 20
31.499386486427039
 30
0.0
  0
VERTEX
  5
1236
  8
0
 10
32.122769028796917
 20
30.642675318443288
 30
0.0
  0
VERTEX
  5
1237
  8
0
 10
31.86172718762414
 20
30.642675318443288
 30
0.0
  0
VERTEX
  5
1238
  8
0
 10
31.992248108210529
 20
31.499386486427039
 30
0.0
  0
SEQEND
  5
1239
  8
0
  0
POLYLINE
  5
211
  8
0
 66
     1
 10
0.0
 20
0.0
 30
0.0
 70
     1
  0
VERTEX
  5
123A
  8
0
 10
33.660408912639731
 20
31.499386486427049
 30
0.0
  0
VERTEX
  5
123B
  8
0
 10
33.529887992053347
 20
30.642675318443299
 30
0.0
  0
VERTEX
  5
123C
  8
0
 10
33.529887992053347
 20
30.642675318443299
 30
0.0
  0
VERTEX
  5
123D
  8
0
 10
33.399367071466962
 20
31.499386486427049
 30
0.0
  0
SEQEND
  5
123E
  8
0
  0
LINE
  5
212
  8
0
 10
33.529887992053347
 20
31.499386486427049
 30
0.0
 11
33.529887992053347
 21
30.642675318443299
 31
0.0
  0
LINE
  5
213
  8
0
 10
31.992248108210529
 20
30.642675318443288
 30
0.0
 11
31.992248108210529
 21
31.499386486427039
 31
0.0
  0
INSERT
  5
214
  8
0
  6
CONTINUOUS
 62
     7
  2
*U87
 10
0.0
 20
0.0
 30
0.0
1001
ACAD
1002
{
1000
R14_HATCH_DATA
1000
214
1011
1.0
1021
0.0
1031
0.0
1021
0.0
1031
0.0
1011
0.0
1021
0.0
1031
0.0
1021
1.0
1031
0.0
1011
0.0
1021
0.0
1031
0.0
1021
0.0
1031
1.0
1040
0.0
1010
0.0
1020
0.0
1030
1.0
1000
SOLID
1070
     1
1070
     1
1071
        8
1071
        1
1071
        1
1070
     2
1040
25.841688572839271
1040
33.80610724390084
1040
0.530401527965424
1040
0.0
1040
6.2831853071795827
1070
     1
1071
        1
1005
215
1071
        1
1071
        1
1070
     2
1040
27.379328456682089
1040
33.80610724390084
1040
0.530401527965424
1040
0.0
1040
6.2831853071795827
1070
     1
1071
        1
1005
216
1071
        1
1071
        1
1070
     2
1040
28.91696834052491
1040
33.80610724390084
1040
0.530401527965424
1040
0.0
1040
6.2831853071795827
1070
     1
1071
        1
1005
217
1071
        1
1071
        1
1070
     2
1040
30.454608224367721
1040
33.80610724390084
1040
0.530401527965424
1040
0.0
1040
6.2831853071795827
1070
     1
1071
        1
1005
218
1071
        1
1071
        1
1070
     2
1040
31.992248108210529
1040
33.80610724390084
1040
0.530401527965424
1040
0.0
1040
6.2831853071795827
1070
     1
1071
        1
1005
219
1071
        1
1071
        1
1070
     2
1040
33.529887992053347
1040
33.80610724390084
1040
0.530401527965424
1040
0.0
1040
6.2831853071795827
1070
     1
1071
        1
1005
21A
1071
        1
1071
        1
1070
     2
1040
35.067527875896161
1040
33.80610724390084
1040
0.530401527965424
1040
0.0
1040
6.2831853071795827
1070
     1
1071
        1
1005
21B
1071
        1
1071
        1
1070
     2
1040
36.605167759738983
1040
33.80610724390084
1040
0.530401527965424
1040
0.0
1040
6.2831853071795827
1070
     1
1071
        1
1005
21C
1070
     0
1070
     1
1071
        1
1040
0.0
1040
8.076674259633009
1040
0.0
1002
}
  0
CIRCLE
  5
215
  8
0
 10
25.841688572839271
 20
33.80610724390084
 30
0.0
 40
0.530401527965424
  0
CIRCLE
  5
216
  8
0
 10
27.379328456682089
 20
33.80610724390084
 30
0.0
 40
0.530401527965424
  0
CIRCLE
  5
217
  8
0
 10
28.91696834052491
 20
33.80610724390084
 30
0.0
 40
0.530401527965424
  0
CIRCLE
  5
218
  8
0
 10
30.454608224367721
 20
33.80610724390084
 30
0.0
 40
0.530401527965424
  0
CIRCLE
  5
219
  8
0
 10
31.992248108210529
 20
33.80610724390084
 30
0.0
 40
0.530401527965424
  0
CIRCLE
  5
21A
  8
0
 10
33.529887992053347
 20
33.80610724390084
 30
0.0
 40
0.530401527965424
  0
CIRCLE
  5
21B
  8
0
 10
35.067527875896161
 20
33.80610724390084
 30
0.0
 40
0.530401527965424
  0
CIRCLE
  5
21C
  8
0
 10
36.605167759738983
 20
33.80610724390084
 30
0.0
 40
0.530401527965424
  0
INSERT
  5
21D
  8
0
 66
     1
  2
CIRCLE_ST1-NONE_ST2-GRN
 10
14.13633114088298
 20
34.01154910839125
 30
0.0
 41
1.105399917071195
 42
1.105399917071195
 43
1.105399917071195
  0
ATTRIB
  5
21E
  8
0
  6
CONTINUOUS
 62
     6
 10
14.06239467091388
 20
33.81882020998502
 30
0.0
 40
0.1105399917071196
  1
01010005000003ef00
  2
LINKAGE
 70
     9
  0
SEQEND
  5
21F
  8
0
  0
INSERT
  5
220
  8
0
 66
     1
  2
CIRCLE_ST1-NONE_ST2-RED
 10
15.455567921374151
 20
34.01902413429557
 30
0.0
 41
1.0684888855562451
 42
1.0684888855562451
 43
1.0684888855562451
  0
ATTRIB
  5
221
  8
0
  6
CONTINUOUS
 62
     6
 10
15.3841003057364
 20
33.832730755137248
 30
0.0
 40
0.1068488885556246
  1
01010005000003ee00
  2
LINKAGE
 70
     9
  0
SEQEND
  5
222
  8
0
  0
INSERT
  5
223
  8
0
 66
     1
  2
CIRCLE_ST1-NONE_ST2-RED
 10
16.765522344270799
 20
34.01902413429557
 30
0.0
 41
1.0684888855562451
 42
1.0684888855562451
 43
1.0684888855562451
  0
ATTRIB
  5
224
  8
0
  6
CONTINUOUS
 62
     6
 10
16.694054728633041
 20
33.832730755137248
 30
0.0
 40
0.1068488885556246
  1
01010005000003ed00
  2
LINKAGE
 70
     9
  0
SEQEND
  5
225
  8
0
  0
INSERT
  5
226
  8
0
 66
     1
  2
CIRCLE_ST1-NONE_ST2-RED
 10
18.075476767167451
 20
34.01902413429557
 30
0.0
 41
1.0684888855562451
 42
1.0684888855562451
 43
1.0684888855562451
  0
ATTRIB
  5
227
  8
0
  6
CONTINUOUS
 62
     6
 10
18.004009151529711
 20
33.832730755137248
 30
0.0
 40
0.1068488885556246
  1
01010005000003ec00
  2
LINKAGE
 70
     9
  0
SEQEND
  5
228
  8
0
  0
INSERT
  5
229
  8
0
 66
     1
  2
CIRCLE_ST1-NONE_ST2-RED
 10
19.385431190064111
 20
34.01902413429557
 30
0.0
 41
1.0684888855562451
 42
1.0684888855562451
 43
1.0684888855562451
  0
ATTRIB
  5
22A
  8
0
  6
CONTINUOUS
 62
     6
 10
19.31396357442636
 20
33.832730755137248
 30
0.0
 40
0.1068488885556246
  1
01010005000003eb00
  2
LINKAGE
 70
     9
  0
SEQEND
  5
22B
  8
0
  0
INSERT
  5
22C
  8
0
 66
     1
  2
CIRCLE_ST1-NONE_ST2-RED
 10
20.695385612960759
 20
34.01902413429557
 30
0.0
 41
1.0684888855562451
 42
1.0684888855562451
 43
1.0684888855562451
  0
ATTRIB
  5
22D
  8
0
  6
CONTINUOUS
 62
     6
 10
20.623917997323009
 20
33.832730755137248
 30
0.0
 40
0.1068488885556246
  1
01010005000003ea00
  2
LINKAGE
 70
     9
  0
SEQEND
  5
22E
  8
0
  0
INSERT
  5
22F
  8
0
 66
     1
  2
CIRCLE_ST1-NONE_ST2-RED
 10
22.005340035857419
 20
34.01902413429557
 30
0.0
 41
1.0684888855562451
 42
1.0684888855562451
 43
1.0684888855562451
  0
ATTRIB
  5
230
  8
0
  6
CONTINUOUS
 62
     6
 10
21.933872420219661
 20
33.832730755137248
 30
0.0
 40
0.1068488885556246
  1
01010005000003e900
  2
LINKAGE
 70
     9
  0
SEQEND
  5
231
  8
0
  0
INSERT
  5
232
  8
0
 66
     1
  2
CIRCLE_ST1-NONE_ST2-RED
 10
23.315294458754071
 20
34.01902413429557
 30
0.0
 41
1.0684888855562451
 42
1.0684888855562451
 43
1.0684888855562451
  0
ATTRIB
  5
233
  8
0
  6
CONTINUOUS
 62
     6
 10
23.24382684311632
 20
33.832730755137248
 30
0.0
 40
0.1068488885556246
  1
01010005000003e800
  2
LINKAGE
 70
     9
  0
SEQEND
  5
234
  8
0
  0
INSERT
  5
235
  8
0
 66
     1
  2
CIRCLE_ST1-NONE_ST2-RED
 10
23.315294458754071
 20
33.215962410638333
 30
0.0
 41
1.0684888855562451
 42
1.0684888855562451
 43
1.0684888855562451
  0
ATTRIB
  5
236
  8
0
  6
CONTINUOUS
 62
     6
 10
23.24382684311632
 20
33.029669031479997
 30
0.0
 40
0.1068488885556246
  1
01010005000003f000
  2
LINKAGE
 70
     9
  0
SEQEND
  5
237
  8
0
  0
INSERT
  5
238
  8
0
 66
     1
  2
CIRCLE_ST1-NONE_ST2-RED
 10
22.005340035857419
 20
33.215962410638333
 30
0.0
 41
1.0684888855562451
 42
1.0684888855562451
 43
1.0684888855562451
  0
ATTRIB
  5
239
  8
0
  6
CONTINUOUS
 62
     6
 10
21.933872420219661
 20
33.029669031479997
 30
0.0
 40
0.1068488885556246
  1
01010005000003f100
  2
LINKAGE
 70
     9
  0
SEQEND
  5
23A
  8
0
  0
INSERT
  5
23B
  8
0
 66
     1
  2
CIRCLE_ST1-NONE_ST2-RED
 10
20.695385612960759
 20
33.215962410638333
 30
0.0
 41
1.0684888855562451
 42
1.0684888855562451
 43
1.0684888855562451
  0
ATTRIB
  5
23C
  8
0
  6
CONTINUOUS
 62
     6
 10
20.623917997323009
 20
33.029669031479997
 30
0.0
 40
0.1068488885556246
  1
01010005000003f200
  2
LINKAGE
 70
     9
  0
SEQEND
  5
23D
  8
0
  0
INSERT
  5
23E
  8
0
 66
     1
  2
CIRCLE_ST1-NONE_ST2-RED
 10
19.385431190064111
 20
33.215962410638333
 30
0.0
 41
1.0684888855562451
 42
1.0684888855562451
 43
1.0684888855562451
  0
ATTRIB
  5
23F
  8
0
  6
CONTINUOUS
 62
     6
 10
19.31396357442636
 20
33.029669031479997
 30
0.0
 40
0.1068488885556246
  1
01010005000003f300
  2
LINKAGE
 70
     9
  0
SEQEND
  5
240
  8
0
  0
INSERT
  5
241
  8
0
 66
     1
  2
CIRCLE_ST1-NONE_ST2-RED
 10
18.075476767167451
 20
33.215962410638333
 30
0.0
 41
1.0684888855562451
 42
1.0684888855562451
 43
1.0684888855562451
  0
ATTRIB
  5
242
  8
0
  6
CONTINUOUS
 62
     6
 10
18.004009151529711
 20
33.029669031479997
 30
0.0
 40
0.1068488885556246
  1
01010005000003f400
  2
LINKAGE
 70
     9
  0
SEQEND
  5
243
  8
0
  0
INSERT
  5
244
  8
0
 66
     1
  2
CIRCLE_ST1-NONE_ST2-RED
 10
16.765522344270799
 20
33.215962410638333
 30
0.0
 41
1.0684888855562451
 42
1.0684888855562451
 43
1.0684888855562451
  0
ATTRIB
  5
245
  8
0
  6
CONTINUOUS
 62
     6
 10
16.694054728633041
 20
33.029669031479997
 30
0.0
 40
0.1068488885556246
  1
01010005000003f500
  2
LINKAGE
 70
     9
  0
SEQEND
  5
246
  8
0
  0
INSERT
  5
247
  8
0
 66
     1
  2
CIRCLE_ST1-NONE_ST2-RED
 10
15.455567921374151
 20
33.215962410638333
 30
0.0
 41
1.0684888855562451
 42
1.0684888855562451
 43
1.0684888855562451
  0
ATTRIB
  5
248
  8
0
  6
CONTINUOUS
 62
     6
 10
15.3841003057364
 20
33.029669031479997
 30
0.0
 40
0.1068488885556246
  1
01010005000003f600
  2
LINKAGE
 70
     9
  0
SEQEND
  5
249
  8
0
  0
INSERT
  5
24A
  8
0
 66
     1
  2
CIRCLE_ST1-NONE_ST2-RED
 10
14.1456134984775
 20
33.215962410638333
 30
0.0
 41
1.0684888855562451
 42
1.0684888855562451
 43
1.0684888855562451
  0
ATTRIB
  5
24B
  8
0
  6
CONTINUOUS
 62
     6
 10
14.074145882839749
 20
33.029669031479997
 30
0.0
 40
0.1068488885556246
  1
01010005000003f700
  2
LINKAGE
 70
     9
  0
SEQEND
  5
24C
  8
0
  0
TEXT
  5
250
  8
0
 62
     6
 10
27.098785563273989
 20
39.493154377698403
 30
0.0
 40
1.1852943273534851
  1
METER STATION
  0
TEXT
  5
BAB
  8
0
 62
     6
 10
10.04000540030197
 20
36.46969543723521
 30
0.0
 40
0.6427155162740972
  1
LINE 1 SEL-311B Relay
  0
INSERT
  5
DEA
  8
0
 66
     1
  2
ARROW_HEAD_DISPLAY_REF
 10
8.6328606606642815
 20
43.06081795780608
 30
0.0
 41
6.8127225645901612
 42
6.8127225645901612
 43
6.8127225645901612
  0
ATTRIB
  5
DEB
  8
0
 10
6.9296800195167352
 20
41.357637316658561
 30
0.0
 40
0.5109541923442622
  1
C:\C3ILEX\EOSCADA\DISPLAYS\METER STATION.DXF
  2
DISPLAY
 70
     9
  0
SEQEND
  5
DEC
  8
0
  0
TEXT
  5
DED
  8
0
 10
10.092590542430971
 20
42.793804622723528
 30
0.0
 40
0.6427155162740972
  1
Meter Station
  0
ENDSEC
  0
EOF
