  0
SECTION
  2
HEADER
  9
$ACADVER
  1
AC1009
  9
$INSBASE
 10
0.0
 20
0.0
 30
0.0
  9
$EXTMIN
 10
-5.5259653042399393
 20
7.5051380982144691
 30
0.0
  9
$EXTMAX
 10
15.20811101005415
 20
18.335534842399561
 30
0.0
  9
$LIMMIN
 10
0.0
 20
0.0
  9
$LIMMAX
 10
12.0
 20
9.0
  9
$ORTHOMODE
 70
     1
  9
$REGENMODE
 70
     1
  9
$FILLMODE
 70
     1
  9
$QTEXTMODE
 70
     0
  9
$MIRRTEXT
 70
     1
  9
$DRAGMODE
 70
     2
  9
$LTSCALE
 40
1.0
  9
$OSMODE
 70
     7
  9
$ATTMODE
 70
     1
  9
$TEXTSIZE
 40
0.2
  9
$TRACEWID
 40
0.05
  9
$TEXTSTYLE
  7
ARIAL
  9
$CLAYER
  8
0
  9
$CELTYPE
  6
BYLAYER
  9
$CECOLOR
 62
   256
  9
$DIMSCALE
 40
1.0
  9
$DIMASZ
 40
0.18
  9
$DIMEXO
 40
0.0625
  9
$DIMDLI
 40
0.38
  9
$DIMRND
 40
0.0
  9
$DIMDLE
 40
0.0
  9
$DIMEXE
 40
0.18
  9
$DIMTP
 40
0.0
  9
$DIMTM
 40
0.0
  9
$DIMTXT
 40
0.18
  9
$DIMCEN
 40
0.09
  9
$DIMTSZ
 40
0.0
  9
$DIMTOL
 70
     0
  9
$DIMLIM
 70
     0
  9
$DIMTIH
 70
     1
  9
$DIMTOH
 70
     1
  9
$DIMSE1
 70
     0
  9
$DIMSE2
 70
     0
  9
$DIMTAD
 70
     0
  9
$DIMZIN
 70
     0
  9
$DIMBLK
  1

  9
$DIMASO
 70
     1
  9
$DIMSHO
 70
     1
  9
$DIMPOST
  1

  9
$DIMAPOST
  1

  9
$DIMALT
 70
     0
  9
$DIMALTD
 70
     2
  9
$DIMALTF
 40
25.399999999999999
  9
$DIMLFAC
 40
1.0
  9
$DIMTOFL
 70
     0
  9
$DIMTVP
 40
0.0
  9
$DIMTIX
 70
     0
  9
$DIMSOXD
 70
     0
  9
$DIMSAH
 70
     0
  9
$DIMBLK1
  1

  9
$DIMBLK2
  1

  9
$DIMSTYLE
  2
STANDARD
  9
$DIMCLRD
 70
     0
  9
$DIMCLRE
 70
     0
  9
$DIMCLRT
 70
     0
  9
$DIMTFAC
 40
1.0
  9
$DIMGAP
 40
0.09
  9
$LUNITS
 70
     2
  9
$LUPREC
 70
     4
  9
$SKETCHINC
 40
0.1
  9
$FILLETRAD
 40
0.0
  9
$AUNITS
 70
     0
  9
$AUPREC
 70
     0
  9
$MENU
  1
.
  9
$ELEVATION
 40
0.0
  9
$PELEVATION
 40
0.0
  9
$THICKNESS
 40
0.0
  9
$LIMCHECK
 70
     0
  9
$BLIPMODE
 70
     0
  9
$CHAMFERA
 40
0.5
  9
$CHAMFERB
 40
0.5
  9
$SKPOLY
 70
     0
  9
$TDCREATE
 40
2454336.5961634382
  9
$TDUPDATE
 40
2456573.5816214699
  9
$TDINDWG
 40
0.2794958333
  9
$TDUSRTIMER
 40
0.279493044
  9
$USRTIMER
 70
     1
  9
$ANGBASE
 50
0.0
  9
$ANGDIR
 70
     0
  9
$PDMODE
 70
     0
  9
$PDSIZE
 40
0.0
  9
$PLINEWID
 40
0.0
  9
$COORDS
 70
     1
  9
$SPLFRAME
 70
     0
  9
$SPLINETYPE
 70
     6
  9
$SPLINESEGS
 70
     8
  9
$ATTDIA
 70
     1
  9
$ATTREQ
 70
     1
  9
$HANDLING
 70
     1
  9
$HANDSEED
  5
3237
  9
$SURFTAB1
 70
     6
  9
$SURFTAB2
 70
     6
  9
$SURFTYPE
 70
     6
  9
$SURFU
 70
     6
  9
$SURFV
 70
     6
  9
$UCSNAME
  2

  9
$UCSORG
 10
0.0
 20
0.0
 30
0.0
  9
$UCSXDIR
 10
1.0
 20
0.0
 30
0.0
  9
$UCSYDIR
 10
0.0
 20
1.0
 30
0.0
  9
$PUCSNAME
  2

  9
$PUCSORG
 10
0.0
 20
0.0
 30
0.0
  9
$PUCSXDIR
 10
1.0
 20
0.0
 30
0.0
  9
$PUCSYDIR
 10
0.0
 20
1.0
 30
0.0
  9
$USERI1
 70
     0
  9
$USERI2
 70
     0
  9
$USERI3
 70
     0
  9
$USERI4
 70
     0
  9
$USERI5
 70
     0
  9
$USERR1
 40
0.0
  9
$USERR2
 40
0.0
  9
$USERR3
 40
0.0
  9
$USERR4
 40
0.0
  9
$USERR5
 40
0.0
  9
$WORLDVIEW
 70
     1
  9
$SHADEDGE
 70
     3
  9
$SHADEDIF
 70
    70
  9
$TILEMODE
 70
     1
  9
$MAXACTVP
 70
    64
  9
$PLIMCHECK
 70
     0
  9
$PEXTMIN
 10
1.0499999523162831
 20
0.7999999523162842
 30
0.0
  9
$PEXTMAX
 10
9.4499995708465594
 20
7.1999995708465532
 30
0.0
  9
$PLIMMIN
 10
-0.2500002402958907
 20
-0.2499999962453767
  9
$PLIMMAX
 10
10.74999951940822
 20
8.2499997634587334
  9
$UNITMODE
 70
     0
  9
$VISRETAIN
 70
     1
  9
$PLINEGEN
 70
     0
  9
$PSLTSCALE
 70
     1
  0
ENDSEC
  0
SECTION
  2
TABLES
  0
TABLE
  2
VPORT
 70
     1
  0
VPORT
  2
*ACTIVE
 70
     0
 10
0.0
 20
0.0
 11
1.0
 21
1.0
 12
4.8410729011823816
 22
13.59253030636922
 13
0.0
 23
0.0
 14
0.5
 24
0.5
 15
0.5
 25
0.5
 16
0.0
 26
0.0
 36
1.0
 17
0.0
 27
0.0
 37
0.0
 40
12.25877081006745
 41
1.8804573804573801
 42
50.0
 43
0.0
 44
0.0
 50
0.0
 51
0.0
 71
     0
 72
   100
 73
     1
 74
     3
 75
     0
 76
     1
 77
     0
 78
     0
  0
ENDTAB
  0
TABLE
  2
LTYPE
 70
    18
  0
LTYPE
  2
CONTINUOUS
 70
     0
  3
Solid line
 72
    65
 73
     0
 40
0.0
  0
LTYPE
  2
HIDDEN
 70
     0
  3
Hidden __ __ __ __ __ __ __ __ __ __ __ __ __ _
 72
    65
 73
     2
 40
0.375
 49
0.25
 49
-0.125
  0
LTYPE
  2
PHANTOM2
 70
     0
  3
Phantom (.5x) ___ _ _ ___ _ _ ___ _ _ ___ _ _
 72
    65
 73
     6
 40
1.25
 49
0.625
 49
-0.125
 49
0.125
 49
-0.125
 49
0.125
 49
-0.125
  0
LTYPE
  2
CENTER
 70
     0
  3
Center ____ _ ____ _ ____ _ ____ _ ____ _ ____
 72
    65
 73
     4
 40
2.0
 49
1.25
 49
-0.25
 49
0.25
 49
-0.25
  0
LTYPE
  2
DASHED
 70
     0
  3
Dashed __ __ __ __ __ __ __ __ __ __ __ __ __ _
 72
    65
 73
     2
 40
0.75
 49
0.5
 49
-0.25
  0
LTYPE
  2
DOT
 70
     0
  3
Dot . . . . . . . . . . . . . . . . . . . . . .
 72
    65
 73
     2
 40
0.25
 49
0.0
 49
-0.25
  0
LTYPE
  2
AM_ISO02W050
 70
     0
  3
__ __ __ __ __ __ __ __ __ __ __ __ __ __ __
 72
    65
 73
     2
 40
7.5
 49
6.0
 49
-1.5
  0
LTYPE
  2
AM_ISO08W050
 70
     0
  3
____ . ____ . ____ . ____ . ____ . ____ . ____
 72
    65
 73
     4
 40
18.0
 49
12.0
 49
-1.5
 49
3.0
 49
-1.5
  0
LTYPE
  2
AM_ISO09W050
 70
     0
  3
_____ . . _____ . . _____ . . ____ .. ____
 72
    65
 73
     6
 40
22.5
 49
12.0
 49
-1.5
 49
3.0
 49
-1.5
 49
3.0
 49
-1.5
  0
LTYPE
  2
AMCONSTR
 70
     0
  3
_______________________
 72
    65
 73
     2
 40
9999.0
 49
9999.0
 49
0.0
  0
LTYPE
  2
AM_ISO08W050X2
 70
     0
  3
__ . __ . __ . __ . __ . __
 72
    65
 73
     4
 40
9.0
 49
6.0
 49
-0.75
 49
1.5
 49
-0.75
  0
LTYPE
  2
AM_ISO02W050X2
 70
     0
  3
 _ _ _ _ _ _ _ _ _ _ _ _
 72
    65
 73
     2
 40
3.75
 49
3.0
 49
-0.75
  0
LTYPE
  2
AMZIGZAG
 70
     0
  3
/\/-/\/-/\/-/\/-/\/-/\/
 72
    65
 73
     2
 40
11.0001
 49
0.0001
 49
-11.0
  0
LTYPE
  2
CENTER2
 70
     0
  3
Center (.5x) ___ _ ___ _ ___ _ ___ _ ___ _ ___
 72
    65
 73
     4
 40
1.125
 49
0.75
 49
-0.125
 49
0.125
 49
-0.125
  0
LTYPE
  2
HIDDEN2
 70
     0
  3
Hidden (.5x) _ _ _ _ _ _ _ _ _ _ _ _ _ _ _ _ _
 72
    65
 73
     2
 40
0.1875
 49
0.125
 49
-0.0625
  0
LTYPE
  2
AMZIGZAG2
 70
     0
  3
/\/-/\/-/\/-/\/-/\/-/\/
 72
    65
 73
     2
 40
0.4401
 49
0.0001
 49
-0.4400000000000001
  0
LTYPE
  2
ACANSTGB
 70
     0
  3
__ . . __ . .
 72
    65
 73
     6
 40
0.35433070866
 49
0.15748031496
 49
-0.03937007874
 49
0.03937007874
 49
-0.03937007874
 49
0.03937007874
 49
-0.03937007874
  0
LTYPE
  2
ACANSTGL
 70
     0
  3
_ _ _ _ _
 72
    65
 73
     2
 40
0.11811023622
 49
0.07874015748
 49
-0.03937007874
  0
ENDTAB
  0
TABLE
  2
LAYER
 70
     4
  0
LAYER
  2
0
 70
     0
 62
     6
  6
CONTINUOUS
  0
LAYER
  2
STATE_1
 70
     0
 62
     3
  6
CONTINUOUS
  0
LAYER
  2
STATE_2
 70
     0
 62
     1
  6
CONTINUOUS
  0
LAYER
  2
DISPLAY
 70
     0
 62
     7
  6
CONTINUOUS
  0
ENDTAB
  0
TABLE
  2
STYLE
 70
     6
  0
STYLE
  2
STANDARD
 70
     0
 40
0.0
 41
1.0
 50
0.0
 71
     0
 42
0.2
  3
txt
  4

  0
STYLE
  2
ANNOTATIVE
 70
     0
 40
0.0
 41
1.0
 50
0.0
 71
     0
 42
0.2
  3
txt
  4

  0
STYLE
  2
ARIAL
 70
     0
 40
0.0
 41
1.0
 50
0.0
 71
     0
 42
0.2
  3
txt
  4

  0
STYLE
  2

 70
     1
 40
0.0
 41
1.0
 50
0.0
 71
     0
 42
0.2
  3
genltshp.shx
  4

  0
STYLE
  2
ACANSTS
 70
     0
 40
1.0
 41
1.0
 50
0.0
 71
     0
 42
0.2
  3
romans.shx
  4

  0
STYLE
  2
ACANSGDT
 70
     0
 40
0.0
 41
1.0
 50
0.0
 71
     0
 42
0.2
  3
amgdt.shx
  4

  0
ENDTAB
  0
TABLE
  2
VIEW
 70
     0
  0
ENDTAB
  0
TABLE
  2
UCS
 70
     0
  0
ENDTAB
  0
TABLE
  2
APPID
 70
    23
  0
APPID
  2
ACAD
 70
     0
  0
APPID
  2
ACADANNOTATIVE
 70
     0
  0
APPID
  2
ACAD_MLEADERVER
 70
     0
  0
APPID
  2
CONTENTTABDATA
 70
     0
  0
APPID
  2
CONTENTCURRENTTAB
 70
     0
  0
APPID
  2
ACAD_EXEMPT_FROM_CAD_STANDARDS
 70
     0
  0
APPID
  2
CONTENTBLOCKDESCRIPTION
 70
     0
  0
APPID
  2
CONTENTBLOCKICON
 70
     0
  0
APPID
  2
ACAD_PSEXT
 70
     0
  0
APPID
  2
ACAUTHENVIRON
 70
     0
  0
APPID
  2
ACDBDYNAMICBLOCKTRUENAME
 70
     0
  0
APPID
  2
ACDBDYNAMICBLOCKGUID
 70
     0
  0
APPID
  2
ACDBBLOCKREPETAG
 70
     0
  0
APPID
  2
MCAD_NO_VIS
 70
     0
  0
APPID
  2
ACAD_TEMP_GRAPHIC
 70
     0
  0
APPID
  2
ACATTRIBSERVICES
 70
     0
  0
APPID
  2
DESIGNERASSEMBLIES
 70
     0
  0
APPID
  2
ACAD_DSTYLE_DIMJAG
 70
     0
  0
APPID
  2
ACAD_DSTYLE_DIMBREAK
 70
     0
  0
APPID
  2
GENIUS_GENSCREG_15
 70
     0
  0
APPID
  2
GENIUS_GENOBJ-N-SDF_13
 70
     0
  0
APPID
  2
GENIUS_GENODEF_13
 70
     0
  0
APPID
  2
ACAD_NAV_VCDISPLAY
 70
     0
  0
ENDTAB
  0
TABLE
  2
DIMSTYLE
 70
     8
  0
DIMSTYLE
  2
STANDARD
 70
     0
  3

  4

  5

  6

  7

 40
1.0
 41
0.18
 42
0.0625
 43
0.38
 44
0.18
 45
0.0
 46
0.0
 47
0.0
 48
0.0
140
0.18
141
0.09
142
0.0
143
25.399999999999999
144
1.0
145
0.0
146
1.0
147
0.09
 71
     0
 72
     0
 73
     1
 74
     1
 75
     0
 76
     0
 77
     0
 78
     0
170
     0
171
     2
172
     0
173
     0
174
     0
175
     0
176
     0
177
     0
178
     0
  0
DIMSTYLE
  2
ANNOTATIVE
 70
     0
  3

  4

  5

  6

  7

 40
1.0
 41
0.18
 42
0.0625
 43
0.38
 44
0.18
 45
0.0
 46
0.0
 47
0.0
 48
0.0
140
0.18
141
0.09
142
0.0
143
25.399999999999999
144
1.0
145
0.0
146
1.0
147
0.09
 71
     0
 72
     0
 73
     1
 74
     1
 75
     0
 76
     0
 77
     0
 78
     0
170
     0
171
     2
172
     0
173
     0
174
     0
175
     0
176
     0
177
     0
178
     0
  0
DIMSTYLE
  2
AM_ANSI
 70
     0
  3

  4
mm
  5

  6

  7

 40
1.0
 41
0.12
 42
0.05
 43
0.5
 44
0.1
 45
0.0
 46
0.0
 47
0.1
 48
0.1
140
0.12
141
0.0
142
0.0
143
25.399999999999999
144
1.0
145
0.0
146
0.71
147
0.06
 71
     0
 72
     0
 73
     1
 74
     1
 75
     0
 76
     0
 77
     0
 78
     7
170
     0
171
     2
172
     0
173
     0
174
     0
175
     0
176
   256
177
   256
178
     2
  0
DIMSTYLE
  2
AM_ANSI$3
 70
     0
  3

  4
mm
  5

  6

  7

 40
1.0
 41
0.12
 42
0.05
 43
0.5
 44
0.1
 45
0.0
 46
0.0
 47
0.1
 48
0.1
140
0.12
141
0.0
142
0.0
143
25.399999999999999
144
1.0
145
0.0
146
0.71
147
0.06
 71
     0
 72
     0
 73
     1
 74
     1
 75
     0
 76
     0
 77
     0
 78
     7
170
     0
171
     2
172
     0
173
     0
174
     0
175
     0
176
   256
177
   256
178
     2
  0
DIMSTYLE
  2
AM_ANSI$4
 70
     0
  3

  4
mm
  5

  6

  7

 40
1.0
 41
0.12
 42
0.05
 43
0.5
 44
0.1
 45
0.0
 46
0.0
 47
0.1
 48
0.1
140
0.12
141
0.0
142
0.0
143
25.399999999999999
144
1.0
145
0.0
146
0.71
147
0.06
 71
     0
 72
     0
 73
     1
 74
     1
 75
     0
 76
     0
 77
     0
 78
     7
170
     0
171
     2
172
     0
173
     0
174
     0
175
     0
176
   256
177
   256
178
     2
  0
DIMSTYLE
  2
AM_ANSI$7
 70
     0
  3

  4
mm
  5

  6

  7

 40
1.0
 41
0.12
 42
0.05
 43
0.5
 44
0.1
 45
0.0
 46
0.0
 47
0.1
 48
0.1
140
0.12
141
0.0
142
0.0
143
25.399999999999999
144
1.0
145
0.0
146
0.71
147
0.06
 71
     0
 72
     0
 73
     1
 74
     1
 75
     0
 76
     0
 77
     0
 78
     7
170
     0
171
     2
172
     0
173
     0
174
     0
175
     0
176
   256
177
   256
178
     2
  0
DIMSTYLE
  2
AM_ANSI$SF
 70
     0
  3

  4
mm
  5

  6

  7

 40
1.0
 41
0.12
 42
0.05
 43
0.5
 44
0.1
 45
0.0
 46
0.0
 47
0.1
 48
0.1
140
0.12
141
0.0
142
0.0
143
25.399999999999999
144
1.0
145
0.0
146
0.71
147
0.06
 71
     0
 72
     0
 73
     1
 74
     1
 75
     1
 76
     1
 77
     0
 78
     7
170
     0
171
     2
172
     0
173
     0
174
     0
175
     0
176
   256
177
   256
178
     2
  0
DIMSTYLE
  2
AM_ANSI$SH
 70
     0
  3

  4
mm
  5

  6
GENAXEH
  7

 40
1.0
 41
0.12
 42
0.05
 43
0.5
 44
0.1
 45
0.0
 46
0.0
 47
0.1
 48
0.1
140
0.12
141
0.0
142
0.0
143
25.399999999999999
144
1.0
145
0.0
146
0.71
147
0.06
 71
     0
 72
     0
 73
     1
 74
     1
 75
     1
 76
     1
 77
     0
 78
     7
170
     0
171
     2
172
     0
173
     1
174
     0
175
     0
176
   256
177
   256
178
     2
  0
ENDTAB
  0
ENDSEC
  0
SECTION
  2
BLOCKS
  0
BLOCK
  8
0
  2
$MODEL_SPACE
 70
     0
 10
0.0
 20
0.0
 30
0.0
  3
$MODEL_SPACE
  1

  0
ENDBLK
  5
3110
  8
0
  0
BLOCK
 67
     1
  8
0
  2
$PAPER_SPACE
 70
     0
 10
0.0
 20
0.0
 30
0.0
  3
$PAPER_SPACE
  1

  0
ENDBLK
  5
310C
 67
     1
  8
0
  0
BLOCK
  8
0
  2
2_STATE_BRKR_SYMBOL_ST1-GR
 70
     2
 10
0.0
 20
0.0
 30
0.0
  3
2_STATE_BRKR_SYMBOL_ST1-GR
  1

  0
POLYLINE
  5
F9
  8
0
 62
     6
 66
     1
 10
0.0
 20
0.0
 30
0.0
 70
     1
  0
VERTEX
  5
31DD
  8
0
 62
     6
 10
6.0471933526922141
 20
4.105208527085046
 30
0.0
  0
VERTEX
  5
31DE
  8
0
 62
     6
 10
6.467243371457374
 20
4.105208527085046
 30
0.0
  0
VERTEX
  5
31DF
  8
0
 62
     6
 10
6.467243371457374
 20
4.525258545850205
 30
0.0
  0
VERTEX
  5
31E0
  8
0
 62
     6
 10
6.0471933526922141
 20
4.525258545850205
 30
0.0
  0
SEQEND
  5
31E1
  8
0
 62
     6
  0
SOLID
  5
FA
  8
STATE_2
 62
     1
 10
6.0471933526922141
 20
4.105208527085046
 30
0.0
 11
6.0471933526922141
 21
4.525258545850205
 31
0.0
 12
6.467243371457374
 22
4.105208527085046
 32
0.0
 13
6.467243371457374
 23
4.525258545850205
 33
0.0
  0
ATTDEF
  5
FB
  8
0
  6
CONTINUOUS
 62
     6
 10
5.9910018963363374
 20
3.958735244172896
 30
0.0
 40
0.084010003753032
  1
NULL
  3

  2
LINKAGE
 70
     9
  0
POLYLINE
  5
FC
  8
STATE_1
  6
CONTINUOUS
 62
     3
 66
     1
 10
0.0
 20
0.0
 30
0.0
 40
0.0588070026271224
 41
0.0588070026271224
  0
VERTEX
  5
31E2
  8
STATE_1
  6
CONTINUOUS
 62
     3
 10
6.0471933526922141
 20
4.4958457512403101
 30
0.0
  0
VERTEX
  5
31E3
  8
STATE_1
  6
CONTINUOUS
 62
     3
 10
6.467243371457374
 20
4.4958457512403101
 30
0.0
  0
SEQEND
  5
31E4
  8
STATE_1
  6
CONTINUOUS
 62
     3
  0
POLYLINE
  5
FD
  8
STATE_1
  6
CONTINUOUS
 62
     3
 66
     1
 10
0.0
 20
0.0
 30
0.0
 40
0.0588070026271224
 41
0.0588070026271224
  0
VERTEX
  5
31E5
  8
STATE_1
  6
CONTINUOUS
 62
     3
 10
6.0471933526922141
 20
4.1343690227753243
 30
0.0
  0
VERTEX
  5
31E6
  8
STATE_1
  6
CONTINUOUS
 62
     3
 10
6.467243371457374
 20
4.1343690227753243
 30
0.0
  0
SEQEND
  5
31E7
  8
STATE_1
  6
CONTINUOUS
 62
     3
  0
POLYLINE
  5
FE
  8
STATE_1
  6
CONTINUOUS
 62
     3
 66
     1
 10
0.0
 20
0.0
 30
0.0
 40
0.0588070026271224
 41
0.0588070026271224
  0
VERTEX
  5
31E8
  8
STATE_1
  6
CONTINUOUS
 62
     3
 10
6.0765064444788379
 20
4.525210898859747
 30
0.0
  0
VERTEX
  5
31E9
  8
STATE_1
  6
CONTINUOUS
 62
     3
 10
6.0765064444788379
 20
4.105160880094588
 30
0.0
  0
SEQEND
  5
31EA
  8
STATE_1
  6
CONTINUOUS
 62
     3
  0
LINE
  5
FF
  8
STATE_1
  6
CONTINUOUS
 62
     3
 10
6.4082158525585982
 20
4.1047766273305024
 30
0.0
 11
6.4082158525585982
 21
4.5248266460956623
 31
0.0
  0
POLYLINE
  5
100
  8
STATE_1
  6
CONTINUOUS
 62
     3
 66
     1
 10
0.0
 20
0.0
 30
0.0
 40
0.0588070026271224
 41
0.0588070026271224
  0
VERTEX
  5
31EB
  8
STATE_1
  6
CONTINUOUS
 62
     3
 10
6.437528944345221
 20
4.525210898859747
 30
0.0
  0
VERTEX
  5
31EC
  8
STATE_1
  6
CONTINUOUS
 62
     3
 10
6.437528944345221
 20
4.105160880094588
 30
0.0
  0
SEQEND
  5
31ED
  8
STATE_1
  6
CONTINUOUS
 62
     3
  0
ENDBLK
  5
102
  8
0
  0
BLOCK
  8
0
  2
ARROW_HEAD_DISPLAY_REF
 70
     2
 10
0.0
 20
0.0
 30
0.0
  3
ARROW_HEAD_DISPLAY_REF
  1

  0
ATTDEF
  5
245
  8
0
 10
-0.25
 20
-0.25
 30
0.0
 40
0.075
  1
NULL
  3

  2
DISPLAY
 70
     9
  0
SOLID
  5
246
  8
0
 62
     5
 10
0.1249999999999996
 20
-0.0937500000000002
 30
0.0
 11
-0.1249999999999996
 21
0.0000000000000011
 31
0.0
 12
0.1249999999999996
 22
0.0937500000000002
 32
0.0
 13
0.1249999999999996
 23
0.0937500000000002
 33
0.0
  0
ENDBLK
  5
248
  8
0
  0
BLOCK
  8
0
  2
1_LINE_TEXT_DISPLAY_REF_CE
 70
     2
 10
0.0
 20
0.0
 30
0.0
  3
1_LINE_TEXT_DISPLAY_REF_CE
  1

  0
ATTDEF
  5
24D
  8
0
 62
     5
 10
0.0240473984278853
 20
0.1455691966350546
 30
0.0
 40
0.2
  1

  7
ARIAL
 72
     1
 11
0.0240473984278853
 21
0.1455691966350546
 31
0.0
  3
ENTER TEXT HERE
  2
LINE1
 70
     0
  0
ATTDEF
  5
24E
  8
0
 10
-0.1833920903288963
 20
0.0395691603674864
 30
0.0
 40
0.075
  1
NULL
  7
ARIAL
  3

  2
DISPLAY
 70
     9
  0
ENDBLK
  5
250
  8
0
  0
BLOCK
  8
0
  2
1_LINE_TEXT_DISPLAY_REF_LE
 70
     2
 10
0.0
 20
0.0
 30
0.0
  3
1_LINE_TEXT_DISPLAY_REF_LE
  1

  0
ATTDEF
  5
25A
  8
0
 62
     5
 10
0.2240976624509303
 20
0.1475994037153464
 30
0.0
 40
0.2
  1

  7
ARIAL
  3
ENTER TEXT HERE
  2
LINE1
 70
     0
  0
ATTDEF
  5
25B
  8
0
 10
0.240051627683002
 20
0.0415993674477782
 30
0.0
 40
0.075
  1
NULL
  7
ARIAL
  3

  2
DISPLAY
 70
     9
  0
ENDBLK
  5
25D
  8
0
  0
BLOCK
  8
0
  2
LIVETEXT_L
 70
     2
 10
0.0
 20
0.0
 30
0.0
  3
LIVETEXT_L
  1

  0
ATTDEF
  5
34E
  8
0
 10
0.0
 20
0.096244
 30
0.0
 40
0.075
  1
NULL
  7
ARIAL
  3

  2
LINKAGE
 70
     9
  0
ATTDEF
  5
34F
  8
0
 10
0.0
 20
0.0
 30
0.0
 40
0.075
  1
UNLINKED L
  7
ARIAL
  3

  2
TEXT
 70
     8
  0
ENDBLK
  5
351
  8
0
  0
BLOCK
  8
0
  2
GENAXEH
 70
     0
 10
0.0
 20
0.0
 30
0.0
  3
GENAXEH
  1

  0
LINE
  5
31C0
  8
0
 10
-1.0
 20
0.0
 30
0.0
 11
1.0
 21
0.0
 31
0.0
  0
ENDBLK
  5
31C2
  8
0
  0
ENDSEC
  0
SECTION
  2
ENTITIES
  0
INSERT
  5
249
  8
0
 66
     1
  2
ARROW_HEAD_DISPLAY_REF
 10
12.12514438250251
 20
18.000684979105468
 30
0.0
 41
1.8634611981471281
 42
1.8634611981471281
 43
1.8634611981471281
  0
ATTRIB
  5
24A
  8
0
 10
11.65927908296573
 20
17.534819679568692
 30
0.0
 40
0.1397595898610346
  1
C:\C3ILEX\EOSCADA\DISPLAYS\ONELINES\115KV SYSTEM ARCADE.DXF
  2
DISPLAY
 70
     9
  0
SEQEND
  5
24B
  8
0
  0
INSERT
  5
251
  8
0
 66
     1
  2
1_LINE_TEXT_DISPLAY_REF_CE
 10
2.9139176157222191
 20
19.293446985449261
 30
0.0
  0
ATTRIB
  5
252
  8
0
 62
     5
 10
2.9379650141501021
 20
19.43901618208432
 30
0.0
 40
0.2
  1

  7
ARIAL
 72
     1
 11
2.9379650141501021
 21
19.43901618208432
 31
0.0
  2
LINE1
 70
     0
  0
ATTRIB
  5
253
  8
0
 10
2.7305255253933232
 20
19.33301614581675
 30
0.0
 40
0.075
  1
NULL
  7
ARIAL
  2
DISPLAY
 70
     9
  0
SEQEND
  5
254
  8
0
  0
INSERT
  5
255
  8
0
 66
     1
  2
1_LINE_TEXT_DISPLAY_REF_CE
 10
1.964121063016063
 20
19.531003282532438
 30
0.0
  0
ATTRIB
  5
256
  8
0
 62
     5
 10
1.9881684614439501
 20
19.676572479167501
 30
0.0
 40
0.2
  1

  7
ARIAL
 72
     1
 11
1.9881684614439501
 21
19.676572479167501
 31
0.0
  2
LINE1
 70
     0
  0
ATTRIB
  5
257
  8
0
 10
1.780728972687168
 20
19.57057244289993
 30
0.0
 40
0.075
  1
NULL
  7
ARIAL
  2
DISPLAY
 70
     9
  0
SEQEND
  5
258
  8
0
  0
INSERT
  5
25E
  8
0
 66
     1
  2
1_LINE_TEXT_DISPLAY_REF_LE
 10
3.490579801370846
 20
18.34322174599394
 30
0.0
  0
ATTRIB
  5
25F
  8
0
 62
     5
 10
3.7146774638217792
 20
18.49082114970928
 30
0.0
 40
0.2
  1

  7
ARIAL
  2
LINE1
 70
     0
  0
ATTRIB
  5
260
  8
0
 10
3.73063142905385
 20
18.38482111344171
 30
0.0
 40
0.075
  1
NULL
  7
ARIAL
  2
DISPLAY
 70
     9
  0
SEQEND
  5
261
  8
0
  0
LINE
  5
362
  8
DISPLAY
 62
     4
 10
5.2506510207494754
 20
14.987363450744949
 30
0.0
 11
11.484990812892351
 21
14.987363450744949
 31
0.0
  0
POLYLINE
  5
48A
  8
0
 62
     4
 66
     1
 10
0.0
 20
0.0
 30
0.0
 70
     1
  0
VERTEX
  5
31EE
  8
0
 62
     4
 10
0.8841200135514029
 20
18.335534842399561
 30
0.0
  0
VERTEX
  5
31EF
  8
0
 62
     4
 10
9.3559430098163752
 20
18.335534842399561
 30
0.0
  0
VERTEX
  5
31F0
  8
0
 62
     4
 10
9.3559430098163752
 20
16.74611499189497
 30
0.0
  0
VERTEX
  5
31F1
  8
0
 62
     4
 10
0.8841200135514029
 20
16.74611499189497
 30
0.0
  0
SEQEND
  5
31F2
  8
0
 62
     4
  0
LINE
  5
48C
  8
DISPLAY
 62
     4
 10
8.0000822740578101
 20
10.019457430909849
 30
0.0
 11
8.0000822740578101
 21
7.5051380982144691
 31
0.0
  0
INSERT
  5
4A3
  8
0
 66
     1
  2
ARROW_HEAD_DISPLAY_REF
 10
12.12514438250251
 20
17.354469179067749
 30
0.0
 41
1.8634611981471281
 42
1.8634611981471281
 43
1.8634611981471281
  0
ATTRIB
  5
4A4
  8
0
 10
11.65927908296573
 20
16.888603879530962
 30
0.0
 40
0.1397595898610346
  1
NULL
  2
DISPLAY
 70
     9
  0
SEQEND
  5
4A5
  8
0
  0
TEXT
  5
1574
  8
DISPLAY
 62
     3
 10
3.5402280007860978
 20
17.8553955144795
 30
0.0
 40
0.2949235279081819
  1
National Grid
  7
ARIAL
 72
     1
 11
5.1377304436220834
 21
17.8553955144795
 31
0.0
  0
TEXT
  5
1575
  8
DISPLAY
 62
     6
 10
12.7763064596727
 20
17.249364489508991
 30
0.0
 40
0.215
  1
INDEX
  7
ARIAL
  0
TEXT
  5
1576
  8
DISPLAY
 62
     6
 10
12.77144434338749
 20
17.894769468883979
 30
0.0
 40
0.215
  1
115KV System
  7
ARIAL
  0
INSERT
  5
165F
  8
0
 66
     1
  2
ARROW_HEAD_DISPLAY_REF
 10
12.12514438250251
 20
17.354469179067749
 30
0.0
 41
1.8634611981471281
 42
1.8634611981471281
 43
1.8634611981471281
  0
ATTRIB
  5
1660
  8
0
 10
11.65927908296573
 20
16.888603879530962
 30
0.0
 40
0.1397595898610346
  1
C:\C3ILEX\EOSCADA\DISPLAYS\MAIN_INDEX.DXF
  2
DISPLAY
 70
     9
  0
SEQEND
  5
1661
  8
0
  0
LINE
  5
2204
  8
0
 10
-5.5259653042399393
 20
9.7442734702179763
 30
0.0
 11
-5.5259653042399393
 21
9.7442734702179763
 31
0.0
  0
INSERT
  5
2CE7
  8
0
 66
     1
  2
2_STATE_BRKR_SYMBOL_ST1-GR
 10
-4.2482536346261632
 20
7.9064951127402381
 30
0.0
  0
ATTRIB
  5
2CE8
  8
0
  6
CONTINUOUS
 62
     6
 10
1.7427482617101731
 20
11.865230356913139
 30
0.0
 40
0.084010003753032
  1
010100050000000701
  2
LINKAGE
 70
     9
  0
SEQEND
  5
2CE9
  8
0
  0
LINE
  5
2CEA
  8
DISPLAY
 62
     4
 10
2.0089647274486322
 20
12.01170363982529
 30
0.0
 11
2.0089647274486322
 21
9.9947300110265864
 31
0.0
  0
TEXT
  5
2CEF
  8
DISPLAY
 62
     2
 10
0.6281178127633674
 20
12.15783250408632
 30
0.0
 40
0.215
  1
R405
  7
ARIAL
 72
     2
 11
1.380617812763367
 21
12.15783250408632
 31
0.0
  0
TEXT
  5
2CF6
  8
DISPLAY
 62
     3
 10
3.1538263540153011
 20
17.004794233479618
 30
0.0
 40
0.2949235279081819
  1
Arcade Station
  7
ARIAL
 72
     1
 11
5.0708292854184842
 21
17.004794233479618
 31
0.0
  0
INSERT
  5
2D08
  8
0
 66
     1
  2
2_STATE_BRKR_SYMBOL_ST1-GR
 10
-1.2524824396719321
 20
10.73374560407496
 30
0.0
  0
ATTRIB
  5
2D09
  8
0
  6
CONTINUOUS
 62
     6
 10
4.7385194566644033
 20
14.692480848247859
 30
0.0
 40
0.084010003753032
  1
010100050000000601
  2
LINKAGE
 70
     9
  0
SEQEND
  5
2D0A
  8
0
  0
INSERT
  5
2D0F
  8
0
 66
     1
  2
2_STATE_BRKR_SYMBOL_ST1-GR
 10
1.7395871879702831
 20
7.9514830899376783
 30
0.0
  0
ATTRIB
  5
2D10
  8
0
  6
CONTINUOUS
 62
     6
 10
7.7305890843066161
 20
11.910218334110571
 30
0.0
 40
0.084010003753032
  1
010100050000000801
  2
LINKAGE
 70
     9
  0
SEQEND
  5
2D11
  8
0
  0
LINE
  5
2D12
  8
DISPLAY
 62
     4
 10
7.9968055500450808
 20
12.05669161702272
 30
0.0
 11
7.9968055500450808
 21
10.009957648922819
 31
0.0
  0
LINE
  5
2D26
  8
DISPLAY
 62
     4
 10
-1.463348546665959
 20
14.99598014249489
 30
0.0
 11
4.770991245476913
 21
14.99598014249489
 31
0.0
  0
LINE
  5
2D2D
  8
DISPLAY
 62
     4
 10
8.0116265428115412
 20
14.987363450744949
 30
0.0
 11
8.0045861460251366
 21
12.46581760582508
 31
0.0
  0
LINE
  5
2D33
  8
DISPLAY
 62
     4
 10
2.0229824024923562
 20
14.987132703643059
 30
0.0
 11
2.0159420057059521
 21
12.46558685872319
 31
0.0
  0
LINE
  5
2D34
  8
DISPLAY
 62
     4
 10
1.993130481912988
 20
10.00408879827072
 30
0.0
 11
7.9968055500450808
 21
10.009957648922819
 31
0.0
  0
TEXT
  5
2D3A
  8
DISPLAY
 62
     2
 10
8.6002999306515786
 20
12.11923641213537
 30
0.0
 40
0.215
  1
R408
  7
ARIAL
 72
     2
 11
9.3527999306515781
 21
12.11923641213537
 31
0.0
  0
TEXT
  5
2D40
  8
DISPLAY
 62
     2
 10
4.6244837401991337
 20
15.57809456832587
 30
0.0
 40
0.215
  1
R402
  7
ARIAL
 72
     2
 11
5.3769837401991341
 21
15.57809456832587
 31
0.0
  0
TEXT
  5
2D46
  8
DISPLAY
 62
     2
 10
9.6547903157795467
 20
15.206618491569239
 30
0.0
 40
0.215
  1
Line 151 to Gardenville
  7
ARIAL
 72
     2
 11
13.88312364911288
 21
15.206618491569239
 31
0.0
  0
TEXT
  5
2D4C
  8
DISPLAY
 62
     2
 10
-3.2658238764808529
 20
15.233519512994169
 30
0.0
 40
0.215
  1
Line 167 to Homer Hill
  7
ARIAL
 72
     2
 11
0.8191761235191457
 21
15.233519512994169
 31
0.0
  0
TEXT
  5
2FB0
  8
DISPLAY
 62
     2
 10
8.1816045901280443
 20
7.899797191584657
 30
0.0
 40
0.215
  1
Line 1 to Village of Arcade
  7
ARIAL
 72
     2
 11
13.41327125679471
 21
7.899797191584657
 31
0.0
  0
VIEWPORT
  5
27EE
 67
     1
  8
0
 10
5.2499996395561652
 20
3.9999998836066761
 30
0.0
 40
15.338150374288331
 41
8.9929997457669462
 68
     1
 69
     1
1001
ACAD
1000
MVIEW
1002
{
1070
    16
1010
0.0
1020
0.0
1030
0.0
1010
0.0
1020
0.0
1030
1.0
1040
0.0
1040
8.9929997457669462
1040
5.2499996395561652
1040
3.9999998836066761
1040
50.0
1040
0.0
1040
0.0
1070
     0
1070
   100
1070
     1
1070
     1
1070
     0
1070
     0
1070
     0
1070
     0
1040
0.0
1040
0.0
1040
0.0
1040
0.5
1040
0.5
1040
0.5
1040
0.5
1070
     0
1002
{
1002
}
1002
}
1001
GENIUS_GENOBJ-N-SDF_13
1002
{
1000
OWNER
1000
GEN
1002
}
1001
GENIUS_GENODEF_13
1002
{
1000
HIER
1070
     0
1002
}
1002
{
1000
MANEDIT
1070
     0
1002
}
1002
{
1000
NOSEL
1070
     0
1002
}
1002
{
1000
BEHIND
1070
     0
1002
}
1002
{
1000
OTHER
1070
     0
1002
}
1002
{
1000
REACTOR
1002
}
1001
GENIUS_GENSCREG_15
1000
PF
1040
1.0
1000
DF
1040
1.0
1000
MIN
1011
-2.419075547588001
1021
0.0
1031
0.0
1021
-0.4964999892767974
1031
0.0
1000
MAX
1011
12.91907482670033
1021
0.0
1031
0.0
1021
8.4964997564901488
1031
0.0
1000
FLAGS
1070
     4
  0
VIEWPORT
  5
27F1
 67
     1
  8
0
 10
5.24999976158142
 20
3.9999997615814191
 30
0.0
 40
8.3999996185302752
 41
6.3999996185302734
 68
     2
 69
     2
1001
ACAD
1000
MVIEW
1002
{
1070
    16
1010
0.0
1020
0.0
1030
0.0
1010
0.0
1020
0.0
1030
1.0
1040
0.0
1040
17.940932294162451
1040
4.4884976151559872
1040
12.140919228175891
1040
50.0
1040
0.0
1040
0.0
1070
     0
1070
   100
1070
     1
1070
     1
1070
     0
1070
     0
1070
     0
1070
     0
1040
0.0
1040
0.0
1040
0.0
1040
0.5
1040
0.5
1040
0.5
1040
0.5
1070
     0
1002
{
1002
}
1002
}
1001
GENIUS_GENOBJ-N-SDF_13
1002
{
1000
OWNER
1000
GEN
1002
}
1001
GENIUS_GENODEF_13
1002
{
1000
HIER
1070
     0
1002
}
1002
{
1000
MANEDIT
1070
     0
1002
}
1002
{
1000
NOSEL
1070
     0
1002
}
1002
{
1000
BEHIND
1070
     0
1002
}
1002
{
1000
OTHER
1070
     0
1002
}
1002
{
1000
REACTOR
1002
}
1001
GENIUS_GENSCREG_15
1000
PF
1040
0.0
1000
DF
1040
0.0
1000
MIN
1011
1.049999952316282
1021
0.0
1031
0.0
1021
0.7999999523162824
1031
0.0
1000
MAX
1011
9.4499995708465576
1021
0.0
1031
0.0
1021
7.199999570846555
1031
0.0
1000
FLAGS
1070
     4
  0
ENDSEC
  0
EOF
