  0
SECTION
  2
HEADER
  9
$ACADVER
  1
AC1009
  9
$INSBASE
 10
0.0
 20
0.0
 30
0.0
  9
$EXTMIN
 10
4.9252887113297881
 20
-1.1425971837964191
 30
0.0
  9
$EXTMAX
 10
38.92595783111306
 20
21.85847690078122
 30
0.0
  9
$LIMMIN
 10
0.0
 20
0.0
  9
$LIMMAX
 10
12.0
 20
9.0
  9
$ORTHOMODE
 70
     0
  9
$REGENMODE
 70
     1
  9
$FILLMODE
 70
     1
  9
$QTEXTMODE
 70
     0
  9
$MIRRTEXT
 70
     0
  9
$DRAGMODE
 70
     2
  9
$LTSCALE
 40
1.0
  9
$OSMODE
 70
     7
  9
$ATTMODE
 70
     1
  9
$TEXTSIZE
 40
0.1447913631942299
  9
$TRACEWID
 40
0.05
  9
$TEXTSTYLE
  7
STANDARD
  9
$CLAYER
  8
RS485
  9
$CELTYPE
  6
BYLAYER
  9
$CECOLOR
 62
   256
  9
$DIMSCALE
 40
1.0
  9
$DIMASZ
 40
0.18
  9
$DIMEXO
 40
0.0625
  9
$DIMDLI
 40
0.38
  9
$DIMRND
 40
0.0
  9
$DIMDLE
 40
0.0
  9
$DIMEXE
 40
0.18
  9
$DIMTP
 40
0.0
  9
$DIMTM
 40
0.0
  9
$DIMTXT
 40
0.18
  9
$DIMCEN
 40
0.09
  9
$DIMTSZ
 40
0.0
  9
$DIMTOL
 70
     0
  9
$DIMLIM
 70
     0
  9
$DIMTIH
 70
     1
  9
$DIMTOH
 70
     1
  9
$DIMSE1
 70
     0
  9
$DIMSE2
 70
     0
  9
$DIMTAD
 70
     0
  9
$DIMZIN
 70
     0
  9
$DIMBLK
  1

  9
$DIMASO
 70
     1
  9
$DIMSHO
 70
     1
  9
$DIMPOST
  1

  9
$DIMAPOST
  1

  9
$DIMALT
 70
     0
  9
$DIMALTD
 70
     2
  9
$DIMALTF
 40
25.399999999999999
  9
$DIMLFAC
 40
1.0
  9
$DIMTOFL
 70
     0
  9
$DIMTVP
 40
0.0
  9
$DIMTIX
 70
     0
  9
$DIMSOXD
 70
     0
  9
$DIMSAH
 70
     0
  9
$DIMBLK1
  1

  9
$DIMBLK2
  1

  9
$DIMSTYLE
  2
STANDARD
  9
$DIMCLRD
 70
     0
  9
$DIMCLRE
 70
     0
  9
$DIMCLRT
 70
     0
  9
$DIMTFAC
 40
1.0
  9
$DIMGAP
 40
0.09
  9
$LUNITS
 70
     2
  9
$LUPREC
 70
     4
  9
$SKETCHINC
 40
0.1
  9
$FILLETRAD
 40
0.0
  9
$AUNITS
 70
     0
  9
$AUPREC
 70
     0
  9
$MENU
  1
.
  9
$ELEVATION
 40
0.0
  9
$PELEVATION
 40
0.0
  9
$THICKNESS
 40
0.0
  9
$LIMCHECK
 70
     0
  9
$BLIPMODE
 70
     0
  9
$CHAMFERA
 40
0.0
  9
$CHAMFERB
 40
0.0
  9
$SKPOLY
 70
     0
  9
$TDCREATE
 40
2455482.4972511572
  9
$TDUPDATE
 40
2456573.4342249311
  9
$TDINDWG
 40
0.5544907639
  9
$TDUSRTIMER
 40
0.5544907639
  9
$USRTIMER
 70
     1
  9
$ANGBASE
 50
0.0
  9
$ANGDIR
 70
     0
  9
$PDMODE
 70
     0
  9
$PDSIZE
 40
0.0
  9
$PLINEWID
 40
0.0
  9
$COORDS
 70
     1
  9
$SPLFRAME
 70
     0
  9
$SPLINETYPE
 70
     6
  9
$SPLINESEGS
 70
     8
  9
$ATTDIA
 70
     1
  9
$ATTREQ
 70
     1
  9
$HANDLING
 70
     1
  9
$HANDSEED
  5
EAD
  9
$SURFTAB1
 70
     6
  9
$SURFTAB2
 70
     6
  9
$SURFTYPE
 70
     6
  9
$SURFU
 70
     6
  9
$SURFV
 70
     6
  9
$UCSNAME
  2

  9
$UCSORG
 10
0.0
 20
0.0
 30
0.0
  9
$UCSXDIR
 10
1.0
 20
0.0
 30
0.0
  9
$UCSYDIR
 10
0.0
 20
1.0
 30
0.0
  9
$PUCSNAME
  2

  9
$PUCSORG
 10
0.0
 20
0.0
 30
0.0
  9
$PUCSXDIR
 10
1.0
 20
0.0
 30
0.0
  9
$PUCSYDIR
 10
0.0
 20
1.0
 30
0.0
  9
$USERI1
 70
     0
  9
$USERI2
 70
     0
  9
$USERI3
 70
     0
  9
$USERI4
 70
     0
  9
$USERI5
 70
     0
  9
$USERR1
 40
0.0
  9
$USERR2
 40
0.0
  9
$USERR3
 40
0.0
  9
$USERR4
 40
0.0
  9
$USERR5
 40
0.0
  9
$WORLDVIEW
 70
     1
  9
$SHADEDGE
 70
     3
  9
$SHADEDIF
 70
    70
  9
$TILEMODE
 70
     1
  9
$MAXACTVP
 70
    64
  9
$PLIMCHECK
 70
     0
  9
$PEXTMIN
 10
1.049999952316284
 20
0.7999999523162842
 30
0.0
  9
$PEXTMAX
 10
9.4499995708465594
 20
7.1999995708465576
 30
0.0
  9
$PLIMMIN
 10
-0.2500002402958907
 20
-0.2499999962453767
  9
$PLIMMAX
 10
10.74999951940822
 20
8.2499997634587334
  9
$UNITMODE
 70
     0
  9
$VISRETAIN
 70
     1
  9
$PLINEGEN
 70
     0
  9
$PSLTSCALE
 70
     1
  0
ENDSEC
  0
SECTION
  2
TABLES
  0
TABLE
  2
VPORT
 70
     1
  0
VPORT
  2
*ACTIVE
 70
     0
 10
0.0
 20
0.0
 11
1.0
 21
1.0
 12
27.862523019334201
 22
9.8851121354067892
 13
0.0
 23
0.0
 14
0.5
 24
0.5
 15
0.125
 25
0.125
 16
0.0
 26
0.0
 36
1.0
 17
0.0
 27
0.0
 37
0.0
 40
41.632706782479417
 41
1.8804573804573801
 42
50.0
 43
0.0
 44
0.0
 50
0.0
 51
0.0
 71
     0
 72
  1000
 73
     1
 74
     3
 75
     0
 76
     1
 77
     0
 78
     0
  0
ENDTAB
  0
TABLE
  2
LTYPE
 70
    25
  0
LTYPE
  2
CONTINUOUS
 70
     0
  3
Solid line
 72
    65
 73
     0
 40
0.0
  0
LTYPE
  2
ACAD_ISO02W100
 70
     0
  3
ISO dash __ __ __ __ __ __ __ __ __ __ __ __ __
 72
    65
 73
     2
 40
15.0
 49
12.0
 49
-3.0
  0
LTYPE
  2
ACAD_ISO03W100
 70
     0
  3
ISO dash space __    __    __    __    __    __
 72
    65
 73
     2
 40
30.0
 49
12.0
 49
-18.0
  0
LTYPE
  2
ACAD_ISO04W100
 70
     0
  3
ISO long-dash dot ____ . ____ . ____ . ____ . _
 72
    65
 73
     4
 40
30.0
 49
24.0
 49
-3.0
 49
0.0
 49
-3.0
  0
LTYPE
  2
DASHEDX2
 70
     0
  3
Dashed (2x) ____  ____  ____  ____  ____  ___
 72
    65
 73
     2
 40
1.5
 49
1.0
 49
-0.5
  0
LTYPE
  2
CENTER
 70
     0
  3
Center ____ _ ____ _ ____ _ ____ _ ____ _ ____
 72
    65
 73
     4
 40
2.0
 49
1.25
 49
-0.25
 49
0.25
 49
-0.25
  0
LTYPE
  2
CENTER2
 70
     0
  3
Center (.5x) ___ _ ___ _ ___ _ ___ _ ___ _ ___
 72
    65
 73
     4
 40
1.125
 49
0.75
 49
-0.125
 49
0.125
 49
-0.125
  0
LTYPE
  2
CENTERX2
 70
     0
  3
Center (2x) ________  __  ________  __  _____
 72
    65
 73
     4
 40
4.0
 49
2.5
 49
-0.5
 49
0.5
 49
-0.5
  0
LTYPE
  2
DASHDOT
 70
     0
  3
Dash dot __ . __ . __ . __ . __ . __ . __ . __
 72
    65
 73
     4
 40
1.0
 49
0.5
 49
-0.25
 49
0.0
 49
-0.25
  0
LTYPE
  2
DASHED
 70
     0
  3
Dashed __ __ __ __ __ __ __ __ __ __ __ __ __ _
 72
    65
 73
     2
 40
0.75
 49
0.5
 49
-0.25
  0
LTYPE
  2
DASHED2
 70
     0
  3
Dashed (.5x) _ _ _ _ _ _ _ _ _ _ _ _ _ _ _ _ _
 72
    65
 73
     2
 40
0.375
 49
0.25
 49
-0.125
  0
LTYPE
  2
HIDDEN
 70
     0
  3
Hidden __ __ __ __ __ __ __ __ __ __ __ __ __ _
 72
    65
 73
     2
 40
0.375
 49
0.25
 49
-0.125
  0
LTYPE
  2
PHANTOM2
 70
     0
  3
Phantom (.5x) ___ _ _ ___ _ _ ___ _ _ ___ _ _
 72
    65
 73
     6
 40
1.25
 49
0.625
 49
-0.125
 49
0.125
 49
-0.125
 49
0.125
 49
-0.125
  0
LTYPE
  2
DOT
 70
     0
  3
Dot . . . . . . . . . . . . . . . . . . . . . .
 72
    65
 73
     2
 40
0.25
 49
0.0
 49
-0.25
  0
LTYPE
  2
AM_ISO02W050
 70
     0
  3
__ __ __ __ __ __ __ __ __ __ __ __ __ __ __
 72
    65
 73
     2
 40
7.5
 49
6.0
 49
-1.5
  0
LTYPE
  2
AM_ISO08W050
 70
     0
  3
____ . ____ . ____ . ____ . ____ . ____ . ____
 72
    65
 73
     4
 40
18.0
 49
12.0
 49
-1.5
 49
3.0
 49
-1.5
  0
LTYPE
  2
AM_ISO09W050
 70
     0
  3
_____ . . _____ . . _____ . . ____ .. ____
 72
    65
 73
     6
 40
22.5
 49
12.0
 49
-1.5
 49
3.0
 49
-1.5
 49
3.0
 49
-1.5
  0
LTYPE
  2
AMCONSTR
 70
     0
  3
_______________________
 72
    65
 73
     2
 40
9999.0
 49
9999.0
 49
0.0
  0
LTYPE
  2
AM_ISO08W050X2
 70
     0
  3
__ . __ . __ . __ . __ . __
 72
    65
 73
     4
 40
9.0
 49
6.0
 49
-0.75
 49
1.5
 49
-0.75
  0
LTYPE
  2
AM_ISO02W050X2
 70
     0
  3
 _ _ _ _ _ _ _ _ _ _ _ _
 72
    65
 73
     2
 40
3.75
 49
3.0
 49
-0.75
  0
LTYPE
  2
AMZIGZAG
 70
     0
  3
/\/-/\/-/\/-/\/-/\/-/\/
 72
    65
 73
     2
 40
11.0001
 49
0.0001
 49
-11.0
  0
LTYPE
  2
HIDDEN2
 70
     0
  3
Hidden (.5x) _ _ _ _ _ _ _ _ _ _ _ _ _ _ _ _ _
 72
    65
 73
     2
 40
0.1875
 49
0.125
 49
-0.0625
  0
LTYPE
  2
AMZIGZAG2
 70
     0
  3
/\/-/\/-/\/-/\/-/\/-/\/
 72
    65
 73
     2
 40
0.4401
 49
0.0001
 49
-0.4400000000000001
  0
LTYPE
  2
ACANSTGB
 70
     0
  3
__ . . __ . .
 72
    65
 73
     6
 40
0.35433070866
 49
0.15748031496
 49
-0.03937007874
 49
0.03937007874
 49
-0.03937007874
 49
0.03937007874
 49
-0.03937007874
  0
LTYPE
  2
ACANSTGL
 70
     0
  3
_ _ _ _ _
 72
    65
 73
     2
 40
0.11811023622
 49
0.07874015748
 49
-0.03937007874
  0
ENDTAB
  0
TABLE
  2
LAYER
 70
    12
  0
LAYER
  2
0
 70
     0
 62
     7
  6
CONTINUOUS
  0
LAYER
  2
P_TITLE
 70
     0
 62
     4
  6
CONTINUOUS
  0
LAYER
  2
E_TEXT
 70
     0
 62
   250
  6
CONTINUOUS
  0
LAYER
  2
F_TITLE4
 70
     0
 62
     4
  6
CONTINUOUS
  0
LAYER
  2
F_TITLE2
 70
     0
 62
     6
  6
CONTINUOUS
  0
LAYER
  2
F_TITLE1
 70
     0
 62
     5
  6
CONTINUOUS
  0
LAYER
  2
ETHERNET
 70
     0
 62
     7
  6
CENTER2
  0
LAYER
  2
FIBER
 70
     0
 62
     7
  6
DASHDOT
  0
LAYER
  2
RS485
 70
     0
 62
     7
  6
DASHED2
  0
LAYER
  2
SERIAL
 70
     0
 62
     7
  6
DASHED2
  0
LAYER
  2
9
 70
     0
 62
     5
  6
CONTINUOUS
  0
LAYER
  2
TEXT
 70
     0
 62
     4
  6
CONTINUOUS
  0
ENDTAB
  0
TABLE
  2
STYLE
 70
     9
  0
STYLE
  2
STANDARD
 70
     0
 40
0.0
 41
1.0
 50
0.0
 71
     0
 42
0.1447913631942299
  3
txt
  4

  0
STYLE
  2
ANNOTATIVE
 70
     0
 40
0.0
 41
1.0
 50
0.0
 71
     0
 42
0.2
  3
txt
  4

  0
STYLE
  2
LOGO
 70
     0
 40
0.0
 41
1.0
 50
0.0
 71
     0
 42
0.125
  3
txt
  4

  0
STYLE
  2
TITLE
 70
     0
 40
0.0
 41
0.9
 50
0.0
 71
     0
 42
0.125
  3
txt
  4

  0
STYLE
  2
SIMPLEX
 70
     0
 40
0.0
 41
0.85
 50
0.0
 71
     0
 42
0.0938
  3
romans.shx
  4

  0
STYLE
  2

 70
     1
 40
0.0
 41
1.0
 50
0.0
 71
     0
 42
0.2
  3
ltypeshp.shx
  4

  0
STYLE
  2

 70
     1
 40
0.0
 41
1.0
 50
0.0
 71
     0
 42
0.1447913631942299
  3
genltshp.shx
  4

  0
STYLE
  2
ACANSTS
 70
     0
 40
1.0
 41
1.0
 50
0.0
 71
     0
 42
0.1447913631942299
  3
romans.shx
  4

  0
STYLE
  2
ACANSGDT
 70
     0
 40
0.0
 41
1.0
 50
0.0
 71
     0
 42
0.1447913631942299
  3
amgdt.shx
  4

  0
ENDTAB
  0
TABLE
  2
VIEW
 70
     0
  0
ENDTAB
  0
TABLE
  2
UCS
 70
     0
  0
ENDTAB
  0
TABLE
  2
APPID
 70
    22
  0
APPID
  2
ACAD
 70
     0
  0
APPID
  2
ACADANNOPO
 70
     0
  0
APPID
  2
ACADANNOTATIVE
 70
     0
  0
APPID
  2
ACAD_DSTYLE_DIMJAG
 70
     0
  0
APPID
  2
ACAD_DSTYLE_DIMTALN
 70
     0
  0
APPID
  2
ACAD_MLEADERVER
 70
     0
  0
APPID
  2
ACDBDYNAMICBLOCKGUID
 70
     0
  0
APPID
  2
ACDBBLOCKREPETAG
 70
     0
  0
APPID
  2
ACAD_PSEXT
 70
     0
  0
APPID
  2
ACAUTHENVIRON
 70
     0
  0
APPID
  2
ACDBDYNAMICBLOCKTRUENAME
 70
     0
  0
APPID
  2
ACAECLAYERSTANDARD
 70
     0
  0
APPID
  2
ACAD_EXEMPT_FROM_CAD_STANDARDS
 70
     0
  0
APPID
  2
MCAD_NO_VIS
 70
     0
  0
APPID
  2
ACAD_TEMP_GRAPHIC
 70
     0
  0
APPID
  2
ACATTRIBSERVICES
 70
     0
  0
APPID
  2
DESIGNERASSEMBLIES
 70
     0
  0
APPID
  2
ACAD_DSTYLE_DIMBREAK
 70
     0
  0
APPID
  2
GENIUS_GENSCREG_15
 70
     0
  0
APPID
  2
GENIUS_GENOBJ-N-SDF_13
 70
     0
  0
APPID
  2
GENIUS_GENODEF_13
 70
     0
  0
APPID
  2
ACAD_NAV_VCDISPLAY
 70
     0
  0
ENDTAB
  0
TABLE
  2
DIMSTYLE
 70
     9
  0
DIMSTYLE
  2
STANDARD
 70
     0
  3

  4

  5

  6

  7

 40
1.0
 41
0.18
 42
0.0625
 43
0.38
 44
0.18
 45
0.0
 46
0.0
 47
0.0
 48
0.0
140
0.18
141
0.09
142
0.0
143
25.399999999999999
144
1.0
145
0.0
146
1.0
147
0.09
 71
     0
 72
     0
 73
     1
 74
     1
 75
     0
 76
     0
 77
     0
 78
     0
170
     0
171
     2
172
     0
173
     0
174
     0
175
     0
176
     0
177
     0
178
     0
  0
DIMSTYLE
  2
ANNOTATIVE
 70
     0
  3

  4

  5

  6

  7

 40
0.0
 41
0.18
 42
0.0625
 43
0.38
 44
0.18
 45
0.0
 46
0.0
 47
0.0
 48
0.0
140
0.18
141
0.09
142
0.0
143
25.399999999999999
144
1.0
145
0.0
146
1.0
147
0.09
 71
     0
 72
     0
 73
     1
 74
     1
 75
     0
 76
     0
 77
     0
 78
     0
170
     0
171
     2
172
     0
173
     0
174
     0
175
     0
176
     0
177
     0
178
     0
  0
DIMSTYLE
  2
ELECT_1
 70
     0
  3

  4

  5

  6

  7

 40
1.0
 41
0.125
 42
0.0625
 43
0.38
 44
0.18
 45
0.0
 46
0.0
 47
0.0
 48
0.0
140
0.18
141
0.09
142
0.0
143
25.399999999999999
144
1.0
145
0.0
146
1.0
147
0.09
 71
     0
 72
     0
 73
     1
 74
     1
 75
     0
 76
     0
 77
     0
 78
     0
170
     0
171
     2
172
     0
173
     0
174
     0
175
     0
176
     0
177
     0
178
     0
  0
DIMSTYLE
  2
AM_ANSI
 70
     0
  3

  4
mm
  5

  6

  7

 40
1.0
 41
0.12
 42
0.05
 43
0.5
 44
0.1
 45
0.0
 46
0.0
 47
0.1
 48
0.1
140
0.12
141
0.0
142
0.0
143
25.399999999999999
144
1.0
145
0.0
146
0.71
147
0.06
 71
     0
 72
     0
 73
     1
 74
     1
 75
     0
 76
     0
 77
     0
 78
     7
170
     0
171
     2
172
     0
173
     0
174
     0
175
     0
176
   256
177
   256
178
     2
  0
DIMSTYLE
  2
AM_ANSI$3
 70
     0
  3

  4
mm
  5

  6

  7

 40
1.0
 41
0.12
 42
0.05
 43
0.5
 44
0.1
 45
0.0
 46
0.0
 47
0.1
 48
0.1
140
0.12
141
0.0
142
0.0
143
25.399999999999999
144
1.0
145
0.0
146
0.71
147
0.06
 71
     0
 72
     0
 73
     1
 74
     1
 75
     0
 76
     0
 77
     0
 78
     7
170
     0
171
     2
172
     0
173
     0
174
     0
175
     0
176
   256
177
   256
178
     2
  0
DIMSTYLE
  2
AM_ANSI$4
 70
     0
  3

  4
mm
  5

  6

  7

 40
1.0
 41
0.12
 42
0.05
 43
0.5
 44
0.1
 45
0.0
 46
0.0
 47
0.1
 48
0.1
140
0.12
141
0.0
142
0.0
143
25.399999999999999
144
1.0
145
0.0
146
0.71
147
0.06
 71
     0
 72
     0
 73
     1
 74
     1
 75
     0
 76
     0
 77
     0
 78
     7
170
     0
171
     2
172
     0
173
     0
174
     0
175
     0
176
   256
177
   256
178
     2
  0
DIMSTYLE
  2
AM_ANSI$7
 70
     0
  3

  4
mm
  5

  6

  7

 40
1.0
 41
0.12
 42
0.05
 43
0.5
 44
0.1
 45
0.0
 46
0.0
 47
0.1
 48
0.1
140
0.12
141
0.0
142
0.0
143
25.399999999999999
144
1.0
145
0.0
146
0.71
147
0.06
 71
     0
 72
     0
 73
     1
 74
     1
 75
     0
 76
     0
 77
     0
 78
     7
170
     0
171
     2
172
     0
173
     0
174
     0
175
     0
176
   256
177
   256
178
     2
  0
DIMSTYLE
  2
AM_ANSI$SF
 70
     0
  3

  4
mm
  5

  6

  7

 40
1.0
 41
0.12
 42
0.05
 43
0.5
 44
0.1
 45
0.0
 46
0.0
 47
0.1
 48
0.1
140
0.12
141
0.0
142
0.0
143
25.399999999999999
144
1.0
145
0.0
146
0.71
147
0.06
 71
     0
 72
     0
 73
     1
 74
     1
 75
     1
 76
     1
 77
     0
 78
     7
170
     0
171
     2
172
     0
173
     0
174
     0
175
     0
176
   256
177
   256
178
     2
  0
DIMSTYLE
  2
AM_ANSI$SH
 70
     0
  3

  4
mm
  5

  6
GENAXEH
  7

 40
1.0
 41
0.12
 42
0.05
 43
0.5
 44
0.1
 45
0.0
 46
0.0
 47
0.1
 48
0.1
140
0.12
141
0.0
142
0.0
143
25.399999999999999
144
1.0
145
0.0
146
0.71
147
0.06
 71
     0
 72
     0
 73
     1
 74
     1
 75
     1
 76
     1
 77
     0
 78
     7
170
     0
171
     2
172
     0
173
     1
174
     0
175
     0
176
   256
177
   256
178
     2
  0
ENDTAB
  0
ENDSEC
  0
SECTION
  2
BLOCKS
  0
BLOCK
  8
0
  2
$MODEL_SPACE
 70
     0
 10
0.0
 20
0.0
 30
0.0
  3
$MODEL_SPACE
  1

  0
ENDBLK
  5
21
  8
0
  0
BLOCK
 67
     1
  8
0
  2
$PAPER_SPACE
 70
     0
 10
0.0
 20
0.0
 30
0.0
  3
$PAPER_SPACE
  1

  0
ENDBLK
  5
60
 67
     1
  8
0
  0
BLOCK
  8
0
  2
TA_S_TBLK
 70
     2
 10
0.0
 20
0.0
 30
0.0
  3
TA_S_TBLK
  1

  0
ATTDEF
  5
2C6
  8
F_TITLE2
 62
     7
 10
19.399337999544539
 20
1.465710299384132
 30
0.0
 40
0.1250025
  1
-
  3
CAD REF. >
  2
DWG-FILE
 70
     0
1001
ACDBBLOCKREPETAG
1070
     1
1071
        0
1005
0
  0
ATTDEF
  5
2C7
  8
F_TITLE2
 62
     7
 10
19.405063960256459
 20
1.1221844479659759
 30
0.0
 40
0.1250025
  1
-
  3
PROJECT NO. >
  2
PROJ-NO
 70
     0
1001
ACDBBLOCKREPETAG
1070
     1
1071
        1
1005
0
  0
LINE
  5
2C8
  8
F_TITLE4
 62
     7
 10
20.965828199035531
 20
2.1000413279866139
 30
0.0
 11
20.965828199035531
 21
0.500009839996813
 31
0.0
1001
ACDBBLOCKREPETAG
1070
     1
1071
        2
1005
2C8
  0
TEXT
  5
2C9
  8
F_TITLE1
 62
     7
 10
18.615781951050511
 20
1.8000354239885259
 30
0.0
 40
0.0700013775995538
  1
SCALE
1001
ACDBBLOCKREPETAG
1070
     1
1071
        3
1005
2C9
  0
TEXT
  5
2CA
  8
F_TITLE1
 62
     7
 10
18.615781951050511
 20
1.450028535990757
 30
0.0
 40
0.0700013775995538
  1
CAD REF.
1001
ACDBBLOCKREPETAG
1070
     1
1071
        4
1005
2CA
  0
TEXT
  5
2CB
  8
F_TITLE1
 62
     7
 10
18.615781951050511
 20
1.1000216479929881
 30
0.0
 40
0.0700013775995538
  1
PROJ. NO.
1001
ACDBBLOCKREPETAG
1070
     1
1071
        5
1005
2CB
  0
LINE
  5
2CC
  8
F_TITLE1
 62
     7
 10
19.165792775046999
 20
1.1000216479929881
 30
0.0
 11
20.815825247036489
 21
1.1000216479929881
 31
0.0
1001
ACDBBLOCKREPETAG
1070
     1
1071
        6
1005
2CC
  0
LINE
  5
2CD
  8
F_TITLE1
 62
     7
 10
19.115791791047322
 20
1.450028535990757
 30
0.0
 11
20.815825247036489
 21
1.450028535990757
 31
0.0
1001
ACDBBLOCKREPETAG
1070
     1
1071
        7
1005
2CD
  0
LINE
  5
2CE
  8
F_TITLE1
 62
     7
 10
19.165792775046999
 20
1.8000354239885259
 30
0.0
 11
20.815825247036489
 21
1.8000354239885259
 31
0.0
1001
ACDBBLOCKREPETAG
1070
     1
1071
        8
1005
2CE
  0
TEXT
  5
2CF
  8
F_TITLE1
 62
     7
 10
6.0848946460119651
 20
0.5500108239964943
 30
0.0
 40
0.0700013775995538
  1
BY
 72
     1
 11
6.1501210319607988
 21
0.5500108239964943
 31
0.0
1001
ACDBBLOCKREPETAG
1070
     1
1071
        9
1005
2CF
  0
TEXT
  5
2D0
  8
F_TITLE1
 62
     7
 10
4.2512466915106906
 20
0.5500108239964943
 30
0.0
 40
0.0700013775995538
  1
ISSUED FOR
 72
     1
 11
4.5500895439709961
 21
0.5500108239964943
 31
0.0
1001
ACDBBLOCKREPETAG
1070
     1
1071
       10
1005
2D0
  0
TEXT
  5
2D1
  8
F_TITLE1
 62
     7
 10
2.3696441780029032
 20
0.5500108239964943
 30
0.0
 40
0.0700013775995538
  1
DATE
 72
     1
 11
2.5000491999840642
 21
0.5500108239964943
 31
0.0
1001
ACDBBLOCKREPETAG
1070
     1
1071
       11
1005
2D1
  0
TEXT
  5
2D2
  8
F_TITLE1
 62
     7
 10
1.663105716987489
 20
0.5500108239964943
 30
0.0
 40
0.0700013775995538
  1
NO.
 72
     1
 11
1.750034439988845
 21
0.5500108239964943
 31
0.0
1001
ACDBBLOCKREPETAG
1070
     1
1071
       12
1005
2D2
  0
LINE
  5
2D3
  8
F_TITLE1
 62
     7
 10
1.5000295199904381
 20
0.7000137759955382
 30
0.0
 11
6.4001259519592058
 21
0.7000137759955382
 31
0.0
1001
ACDBBLOCKREPETAG
1070
     1
1071
       13
1005
2D3
  0
LINE
  5
2D4
  8
F_TITLE1
 62
     7
 10
1.5000295199904381
 20
0.9000177119942632
 30
0.0
 11
6.4001259519592058
 21
0.9000177119942632
 31
0.0
1001
ACDBBLOCKREPETAG
1070
     1
1071
       14
1005
2D4
  0
LINE
  5
2D5
  8
F_TITLE1
 62
     7
 10
1.5000295199904381
 20
1.1000216479929881
 30
0.0
 11
6.4001259519592058
 21
1.1000216479929881
 31
0.0
1001
ACDBBLOCKREPETAG
1070
     1
1071
       15
1005
2D5
  0
LINE
  5
2D6
  8
F_TITLE1
 62
     7
 10
1.5000295199904381
 20
1.300025583991713
 30
0.0
 11
6.4001259519592058
 21
1.300025583991713
 31
0.0
1001
ACDBBLOCKREPETAG
1070
     1
1071
       16
1005
2D6
  0
LINE
  5
2D7
  8
F_TITLE1
 62
     7
 10
1.5000295199904381
 20
1.5000295199904381
 30
0.0
 11
6.4001259519592058
 21
1.5000295199904381
 31
0.0
1001
ACDBBLOCKREPETAG
1070
     1
1071
       17
1005
2D7
  0
LINE
  5
2D8
  8
F_TITLE1
 62
     7
 10
1.5000295199904381
 20
1.7000334559891641
 30
0.0
 11
6.4001259519592058
 21
1.7000334559891641
 31
0.0
1001
ACDBBLOCKREPETAG
1070
     1
1071
       18
1005
2D8
  0
LINE
  5
2D9
  8
F_TITLE1
 62
     7
 10
1.5000295199904381
 20
1.9000373919878879
 30
0.0
 11
6.4001259519592058
 21
1.9000373919878879
 31
0.0
1001
ACDBBLOCKREPETAG
1070
     1
1071
       19
1005
2D9
  0
LINE
  5
2DA
  8
F_TITLE1
 62
     7
 10
5.9001161119623919
 20
0.500009839996813
 30
0.0
 11
5.9001161119623919
 21
2.1000413279866139
 31
0.0
1001
ACDBBLOCKREPETAG
1070
     1
1071
       20
1005
2DA
  0
LINE
  5
2DB
  8
F_TITLE1
 62
     7
 10
3.0000590399808771
 20
0.500009839996813
 30
0.0
 11
3.0000590399808771
 21
2.1000413279866139
 31
0.0
1001
ACDBBLOCKREPETAG
1070
     1
1071
       21
1005
2DB
  0
LINE
  5
2DC
  8
F_TITLE1
 62
     7
 10
2.0000393599872508
 20
0.500009839996813
 30
0.0
 11
2.0000393599872508
 21
2.1000413279866139
 31
0.0
1001
ACDBBLOCKREPETAG
1070
     1
1071
       22
1005
2DC
  0
LINE
  5
2DD
  8
F_TITLE1
 62
     7
 10
7.100139727954744
 20
1.8000354239885259
 30
0.0
 11
8.7501721999442257
 21
1.8000354239885259
 31
0.0
1001
ACDBBLOCKREPETAG
1070
     1
1071
       23
1005
2DD
  0
LINE
  5
2DE
  8
F_TITLE1
 62
     7
 10
7.0501387439550616
 20
1.450028535990757
 30
0.0
 11
8.7501721999442257
 21
1.450028535990757
 31
0.0
1001
ACDBBLOCKREPETAG
1070
     1
1071
       24
1005
2DE
  0
LINE
  5
2DF
  8
F_TITLE1
 62
     7
 10
7.100139727954744
 20
1.1000216479929881
 30
0.0
 11
8.7501721999442257
 21
1.1000216479929881
 31
0.0
1001
ACDBBLOCKREPETAG
1070
     1
1071
       25
1005
2DF
  0
LINE
  5
2E0
  8
F_TITLE1
 62
     7
 10
7.3001436639534694
 20
0.7500147599952194
 30
0.0
 11
8.7501721999442257
 21
0.7500147599952194
 31
0.0
1001
ACDBBLOCKREPETAG
1070
     1
1071
       26
1005
2E0
  0
TEXT
  5
2E1
  8
F_TITLE1
 62
     7
 10
6.5501289039582486
 20
0.7500147599952197
 30
0.0
 40
0.0700013775995538
  1
PROJ. ENGR.
1001
ACDBBLOCKREPETAG
1070
     1
1071
       27
1005
2E1
  0
TEXT
  5
2E2
  8
F_TITLE1
 62
     7
 10
6.5501289039582486
 20
1.1000216479929881
 30
0.0
 40
0.0700013775995538
  1
CHECKED
1001
ACDBBLOCKREPETAG
1070
     1
1071
       28
1005
2E2
  0
TEXT
  5
2E3
  8
F_TITLE1
 62
     7
 10
6.5501289039582486
 20
1.450028535990757
 30
0.0
 40
0.0700013775995538
  1
DRAWN
1001
ACDBBLOCKREPETAG
1070
     1
1071
       29
1005
2E3
  0
TEXT
  5
2E4
  8
F_TITLE1
 62
     7
 10
6.5501289039582486
 20
1.8000354239885259
 30
0.0
 40
0.0700013775995538
  1
DESIGNED
1001
ACDBBLOCKREPETAG
1070
     1
1071
       30
1005
2E4
  0
LINE
  5
2E5
  8
F_TITLE4
 62
     7
 10
6.4001259519592058
 20
2.1000413279866139
 30
0.0
 11
6.4001259519592058
 21
0.500009839996813
 31
0.0
1001
ACDBBLOCKREPETAG
1070
     1
1071
       31
1005
2E5
  0
LINE
  5
2E6
  8
F_TITLE4
 62
     7
 10
8.9001751519432712
 20
2.1000413279866139
 30
0.0
 11
8.9001751519432712
 21
0.500009839996813
 31
0.0
1001
ACDBBLOCKREPETAG
1070
     1
1071
       32
1005
2E6
  0
LINE
  5
2E7
  8
F_TITLE4
 62
     7
 10
13.412767647913309
 20
2.1000413279866139
 30
0.0
 11
13.412767647913309
 21
0.500009839996813
 31
0.0
1001
ACDBBLOCKREPETAG
1070
     1
1071
       33
1005
2E7
  0
LINE
  5
2E8
  8
F_TITLE4
 62
     7
 10
26.300517583832359
 20
2.1000413279866139
 30
0.0
 11
26.300517583832359
 21
0.500009839996813
 31
0.0
1001
ACDBBLOCKREPETAG
1070
     1
1071
       34
1005
2E8
  0
LINE
  5
2E9
  8
F_TITLE4
 62
     7
 10
18.465778999051459
 20
2.1000413279866139
 30
0.0
 11
18.465778999051459
 21
0.500009839996813
 31
0.0
1001
ACDBBLOCKREPETAG
1070
     1
1071
       35
1005
2E9
  0
LINE
  5
2EA
  8
F_TITLE1
 62
     7
 10
33.700663215785198
 20
0.8000157439949008
 30
0.0
 11
35.300694703775001
 21
0.8000157439949008
 31
0.0
1001
ACDBBLOCKREPETAG
1070
     1
1071
       36
1005
2EA
  0
LINE
  5
2EB
  8
F_TITLE1
 62
     7
 10
35.25069371977532
 20
1.300025583991713
 30
0.0
 11
35.300694703775001
 21
1.300025583991713
 31
0.0
1001
ACDBBLOCKREPETAG
1070
     1
1071
       37
1005
2EB
  0
TEXT
  5
2EC
  8
F_TITLE1
 62
     7
 10
33.650662231785503
 20
0.8000157439949008
 30
0.0
 40
0.0700013775995538
  1
:
1001
ACDBBLOCKREPETAG
1070
     1
1071
       38
1005
2EC
  0
TEXT
  5
2ED
  8
F_TITLE1
 62
     7
 10
33.500659279786468
 20
1.300025583991713
 30
0.0
 40
0.0700013775995538
  1
:
1001
ACDBBLOCKREPETAG
1070
     1
1071
       39
1005
2ED
  0
TEXT
  5
2EE
  8
F_TITLE1
 62
     7
 10
33.450658295786781
 20
1.750034439988845
 30
0.0
 40
0.0700013775995538
  1
:
1001
ACDBBLOCKREPETAG
1070
     1
1071
       40
1005
2EE
  0
LINE
  5
2EF
  8
F_TITLE1
 62
     7
 10
34.55067994377977
 20
1.300025583991713
 30
0.0
 11
35.25069371977532
 21
1.300025583991713
 31
0.0
1001
ACDBBLOCKREPETAG
1070
     1
1071
       41
1005
2EF
  0
LINE
  5
2F0
  8
F_TITLE1
 62
     7
 10
33.550660263786149
 20
1.300025583991713
 30
0.0
 11
34.250674039781678
 21
1.300025583991713
 31
0.0
1001
ACDBBLOCKREPETAG
1070
     1
1071
       42
1005
2F0
  0
LINE
  5
2F1
  8
F_TITLE1
 62
     7
 10
33.550660263786149
 20
1.750034439988845
 30
0.0
 11
35.300694703775001
 21
1.750034439988845
 31
0.0
1001
ACDBBLOCKREPETAG
1070
     1
1071
       43
1005
2F1
  0
TEXT
  5
2F2
  8
F_TITLE1
 62
     7
 10
34.350676007781047
 20
1.300025583991713
 30
0.0
 40
0.0700013775995538
  1
OF
1001
ACDBBLOCKREPETAG
1070
     1
1071
       44
1005
2F2
  0
TEXT
  5
2F3
  8
F_TITLE1
 62
     7
 10
33.150652391788697
 20
0.8000157439949008
 30
0.0
 40
0.0700013775995538
  1
DRAWING
1001
ACDBBLOCKREPETAG
1070
     1
1071
       45
1005
2F3
  0
TEXT
  5
2F4
  8
F_TITLE1
 62
     7
 10
33.150652391788697
 20
1.300025583991713
 30
0.0
 40
0.0700013775995538
  1
SHEET
1001
ACDBBLOCKREPETAG
1070
     1
1071
       46
1005
2F4
  0
TEXT
  5
2F5
  8
F_TITLE1
 62
     7
 10
33.150652391788697
 20
1.750034439988845
 30
0.0
 40
0.0700013775995538
  1
DATE
1001
ACDBBLOCKREPETAG
1070
     1
1071
       47
1005
2F5
  0
LINE
  5
2F6
  8
F_TITLE4
 62
     7
 10
33.000649439789647
 20
0.500009839996813
 30
0.0
 11
33.000649439789647
 21
2.1000413279866139
 31
0.0
1001
ACDBBLOCKREPETAG
1070
     1
1071
       48
1005
2F6
  0
LINE
  5
2F7
  8
P_TITLE
 62
     7
 10
1.5000295199904381
 20
2.1000413279866139
 30
0.0
 11
35.500698639773709
 21
2.1000413279866139
 31
0.0
1001
ACDBBLOCKREPETAG
1070
     1
1071
       49
1005
2F7
  0
LINE
  5
2F8
  8
F_TITLE4
 62
     7
 10
26.300517583832359
 20
1.6000313279866141
 30
0.0
 11
33.000649439789647
 21
1.6000313279866141
 31
0.0
1001
ACDBBLOCKREPETAG
1070
     1
1071
       50
1005
2F8
  0
ATTDEF
  5
2F9
  8
F_TITLE2
 62
     7
 10
7.496437376621266
 20
1.8139292424339699
 30
0.0
 40
0.1250025
  1
-
 72
     1
 11
7.9524918590564644
 21
1.8139292424339699
 31
0.0
  3
Designer
  2
DESIGNER
 70
     0
1001
ACDBBLOCKREPETAG
1070
     1
1071
       51
1005
0
  0
ATTDEF
  5
2FA
  8
F_TITLE2
 62
     7
 10
7.5315040267993636
 20
1.471287749874336
 30
0.0
 40
0.1250025
  1
-
 72
     1
 11
7.9438161610080948
 21
1.471287749874336
 31
0.0
  3
Drafter
  2
DRAFTER
 70
     0
1001
ACDBBLOCKREPETAG
1070
     1
1071
       52
1005
0
  0
ATTDEF
  5
2FB
  8
F_TITLE2
 62
     7
 10
7.5082049121411751
 20
1.1156345550656031
 30
0.0
 40
0.1250025
  1
-
 72
     1
 11
7.935140462959728
 21
1.1156345550656031
 31
0.0
  3
Check by
  2
CHECKED
 70
     0
1001
ACDBBLOCKREPETAG
1070
     1
1071
       53
1005
0
  0
ATTDEF
  5
2FC
  8
F_TITLE2
 62
     7
 10
33.772582398730073
 20
1.7655960359749521
 30
0.0
 40
0.1250025
  1
-
 72
     1
 11
34.296552632358988
 21
1.7655960359749521
 31
0.0
  3
Issue Date
  2
DATE-ISSUE
 70
     0
1001
ACDBBLOCKREPETAG
1070
     1
1071
       54
1005
0
  0
ATTDEF
  5
2FD
  8
F_TITLE2
 62
     7
 10
33.630962077670063
 20
1.31013713046753
 30
0.0
 40
0.1250025
  1
-
 72
     1
 11
33.922066126101157
 21
1.31013713046753
 31
0.0
  3
Sheet No.
  2
SHEET
 70
     0
1001
ACDBBLOCKREPETAG
1070
     1
1071
       55
1005
0
  0
ATTDEF
  5
2FE
  8
F_TITLE2
 62
     7
 10
34.488274010103538
 20
1.306277309234416
 30
0.0
 40
0.1250025
  1
-
 72
     1
 11
34.929705075928922
 21
1.306277309234416
 31
0.0
  3
Sheet of
  2
SHEET-OF
 70
     0
1001
ACDBBLOCKREPETAG
1070
     1
1071
       56
1005
0
  0
ATTDEF
  5
2FF
  8
F_TITLE4
 62
     7
 10
33.913999101064611
 20
0.8160800126289715
 30
0.0
 40
0.18750375
  1
-
  7
TITLE
 72
     1
 11
34.474144171409087
 21
0.8160800126289715
 31
0.0
  3
Drawing No.
  2
DWG-NO
 70
     0
1001
ACDBBLOCKREPETAG
1070
     1
1071
       57
1005
0
  0
ATTDEF
  5
300
  8
F_TITLE4
 62
     7
 10
22.6434900810656
 20
1.4792086680914229
 30
0.0
 40
0.25
  1
-
  7
TITLE
 72
     1
 11
23.633172891433951
 21
1.4792086680914229
 31
0.0
  3
Project Name - Line 1
  2
PRJ-NAME1
 70
     0
1001
ACDBBLOCKREPETAG
1070
     1
1071
       58
1005
0
  0
ATTDEF
  5
301
  8
F_TITLE4
 62
     7
 10
22.6434900810656
 20
0.9692260441153257
 30
0.0
 40
0.25
  1
-
  7
TITLE
 72
     1
 11
23.633172891433951
 21
0.9692260441153257
 31
0.0
  3
Project Name - Line 2
  2
PRJ-NAME2
 70
     0
1001
ACDBBLOCKREPETAG
1070
     1
1071
       59
1005
0
  0
ATTDEF
  5
302
  8
F_TITLE2
 62
     7
 10
28.97386966460774
 20
1.7627040311658579
 30
0.0
 40
0.1875
  1
-
  7
TITLE
 72
     1
 11
29.650583511811011
 21
1.7627040311658579
 31
0.0
  3
Job Name
  2
JOB-NAME
 70
     0
1001
ACDBBLOCKREPETAG
1070
     1
1071
       60
1005
0
  0
ATTDEF
  5
303
  8
F_TITLE4
 62
     7
 10
28.564038491347159
 20
1.136414123925769
 30
0.0
 40
0.25
  1
-
  7
TITLE
 72
     1
 11
29.650583511811011
 21
1.136414123925769
 31
0.0
  3
Drawing Name - Line 1
  2
DWG-NAME1
 70
     0
1001
ACDBBLOCKREPETAG
1070
     1
1071
       61
1005
0
  0
ATTDEF
  5
304
  8
F_TITLE4
 62
     7
 10
28.564038491347159
 20
0.7053314605007741
 30
0.0
 40
0.25
  1
-
  7
TITLE
 72
     1
 11
29.650583511811011
 21
0.7053314605007741
 31
0.0
  3
Drawing Name - Line 2
  2
DWG-NAME2
 70
     0
1001
ACDBBLOCKREPETAG
1070
     1
1071
       62
1005
0
  0
POLYLINE
  5
305
  8
P_TITLE
 62
     7
 66
     1
 10
0.0
 20
0.0
 30
0.0
 70
     1
1001
ACDBBLOCKREPETAG
1070
     1
1071
       63
1005
305
  0
VERTEX
  5
B6A
  8
P_TITLE
 62
     7
 10
1.5000295199904381
 20
0.500009839996813
 30
0.0
  0
VERTEX
  5
B6B
  8
P_TITLE
 62
     7
 10
35.500698639773709
 20
0.500009839996813
 30
0.0
  0
VERTEX
  5
B6C
  8
P_TITLE
 62
     7
 10
35.500698639773709
 20
23.501083924574449
 30
0.0
  0
VERTEX
  5
B6D
  8
P_TITLE
 62
     7
 10
1.5000295199904381
 20
23.501083924574449
 30
0.0
  0
SEQEND
  5
B6E
  8
P_TITLE
 62
     7
  0
ATTDEF
  5
306
  8
F_TITLE2
 62
     7
 10
19.303554228463302
 20
1.8147325644249781
 30
0.0
 40
0.1250025
  1
-
 72
     1
 11
19.832342089138599
 21
1.8147325644249781
 31
0.0
  3
DRAWING SCALE ...>
  2
DWG-SCALE
 70
     0
1001
ACDBBLOCKREPETAG
1070
     1
1071
       64
1005
0
  0
TEXT
  5
307
  8
F_TITLE2
 62
     7
 10
14.81363475296976
 20
1.375
 30
0.0
 40
0.375
  1
TA&S Inc.
 41
0.84375
  7
LOGO
 72
     1
 11
15.90625
 21
1.375
 31
0.0
1001
ACDBBLOCKREPETAG
1070
     1
1071
       65
1005
307
  0
TEXT
  5
308
  8
F_TITLE1
 62
     7
 10
15.01383639308855
 20
1.0625
 30
0.0
 40
0.125
  1
6234 Java Lake Road
  7
LOGO
 72
     1
 11
15.90625
 21
1.0625
 31
0.0
1001
ACDBBLOCKREPETAG
1070
     1
1071
       66
1005
308
  0
TEXT
  5
309
  8
F_TITLE1
 62
     7
 10
15.13555165586753
 20
0.766243178717599
 30
0.0
 40
0.125
  1
Arcade, NY  14009
  7
LOGO
 72
     1
 11
15.90625
 21
0.766243178717599
 31
0.0
1001
ACDBBLOCKREPETAG
1070
     1
1071
       67
1005
309
  0
ENDBLK
  5
1B8
  8
0
  0
BLOCK
  8
0
  2
A$C328E3AF4
 70
     0
 10
0.0
 20
0.0
 30
0.0
  3
A$C328E3AF4
  1

  0
TEXT
  5
40A
  8
0
 10
0.016534762384012
 20
0.0670373379153233
 30
0.0
 40
0.2
  1
Server
  0
ENDBLK
  5
40D
  8
0
  0
BLOCK
  8
0
  2
XXXAHD
 70
     0
 10
0.0
 20
0.0
 30
0.0
  3
XXXAHD
  1

  0
SOLID
  5
42D
  8
0
  6
BYBLOCK
 62
     0
 10
-1.0
 20
0.3333
 30
0.0
 11
-1.0
 21
-0.3333
 31
0.0
 12
0.0
 22
0.0
 32
0.0
 13
0.0
 23
0.0
 33
0.0
  0
ENDBLK
  5
42E
  8
0
  0
BLOCK
  8
0
  2
A$C24C722A4
 70
     0
 10
0.0
 20
0.0
 30
0.0
  3
A$C24C722A4
  1

  0
TEXT
  5
5B8
  8
0
 10
0.1662768368879028
 20
1.2452853269894599
 30
0.0
 40
0.2
  1
SEL-2407
  0
POLYLINE
  5
5B9
  8
0
 66
     1
 10
0.0
 20
0.0
 30
0.0
 70
     1
  0
VERTEX
  5
BF5
  8
0
 10
-0.0000000000000142
 20
1.5879896409205321
 30
0.0
  0
VERTEX
  5
BF6
  8
0
 10
1.6957669864213609
 20
1.5879896409205321
 30
0.0
  0
VERTEX
  5
BF7
  8
0
 10
1.6957669864213609
 20
1.0079481060336439
 30
0.0
  0
VERTEX
  5
BF8
  8
0
 10
-0.0000000000000142
 20
1.0079481060336439
 30
0.0
  0
SEQEND
  5
BF9
  8
0
  0
LINE
  5
5BA
  8
0
 10
1.6957669864213609
 20
1.297968873477088
 30
0.0
 11
2.844148188447789
 21
1.297968873477088
 31
0.0
  0
LINE
  5
5BB
  8
0
 10
2.844148188447789
 20
1.297968873477088
 30
0.0
 11
2.844148188447789
 21
-0.0000000000000142
 31
0.0
  0
ENDBLK
  5
5BE
  8
0
  0
BLOCK
  8
0
  2
GENAXEH
 70
     0
 10
0.0
 20
0.0
 30
0.0
  3
GENAXEH
  1

  0
LINE
  5
B19
  8
0
 10
-1.0
 20
0.0
 30
0.0
 11
1.0
 21
0.0
 31
0.0
  0
ENDBLK
  5
B1B
  8
0
  0
BLOCK
  8
0
  2
*U7
 70
     1
 10
0.0
 20
0.0
 30
0.0
  3
*U7
  1

  0
LINE
  5
BAC
  8
0
  6
BYBLOCK
 10
6.8944294571722926
 20
15.58468411148476
 30
0.0
 11
7.2544294571722929
 21
15.58468411148476
 31
0.0
  0
POLYLINE
  5
BAD
  8
0
  6
BYBLOCK
 66
     1
 10
0.0
 20
0.0
 30
0.0
  0
VERTEX
  5
BAE
  8
0
  6
BYBLOCK
 10
6.8944294571722926
 20
16.67811654949266
 30
0.0
  0
VERTEX
  5
BAF
  8
0
  6
BYBLOCK
 10
6.8944294571722926
 20
15.58468411148476
 30
0.0
  0
SEQEND
  5
BB0
  8
0
  6
BYBLOCK
  0
SOLID
  5
BB1
  8
0
 10
6.8644294571722932
 20
16.67811654949266
 30
0.0
 11
6.8944294571722926
 21
16.85811654949266
 31
0.0
 12
6.9244294571722929
 22
16.67811654949266
 32
0.0
 13
6.9244294571722929
 23
16.67811654949266
 33
0.0
  0
ENDBLK
  5
BB3
  8
0
  0
BLOCK
  8
0
  2
*U8
 70
     1
 10
0.0
 20
0.0
 30
0.0
  3
*U8
  1

  0
TEXT
  5
BB5
  8
0
 10
6.4228115113577351
 20
17.652447199594281
 30
0.0
 40
0.2
  1
event
  0
TEXT
  5
BB6
  8
0
 10
6.4228115113577351
 20
17.319113866260949
 30
0.0
 40
0.2
  1
email
  0
TEXT
  5
BB7
  8
0
 10
6.4146259724764256
 20
16.98578053292761
 30
0.0
 40
0.2
  1
messaging
  0
ENDBLK
  5
BB9
  8
0
  0
BLOCK
  8
0
  2
*U9
 70
     1
 10
0.0
 20
0.0
 30
0.0
  3
*U9
  1

  0
TEXT
  5
C14
  8
SERIAL
 10
29.603051931632731
 20
3.678739296705448
 30
0.0
 40
0.2
  1
NOTES:
  0
TEXT
  5
C15
  8
SERIAL
 10
29.59391141321527
 20
3.3419953221715688
 30
0.0
 40
0.2
  1
1.  fiber is 8.3/125 single-mode with 10db loss margin
  0
TEXT
  5
C16
  8
SERIAL
 10
29.616148793842822
 20
3.0052513476376901
 30
0.0
 40
0.2
  1
2.  workstations are Dell, with Windows XP Professional, SP3
  0
TEXT
  5
C17
  8
SERIAL
 10
29.61260172699426
 20
2.66850737310381
 30
0.0
 40
0.2
  1
3.  SIM-9450 is CGA status input module
  0
TEXT
  5
C18
  8
SERIAL
 10
29.62078726587556
 20
2.3316269729219101
 30
0.0
 40
0.2
  1
4.  COM-9460 is CGA control output module
  0
TEXT
  5
C19
  8
SERIAL
 10
29.612738152642279
 20
1.9947465727400091
 30
0.0
 40
0.2
  1
5.  ROP-9470 is CGA relay output module
  0
TEXT
  5
C1A
  8
SERIAL
 10
29.613829557826449
 20
1.6578661725581081
 30
0.0
 40
0.2
  1
6.  ePAQ-9410 and ePAQ-9420 are CGA multifunction
  0
TEXT
  5
C1B
  8
SERIAL
 10
29.615330239954691
 20
1.324532839224775
 30
0.0
 40
0.2
  1
gateways
  0
ENDBLK
  5
C1D
  8
0
  0
BLOCK
  8
0
  2
*U10
 70
     1
 10
0.0
 20
0.0
 30
0.0
  3
*U10
  1

  0
TEXT
  5
C1F
  8
SERIAL
 10
23.7382844145774
 20
4.7631866027066261
 30
0.0
 40
0.1447913631942299
  1
17 analog
  0
TEXT
  5
C20
  8
SERIAL
 10
23.751815394630341
 20
4.5212750663830237
 30
0.0
 40
0.1447913631942299
  1
35 status
  0
TEXT
  5
C21
  8
SERIAL
 10
23.75438331785206
 20
4.2793635300594222
 30
0.0
 40
0.1447913631942299
  1
2 outputs
  0
ENDBLK
  5
C23
  8
0
  0
BLOCK
  8
0
  2
*U11
 70
     1
 10
0.0
 20
0.0
 30
0.0
  3
*U11
  1

  0
TEXT
  5
C25
  8
SERIAL
 10
23.734514305009249
 20
9.0765629950268494
 30
0.0
 40
0.1447913631942299
  1
83 analog
  0
TEXT
  5
C26
  8
SERIAL
 10
23.720687026123031
 20
8.8346514587032452
 30
0.0
 40
0.1447913631942299
  1
176 status
  0
TEXT
  5
C27
  8
SERIAL
 10
23.740143982841492
 20
8.5927399223796446
 30
0.0
 40
0.1447913631942299
  1
40 outputs
  0
ENDBLK
  5
C29
  8
0
  0
BLOCK
  8
0
  2
*U12
 70
     1
 10
0.0
 20
0.0
 30
0.0
  3
*U12
  1

  0
TEXT
  5
C2B
  8
SERIAL
 10
23.68879539441302
 20
11.62244155281282
 30
0.0
 40
0.1447913631942299
  1
12 analog
  0
TEXT
  5
C2C
  8
SERIAL
 10
23.702622673299238
 20
11.38053001648921
 30
0.0
 40
0.1447913631942299
  1
8 status
  0
TEXT
  5
C2D
  8
SERIAL
 10
23.68879539441302
 20
11.13861848016561
 30
0.0
 40
0.1447913631942299
  1
1 outputs
  0
ENDBLK
  5
C2F
  8
0
  0
BLOCK
  8
0
  2
*U13
 70
     1
 10
0.0
 20
0.0
 30
0.0
  3
*U13
  1

  0
TEXT
  5
C31
  8
SERIAL
 10
23.704326387389251
 20
14.047988288793761
 30
0.0
 40
0.1447913631942299
  1
87 analog
  0
TEXT
  5
C32
  8
SERIAL
 10
23.69049910850304
 20
13.80607675247016
 30
0.0
 40
0.1447913631942299
  1
158 status
  0
TEXT
  5
C33
  8
SERIAL
 10
23.709956065221501
 20
13.56416521614655
 30
0.0
 40
0.1447913631942299
  1
40 outputs
  0
ENDBLK
  5
C35
  8
0
  0
BLOCK
  8
0
  2
*U14
 70
     1
 10
0.0
 20
0.0
 30
0.0
  3
*U14
  1

  0
TEXT
  5
C37
  8
SERIAL
 10
23.731796201920201
 20
19.151942102657681
 30
0.0
 40
0.1447913631942299
  1
88 analog
  0
TEXT
  5
C38
  8
SERIAL
 10
23.717968923033979
 20
18.910030566334079
 30
0.0
 40
0.1447913631942299
  1
104 status
  0
TEXT
  5
C39
  8
SERIAL
 10
23.731499903086931
 20
18.66811903001048
 30
0.0
 40
0.1447913631942299
  1
34 outputs
  0
ENDBLK
  5
C3B
  8
0
  0
ENDSEC
  0
SECTION
  2
ENTITIES
  0
INSERT
  5
1E7
  8
E_TEXT
 66
     1
  2
TA_S_TBLK
 10
3.4252591913393502
 20
-1.642607023793232
 30
0.0
  0
ATTRIB
  5
1E8
  8
F_TITLE2
 10
22.824597190883889
 20
-0.1768967244091
 30
0.0
 40
0.1250025
  1

  2
DWG-FILE
 70
     0
1001
ACDBBLOCKREPETAG
1070
     1
1071
        0
1005
0
  0
ATTRIB
  5
1E9
  8
F_TITLE2
 10
22.83032315159581
 20
-0.5204225758272562
 30
0.0
 40
0.1250025
  1
VoA Scada
  2
PROJ-NO
 70
     0
1001
ACDBBLOCKREPETAG
1070
     1
1071
        1
1005
0
  0
ATTRIB
  5
1EA
  8
F_TITLE2
 10
11.22252113821982
 20
0.1713222186407379
 30
0.0
 40
0.1250025
  1
JPT
 72
     1
 11
11.37775105039581
 21
0.1713222186407379
 31
0.0
  2
DESIGNER
 70
     0
1001
ACDBBLOCKREPETAG
1070
     1
1071
       51
1005
0
  0
ATTRIB
  5
1EB
  8
F_TITLE2
 10
11.369075352347441
 20
-0.1713192739188956
 30
0.0
 40
0.1250025
  1

 72
     1
 11
11.369075352347441
 21
-0.1713192739188956
 31
0.0
  2
DRAFTER
 70
     0
1001
ACDBBLOCKREPETAG
1070
     1
1071
       52
1005
0
  0
ATTRIB
  5
1EC
  8
F_TITLE2
 10
11.36039965429908
 20
-0.5269724687276288
 30
0.0
 40
0.1250025
  1

 72
     1
 11
11.36039965429908
 21
-0.5269724687276288
 31
0.0
  2
CHECKED
 70
     0
1001
ACDBBLOCKREPETAG
1070
     1
1071
       53
1005
0
  0
ATTRIB
  5
1ED
  8
F_TITLE2
 10
37.430494605928899
 20
0.1229890121817199
 30
0.0
 40
0.1250025
  1
10/8/12
 72
     1
 11
37.721811823698339
 21
0.1229890121817199
 31
0.0
  2
DATE-ISSUE
 70
     0
1001
ACDBBLOCKREPETAG
1070
     1
1071
       54
1005
0
  0
ATTRIB
  5
1EE
  8
F_TITLE2
 10
37.298765342167663
 20
-0.3324698933257018
 30
0.0
 40
0.1250025
  1
1
 72
     1
 11
37.347325317440507
 21
-0.3324698933257018
 31
0.0
  2
SHEET
 70
     0
1001
ACDBBLOCKREPETAG
1070
     1
1071
       55
1005
0
  0
ATTRIB
  5
1EF
  8
F_TITLE2
 10
38.30640429199542
 20
-0.3363297145588155
 30
0.0
 40
0.1250025
  1
1
 72
     1
 11
38.354964267268272
 21
-0.3363297145588155
 31
0.0
  2
SHEET-OF
 70
     0
1001
ACDBBLOCKREPETAG
1070
     1
1071
       56
1005
0
  0
ATTRIB
  5
1F0
  8
F_TITLE4
 10
37.448038605756622
 20
-0.8265270111642608
 30
0.0
 40
0.18750375
  1
VoA-S1
  7
TITLE
 72
     1
 11
37.899403362748437
 21
-0.8265270111642608
 31
0.0
  2
DWG-NO
 70
     0
1001
ACDBBLOCKREPETAG
1070
     1
1071
       57
1005
0
  0
ATTRIB
  5
1F1
  8
F_TITLE4
 10
25.447159913605489
 20
-0.1633983557018084
 30
0.0
 40
0.25
  1
Village of Arcade NY
  7
TITLE
 72
     1
 11
27.058432082773301
 21
-0.1633983557018084
 31
0.0
  2
PRJ-NAME1
 70
     0
1001
ACDBBLOCKREPETAG
1070
     1
1071
       58
1005
0
  0
ATTRIB
  5
1F2
  8
F_TITLE4
 10
25.990475056852429
 20
-0.6733809796779066
 30
0.0
 40
0.25
  1
Scada Layout
  7
TITLE
 72
     1
 11
27.058432082773301
 21
-0.6733809796779066
 31
0.0
  2
PRJ-NAME2
 70
     0
1001
ACDBBLOCKREPETAG
1070
     1
1071
       59
1005
0
  0
ATTRIB
  5
1F3
  8
F_TITLE2
 10
32.274874933709711
 20
0.1200970073726262
 30
0.0
 40
0.1875
  1
Scada Layout
  7
TITLE
 72
     1
 11
33.075842703150357
 21
0.1200970073726262
 31
0.0
  2
JOB-NAME
 70
     0
1001
ACDBBLOCKREPETAG
1070
     1
1071
       60
1005
0
  0
ATTRIB
  5
1F4
  8
F_TITLE4
 10
32.580702866861138
 20
-0.5061928998674623
 30
0.0
 40
0.25
  1
Scada
  7
TITLE
 72
     1
 11
33.075842703150357
 21
-0.5061928998674623
 31
0.0
  2
DWG-NAME1
 70
     0
1001
ACDBBLOCKREPETAG
1070
     1
1071
       61
1005
0
  0
ATTRIB
  5
1F5
  8
F_TITLE4
 10
32.551541884596467
 20
-0.9372755632924581
 30
0.0
 40
0.25
  1
Layout
  7
TITLE
 72
     1
 11
33.075842703150357
 21
-0.9372755632924581
 31
0.0
  2
DWG-NAME2
 70
     0
1001
ACDBBLOCKREPETAG
1070
     1
1071
       62
1005
0
  0
ATTRIB
  5
1F6
  8
F_TITLE2
 10
23.063361379386549
 20
0.1721255406317466
 30
0.0
 40
0.1250025
  1
none
 72
     1
 11
23.25760128047796
 21
0.1721255406317466
 31
0.0
  2
DWG-SCALE
 70
     0
1001
ACDBBLOCKREPETAG
1070
     1
1071
       64
1005
0
  0
SEQEND
  5
1F7
  8
E_TEXT
  0
TEXT
  5
369
  8
0
 10
6.5702057955878814
 20
14.873006821482869
 30
0.0
 40
0.2
  1
Server
  0
POLYLINE
  5
36A
  8
0
 66
     1
 10
0.0
 20
0.0
 30
0.0
 70
     1
  0
VERTEX
  5
B6F
  8
0
 10
6.2843256840532709
 20
15.59271619750484
 30
0.0
  0
VERTEX
  5
B70
  8
0
 10
7.7303130274083571
 20
15.59271619750484
 30
0.0
  0
VERTEX
  5
B71
  8
0
 10
7.7303130274083571
 20
14.766991231130559
 30
0.0
  0
VERTEX
  5
B72
  8
0
 10
6.2843256840532709
 20
14.766991231130559
 30
0.0
  0
SEQEND
  5
B73
  8
0
  0
POLYLINE
  5
36B
  8
0
 66
     1
 10
0.0
 20
0.0
 30
0.0
 70
     1
  0
VERTEX
  5
B74
  8
0
 10
10.62228747086907
 20
19.33796856108853
 30
0.0
  0
VERTEX
  5
B75
  8
0
 10
11.18297644818786
 20
19.33796856108853
 30
0.0
  0
VERTEX
  5
B76
  8
0
 10
11.18297644818786
 20
6.2148401515303533
 30
0.0
  0
VERTEX
  5
B77
  8
0
 10
10.62228747086907
 20
6.2148401515303533
 30
0.0
  0
SEQEND
  5
B78
  8
0
  0
POLYLINE
  5
373
  8
0
 66
     1
 10
0.0
 20
0.0
 30
0.0
 70
     1
  0
VERTEX
  5
B79
  8
0
 10
12.49481790127011
 20
21.280868513411761
 30
0.0
  0
VERTEX
  5
B7A
  8
0
 10
15.06218307763805
 20
21.280868513411761
 30
0.0
  0
VERTEX
  5
B7B
  8
0
 10
15.06218307763805
 20
20.632084615373731
 30
0.0
  0
VERTEX
  5
B7C
  8
0
 10
12.49481790127011
 20
20.632084615373731
 30
0.0
  0
SEQEND
  5
B7D
  8
0
  0
TEXT
  5
37A
  8
0
 10
12.73635349735525
 20
17.626558478204629
 30
0.0
 40
0.2
  1
local workstation
  0
TEXT
  5
381
  8
0
 10
13.39125804187314
 20
20.68162766556906
 30
0.0
 40
0.2
  1
printer
  0
TEXT
  5
388
  8
0
 10
8.487983942220481
 20
19.549131102498691
 30
0.0
 40
0.2
  1
19-port Ethernet Switch
  0
TEXT
  5
38F
  8
0
 10
15.12433393017869
 20
15.86618482020226
 30
0.0
 40
0.2
  1
DMAC
  0
POLYLINE
  5
390
  8
0
 66
     1
 10
0.0
 20
0.0
 30
0.0
 70
     1
  0
VERTEX
  5
B7E
  8
0
 10
14.996245073804531
 20
16.235017844005451
 30
0.0
  0
VERTEX
  5
B7F
  8
0
 10
16.261668686414691
 20
16.235017844005451
 30
0.0
  0
VERTEX
  5
B80
  8
0
 10
16.261668686414691
 20
15.633324463778649
 30
0.0
  0
VERTEX
  5
B81
  8
0
 10
14.996245073804531
 20
15.633324463778649
 30
0.0
  0
SEQEND
  5
B82
  8
0
  0
TEXT
  5
398
  8
0
 10
15.17484979479047
 20
14.012926847498621
 30
0.0
 40
0.2
  1
DMAC
  0
POLYLINE
  5
399
  8
0
 66
     1
 10
0.0
 20
0.0
 30
0.0
 70
     1
  0
VERTEX
  5
B83
  8
0
 10
15.046760938416311
 20
14.38175987130181
 30
0.0
  0
VERTEX
  5
B84
  8
0
 10
16.312184551026469
 20
14.38175987130181
 30
0.0
  0
VERTEX
  5
B85
  8
0
 10
16.312184551026469
 20
13.780066491075001
 30
0.0
  0
VERTEX
  5
B86
  8
0
 10
15.046760938416311
 20
13.780066491075001
 30
0.0
  0
SEQEND
  5
B87
  8
0
  0
TEXT
  5
3A1
  8
0
 10
15.14874061089813
 20
12.13432959350734
 30
0.0
 40
0.2
  1
DMAC
  0
POLYLINE
  5
3A2
  8
0
 66
     1
 10
0.0
 20
0.0
 30
0.0
 70
     1
  0
VERTEX
  5
B88
  8
0
 10
15.02065175452397
 20
12.503162617310529
 30
0.0
  0
VERTEX
  5
B89
  8
0
 10
16.286075367134131
 20
12.503162617310529
 30
0.0
  0
VERTEX
  5
B8A
  8
0
 10
16.286075367134131
 20
11.901469237083729
 30
0.0
  0
VERTEX
  5
B8B
  8
0
 10
15.02065175452397
 20
11.901469237083729
 30
0.0
  0
SEQEND
  5
B8C
  8
0
  0
TEXT
  5
3AA
  8
0
 10
15.096522364738201
 20
10.25573233951606
 30
0.0
 40
0.2
  1
DMAC
  0
POLYLINE
  5
3AB
  8
0
 66
     1
 10
0.0
 20
0.0
 30
0.0
 70
     1
  0
VERTEX
  5
B8D
  8
0
 10
14.96843350836404
 20
10.624565363319251
 30
0.0
  0
VERTEX
  5
B8E
  8
0
 10
16.233857120974211
 20
10.624565363319251
 30
0.0
  0
VERTEX
  5
B8F
  8
0
 10
16.233857120974211
 20
10.02287198309245
 30
0.0
  0
VERTEX
  5
B90
  8
0
 10
14.96843350836404
 20
10.02287198309245
 30
0.0
  0
SEQEND
  5
B91
  8
0
  0
TEXT
  5
3B3
  8
0
 10
15.12263154863054
 20
8.3510435177809725
 30
0.0
 40
0.2
  1
DMAC
  0
POLYLINE
  5
3B4
  8
0
 66
     1
 10
0.0
 20
0.0
 30
0.0
 70
     1
  0
VERTEX
  5
B92
  8
0
 10
14.99454269225637
 20
8.7198765415841635
 30
0.0
  0
VERTEX
  5
B93
  8
0
 10
16.259966304866531
 20
8.7198765415841635
 30
0.0
  0
VERTEX
  5
B94
  8
0
 10
16.259966304866531
 20
8.1181831613573578
 30
0.0
  0
VERTEX
  5
B95
  8
0
 10
14.99454269225637
 20
8.1181831613573578
 30
0.0
  0
SEQEND
  5
B96
  8
0
  0
TEXT
  5
3D3
  8
0
 10
18.279314829290001
 20
19.652718154467362
 30
0.0
 40
0.2
  1
DMAC
  0
POLYLINE
  5
3D4
  8
0
 66
     1
 10
0.0
 20
0.0
 30
0.0
 70
     1
  0
VERTEX
  5
B97
  8
0
 10
18.151225972915839
 20
20.02155117827056
 30
0.0
  0
VERTEX
  5
B98
  8
0
 10
19.416649585525999
 20
20.02155117827056
 30
0.0
  0
VERTEX
  5
B99
  8
0
 10
19.416649585525999
 20
19.419857798043751
 30
0.0
  0
VERTEX
  5
B9A
  8
0
 10
18.151225972915839
 20
19.419857798043751
 30
0.0
  0
SEQEND
  5
B9B
  8
0
  0
TEXT
  5
3DD
  8
0
 10
20.646316009765101
 20
19.818237989556209
 30
0.0
 40
0.2
  1
4-port
  0
TEXT
  5
3DE
  8
0
 10
20.825639168116581
 20
19.530466019623962
 30
0.0
 40
0.2
  1
hub
  0
POLYLINE
  5
3DF
  8
0
 66
     1
 10
0.0
 20
0.0
 30
0.0
 70
     1
  0
VERTEX
  5
B9C
  8
0
 10
20.48786937392525
 20
20.168106012305952
 30
0.0
  0
VERTEX
  5
B9D
  8
0
 10
21.619849479161811
 20
20.168106012305952
 30
0.0
  0
VERTEX
  5
B9E
  8
0
 10
21.619849479161811
 20
19.255415718107528
 30
0.0
  0
VERTEX
  5
B9F
  8
0
 10
20.48786937392525
 20
19.255415718107528
 30
0.0
  0
SEQEND
  5
BA0
  8
0
  0
POLYLINE
  5
3E9
  8
0
 66
     1
 10
0.0
 20
0.0
 30
0.0
 70
     1
  0
VERTEX
  5
BA1
  8
0
 10
23.680184934343199
 20
20.022530175671161
 30
0.0
  0
VERTEX
  5
BA2
  8
0
 10
26.214276621246629
 20
20.022530175671161
 30
0.0
  0
VERTEX
  5
BA3
  8
0
 10
26.214276621246629
 20
19.354080931518439
 30
0.0
  0
VERTEX
  5
BA4
  8
0
 10
23.680184934343199
 20
19.354080931518439
 30
0.0
  0
SEQEND
  5
BA5
  8
0
  0
TEXT
  5
3F0
  8
0
 10
6.208222405702827
 20
4.2414910824192651
 30
0.0
 40
0.2
  1
DMAC: digital media converter
  0
TEXT
  5
3F7
  8
0
 10
22.31293818029728
 20
21.267815502660628
 30
0.0
 40
0.2
  1
SEL-2407
  0
POLYLINE
  5
3F8
  8
0
 66
     1
 10
0.0
 20
0.0
 30
0.0
 70
     1
  0
VERTEX
  5
BA6
  8
0
 10
22.14666134340936
 20
21.610519816591701
 30
0.0
  0
VERTEX
  5
BA7
  8
0
 10
23.842428329830739
 20
21.610519816591701
 30
0.0
  0
VERTEX
  5
BA8
  8
0
 10
23.842428329830739
 20
21.03047828170482
 30
0.0
  0
VERTEX
  5
BA9
  8
0
 10
22.14666134340936
 20
21.03047828170482
 30
0.0
  0
SEQEND
  5
BAA
  8
0
  0
TEXT
  5
3FF
  8
0
 10
18.939315153822061
 20
21.146947934225089
 30
0.0
 40
0.2
  1
workstation
  0
POLYLINE
  5
406
  8
0
 10
20.610228245338643
 20
21.223825460000445
 30
0.0
 66
     1
 70
     8
  0
VERTEX
  8
0
  5
CA5
 10
20.6102
 20
21.2238
 30
0.000000
  70
    32
  0
VERTEX
  8
0
  5
CA6
 10
20.6086
 20
21.2411
 30
0.000000
  70
    32
  0
VERTEX
  8
0
  5
CA7
 10
20.6045
 20
21.2583
 30
0.000000
  70
    32
  0
VERTEX
  8
0
  5
CA8
 10
20.5980
 20
21.2754
 30
0.000000
  70
    32
  0
VERTEX
  8
0
  5
CA9
 10
20.5890
 20
21.2923
 30
0.000000
  70
    32
  0
VERTEX
  8
0
  5
CAA
 10
20.5776
 20
21.3089
 30
0.000000
  70
    32
  0
VERTEX
  8
0
  5
CAB
 10
20.5638
 20
21.3253
 30
0.000000
  70
    32
  0
VERTEX
  8
0
  5
CAC
 10
20.5477
 20
21.3414
 30
0.000000
  70
    32
  0
VERTEX
  8
0
  5
CAD
 10
20.5293
 20
21.3572
 30
0.000000
  70
    32
  0
VERTEX
  8
0
  5
CAE
 10
20.5085
 20
21.3726
 30
0.000000
  70
    32
  0
VERTEX
  8
0
  5
CAF
 10
20.4856
 20
21.3876
 30
0.000000
  70
    32
  0
VERTEX
  8
0
  5
CB0
 10
20.4605
 20
21.4021
 30
0.000000
  70
    32
  0
VERTEX
  8
0
  5
CB1
 10
20.4332
 20
21.4161
 30
0.000000
  70
    32
  0
VERTEX
  8
0
  5
CB2
 10
20.4040
 20
21.4297
 30
0.000000
  70
    32
  0
VERTEX
  8
0
  5
CB3
 10
20.3728
 20
21.4426
 30
0.000000
  70
    32
  0
VERTEX
  8
0
  5
CB4
 10
20.3396
 20
21.4550
 30
0.000000
  70
    32
  0
VERTEX
  8
0
  5
CB5
 10
20.3047
 20
21.4668
 30
0.000000
  70
    32
  0
VERTEX
  8
0
  5
CB6
 10
20.2680
 20
21.4779
 30
0.000000
  70
    32
  0
VERTEX
  8
0
  5
CB7
 10
20.2297
 20
21.4884
 30
0.000000
  70
    32
  0
VERTEX
  8
0
  5
CB8
 10
20.1898
 20
21.4982
 30
0.000000
  70
    32
  0
VERTEX
  8
0
  5
CB9
 10
20.1485
 20
21.5073
 30
0.000000
  70
    32
  0
VERTEX
  8
0
  5
CBA
 10
20.1058
 20
21.5156
 30
0.000000
  70
    32
  0
VERTEX
  8
0
  5
CBB
 10
20.0619
 20
21.5232
 30
0.000000
  70
    32
  0
VERTEX
  8
0
  5
CBC
 10
20.0168
 20
21.5300
 30
0.000000
  70
    32
  0
VERTEX
  8
0
  5
CBD
 10
19.9707
 20
21.5360
 30
0.000000
  70
    32
  0
VERTEX
  8
0
  5
CBE
 10
19.9236
 20
21.5412
 30
0.000000
  70
    32
  0
VERTEX
  8
0
  5
CBF
 10
19.8758
 20
21.5455
 30
0.000000
  70
    32
  0
VERTEX
  8
0
  5
CC0
 10
19.8272
 20
21.5491
 30
0.000000
  70
    32
  0
VERTEX
  8
0
  5
CC1
 10
19.7781
 20
21.5518
 30
0.000000
  70
    32
  0
VERTEX
  8
0
  5
CC2
 10
19.7285
 20
21.5536
 30
0.000000
  70
    32
  0
VERTEX
  8
0
  5
CC3
 10
19.6785
 20
21.5547
 30
0.000000
  70
    32
  0
VERTEX
  8
0
  5
CC4
 10
19.6284
 20
21.5548
 30
0.000000
  70
    32
  0
VERTEX
  8
0
  5
CC5
 10
19.5781
 20
21.5541
 30
0.000000
  70
    32
  0
VERTEX
  8
0
  5
CC6
 10
19.5278
 20
21.5526
 30
0.000000
  70
    32
  0
VERTEX
  8
0
  5
CC7
 10
19.4777
 20
21.5502
 30
0.000000
  70
    32
  0
VERTEX
  8
0
  5
CC8
 10
19.4279
 20
21.5470
 30
0.000000
  70
    32
  0
VERTEX
  8
0
  5
CC9
 10
19.3784
 20
21.5429
 30
0.000000
  70
    32
  0
VERTEX
  8
0
  5
CCA
 10
19.3295
 20
21.5380
 30
0.000000
  70
    32
  0
VERTEX
  8
0
  5
CCB
 10
19.2811
 20
21.5323
 30
0.000000
  70
    32
  0
VERTEX
  8
0
  5
CCC
 10
19.2335
 20
21.5258
 30
0.000000
  70
    32
  0
VERTEX
  8
0
  5
CCD
 10
19.1867
 20
21.5186
 30
0.000000
  70
    32
  0
VERTEX
  8
0
  5
CCE
 10
19.1409
 20
21.5105
 30
0.000000
  70
    32
  0
VERTEX
  8
0
  5
CCF
 10
19.0962
 20
21.5017
 30
0.000000
  70
    32
  0
VERTEX
  8
0
  5
CD0
 10
19.0526
 20
21.4922
 30
0.000000
  70
    32
  0
VERTEX
  8
0
  5
CD1
 10
19.0104
 20
21.4820
 30
0.000000
  70
    32
  0
VERTEX
  8
0
  5
CD2
 10
18.9695
 20
21.4711
 30
0.000000
  70
    32
  0
VERTEX
  8
0
  5
CD3
 10
18.9301
 20
21.4596
 30
0.000000
  70
    32
  0
VERTEX
  8
0
  5
CD4
 10
18.8923
 20
21.4474
 30
0.000000
  70
    32
  0
VERTEX
  8
0
  5
CD5
 10
18.8561
 20
21.4346
 30
0.000000
  70
    32
  0
VERTEX
  8
0
  5
CD6
 10
18.8217
 20
21.4213
 30
0.000000
  70
    32
  0
VERTEX
  8
0
  5
CD7
 10
18.7892
 20
21.4075
 30
0.000000
  70
    32
  0
VERTEX
  8
0
  5
CD8
 10
18.7586
 20
21.3931
 30
0.000000
  70
    32
  0
VERTEX
  8
0
  5
CD9
 10
18.7299
 20
21.3783
 30
0.000000
  70
    32
  0
VERTEX
  8
0
  5
CDA
 10
18.7033
 20
21.3631
 30
0.000000
  70
    32
  0
VERTEX
  8
0
  5
CDB
 10
18.6789
 20
21.3474
 30
0.000000
  70
    32
  0
VERTEX
  8
0
  5
CDC
 10
18.6566
 20
21.3315
 30
0.000000
  70
    32
  0
VERTEX
  8
0
  5
CDD
 10
18.6366
 20
21.3152
 30
0.000000
  70
    32
  0
VERTEX
  8
0
  5
CDE
 10
18.6189
 20
21.2986
 30
0.000000
  70
    32
  0
VERTEX
  8
0
  5
CDF
 10
18.6035
 20
21.2818
 30
0.000000
  70
    32
  0
VERTEX
  8
0
  5
CE0
 10
18.5904
 20
21.2648
 30
0.000000
  70
    32
  0
VERTEX
  8
0
  5
CE1
 10
18.5798
 20
21.2476
 30
0.000000
  70
    32
  0
VERTEX
  8
0
  5
CE2
 10
18.5716
 20
21.2304
 30
0.000000
  70
    32
  0
VERTEX
  8
0
  5
CE3
 10
18.5658
 20
21.2130
 30
0.000000
  70
    32
  0
VERTEX
  8
0
  5
CE4
 10
18.5625
 20
21.1957
 30
0.000000
  70
    32
  0
VERTEX
  8
0
  5
CE5
 10
18.5617
 20
21.1783
 30
0.000000
  70
    32
  0
VERTEX
  8
0
  5
CE6
 10
18.5633
 20
21.1610
 30
0.000000
  70
    32
  0
VERTEX
  8
0
  5
CE7
 10
18.5674
 20
21.1438
 30
0.000000
  70
    32
  0
VERTEX
  8
0
  5
CE8
 10
18.5739
 20
21.1268
 30
0.000000
  70
    32
  0
VERTEX
  8
0
  5
CE9
 10
18.5829
 20
21.1099
 30
0.000000
  70
    32
  0
VERTEX
  8
0
  5
CEA
 10
18.5943
 20
21.0932
 30
0.000000
  70
    32
  0
VERTEX
  8
0
  5
CEB
 10
18.6080
 20
21.0768
 30
0.000000
  70
    32
  0
VERTEX
  8
0
  5
CEC
 10
18.6242
 20
21.0607
 30
0.000000
  70
    32
  0
VERTEX
  8
0
  5
CED
 10
18.6426
 20
21.0450
 30
0.000000
  70
    32
  0
VERTEX
  8
0
  5
CEE
 10
18.6633
 20
21.0296
 30
0.000000
  70
    32
  0
VERTEX
  8
0
  5
CEF
 10
18.6863
 20
21.0146
 30
0.000000
  70
    32
  0
VERTEX
  8
0
  5
CF0
 10
18.7114
 20
21.0001
 30
0.000000
  70
    32
  0
VERTEX
  8
0
  5
CF1
 10
18.7386
 20
20.9860
 30
0.000000
  70
    32
  0
VERTEX
  8
0
  5
CF2
 10
18.7679
 20
20.9725
 30
0.000000
  70
    32
  0
VERTEX
  8
0
  5
CF3
 10
18.7991
 20
20.9595
 30
0.000000
  70
    32
  0
VERTEX
  8
0
  5
CF4
 10
18.8323
 20
20.9471
 30
0.000000
  70
    32
  0
VERTEX
  8
0
  5
CF5
 10
18.8672
 20
20.9353
 30
0.000000
  70
    32
  0
VERTEX
  8
0
  5
CF6
 10
18.9039
 20
20.9242
 30
0.000000
  70
    32
  0
VERTEX
  8
0
  5
CF7
 10
18.9422
 20
20.9137
 30
0.000000
  70
    32
  0
VERTEX
  8
0
  5
CF8
 10
18.9821
 20
20.9040
 30
0.000000
  70
    32
  0
VERTEX
  8
0
  5
CF9
 10
19.0234
 20
20.8949
 30
0.000000
  70
    32
  0
VERTEX
  8
0
  5
CFA
 10
19.0661
 20
20.8866
 30
0.000000
  70
    32
  0
VERTEX
  8
0
  5
CFB
 10
19.1100
 20
20.8790
 30
0.000000
  70
    32
  0
VERTEX
  8
0
  5
CFC
 10
19.1551
 20
20.8722
 30
0.000000
  70
    32
  0
VERTEX
  8
0
  5
CFD
 10
19.2012
 20
20.8662
 30
0.000000
  70
    32
  0
VERTEX
  8
0
  5
CFE
 10
19.2482
 20
20.8610
 30
0.000000
  70
    32
  0
VERTEX
  8
0
  5
CFF
 10
19.2961
 20
20.8566
 30
0.000000
  70
    32
  0
VERTEX
  8
0
  5
D00
 10
19.3447
 20
20.8531
 30
0.000000
  70
    32
  0
VERTEX
  8
0
  5
D01
 10
19.3938
 20
20.8504
 30
0.000000
  70
    32
  0
VERTEX
  8
0
  5
D02
 10
19.4434
 20
20.8485
 30
0.000000
  70
    32
  0
VERTEX
  8
0
  5
D03
 10
19.4933
 20
20.8475
 30
0.000000
  70
    32
  0
VERTEX
  8
0
  5
D04
 10
19.5435
 20
20.8473
 30
0.000000
  70
    32
  0
VERTEX
  8
0
  5
D05
 10
19.5938
 20
20.8480
 30
0.000000
  70
    32
  0
VERTEX
  8
0
  5
D06
 10
19.6440
 20
20.8496
 30
0.000000
  70
    32
  0
VERTEX
  8
0
  5
D07
 10
19.6941
 20
20.8520
 30
0.000000
  70
    32
  0
VERTEX
  8
0
  5
D08
 10
19.7440
 20
20.8552
 30
0.000000
  70
    32
  0
VERTEX
  8
0
  5
D09
 10
19.7935
 20
20.8592
 30
0.000000
  70
    32
  0
VERTEX
  8
0
  5
D0A
 10
19.8424
 20
20.8641
 30
0.000000
  70
    32
  0
VERTEX
  8
0
  5
D0B
 10
19.8908
 20
20.8698
 30
0.000000
  70
    32
  0
VERTEX
  8
0
  5
D0C
 10
19.9384
 20
20.8763
 30
0.000000
  70
    32
  0
VERTEX
  8
0
  5
D0D
 10
19.9852
 20
20.8836
 30
0.000000
  70
    32
  0
VERTEX
  8
0
  5
D0E
 10
20.0310
 20
20.8916
 30
0.000000
  70
    32
  0
VERTEX
  8
0
  5
D0F
 10
20.0757
 20
20.9004
 30
0.000000
  70
    32
  0
VERTEX
  8
0
  5
D10
 10
20.1193
 20
20.9099
 30
0.000000
  70
    32
  0
VERTEX
  8
0
  5
D11
 10
20.1615
 20
20.9202
 30
0.000000
  70
    32
  0
VERTEX
  8
0
  5
D12
 10
20.2024
 20
20.9311
 30
0.000000
  70
    32
  0
VERTEX
  8
0
  5
D13
 10
20.2418
 20
20.9426
 30
0.000000
  70
    32
  0
VERTEX
  8
0
  5
D14
 10
20.2796
 20
20.9548
 30
0.000000
  70
    32
  0
VERTEX
  8
0
  5
D15
 10
20.3158
 20
20.9675
 30
0.000000
  70
    32
  0
VERTEX
  8
0
  5
D16
 10
20.3502
 20
20.9808
 30
0.000000
  70
    32
  0
VERTEX
  8
0
  5
D17
 10
20.3827
 20
20.9947
 30
0.000000
  70
    32
  0
VERTEX
  8
0
  5
D18
 10
20.4133
 20
21.0090
 30
0.000000
  70
    32
  0
VERTEX
  8
0
  5
D19
 10
20.4420
 20
21.0238
 30
0.000000
  70
    32
  0
VERTEX
  8
0
  5
D1A
 10
20.4685
 20
21.0391
 30
0.000000
  70
    32
  0
VERTEX
  8
0
  5
D1B
 10
20.4930
 20
21.0547
 30
0.000000
  70
    32
  0
VERTEX
  8
0
  5
D1C
 10
20.5152
 20
21.0707
 30
0.000000
  70
    32
  0
VERTEX
  8
0
  5
D1D
 10
20.5353
 20
21.0870
 30
0.000000
  70
    32
  0
VERTEX
  8
0
  5
D1E
 10
20.5530
 20
21.1036
 30
0.000000
  70
    32
  0
VERTEX
  8
0
  5
D1F
 10
20.5684
 20
21.1204
 30
0.000000
  70
    32
  0
VERTEX
  8
0
  5
D20
 10
20.5814
 20
21.1374
 30
0.000000
  70
    32
  0
VERTEX
  8
0
  5
D21
 10
20.5921
 20
21.1545
 30
0.000000
  70
    32
  0
VERTEX
  8
0
  5
D22
 10
20.6003
 20
21.1718
 30
0.000000
  70
    32
  0
VERTEX
  8
0
  5
D23
 10
20.6061
 20
21.1891
 30
0.000000
  70
    32
  0
VERTEX
  8
0
  5
D24
 10
20.6094
 20
21.2065
 30
0.000000
  70
    32
  0
VERTEX
  8
0
  5
D25
 10
20.6102
 20
21.2238
 30
0.000000
  70
    32
  0
SEQEND
  8
0
  5
D26
  0
INSERT
  5
407
  8
RS485
  2
*U7
 10
0.0
 20
0.0
 30
0.0
1001
ACAD_MLEADERVER
1070
     2
  0
INSERT
  5
40E
  8
RS485
  2
*U8
 10
0.0
 20
0.0
 30
0.0
  0
LINE
  5
40F
  8
ETHERNET
 10
7.7303130274083571
 20
15.1798537143177
 30
0.0
 11
10.62228747086907
 21
15.1798537143177
 31
0.0
  0
LINE
  5
410
  8
ETHERNET
 10
12.66846353799796
 20
17.70697202097206
 30
0.0
 11
11.214811524871999
 21
17.70697202097206
 31
0.0
  0
LINE
  5
411
  8
ETHERNET
 10
14.996245073804531
 20
15.93417115389205
 30
0.0
 11
11.18297644818786
 21
15.93417115389205
 31
0.0
  0
LINE
  5
412
  8
ETHERNET
 10
15.046760938416311
 20
14.080913181188411
 30
0.0
 11
11.18297644818786
 21
14.080913181188411
 31
0.0
  0
LINE
  5
413
  8
ETHERNET
 10
15.02065175452397
 20
12.20231592719713
 30
0.0
 11
11.18297644818786
 21
12.20231592719713
 31
0.0
  0
LINE
  5
414
  8
ETHERNET
 10
14.96843350836404
 20
10.32371867320585
 30
0.0
 11
11.18297644818786
 21
10.32371867320585
 31
0.0
  0
LINE
  5
415
  8
ETHERNET
 10
14.99454269225637
 20
8.4190298514707607
 30
0.0
 11
11.18297644818786
 21
8.4190298514707607
 31
0.0
  0
LINE
  5
417
  8
ETHERNET
 10
19.416649585525999
 20
19.72070448815715
 30
0.0
 11
20.48786937392525
 21
19.72070448815715
 31
0.0
  0
LINE
  5
419
  8
ETHERNET
 10
21.619849479161811
 20
19.711760865206742
 30
0.0
 11
23.680184934343199
 21
19.711760865206742
 31
0.0
  0
POLYLINE
  5
41A
  8
ETHERNET
 66
     1
 10
0.0
 20
0.0
 30
0.0
  0
VERTEX
  5
BBA
  8
ETHERNET
 10
21.053859426543529
 20
20.168106012305952
 30
0.0
  0
VERTEX
  5
BBB
  8
ETHERNET
 10
21.053859426543529
 20
21.202962352228671
 30
0.0
  0
VERTEX
  5
BBC
  8
ETHERNET
 10
20.610195390173882
 20
21.21720809284415
 30
0.0
  0
SEQEND
  5
BBD
  8
ETHERNET
  0
LINE
  5
41B
  8
0
 10
23.842428329830739
 20
21.32049904914826
 30
0.0
 11
24.99080953185717
 21
21.32049904914826
 31
0.0
  0
LINE
  5
41C
  8
0
 10
24.99080953185717
 20
21.32049904914826
 30
0.0
 11
24.99080953185717
 21
20.022530175671161
 31
0.0
  0
LINE
  5
41E
  8
FIBER
 10
16.261668686414691
 20
15.93417115389205
 30
0.0
 11
17.429186447358539
 21
15.93417115389205
 31
0.0
  0
LINE
  5
41F
  8
FIBER
 10
17.429186447358539
 20
15.93417115389205
 30
0.0
 11
17.429186447358539
 21
19.73404127628551
 31
0.0
  0
LINE
  5
420
  8
FIBER
 10
17.429186447358539
 20
19.73404127628551
 30
0.0
 11
18.151225972915839
 21
19.73404127628551
 31
0.0
  0
LINE
  5
44E
  8
RS485
 10
25.979678665282322
 20
20.022365541028002
 30
0.0
 11
25.979678665282322
 21
20.70537098681152
 31
0.0
  0
LINE
  5
44F
  8
RS485
 10
25.979678665282322
 20
20.70537098681152
 30
0.0
 11
27.306821605839829
 21
20.70537098681152
 31
0.0
  0
INSERT
  5
456
  8
9
  6
CONTINUOUS
 62
     7
  2
XXXAHD
 10
27.42595304475039
 20
20.70926125106746
 30
0.0
 41
0.1200000000000045
 42
0.0799957263779518
 43
0.1200000000000045
  0
TEXT
  5
45D
  8
0
 10
27.490751058138059
 20
20.649186060525889
 30
0.0
 40
0.2
  1
RS-485 to six FAU-200 (Modbus RTU)
  0
TEXT
  5
47B
  8
0
 10
27.459854239371541
 20
21.37095356405565
 30
0.0
 40
0.2
  1
DMAC
  0
POLYLINE
  5
47C
  8
0
 66
     1
 10
0.0
 20
0.0
 30
0.0
 70
     1
  0
VERTEX
  5
BBE
  8
0
 10
27.331765382997371
 20
21.739786587858841
 30
0.0
  0
VERTEX
  5
BBF
  8
0
 10
28.597188995607539
 20
21.739786587858841
 30
0.0
  0
VERTEX
  5
BC0
  8
0
 10
28.597188995607539
 20
21.138093207632039
 30
0.0
  0
VERTEX
  5
BC1
  8
0
 10
27.331765382997371
 20
21.138093207632039
 30
0.0
  0
SEQEND
  5
BC2
  8
0
  0
LINE
  5
47E
  8
RS485
 10
25.65929829212088
 20
21.3591708140927
 30
0.0
 11
27.331765382997371
 21
21.3591708140927
 31
0.0
  0
LINE
  5
48A
  8
FIBER
 10
28.597188995607539
 20
21.438939897745438
 30
0.0
 11
31.851898658055081
 21
21.438939897745438
 31
0.0
  0
INSERT
  5
491
  8
9
  6
CONTINUOUS
 62
     7
  2
XXXAHD
 10
31.971073638624169
 20
21.440372907894101
 30
0.0
 41
0.1200000000000045
 42
0.0799957263779518
 43
0.1200000000000045
  0
TEXT
  5
498
  8
0
 10
32.098865728905807
 20
21.354323104124351
 30
0.0
 40
0.2
  1
Bliss Windfarm (DNP)
  0
TEXT
  5
4A0
  8
0
 10
18.12658528618806
 20
20.150401482642529
 30
0.0
 40
0.2
  1
Freedom Station
  0
LINE
  5
4A2
  8
SERIAL
 10
26.24152111198212
 20
19.920178056715759
 30
0.0
 11
27.51925600691273
 21
19.920178056715759
 31
0.0
  0
LINE
  5
4A4
  8
SERIAL
 10
26.225818798608909
 20
19.535296070777619
 30
0.0
 11
27.510420253110262
 21
19.535296070777619
 31
0.0
  0
INSERT
  5
4AB
  8
9
  6
CONTINUOUS
 62
     7
  2
XXXAHD
 10
27.641810817505519
 20
19.919993052102811
 30
0.0
 41
0.1200000000000045
 42
0.0799957263779518
 43
0.1200000000000045
  0
INSERT
  5
4B2
  8
9
  6
CONTINUOUS
 62
     7
  2
XXXAHD
 10
27.632895436093929
 20
19.536236932017029
 30
0.0
 41
0.1200000000000045
 42
0.0799957263779518
 43
0.1200000000000045
  0
TEXT
  5
4B9
  8
0
 10
27.689372901857311
 20
19.81501441046813
 30
0.0
 40
0.2
  1
SEL-311C, Line 1, port 3, RS-232
  0
TEXT
  5
4C0
  8
0
 10
27.66589928178384
 20
19.464331656893162
 30
0.0
 40
0.2
  1
SEL-311L, Line 1, port 3, RS-232
  0
TEXT
  5
4D6
  8
0
 10
18.33236596169996
 20
14.616291105237069
 30
0.0
 40
0.2
  1
DMAC
  0
POLYLINE
  5
4D7
  8
0
 66
     1
 10
0.0
 20
0.0
 30
0.0
 70
     1
  0
VERTEX
  5
BC3
  8
0
 10
18.204277105325801
 20
14.98512412904026
 30
0.0
  0
VERTEX
  5
BC4
  8
0
 10
19.469700717935961
 20
14.98512412904026
 30
0.0
  0
VERTEX
  5
BC5
  8
0
 10
19.469700717935961
 20
14.383430748813449
 30
0.0
  0
VERTEX
  5
BC6
  8
0
 10
18.204277105325801
 20
14.383430748813449
 30
0.0
  0
SEQEND
  5
BC7
  8
0
  0
TEXT
  5
4D8
  8
0
 10
20.69936714217506
 20
14.78181094032591
 30
0.0
 40
0.2
  1
4-port
  0
TEXT
  5
4D9
  8
0
 10
20.87869030052655
 20
14.49403897039366
 30
0.0
 40
0.2
  1
hub
  0
POLYLINE
  5
4DA
  8
0
 66
     1
 10
0.0
 20
0.0
 30
0.0
 70
     1
  0
VERTEX
  5
BC8
  8
0
 10
20.540920506335208
 20
15.131678963075659
 30
0.0
  0
VERTEX
  5
BC9
  8
0
 10
21.67290061157178
 20
15.131678963075659
 30
0.0
  0
VERTEX
  5
BCA
  8
0
 10
21.67290061157178
 20
14.21898866887723
 30
0.0
  0
VERTEX
  5
BCB
  8
0
 10
20.540920506335208
 20
14.21898866887723
 30
0.0
  0
SEQEND
  5
BCC
  8
0
  0
POLYLINE
  5
4DC
  8
0
 66
     1
 10
0.0
 20
0.0
 30
0.0
 70
     1
  0
VERTEX
  5
BCD
  8
0
 10
23.733236066753172
 20
14.98610312644086
 30
0.0
  0
VERTEX
  5
BCE
  8
0
 10
26.267327753656591
 20
14.98610312644086
 30
0.0
  0
VERTEX
  5
BCF
  8
0
 10
26.267327753656591
 20
14.31765388228815
 30
0.0
  0
VERTEX
  5
BD0
  8
0
 10
23.733236066753172
 20
14.31765388228815
 30
0.0
  0
SEQEND
  5
BD1
  8
0
  0
TEXT
  5
4DD
  8
0
 10
22.365989312707239
 20
16.231388453430331
 30
0.0
 40
0.2
  1
SEL-2407
  0
POLYLINE
  5
4DE
  8
0
 66
     1
 10
0.0
 20
0.0
 30
0.0
 70
     1
  0
VERTEX
  5
BD2
  8
0
 10
22.199712475819322
 20
16.57409276736141
 30
0.0
  0
VERTEX
  5
BD3
  8
0
 10
23.895479462240701
 20
16.57409276736141
 30
0.0
  0
VERTEX
  5
BD4
  8
0
 10
23.895479462240701
 20
15.99405123247452
 30
0.0
  0
VERTEX
  5
BD5
  8
0
 10
22.199712475819322
 20
15.99405123247452
 30
0.0
  0
SEQEND
  5
BD6
  8
0
  0
LINE
  5
4DF
  8
ETHERNET
 10
19.469700717935961
 20
14.68427743892685
 30
0.0
 11
20.540920506335208
 21
14.68427743892685
 31
0.0
  0
LINE
  5
4E0
  8
ETHERNET
 10
21.67290061157178
 20
14.67533381597644
 30
0.0
 11
23.733236066753172
 21
14.67533381597644
 31
0.0
  0
LINE
  5
4E1
  8
0
 10
23.895479462240701
 20
16.284071999917959
 30
0.0
 11
25.043860664267129
 21
16.284071999917959
 31
0.0
  0
LINE
  5
4E2
  8
0
 10
25.043860664267129
 20
16.284071999917959
 30
0.0
 11
25.043860664267129
 21
14.98610312644086
 31
0.0
  0
TEXT
  5
4E4
  8
0
 10
18.179636418598019
 20
15.113974433412229
 30
0.0
 40
0.2
  1
Bixby Hill Sub.
  0
LINE
  5
4E5
  8
FIBER
 10
16.312184551026469
 20
14.080913181188411
 30
0.0
 11
17.476759844527699
 21
14.080913181188411
 31
0.0
  0
LINE
  5
4E6
  8
FIBER
 10
17.476759844527699
 20
14.080913181188411
 30
0.0
 11
17.476759844527699
 21
14.693143524085411
 31
0.0
  0
LINE
  5
4E8
  8
FIBER
 10
17.476759844527699
 20
14.693143524085411
 30
0.0
 11
18.204277105325801
 21
14.693143524085411
 31
0.0
  0
LINE
  5
511
  8
RS485
 10
26.267327753656591
 20
14.6518785043645
 30
0.0
 11
27.626266929532459
 21
14.6518785043645
 31
0.0
  0
INSERT
  5
518
  8
9
  6
CONTINUOUS
 62
     7
  2
XXXAHD
 10
27.752835478317071
 20
14.65059201970459
 30
0.0
 41
0.1200000000000045
 42
0.0799957263779518
 43
0.1200000000000045
  0
TEXT
  5
51F
  8
0
 10
27.871238138326689
 20
14.539347472231791
 30
0.0
 40
0.2
  1
RS-485 to 10 SEL-751A 
  0
TEXT
  5
56B
  8
0
 10
18.301357124977208
 20
12.116873138710179
 30
0.0
 40
0.2
  1
DMAC
  0
POLYLINE
  5
56C
  8
0
 66
     1
 10
0.0
 20
0.0
 30
0.0
 70
     1
  0
VERTEX
  5
BD7
  8
0
 10
18.173268268603049
 20
12.48570616251337
 30
0.0
  0
VERTEX
  5
BD8
  8
0
 10
19.43869188121322
 20
12.48570616251337
 30
0.0
  0
VERTEX
  5
BD9
  8
0
 10
19.43869188121322
 20
11.88401278228657
 30
0.0
  0
VERTEX
  5
BDA
  8
0
 10
18.173268268603049
 20
11.88401278228657
 30
0.0
  0
SEQEND
  5
BDB
  8
0
  0
TEXT
  5
56D
  8
0
 10
20.668358305452308
 20
12.282392973799031
 30
0.0
 40
0.2
  1
4-port
  0
TEXT
  5
56E
  8
0
 10
20.847681463803799
 20
11.99462100386677
 30
0.0
 40
0.2
  1
hub
  0
POLYLINE
  5
56F
  8
0
 66
     1
 10
0.0
 20
0.0
 30
0.0
 70
     1
  0
VERTEX
  5
BDC
  8
0
 10
20.50991166961246
 20
12.632260996548769
 30
0.0
  0
VERTEX
  5
BDD
  8
0
 10
21.641891774849029
 20
12.632260996548769
 30
0.0
  0
VERTEX
  5
BDE
  8
0
 10
21.641891774849029
 20
11.719570702350341
 30
0.0
  0
VERTEX
  5
BDF
  8
0
 10
20.50991166961246
 20
11.719570702350341
 30
0.0
  0
SEQEND
  5
BE0
  8
0
  0
POLYLINE
  5
571
  8
0
 66
     1
 10
0.0
 20
0.0
 30
0.0
 70
     1
  0
VERTEX
  5
BE1
  8
0
 10
23.70222723003042
 20
12.48668515991397
 30
0.0
  0
VERTEX
  5
BE2
  8
0
 10
26.23631891693384
 20
12.48668515991397
 30
0.0
  0
VERTEX
  5
BE3
  8
0
 10
26.23631891693384
 20
11.81823591576126
 30
0.0
  0
VERTEX
  5
BE4
  8
0
 10
23.70222723003042
 20
11.81823591576126
 30
0.0
  0
SEQEND
  5
BE5
  8
0
  0
LINE
  5
572
  8
ETHERNET
 10
19.43869188121322
 20
12.184859472399969
 30
0.0
 11
20.50991166961246
 21
12.184859472399969
 31
0.0
  0
LINE
  5
573
  8
ETHERNET
 10
21.641891774849029
 20
12.175915849449559
 30
0.0
 11
23.70222723003042
 21
12.175915849449559
 31
0.0
  0
TEXT
  5
574
  8
0
 10
17.727024527074889
 20
12.600028193831649
 30
0.0
 40
0.2
  1
Industrial Park Sub.
  0
LINE
  5
576
  8
FIBER
 10
16.286075367134131
 20
12.20231592719713
 30
0.0
 11
18.173268268603049
 21
12.20231592719713
 31
0.0
  0
LINE
  5
577
  8
SERIAL
 10
26.23631891693384
 20
11.94434754123129
 30
0.0
 11
28.114176146267869
 21
11.94434754123129
 31
0.0
  0
INSERT
  5
57E
  8
9
  6
CONTINUOUS
 62
     7
  2
XXXAHD
 10
28.237883381426808
 20
11.94230540619178
 30
0.0
 41
0.1200000000000045
 42
0.0799957263779518
 43
0.1200000000000045
  0
TEXT
  5
585
  8
0
 10
28.328177803131741
 20
11.88266713474267
 30
0.0
 40
0.2
  1
5 future SEL-751A relays
  0
TEXT
  5
5A8
  8
0
 10
18.334308552118411
 20
9.6218378857390761
 30
0.0
 40
0.2
  1
DMAC
  0
POLYLINE
  5
5A9
  8
0
 66
     1
 10
0.0
 20
0.0
 30
0.0
 70
     1
  0
VERTEX
  5
BE6
  8
0
 10
18.206219695744249
 20
9.9906709095422652
 30
0.0
  0
VERTEX
  5
BE7
  8
0
 10
19.471643308354409
 20
9.9906709095422652
 30
0.0
  0
VERTEX
  5
BE8
  8
0
 10
19.471643308354409
 20
9.3889775293154614
 30
0.0
  0
VERTEX
  5
BE9
  8
0
 10
18.206219695744249
 20
9.3889775293154614
 30
0.0
  0
SEQEND
  5
BEA
  8
0
  0
TEXT
  5
5AA
  8
0
 10
20.701309732593518
 20
9.7873577208279201
 30
0.0
 40
0.2
  1
4-port
  0
TEXT
  5
5AB
  8
0
 10
20.880632890944991
 20
9.4995857508956671
 30
0.0
 40
0.2
  1
hub
  0
POLYLINE
  5
5AC
  8
0
 66
     1
 10
0.0
 20
0.0
 30
0.0
 70
     1
  0
VERTEX
  5
BEB
  8
0
 10
20.54286309675366
 20
10.137225743577661
 30
0.0
  0
VERTEX
  5
BEC
  8
0
 10
21.674843201990232
 20
10.137225743577661
 30
0.0
  0
VERTEX
  5
BED
  8
0
 10
21.674843201990232
 20
9.2245354493792391
 30
0.0
  0
VERTEX
  5
BEE
  8
0
 10
20.54286309675366
 20
9.2245354493792391
 30
0.0
  0
SEQEND
  5
BEF
  8
0
  0
POLYLINE
  5
5AE
  8
0
 66
     1
 10
0.0
 20
0.0
 30
0.0
 70
     1
  0
VERTEX
  5
BF0
  8
0
 10
23.73517865717162
 20
9.9916499069428681
 30
0.0
  0
VERTEX
  5
BF1
  8
0
 10
26.269270344075039
 20
9.9916499069428681
 30
0.0
  0
VERTEX
  5
BF2
  8
0
 10
26.269270344075039
 20
9.3232006627901551
 30
0.0
  0
VERTEX
  5
BF3
  8
0
 10
23.73517865717162
 20
9.3232006627901551
 30
0.0
  0
SEQEND
  5
BF4
  8
0
  0
LINE
  5
5AF
  8
ETHERNET
 10
19.471643308354409
 20
9.6898242194288642
 30
0.0
 11
20.54286309675366
 21
9.6898242194288642
 31
0.0
  0
LINE
  5
5B0
  8
ETHERNET
 10
21.674843201990232
 20
9.6808805964784526
 30
0.0
 11
23.73517865717162
 21
9.6808805964784526
 31
0.0
  0
TEXT
  5
5B1
  8
0
 10
17.759975954216092
 20
10.104992940860541
 30
0.0
 40
0.2
  1
County Line Sub.
  0
LINE
  5
5B4
  8
FIBER
 10
16.233857120974211
 20
10.32371867320585
 30
0.0
 11
17.153387987585049
 21
10.32371867320585
 31
0.0
  0
LINE
  5
5B5
  8
FIBER
 10
17.153387987585049
 20
10.32371867320585
 30
0.0
 11
17.153387987585049
 21
9.6920056428468797
 31
0.0
  0
LINE
  5
5B6
  8
FIBER
 10
17.153387987585049
 20
9.6920056428468797
 30
0.0
 11
18.206219695744249
 21
9.6920056428468797
 31
0.0
  0
TEXT
  5
5C7
  8
0
 10
22.328630812950689
 20
10.59721355452419
 30
0.0
 40
0.2
  1
SEL-2407
  0
POLYLINE
  5
5C8
  8
0
 66
     1
 10
0.0
 20
0.0
 30
0.0
 70
     1
  0
VERTEX
  5
BFA
  8
0
 10
22.162353976062771
 20
10.939917868455259
 30
0.0
  0
VERTEX
  5
BFB
  8
0
 10
23.858120962484151
 20
10.939917868455259
 30
0.0
  0
VERTEX
  5
BFC
  8
0
 10
23.858120962484151
 20
10.359876333568369
 30
0.0
  0
VERTEX
  5
BFD
  8
0
 10
22.162353976062771
 20
10.359876333568369
 30
0.0
  0
SEQEND
  5
BFE
  8
0
  0
LINE
  5
5C9
  8
0
 10
23.858120962484151
 20
10.64989710101182
 30
0.0
 11
24.102165401706941
 21
10.64989710101182
 31
0.0
  0
LINE
  5
5DA
  8
0
 10
32.194569609476453
 20
8.0377695550558244
 30
0.0
 11
33.454272185318459
 21
8.0377695550558244
 31
0.0
  0
LINE
  5
5DB
  8
0
 10
32.191550092253458
 20
7.6927082995562373
 30
0.0
 11
33.470714756146187
 21
7.6927082995562373
 31
0.0
  0
INSERT
  5
5DD
  8
9
  6
CONTINUOUS
 62
     7
  2
XXXAHD
 10
33.569469671869641
 20
8.0532875512756448
 30
0.0
 41
0.1200000000000045
 42
0.0799957263779518
 43
0.1200000000000045
  0
INSERT
  5
5DE
  8
9
  6
CONTINUOUS
 62
     7
  2
XXXAHD
 10
33.551831164929681
 20
7.6860652289777809
 30
0.0
 41
0.1200000000000045
 42
0.0799957263779518
 43
0.1200000000000045
  0
TEXT
  5
5DF
  8
0
 10
33.617031756221436
 20
7.9483089096409643
 30
0.0
 40
0.2
  1
2 voltage reduction outputs
  0
TEXT
  5
5E0
  8
0
 10
33.584835010619592
 20
7.614159953853906
 30
0.0
 40
0.2
  1
tie breaker, main 1, and main 2 close/trip
  0
LINE
  5
5F1
  8
RS485
 10
26.275430880631198
 20
9.6387787847613993
 30
0.0
 11
27.63437005650708
 21
9.6387787847613993
 31
0.0
  0
TEXT
  5
5F2
  8
0
 10
27.87934126530131
 20
9.5262477526286844
 30
0.0
 40
0.2
  1
RS-485 to 12 SEL relays 
  0
INSERT
  5
610
  8
9
  6
CONTINUOUS
 62
     7
  2
XXXAHD
 10
33.523752035016727
 20
8.8284198790160744
 30
0.0
 41
0.1200000000000045
 42
0.0799957263779518
 43
0.1200000000000045
  0
TEXT
  5
611
  8
0
 10
33.575837100365348
 20
8.7400144581258132
 30
0.0
 40
0.2
  1
8 recloser enable/disable controls
  0
TEXT
  5
62E
  8
0
 10
18.381855191843801
 20
5.2796017637981763
 30
0.0
 40
0.2
  1
DMAC
  0
POLYLINE
  5
62F
  8
0
 66
     1
 10
0.0
 20
0.0
 30
0.0
 70
     1
  0
VERTEX
  5
BFF
  8
0
 10
18.253766335469631
 20
5.6484347876013672
 30
0.0
  0
VERTEX
  5
C00
  8
0
 10
19.519189948079799
 20
5.6484347876013672
 30
0.0
  0
VERTEX
  5
C01
  8
0
 10
19.519189948079799
 20
5.0467414073745607
 30
0.0
  0
VERTEX
  5
C02
  8
0
 10
18.253766335469631
 20
5.0467414073745607
 30
0.0
  0
SEQEND
  5
C03
  8
0
  0
TEXT
  5
630
  8
0
 10
20.748856372318901
 20
5.4451215988870203
 30
0.0
 40
0.2
  1
4-port
  0
TEXT
  5
631
  8
0
 10
20.928179530670381
 20
5.1573496289547691
 30
0.0
 40
0.2
  1
hub
  0
POLYLINE
  5
632
  8
0
 66
     1
 10
0.0
 20
0.0
 30
0.0
 70
     1
  0
VERTEX
  5
C04
  8
0
 10
20.590409736479039
 20
5.7949896216367662
 30
0.0
  0
VERTEX
  5
C05
  8
0
 10
21.722389841715611
 20
5.7949896216367662
 30
0.0
  0
VERTEX
  5
C06
  8
0
 10
21.722389841715611
 20
4.8822993274383393
 30
0.0
  0
VERTEX
  5
C07
  8
0
 10
20.590409736479039
 20
4.8822993274383393
 30
0.0
  0
SEQEND
  5
C08
  8
0
  0
TEXT
  5
633
  8
0
 10
24.455211982569072
 20
5.2407850149721611
 30
0.0
 40
0.2
  1
ePAQ-9410
  0
POLYLINE
  5
634
  8
0
 66
     1
 10
0.0
 20
0.0
 30
0.0
 70
     1
  0
VERTEX
  5
C09
  8
0
 10
23.782725296896999
 20
5.6494137850019683
 30
0.0
  0
VERTEX
  5
C0A
  8
0
 10
26.316816983800418
 20
5.6494137850019683
 30
0.0
  0
VERTEX
  5
C0B
  8
0
 10
26.316816983800418
 20
4.9809645408492571
 30
0.0
  0
VERTEX
  5
C0C
  8
0
 10
23.782725296896999
 20
4.9809645408492571
 30
0.0
  0
SEQEND
  5
C0D
  8
0
  0
LINE
  5
635
  8
ETHERNET
 10
19.519189948079799
 20
5.3475880974879644
 30
0.0
 11
20.590409736479039
 21
5.3475880974879644
 31
0.0
  0
LINE
  5
636
  8
ETHERNET
 10
21.722389841715611
 20
5.3386444745375519
 30
0.0
 11
23.782725296896999
 21
5.3386444745375519
 31
0.0
  0
TEXT
  5
637
  8
0
 10
17.807522593941471
 20
5.7627568189196401
 30
0.0
 40
0.2
  1
Meter Station
  0
TEXT
  5
638
  8
0
 10
22.376177452676071
 20
6.2549774325832876
 30
0.0
 40
0.2
  1
SEL-2407
  0
POLYLINE
  5
639
  8
0
 66
     1
 10
0.0
 20
0.0
 30
0.0
 70
     1
  0
VERTEX
  5
C0E
  8
0
 10
22.209900615788161
 20
6.5976817465143611
 30
0.0
  0
VERTEX
  5
C0F
  8
0
 10
23.90566760220953
 20
6.5976817465143611
 30
0.0
  0
VERTEX
  5
C10
  8
0
 10
23.90566760220953
 20
6.0176402116274721
 30
0.0
  0
VERTEX
  5
C11
  8
0
 10
22.209900615788161
 20
6.0176402116274721
 30
0.0
  0
SEQEND
  5
C12
  8
0
  0
LINE
  5
63A
  8
0
 10
23.90566760220953
 20
6.3076609790709171
 30
0.0
 11
25.054048804235961
 21
6.3076609790709171
 31
0.0
  0
LINE
  5
63B
  8
0
 10
25.054048804235961
 20
6.3076609790709171
 30
0.0
 11
25.054048804235961
 21
5.6494137850019683
 31
0.0
  0
LINE
  5
641
  8
FIBER
 10
16.259966304866531
 20
8.4190298514707607
 30
0.0
 11
17.08371610409672
 21
8.4190298514707607
 31
0.0
  0
LINE
  5
642
  8
FIBER
 10
17.08371610409672
 20
8.4190298514707607
 30
0.0
 11
17.08371610409672
 21
5.3400972500167043
 31
0.0
  0
LINE
  5
643
  8
FIBER
 10
17.08371610409672
 20
5.3400972500167043
 30
0.0
 11
18.253766335469631
 21
5.3400972500167043
 31
0.0
  0
TEXT
  5
64B
  8
0
 10
19.219517888841789
 20
3.9830217179963512
 30
0.0
 40
0.2
  1
workstation
  0
POLYLINE
  5
64C
  8
0
 10
20.890430980358371
 20
4.0598992437717021
 30
0.0
 66
     1
 70
     8
  0
VERTEX
  8
0
  5
D27
 10
20.8904
 20
4.05990
 30
0.000000
  70
    32
  0
VERTEX
  8
0
  5
D28
 10
20.8888
 20
4.07720
 30
0.000000
  70
    32
  0
VERTEX
  8
0
  5
D29
 10
20.8847
 20
4.09439
 30
0.000000
  70
    32
  0
VERTEX
  8
0
  5
D2A
 10
20.8782
 20
4.11146
 30
0.000000
  70
    32
  0
VERTEX
  8
0
  5
D2B
 10
20.8692
 20
4.12834
 30
0.000000
  70
    32
  0
VERTEX
  8
0
  5
D2C
 10
20.8578
 20
4.14500
 30
0.000000
  70
    32
  0
VERTEX
  8
0
  5
D2D
 10
20.8440
 20
4.16141
 30
0.000000
  70
    32
  0
VERTEX
  8
0
  5
D2E
 10
20.8279
 20
4.17751
 30
0.000000
  70
    32
  0
VERTEX
  8
0
  5
D2F
 10
20.8095
 20
4.19328
 30
0.000000
  70
    32
  0
VERTEX
  8
0
  5
D30
 10
20.7887
 20
4.20866
 30
0.000000
  70
    32
  0
VERTEX
  8
0
  5
D31
 10
20.7658
 20
4.22364
 30
0.000000
  70
    32
  0
VERTEX
  8
0
  5
D32
 10
20.7407
 20
4.23817
 30
0.000000
  70
    32
  0
VERTEX
  8
0
  5
D33
 10
20.7135
 20
4.25221
 30
0.000000
  70
    32
  0
VERTEX
  8
0
  5
D34
 10
20.6842
 20
4.26574
 30
0.000000
  70
    32
  0
VERTEX
  8
0
  5
D35
 10
20.6530
 20
4.27871
 30
0.000000
  70
    32
  0
VERTEX
  8
0
  5
D36
 10
20.6198
 20
4.29110
 30
0.000000
  70
    32
  0
VERTEX
  8
0
  5
D37
 10
20.5849
 20
4.30288
 30
0.000000
  70
    32
  0
VERTEX
  8
0
  5
D38
 10
20.5482
 20
4.31402
 30
0.000000
  70
    32
  0
VERTEX
  8
0
  5
D39
 10
20.5099
 20
4.32450
 30
0.000000
  70
    32
  0
VERTEX
  8
0
  5
D3A
 10
20.4700
 20
4.33428
 30
0.000000
  70
    32
  0
VERTEX
  8
0
  5
D3B
 10
20.4287
 20
4.34334
 30
0.000000
  70
    32
  0
VERTEX
  8
0
  5
D3C
 10
20.3860
 20
4.35167
 30
0.000000
  70
    32
  0
VERTEX
  8
0
  5
D3D
 10
20.3421
 20
4.35924
 30
0.000000
  70
    32
  0
VERTEX
  8
0
  5
D3E
 10
20.2970
 20
4.36603
 30
0.000000
  70
    32
  0
VERTEX
  8
0
  5
D3F
 10
20.2509
 20
4.37204
 30
0.000000
  70
    32
  0
VERTEX
  8
0
  5
D40
 10
20.2038
 20
4.37723
 30
0.000000
  70
    32
  0
VERTEX
  8
0
  5
D41
 10
20.1560
 20
4.38161
 30
0.000000
  70
    32
  0
VERTEX
  8
0
  5
D42
 10
20.1074
 20
4.38515
 30
0.000000
  70
    32
  0
VERTEX
  8
0
  5
D43
 10
20.0583
 20
4.38786
 30
0.000000
  70
    32
  0
VERTEX
  8
0
  5
D44
 10
20.0087
 20
4.38972
 30
0.000000
  70
    32
  0
VERTEX
  8
0
  5
D45
 10
19.9587
 20
4.39073
 30
0.000000
  70
    32
  0
VERTEX
  8
0
  5
D46
 10
19.9086
 20
4.39090
 30
0.000000
  70
    32
  0
VERTEX
  8
0
  5
D47
 10
19.8583
 20
4.39021
 30
0.000000
  70
    32
  0
VERTEX
  8
0
  5
D48
 10
19.8081
 20
4.38866
 30
0.000000
  70
    32
  0
VERTEX
  8
0
  5
D49
 10
19.7579
 20
4.38628
 30
0.000000
  70
    32
  0
VERTEX
  8
0
  5
D4A
 10
19.7081
 20
4.38305
 30
0.000000
  70
    32
  0
VERTEX
  8
0
  5
D4B
 10
19.6586
 20
4.37898
 30
0.000000
  70
    32
  0
VERTEX
  8
0
  5
D4C
 10
19.6097
 20
4.37410
 30
0.000000
  70
    32
  0
VERTEX
  8
0
  5
D4D
 10
19.5613
 20
4.36840
 30
0.000000
  70
    32
  0
VERTEX
  8
0
  5
D4E
 10
19.5137
 20
4.36190
 30
0.000000
  70
    32
  0
VERTEX
  8
0
  5
D4F
 10
19.4669
 20
4.35463
 30
0.000000
  70
    32
  0
VERTEX
  8
0
  5
D50
 10
19.4211
 20
4.34658
 30
0.000000
  70
    32
  0
VERTEX
  8
0
  5
D51
 10
19.3764
 20
4.33779
 30
0.000000
  70
    32
  0
VERTEX
  8
0
  5
D52
 10
19.3328
 20
4.32828
 30
0.000000
  70
    32
  0
VERTEX
  8
0
  5
D53
 10
19.2906
 20
4.31807
 30
0.000000
  70
    32
  0
VERTEX
  8
0
  5
D54
 10
19.2497
 20
4.30718
 30
0.000000
  70
    32
  0
VERTEX
  8
0
  5
D55
 10
19.2103
 20
4.29564
 30
0.000000
  70
    32
  0
VERTEX
  8
0
  5
D56
 10
19.1725
 20
4.28347
 30
0.000000
  70
    32
  0
VERTEX
  8
0
  5
D57
 10
19.1363
 20
4.27071
 30
0.000000
  70
    32
  0
VERTEX
  8
0
  5
D58
 10
19.1019
 20
4.25739
 30
0.000000
  70
    32
  0
VERTEX
  8
0
  5
D59
 10
19.0694
 20
4.24354
 30
0.000000
  70
    32
  0
VERTEX
  8
0
  5
D5A
 10
19.0388
 20
4.22920
 30
0.000000
  70
    32
  0
VERTEX
  8
0
  5
D5B
 10
19.0101
 20
4.21438
 30
0.000000
  70
    32
  0
VERTEX
  8
0
  5
D5C
 10
18.9835
 20
4.19915
 30
0.000000
  70
    32
  0
VERTEX
  8
0
  5
D5D
 10
18.9591
 20
4.18352
 30
0.000000
  70
    32
  0
VERTEX
  8
0
  5
D5E
 10
18.9368
 20
4.16754
 30
0.000000
  70
    32
  0
VERTEX
  8
0
  5
D5F
 10
18.9168
 20
4.15124
 30
0.000000
  70
    32
  0
VERTEX
  8
0
  5
D60
 10
18.8991
 20
4.13468
 30
0.000000
  70
    32
  0
VERTEX
  8
0
  5
D61
 10
18.8837
 20
4.11787
 30
0.000000
  70
    32
  0
VERTEX
  8
0
  5
D62
 10
18.8706
 20
4.10087
 30
0.000000
  70
    32
  0
VERTEX
  8
0
  5
D63
 10
18.8600
 20
4.08372
 30
0.000000
  70
    32
  0
VERTEX
  8
0
  5
D64
 10
18.8518
 20
4.06646
 30
0.000000
  70
    32
  0
VERTEX
  8
0
  5
D65
 10
18.8460
 20
4.04912
 30
0.000000
  70
    32
  0
VERTEX
  8
0
  5
D66
 10
18.8427
 20
4.03176
 30
0.000000
  70
    32
  0
VERTEX
  8
0
  5
D67
 10
18.8419
 20
4.01441
 30
0.000000
  70
    32
  0
VERTEX
  8
0
  5
D68
 10
18.8435
 20
3.99711
 30
0.000000
  70
    32
  0
VERTEX
  8
0
  5
D69
 10
18.8476
 20
3.97991
 30
0.000000
  70
    32
  0
VERTEX
  8
0
  5
D6A
 10
18.8541
 20
3.96285
 30
0.000000
  70
    32
  0
VERTEX
  8
0
  5
D6B
 10
18.8631
 20
3.94597
 30
0.000000
  70
    32
  0
VERTEX
  8
0
  5
D6C
 10
18.8745
 20
3.92930
 30
0.000000
  70
    32
  0
VERTEX
  8
0
  5
D6D
 10
18.8882
 20
3.91290
 30
0.000000
  70
    32
  0
VERTEX
  8
0
  5
D6E
 10
18.9044
 20
3.89680
 30
0.000000
  70
    32
  0
VERTEX
  8
0
  5
D6F
 10
18.9228
 20
3.88103
 30
0.000000
  70
    32
  0
VERTEX
  8
0
  5
D70
 10
18.9435
 20
3.86564
 30
0.000000
  70
    32
  0
VERTEX
  8
0
  5
D71
 10
18.9665
 20
3.85066
 30
0.000000
  70
    32
  0
VERTEX
  8
0
  5
D72
 10
18.9916
 20
3.83614
 30
0.000000
  70
    32
  0
VERTEX
  8
0
  5
D73
 10
19.0188
 20
3.82209
 30
0.000000
  70
    32
  0
VERTEX
  8
0
  5
D74
 10
19.0481
 20
3.80857
 30
0.000000
  70
    32
  0
VERTEX
  8
0
  5
D75
 10
19.0793
 20
3.79559
 30
0.000000
  70
    32
  0
VERTEX
  8
0
  5
D76
 10
19.1125
 20
3.78320
 30
0.000000
  70
    32
  0
VERTEX
  8
0
  5
D77
 10
19.1474
 20
3.77142
 30
0.000000
  70
    32
  0
VERTEX
  8
0
  5
D78
 10
19.1841
 20
3.76028
 30
0.000000
  70
    32
  0
VERTEX
  8
0
  5
D79
 10
19.2224
 20
3.74981
 30
0.000000
  70
    32
  0
VERTEX
  8
0
  5
D7A
 10
19.2623
 20
3.74003
 30
0.000000
  70
    32
  0
VERTEX
  8
0
  5
D7B
 10
19.3036
 20
3.73096
 30
0.000000
  70
    32
  0
VERTEX
  8
0
  5
D7C
 10
19.3463
 20
3.72263
 30
0.000000
  70
    32
  0
VERTEX
  8
0
  5
D7D
 10
19.3902
 20
3.71507
 30
0.000000
  70
    32
  0
VERTEX
  8
0
  5
D7E
 10
19.4353
 20
3.70827
 30
0.000000
  70
    32
  0
VERTEX
  8
0
  5
D7F
 10
19.4814
 20
3.70227
 30
0.000000
  70
    32
  0
VERTEX
  8
0
  5
D80
 10
19.5285
 20
3.69707
 30
0.000000
  70
    32
  0
VERTEX
  8
0
  5
D81
 10
19.5763
 20
3.69270
 30
0.000000
  70
    32
  0
VERTEX
  8
0
  5
D82
 10
19.6249
 20
3.68915
 30
0.000000
  70
    32
  0
VERTEX
  8
0
  5
D83
 10
19.6740
 20
3.68645
 30
0.000000
  70
    32
  0
VERTEX
  8
0
  5
D84
 10
19.7236
 20
3.68458
 30
0.000000
  70
    32
  0
VERTEX
  8
0
  5
D85
 10
19.7735
 20
3.68357
 30
0.000000
  70
    32
  0
VERTEX
  8
0
  5
D86
 10
19.8237
 20
3.68341
 30
0.000000
  70
    32
  0
VERTEX
  8
0
  5
D87
 10
19.8740
 20
3.68410
 30
0.000000
  70
    32
  0
VERTEX
  8
0
  5
D88
 10
19.9242
 20
3.68564
 30
0.000000
  70
    32
  0
VERTEX
  8
0
  5
D89
 10
19.9743
 20
3.68803
 30
0.000000
  70
    32
  0
VERTEX
  8
0
  5
D8A
 10
20.0242
 20
3.69126
 30
0.000000
  70
    32
  0
VERTEX
  8
0
  5
D8B
 10
20.0737
 20
3.69532
 30
0.000000
  70
    32
  0
VERTEX
  8
0
  5
D8C
 10
20.1226
 20
3.70021
 30
0.000000
  70
    32
  0
VERTEX
  8
0
  5
D8D
 10
20.1710
 20
3.70591
 30
0.000000
  70
    32
  0
VERTEX
  8
0
  5
D8E
 10
20.2186
 20
3.71240
 30
0.000000
  70
    32
  0
VERTEX
  8
0
  5
D8F
 10
20.2654
 20
3.71968
 30
0.000000
  70
    32
  0
VERTEX
  8
0
  5
D90
 10
20.3112
 20
3.72772
 30
0.000000
  70
    32
  0
VERTEX
  8
0
  5
D91
 10
20.3559
 20
3.73651
 30
0.000000
  70
    32
  0
VERTEX
  8
0
  5
D92
 10
20.3995
 20
3.74602
 30
0.000000
  70
    32
  0
VERTEX
  8
0
  5
D93
 10
20.4417
 20
3.75624
 30
0.000000
  70
    32
  0
VERTEX
  8
0
  5
D94
 10
20.4826
 20
3.76713
 30
0.000000
  70
    32
  0
VERTEX
  8
0
  5
D95
 10
20.5220
 20
3.77867
 30
0.000000
  70
    32
  0
VERTEX
  8
0
  5
D96
 10
20.5598
 20
3.79083
 30
0.000000
  70
    32
  0
VERTEX
  8
0
  5
D97
 10
20.5960
 20
3.80359
 30
0.000000
  70
    32
  0
VERTEX
  8
0
  5
D98
 10
20.6304
 20
3.81691
 30
0.000000
  70
    32
  0
VERTEX
  8
0
  5
D99
 10
20.6629
 20
3.83076
 30
0.000000
  70
    32
  0
VERTEX
  8
0
  5
D9A
 10
20.6935
 20
3.84511
 30
0.000000
  70
    32
  0
VERTEX
  8
0
  5
D9B
 10
20.7222
 20
3.85992
 30
0.000000
  70
    32
  0
VERTEX
  8
0
  5
D9C
 10
20.7487
 20
3.87516
 30
0.000000
  70
    32
  0
VERTEX
  8
0
  5
D9D
 10
20.7732
 20
3.89079
 30
0.000000
  70
    32
  0
VERTEX
  8
0
  5
D9E
 10
20.7954
 20
3.90677
 30
0.000000
  70
    32
  0
VERTEX
  8
0
  5
D9F
 10
20.8155
 20
3.92306
 30
0.000000
  70
    32
  0
VERTEX
  8
0
  5
DA0
 10
20.8332
 20
3.93963
 30
0.000000
  70
    32
  0
VERTEX
  8
0
  5
DA1
 10
20.8486
 20
3.95643
 30
0.000000
  70
    32
  0
VERTEX
  8
0
  5
DA2
 10
20.8616
 20
3.97343
 30
0.000000
  70
    32
  0
VERTEX
  8
0
  5
DA3
 10
20.8723
 20
3.99058
 30
0.000000
  70
    32
  0
VERTEX
  8
0
  5
DA4
 10
20.8805
 20
4.00785
 30
0.000000
  70
    32
  0
VERTEX
  8
0
  5
DA5
 10
20.8863
 20
4.02518
 30
0.000000
  70
    32
  0
VERTEX
  8
0
  5
DA6
 10
20.8896
 20
4.04255
 30
0.000000
  70
    32
  0
VERTEX
  8
0
  5
DA7
 10
20.8904
 20
4.05990
 30
0.000000
  70
    32
  0
SEQEND
  8
0
  5
DA8
  0
LINE
  5
64D
  8
0
 10
20.88534536329373
 20
4.0690047085075909
 30
0.0
 11
21.258019269898501
 21
4.0690047085075909
 31
0.0
  0
LINE
  5
64E
  8
0
 10
21.258019269898501
 20
4.0690047085075909
 30
0.0
 11
21.258019269898501
 21
4.8821309497900103
 31
0.0
  0
LINE
  5
65F
  8
0
 10
29.390354423559671
 20
5.2618929405479937
 30
0.0
 11
31.081583897516921
 21
5.2618929405479937
 31
0.0
  0
TEXT
  5
660
  8
0
 10
31.195704151990309
 20
5.1833445948456642
 30
0.0
 40
0.2
  1
circuit switcher close/trip
  0
INSERT
  5
661
  8
9
  6
CONTINUOUS
 62
     7
  2
XXXAHD
 10
26.95853683588669
 20
4.2503916629024161
 30
0.0
 41
0.1200000000000045
 42
0.0799958907480303
 43
0.1200000000000045
 50
180.0
  0
INSERT
  5
662
  8
9
  6
CONTINUOUS
 62
     7
  2
XXXAHD
 10
27.439875211083368
 20
4.2506318483402898
 30
0.0
 41
0.1200000000000045
 42
0.0799958907480303
 43
0.1200000000000045
 50
180.0
  0
TEXT
  5
663
  8
0
 10
27.729773370265871
 20
4.191364826223527
 30
0.0
 40
0.2
  1
status inputs
  0
LINE
  5
666
  8
0
 10
27.714782402116409
 20
4.2528103258073884
 30
0.0
 11
26.74376905823722
 21
4.2528103258073884
 31
0.0
  0
LINE
  5
668
  8
SERIAL
 10
26.316573977560981
 20
5.2988165096740536
 30
0.0
 11
27.675513153436849
 21
5.2988165096740536
 31
0.0
  0
TEXT
  5
669
  8
0
 10
27.920484362231079
 20
5.1862854775413387
 30
0.0
 40
0.2
  1
SEL-311B 
  0
INSERT
  5
670
  8
9
  6
CONTINUOUS
 62
     7
  2
XXXAHD
 10
31.086420063946822
 20
5.2636413420714296
 30
0.0
 41
0.1200000000000045
 42
0.0799957263779518
 43
0.1200000000000045
  0
POLYLINE
  5
672
  8
0
 10
15.020972035548436
 20
17.6782545623415
 30
0.0
 66
     1
 70
     8
  0
VERTEX
  8
0
  5
DA9
 10
15.0210
 20
17.6783
 30
0.000000
  70
    32
  0
VERTEX
  8
0
  5
DAA
 10
15.0196
 20
17.7008
 30
0.000000
  70
    32
  0
VERTEX
  8
0
  5
DAB
 10
15.0153
 20
17.7233
 30
0.000000
  70
    32
  0
VERTEX
  8
0
  5
DAC
 10
15.0082
 20
17.7457
 30
0.000000
  70
    32
  0
VERTEX
  8
0
  5
DAD
 10
14.9983
 20
17.7679
 30
0.000000
  70
    32
  0
VERTEX
  8
0
  5
DAE
 10
14.9857
 20
17.7899
 30
0.000000
  70
    32
  0
VERTEX
  8
0
  5
DAF
 10
14.9703
 20
17.8117
 30
0.000000
  70
    32
  0
VERTEX
  8
0
  5
DB0
 10
14.9521
 20
17.8331
 30
0.000000
  70
    32
  0
VERTEX
  8
0
  5
DB1
 10
14.9313
 20
17.8541
 30
0.000000
  70
    32
  0
VERTEX
  8
0
  5
DB2
 10
14.9079
 20
17.8748
 30
0.000000
  70
    32
  0
VERTEX
  8
0
  5
DB3
 10
14.8819
 20
17.8949
 30
0.000000
  70
    32
  0
VERTEX
  8
0
  5
DB4
 10
14.8534
 20
17.9146
 30
0.000000
  70
    32
  0
VERTEX
  8
0
  5
DB5
 10
14.8225
 20
17.9336
 30
0.000000
  70
    32
  0
VERTEX
  8
0
  5
DB6
 10
14.7892
 20
17.9521
 30
0.000000
  70
    32
  0
VERTEX
  8
0
  5
DB7
 10
14.7537
 20
17.9698
 30
0.000000
  70
    32
  0
VERTEX
  8
0
  5
DB8
 10
14.7159
 20
17.9869
 30
0.000000
  70
    32
  0
VERTEX
  8
0
  5
DB9
 10
14.6761
 20
18.0033
 30
0.000000
  70
    32
  0
VERTEX
  8
0
  5
DBA
 10
14.6342
 20
18.0188
 30
0.000000
  70
    32
  0
VERTEX
  8
0
  5
DBB
 10
14.5904
 20
18.0336
 30
0.000000
  70
    32
  0
VERTEX
  8
0
  5
DBC
 10
14.5449
 20
18.0474
 30
0.000000
  70
    32
  0
VERTEX
  8
0
  5
DBD
 10
14.4976
 20
18.0604
 30
0.000000
  70
    32
  0
VERTEX
  8
0
  5
DBE
 10
14.4488
 20
18.0725
 30
0.000000
  70
    32
  0
VERTEX
  8
0
  5
DBF
 10
14.3985
 20
18.0836
 30
0.000000
  70
    32
  0
VERTEX
  8
0
  5
DC0
 10
14.3469
 20
18.0938
 30
0.000000
  70
    32
  0
VERTEX
  8
0
  5
DC1
 10
14.2940
 20
18.1029
 30
0.000000
  70
    32
  0
VERTEX
  8
0
  5
DC2
 10
14.2401
 20
18.1110
 30
0.000000
  70
    32
  0
VERTEX
  8
0
  5
DC3
 10
14.1852
 20
18.1181
 30
0.000000
  70
    32
  0
VERTEX
  8
0
  5
DC4
 10
14.1295
 20
18.1241
 30
0.000000
  70
    32
  0
VERTEX
  8
0
  5
DC5
 10
14.0731
 20
18.1291
 30
0.000000
  70
    32
  0
VERTEX
  8
0
  5
DC6
 10
14.0162
 20
18.1329
 30
0.000000
  70
    32
  0
VERTEX
  8
0
  5
DC7
 10
13.9588
 20
18.1357
 30
0.000000
  70
    32
  0
VERTEX
  8
0
  5
DC8
 10
13.9012
 20
18.1373
 30
0.000000
  70
    32
  0
VERTEX
  8
0
  5
DC9
 10
13.8434
 20
18.1379
 30
0.000000
  70
    32
  0
VERTEX
  8
0
  5
DCA
 10
13.7856
 20
18.1373
 30
0.000000
  70
    32
  0
VERTEX
  8
0
  5
DCB
 10
13.7280
 20
18.1357
 30
0.000000
  70
    32
  0
VERTEX
  8
0
  5
DCC
 10
13.6706
 20
18.1329
 30
0.000000
  70
    32
  0
VERTEX
  8
0
  5
DCD
 10
13.6137
 20
18.1291
 30
0.000000
  70
    32
  0
VERTEX
  8
0
  5
DCE
 10
13.5573
 20
18.1241
 30
0.000000
  70
    32
  0
VERTEX
  8
0
  5
DCF
 10
13.5016
 20
18.1181
 30
0.000000
  70
    32
  0
VERTEX
  8
0
  5
DD0
 10
13.4467
 20
18.1110
 30
0.000000
  70
    32
  0
VERTEX
  8
0
  5
DD1
 10
13.3928
 20
18.1029
 30
0.000000
  70
    32
  0
VERTEX
  8
0
  5
DD2
 10
13.3399
 20
18.0938
 30
0.000000
  70
    32
  0
VERTEX
  8
0
  5
DD3
 10
13.2883
 20
18.0836
 30
0.000000
  70
    32
  0
VERTEX
  8
0
  5
DD4
 10
13.2380
 20
18.0725
 30
0.000000
  70
    32
  0
VERTEX
  8
0
  5
DD5
 10
13.1892
 20
18.0604
 30
0.000000
  70
    32
  0
VERTEX
  8
0
  5
DD6
 10
13.1419
 20
18.0474
 30
0.000000
  70
    32
  0
VERTEX
  8
0
  5
DD7
 10
13.0963
 20
18.0336
 30
0.000000
  70
    32
  0
VERTEX
  8
0
  5
DD8
 10
13.0526
 20
18.0188
 30
0.000000
  70
    32
  0
VERTEX
  8
0
  5
DD9
 10
13.0107
 20
18.0033
 30
0.000000
  70
    32
  0
VERTEX
  8
0
  5
DDA
 10
12.9709
 20
17.9869
 30
0.000000
  70
    32
  0
VERTEX
  8
0
  5
DDB
 10
12.9331
 20
17.9698
 30
0.000000
  70
    32
  0
VERTEX
  8
0
  5
DDC
 10
12.8975
 20
17.9521
 30
0.000000
  70
    32
  0
VERTEX
  8
0
  5
DDD
 10
12.8643
 20
17.9336
 30
0.000000
  70
    32
  0
VERTEX
  8
0
  5
DDE
 10
12.8333
 20
17.9146
 30
0.000000
  70
    32
  0
VERTEX
  8
0
  5
DDF
 10
12.8049
 20
17.8949
 30
0.000000
  70
    32
  0
VERTEX
  8
0
  5
DE0
 10
12.7789
 20
17.8748
 30
0.000000
  70
    32
  0
VERTEX
  8
0
  5
DE1
 10
12.7554
 20
17.8541
 30
0.000000
  70
    32
  0
VERTEX
  8
0
  5
DE2
 10
12.7346
 20
17.8331
 30
0.000000
  70
    32
  0
VERTEX
  8
0
  5
DE3
 10
12.7165
 20
17.8117
 30
0.000000
  70
    32
  0
VERTEX
  8
0
  5
DE4
 10
12.7011
 20
17.7899
 30
0.000000
  70
    32
  0
VERTEX
  8
0
  5
DE5
 10
12.6884
 20
17.7679
 30
0.000000
  70
    32
  0
VERTEX
  8
0
  5
DE6
 10
12.6786
 20
17.7457
 30
0.000000
  70
    32
  0
VERTEX
  8
0
  5
DE7
 10
12.6715
 20
17.7233
 30
0.000000
  70
    32
  0
VERTEX
  8
0
  5
DE8
 10
12.6672
 20
17.7008
 30
0.000000
  70
    32
  0
VERTEX
  8
0
  5
DE9
 10
12.6658
 20
17.6783
 30
0.000000
  70
    32
  0
VERTEX
  8
0
  5
DEA
 10
12.6672
 20
17.6557
 30
0.000000
  70
    32
  0
VERTEX
  8
0
  5
DEB
 10
12.6715
 20
17.6332
 30
0.000000
  70
    32
  0
VERTEX
  8
0
  5
DEC
 10
12.6786
 20
17.6108
 30
0.000000
  70
    32
  0
VERTEX
  8
0
  5
DED
 10
12.6884
 20
17.5886
 30
0.000000
  70
    32
  0
VERTEX
  8
0
  5
DEE
 10
12.7011
 20
17.5666
 30
0.000000
  70
    32
  0
VERTEX
  8
0
  5
DEF
 10
12.7165
 20
17.5448
 30
0.000000
  70
    32
  0
VERTEX
  8
0
  5
DF0
 10
12.7346
 20
17.5234
 30
0.000000
  70
    32
  0
VERTEX
  8
0
  5
DF1
 10
12.7554
 20
17.5024
 30
0.000000
  70
    32
  0
VERTEX
  8
0
  5
DF2
 10
12.7789
 20
17.4817
 30
0.000000
  70
    32
  0
VERTEX
  8
0
  5
DF3
 10
12.8049
 20
17.4616
 30
0.000000
  70
    32
  0
VERTEX
  8
0
  5
DF4
 10
12.8333
 20
17.4420
 30
0.000000
  70
    32
  0
VERTEX
  8
0
  5
DF5
 10
12.8643
 20
17.4229
 30
0.000000
  70
    32
  0
VERTEX
  8
0
  5
DF6
 10
12.8975
 20
17.4045
 30
0.000000
  70
    32
  0
VERTEX
  8
0
  5
DF7
 10
12.9331
 20
17.3867
 30
0.000000
  70
    32
  0
VERTEX
  8
0
  5
DF8
 10
12.9709
 20
17.3696
 30
0.000000
  70
    32
  0
VERTEX
  8
0
  5
DF9
 10
13.0107
 20
17.3532
 30
0.000000
  70
    32
  0
VERTEX
  8
0
  5
DFA
 10
13.0526
 20
17.3377
 30
0.000000
  70
    32
  0
VERTEX
  8
0
  5
DFB
 10
13.0963
 20
17.3230
 30
0.000000
  70
    32
  0
VERTEX
  8
0
  5
DFC
 10
13.1419
 20
17.3091
 30
0.000000
  70
    32
  0
VERTEX
  8
0
  5
DFD
 10
13.1892
 20
17.2961
 30
0.000000
  70
    32
  0
VERTEX
  8
0
  5
DFE
 10
13.2380
 20
17.2840
 30
0.000000
  70
    32
  0
VERTEX
  8
0
  5
DFF
 10
13.2883
 20
17.2729
 30
0.000000
  70
    32
  0
VERTEX
  8
0
  5
E00
 10
13.3399
 20
17.2628
 30
0.000000
  70
    32
  0
VERTEX
  8
0
  5
E01
 10
13.3928
 20
17.2536
 30
0.000000
  70
    32
  0
VERTEX
  8
0
  5
E02
 10
13.4467
 20
17.2455
 30
0.000000
  70
    32
  0
VERTEX
  8
0
  5
E03
 10
13.5016
 20
17.2384
 30
0.000000
  70
    32
  0
VERTEX
  8
0
  5
E04
 10
13.5573
 20
17.2324
 30
0.000000
  70
    32
  0
VERTEX
  8
0
  5
E05
 10
13.6137
 20
17.2275
 30
0.000000
  70
    32
  0
VERTEX
  8
0
  5
E06
 10
13.6706
 20
17.2236
 30
0.000000
  70
    32
  0
VERTEX
  8
0
  5
E07
 10
13.7280
 20
17.2208
 30
0.000000
  70
    32
  0
VERTEX
  8
0
  5
E08
 10
13.7856
 20
17.2192
 30
0.000000
  70
    32
  0
VERTEX
  8
0
  5
E09
 10
13.8434
 20
17.2186
 30
0.000000
  70
    32
  0
VERTEX
  8
0
  5
E0A
 10
13.9012
 20
17.2192
 30
0.000000
  70
    32
  0
VERTEX
  8
0
  5
E0B
 10
13.9588
 20
17.2208
 30
0.000000
  70
    32
  0
VERTEX
  8
0
  5
E0C
 10
14.0162
 20
17.2236
 30
0.000000
  70
    32
  0
VERTEX
  8
0
  5
E0D
 10
14.0731
 20
17.2275
 30
0.000000
  70
    32
  0
VERTEX
  8
0
  5
E0E
 10
14.1295
 20
17.2324
 30
0.000000
  70
    32
  0
VERTEX
  8
0
  5
E0F
 10
14.1852
 20
17.2384
 30
0.000000
  70
    32
  0
VERTEX
  8
0
  5
E10
 10
14.2401
 20
17.2455
 30
0.000000
  70
    32
  0
VERTEX
  8
0
  5
E11
 10
14.2940
 20
17.2536
 30
0.000000
  70
    32
  0
VERTEX
  8
0
  5
E12
 10
14.3469
 20
17.2628
 30
0.000000
  70
    32
  0
VERTEX
  8
0
  5
E13
 10
14.3985
 20
17.2729
 30
0.000000
  70
    32
  0
VERTEX
  8
0
  5
E14
 10
14.4488
 20
17.2840
 30
0.000000
  70
    32
  0
VERTEX
  8
0
  5
E15
 10
14.4976
 20
17.2961
 30
0.000000
  70
    32
  0
VERTEX
  8
0
  5
E16
 10
14.5449
 20
17.3091
 30
0.000000
  70
    32
  0
VERTEX
  8
0
  5
E17
 10
14.5904
 20
17.3230
 30
0.000000
  70
    32
  0
VERTEX
  8
0
  5
E18
 10
14.6342
 20
17.3377
 30
0.000000
  70
    32
  0
VERTEX
  8
0
  5
E19
 10
14.6761
 20
17.3532
 30
0.000000
  70
    32
  0
VERTEX
  8
0
  5
E1A
 10
14.7159
 20
17.3696
 30
0.000000
  70
    32
  0
VERTEX
  8
0
  5
E1B
 10
14.7537
 20
17.3867
 30
0.000000
  70
    32
  0
VERTEX
  8
0
  5
E1C
 10
14.7892
 20
17.4045
 30
0.000000
  70
    32
  0
VERTEX
  8
0
  5
E1D
 10
14.8225
 20
17.4229
 30
0.000000
  70
    32
  0
VERTEX
  8
0
  5
E1E
 10
14.8534
 20
17.4420
 30
0.000000
  70
    32
  0
VERTEX
  8
0
  5
E1F
 10
14.8819
 20
17.4616
 30
0.000000
  70
    32
  0
VERTEX
  8
0
  5
E20
 10
14.9079
 20
17.4817
 30
0.000000
  70
    32
  0
VERTEX
  8
0
  5
E21
 10
14.9313
 20
17.5024
 30
0.000000
  70
    32
  0
VERTEX
  8
0
  5
E22
 10
14.9521
 20
17.5234
 30
0.000000
  70
    32
  0
VERTEX
  8
0
  5
E23
 10
14.9703
 20
17.5448
 30
0.000000
  70
    32
  0
VERTEX
  8
0
  5
E24
 10
14.9857
 20
17.5666
 30
0.000000
  70
    32
  0
VERTEX
  8
0
  5
E25
 10
14.9983
 20
17.5886
 30
0.000000
  70
    32
  0
VERTEX
  8
0
  5
E26
 10
15.0082
 20
17.6108
 30
0.000000
  70
    32
  0
VERTEX
  8
0
  5
E27
 10
15.0153
 20
17.6332
 30
0.000000
  70
    32
  0
VERTEX
  8
0
  5
E28
 10
15.0196
 20
17.6557
 30
0.000000
  70
    32
  0
VERTEX
  8
0
  5
E29
 10
15.0210
 20
17.6783
 30
0.000000
  70
    32
  0
SEQEND
  8
0
  5
E2A
  0
TEXT
  5
679
  8
0
 10
6.2250378779970674
 20
4.6969123118786982
 30
0.0
 40
0.2
  1
LEGEND
  0
LINE
  5
67A
  8
0
 10
6.2366602169525294
 20
4.6272766949378692
 30
0.0
 11
8.7401852947040766
 21
4.6272766949378692
 31
0.0
  0
TEXT
  5
688
  8
0
 10
6.1929049289656311
 20
3.8468151082807012
 30
0.0
 40
0.2
  1
ethernet
  0
TEXT
  5
68F
  8
0
 10
6.1753249235277528
 20
3.4603127390627502
 30
0.0
 40
0.2
  1
fiber
  0
TEXT
  5
696
  8
0
 10
6.1665348599964309
 20
3.082594511982264
 30
0.0
 40
0.2
  1
RS-485
  0
TEXT
  5
69D
  8
0
 10
6.1577447964651242
 20
2.6960921427643139
 30
0.0
 40
0.2
  1
serial
  0
LINE
  5
69E
  8
ETHERNET
 10
7.4067090540328593
 20
3.9428496224827891
 30
0.0
 11
10.31620998804388
 21
3.9428496224827891
 31
0.0
  0
LINE
  5
69F
  8
FIBER
 10
7.3979191121262877
 20
3.5212106847149718
 30
0.0
 11
10.3250000515752
 21
3.5212106847149718
 31
0.0
  0
LINE
  5
6A0
  8
RS485
 10
7.3891290485949659
 20
3.169844941631581
 30
0.0
 11
10.351370120544381
 21
3.169844941631581
 31
0.0
  0
LINE
  5
6A1
  8
SERIAL
 10
7.3979191121262877
 20
2.8009108566885672
 30
0.0
 11
10.34258017863781
 21
2.8009108566885672
 31
0.0
  0
CIRCLE
  5
6B2
  8
SERIAL
 10
6.310481880301281
 20
2.3594342793984628
 30
0.0
 40
0.1449929022449927
  0
TEXT
  5
6B3
  8
0
 10
6.2082781750400784
 20
2.0431289203134071
 30
0.0
 40
0.4
  1
*
  0
TEXT
  5
6BA
  8
0
 10
6.5727149242018754
 20
2.2826150869192139
 30
0.0
 40
0.2
  1
= hardware in stock at Village of Arcade
  0
CIRCLE
  5
6D5
  8
SERIAL
 10
18.322942841373798
 20
21.248696462547919
 30
0.0
 40
0.1449929022449927
  0
TEXT
  5
6D6
  8
0
 10
18.220739136112599
 20
20.932391103462859
 30
0.0
 40
0.4
  1
*
  0
CIRCLE
  5
6DE
  8
SERIAL
 10
15.16557140791021
 20
16.471579456703591
 30
0.0
 40
0.1449929022449927
  0
TEXT
  5
6DF
  8
0
 10
15.063367702649
 20
16.155274097618531
 30
0.0
 40
0.4
  1
*
  0
CIRCLE
  5
6E7
  8
SERIAL
 10
15.224587747536759
 20
14.672788486078071
 30
0.0
 40
0.1449929022449927
  0
TEXT
  5
6E8
  8
0
 10
15.12238404227555
 20
14.356483126993011
 30
0.0
 40
0.4
  1
*
  0
CIRCLE
  5
6F0
  8
SERIAL
 10
15.0770470809075
 20
9.0110202105811226
 30
0.0
 40
0.1449929022449927
  0
TEXT
  5
6F1
  8
0
 10
14.9748433756463
 20
8.6947148514960642
 30
0.0
 40
0.4
  1
*
  0
CIRCLE
  5
6F9
  8
SERIAL
 10
18.26392650174725
 20
19.15502175456643
 30
0.0
 40
0.1449929022449927
  0
TEXT
  5
6FA
  8
0
 10
18.161722796486039
 20
18.83871639548137
 30
0.0
 40
0.4
  1
*
  0
CIRCLE
  5
702
  8
SERIAL
 10
20.506545461560179
 20
19.00757982830374
 30
0.0
 40
0.1449929022449927
  0
TEXT
  5
703
  8
0
 10
20.40434175629898
 20
18.69127446921868
 30
0.0
 40
0.4
  1
*
  0
CIRCLE
  5
70B
  8
SERIAL
 10
22.159001511606601
 20
20.806370798929262
 30
0.0
 40
0.1449929022449927
  0
TEXT
  5
70C
  8
0
 10
22.056797806345401
 20
20.490065439844201
 30
0.0
 40
0.4
  1
*
  0
CIRCLE
  5
714
  8
SERIAL
 10
18.293434732372901
 20
14.171486132572911
 30
0.0
 40
0.1449929022449927
  0
TEXT
  5
715
  8
0
 10
18.191231027111701
 20
13.855180773487859
 30
0.0
 40
0.4
  1
*
  0
CIRCLE
  5
71D
  8
SERIAL
 10
20.299988455304391
 20
14.053532580045831
 30
0.0
 40
0.1449929022449927
  0
TEXT
  5
71E
  8
0
 10
20.197784750043191
 20
13.73722722096077
 30
0.0
 40
0.4
  1
*
  0
CIRCLE
  5
726
  8
SERIAL
 10
21.9229363963499
 20
16.206184093083209
 30
0.0
 40
0.1449929022449927
  0
TEXT
  5
727
  8
0
 10
21.82073269108869
 20
15.88987873399816
 30
0.0
 40
0.4
  1
*
  0
CIRCLE
  5
72F
  8
SERIAL
 10
22.01146084497735
 20
10.780322807471039
 30
0.0
 40
0.1449929022449927
  0
TEXT
  5
730
  8
0
 10
21.90925713971615
 20
10.46401744838599
 30
0.0
 40
0.4
  1
*
  0
CIRCLE
  5
738
  8
SERIAL
 10
18.02786138649056
 20
5.0006010370317142
 30
0.0
 40
0.1449929022449927
  0
TEXT
  5
739
  8
0
 10
17.92565768122935
 20
4.6842956779466567
 30
0.0
 40
0.4
  1
*
  0
CIRCLE
  5
741
  8
SERIAL
 10
18.824581302512868
 20
3.6441356724401501
 30
0.0
 40
0.1449929022449927
  0
TEXT
  5
742
  8
0
 10
18.722377597251661
 20
3.3278303133550931
 30
0.0
 40
0.4
  1
*
  0
CIRCLE
  5
74A
  8
SERIAL
 10
20.949167704697441
 20
6.032694175362316
 30
0.0
 40
0.1449929022449927
  0
TEXT
  5
74B
  8
0
 10
20.846963999436241
 20
5.7163888162772594
 30
0.0
 40
0.4
  1
*
  0
CIRCLE
  5
753
  8
SERIAL
 10
22.365558517862421
 20
6.8583687551284314
 30
0.0
 40
0.1449929022449927
  0
TEXT
  5
754
  8
0
 10
22.263354812601222
 20
6.5420633960433738
 30
0.0
 40
0.4
  1
*
  0
INSERT
  5
77A
  8
RS485
  2
*U9
 10
0.0
 20
0.0
 30
0.0
  0
TEXT
  5
7A5
  8
SERIAL
 10
5.1107934345145054
 20
-0.9193644860067706
 30
0.0
 40
0.1447913631942299
  1
1
  0
TEXT
  5
7AE
  8
SERIAL
 10
5.530506684744779
 20
-0.9031580473202751
 30
0.0
 40
0.1447913631942299
  1
4/4/13
  0
TEXT
  5
7B5
  8
SERIAL
 10
7.6020205115526656
 20
-0.9095510196575702
 30
0.0
 40
0.1447913631942299
  1
updates
  0
TEXT
  5
7B6
  8
SERIAL
 10
9.3852755338782003
 20
-0.9137956317950113
 30
0.0
 40
0.1447913631942299
  1
JPT
  0
INSERT
  5
7B8
  8
RS485
  2
*U10
 10
0.0
 20
0.0
 30
0.0
  0
INSERT
  5
7BF
  8
RS485
  2
*U11
 10
0.0
 20
0.0
 30
0.0
  0
LINE
  5
7C7
  8
RS485
 10
26.242134163368348
 20
12.395548805535819
 30
0.0
 11
27.60107333924422
 21
12.395548805535819
 31
0.0
  0
TEXT
  5
7C8
  8
0
 10
27.846044548038449
 20
12.28301777340311
 30
0.0
 40
0.2
  1
RS-485 to ABB TPU-2000R
  0
INSERT
  5
7CF
  8
9
  6
CONTINUOUS
 62
     7
  2
XXXAHD
 10
27.723037573912858
 20
12.395701895718171
 30
0.0
 41
0.1200000000000045
 42
0.0799957263779518
 43
0.1200000000000045
  0
INSERT
  5
7D6
  8
RS485
  2
*U12
 10
0.0
 20
0.0
 30
0.0
  0
INSERT
  5
7DD
  8
RS485
  2
*U13
 10
0.0
 20
0.0
 30
0.0
  0
INSERT
  5
7E5
  8
RS485
  2
*U14
 10
0.0
 20
0.0
 30
0.0
  0
TEXT
  5
7EC
  8
0
 10
6.5715786117566921
 20
15.259719060289809
 30
0.0
 40
0.2
  1
Scada
  0
LINE
  5
81F
  8
0
 10
32.202938989727869
 20
8.8280786344816988
 30
0.0
 11
33.402245966775652
 21
8.8280786344816988
 31
0.0
  0
CIRCLE
  5
88A
  8
SERIAL
 10
27.119294799802951
 20
21.625722462205388
 30
0.0
 40
0.1449929022449927
  0
TEXT
  5
88B
  8
0
 10
27.01709109454174
 20
21.309417103120332
 30
0.0
 40
0.4
  1
*
  0
TEXT
  5
8B6
  8
SERIAL
 10
5.1045217034931616
 20
-0.7091242725729643
 30
0.0
 40
0.1447913631942299
  1
2
  0
TEXT
  5
8B7
  8
SERIAL
 10
5.5242349537234361
 20
-0.6929178338864688
 30
0.0
 40
0.1447913631942299
  1
4/10/13
  0
TEXT
  5
8B8
  8
SERIAL
 10
7.5957487805313226
 20
-0.6993108062237639
 30
0.0
 40
0.1447913631942299
  1
updates
  0
TEXT
  5
8B9
  8
SERIAL
 10
9.3790038028568574
 20
-0.7035554183612051
 30
0.0
 40
0.1447913631942299
  1
JPT
  0
LINE
  5
8C1
  8
ETHERNET
 10
11.18982466992828
 20
18.75507518605373
 30
0.0
 11
13.77908278232155
 21
18.75507518605373
 31
0.0
  0
LINE
  5
8C2
  8
ETHERNET
 10
13.77908278232155
 20
18.75507518605373
 30
0.0
 11
13.77908278232155
 21
20.63197031654656
 31
0.0
  0
TEXT
  5
8C9
  8
0
 10
13.402364843555571
 20
21.027104281218069
 30
0.0
 40
0.2
  1
network
  0
TEXT
  5
8D4
  8
0
 10
12.9416982350117
 20
6.8304102439450807
 30
0.0
 40
0.2
  1
portable laptop
  0
LINE
  5
8D5
  8
ETHERNET
 10
12.650727868037579
 20
6.746569344668913
 30
0.0
 11
11.19707585491162
 21
6.746569344668913
 31
0.0
  0
POLYLINE
  5
8D6
  8
0
 10
15.003236365588046
 20
6.7178518860383534
 30
0.0
 66
     1
 70
     8
  0
VERTEX
  8
0
  5
E2B
 10
15.0032
 20
6.71785
 30
0.000000
  70
    32
  0
VERTEX
  8
0
  5
E2C
 10
15.0018
 20
6.74041
 30
0.000000
  70
    32
  0
VERTEX
  8
0
  5
E2D
 10
14.9976
 20
6.76290
 30
0.000000
  70
    32
  0
VERTEX
  8
0
  5
E2E
 10
14.9905
 20
6.78529
 30
0.000000
  70
    32
  0
VERTEX
  8
0
  5
E2F
 10
14.9806
 20
6.80752
 30
0.000000
  70
    32
  0
VERTEX
  8
0
  5
E30
 10
14.9679
 20
6.82953
 30
0.000000
  70
    32
  0
VERTEX
  8
0
  5
E31
 10
14.9525
 20
6.85128
 30
0.000000
  70
    32
  0
VERTEX
  8
0
  5
E32
 10
14.9344
 20
6.87270
 30
0.000000
  70
    32
  0
VERTEX
  8
0
  5
E33
 10
14.9136
 20
6.89375
 30
0.000000
  70
    32
  0
VERTEX
  8
0
  5
E34
 10
14.8902
 20
6.91437
 30
0.000000
  70
    32
  0
VERTEX
  8
0
  5
E35
 10
14.8642
 20
6.93452
 30
0.000000
  70
    32
  0
VERTEX
  8
0
  5
E36
 10
14.8357
 20
6.95415
 30
0.000000
  70
    32
  0
VERTEX
  8
0
  5
E37
 10
14.8048
 20
6.97321
 30
0.000000
  70
    32
  0
VERTEX
  8
0
  5
E38
 10
14.7715
 20
6.99166
 30
0.000000
  70
    32
  0
VERTEX
  8
0
  5
E39
 10
14.7359
 20
7.00944
 30
0.000000
  70
    32
  0
VERTEX
  8
0
  5
E3A
 10
14.6982
 20
7.02652
 30
0.000000
  70
    32
  0
VERTEX
  8
0
  5
E3B
 10
14.6583
 20
7.04286
 30
0.000000
  70
    32
  0
VERTEX
  8
0
  5
E3C
 10
14.6165
 20
7.05842
 30
0.000000
  70
    32
  0
VERTEX
  8
0
  5
E3D
 10
14.5727
 20
7.07315
 30
0.000000
  70
    32
  0
VERTEX
  8
0
  5
E3E
 10
14.5271
 20
7.08703
 30
0.000000
  70
    32
  0
VERTEX
  8
0
  5
E3F
 10
14.4799
 20
7.10002
 30
0.000000
  70
    32
  0
VERTEX
  8
0
  5
E40
 10
14.4311
 20
7.11209
 30
0.000000
  70
    32
  0
VERTEX
  8
0
  5
E41
 10
14.3808
 20
7.12321
 30
0.000000
  70
    32
  0
VERTEX
  8
0
  5
E42
 10
14.3291
 20
7.13336
 30
0.000000
  70
    32
  0
VERTEX
  8
0
  5
E43
 10
14.2763
 20
7.14250
 30
0.000000
  70
    32
  0
VERTEX
  8
0
  5
E44
 10
14.2224
 20
7.15062
 30
0.000000
  70
    32
  0
VERTEX
  8
0
  5
E45
 10
14.1675
 20
7.15769
 30
0.000000
  70
    32
  0
VERTEX
  8
0
  5
E46
 10
14.1118
 20
7.16371
 30
0.000000
  70
    32
  0
VERTEX
  8
0
  5
E47
 10
14.0554
 20
7.16865
 30
0.000000
  70
    32
  0
VERTEX
  8
0
  5
E48
 10
13.9984
 20
7.17251
 30
0.000000
  70
    32
  0
VERTEX
  8
0
  5
E49
 10
13.9411
 20
7.17527
 30
0.000000
  70
    32
  0
VERTEX
  8
0
  5
E4A
 10
13.8834
 20
7.17693
 30
0.000000
  70
    32
  0
VERTEX
  8
0
  5
E4B
 10
13.8257
 20
7.17749
 30
0.000000
  70
    32
  0
VERTEX
  8
0
  5
E4C
 10
13.7679
 20
7.17693
 30
0.000000
  70
    32
  0
VERTEX
  8
0
  5
E4D
 10
13.7102
 20
7.17527
 30
0.000000
  70
    32
  0
VERTEX
  8
0
  5
E4E
 10
13.6529
 20
7.17251
 30
0.000000
  70
    32
  0
VERTEX
  8
0
  5
E4F
 10
13.5959
 20
7.16865
 30
0.000000
  70
    32
  0
VERTEX
  8
0
  5
E50
 10
13.5395
 20
7.16371
 30
0.000000
  70
    32
  0
VERTEX
  8
0
  5
E51
 10
13.4838
 20
7.15769
 30
0.000000
  70
    32
  0
VERTEX
  8
0
  5
E52
 10
13.4289
 20
7.15062
 30
0.000000
  70
    32
  0
VERTEX
  8
0
  5
E53
 10
13.3750
 20
7.14250
 30
0.000000
  70
    32
  0
VERTEX
  8
0
  5
E54
 10
13.3222
 20
7.13336
 30
0.000000
  70
    32
  0
VERTEX
  8
0
  5
E55
 10
13.2705
 20
7.12321
 30
0.000000
  70
    32
  0
VERTEX
  8
0
  5
E56
 10
13.2203
 20
7.11209
 30
0.000000
  70
    32
  0
VERTEX
  8
0
  5
E57
 10
13.1714
 20
7.10002
 30
0.000000
  70
    32
  0
VERTEX
  8
0
  5
E58
 10
13.1242
 20
7.08703
 30
0.000000
  70
    32
  0
VERTEX
  8
0
  5
E59
 10
13.0786
 20
7.07315
 30
0.000000
  70
    32
  0
VERTEX
  8
0
  5
E5A
 10
13.0348
 20
7.05842
 30
0.000000
  70
    32
  0
VERTEX
  8
0
  5
E5B
 10
12.9930
 20
7.04286
 30
0.000000
  70
    32
  0
VERTEX
  8
0
  5
E5C
 10
12.9531
 20
7.02652
 30
0.000000
  70
    32
  0
VERTEX
  8
0
  5
E5D
 10
12.9154
 20
7.00944
 30
0.000000
  70
    32
  0
VERTEX
  8
0
  5
E5E
 10
12.8798
 20
6.99166
 30
0.000000
  70
    32
  0
VERTEX
  8
0
  5
E5F
 10
12.8465
 20
6.97321
 30
0.000000
  70
    32
  0
VERTEX
  8
0
  5
E60
 10
12.8156
 20
6.95415
 30
0.000000
  70
    32
  0
VERTEX
  8
0
  5
E61
 10
12.7871
 20
6.93452
 30
0.000000
  70
    32
  0
VERTEX
  8
0
  5
E62
 10
12.7611
 20
6.91437
 30
0.000000
  70
    32
  0
VERTEX
  8
0
  5
E63
 10
12.7377
 20
6.89375
 30
0.000000
  70
    32
  0
VERTEX
  8
0
  5
E64
 10
12.7169
 20
6.87270
 30
0.000000
  70
    32
  0
VERTEX
  8
0
  5
E65
 10
12.6988
 20
6.85128
 30
0.000000
  70
    32
  0
VERTEX
  8
0
  5
E66
 10
12.6834
 20
6.82953
 30
0.000000
  70
    32
  0
VERTEX
  8
0
  5
E67
 10
12.6707
 20
6.80752
 30
0.000000
  70
    32
  0
VERTEX
  8
0
  5
E68
 10
12.6608
 20
6.78529
 30
0.000000
  70
    32
  0
VERTEX
  8
0
  5
E69
 10
12.6537
 20
6.76290
 30
0.000000
  70
    32
  0
VERTEX
  8
0
  5
E6A
 10
12.6495
 20
6.74041
 30
0.000000
  70
    32
  0
VERTEX
  8
0
  5
E6B
 10
12.6481
 20
6.71785
 30
0.000000
  70
    32
  0
VERTEX
  8
0
  5
E6C
 10
12.6495
 20
6.69530
 30
0.000000
  70
    32
  0
VERTEX
  8
0
  5
E6D
 10
12.6537
 20
6.67280
 30
0.000000
  70
    32
  0
VERTEX
  8
0
  5
E6E
 10
12.6608
 20
6.65041
 30
0.000000
  70
    32
  0
VERTEX
  8
0
  5
E6F
 10
12.6707
 20
6.62818
 30
0.000000
  70
    32
  0
VERTEX
  8
0
  5
E70
 10
12.6834
 20
6.60617
 30
0.000000
  70
    32
  0
VERTEX
  8
0
  5
E71
 10
12.6988
 20
6.58443
 30
0.000000
  70
    32
  0
VERTEX
  8
0
  5
E72
 10
12.7169
 20
6.56301
 30
0.000000
  70
    32
  0
VERTEX
  8
0
  5
E73
 10
12.7377
 20
6.54196
 30
0.000000
  70
    32
  0
VERTEX
  8
0
  5
E74
 10
12.7611
 20
6.52133
 30
0.000000
  70
    32
  0
VERTEX
  8
0
  5
E75
 10
12.7871
 20
6.50118
 30
0.000000
  70
    32
  0
VERTEX
  8
0
  5
E76
 10
12.8156
 20
6.48155
 30
0.000000
  70
    32
  0
VERTEX
  8
0
  5
E77
 10
12.8465
 20
6.46249
 30
0.000000
  70
    32
  0
VERTEX
  8
0
  5
E78
 10
12.8798
 20
6.44405
 30
0.000000
  70
    32
  0
VERTEX
  8
0
  5
E79
 10
12.9154
 20
6.42626
 30
0.000000
  70
    32
  0
VERTEX
  8
0
  5
E7A
 10
12.9531
 20
6.40918
 30
0.000000
  70
    32
  0
VERTEX
  8
0
  5
E7B
 10
12.9930
 20
6.39284
 30
0.000000
  70
    32
  0
VERTEX
  8
0
  5
E7C
 10
13.0348
 20
6.37729
 30
0.000000
  70
    32
  0
VERTEX
  8
0
  5
E7D
 10
13.0786
 20
6.36255
 30
0.000000
  70
    32
  0
VERTEX
  8
0
  5
E7E
 10
13.1242
 20
6.34867
 30
0.000000
  70
    32
  0
VERTEX
  8
0
  5
E7F
 10
13.1714
 20
6.33568
 30
0.000000
  70
    32
  0
VERTEX
  8
0
  5
E80
 10
13.2203
 20
6.32361
 30
0.000000
  70
    32
  0
VERTEX
  8
0
  5
E81
 10
13.2705
 20
6.31249
 30
0.000000
  70
    32
  0
VERTEX
  8
0
  5
E82
 10
13.3222
 20
6.30235
 30
0.000000
  70
    32
  0
VERTEX
  8
0
  5
E83
 10
13.3750
 20
6.29321
 30
0.000000
  70
    32
  0
VERTEX
  8
0
  5
E84
 10
13.4289
 20
6.28509
 30
0.000000
  70
    32
  0
VERTEX
  8
0
  5
E85
 10
13.4838
 20
6.27801
 30
0.000000
  70
    32
  0
VERTEX
  8
0
  5
E86
 10
13.5395
 20
6.27199
 30
0.000000
  70
    32
  0
VERTEX
  8
0
  5
E87
 10
13.5959
 20
6.26705
 30
0.000000
  70
    32
  0
VERTEX
  8
0
  5
E88
 10
13.6529
 20
6.26319
 30
0.000000
  70
    32
  0
VERTEX
  8
0
  5
E89
 10
13.7102
 20
6.26043
 30
0.000000
  70
    32
  0
VERTEX
  8
0
  5
E8A
 10
13.7679
 20
6.25877
 30
0.000000
  70
    32
  0
VERTEX
  8
0
  5
E8B
 10
13.8257
 20
6.25822
 30
0.000000
  70
    32
  0
VERTEX
  8
0
  5
E8C
 10
13.8834
 20
6.25877
 30
0.000000
  70
    32
  0
VERTEX
  8
0
  5
E8D
 10
13.9411
 20
6.26043
 30
0.000000
  70
    32
  0
VERTEX
  8
0
  5
E8E
 10
13.9984
 20
6.26319
 30
0.000000
  70
    32
  0
VERTEX
  8
0
  5
E8F
 10
14.0554
 20
6.26705
 30
0.000000
  70
    32
  0
VERTEX
  8
0
  5
E90
 10
14.1118
 20
6.27199
 30
0.000000
  70
    32
  0
VERTEX
  8
0
  5
E91
 10
14.1675
 20
6.27801
 30
0.000000
  70
    32
  0
VERTEX
  8
0
  5
E92
 10
14.2224
 20
6.28509
 30
0.000000
  70
    32
  0
VERTEX
  8
0
  5
E93
 10
14.2763
 20
6.29321
 30
0.000000
  70
    32
  0
VERTEX
  8
0
  5
E94
 10
14.3291
 20
6.30235
 30
0.000000
  70
    32
  0
VERTEX
  8
0
  5
E95
 10
14.3808
 20
6.31249
 30
0.000000
  70
    32
  0
VERTEX
  8
0
  5
E96
 10
14.4311
 20
6.32361
 30
0.000000
  70
    32
  0
VERTEX
  8
0
  5
E97
 10
14.4799
 20
6.33568
 30
0.000000
  70
    32
  0
VERTEX
  8
0
  5
E98
 10
14.5271
 20
6.34867
 30
0.000000
  70
    32
  0
VERTEX
  8
0
  5
E99
 10
14.5727
 20
6.36255
 30
0.000000
  70
    32
  0
VERTEX
  8
0
  5
E9A
 10
14.6165
 20
6.37729
 30
0.000000
  70
    32
  0
VERTEX
  8
0
  5
E9B
 10
14.6583
 20
6.39284
 30
0.000000
  70
    32
  0
VERTEX
  8
0
  5
E9C
 10
14.6982
 20
6.40918
 30
0.000000
  70
    32
  0
VERTEX
  8
0
  5
E9D
 10
14.7359
 20
6.42626
 30
0.000000
  70
    32
  0
VERTEX
  8
0
  5
E9E
 10
14.7715
 20
6.44405
 30
0.000000
  70
    32
  0
VERTEX
  8
0
  5
E9F
 10
14.8048
 20
6.46249
 30
0.000000
  70
    32
  0
VERTEX
  8
0
  5
EA0
 10
14.8357
 20
6.48155
 30
0.000000
  70
    32
  0
VERTEX
  8
0
  5
EA1
 10
14.8642
 20
6.50118
 30
0.000000
  70
    32
  0
VERTEX
  8
0
  5
EA2
 10
14.8902
 20
6.52133
 30
0.000000
  70
    32
  0
VERTEX
  8
0
  5
EA3
 10
14.9136
 20
6.54196
 30
0.000000
  70
    32
  0
VERTEX
  8
0
  5
EA4
 10
14.9344
 20
6.56301
 30
0.000000
  70
    32
  0
VERTEX
  8
0
  5
EA5
 10
14.9525
 20
6.58443
 30
0.000000
  70
    32
  0
VERTEX
  8
0
  5
EA6
 10
14.9679
 20
6.60617
 30
0.000000
  70
    32
  0
VERTEX
  8
0
  5
EA7
 10
14.9806
 20
6.62818
 30
0.000000
  70
    32
  0
VERTEX
  8
0
  5
EA8
 10
14.9905
 20
6.65041
 30
0.000000
  70
    32
  0
VERTEX
  8
0
  5
EA9
 10
14.9976
 20
6.67280
 30
0.000000
  70
    32
  0
VERTEX
  8
0
  5
EAA
 10
15.0018
 20
6.69530
 30
0.000000
  70
    32
  0
VERTEX
  8
0
  5
EAB
 10
15.0032
 20
6.71785
 30
0.000000
  70
    32
  0
SEQEND
  8
0
  5
EAC
  0
CIRCLE
  5
8D7
  8
SERIAL
 10
12.78951118819178
 20
6.298245112158944
 30
0.0
 40
0.1449929022449927
  0
TEXT
  5
8D8
  8
0
 10
12.68730748293058
 20
5.9819397530738883
 30
0.0
 40
0.4
  1
*
  0
TEXT
  5
8DF
  8
0
 10
12.93270539006326
 20
6.565890760535722
 30
0.0
 40
0.2
  1
workstation
  0
TEXT
  5
903
  8
SERIAL
 10
5.1109295594312982
 20
-0.5057013980449839
 30
0.0
 40
0.1447913631942299
  1
3
  0
TEXT
  5
904
  8
SERIAL
 10
5.530642809661571
 20
-0.4894949593584883
 30
0.0
 40
0.1447913631942299
  1
7/26/13
  0
TEXT
  5
905
  8
SERIAL
 10
6.476220723034487
 20
-0.522177215346467
 30
0.0
 40
0.1447913631942299
  1
remove RTAC, add ePAQ
  0
TEXT
  5
906
  8
SERIAL
 10
9.3854116587949932
 20
-0.5001325438332245
 30
0.0
 40
0.1447913631942299
  1
JPT
  0
TEXT
  5
909
  8
0
 10
25.2145225687234
 20
4.1339278108706452
 30
0.0
 40
0.2
  1
SIM-9450
  0
POLYLINE
  5
90A
  8
0
 66
     1
 10
0.0
 20
0.0
 30
0.0
 70
     1
  0
VERTEX
  5
C3C
  8
0
 10
25.048245731835479
 20
4.4766321248017169
 30
0.0
  0
VERTEX
  5
C3D
  8
0
 10
26.744012718256851
 20
4.4766321248017169
 30
0.0
  0
VERTEX
  5
C3E
  8
0
 10
26.744012718256851
 20
3.8965905899148292
 30
0.0
  0
VERTEX
  5
C3F
  8
0
 10
25.048245731835479
 20
3.8965905899148292
 30
0.0
  0
SEQEND
  5
C40
  8
0
  0
LINE
  5
911
  8
0
 10
25.849023509806759
 20
4.974858966685737
 30
0.0
 11
25.849023509806759
 21
4.4982141831885647
 31
0.0
  0
INSERT
  5
91F
  8
9
  6
CONTINUOUS
 62
     7
  2
XXXAHD
 10
27.876377866295861
 20
7.8727732716075627
 30
0.0
 41
0.1200000000000045
 42
0.0799958907480303
 43
0.1200000000000045
 50
180.0
  0
INSERT
  5
920
  8
9
  6
CONTINUOUS
 62
     7
  2
XXXAHD
 10
26.88259034982968
 20
7.8647317992821888
 30
0.0
 41
0.1200000000000045
 42
0.0799958907480303
 43
0.1200000000000045
 50
180.0
  0
TEXT
  5
921
  8
0
 10
28.274689232608431
 20
7.8082253109279298
 30
0.0
 40
0.2
  1
status inputs
  0
LINE
  5
922
  8
0
 10
28.128510884741921
 20
7.8669102767492873
 30
0.0
 11
26.186484196983528
 21
7.8669102767492873
 31
0.0
  0
TEXT
  5
923
  8
0
 10
24.647871049101472
 20
8.0288396702596074
 30
0.0
 40
0.2
  1
SIM-9450
  0
POLYLINE
  5
924
  8
0
 66
     1
 10
0.0
 20
0.0
 30
0.0
 70
     1
  0
VERTEX
  5
C41
  8
0
 10
24.481594212213551
 20
8.37154398419068
 30
0.0
  0
VERTEX
  5
C42
  8
0
 10
26.17736119863493
 20
8.37154398419068
 30
0.0
  0
VERTEX
  5
C43
  8
0
 10
26.17736119863493
 20
7.791502449303791
 30
0.0
  0
VERTEX
  5
C44
  8
0
 10
24.481594212213551
 20
7.791502449303791
 30
0.0
  0
SEQEND
  5
C45
  8
0
  0
LINE
  5
925
  8
0
 10
25.73769202274676
 20
9.3247859126357824
 30
0.0
 11
25.73769202274676
 21
8.3714963456414395
 31
0.0
  0
TEXT
  5
92D
  8
0
 10
26.75340304849561
 20
8.7647945827999152
 30
0.0
 40
0.2
  1
COM-9460
  0
POLYLINE
  5
92E
  8
0
 66
     1
 10
0.0
 20
0.0
 30
0.0
 70
     1
  0
VERTEX
  5
C46
  8
0
 10
26.5871262116077
 20
9.1074988967309878
 30
0.0
  0
VERTEX
  5
C47
  8
0
 10
28.282893198029068
 20
9.1074988967309878
 30
0.0
  0
VERTEX
  5
C48
  8
0
 10
28.282893198029068
 20
8.5274573618440996
 30
0.0
  0
VERTEX
  5
C49
  8
0
 10
26.5871262116077
 20
8.5274573618440996
 30
0.0
  0
SEQEND
  5
C4A
  8
0
  0
LINE
  5
92F
  8
0
 10
26.03659142513289
 20
9.326712243366245
 30
0.0
 11
26.03659142513289
 21
8.8500350992748462
 31
0.0
  0
LINE
  5
930
  8
0
 10
26.03659142513289
 20
8.8500350992748462
 30
0.0
 11
26.589907638305451
 21
8.8500350992748462
 31
0.0
  0
TEXT
  5
938
  8
0
 10
30.484402461176099
 20
8.7455159713325852
 30
0.0
 40
0.2
  1
ROP-9470 #1
  0
POLYLINE
  5
939
  8
0
 66
     1
 10
0.0
 20
0.0
 30
0.0
 70
     1
  0
VERTEX
  5
C4B
  8
0
 10
30.49441561292333
 20
9.1070958294342859
 30
0.0
  0
VERTEX
  5
C4C
  8
0
 10
32.190182599344709
 20
9.1070958294342859
 30
0.0
  0
VERTEX
  5
C4D
  8
0
 10
32.190182599344709
 20
8.5270542945473977
 30
0.0
  0
VERTEX
  5
C4E
  8
0
 10
30.49441561292333
 20
8.5270542945473977
 30
0.0
  0
SEQEND
  5
C4F
  8
0
  0
TEXT
  5
941
  8
0
 10
30.48440234719445
 20
7.7994681531404728
 30
0.0
 40
0.2
  1
ROP-9470 #2
  0
POLYLINE
  5
942
  8
0
 66
     1
 10
0.0
 20
0.0
 30
0.0
 70
     1
  0
VERTEX
  5
C50
  8
0
 10
30.49441561292333
 20
8.1484643359356923
 30
0.0
  0
VERTEX
  5
C51
  8
0
 10
32.190182599344709
 20
8.1484643359356923
 30
0.0
  0
VERTEX
  5
C52
  8
0
 10
32.190182599344709
 20
7.5684228010488042
 30
0.0
  0
VERTEX
  5
C53
  8
0
 10
30.49441561292333
 20
7.5684228010488042
 30
0.0
  0
SEQEND
  5
C54
  8
0
  0
LINE
  5
943
  8
0
 10
28.284867838866429
 20
8.8329943943887983
 30
0.0
 11
30.494206030915791
 21
8.8329943943887983
 31
0.0
  0
LINE
  5
944
  8
0
 10
30.49149843743217
 20
8.6760633022333522
 30
0.0
 11
30.096200166402411
 21
8.6760633022333522
 31
0.0
  0
LINE
  5
945
  8
0
 10
30.096200166402411
 20
8.6760633022333522
 30
0.0
 11
30.096200166402411
 21
7.8832906974991408
 31
0.0
  0
LINE
  5
946
  8
0
 10
30.096200166402411
 20
7.8832906974991408
 30
0.0
 11
30.494206030915791
 21
7.8832906974991408
 31
0.0
  0
LINE
  5
969
  8
0
 10
32.204921183453052
 20
10.521967506177649
 30
0.0
 11
33.464623759295073
 21
10.521967506177649
 31
0.0
  0
LINE
  5
96A
  8
0
 10
32.201901666230071
 20
10.17690625067806
 30
0.0
 11
33.4810663301228
 21
10.17690625067806
 31
0.0
  0
INSERT
  5
96B
  8
9
  6
CONTINUOUS
 62
     7
  2
XXXAHD
 10
33.579821245846247
 20
10.53748550239747
 30
0.0
 41
0.1200000000000045
 42
0.0799957263779518
 43
0.1200000000000045
  0
INSERT
  5
96C
  8
9
  6
CONTINUOUS
 62
     7
  2
XXXAHD
 10
33.562182738906287
 20
10.17026318009961
 30
0.0
 41
0.1200000000000045
 42
0.0799957263779518
 43
0.1200000000000045
  0
TEXT
  5
96D
  8
0
 10
33.627383330198043
 20
10.432506860762791
 30
0.0
 40
0.2
  1
1 voltage reduction output
  0
TEXT
  5
96E
  8
0
 10
33.595186584596192
 20
10.09835790497573
 30
0.0
 40
0.2
  1
main, 4 fdrs, ckt switcher close/trip
  0
INSERT
  5
96F
  8
9
  6
CONTINUOUS
 62
     7
  2
XXXAHD
 10
33.534103608993341
 20
11.312617830137899
 30
0.0
 41
0.1200000000000045
 42
0.0799957263779518
 43
0.1200000000000045
  0
TEXT
  5
970
  8
0
 10
33.586188674341948
 20
11.22421240924764
 30
0.0
 40
0.2
  1
4 recloser enable/disable controls
  0
LINE
  5
971
  8
0
 10
32.213290563704483
 20
11.31227658560352
 30
0.0
 11
33.412597540752259
 21
11.31227658560352
 31
0.0
  0
INSERT
  5
972
  8
9
  6
CONTINUOUS
 62
     7
  2
XXXAHD
 10
27.886729440272461
 20
10.35697122272939
 30
0.0
 41
0.1200000000000045
 42
0.0799958907480303
 43
0.1200000000000045
 50
180.0
  0
INSERT
  5
973
  8
9
  6
CONTINUOUS
 62
     7
  2
XXXAHD
 10
26.892941923806291
 20
10.34892975040402
 30
0.0
 41
0.1200000000000045
 42
0.0799958907480303
 43
0.1200000000000045
 50
180.0
  0
TEXT
  5
974
  8
0
 10
28.28504080658503
 20
10.292423262049761
 30
0.0
 40
0.2
  1
status inputs
  0
LINE
  5
975
  8
0
 10
28.138862458718521
 20
10.35110822787111
 30
0.0
 11
26.196835770960138
 21
10.35110822787111
 31
0.0
  0
TEXT
  5
976
  8
0
 10
24.658222623078078
 20
10.51303762138143
 30
0.0
 40
0.2
  1
SIM-9450
  0
POLYLINE
  5
977
  8
0
 66
     1
 10
0.0
 20
0.0
 30
0.0
 70
     1
  0
VERTEX
  5
C55
  8
0
 10
24.491945786190161
 20
10.85574193531251
 30
0.0
  0
VERTEX
  5
C56
  8
0
 10
26.18771277261153
 20
10.85574193531251
 30
0.0
  0
VERTEX
  5
C57
  8
0
 10
26.18771277261153
 20
10.27570040042562
 30
0.0
  0
VERTEX
  5
C58
  8
0
 10
24.491945786190161
 20
10.27570040042562
 30
0.0
  0
SEQEND
  5
C59
  8
0
  0
LINE
  5
978
  8
0
 10
25.74804359672337
 20
11.808983863757611
 30
0.0
 11
25.74804359672337
 21
10.855694296763261
 31
0.0
  0
TEXT
  5
979
  8
0
 10
26.76375462247222
 20
11.24899253392174
 30
0.0
 40
0.2
  1
COM-9460
  0
POLYLINE
  5
97A
  8
0
 66
     1
 10
0.0
 20
0.0
 30
0.0
 70
     1
  0
VERTEX
  5
C5A
  8
0
 10
26.597477785584299
 20
11.591696847852811
 30
0.0
  0
VERTEX
  5
C5B
  8
0
 10
28.293244772005679
 20
11.591696847852811
 30
0.0
  0
VERTEX
  5
C5C
  8
0
 10
28.293244772005679
 20
11.01165531296593
 30
0.0
  0
VERTEX
  5
C5D
  8
0
 10
26.597477785584299
 20
11.01165531296593
 30
0.0
  0
SEQEND
  5
C5E
  8
0
  0
LINE
  5
97B
  8
0
 10
26.04694299910949
 20
11.81091019448807
 30
0.0
 11
26.04694299910949
 21
11.334233050396669
 31
0.0
  0
LINE
  5
97C
  8
0
 10
26.04694299910949
 20
11.334233050396669
 30
0.0
 11
26.600259212282062
 21
11.334233050396669
 31
0.0
  0
POLYLINE
  5
97E
  8
0
 66
     1
 10
0.0
 20
0.0
 30
0.0
 70
     1
  0
VERTEX
  5
C5F
  8
0
 10
30.50476718689994
 20
11.591293780556111
 30
0.0
  0
VERTEX
  5
C60
  8
0
 10
32.200534173321323
 20
11.591293780556111
 30
0.0
  0
VERTEX
  5
C61
  8
0
 10
32.200534173321323
 20
11.011252245669221
 30
0.0
  0
VERTEX
  5
C62
  8
0
 10
30.50476718689994
 20
11.011252245669221
 30
0.0
  0
SEQEND
  5
C63
  8
0
  0
POLYLINE
  5
980
  8
0
 66
     1
 10
0.0
 20
0.0
 30
0.0
 70
     1
  0
VERTEX
  5
C64
  8
0
 10
30.50476718689994
 20
10.632662287057521
 30
0.0
  0
VERTEX
  5
C65
  8
0
 10
32.200534173321323
 20
10.632662287057521
 30
0.0
  0
VERTEX
  5
C66
  8
0
 10
32.200534173321323
 20
10.052620752170631
 30
0.0
  0
VERTEX
  5
C67
  8
0
 10
30.50476718689994
 20
10.052620752170631
 30
0.0
  0
SEQEND
  5
C68
  8
0
  0
LINE
  5
981
  8
0
 10
28.295219412843039
 20
11.31719234551062
 30
0.0
 11
30.504557604892401
 21
11.31719234551062
 31
0.0
  0
LINE
  5
982
  8
0
 10
30.501850011408781
 20
11.160261253355181
 30
0.0
 11
30.106551740379022
 21
11.160261253355181
 31
0.0
  0
LINE
  5
983
  8
0
 10
30.106551740379022
 20
11.160261253355181
 30
0.0
 11
30.106551740379022
 21
10.36748864862097
 31
0.0
  0
LINE
  5
984
  8
0
 10
30.106551740379022
 20
10.36748864862097
 30
0.0
 11
30.504557604892401
 21
10.36748864862097
 31
0.0
  0
LINE
  5
985
  8
0
 10
24.102165401706941
 20
10.64989710101182
 30
0.0
 11
24.102165401706941
 21
9.9928857983693362
 31
0.0
  0
TEXT
  5
98C
  8
0
 10
24.362252744115921
 20
9.5752038944413655
 30
0.0
 40
0.2
  1
ePAQ-9420
  0
TEXT
  5
993
  8
0
 10
24.16717217833008
 20
12.06081577198051
 30
0.0
 40
0.2
  1
ePAQ-9420
  0
LINE
  5
9B6
  8
0
 10
32.278374273847653
 20
13.031331890453719
 30
0.0
 11
33.538076849689659
 21
13.031331890453719
 31
0.0
  0
LINE
  5
9B7
  8
0
 10
32.275354756624672
 20
12.686270634954131
 30
0.0
 11
33.554519420517401
 21
12.686270634954131
 31
0.0
  0
INSERT
  5
9B8
  8
9
  6
CONTINUOUS
 62
     7
  2
XXXAHD
 10
33.653274336240841
 20
13.04684988667354
 30
0.0
 41
0.1200000000000045
 42
0.0799957263779518
 43
0.1200000000000045
  0
INSERT
  5
9B9
  8
9
  6
CONTINUOUS
 62
     7
  2
XXXAHD
 10
33.635635829300881
 20
12.67962756437568
 30
0.0
 41
0.1200000000000045
 42
0.0799957263779518
 43
0.1200000000000045
  0
TEXT
  5
9BA
  8
0
 10
33.700836420592637
 20
12.941871245038859
 30
0.0
 40
0.2
  1
2 voltage reduction outputs
  0
TEXT
  5
9BB
  8
0
 10
33.668639674990793
 20
12.6077222892518
 30
0.0
 40
0.2
  1
tie breaker close/trip
  0
INSERT
  5
9BC
  8
9
  6
CONTINUOUS
 62
     7
  2
XXXAHD
 10
33.607556699387928
 20
13.821982214413969
 30
0.0
 41
0.1200000000000045
 42
0.0799957263779518
 43
0.1200000000000045
  0
TEXT
  5
9BD
  8
0
 10
33.659641764736548
 20
13.73357679352371
 30
0.0
 40
0.2
  1
8 recloser enable/disable controls
  0
LINE
  5
9BE
  8
0
 10
32.28674365409907
 20
13.82164096987959
 30
0.0
 11
33.486050631146853
 21
13.82164096987959
 31
0.0
  0
INSERT
  5
9BF
  8
9
  6
CONTINUOUS
 62
     7
  2
XXXAHD
 10
27.960182530667051
 20
12.86633560700546
 30
0.0
 41
0.1200000000000045
 42
0.0799958907480303
 43
0.1200000000000045
 50
180.0
  0
INSERT
  5
9C0
  8
9
  6
CONTINUOUS
 62
     7
  2
XXXAHD
 10
26.966395014200891
 20
12.85829413468009
 30
0.0
 41
0.1200000000000045
 42
0.0799958907480303
 43
0.1200000000000045
 50
180.0
  0
TEXT
  5
9C1
  8
0
 10
28.358493896979621
 20
12.801787646325829
 30
0.0
 40
0.2
  1
status inputs
  0
LINE
  5
9C2
  8
0
 10
28.212315549113121
 20
12.860472612147181
 30
0.0
 11
26.270288861354729
 21
12.860472612147181
 31
0.0
  0
TEXT
  5
9C3
  8
0
 10
24.731675713472669
 20
13.022402005657501
 30
0.0
 40
0.2
  1
SIM-9450
  0
POLYLINE
  5
9C4
  8
0
 66
     1
 10
0.0
 20
0.0
 30
0.0
 70
     1
  0
VERTEX
  5
C69
  8
0
 10
24.565398876584752
 20
13.36510631958857
 30
0.0
  0
VERTEX
  5
C6A
  8
0
 10
26.261165863006131
 20
13.36510631958857
 30
0.0
  0
VERTEX
  5
C6B
  8
0
 10
26.261165863006131
 20
12.78506478470169
 30
0.0
  0
VERTEX
  5
C6C
  8
0
 10
24.565398876584752
 20
12.78506478470169
 30
0.0
  0
SEQEND
  5
C6D
  8
0
  0
LINE
  5
9C5
  8
0
 10
25.821496687117961
 20
14.318348248033679
 30
0.0
 11
25.821496687117961
 21
13.365058681039329
 31
0.0
  0
TEXT
  5
9C6
  8
0
 10
26.837207712866821
 20
13.75835691819781
 30
0.0
 40
0.2
  1
COM-9460
  0
POLYLINE
  5
9C7
  8
0
 66
     1
 10
0.0
 20
0.0
 30
0.0
 70
     1
  0
VERTEX
  5
C6E
  8
0
 10
26.6709308759789
 20
14.101061232128879
 30
0.0
  0
VERTEX
  5
C6F
  8
0
 10
28.366697862400269
 20
14.101061232128879
 30
0.0
  0
VERTEX
  5
C70
  8
0
 10
28.366697862400269
 20
13.521019697242
 30
0.0
  0
VERTEX
  5
C71
  8
0
 10
26.6709308759789
 20
13.521019697242
 30
0.0
  0
SEQEND
  5
C72
  8
0
  0
LINE
  5
9C8
  8
0
 10
26.12039608950408
 20
14.32027457876414
 30
0.0
 11
26.12039608950408
 21
13.84359743467274
 31
0.0
  0
LINE
  5
9C9
  8
0
 10
26.12039608950408
 20
13.84359743467274
 30
0.0
 11
26.673712302676648
 21
13.84359743467274
 31
0.0
  0
POLYLINE
  5
9CB
  8
0
 66
     1
 10
0.0
 20
0.0
 30
0.0
 70
     1
  0
VERTEX
  5
C73
  8
0
 10
30.578220277294541
 20
14.100658164832179
 30
0.0
  0
VERTEX
  5
C74
  8
0
 10
32.27398726371591
 20
14.100658164832179
 30
0.0
  0
VERTEX
  5
C75
  8
0
 10
32.27398726371591
 20
13.520616629945289
 30
0.0
  0
VERTEX
  5
C76
  8
0
 10
30.578220277294541
 20
13.520616629945289
 30
0.0
  0
SEQEND
  5
C77
  8
0
  0
POLYLINE
  5
9CD
  8
0
 66
     1
 10
0.0
 20
0.0
 30
0.0
 70
     1
  0
VERTEX
  5
C78
  8
0
 10
30.578220277294541
 20
13.142026671333589
 30
0.0
  0
VERTEX
  5
C79
  8
0
 10
32.27398726371591
 20
13.142026671333589
 30
0.0
  0
VERTEX
  5
C7A
  8
0
 10
32.27398726371591
 20
12.561985136446699
 30
0.0
  0
VERTEX
  5
C7B
  8
0
 10
30.578220277294541
 20
12.561985136446699
 30
0.0
  0
SEQEND
  5
C7C
  8
0
  0
LINE
  5
9CE
  8
0
 10
28.368672503237629
 20
13.82655672978669
 30
0.0
 11
30.578010695286991
 21
13.82655672978669
 31
0.0
  0
LINE
  5
9CF
  8
0
 10
30.575303101803371
 20
13.669625637631251
 30
0.0
 11
30.180004830773608
 21
13.669625637631251
 31
0.0
  0
LINE
  5
9D0
  8
0
 10
30.180004830773608
 20
13.669625637631251
 30
0.0
 11
30.180004830773608
 21
12.87685303289704
 31
0.0
  0
LINE
  5
9D1
  8
0
 10
30.180004830773608
 20
12.87685303289704
 30
0.0
 11
30.578010695286991
 21
12.87685303289704
 31
0.0
  0
LINE
  5
9D4
  8
RS485
 10
25.65929829212088
 20
21.3591708140927
 30
0.0
 11
25.65929829212088
 21
20.0240557793188
 31
0.0
  0
INSERT
  5
9FC
  8
9
  6
CONTINUOUS
 62
     7
  2
XXXAHD
 10
33.522807079046103
 20
18.820451048425181
 30
0.0
 41
0.1200000000000045
 42
0.0799957263779518
 43
0.1200000000000045
  0
TEXT
  5
9FD
  8
0
 10
33.574892144394731
 20
18.732045627534919
 30
0.0
 40
0.2
  1
52L1 close trip, 52L1 79 cutout contol
  0
LINE
  5
9FE
  8
0
 10
32.201994033757252
 20
18.820109803890809
 30
0.0
 11
33.401301010805028
 21
18.820109803890809
 31
0.0
  0
INSERT
  5
9FF
  8
9
  6
CONTINUOUS
 62
     7
  2
XXXAHD
 10
27.87543291032523
 20
17.86480444101667
 30
0.0
 41
0.1200000000000045
 42
0.0799958907480303
 43
0.1200000000000045
 50
180.0
  0
INSERT
  5
A00
  8
9
  6
CONTINUOUS
 62
     7
  2
XXXAHD
 10
26.88164539385906
 20
17.856762968691299
 30
0.0
 41
0.1200000000000045
 42
0.0799958907480303
 43
0.1200000000000045
 50
180.0
  0
TEXT
  5
A01
  8
0
 10
28.2737442766378
 20
17.80025648033704
 30
0.0
 40
0.2
  1
status inputs
  0
LINE
  5
A02
  8
0
 10
28.12756592877129
 20
17.858941446158401
 30
0.0
 11
26.185539241012901
 21
17.858941446158401
 31
0.0
  0
TEXT
  5
A03
  8
0
 10
24.646926093130851
 20
18.020870839668721
 30
0.0
 40
0.2
  1
SIM-9450
  0
POLYLINE
  5
A04
  8
0
 66
     1
 10
0.0
 20
0.0
 30
0.0
 70
     1
  0
VERTEX
  5
C7D
  8
0
 10
24.480649256242931
 20
18.36357515359979
 30
0.0
  0
VERTEX
  5
C7E
  8
0
 10
26.176416242664299
 20
18.36357515359979
 30
0.0
  0
VERTEX
  5
C7F
  8
0
 10
26.176416242664299
 20
17.783533618712902
 30
0.0
  0
VERTEX
  5
C80
  8
0
 10
24.480649256242931
 20
17.783533618712902
 30
0.0
  0
SEQEND
  5
C81
  8
0
  0
LINE
  5
A05
  8
0
 10
25.736747066776129
 20
19.316817082044889
 30
0.0
 11
25.736747066776129
 21
18.363527515050549
 31
0.0
  0
TEXT
  5
A06
  8
0
 10
26.752458092524989
 20
18.756825752209021
 30
0.0
 40
0.2
  1
COM-9460
  0
POLYLINE
  5
A07
  8
0
 66
     1
 10
0.0
 20
0.0
 30
0.0
 70
     1
  0
VERTEX
  5
C82
  8
0
 10
26.586181255637079
 20
19.099530066140101
 30
0.0
  0
VERTEX
  5
C83
  8
0
 10
28.281948242058451
 20
19.099530066140101
 30
0.0
  0
VERTEX
  5
C84
  8
0
 10
28.281948242058451
 20
18.519488531253209
 30
0.0
  0
VERTEX
  5
C85
  8
0
 10
26.586181255637079
 20
18.519488531253209
 30
0.0
  0
SEQEND
  5
C86
  8
0
  0
LINE
  5
A08
  8
0
 10
26.035646469162259
 20
19.318743412775351
 30
0.0
 11
26.035646469162259
 21
18.842066268683961
 31
0.0
  0
LINE
  5
A09
  8
0
 10
26.035646469162259
 20
18.842066268683961
 30
0.0
 11
26.58896268233482
 21
18.842066268683961
 31
0.0
  0
TEXT
  5
A0A
  8
0
 10
30.65974749384063
 20
18.756422684912319
 30
0.0
 40
0.2
  1
ROP-9470
  0
POLYLINE
  5
A0B
  8
0
 66
     1
 10
0.0
 20
0.0
 30
0.0
 70
     1
  0
VERTEX
  5
C87
  8
0
 10
30.493470656952709
 20
19.099126998843388
 30
0.0
  0
VERTEX
  5
C88
  8
0
 10
32.189237643374092
 20
19.099126998843388
 30
0.0
  0
VERTEX
  5
C89
  8
0
 10
32.189237643374092
 20
18.519085463956511
 30
0.0
  0
VERTEX
  5
C8A
  8
0
 10
30.493470656952709
 20
18.519085463956511
 30
0.0
  0
SEQEND
  5
C8B
  8
0
  0
LINE
  5
A0E
  8
0
 10
28.283922882895808
 20
18.825025563797901
 30
0.0
 11
30.49326107494517
 21
18.825025563797901
 31
0.0
  0
TEXT
  5
A1A
  8
0
 10
24.269062813306359
 20
14.60186976231803
 30
0.0
 40
0.2
  1
ePAQ-9420
  0
TEXT
  5
A21
  8
0
 10
24.455096397825891
 20
19.644650641363441
 30
0.0
 40
0.2
  1
ePAQ-9420
  0
TEXT
  5
A54
  8
SERIAL
 10
5.1139663732505758
 20
-0.3117927861512726
 30
0.0
 40
0.1447913631942299
  1
4
  0
TEXT
  5
A55
  8
SERIAL
 10
5.5336796234808503
 20
-0.2955863474647771
 30
0.0
 40
0.1447913631942299
  1
9/3/13
  0
TEXT
  5
A56
  8
SERIAL
 10
6.4792575368537646
 20
-0.3282686034527558
 30
0.0
 40
0.1447913631942299
  1
updates
  0
TEXT
  5
A5F
  8
SERIAL
 10
9.3945683768136519
 20
-0.3233846241176437
 30
0.0
 40
0.1447913631942299
  1
JPT
  0
TEXT
  5
A67
  8
0
 10
30.508452481033199
 20
11.20501023191855
 30
0.0
 40
0.2
  1
ROP-9470 #1
  0
TEXT
  5
A68
  8
0
 10
30.50845236705155
 20
10.25896241372644
 30
0.0
 40
0.2
  1
ROP-9470 #2
  0
TEXT
  5
A70
  8
0
 10
30.570471279247808
 20
13.74655565349082
 30
0.0
 40
0.2
  1
ROP-9470 #1
  0
TEXT
  5
A71
  8
0
 10
30.570471165266159
 20
12.80050783529871
 30
0.0
 40
0.2
  1
ROP-9470 #2
  0
TEXT
  5
A79
  8
0
 10
25.596413848882111
 20
21.413237956169439
 30
0.0
 40
0.2
  1
RS-485
  0
TEXT
  5
A80
  8
0
 10
26.546689006112128
 20
5.3921326547179396
 30
0.0
 40
0.2
  1
RS-232
  0
POLYLINE
  5
A87
  8
0
 66
     1
 10
0.0
 20
0.0
 30
0.0
 70
     1
  0
VERTEX
  5
C8C
  8
0
 10
27.690437090345899
 20
5.5706133142372698
 30
0.0
  0
VERTEX
  5
C8D
  8
0
 10
29.386204076767271
 20
5.5706133142372698
 30
0.0
  0
VERTEX
  5
C8E
  8
0
 10
29.386204076767271
 20
4.9905717793503817
 30
0.0
  0
VERTEX
  5
C8F
  8
0
 10
27.690437090345899
 20
4.9905717793503817
 30
0.0
  0
SEQEND
  5
C90
  8
0
  0
TEXT
  5
A94
  8
0
 10
12.21820863734351
 20
16.992903251291281
 30
0.0
 40
0.2
  1
(to be purchased by VoA)
  0
VIEWPORT
  5
20F
 67
     1
  8
0
 10
5.2499996395561652
 20
3.9999998836066779
 30
0.0
 40
20.452223798544779
 41
8.9929997457669497
 68
     1
 69
     1
1001
ACAD
1000
MVIEW
1002
{
1070
    16
1010
0.0
1020
0.0
1030
0.0
1010
0.0
1020
0.0
1030
1.0
1040
0.0
1040
8.9929997457669497
1040
5.2499996395561652
1040
3.9999998836066779
1040
50.0
1040
0.0
1040
0.0
1070
     0
1070
  1000
1070
     1
1070
     1
1070
     0
1070
     0
1070
     0
1070
     0
1040
0.0
1040
0.0
1040
0.0
1040
0.5
1040
0.5
1040
0.5
1040
0.5
1070
     0
1002
{
1002
}
1002
}
1001
GENIUS_GENODEF_13
1002
{
1000
HIER
1070
     0
1002
}
1002
{
1000
MANEDIT
1070
     0
1002
}
1002
{
1000
NOSEL
1070
     0
1002
}
1002
{
1000
BEHIND
1070
     0
1002
}
1002
{
1000
OTHER
1070
     0
1002
}
1002
{
1000
REACTOR
1002
}
1001
GENIUS_GENOBJ-N-SDF_13
1002
{
1000
OWNER
1000
GEN
1002
}
1001
GENIUS_GENSCREG_15
1000
PF
1040
1.0
1000
DF
1040
1.0
1000
MIN
1011
-4.9761122597162242
1021
0.0
1031
0.0
1021
-0.4964999892767974
1031
0.0
1000
MAX
1011
15.476111538828549
1021
0.0
1031
0.0
1021
8.4964997564901523
1031
0.0
1000
FLAGS
1070
     4
  0
VIEWPORT
  5
213
 67
     1
  8
0
 10
5.2499997615814209
 20
3.9999997615814209
 30
0.0
 40
8.3999996185302752
 41
6.3999996185302743
 68
     2
 69
     2
1001
ACAD
1000
MVIEW
1002
{
1070
    16
1010
0.0
1020
0.0
1030
0.0
1010
0.0
1020
0.0
1030
1.0
1040
0.0
1040
26.136224727601508
1040
21.925623271221419
1040
10.357939858492401
1040
50.0
1040
0.0
1040
0.0
1070
     0
1070
  1000
1070
     1
1070
     3
1070
     0
1070
     0
1070
     0
1070
     0
1040
0.0
1040
0.0
1040
0.0
1040
0.5
1040
0.5
1040
0.5
1040
0.5
1070
     0
1002
{
1002
}
1002
}
1001
GENIUS_GENOBJ-N-SDF_13
1002
{
1000
OWNER
1000
GEN
1002
}
1001
GENIUS_GENODEF_13
1002
{
1000
HIER
1070
     0
1002
}
1002
{
1000
MANEDIT
1070
     0
1002
}
1002
{
1000
NOSEL
1070
     0
1002
}
1002
{
1000
BEHIND
1070
     0
1002
}
1002
{
1000
OTHER
1070
     0
1002
}
1002
{
1000
REACTOR
1002
}
1001
GENIUS_GENSCREG_15
1000
PF
1040
0.0
1000
DF
1040
0.0
1000
MIN
1011
1.049999952316284
1021
0.0
1031
0.0
1021
0.7999999523162842
1031
0.0
1000
MAX
1011
9.4499995708465594
1021
0.0
1031
0.0
1021
7.1999995708465576
1031
0.0
1000
FLAGS
1070
     4
  0
ENDSEC
  0
EOF
